G04 #@! TF.GenerationSoftware,KiCad,Pcbnew,no-vcs-found-3ad3869~61~ubuntu16.04.1*
G04 #@! TF.CreationDate,2018-02-07T22:49:40+05:30*
G04 #@! TF.ProjectId,k3jr_controller,6B336A725F636F6E74726F6C6C65722E,rev 1*
G04 #@! TF.SameCoordinates,Original*
G04 #@! TF.FileFunction,Copper,L1,Top,Signal*
G04 #@! TF.FilePolarity,Positive*
%FSLAX46Y46*%
G04 Gerber Fmt 4.6, Leading zero omitted, Abs format (unit mm)*
G04 Created by KiCad (PCBNEW no-vcs-found-3ad3869~61~ubuntu16.04.1) date Wed Feb  7 22:49:40 2018*
%MOMM*%
%LPD*%
G01*
G04 APERTURE LIST*
%ADD10O,2.200000X1.400000*%
%ADD11C,1.450000*%
%ADD12C,0.150000*%
%ADD13C,1.600000*%
%ADD14C,6.400000*%
%ADD15C,0.800000*%
%ADD16C,5.200000*%
%ADD17O,2.000000X1.000000*%
%ADD18O,1.000000X2.000000*%
%ADD19C,1.800000*%
%ADD20C,1.524000*%
%ADD21R,1.524000X1.524000*%
%ADD22C,0.900000*%
%ADD23C,1.016000*%
%ADD24C,0.254000*%
%ADD25C,0.508000*%
G04 APERTURE END LIST*
D10*
X52355000Y-73970000D03*
X52355000Y-80970000D03*
D11*
X55055000Y-74970000D03*
X55055000Y-79970000D03*
D12*
G36*
X191574207Y-53176926D02*
X191613036Y-53182686D01*
X191651114Y-53192224D01*
X191688073Y-53205448D01*
X191723559Y-53222231D01*
X191757228Y-53242412D01*
X191788757Y-53265796D01*
X191817843Y-53292157D01*
X191844204Y-53321243D01*
X191867588Y-53352772D01*
X191887769Y-53386441D01*
X191904552Y-53421927D01*
X191917776Y-53458886D01*
X191927314Y-53496964D01*
X191933074Y-53535793D01*
X191935000Y-53575000D01*
X191935000Y-54375000D01*
X191933074Y-54414207D01*
X191927314Y-54453036D01*
X191917776Y-54491114D01*
X191904552Y-54528073D01*
X191887769Y-54563559D01*
X191867588Y-54597228D01*
X191844204Y-54628757D01*
X191817843Y-54657843D01*
X191788757Y-54684204D01*
X191757228Y-54707588D01*
X191723559Y-54727769D01*
X191688073Y-54744552D01*
X191651114Y-54757776D01*
X191613036Y-54767314D01*
X191574207Y-54773074D01*
X191535000Y-54775000D01*
X190735000Y-54775000D01*
X190695793Y-54773074D01*
X190656964Y-54767314D01*
X190618886Y-54757776D01*
X190581927Y-54744552D01*
X190546441Y-54727769D01*
X190512772Y-54707588D01*
X190481243Y-54684204D01*
X190452157Y-54657843D01*
X190425796Y-54628757D01*
X190402412Y-54597228D01*
X190382231Y-54563559D01*
X190365448Y-54528073D01*
X190352224Y-54491114D01*
X190342686Y-54453036D01*
X190336926Y-54414207D01*
X190335000Y-54375000D01*
X190335000Y-53575000D01*
X190336926Y-53535793D01*
X190342686Y-53496964D01*
X190352224Y-53458886D01*
X190365448Y-53421927D01*
X190382231Y-53386441D01*
X190402412Y-53352772D01*
X190425796Y-53321243D01*
X190452157Y-53292157D01*
X190481243Y-53265796D01*
X190512772Y-53242412D01*
X190546441Y-53222231D01*
X190581927Y-53205448D01*
X190618886Y-53192224D01*
X190656964Y-53182686D01*
X190695793Y-53176926D01*
X190735000Y-53175000D01*
X191535000Y-53175000D01*
X191574207Y-53176926D01*
X191574207Y-53176926D01*
G37*
D13*
X191135000Y-53975000D03*
D14*
X55245000Y-87630000D03*
D15*
X57645000Y-87630000D03*
X56942056Y-89327056D03*
X55245000Y-90030000D03*
X53547944Y-89327056D03*
X52845000Y-87630000D03*
X53547944Y-85932944D03*
X55245000Y-85230000D03*
X56942056Y-85932944D03*
D14*
X207645000Y-87630000D03*
D15*
X210045000Y-87630000D03*
X209342056Y-89327056D03*
X207645000Y-90030000D03*
X205947944Y-89327056D03*
X205245000Y-87630000D03*
X205947944Y-85932944D03*
X207645000Y-85230000D03*
X209342056Y-85932944D03*
D16*
X95885000Y-88265000D03*
X106045000Y-88265000D03*
X116205000Y-88265000D03*
X167005000Y-88265000D03*
X156845000Y-88265000D03*
X126365000Y-88265000D03*
X146685000Y-88265000D03*
X136525000Y-88265000D03*
D15*
X69850000Y-78105000D03*
X71120000Y-78105000D03*
X71120000Y-76835000D03*
X69850000Y-76835000D03*
X70485000Y-77470000D03*
D17*
X170885000Y-56980000D03*
X170885000Y-58250000D03*
X170885000Y-59520000D03*
X170885000Y-60790000D03*
X170885000Y-62060000D03*
X170885000Y-63330000D03*
X170885000Y-64600000D03*
X170885000Y-65870000D03*
X170885000Y-67140000D03*
X170885000Y-68410000D03*
X170885000Y-69680000D03*
X170885000Y-70950000D03*
X170885000Y-72220000D03*
X170885000Y-73490000D03*
X147885000Y-58250000D03*
X147885000Y-67140000D03*
X147885000Y-68410000D03*
X147885000Y-60790000D03*
X147885000Y-56980000D03*
X147885000Y-69680000D03*
X147885000Y-63330000D03*
X147885000Y-73490000D03*
X147885000Y-72220000D03*
X147885000Y-65870000D03*
X147885000Y-64600000D03*
X147885000Y-62060000D03*
X147885000Y-70950000D03*
X147885000Y-59520000D03*
D18*
X165100000Y-77480000D03*
X163830000Y-77480000D03*
X162560000Y-77480000D03*
X161290000Y-77480000D03*
X160020000Y-77480000D03*
X157480000Y-77480000D03*
X156210000Y-77480000D03*
X154940000Y-77480000D03*
X153670000Y-77480000D03*
X158750000Y-77480000D03*
D19*
X198755000Y-87630000D03*
X196215000Y-87630000D03*
X193675000Y-87630000D03*
X191135000Y-87630000D03*
X71755000Y-87630000D03*
X69215000Y-87630000D03*
X66675000Y-87630000D03*
X64135000Y-87630000D03*
D12*
G36*
X194114207Y-53176926D02*
X194153036Y-53182686D01*
X194191114Y-53192224D01*
X194228073Y-53205448D01*
X194263559Y-53222231D01*
X194297228Y-53242412D01*
X194328757Y-53265796D01*
X194357843Y-53292157D01*
X194384204Y-53321243D01*
X194407588Y-53352772D01*
X194427769Y-53386441D01*
X194444552Y-53421927D01*
X194457776Y-53458886D01*
X194467314Y-53496964D01*
X194473074Y-53535793D01*
X194475000Y-53575000D01*
X194475000Y-54375000D01*
X194473074Y-54414207D01*
X194467314Y-54453036D01*
X194457776Y-54491114D01*
X194444552Y-54528073D01*
X194427769Y-54563559D01*
X194407588Y-54597228D01*
X194384204Y-54628757D01*
X194357843Y-54657843D01*
X194328757Y-54684204D01*
X194297228Y-54707588D01*
X194263559Y-54727769D01*
X194228073Y-54744552D01*
X194191114Y-54757776D01*
X194153036Y-54767314D01*
X194114207Y-54773074D01*
X194075000Y-54775000D01*
X193275000Y-54775000D01*
X193235793Y-54773074D01*
X193196964Y-54767314D01*
X193158886Y-54757776D01*
X193121927Y-54744552D01*
X193086441Y-54727769D01*
X193052772Y-54707588D01*
X193021243Y-54684204D01*
X192992157Y-54657843D01*
X192965796Y-54628757D01*
X192942412Y-54597228D01*
X192922231Y-54563559D01*
X192905448Y-54528073D01*
X192892224Y-54491114D01*
X192882686Y-54453036D01*
X192876926Y-54414207D01*
X192875000Y-54375000D01*
X192875000Y-53575000D01*
X192876926Y-53535793D01*
X192882686Y-53496964D01*
X192892224Y-53458886D01*
X192905448Y-53421927D01*
X192922231Y-53386441D01*
X192942412Y-53352772D01*
X192965796Y-53321243D01*
X192992157Y-53292157D01*
X193021243Y-53265796D01*
X193052772Y-53242412D01*
X193086441Y-53222231D01*
X193121927Y-53205448D01*
X193158886Y-53192224D01*
X193196964Y-53182686D01*
X193235793Y-53176926D01*
X193275000Y-53175000D01*
X194075000Y-53175000D01*
X194114207Y-53176926D01*
X194114207Y-53176926D01*
G37*
D13*
X193675000Y-53975000D03*
D12*
G36*
X196654207Y-53176926D02*
X196693036Y-53182686D01*
X196731114Y-53192224D01*
X196768073Y-53205448D01*
X196803559Y-53222231D01*
X196837228Y-53242412D01*
X196868757Y-53265796D01*
X196897843Y-53292157D01*
X196924204Y-53321243D01*
X196947588Y-53352772D01*
X196967769Y-53386441D01*
X196984552Y-53421927D01*
X196997776Y-53458886D01*
X197007314Y-53496964D01*
X197013074Y-53535793D01*
X197015000Y-53575000D01*
X197015000Y-54375000D01*
X197013074Y-54414207D01*
X197007314Y-54453036D01*
X196997776Y-54491114D01*
X196984552Y-54528073D01*
X196967769Y-54563559D01*
X196947588Y-54597228D01*
X196924204Y-54628757D01*
X196897843Y-54657843D01*
X196868757Y-54684204D01*
X196837228Y-54707588D01*
X196803559Y-54727769D01*
X196768073Y-54744552D01*
X196731114Y-54757776D01*
X196693036Y-54767314D01*
X196654207Y-54773074D01*
X196615000Y-54775000D01*
X195815000Y-54775000D01*
X195775793Y-54773074D01*
X195736964Y-54767314D01*
X195698886Y-54757776D01*
X195661927Y-54744552D01*
X195626441Y-54727769D01*
X195592772Y-54707588D01*
X195561243Y-54684204D01*
X195532157Y-54657843D01*
X195505796Y-54628757D01*
X195482412Y-54597228D01*
X195462231Y-54563559D01*
X195445448Y-54528073D01*
X195432224Y-54491114D01*
X195422686Y-54453036D01*
X195416926Y-54414207D01*
X195415000Y-54375000D01*
X195415000Y-53575000D01*
X195416926Y-53535793D01*
X195422686Y-53496964D01*
X195432224Y-53458886D01*
X195445448Y-53421927D01*
X195462231Y-53386441D01*
X195482412Y-53352772D01*
X195505796Y-53321243D01*
X195532157Y-53292157D01*
X195561243Y-53265796D01*
X195592772Y-53242412D01*
X195626441Y-53222231D01*
X195661927Y-53205448D01*
X195698886Y-53192224D01*
X195736964Y-53182686D01*
X195775793Y-53176926D01*
X195815000Y-53175000D01*
X196615000Y-53175000D01*
X196654207Y-53176926D01*
X196654207Y-53176926D01*
G37*
D13*
X196215000Y-53975000D03*
D12*
G36*
X175064207Y-83021926D02*
X175103036Y-83027686D01*
X175141114Y-83037224D01*
X175178073Y-83050448D01*
X175213559Y-83067231D01*
X175247228Y-83087412D01*
X175278757Y-83110796D01*
X175307843Y-83137157D01*
X175334204Y-83166243D01*
X175357588Y-83197772D01*
X175377769Y-83231441D01*
X175394552Y-83266927D01*
X175407776Y-83303886D01*
X175417314Y-83341964D01*
X175423074Y-83380793D01*
X175425000Y-83420000D01*
X175425000Y-84220000D01*
X175423074Y-84259207D01*
X175417314Y-84298036D01*
X175407776Y-84336114D01*
X175394552Y-84373073D01*
X175377769Y-84408559D01*
X175357588Y-84442228D01*
X175334204Y-84473757D01*
X175307843Y-84502843D01*
X175278757Y-84529204D01*
X175247228Y-84552588D01*
X175213559Y-84572769D01*
X175178073Y-84589552D01*
X175141114Y-84602776D01*
X175103036Y-84612314D01*
X175064207Y-84618074D01*
X175025000Y-84620000D01*
X174225000Y-84620000D01*
X174185793Y-84618074D01*
X174146964Y-84612314D01*
X174108886Y-84602776D01*
X174071927Y-84589552D01*
X174036441Y-84572769D01*
X174002772Y-84552588D01*
X173971243Y-84529204D01*
X173942157Y-84502843D01*
X173915796Y-84473757D01*
X173892412Y-84442228D01*
X173872231Y-84408559D01*
X173855448Y-84373073D01*
X173842224Y-84336114D01*
X173832686Y-84298036D01*
X173826926Y-84259207D01*
X173825000Y-84220000D01*
X173825000Y-83420000D01*
X173826926Y-83380793D01*
X173832686Y-83341964D01*
X173842224Y-83303886D01*
X173855448Y-83266927D01*
X173872231Y-83231441D01*
X173892412Y-83197772D01*
X173915796Y-83166243D01*
X173942157Y-83137157D01*
X173971243Y-83110796D01*
X174002772Y-83087412D01*
X174036441Y-83067231D01*
X174071927Y-83050448D01*
X174108886Y-83037224D01*
X174146964Y-83027686D01*
X174185793Y-83021926D01*
X174225000Y-83020000D01*
X175025000Y-83020000D01*
X175064207Y-83021926D01*
X175064207Y-83021926D01*
G37*
D13*
X174625000Y-83820000D03*
D12*
G36*
X182684207Y-83021926D02*
X182723036Y-83027686D01*
X182761114Y-83037224D01*
X182798073Y-83050448D01*
X182833559Y-83067231D01*
X182867228Y-83087412D01*
X182898757Y-83110796D01*
X182927843Y-83137157D01*
X182954204Y-83166243D01*
X182977588Y-83197772D01*
X182997769Y-83231441D01*
X183014552Y-83266927D01*
X183027776Y-83303886D01*
X183037314Y-83341964D01*
X183043074Y-83380793D01*
X183045000Y-83420000D01*
X183045000Y-84220000D01*
X183043074Y-84259207D01*
X183037314Y-84298036D01*
X183027776Y-84336114D01*
X183014552Y-84373073D01*
X182997769Y-84408559D01*
X182977588Y-84442228D01*
X182954204Y-84473757D01*
X182927843Y-84502843D01*
X182898757Y-84529204D01*
X182867228Y-84552588D01*
X182833559Y-84572769D01*
X182798073Y-84589552D01*
X182761114Y-84602776D01*
X182723036Y-84612314D01*
X182684207Y-84618074D01*
X182645000Y-84620000D01*
X181845000Y-84620000D01*
X181805793Y-84618074D01*
X181766964Y-84612314D01*
X181728886Y-84602776D01*
X181691927Y-84589552D01*
X181656441Y-84572769D01*
X181622772Y-84552588D01*
X181591243Y-84529204D01*
X181562157Y-84502843D01*
X181535796Y-84473757D01*
X181512412Y-84442228D01*
X181492231Y-84408559D01*
X181475448Y-84373073D01*
X181462224Y-84336114D01*
X181452686Y-84298036D01*
X181446926Y-84259207D01*
X181445000Y-84220000D01*
X181445000Y-83420000D01*
X181446926Y-83380793D01*
X181452686Y-83341964D01*
X181462224Y-83303886D01*
X181475448Y-83266927D01*
X181492231Y-83231441D01*
X181512412Y-83197772D01*
X181535796Y-83166243D01*
X181562157Y-83137157D01*
X181591243Y-83110796D01*
X181622772Y-83087412D01*
X181656441Y-83067231D01*
X181691927Y-83050448D01*
X181728886Y-83037224D01*
X181766964Y-83027686D01*
X181805793Y-83021926D01*
X181845000Y-83020000D01*
X182645000Y-83020000D01*
X182684207Y-83021926D01*
X182684207Y-83021926D01*
G37*
D13*
X182245000Y-83820000D03*
D12*
G36*
X175064207Y-85561926D02*
X175103036Y-85567686D01*
X175141114Y-85577224D01*
X175178073Y-85590448D01*
X175213559Y-85607231D01*
X175247228Y-85627412D01*
X175278757Y-85650796D01*
X175307843Y-85677157D01*
X175334204Y-85706243D01*
X175357588Y-85737772D01*
X175377769Y-85771441D01*
X175394552Y-85806927D01*
X175407776Y-85843886D01*
X175417314Y-85881964D01*
X175423074Y-85920793D01*
X175425000Y-85960000D01*
X175425000Y-86760000D01*
X175423074Y-86799207D01*
X175417314Y-86838036D01*
X175407776Y-86876114D01*
X175394552Y-86913073D01*
X175377769Y-86948559D01*
X175357588Y-86982228D01*
X175334204Y-87013757D01*
X175307843Y-87042843D01*
X175278757Y-87069204D01*
X175247228Y-87092588D01*
X175213559Y-87112769D01*
X175178073Y-87129552D01*
X175141114Y-87142776D01*
X175103036Y-87152314D01*
X175064207Y-87158074D01*
X175025000Y-87160000D01*
X174225000Y-87160000D01*
X174185793Y-87158074D01*
X174146964Y-87152314D01*
X174108886Y-87142776D01*
X174071927Y-87129552D01*
X174036441Y-87112769D01*
X174002772Y-87092588D01*
X173971243Y-87069204D01*
X173942157Y-87042843D01*
X173915796Y-87013757D01*
X173892412Y-86982228D01*
X173872231Y-86948559D01*
X173855448Y-86913073D01*
X173842224Y-86876114D01*
X173832686Y-86838036D01*
X173826926Y-86799207D01*
X173825000Y-86760000D01*
X173825000Y-85960000D01*
X173826926Y-85920793D01*
X173832686Y-85881964D01*
X173842224Y-85843886D01*
X173855448Y-85806927D01*
X173872231Y-85771441D01*
X173892412Y-85737772D01*
X173915796Y-85706243D01*
X173942157Y-85677157D01*
X173971243Y-85650796D01*
X174002772Y-85627412D01*
X174036441Y-85607231D01*
X174071927Y-85590448D01*
X174108886Y-85577224D01*
X174146964Y-85567686D01*
X174185793Y-85561926D01*
X174225000Y-85560000D01*
X175025000Y-85560000D01*
X175064207Y-85561926D01*
X175064207Y-85561926D01*
G37*
D13*
X174625000Y-86360000D03*
D20*
X177165000Y-88900000D03*
D21*
X179705000Y-88900000D03*
D20*
X177165000Y-86360000D03*
X179705000Y-86360000D03*
X177165000Y-83820000D03*
X179705000Y-83820000D03*
D12*
G36*
X182684207Y-85561926D02*
X182723036Y-85567686D01*
X182761114Y-85577224D01*
X182798073Y-85590448D01*
X182833559Y-85607231D01*
X182867228Y-85627412D01*
X182898757Y-85650796D01*
X182927843Y-85677157D01*
X182954204Y-85706243D01*
X182977588Y-85737772D01*
X182997769Y-85771441D01*
X183014552Y-85806927D01*
X183027776Y-85843886D01*
X183037314Y-85881964D01*
X183043074Y-85920793D01*
X183045000Y-85960000D01*
X183045000Y-86760000D01*
X183043074Y-86799207D01*
X183037314Y-86838036D01*
X183027776Y-86876114D01*
X183014552Y-86913073D01*
X182997769Y-86948559D01*
X182977588Y-86982228D01*
X182954204Y-87013757D01*
X182927843Y-87042843D01*
X182898757Y-87069204D01*
X182867228Y-87092588D01*
X182833559Y-87112769D01*
X182798073Y-87129552D01*
X182761114Y-87142776D01*
X182723036Y-87152314D01*
X182684207Y-87158074D01*
X182645000Y-87160000D01*
X181845000Y-87160000D01*
X181805793Y-87158074D01*
X181766964Y-87152314D01*
X181728886Y-87142776D01*
X181691927Y-87129552D01*
X181656441Y-87112769D01*
X181622772Y-87092588D01*
X181591243Y-87069204D01*
X181562157Y-87042843D01*
X181535796Y-87013757D01*
X181512412Y-86982228D01*
X181492231Y-86948559D01*
X181475448Y-86913073D01*
X181462224Y-86876114D01*
X181452686Y-86838036D01*
X181446926Y-86799207D01*
X181445000Y-86760000D01*
X181445000Y-85960000D01*
X181446926Y-85920793D01*
X181452686Y-85881964D01*
X181462224Y-85843886D01*
X181475448Y-85806927D01*
X181492231Y-85771441D01*
X181512412Y-85737772D01*
X181535796Y-85706243D01*
X181562157Y-85677157D01*
X181591243Y-85650796D01*
X181622772Y-85627412D01*
X181656441Y-85607231D01*
X181691927Y-85590448D01*
X181728886Y-85577224D01*
X181766964Y-85567686D01*
X181805793Y-85561926D01*
X181845000Y-85560000D01*
X182645000Y-85560000D01*
X182684207Y-85561926D01*
X182684207Y-85561926D01*
G37*
D13*
X182245000Y-86360000D03*
D12*
G36*
X175064207Y-88101926D02*
X175103036Y-88107686D01*
X175141114Y-88117224D01*
X175178073Y-88130448D01*
X175213559Y-88147231D01*
X175247228Y-88167412D01*
X175278757Y-88190796D01*
X175307843Y-88217157D01*
X175334204Y-88246243D01*
X175357588Y-88277772D01*
X175377769Y-88311441D01*
X175394552Y-88346927D01*
X175407776Y-88383886D01*
X175417314Y-88421964D01*
X175423074Y-88460793D01*
X175425000Y-88500000D01*
X175425000Y-89300000D01*
X175423074Y-89339207D01*
X175417314Y-89378036D01*
X175407776Y-89416114D01*
X175394552Y-89453073D01*
X175377769Y-89488559D01*
X175357588Y-89522228D01*
X175334204Y-89553757D01*
X175307843Y-89582843D01*
X175278757Y-89609204D01*
X175247228Y-89632588D01*
X175213559Y-89652769D01*
X175178073Y-89669552D01*
X175141114Y-89682776D01*
X175103036Y-89692314D01*
X175064207Y-89698074D01*
X175025000Y-89700000D01*
X174225000Y-89700000D01*
X174185793Y-89698074D01*
X174146964Y-89692314D01*
X174108886Y-89682776D01*
X174071927Y-89669552D01*
X174036441Y-89652769D01*
X174002772Y-89632588D01*
X173971243Y-89609204D01*
X173942157Y-89582843D01*
X173915796Y-89553757D01*
X173892412Y-89522228D01*
X173872231Y-89488559D01*
X173855448Y-89453073D01*
X173842224Y-89416114D01*
X173832686Y-89378036D01*
X173826926Y-89339207D01*
X173825000Y-89300000D01*
X173825000Y-88500000D01*
X173826926Y-88460793D01*
X173832686Y-88421964D01*
X173842224Y-88383886D01*
X173855448Y-88346927D01*
X173872231Y-88311441D01*
X173892412Y-88277772D01*
X173915796Y-88246243D01*
X173942157Y-88217157D01*
X173971243Y-88190796D01*
X174002772Y-88167412D01*
X174036441Y-88147231D01*
X174071927Y-88130448D01*
X174108886Y-88117224D01*
X174146964Y-88107686D01*
X174185793Y-88101926D01*
X174225000Y-88100000D01*
X175025000Y-88100000D01*
X175064207Y-88101926D01*
X175064207Y-88101926D01*
G37*
D13*
X174625000Y-88900000D03*
D12*
G36*
X182684207Y-88101926D02*
X182723036Y-88107686D01*
X182761114Y-88117224D01*
X182798073Y-88130448D01*
X182833559Y-88147231D01*
X182867228Y-88167412D01*
X182898757Y-88190796D01*
X182927843Y-88217157D01*
X182954204Y-88246243D01*
X182977588Y-88277772D01*
X182997769Y-88311441D01*
X183014552Y-88346927D01*
X183027776Y-88383886D01*
X183037314Y-88421964D01*
X183043074Y-88460793D01*
X183045000Y-88500000D01*
X183045000Y-89300000D01*
X183043074Y-89339207D01*
X183037314Y-89378036D01*
X183027776Y-89416114D01*
X183014552Y-89453073D01*
X182997769Y-89488559D01*
X182977588Y-89522228D01*
X182954204Y-89553757D01*
X182927843Y-89582843D01*
X182898757Y-89609204D01*
X182867228Y-89632588D01*
X182833559Y-89652769D01*
X182798073Y-89669552D01*
X182761114Y-89682776D01*
X182723036Y-89692314D01*
X182684207Y-89698074D01*
X182645000Y-89700000D01*
X181845000Y-89700000D01*
X181805793Y-89698074D01*
X181766964Y-89692314D01*
X181728886Y-89682776D01*
X181691927Y-89669552D01*
X181656441Y-89652769D01*
X181622772Y-89632588D01*
X181591243Y-89609204D01*
X181562157Y-89582843D01*
X181535796Y-89553757D01*
X181512412Y-89522228D01*
X181492231Y-89488559D01*
X181475448Y-89453073D01*
X181462224Y-89416114D01*
X181452686Y-89378036D01*
X181446926Y-89339207D01*
X181445000Y-89300000D01*
X181445000Y-88500000D01*
X181446926Y-88460793D01*
X181452686Y-88421964D01*
X181462224Y-88383886D01*
X181475448Y-88346927D01*
X181492231Y-88311441D01*
X181512412Y-88277772D01*
X181535796Y-88246243D01*
X181562157Y-88217157D01*
X181591243Y-88190796D01*
X181622772Y-88167412D01*
X181656441Y-88147231D01*
X181691927Y-88130448D01*
X181728886Y-88117224D01*
X181766964Y-88107686D01*
X181805793Y-88101926D01*
X181845000Y-88100000D01*
X182645000Y-88100000D01*
X182684207Y-88101926D01*
X182684207Y-88101926D01*
G37*
D13*
X182245000Y-88900000D03*
D22*
X86995000Y-73025000D03*
X86995000Y-71755000D03*
X88265000Y-71755000D03*
X86995000Y-74295000D03*
X86995000Y-78105000D03*
X86995000Y-76835000D03*
X86995000Y-75565000D03*
X73660000Y-87630000D03*
X67310000Y-80010000D03*
X76200000Y-55880000D03*
X67310000Y-83185000D03*
X67310000Y-81280000D03*
X62230000Y-83185000D03*
X63500000Y-83185000D03*
X64770000Y-83185000D03*
X66040000Y-83185000D03*
X179705000Y-70485000D03*
X190500000Y-79375000D03*
X190500000Y-59055000D03*
X74295006Y-74295000D03*
X131445000Y-66675000D03*
X175895000Y-64135000D03*
X93980000Y-68580000D03*
X82550000Y-76200000D03*
X60960000Y-73025000D03*
X111125000Y-57150000D03*
X106045000Y-57150000D03*
X126365000Y-71120000D03*
X126365000Y-73025000D03*
X123825000Y-73025000D03*
X121285000Y-74295000D03*
X118745000Y-74295000D03*
X116205000Y-74295000D03*
X113665000Y-74295000D03*
X111125000Y-74295000D03*
X108585000Y-74295000D03*
X106045000Y-74295000D03*
X103505000Y-74295000D03*
X100965000Y-74295000D03*
X98425000Y-74295000D03*
X95885000Y-74295000D03*
X93980000Y-70485000D03*
X93980000Y-74295000D03*
X93980000Y-72390000D03*
X93980000Y-66675000D03*
X95885000Y-66675000D03*
X98425000Y-66675000D03*
X100965000Y-66675000D03*
X103505000Y-66675000D03*
X106045000Y-66675000D03*
X108585000Y-66675000D03*
X111125000Y-66675000D03*
X113665000Y-66675000D03*
X116205000Y-66675000D03*
X118745000Y-66675000D03*
X121285000Y-66675000D03*
X123825000Y-66675000D03*
X126365000Y-66675000D03*
X99060000Y-68580000D03*
X102870000Y-68580000D03*
X105410000Y-68580000D03*
X107950000Y-68580000D03*
X110490000Y-68580000D03*
X112395000Y-68580000D03*
X114300000Y-68580000D03*
X116205000Y-68580000D03*
X118110000Y-68580000D03*
X120015000Y-68580000D03*
X121920000Y-68580000D03*
X123825000Y-68580000D03*
X125730000Y-68580000D03*
X76200000Y-60960000D03*
X76200000Y-65405000D03*
X133350000Y-67945000D03*
X134620000Y-69215000D03*
X142875000Y-78105000D03*
X136525000Y-78105000D03*
X136525000Y-73660000D03*
X148590000Y-76835000D03*
X146050000Y-76835000D03*
X108585000Y-60960000D03*
X139065000Y-78105000D03*
X136525000Y-70485000D03*
X140970000Y-78105000D03*
X141605000Y-71120000D03*
X93345000Y-60960000D03*
X78105000Y-60960000D03*
X59054970Y-78105000D03*
X60325000Y-76200000D03*
X167005000Y-76200000D03*
X173990000Y-76199990D03*
X172646753Y-76126753D03*
X168275000Y-76200000D03*
X182880000Y-70485000D03*
X184150000Y-67945000D03*
X123825000Y-59690000D03*
X183515000Y-71755000D03*
D23*
X90805000Y-84328000D02*
X91313000Y-83820000D01*
X91313000Y-83820000D02*
X132080000Y-83820000D01*
X132080000Y-83820000D02*
X136525000Y-88265000D01*
D24*
X188595000Y-87630000D02*
X188595000Y-85090000D01*
X190500000Y-89535000D02*
X188595000Y-87630000D01*
X191770000Y-89535000D02*
X190500000Y-89535000D01*
X193675000Y-87630000D02*
X191770000Y-89535000D01*
X188595000Y-85090000D02*
X181610000Y-78105000D01*
X181610000Y-78105000D02*
X168275000Y-78105000D01*
X168275000Y-78105000D02*
X166370000Y-80010000D01*
X166370000Y-80010000D02*
X81280000Y-80010000D01*
X81280000Y-80010000D02*
X73660000Y-87630000D01*
X167640000Y-77470000D02*
X165735000Y-79375000D01*
X182247792Y-77470000D02*
X167640000Y-77470000D01*
X191135000Y-87630000D02*
X191135000Y-86357208D01*
X191135000Y-86357208D02*
X182247792Y-77470000D01*
X165735000Y-79375000D02*
X80010000Y-79375000D01*
X80010000Y-79375000D02*
X71755000Y-87630000D01*
D25*
X83439000Y-89281000D02*
X90805000Y-81915000D01*
X63246000Y-89281000D02*
X83439000Y-89281000D01*
X62230000Y-88265000D02*
X63246000Y-89281000D01*
X62230000Y-83185000D02*
X62230000Y-88265000D01*
X90805000Y-81915000D02*
X140335000Y-81915000D01*
X140335000Y-81915000D02*
X146685000Y-88265000D01*
D23*
X86995000Y-74295000D02*
X74295006Y-74295000D01*
D25*
X71120000Y-78105000D02*
X69850000Y-78105000D01*
X71120000Y-76835000D02*
X71120000Y-78105000D01*
X69850000Y-76835000D02*
X71120000Y-76835000D01*
X69850000Y-78105000D02*
X69850000Y-76835000D01*
X52355000Y-73970000D02*
X52355000Y-80970000D01*
X52355000Y-80970000D02*
X54055000Y-80970000D01*
X54055000Y-80970000D02*
X55055000Y-79970000D01*
X52355000Y-73970000D02*
X54055000Y-73970000D01*
X54055000Y-73970000D02*
X55055000Y-74970000D01*
X55055000Y-79970000D02*
X55055000Y-74970000D01*
X69850000Y-78105000D02*
X62865000Y-78105000D01*
X60960000Y-79970000D02*
X61000000Y-79970000D01*
X61000000Y-79970000D02*
X62865000Y-78105000D01*
X58420000Y-73660000D02*
X58420000Y-65405000D01*
X58420000Y-65405000D02*
X67945000Y-55880000D01*
X59055000Y-74295000D02*
X58420000Y-73660000D01*
X74295006Y-74295000D02*
X59055000Y-74295000D01*
X67945000Y-55880000D02*
X76200000Y-55880000D01*
D23*
X67310000Y-80010000D02*
X67310000Y-83185000D01*
X67310000Y-83185000D02*
X62230000Y-83185000D01*
X84328000Y-90805000D02*
X90805000Y-84328000D01*
X61595000Y-90805000D02*
X84328000Y-90805000D01*
X60960000Y-90170000D02*
X61595000Y-90805000D01*
X60960000Y-79970000D02*
X60960000Y-90170000D01*
X55055000Y-79970000D02*
X60960000Y-79970000D01*
D24*
X175895000Y-75565000D02*
X176530000Y-76200000D01*
X175895000Y-67310000D02*
X175895000Y-75565000D01*
X171915000Y-63330000D02*
X175895000Y-67310000D01*
X170885000Y-63330000D02*
X171915000Y-63330000D01*
X176530000Y-76200000D02*
X183515000Y-76200000D01*
X183515000Y-76200000D02*
X193675000Y-86360000D01*
X193675000Y-86360000D02*
X193675000Y-87630000D01*
X175260000Y-76200000D02*
X175895000Y-76835000D01*
X170885000Y-64600000D02*
X171915000Y-64600000D01*
X175260000Y-67945000D02*
X175260000Y-76200000D01*
X171915000Y-64600000D02*
X175260000Y-67945000D01*
X175895000Y-76835000D02*
X182880000Y-76835000D01*
X182880000Y-76835000D02*
X191135000Y-85090000D01*
X191135000Y-85090000D02*
X191135000Y-87630000D01*
X190500000Y-59055000D02*
X190500000Y-73025000D01*
X190500000Y-73025000D02*
X190500000Y-79375000D01*
X182245000Y-73025000D02*
X190500000Y-73025000D01*
X179705000Y-70485000D02*
X182245000Y-73025000D01*
D23*
X74295006Y-76836390D02*
X74295006Y-74295000D01*
X67310000Y-80010000D02*
X71121396Y-80010000D01*
X71121396Y-80010000D02*
X74295006Y-76836390D01*
D25*
X85090000Y-73025000D02*
X60960000Y-73025000D01*
X85725000Y-69215000D02*
X85725000Y-72390000D01*
X85725000Y-72390000D02*
X85090000Y-73025000D01*
X86360000Y-68580000D02*
X85725000Y-69215000D01*
X93980000Y-68580000D02*
X86360000Y-68580000D01*
X82550000Y-76200000D02*
X76835000Y-76200000D01*
X76835000Y-76200000D02*
X66675000Y-86360000D01*
X144780000Y-69215000D02*
X142240000Y-66675000D01*
X149225000Y-78105000D02*
X145415000Y-78105000D01*
X152400000Y-74930000D02*
X149225000Y-78105000D01*
X165735000Y-74930000D02*
X152400000Y-74930000D01*
X170885000Y-58250000D02*
X169377000Y-58250000D01*
X169377000Y-58250000D02*
X167640000Y-59987000D01*
X145415000Y-78105000D02*
X144780000Y-77470000D01*
X167640000Y-59987000D02*
X167640000Y-73025000D01*
X144780000Y-77470000D02*
X144780000Y-69215000D01*
X167640000Y-73025000D02*
X165735000Y-74930000D01*
X142240000Y-66675000D02*
X131445000Y-66675000D01*
X93980000Y-66675000D02*
X131445000Y-66675000D01*
X121285000Y-74295000D02*
X93980000Y-74295000D01*
X122555000Y-73025000D02*
X121285000Y-74295000D01*
X126365000Y-73025000D02*
X122555000Y-73025000D01*
X126365000Y-71120000D02*
X126365000Y-73025000D01*
X93980000Y-69215000D02*
X93980000Y-68580000D01*
X93980000Y-69215000D02*
X93980000Y-66675000D01*
X93980000Y-74295000D02*
X93980000Y-69215000D01*
X176530000Y-66675000D02*
X176530000Y-74930000D01*
X175895000Y-66040000D02*
X176530000Y-66675000D01*
X176530000Y-74930000D02*
X177165000Y-75565000D01*
X175895000Y-64135000D02*
X175895000Y-66040000D01*
X177165000Y-75565000D02*
X184150000Y-75565000D01*
X184150000Y-75565000D02*
X196215000Y-87630000D01*
X66675000Y-87630000D02*
X66675000Y-86360000D01*
D23*
X106045000Y-57150000D02*
X111125000Y-57150000D01*
D25*
X69850000Y-76835000D02*
X70485000Y-77470000D01*
X71120000Y-76835000D02*
X70485000Y-77470000D01*
X71120000Y-78105000D02*
X70485000Y-77470000D01*
X69850000Y-78105000D02*
X70485000Y-77470000D01*
D24*
X144145000Y-78105000D02*
X144145000Y-69850000D01*
X149860000Y-78740000D02*
X144780000Y-78740000D01*
X153034989Y-75565011D02*
X149860000Y-78740000D01*
X168275011Y-73288030D02*
X165998030Y-75565011D01*
X168275011Y-61629989D02*
X168275011Y-73288030D01*
X170385000Y-59520000D02*
X168275011Y-61629989D01*
X165998030Y-75565011D02*
X153034989Y-75565011D01*
X170885000Y-59520000D02*
X170385000Y-59520000D01*
X144145000Y-69850000D02*
X142240000Y-67945000D01*
X144780000Y-78740000D02*
X144145000Y-78105000D01*
X142240000Y-67945000D02*
X133350000Y-67945000D01*
X76200000Y-65405000D02*
X76200000Y-60960000D01*
X134620000Y-69215000D02*
X142240000Y-69215000D01*
X142240000Y-69215000D02*
X142875000Y-69850000D01*
X142875000Y-69850000D02*
X142875000Y-78105000D01*
X136525000Y-73660000D02*
X136525000Y-78105000D01*
X149860000Y-72941000D02*
X149860000Y-75565000D01*
X149860000Y-75565000D02*
X148590000Y-76835000D01*
X147885000Y-72220000D02*
X149139000Y-72220000D01*
X149139000Y-72220000D02*
X149860000Y-72941000D01*
X146050000Y-71755000D02*
X146050000Y-76835000D01*
X146050000Y-71755000D02*
X146855000Y-70950000D01*
X146855000Y-70950000D02*
X147885000Y-70950000D01*
X147885000Y-65870000D02*
X146514978Y-65870000D01*
X146514978Y-65870000D02*
X140334978Y-59690000D01*
X140334978Y-59690000D02*
X123825000Y-59690000D01*
X147885000Y-67140000D02*
X146515000Y-67140000D01*
X146515000Y-67140000D02*
X140335000Y-60960000D01*
X140335000Y-60960000D02*
X108585000Y-60960000D01*
X138430000Y-70485000D02*
X136525000Y-70485000D01*
X139065000Y-71120000D02*
X138430000Y-70485000D01*
X139065000Y-78105000D02*
X139065000Y-71120000D01*
X141605000Y-77470000D02*
X140970000Y-78105000D01*
X141605000Y-71120000D02*
X141605000Y-77470000D01*
X147885000Y-68410000D02*
X146515000Y-68410000D01*
X146515000Y-68410000D02*
X140335000Y-62230000D01*
X140335000Y-62230000D02*
X94615000Y-62230000D01*
X94615000Y-62230000D02*
X93345000Y-60960000D01*
X78740000Y-63500000D02*
X78105000Y-62865000D01*
X140335000Y-63500000D02*
X78740000Y-63500000D01*
X146515000Y-69680000D02*
X140335000Y-63500000D01*
X147885000Y-69680000D02*
X146515000Y-69680000D01*
X78105000Y-62865000D02*
X78105000Y-60960000D01*
X60325000Y-76200000D02*
X60325000Y-77470000D01*
X59690000Y-78105000D02*
X59054970Y-78105000D01*
X60325000Y-77470000D02*
X59690000Y-78105000D01*
X170885000Y-69680000D02*
X169631000Y-69680000D01*
X169631000Y-69680000D02*
X168910000Y-70401000D01*
X168910000Y-70401000D02*
X168910000Y-74295000D01*
X168910000Y-74295000D02*
X167005000Y-76200000D01*
X174625000Y-75564990D02*
X173990000Y-76199990D01*
X171915000Y-65870000D02*
X174625000Y-68580000D01*
X174625000Y-68580000D02*
X174625000Y-75564990D01*
X170885000Y-65870000D02*
X171915000Y-65870000D01*
X173990000Y-74783506D02*
X172646753Y-76126753D01*
X173990000Y-69215000D02*
X173990000Y-74783506D01*
X171915000Y-67140000D02*
X173990000Y-69215000D01*
X170885000Y-67140000D02*
X171915000Y-67140000D01*
X173355000Y-73661396D02*
X170816396Y-76200000D01*
X170885000Y-68410000D02*
X171385000Y-68410000D01*
X171385000Y-68410000D02*
X173355000Y-70380000D01*
X173355000Y-70380000D02*
X173355000Y-73661396D01*
X170816396Y-76200000D02*
X168275000Y-76200000D01*
X181610000Y-70485000D02*
X182880000Y-71755000D01*
X181610000Y-57785000D02*
X181610000Y-70485000D01*
X185420000Y-53975000D02*
X181610000Y-57785000D01*
X191135000Y-53975000D02*
X185420000Y-53975000D01*
X182880000Y-71755000D02*
X183515000Y-71755000D01*
X182880000Y-70485000D02*
X182880000Y-57785000D01*
X193675000Y-53975000D02*
X191770000Y-55880000D01*
X191770000Y-55880000D02*
X184785000Y-55880000D01*
X184785000Y-55880000D02*
X182880000Y-57785000D01*
X184785000Y-57150000D02*
X195580000Y-57150000D01*
X184150000Y-57785000D02*
X184785000Y-57150000D01*
X184150000Y-67945000D02*
X184150000Y-57785000D01*
X196215000Y-56515000D02*
X196215000Y-53975000D01*
X195580000Y-57150000D02*
X196215000Y-56515000D01*
G36*
X138938000Y-64822606D02*
X138938000Y-67183000D01*
X134122413Y-67183000D01*
X133965405Y-67025718D01*
X133566767Y-66860189D01*
X133135127Y-66859812D01*
X132736200Y-67024646D01*
X132430718Y-67329595D01*
X132265189Y-67728233D01*
X132264812Y-68159873D01*
X132429646Y-68558800D01*
X132734595Y-68864282D01*
X133133233Y-69029811D01*
X133535161Y-69030162D01*
X133534812Y-69429873D01*
X133699646Y-69828800D01*
X134004595Y-70134282D01*
X134403233Y-70299811D01*
X134834873Y-70300188D01*
X135233800Y-70135354D01*
X135392431Y-69977000D01*
X135561120Y-69977000D01*
X135440189Y-70268233D01*
X135439812Y-70699873D01*
X135604646Y-71098800D01*
X135909595Y-71404282D01*
X136308233Y-71569811D01*
X136739873Y-71570188D01*
X137138800Y-71405354D01*
X137297431Y-71247000D01*
X138114370Y-71247000D01*
X138303000Y-71435631D01*
X138303000Y-77332587D01*
X138145718Y-77489595D01*
X137980189Y-77888233D01*
X137980111Y-77978000D01*
X137610111Y-77978000D01*
X137610188Y-77890127D01*
X137445354Y-77491200D01*
X137287000Y-77332569D01*
X137287000Y-74432413D01*
X137444282Y-74275405D01*
X137609811Y-73876767D01*
X137610188Y-73445127D01*
X137445354Y-73046200D01*
X137140405Y-72740718D01*
X136741767Y-72575189D01*
X136310127Y-72574812D01*
X135911200Y-72739646D01*
X135605718Y-73044595D01*
X135440189Y-73443233D01*
X135439812Y-73874873D01*
X135604646Y-74273800D01*
X135763000Y-74432431D01*
X135763000Y-77332587D01*
X135605718Y-77489595D01*
X135440189Y-77888233D01*
X135440111Y-77978000D01*
X92762606Y-77978000D01*
X92202000Y-77417394D01*
X92202000Y-64822606D01*
X92762606Y-64262000D01*
X138377394Y-64262000D01*
X138938000Y-64822606D01*
X138938000Y-64822606D01*
G37*
X138938000Y-64822606D02*
X138938000Y-67183000D01*
X134122413Y-67183000D01*
X133965405Y-67025718D01*
X133566767Y-66860189D01*
X133135127Y-66859812D01*
X132736200Y-67024646D01*
X132430718Y-67329595D01*
X132265189Y-67728233D01*
X132264812Y-68159873D01*
X132429646Y-68558800D01*
X132734595Y-68864282D01*
X133133233Y-69029811D01*
X133535161Y-69030162D01*
X133534812Y-69429873D01*
X133699646Y-69828800D01*
X134004595Y-70134282D01*
X134403233Y-70299811D01*
X134834873Y-70300188D01*
X135233800Y-70135354D01*
X135392431Y-69977000D01*
X135561120Y-69977000D01*
X135440189Y-70268233D01*
X135439812Y-70699873D01*
X135604646Y-71098800D01*
X135909595Y-71404282D01*
X136308233Y-71569811D01*
X136739873Y-71570188D01*
X137138800Y-71405354D01*
X137297431Y-71247000D01*
X138114370Y-71247000D01*
X138303000Y-71435631D01*
X138303000Y-77332587D01*
X138145718Y-77489595D01*
X137980189Y-77888233D01*
X137980111Y-77978000D01*
X137610111Y-77978000D01*
X137610188Y-77890127D01*
X137445354Y-77491200D01*
X137287000Y-77332569D01*
X137287000Y-74432413D01*
X137444282Y-74275405D01*
X137609811Y-73876767D01*
X137610188Y-73445127D01*
X137445354Y-73046200D01*
X137140405Y-72740718D01*
X136741767Y-72575189D01*
X136310127Y-72574812D01*
X135911200Y-72739646D01*
X135605718Y-73044595D01*
X135440189Y-73443233D01*
X135439812Y-73874873D01*
X135604646Y-74273800D01*
X135763000Y-74432431D01*
X135763000Y-77332587D01*
X135605718Y-77489595D01*
X135440189Y-77888233D01*
X135440111Y-77978000D01*
X92762606Y-77978000D01*
X92202000Y-77417394D01*
X92202000Y-64822606D01*
X92762606Y-64262000D01*
X138377394Y-64262000D01*
X138938000Y-64822606D01*
G36*
X107188000Y-61468000D02*
X94930631Y-61468000D01*
X94429994Y-60967363D01*
X94430188Y-60745127D01*
X94265354Y-60346200D01*
X93960405Y-60040718D01*
X93561767Y-59875189D01*
X93130127Y-59874812D01*
X92731200Y-60039646D01*
X92425718Y-60344595D01*
X92260189Y-60743233D01*
X92259812Y-61174873D01*
X92424646Y-61573800D01*
X92729595Y-61879282D01*
X93128233Y-62044811D01*
X93352376Y-62045007D01*
X94045369Y-62738000D01*
X79055631Y-62738000D01*
X78867000Y-62549370D01*
X78867000Y-61732413D01*
X79024282Y-61575405D01*
X79189811Y-61176767D01*
X79190188Y-60745127D01*
X79025354Y-60346200D01*
X78720405Y-60040718D01*
X78321767Y-59875189D01*
X77890127Y-59874812D01*
X77491200Y-60039646D01*
X77185718Y-60344595D01*
X77152623Y-60424297D01*
X77120354Y-60346200D01*
X76815405Y-60040718D01*
X76416767Y-59875189D01*
X75985127Y-59874812D01*
X75586200Y-60039646D01*
X75280718Y-60344595D01*
X75115189Y-60743233D01*
X75114812Y-61174873D01*
X75279646Y-61573800D01*
X75438000Y-61732431D01*
X75438000Y-64632587D01*
X75280718Y-64789595D01*
X75115189Y-65188233D01*
X75114812Y-65619873D01*
X75279646Y-66018800D01*
X75584595Y-66324282D01*
X75983233Y-66489811D01*
X76414873Y-66490188D01*
X76813800Y-66325354D01*
X77119282Y-66020405D01*
X77284811Y-65621767D01*
X77285188Y-65190127D01*
X77120354Y-64791200D01*
X76962000Y-64632569D01*
X76962000Y-61732413D01*
X77119282Y-61575405D01*
X77152377Y-61495703D01*
X77184646Y-61573800D01*
X77343000Y-61732431D01*
X77343000Y-62865000D01*
X77401004Y-63156605D01*
X77542447Y-63368289D01*
X77566185Y-63403815D01*
X78201185Y-64038816D01*
X78349377Y-64137834D01*
X78448395Y-64203996D01*
X78740000Y-64262000D01*
X90678000Y-64262000D01*
X90678000Y-67691000D01*
X86360000Y-67691000D01*
X86019795Y-67758670D01*
X85731382Y-67951382D01*
X85096382Y-68586382D01*
X84903671Y-68874794D01*
X84836000Y-69215000D01*
X84836000Y-72021764D01*
X84721764Y-72136000D01*
X61605634Y-72136000D01*
X61575405Y-72105718D01*
X61176767Y-71940189D01*
X60745127Y-71939812D01*
X60346200Y-72104646D01*
X60040718Y-72409595D01*
X59875189Y-72808233D01*
X59874812Y-73239873D01*
X60039646Y-73638800D01*
X60344595Y-73944282D01*
X60743233Y-74109811D01*
X61174873Y-74110188D01*
X61573800Y-73945354D01*
X61605209Y-73914000D01*
X85090000Y-73914000D01*
X85430206Y-73846329D01*
X85718618Y-73653618D01*
X86353618Y-73018618D01*
X86546330Y-72730205D01*
X86614000Y-72390000D01*
X86614000Y-69583236D01*
X86728236Y-69469000D01*
X90678000Y-69469000D01*
X90678000Y-78613000D01*
X80010000Y-78613000D01*
X79718395Y-78671004D01*
X79624687Y-78733618D01*
X79471185Y-78836185D01*
X72167965Y-86139405D01*
X72061670Y-86095267D01*
X71451009Y-86094735D01*
X70886629Y-86327932D01*
X70484677Y-86729182D01*
X70085643Y-86329449D01*
X69521670Y-86095267D01*
X68911009Y-86094735D01*
X68346629Y-86327932D01*
X67944677Y-86729182D01*
X67754033Y-86538203D01*
X77203236Y-77089000D01*
X81904366Y-77089000D01*
X81934595Y-77119282D01*
X82333233Y-77284811D01*
X82764873Y-77285188D01*
X83163800Y-77120354D01*
X83469282Y-76815405D01*
X83634811Y-76416767D01*
X83635188Y-75985127D01*
X83470354Y-75586200D01*
X83165405Y-75280718D01*
X82766767Y-75115189D01*
X82335127Y-75114812D01*
X81936200Y-75279646D01*
X81904791Y-75311000D01*
X76835000Y-75311000D01*
X76494794Y-75378671D01*
X76319193Y-75496004D01*
X76206382Y-75571382D01*
X66046382Y-85731382D01*
X65853671Y-86019794D01*
X65788848Y-86345682D01*
X65404677Y-86729182D01*
X65005643Y-86329449D01*
X64441670Y-86095267D01*
X63831009Y-86094735D01*
X63266629Y-86327932D01*
X62834449Y-86759357D01*
X62600267Y-87323330D01*
X62599735Y-87933991D01*
X62832932Y-88498371D01*
X63264357Y-88930551D01*
X63828330Y-89164733D01*
X64438991Y-89165265D01*
X65003371Y-88932068D01*
X65405323Y-88530818D01*
X65804357Y-88930551D01*
X66368330Y-89164733D01*
X66978991Y-89165265D01*
X67543371Y-88932068D01*
X67945323Y-88530818D01*
X68344357Y-88930551D01*
X68908330Y-89164733D01*
X69518991Y-89165265D01*
X70083371Y-88932068D01*
X70485323Y-88530818D01*
X70884357Y-88930551D01*
X71448330Y-89164733D01*
X72058991Y-89165265D01*
X72623371Y-88932068D01*
X73025744Y-88530398D01*
X73044595Y-88549282D01*
X73443233Y-88714811D01*
X73874873Y-88715188D01*
X74273800Y-88550354D01*
X74579282Y-88245405D01*
X74744811Y-87846767D01*
X74745007Y-87622623D01*
X81595631Y-80772000D01*
X166370000Y-80772000D01*
X166661605Y-80713996D01*
X166908815Y-80548815D01*
X168590630Y-78867000D01*
X181294370Y-78867000D01*
X187833000Y-85405631D01*
X187833000Y-87630000D01*
X187891004Y-87921605D01*
X188035595Y-88138000D01*
X188056185Y-88168815D01*
X189961185Y-90073815D01*
X190208395Y-90238996D01*
X190500000Y-90297000D01*
X191770000Y-90297000D01*
X192061605Y-90238996D01*
X192308815Y-90073815D01*
X193262035Y-89120595D01*
X193368330Y-89164733D01*
X193978991Y-89165265D01*
X194543371Y-88932068D01*
X194945323Y-88530818D01*
X195344357Y-88930551D01*
X195908330Y-89164733D01*
X196518991Y-89165265D01*
X197083371Y-88932068D01*
X197485323Y-88530818D01*
X197884357Y-88930551D01*
X198448330Y-89164733D01*
X199058991Y-89165265D01*
X199623371Y-88932068D01*
X200055551Y-88500643D01*
X200289733Y-87936670D01*
X200290265Y-87326009D01*
X200057068Y-86761629D01*
X199625643Y-86329449D01*
X199061670Y-86095267D01*
X198451009Y-86094735D01*
X197886629Y-86327932D01*
X197484677Y-86729182D01*
X197085643Y-86329449D01*
X196521670Y-86095267D01*
X195936994Y-86094758D01*
X190302063Y-80459827D01*
X190714873Y-80460188D01*
X191113800Y-80295354D01*
X191419282Y-79990405D01*
X191584811Y-79591767D01*
X191585188Y-79160127D01*
X191420354Y-78761200D01*
X191262000Y-78602569D01*
X191262000Y-59827413D01*
X191419282Y-59670405D01*
X191584811Y-59271767D01*
X191585188Y-58840127D01*
X191420354Y-58441200D01*
X191115405Y-58135718D01*
X190716767Y-57970189D01*
X190285127Y-57969812D01*
X189886200Y-58134646D01*
X189580718Y-58439595D01*
X189415189Y-58838233D01*
X189414812Y-59269873D01*
X189579646Y-59668800D01*
X189738000Y-59827431D01*
X189738000Y-72263000D01*
X184478880Y-72263000D01*
X184599811Y-71971767D01*
X184600188Y-71540127D01*
X184435354Y-71141200D01*
X184130405Y-70835718D01*
X183941723Y-70757370D01*
X183964811Y-70701767D01*
X183965188Y-70270127D01*
X183800354Y-69871200D01*
X183642000Y-69712569D01*
X183642000Y-68908880D01*
X183933233Y-69029811D01*
X184364873Y-69030188D01*
X184763800Y-68865354D01*
X185069282Y-68560405D01*
X185234811Y-68161767D01*
X185235188Y-67730127D01*
X185070354Y-67331200D01*
X184912000Y-67172569D01*
X184912000Y-58100630D01*
X185100631Y-57912000D01*
X195580000Y-57912000D01*
X195871605Y-57853996D01*
X196118815Y-57688815D01*
X196753816Y-57053815D01*
X196884391Y-56858395D01*
X196918996Y-56806605D01*
X196977000Y-56515000D01*
X196977000Y-55350433D01*
X197015838Y-55342708D01*
X197355652Y-55115652D01*
X197582708Y-54775838D01*
X197662440Y-54375000D01*
X197662440Y-53575000D01*
X197582708Y-53174162D01*
X197355652Y-52834348D01*
X197015838Y-52607292D01*
X196615000Y-52527560D01*
X195815000Y-52527560D01*
X195414162Y-52607292D01*
X195074348Y-52834348D01*
X194945000Y-53027931D01*
X194815652Y-52834348D01*
X194475838Y-52607292D01*
X194075000Y-52527560D01*
X193275000Y-52527560D01*
X192874162Y-52607292D01*
X192534348Y-52834348D01*
X192405000Y-53027931D01*
X192275652Y-52834348D01*
X191935838Y-52607292D01*
X191535000Y-52527560D01*
X190735000Y-52527560D01*
X190334162Y-52607292D01*
X189994348Y-52834348D01*
X189767292Y-53174162D01*
X189759567Y-53213000D01*
X185420000Y-53213000D01*
X185128395Y-53271004D01*
X185029377Y-53337166D01*
X184881185Y-53436184D01*
X181071185Y-57246185D01*
X180906004Y-57493395D01*
X180848000Y-57785000D01*
X180848000Y-70485000D01*
X180864232Y-70566601D01*
X180789994Y-70492364D01*
X180790188Y-70270127D01*
X180625354Y-69871200D01*
X180320405Y-69565718D01*
X179921767Y-69400189D01*
X179490127Y-69399812D01*
X179091200Y-69564646D01*
X178785718Y-69869595D01*
X178620189Y-70268233D01*
X178619812Y-70699873D01*
X178784646Y-71098800D01*
X179089595Y-71404282D01*
X179488233Y-71569811D01*
X179712377Y-71570007D01*
X181706184Y-73563815D01*
X181879461Y-73679595D01*
X181953395Y-73728996D01*
X182245000Y-73787000D01*
X189738000Y-73787000D01*
X189738000Y-78602587D01*
X189580718Y-78759595D01*
X189415189Y-79158233D01*
X189414827Y-79572591D01*
X184778618Y-74936382D01*
X184731403Y-74904834D01*
X184490206Y-74743671D01*
X184150000Y-74676000D01*
X177533236Y-74676000D01*
X177419000Y-74561764D01*
X177419000Y-66675000D01*
X177382164Y-66489811D01*
X177351330Y-66334795D01*
X177158618Y-66046382D01*
X176784000Y-65671764D01*
X176784000Y-64780634D01*
X176814282Y-64750405D01*
X176979811Y-64351767D01*
X176980188Y-63920127D01*
X176815354Y-63521200D01*
X176510405Y-63215718D01*
X176111767Y-63050189D01*
X175680127Y-63049812D01*
X175281200Y-63214646D01*
X174975718Y-63519595D01*
X174810189Y-63918233D01*
X174809812Y-64349873D01*
X174974646Y-64748800D01*
X175006000Y-64780209D01*
X175006000Y-65343370D01*
X172453815Y-62791185D01*
X172378970Y-62741175D01*
X172349063Y-62721192D01*
X172331562Y-62695000D01*
X172465635Y-62494346D01*
X172552032Y-62060000D01*
X172465635Y-61625654D01*
X172331562Y-61425000D01*
X172465635Y-61224346D01*
X172552032Y-60790000D01*
X172465635Y-60355654D01*
X172331562Y-60155000D01*
X172465635Y-59954346D01*
X172552032Y-59520000D01*
X172465635Y-59085654D01*
X172331562Y-58885000D01*
X172465635Y-58684346D01*
X172552032Y-58250000D01*
X172465635Y-57815654D01*
X172331562Y-57615000D01*
X172465635Y-57414346D01*
X172552032Y-56980000D01*
X172465635Y-56545654D01*
X172219598Y-56177434D01*
X171851378Y-55931397D01*
X171417032Y-55845000D01*
X170352968Y-55845000D01*
X169918622Y-55931397D01*
X169550402Y-56177434D01*
X169304365Y-56545654D01*
X169217968Y-56980000D01*
X169296922Y-57376928D01*
X169036794Y-57428671D01*
X168748382Y-57621382D01*
X167011382Y-59358382D01*
X166818671Y-59646794D01*
X166751000Y-59987000D01*
X166751000Y-72656764D01*
X165366764Y-74041000D01*
X152400000Y-74041000D01*
X152059794Y-74108671D01*
X151922171Y-74200628D01*
X151771382Y-74301382D01*
X150622000Y-75450764D01*
X150622000Y-72941000D01*
X150563996Y-72649395D01*
X150398815Y-72402185D01*
X149677815Y-71681185D01*
X149430605Y-71516004D01*
X149383875Y-71506709D01*
X149465635Y-71384346D01*
X149552032Y-70950000D01*
X149465635Y-70515654D01*
X149331562Y-70315000D01*
X149465635Y-70114346D01*
X149552032Y-69680000D01*
X149465635Y-69245654D01*
X149331562Y-69045000D01*
X149465635Y-68844346D01*
X149552032Y-68410000D01*
X149465635Y-67975654D01*
X149331562Y-67775000D01*
X149465635Y-67574346D01*
X149552032Y-67140000D01*
X149465635Y-66705654D01*
X149331562Y-66505000D01*
X149465635Y-66304346D01*
X149552032Y-65870000D01*
X149465635Y-65435654D01*
X149331562Y-65235000D01*
X149465635Y-65034346D01*
X149552032Y-64600000D01*
X149465635Y-64165654D01*
X149331562Y-63965000D01*
X149465635Y-63764346D01*
X149552032Y-63330000D01*
X149465635Y-62895654D01*
X149331562Y-62695000D01*
X149465635Y-62494346D01*
X149552032Y-62060000D01*
X149465635Y-61625654D01*
X149331562Y-61425000D01*
X149465635Y-61224346D01*
X149552032Y-60790000D01*
X149465635Y-60355654D01*
X149331562Y-60155000D01*
X149465635Y-59954346D01*
X149552032Y-59520000D01*
X149465635Y-59085654D01*
X149331562Y-58885000D01*
X149465635Y-58684346D01*
X149552032Y-58250000D01*
X149465635Y-57815654D01*
X149331562Y-57615000D01*
X149465635Y-57414346D01*
X149552032Y-56980000D01*
X149465635Y-56545654D01*
X149219598Y-56177434D01*
X148851378Y-55931397D01*
X148417032Y-55845000D01*
X147352968Y-55845000D01*
X146918622Y-55931397D01*
X146550402Y-56177434D01*
X146304365Y-56545654D01*
X146217968Y-56980000D01*
X146304365Y-57414346D01*
X146438438Y-57615000D01*
X146304365Y-57815654D01*
X146217968Y-58250000D01*
X146304365Y-58684346D01*
X146438438Y-58885000D01*
X146304365Y-59085654D01*
X146217968Y-59520000D01*
X146304365Y-59954346D01*
X146438438Y-60155000D01*
X146304365Y-60355654D01*
X146217968Y-60790000D01*
X146304365Y-61224346D01*
X146438438Y-61425000D01*
X146304365Y-61625654D01*
X146217968Y-62060000D01*
X146304365Y-62494346D01*
X146438438Y-62695000D01*
X146304365Y-62895654D01*
X146217968Y-63330000D01*
X146304365Y-63764346D01*
X146438438Y-63965000D01*
X146304365Y-64165654D01*
X146235329Y-64512721D01*
X140873793Y-59151185D01*
X140729842Y-59055000D01*
X140626583Y-58986004D01*
X140334978Y-58928000D01*
X124597413Y-58928000D01*
X124440405Y-58770718D01*
X124041767Y-58605189D01*
X123610127Y-58604812D01*
X123211200Y-58769646D01*
X122905718Y-59074595D01*
X122740189Y-59473233D01*
X122739812Y-59904873D01*
X122860930Y-60198000D01*
X109357413Y-60198000D01*
X109200405Y-60040718D01*
X108801767Y-59875189D01*
X108712000Y-59875111D01*
X108712000Y-51473100D01*
X148523704Y-51473100D01*
X148813377Y-51530719D01*
X149002747Y-51657251D01*
X149129280Y-51846622D01*
X149186900Y-52136296D01*
X149186900Y-54610000D01*
X149199833Y-54675019D01*
X149199833Y-54741315D01*
X149296506Y-55227323D01*
X149344300Y-55342708D01*
X149397010Y-55469962D01*
X149672311Y-55881979D01*
X149672313Y-55881981D01*
X149858020Y-56067689D01*
X150270037Y-56342988D01*
X150270038Y-56342989D01*
X150512677Y-56443494D01*
X150998684Y-56540166D01*
X151064977Y-56540166D01*
X151130000Y-56553100D01*
X167640000Y-56553100D01*
X167705019Y-56540167D01*
X167771315Y-56540167D01*
X168257323Y-56443494D01*
X168391297Y-56388000D01*
X168499962Y-56342990D01*
X168911979Y-56067689D01*
X169003484Y-55976184D01*
X169097689Y-55881980D01*
X169372989Y-55469962D01*
X169400292Y-55404046D01*
X169473494Y-55227323D01*
X169570166Y-54741316D01*
X169570166Y-54675023D01*
X169583100Y-54610000D01*
X169583100Y-52136296D01*
X169640719Y-51846623D01*
X169767251Y-51657253D01*
X169956622Y-51530720D01*
X170246296Y-51473100D01*
X206217505Y-51473100D01*
X206180877Y-51509664D01*
X205688561Y-52695294D01*
X205687441Y-53979074D01*
X206177687Y-55165561D01*
X207084664Y-56074123D01*
X208270294Y-56566439D01*
X209554074Y-56567559D01*
X210740561Y-56077313D01*
X211416900Y-55402154D01*
X211416900Y-61528704D01*
X211359280Y-61818378D01*
X211232747Y-62007749D01*
X211043377Y-62134281D01*
X210753704Y-62191900D01*
X210185000Y-62191900D01*
X210119977Y-62204834D01*
X210053684Y-62204834D01*
X209567677Y-62301506D01*
X209356338Y-62389046D01*
X209325038Y-62402011D01*
X208913020Y-62677311D01*
X208799147Y-62791185D01*
X208727311Y-62863021D01*
X208452010Y-63275038D01*
X208413385Y-63368289D01*
X208351506Y-63517677D01*
X208254833Y-64003685D01*
X208254833Y-64069981D01*
X208241900Y-64135000D01*
X208241900Y-74295000D01*
X208254833Y-74360019D01*
X208254833Y-74426315D01*
X208351506Y-74912323D01*
X208398674Y-75026195D01*
X208452010Y-75154962D01*
X208727311Y-75566979D01*
X208727313Y-75566981D01*
X208913020Y-75752689D01*
X209325037Y-76027988D01*
X209325038Y-76027989D01*
X209567677Y-76128494D01*
X210053684Y-76225166D01*
X210119977Y-76225166D01*
X210185000Y-76238100D01*
X210753704Y-76238100D01*
X211043377Y-76295719D01*
X211232747Y-76422251D01*
X211359280Y-76611622D01*
X211416900Y-76901296D01*
X211416900Y-86716197D01*
X210898050Y-85460485D01*
X209820189Y-84380741D01*
X208411175Y-83795667D01*
X206885518Y-83794336D01*
X205475485Y-84376950D01*
X204395741Y-85454811D01*
X203810667Y-86863825D01*
X203809336Y-88389482D01*
X204391950Y-89799515D01*
X205357648Y-90766900D01*
X169868662Y-90766900D01*
X170219352Y-90416821D01*
X170798140Y-89022944D01*
X170799457Y-87513677D01*
X170223103Y-86118792D01*
X169156821Y-85050648D01*
X167762944Y-84471860D01*
X166253677Y-84470543D01*
X164858792Y-85046897D01*
X163790648Y-86113179D01*
X163211860Y-87507056D01*
X163210543Y-89016323D01*
X163786897Y-90411208D01*
X164141969Y-90766900D01*
X159708662Y-90766900D01*
X160059352Y-90416821D01*
X160638140Y-89022944D01*
X160639457Y-87513677D01*
X160063103Y-86118792D01*
X158996821Y-85050648D01*
X157602944Y-84471860D01*
X156093677Y-84470543D01*
X154698792Y-85046897D01*
X153630648Y-86113179D01*
X153051860Y-87507056D01*
X153050543Y-89016323D01*
X153626897Y-90411208D01*
X153981969Y-90766900D01*
X148681880Y-90766900D01*
X148813432Y-90573037D01*
X146685000Y-88444605D01*
X144556568Y-90573037D01*
X144688120Y-90766900D01*
X139388662Y-90766900D01*
X139739352Y-90416821D01*
X140318140Y-89022944D01*
X140318242Y-88906034D01*
X143449515Y-88906034D01*
X143941115Y-90095405D01*
X143943887Y-90099554D01*
X144376963Y-90393432D01*
X146505395Y-88265000D01*
X146864605Y-88265000D01*
X148993037Y-90393432D01*
X149426113Y-90099554D01*
X149919511Y-88910928D01*
X149920485Y-87623966D01*
X149428885Y-86434595D01*
X149426113Y-86430446D01*
X148993037Y-86136568D01*
X146864605Y-88265000D01*
X146505395Y-88265000D01*
X144376963Y-86136568D01*
X143943887Y-86430446D01*
X143450489Y-87619072D01*
X143449515Y-88906034D01*
X140318242Y-88906034D01*
X140319457Y-87513677D01*
X139743103Y-86118792D01*
X139581557Y-85956963D01*
X144556568Y-85956963D01*
X146685000Y-88085395D01*
X148813432Y-85956963D01*
X148519554Y-85523887D01*
X147330928Y-85030489D01*
X146043966Y-85029515D01*
X144854595Y-85521115D01*
X144850446Y-85523887D01*
X144556568Y-85956963D01*
X139581557Y-85956963D01*
X138676821Y-85050648D01*
X137282944Y-84471860D01*
X135773677Y-84470543D01*
X134764126Y-84887680D01*
X133296446Y-83420000D01*
X173177560Y-83420000D01*
X173177560Y-84220000D01*
X173257292Y-84620838D01*
X173484348Y-84960652D01*
X173677931Y-85090000D01*
X173484348Y-85219348D01*
X173257292Y-85559162D01*
X173177560Y-85960000D01*
X173177560Y-86760000D01*
X173257292Y-87160838D01*
X173484348Y-87500652D01*
X173677931Y-87630000D01*
X173484348Y-87759348D01*
X173257292Y-88099162D01*
X173177560Y-88500000D01*
X173177560Y-89300000D01*
X173257292Y-89700838D01*
X173484348Y-90040652D01*
X173824162Y-90267708D01*
X174225000Y-90347440D01*
X175025000Y-90347440D01*
X175425838Y-90267708D01*
X175765652Y-90040652D01*
X175991825Y-89702159D01*
X176372630Y-90083629D01*
X176885900Y-90296757D01*
X177441661Y-90297242D01*
X177955303Y-90085010D01*
X178309392Y-89731539D01*
X178344843Y-89909765D01*
X178485191Y-90119809D01*
X178695235Y-90260157D01*
X178943000Y-90309440D01*
X180467000Y-90309440D01*
X180714765Y-90260157D01*
X180924809Y-90119809D01*
X181041025Y-89945882D01*
X181104348Y-90040652D01*
X181444162Y-90267708D01*
X181845000Y-90347440D01*
X182645000Y-90347440D01*
X183045838Y-90267708D01*
X183385652Y-90040652D01*
X183612708Y-89700838D01*
X183692440Y-89300000D01*
X183692440Y-88500000D01*
X183612708Y-88099162D01*
X183385652Y-87759348D01*
X183192069Y-87630000D01*
X183385652Y-87500652D01*
X183612708Y-87160838D01*
X183692440Y-86760000D01*
X183692440Y-85960000D01*
X183612708Y-85559162D01*
X183385652Y-85219348D01*
X183192069Y-85090000D01*
X183385652Y-84960652D01*
X183612708Y-84620838D01*
X183692440Y-84220000D01*
X183692440Y-83420000D01*
X183612708Y-83019162D01*
X183385652Y-82679348D01*
X183045838Y-82452292D01*
X182645000Y-82372560D01*
X181845000Y-82372560D01*
X181444162Y-82452292D01*
X181104348Y-82679348D01*
X180878175Y-83017841D01*
X180497370Y-82636371D01*
X179984100Y-82423243D01*
X179428339Y-82422758D01*
X178914697Y-82634990D01*
X178521371Y-83027630D01*
X178435051Y-83235512D01*
X178350010Y-83029697D01*
X177957370Y-82636371D01*
X177444100Y-82423243D01*
X176888339Y-82422758D01*
X176374697Y-82634990D01*
X175991566Y-83017453D01*
X175765652Y-82679348D01*
X175425838Y-82452292D01*
X175025000Y-82372560D01*
X174225000Y-82372560D01*
X173824162Y-82452292D01*
X173484348Y-82679348D01*
X173257292Y-83019162D01*
X173177560Y-83420000D01*
X133296446Y-83420000D01*
X132888223Y-83011777D01*
X132517407Y-82764006D01*
X132080000Y-82677000D01*
X91313000Y-82677000D01*
X90875593Y-82764006D01*
X90504777Y-83011777D01*
X83854554Y-89662000D01*
X62103000Y-89662000D01*
X62103000Y-80124236D01*
X63233236Y-78994000D01*
X69292048Y-78994000D01*
X69643223Y-79139820D01*
X70054971Y-79140179D01*
X70408752Y-78994000D01*
X70562048Y-78994000D01*
X70913223Y-79139820D01*
X71324971Y-79140179D01*
X71705515Y-78982942D01*
X71996919Y-78692046D01*
X72154820Y-78311777D01*
X72155179Y-77900029D01*
X72009000Y-77546248D01*
X72009000Y-77392952D01*
X72154820Y-77041777D01*
X72155179Y-76630029D01*
X71997942Y-76249485D01*
X71707046Y-75958081D01*
X71326777Y-75800180D01*
X70915029Y-75799821D01*
X70561248Y-75946000D01*
X70407952Y-75946000D01*
X70056777Y-75800180D01*
X69645029Y-75799821D01*
X69264485Y-75957058D01*
X68973081Y-76247954D01*
X68815180Y-76628223D01*
X68814821Y-77039971D01*
X68887554Y-77216000D01*
X62865000Y-77216000D01*
X62524794Y-77283671D01*
X62236382Y-77476382D01*
X60885764Y-78827000D01*
X59891093Y-78827000D01*
X59981605Y-78808996D01*
X60228815Y-78643815D01*
X60863816Y-78008815D01*
X60994391Y-77813395D01*
X61028996Y-77761605D01*
X61087000Y-77470000D01*
X61087000Y-76972413D01*
X61244282Y-76815405D01*
X61409811Y-76416767D01*
X61410188Y-75985127D01*
X61245354Y-75586200D01*
X60940405Y-75280718D01*
X60541767Y-75115189D01*
X60110127Y-75114812D01*
X59711200Y-75279646D01*
X59405718Y-75584595D01*
X59240189Y-75983233D01*
X59239812Y-76414873D01*
X59404646Y-76813800D01*
X59563000Y-76972431D01*
X59563000Y-77141132D01*
X59271737Y-77020189D01*
X58840097Y-77019812D01*
X58441170Y-77184646D01*
X58135688Y-77489595D01*
X57970159Y-77888233D01*
X57969782Y-78319873D01*
X58134616Y-78718800D01*
X58242627Y-78827000D01*
X55944000Y-78827000D01*
X55944000Y-76004205D01*
X56207280Y-75741384D01*
X56414763Y-75241708D01*
X56415236Y-74700666D01*
X56208624Y-74200628D01*
X55826384Y-73817720D01*
X55326708Y-73610237D01*
X54952146Y-73609910D01*
X54683618Y-73341382D01*
X54590257Y-73279000D01*
X54395206Y-73148671D01*
X54055000Y-73081000D01*
X53585798Y-73081000D01*
X53208666Y-72829009D01*
X52736052Y-72735000D01*
X51973948Y-72735000D01*
X51501334Y-72829009D01*
X51473100Y-72847874D01*
X51473100Y-55401385D01*
X52144664Y-56074123D01*
X53330294Y-56566439D01*
X54614074Y-56567559D01*
X55800561Y-56077313D01*
X56709123Y-55170336D01*
X57201439Y-53984706D01*
X57202559Y-52700926D01*
X56712313Y-51514439D01*
X56671046Y-51473100D01*
X107188000Y-51473100D01*
X107188000Y-61468000D01*
X107188000Y-61468000D01*
G37*
X107188000Y-61468000D02*
X94930631Y-61468000D01*
X94429994Y-60967363D01*
X94430188Y-60745127D01*
X94265354Y-60346200D01*
X93960405Y-60040718D01*
X93561767Y-59875189D01*
X93130127Y-59874812D01*
X92731200Y-60039646D01*
X92425718Y-60344595D01*
X92260189Y-60743233D01*
X92259812Y-61174873D01*
X92424646Y-61573800D01*
X92729595Y-61879282D01*
X93128233Y-62044811D01*
X93352376Y-62045007D01*
X94045369Y-62738000D01*
X79055631Y-62738000D01*
X78867000Y-62549370D01*
X78867000Y-61732413D01*
X79024282Y-61575405D01*
X79189811Y-61176767D01*
X79190188Y-60745127D01*
X79025354Y-60346200D01*
X78720405Y-60040718D01*
X78321767Y-59875189D01*
X77890127Y-59874812D01*
X77491200Y-60039646D01*
X77185718Y-60344595D01*
X77152623Y-60424297D01*
X77120354Y-60346200D01*
X76815405Y-60040718D01*
X76416767Y-59875189D01*
X75985127Y-59874812D01*
X75586200Y-60039646D01*
X75280718Y-60344595D01*
X75115189Y-60743233D01*
X75114812Y-61174873D01*
X75279646Y-61573800D01*
X75438000Y-61732431D01*
X75438000Y-64632587D01*
X75280718Y-64789595D01*
X75115189Y-65188233D01*
X75114812Y-65619873D01*
X75279646Y-66018800D01*
X75584595Y-66324282D01*
X75983233Y-66489811D01*
X76414873Y-66490188D01*
X76813800Y-66325354D01*
X77119282Y-66020405D01*
X77284811Y-65621767D01*
X77285188Y-65190127D01*
X77120354Y-64791200D01*
X76962000Y-64632569D01*
X76962000Y-61732413D01*
X77119282Y-61575405D01*
X77152377Y-61495703D01*
X77184646Y-61573800D01*
X77343000Y-61732431D01*
X77343000Y-62865000D01*
X77401004Y-63156605D01*
X77542447Y-63368289D01*
X77566185Y-63403815D01*
X78201185Y-64038816D01*
X78349377Y-64137834D01*
X78448395Y-64203996D01*
X78740000Y-64262000D01*
X90678000Y-64262000D01*
X90678000Y-67691000D01*
X86360000Y-67691000D01*
X86019795Y-67758670D01*
X85731382Y-67951382D01*
X85096382Y-68586382D01*
X84903671Y-68874794D01*
X84836000Y-69215000D01*
X84836000Y-72021764D01*
X84721764Y-72136000D01*
X61605634Y-72136000D01*
X61575405Y-72105718D01*
X61176767Y-71940189D01*
X60745127Y-71939812D01*
X60346200Y-72104646D01*
X60040718Y-72409595D01*
X59875189Y-72808233D01*
X59874812Y-73239873D01*
X60039646Y-73638800D01*
X60344595Y-73944282D01*
X60743233Y-74109811D01*
X61174873Y-74110188D01*
X61573800Y-73945354D01*
X61605209Y-73914000D01*
X85090000Y-73914000D01*
X85430206Y-73846329D01*
X85718618Y-73653618D01*
X86353618Y-73018618D01*
X86546330Y-72730205D01*
X86614000Y-72390000D01*
X86614000Y-69583236D01*
X86728236Y-69469000D01*
X90678000Y-69469000D01*
X90678000Y-78613000D01*
X80010000Y-78613000D01*
X79718395Y-78671004D01*
X79624687Y-78733618D01*
X79471185Y-78836185D01*
X72167965Y-86139405D01*
X72061670Y-86095267D01*
X71451009Y-86094735D01*
X70886629Y-86327932D01*
X70484677Y-86729182D01*
X70085643Y-86329449D01*
X69521670Y-86095267D01*
X68911009Y-86094735D01*
X68346629Y-86327932D01*
X67944677Y-86729182D01*
X67754033Y-86538203D01*
X77203236Y-77089000D01*
X81904366Y-77089000D01*
X81934595Y-77119282D01*
X82333233Y-77284811D01*
X82764873Y-77285188D01*
X83163800Y-77120354D01*
X83469282Y-76815405D01*
X83634811Y-76416767D01*
X83635188Y-75985127D01*
X83470354Y-75586200D01*
X83165405Y-75280718D01*
X82766767Y-75115189D01*
X82335127Y-75114812D01*
X81936200Y-75279646D01*
X81904791Y-75311000D01*
X76835000Y-75311000D01*
X76494794Y-75378671D01*
X76319193Y-75496004D01*
X76206382Y-75571382D01*
X66046382Y-85731382D01*
X65853671Y-86019794D01*
X65788848Y-86345682D01*
X65404677Y-86729182D01*
X65005643Y-86329449D01*
X64441670Y-86095267D01*
X63831009Y-86094735D01*
X63266629Y-86327932D01*
X62834449Y-86759357D01*
X62600267Y-87323330D01*
X62599735Y-87933991D01*
X62832932Y-88498371D01*
X63264357Y-88930551D01*
X63828330Y-89164733D01*
X64438991Y-89165265D01*
X65003371Y-88932068D01*
X65405323Y-88530818D01*
X65804357Y-88930551D01*
X66368330Y-89164733D01*
X66978991Y-89165265D01*
X67543371Y-88932068D01*
X67945323Y-88530818D01*
X68344357Y-88930551D01*
X68908330Y-89164733D01*
X69518991Y-89165265D01*
X70083371Y-88932068D01*
X70485323Y-88530818D01*
X70884357Y-88930551D01*
X71448330Y-89164733D01*
X72058991Y-89165265D01*
X72623371Y-88932068D01*
X73025744Y-88530398D01*
X73044595Y-88549282D01*
X73443233Y-88714811D01*
X73874873Y-88715188D01*
X74273800Y-88550354D01*
X74579282Y-88245405D01*
X74744811Y-87846767D01*
X74745007Y-87622623D01*
X81595631Y-80772000D01*
X166370000Y-80772000D01*
X166661605Y-80713996D01*
X166908815Y-80548815D01*
X168590630Y-78867000D01*
X181294370Y-78867000D01*
X187833000Y-85405631D01*
X187833000Y-87630000D01*
X187891004Y-87921605D01*
X188035595Y-88138000D01*
X188056185Y-88168815D01*
X189961185Y-90073815D01*
X190208395Y-90238996D01*
X190500000Y-90297000D01*
X191770000Y-90297000D01*
X192061605Y-90238996D01*
X192308815Y-90073815D01*
X193262035Y-89120595D01*
X193368330Y-89164733D01*
X193978991Y-89165265D01*
X194543371Y-88932068D01*
X194945323Y-88530818D01*
X195344357Y-88930551D01*
X195908330Y-89164733D01*
X196518991Y-89165265D01*
X197083371Y-88932068D01*
X197485323Y-88530818D01*
X197884357Y-88930551D01*
X198448330Y-89164733D01*
X199058991Y-89165265D01*
X199623371Y-88932068D01*
X200055551Y-88500643D01*
X200289733Y-87936670D01*
X200290265Y-87326009D01*
X200057068Y-86761629D01*
X199625643Y-86329449D01*
X199061670Y-86095267D01*
X198451009Y-86094735D01*
X197886629Y-86327932D01*
X197484677Y-86729182D01*
X197085643Y-86329449D01*
X196521670Y-86095267D01*
X195936994Y-86094758D01*
X190302063Y-80459827D01*
X190714873Y-80460188D01*
X191113800Y-80295354D01*
X191419282Y-79990405D01*
X191584811Y-79591767D01*
X191585188Y-79160127D01*
X191420354Y-78761200D01*
X191262000Y-78602569D01*
X191262000Y-59827413D01*
X191419282Y-59670405D01*
X191584811Y-59271767D01*
X191585188Y-58840127D01*
X191420354Y-58441200D01*
X191115405Y-58135718D01*
X190716767Y-57970189D01*
X190285127Y-57969812D01*
X189886200Y-58134646D01*
X189580718Y-58439595D01*
X189415189Y-58838233D01*
X189414812Y-59269873D01*
X189579646Y-59668800D01*
X189738000Y-59827431D01*
X189738000Y-72263000D01*
X184478880Y-72263000D01*
X184599811Y-71971767D01*
X184600188Y-71540127D01*
X184435354Y-71141200D01*
X184130405Y-70835718D01*
X183941723Y-70757370D01*
X183964811Y-70701767D01*
X183965188Y-70270127D01*
X183800354Y-69871200D01*
X183642000Y-69712569D01*
X183642000Y-68908880D01*
X183933233Y-69029811D01*
X184364873Y-69030188D01*
X184763800Y-68865354D01*
X185069282Y-68560405D01*
X185234811Y-68161767D01*
X185235188Y-67730127D01*
X185070354Y-67331200D01*
X184912000Y-67172569D01*
X184912000Y-58100630D01*
X185100631Y-57912000D01*
X195580000Y-57912000D01*
X195871605Y-57853996D01*
X196118815Y-57688815D01*
X196753816Y-57053815D01*
X196884391Y-56858395D01*
X196918996Y-56806605D01*
X196977000Y-56515000D01*
X196977000Y-55350433D01*
X197015838Y-55342708D01*
X197355652Y-55115652D01*
X197582708Y-54775838D01*
X197662440Y-54375000D01*
X197662440Y-53575000D01*
X197582708Y-53174162D01*
X197355652Y-52834348D01*
X197015838Y-52607292D01*
X196615000Y-52527560D01*
X195815000Y-52527560D01*
X195414162Y-52607292D01*
X195074348Y-52834348D01*
X194945000Y-53027931D01*
X194815652Y-52834348D01*
X194475838Y-52607292D01*
X194075000Y-52527560D01*
X193275000Y-52527560D01*
X192874162Y-52607292D01*
X192534348Y-52834348D01*
X192405000Y-53027931D01*
X192275652Y-52834348D01*
X191935838Y-52607292D01*
X191535000Y-52527560D01*
X190735000Y-52527560D01*
X190334162Y-52607292D01*
X189994348Y-52834348D01*
X189767292Y-53174162D01*
X189759567Y-53213000D01*
X185420000Y-53213000D01*
X185128395Y-53271004D01*
X185029377Y-53337166D01*
X184881185Y-53436184D01*
X181071185Y-57246185D01*
X180906004Y-57493395D01*
X180848000Y-57785000D01*
X180848000Y-70485000D01*
X180864232Y-70566601D01*
X180789994Y-70492364D01*
X180790188Y-70270127D01*
X180625354Y-69871200D01*
X180320405Y-69565718D01*
X179921767Y-69400189D01*
X179490127Y-69399812D01*
X179091200Y-69564646D01*
X178785718Y-69869595D01*
X178620189Y-70268233D01*
X178619812Y-70699873D01*
X178784646Y-71098800D01*
X179089595Y-71404282D01*
X179488233Y-71569811D01*
X179712377Y-71570007D01*
X181706184Y-73563815D01*
X181879461Y-73679595D01*
X181953395Y-73728996D01*
X182245000Y-73787000D01*
X189738000Y-73787000D01*
X189738000Y-78602587D01*
X189580718Y-78759595D01*
X189415189Y-79158233D01*
X189414827Y-79572591D01*
X184778618Y-74936382D01*
X184731403Y-74904834D01*
X184490206Y-74743671D01*
X184150000Y-74676000D01*
X177533236Y-74676000D01*
X177419000Y-74561764D01*
X177419000Y-66675000D01*
X177382164Y-66489811D01*
X177351330Y-66334795D01*
X177158618Y-66046382D01*
X176784000Y-65671764D01*
X176784000Y-64780634D01*
X176814282Y-64750405D01*
X176979811Y-64351767D01*
X176980188Y-63920127D01*
X176815354Y-63521200D01*
X176510405Y-63215718D01*
X176111767Y-63050189D01*
X175680127Y-63049812D01*
X175281200Y-63214646D01*
X174975718Y-63519595D01*
X174810189Y-63918233D01*
X174809812Y-64349873D01*
X174974646Y-64748800D01*
X175006000Y-64780209D01*
X175006000Y-65343370D01*
X172453815Y-62791185D01*
X172378970Y-62741175D01*
X172349063Y-62721192D01*
X172331562Y-62695000D01*
X172465635Y-62494346D01*
X172552032Y-62060000D01*
X172465635Y-61625654D01*
X172331562Y-61425000D01*
X172465635Y-61224346D01*
X172552032Y-60790000D01*
X172465635Y-60355654D01*
X172331562Y-60155000D01*
X172465635Y-59954346D01*
X172552032Y-59520000D01*
X172465635Y-59085654D01*
X172331562Y-58885000D01*
X172465635Y-58684346D01*
X172552032Y-58250000D01*
X172465635Y-57815654D01*
X172331562Y-57615000D01*
X172465635Y-57414346D01*
X172552032Y-56980000D01*
X172465635Y-56545654D01*
X172219598Y-56177434D01*
X171851378Y-55931397D01*
X171417032Y-55845000D01*
X170352968Y-55845000D01*
X169918622Y-55931397D01*
X169550402Y-56177434D01*
X169304365Y-56545654D01*
X169217968Y-56980000D01*
X169296922Y-57376928D01*
X169036794Y-57428671D01*
X168748382Y-57621382D01*
X167011382Y-59358382D01*
X166818671Y-59646794D01*
X166751000Y-59987000D01*
X166751000Y-72656764D01*
X165366764Y-74041000D01*
X152400000Y-74041000D01*
X152059794Y-74108671D01*
X151922171Y-74200628D01*
X151771382Y-74301382D01*
X150622000Y-75450764D01*
X150622000Y-72941000D01*
X150563996Y-72649395D01*
X150398815Y-72402185D01*
X149677815Y-71681185D01*
X149430605Y-71516004D01*
X149383875Y-71506709D01*
X149465635Y-71384346D01*
X149552032Y-70950000D01*
X149465635Y-70515654D01*
X149331562Y-70315000D01*
X149465635Y-70114346D01*
X149552032Y-69680000D01*
X149465635Y-69245654D01*
X149331562Y-69045000D01*
X149465635Y-68844346D01*
X149552032Y-68410000D01*
X149465635Y-67975654D01*
X149331562Y-67775000D01*
X149465635Y-67574346D01*
X149552032Y-67140000D01*
X149465635Y-66705654D01*
X149331562Y-66505000D01*
X149465635Y-66304346D01*
X149552032Y-65870000D01*
X149465635Y-65435654D01*
X149331562Y-65235000D01*
X149465635Y-65034346D01*
X149552032Y-64600000D01*
X149465635Y-64165654D01*
X149331562Y-63965000D01*
X149465635Y-63764346D01*
X149552032Y-63330000D01*
X149465635Y-62895654D01*
X149331562Y-62695000D01*
X149465635Y-62494346D01*
X149552032Y-62060000D01*
X149465635Y-61625654D01*
X149331562Y-61425000D01*
X149465635Y-61224346D01*
X149552032Y-60790000D01*
X149465635Y-60355654D01*
X149331562Y-60155000D01*
X149465635Y-59954346D01*
X149552032Y-59520000D01*
X149465635Y-59085654D01*
X149331562Y-58885000D01*
X149465635Y-58684346D01*
X149552032Y-58250000D01*
X149465635Y-57815654D01*
X149331562Y-57615000D01*
X149465635Y-57414346D01*
X149552032Y-56980000D01*
X149465635Y-56545654D01*
X149219598Y-56177434D01*
X148851378Y-55931397D01*
X148417032Y-55845000D01*
X147352968Y-55845000D01*
X146918622Y-55931397D01*
X146550402Y-56177434D01*
X146304365Y-56545654D01*
X146217968Y-56980000D01*
X146304365Y-57414346D01*
X146438438Y-57615000D01*
X146304365Y-57815654D01*
X146217968Y-58250000D01*
X146304365Y-58684346D01*
X146438438Y-58885000D01*
X146304365Y-59085654D01*
X146217968Y-59520000D01*
X146304365Y-59954346D01*
X146438438Y-60155000D01*
X146304365Y-60355654D01*
X146217968Y-60790000D01*
X146304365Y-61224346D01*
X146438438Y-61425000D01*
X146304365Y-61625654D01*
X146217968Y-62060000D01*
X146304365Y-62494346D01*
X146438438Y-62695000D01*
X146304365Y-62895654D01*
X146217968Y-63330000D01*
X146304365Y-63764346D01*
X146438438Y-63965000D01*
X146304365Y-64165654D01*
X146235329Y-64512721D01*
X140873793Y-59151185D01*
X140729842Y-59055000D01*
X140626583Y-58986004D01*
X140334978Y-58928000D01*
X124597413Y-58928000D01*
X124440405Y-58770718D01*
X124041767Y-58605189D01*
X123610127Y-58604812D01*
X123211200Y-58769646D01*
X122905718Y-59074595D01*
X122740189Y-59473233D01*
X122739812Y-59904873D01*
X122860930Y-60198000D01*
X109357413Y-60198000D01*
X109200405Y-60040718D01*
X108801767Y-59875189D01*
X108712000Y-59875111D01*
X108712000Y-51473100D01*
X148523704Y-51473100D01*
X148813377Y-51530719D01*
X149002747Y-51657251D01*
X149129280Y-51846622D01*
X149186900Y-52136296D01*
X149186900Y-54610000D01*
X149199833Y-54675019D01*
X149199833Y-54741315D01*
X149296506Y-55227323D01*
X149344300Y-55342708D01*
X149397010Y-55469962D01*
X149672311Y-55881979D01*
X149672313Y-55881981D01*
X149858020Y-56067689D01*
X150270037Y-56342988D01*
X150270038Y-56342989D01*
X150512677Y-56443494D01*
X150998684Y-56540166D01*
X151064977Y-56540166D01*
X151130000Y-56553100D01*
X167640000Y-56553100D01*
X167705019Y-56540167D01*
X167771315Y-56540167D01*
X168257323Y-56443494D01*
X168391297Y-56388000D01*
X168499962Y-56342990D01*
X168911979Y-56067689D01*
X169003484Y-55976184D01*
X169097689Y-55881980D01*
X169372989Y-55469962D01*
X169400292Y-55404046D01*
X169473494Y-55227323D01*
X169570166Y-54741316D01*
X169570166Y-54675023D01*
X169583100Y-54610000D01*
X169583100Y-52136296D01*
X169640719Y-51846623D01*
X169767251Y-51657253D01*
X169956622Y-51530720D01*
X170246296Y-51473100D01*
X206217505Y-51473100D01*
X206180877Y-51509664D01*
X205688561Y-52695294D01*
X205687441Y-53979074D01*
X206177687Y-55165561D01*
X207084664Y-56074123D01*
X208270294Y-56566439D01*
X209554074Y-56567559D01*
X210740561Y-56077313D01*
X211416900Y-55402154D01*
X211416900Y-61528704D01*
X211359280Y-61818378D01*
X211232747Y-62007749D01*
X211043377Y-62134281D01*
X210753704Y-62191900D01*
X210185000Y-62191900D01*
X210119977Y-62204834D01*
X210053684Y-62204834D01*
X209567677Y-62301506D01*
X209356338Y-62389046D01*
X209325038Y-62402011D01*
X208913020Y-62677311D01*
X208799147Y-62791185D01*
X208727311Y-62863021D01*
X208452010Y-63275038D01*
X208413385Y-63368289D01*
X208351506Y-63517677D01*
X208254833Y-64003685D01*
X208254833Y-64069981D01*
X208241900Y-64135000D01*
X208241900Y-74295000D01*
X208254833Y-74360019D01*
X208254833Y-74426315D01*
X208351506Y-74912323D01*
X208398674Y-75026195D01*
X208452010Y-75154962D01*
X208727311Y-75566979D01*
X208727313Y-75566981D01*
X208913020Y-75752689D01*
X209325037Y-76027988D01*
X209325038Y-76027989D01*
X209567677Y-76128494D01*
X210053684Y-76225166D01*
X210119977Y-76225166D01*
X210185000Y-76238100D01*
X210753704Y-76238100D01*
X211043377Y-76295719D01*
X211232747Y-76422251D01*
X211359280Y-76611622D01*
X211416900Y-76901296D01*
X211416900Y-86716197D01*
X210898050Y-85460485D01*
X209820189Y-84380741D01*
X208411175Y-83795667D01*
X206885518Y-83794336D01*
X205475485Y-84376950D01*
X204395741Y-85454811D01*
X203810667Y-86863825D01*
X203809336Y-88389482D01*
X204391950Y-89799515D01*
X205357648Y-90766900D01*
X169868662Y-90766900D01*
X170219352Y-90416821D01*
X170798140Y-89022944D01*
X170799457Y-87513677D01*
X170223103Y-86118792D01*
X169156821Y-85050648D01*
X167762944Y-84471860D01*
X166253677Y-84470543D01*
X164858792Y-85046897D01*
X163790648Y-86113179D01*
X163211860Y-87507056D01*
X163210543Y-89016323D01*
X163786897Y-90411208D01*
X164141969Y-90766900D01*
X159708662Y-90766900D01*
X160059352Y-90416821D01*
X160638140Y-89022944D01*
X160639457Y-87513677D01*
X160063103Y-86118792D01*
X158996821Y-85050648D01*
X157602944Y-84471860D01*
X156093677Y-84470543D01*
X154698792Y-85046897D01*
X153630648Y-86113179D01*
X153051860Y-87507056D01*
X153050543Y-89016323D01*
X153626897Y-90411208D01*
X153981969Y-90766900D01*
X148681880Y-90766900D01*
X148813432Y-90573037D01*
X146685000Y-88444605D01*
X144556568Y-90573037D01*
X144688120Y-90766900D01*
X139388662Y-90766900D01*
X139739352Y-90416821D01*
X140318140Y-89022944D01*
X140318242Y-88906034D01*
X143449515Y-88906034D01*
X143941115Y-90095405D01*
X143943887Y-90099554D01*
X144376963Y-90393432D01*
X146505395Y-88265000D01*
X146864605Y-88265000D01*
X148993037Y-90393432D01*
X149426113Y-90099554D01*
X149919511Y-88910928D01*
X149920485Y-87623966D01*
X149428885Y-86434595D01*
X149426113Y-86430446D01*
X148993037Y-86136568D01*
X146864605Y-88265000D01*
X146505395Y-88265000D01*
X144376963Y-86136568D01*
X143943887Y-86430446D01*
X143450489Y-87619072D01*
X143449515Y-88906034D01*
X140318242Y-88906034D01*
X140319457Y-87513677D01*
X139743103Y-86118792D01*
X139581557Y-85956963D01*
X144556568Y-85956963D01*
X146685000Y-88085395D01*
X148813432Y-85956963D01*
X148519554Y-85523887D01*
X147330928Y-85030489D01*
X146043966Y-85029515D01*
X144854595Y-85521115D01*
X144850446Y-85523887D01*
X144556568Y-85956963D01*
X139581557Y-85956963D01*
X138676821Y-85050648D01*
X137282944Y-84471860D01*
X135773677Y-84470543D01*
X134764126Y-84887680D01*
X133296446Y-83420000D01*
X173177560Y-83420000D01*
X173177560Y-84220000D01*
X173257292Y-84620838D01*
X173484348Y-84960652D01*
X173677931Y-85090000D01*
X173484348Y-85219348D01*
X173257292Y-85559162D01*
X173177560Y-85960000D01*
X173177560Y-86760000D01*
X173257292Y-87160838D01*
X173484348Y-87500652D01*
X173677931Y-87630000D01*
X173484348Y-87759348D01*
X173257292Y-88099162D01*
X173177560Y-88500000D01*
X173177560Y-89300000D01*
X173257292Y-89700838D01*
X173484348Y-90040652D01*
X173824162Y-90267708D01*
X174225000Y-90347440D01*
X175025000Y-90347440D01*
X175425838Y-90267708D01*
X175765652Y-90040652D01*
X175991825Y-89702159D01*
X176372630Y-90083629D01*
X176885900Y-90296757D01*
X177441661Y-90297242D01*
X177955303Y-90085010D01*
X178309392Y-89731539D01*
X178344843Y-89909765D01*
X178485191Y-90119809D01*
X178695235Y-90260157D01*
X178943000Y-90309440D01*
X180467000Y-90309440D01*
X180714765Y-90260157D01*
X180924809Y-90119809D01*
X181041025Y-89945882D01*
X181104348Y-90040652D01*
X181444162Y-90267708D01*
X181845000Y-90347440D01*
X182645000Y-90347440D01*
X183045838Y-90267708D01*
X183385652Y-90040652D01*
X183612708Y-89700838D01*
X183692440Y-89300000D01*
X183692440Y-88500000D01*
X183612708Y-88099162D01*
X183385652Y-87759348D01*
X183192069Y-87630000D01*
X183385652Y-87500652D01*
X183612708Y-87160838D01*
X183692440Y-86760000D01*
X183692440Y-85960000D01*
X183612708Y-85559162D01*
X183385652Y-85219348D01*
X183192069Y-85090000D01*
X183385652Y-84960652D01*
X183612708Y-84620838D01*
X183692440Y-84220000D01*
X183692440Y-83420000D01*
X183612708Y-83019162D01*
X183385652Y-82679348D01*
X183045838Y-82452292D01*
X182645000Y-82372560D01*
X181845000Y-82372560D01*
X181444162Y-82452292D01*
X181104348Y-82679348D01*
X180878175Y-83017841D01*
X180497370Y-82636371D01*
X179984100Y-82423243D01*
X179428339Y-82422758D01*
X178914697Y-82634990D01*
X178521371Y-83027630D01*
X178435051Y-83235512D01*
X178350010Y-83029697D01*
X177957370Y-82636371D01*
X177444100Y-82423243D01*
X176888339Y-82422758D01*
X176374697Y-82634990D01*
X175991566Y-83017453D01*
X175765652Y-82679348D01*
X175425838Y-82452292D01*
X175025000Y-82372560D01*
X174225000Y-82372560D01*
X173824162Y-82452292D01*
X173484348Y-82679348D01*
X173257292Y-83019162D01*
X173177560Y-83420000D01*
X133296446Y-83420000D01*
X132888223Y-83011777D01*
X132517407Y-82764006D01*
X132080000Y-82677000D01*
X91313000Y-82677000D01*
X90875593Y-82764006D01*
X90504777Y-83011777D01*
X83854554Y-89662000D01*
X62103000Y-89662000D01*
X62103000Y-80124236D01*
X63233236Y-78994000D01*
X69292048Y-78994000D01*
X69643223Y-79139820D01*
X70054971Y-79140179D01*
X70408752Y-78994000D01*
X70562048Y-78994000D01*
X70913223Y-79139820D01*
X71324971Y-79140179D01*
X71705515Y-78982942D01*
X71996919Y-78692046D01*
X72154820Y-78311777D01*
X72155179Y-77900029D01*
X72009000Y-77546248D01*
X72009000Y-77392952D01*
X72154820Y-77041777D01*
X72155179Y-76630029D01*
X71997942Y-76249485D01*
X71707046Y-75958081D01*
X71326777Y-75800180D01*
X70915029Y-75799821D01*
X70561248Y-75946000D01*
X70407952Y-75946000D01*
X70056777Y-75800180D01*
X69645029Y-75799821D01*
X69264485Y-75957058D01*
X68973081Y-76247954D01*
X68815180Y-76628223D01*
X68814821Y-77039971D01*
X68887554Y-77216000D01*
X62865000Y-77216000D01*
X62524794Y-77283671D01*
X62236382Y-77476382D01*
X60885764Y-78827000D01*
X59891093Y-78827000D01*
X59981605Y-78808996D01*
X60228815Y-78643815D01*
X60863816Y-78008815D01*
X60994391Y-77813395D01*
X61028996Y-77761605D01*
X61087000Y-77470000D01*
X61087000Y-76972413D01*
X61244282Y-76815405D01*
X61409811Y-76416767D01*
X61410188Y-75985127D01*
X61245354Y-75586200D01*
X60940405Y-75280718D01*
X60541767Y-75115189D01*
X60110127Y-75114812D01*
X59711200Y-75279646D01*
X59405718Y-75584595D01*
X59240189Y-75983233D01*
X59239812Y-76414873D01*
X59404646Y-76813800D01*
X59563000Y-76972431D01*
X59563000Y-77141132D01*
X59271737Y-77020189D01*
X58840097Y-77019812D01*
X58441170Y-77184646D01*
X58135688Y-77489595D01*
X57970159Y-77888233D01*
X57969782Y-78319873D01*
X58134616Y-78718800D01*
X58242627Y-78827000D01*
X55944000Y-78827000D01*
X55944000Y-76004205D01*
X56207280Y-75741384D01*
X56414763Y-75241708D01*
X56415236Y-74700666D01*
X56208624Y-74200628D01*
X55826384Y-73817720D01*
X55326708Y-73610237D01*
X54952146Y-73609910D01*
X54683618Y-73341382D01*
X54590257Y-73279000D01*
X54395206Y-73148671D01*
X54055000Y-73081000D01*
X53585798Y-73081000D01*
X53208666Y-72829009D01*
X52736052Y-72735000D01*
X51973948Y-72735000D01*
X51501334Y-72829009D01*
X51473100Y-72847874D01*
X51473100Y-55401385D01*
X52144664Y-56074123D01*
X53330294Y-56566439D01*
X54614074Y-56567559D01*
X55800561Y-56077313D01*
X56709123Y-55170336D01*
X57201439Y-53984706D01*
X57202559Y-52700926D01*
X56712313Y-51514439D01*
X56671046Y-51473100D01*
X107188000Y-51473100D01*
X107188000Y-61468000D01*
M02*
