G04 #@! TF.GenerationSoftware,KiCad,Pcbnew,no-vcs-found-bf44d39~61~ubuntu16.04.1*
G04 #@! TF.CreationDate,2018-01-05T12:00:21+05:30*
G04 #@! TF.ProjectId,chromogram,6368726F6D6F6772616D2E6B69636164,rev?*
G04 #@! TF.SameCoordinates,Original*
G04 #@! TF.FileFunction,Profile,NP*
%FSLAX46Y46*%
G04 Gerber Fmt 4.6, Leading zero omitted, Abs format (unit mm)*
G04 Created by KiCad (PCBNEW no-vcs-found-bf44d39~61~ubuntu16.04.1) date Fri Jan  5 12:00:21 2018*
%MOMM*%
%LPD*%
G01*
G04 APERTURE LIST*
%ADD10C,0.076200*%
G04 APERTURE END LIST*
D10*
X212090000Y-53340000D02*
X212090000Y-61595000D01*
X210820000Y-75565000D02*
X210185000Y-75565000D01*
X208915000Y-74295000D02*
X208915000Y-64135000D01*
X210820000Y-62865000D02*
X210185000Y-62865000D01*
X208915000Y-64135000D02*
G75*
G02X210185000Y-62865000I1270000J0D01*
G01*
X210185000Y-75565000D02*
G75*
G02X208915000Y-74295000I0J1270000D01*
G01*
X210820000Y-75565000D02*
G75*
G02X212090000Y-76835000I0J-1270000D01*
G01*
X212090000Y-61595000D02*
G75*
G02X210820000Y-62865000I-1270000J0D01*
G01*
X209550000Y-50800000D02*
X209550000Y-50800000D01*
X170180000Y-50800000D02*
X209550000Y-50800000D01*
X149860000Y-52070000D02*
X149860000Y-54610000D01*
X151130000Y-55880000D02*
X167640000Y-55880000D01*
X168910000Y-52070000D02*
X168910000Y-54610000D01*
X168910000Y-52070000D02*
G75*
G02X170180000Y-50800000I1270000J0D01*
G01*
X168910000Y-54610000D02*
G75*
G02X167640000Y-55880000I-1270000J0D01*
G01*
X151130000Y-55880000D02*
G75*
G02X149860000Y-54610000I0J1270000D01*
G01*
X148590000Y-50800000D02*
G75*
G02X149860000Y-52070000I0J-1270000D01*
G01*
X51435000Y-93980000D02*
X50800000Y-93980000D01*
X211455000Y-93980000D02*
X212090000Y-93980000D01*
X133985000Y-236220000D02*
X128905000Y-236220000D01*
X93345000Y-233680000D02*
G75*
G02X93345000Y-236220000I0J-1270000D01*
G01*
X128905000Y-233680000D02*
X133985000Y-233680000D01*
X212725000Y-233045000D02*
G75*
G02X212090000Y-233680000I-635000J0D01*
G01*
X164465000Y-236220000D02*
X139065000Y-236220000D01*
X169545000Y-236220000D02*
X207010000Y-236220000D01*
X207010000Y-233680000D02*
G75*
G02X207010000Y-236220000I0J-1270000D01*
G01*
X50165000Y-236855000D02*
G75*
G02X50800000Y-236220000I635000J0D01*
G01*
X98425000Y-236220000D02*
G75*
G02X98425000Y-233680000I0J1270000D01*
G01*
X55880000Y-236220000D02*
X93345000Y-236220000D01*
X55880000Y-236220000D02*
G75*
G02X55880000Y-233680000I0J1270000D01*
G01*
X169545000Y-236220000D02*
G75*
G02X169545000Y-233680000I0J1270000D01*
G01*
X50800000Y-233680000D02*
G75*
G02X50800000Y-236220000I0J-1270000D01*
G01*
X123825000Y-236220000D02*
X98425000Y-236220000D01*
X55880000Y-233680000D02*
X93345000Y-233680000D01*
X207010000Y-233680000D02*
X169545000Y-233680000D01*
X139065000Y-233680000D02*
X164465000Y-233680000D01*
X133985000Y-233680000D02*
G75*
G02X133985000Y-236220000I0J-1270000D01*
G01*
X128905000Y-236220000D02*
G75*
G02X128905000Y-233680000I0J1270000D01*
G01*
X123825000Y-233680000D02*
G75*
G02X123825000Y-236220000I0J-1270000D01*
G01*
X212090000Y-236220000D02*
G75*
G02X212725000Y-236855000I0J-635000D01*
G01*
X139065000Y-236220000D02*
G75*
G02X139065000Y-233680000I0J1270000D01*
G01*
X164465000Y-233680000D02*
G75*
G02X164465000Y-236220000I0J-1270000D01*
G01*
X212090000Y-236220000D02*
G75*
G02X212090000Y-233680000I0J1270000D01*
G01*
X50800000Y-233680000D02*
G75*
G02X50165000Y-233045000I0J635000D01*
G01*
X98425000Y-233680000D02*
X123825000Y-233680000D01*
X206375000Y-91440000D02*
G75*
G02X206375000Y-93980000I0J-1270000D01*
G01*
X211455000Y-93980000D02*
G75*
G02X211455000Y-91440000I0J1270000D01*
G01*
X56515000Y-93980000D02*
G75*
G02X56515000Y-91440000I0J1270000D01*
G01*
X51435000Y-91440000D02*
G75*
G02X51435000Y-93980000I0J-1270000D01*
G01*
X104140000Y-93980000D02*
X97790000Y-93980000D01*
X97790000Y-91440000D02*
X104140000Y-91440000D01*
X114300000Y-93980000D02*
X107950000Y-93980000D01*
X107950000Y-91440000D02*
X114300000Y-91440000D01*
X124460000Y-93980000D02*
X118110000Y-93980000D01*
X118110000Y-91440000D02*
X124460000Y-91440000D01*
X134620000Y-93980000D02*
X128270000Y-93980000D01*
X128270000Y-91440000D02*
X134620000Y-91440000D01*
X144780000Y-93980000D02*
X138430000Y-93980000D01*
X138430000Y-91440000D02*
X144780000Y-91440000D01*
X148590000Y-93980000D02*
X154940000Y-93980000D01*
X154940000Y-91440000D02*
X148590000Y-91440000D01*
X165100000Y-93980000D02*
X158750000Y-93980000D01*
X158750000Y-91440000D02*
X165100000Y-91440000D01*
X211455000Y-93980000D02*
X211455000Y-93980000D01*
X168910000Y-93980000D02*
X206375000Y-93980000D01*
X168910000Y-91440000D02*
X168910000Y-91440000D01*
X206375000Y-91440000D02*
X168910000Y-91440000D01*
X212090000Y-90805000D02*
G75*
G02X211455000Y-91440000I-635000J0D01*
G01*
X212090000Y-93980000D02*
G75*
G02X212725000Y-94615000I0J-635000D01*
G01*
X168910000Y-93980000D02*
G75*
G02X168910000Y-91440000I0J1270000D01*
G01*
X165100000Y-91440000D02*
G75*
G02X165100000Y-93980000I0J-1270000D01*
G01*
X158750000Y-93980000D02*
G75*
G02X158750000Y-91440000I0J1270000D01*
G01*
X154940000Y-91440000D02*
G75*
G02X154940000Y-93980000I0J-1270000D01*
G01*
X148590000Y-93980000D02*
G75*
G02X148590000Y-91440000I0J1270000D01*
G01*
X144780000Y-91440000D02*
G75*
G02X144780000Y-93980000I0J-1270000D01*
G01*
X138430000Y-93980000D02*
G75*
G02X138430000Y-91440000I0J1270000D01*
G01*
X134620000Y-91440000D02*
G75*
G02X134620000Y-93980000I0J-1270000D01*
G01*
X128270000Y-93980000D02*
G75*
G02X128270000Y-91440000I0J1270000D01*
G01*
X124460000Y-91440000D02*
G75*
G02X124460000Y-93980000I0J-1270000D01*
G01*
X118110000Y-93980000D02*
G75*
G02X118110000Y-91440000I0J1270000D01*
G01*
X114300000Y-91440000D02*
G75*
G02X114300000Y-93980000I0J-1270000D01*
G01*
X107950000Y-93980000D02*
G75*
G02X107950000Y-91440000I0J1270000D01*
G01*
X104140000Y-91440000D02*
G75*
G02X104140000Y-93980000I0J-1270000D01*
G01*
X97790000Y-93980000D02*
G75*
G02X97790000Y-91440000I0J1270000D01*
G01*
X93980000Y-91440000D02*
G75*
G02X93980000Y-93980000I0J-1270000D01*
G01*
X56515000Y-93980000D02*
X93980000Y-93980000D01*
X56515000Y-91440000D02*
X93980000Y-91440000D01*
X50165000Y-94615000D02*
G75*
G02X50800000Y-93980000I635000J0D01*
G01*
X51435000Y-91440000D02*
G75*
G02X50800000Y-90805000I0J635000D01*
G01*
X209550000Y-50800000D02*
G75*
G02X212090000Y-53340000I0J-2540000D01*
G01*
X50800000Y-53340000D02*
G75*
G02X53340000Y-50800000I2540000J0D01*
G01*
X53975000Y-245110000D02*
G75*
G02X50165000Y-241300000I0J3810000D01*
G01*
X212725000Y-241300000D02*
G75*
G02X208915000Y-245110000I-3810000J0D01*
G01*
X212725000Y-241300000D02*
X212725000Y-236855000D01*
X204470000Y-227330000D02*
X204470000Y-227330000D01*
X53975000Y-245110000D02*
X208915000Y-245110000D01*
X50165000Y-274320000D02*
X50165000Y-274320000D01*
X50165000Y-236855000D02*
X50165000Y-241300000D01*
X212090000Y-76835000D02*
X212090000Y-90805000D01*
X53340000Y-50800000D02*
X148590000Y-50800000D01*
X50800000Y-90805000D02*
X50800000Y-53340000D01*
X50165000Y-218440000D02*
X50165000Y-233045000D01*
X50165000Y-215900000D02*
X50165000Y-215900000D01*
X50165000Y-111760000D02*
X50165000Y-215900000D01*
X212725000Y-218440000D02*
X212725000Y-233045000D01*
X212725000Y-215900000D02*
X212725000Y-215900000D01*
X212725000Y-111760000D02*
X212725000Y-215900000D01*
X212725000Y-111760000D02*
G75*
G02X212725000Y-109220000I0J1270000D01*
G01*
X212725000Y-218440000D02*
G75*
G02X212725000Y-215900000I0J1270000D01*
G01*
X50165000Y-215900000D02*
G75*
G02X50165000Y-218440000I0J-1270000D01*
G01*
X50165000Y-109220000D02*
G75*
G02X50165000Y-111760000I0J-1270000D01*
G01*
X50165000Y-109220000D02*
X50165000Y-94615000D01*
X212725000Y-94615000D02*
X212725000Y-109220000D01*
M02*
