M48
INCH,TZ
T1C0.0197
T2C0.0236
T3C0.0250
T4C0.0335
T5C0.0402
T6C0.0472
T7C0.1260
T8C0.0200
T9C0.0800
%
G90
G05
T1
X020250Y-038000
X020250Y-038750
X020250Y-040000
X023000Y-038000
X023250Y-030750
X023750Y-030000
X024000Y-028250
X029250Y-031100
X029250Y-034000
X030250Y-022000
X030750Y-024000
X034250Y-031500
X035750Y-024000
X036000Y-025750
X036250Y-038000
X036750Y-024000
X037000Y-026250
X037000Y-027000
X037000Y-027750
X037000Y-028500
X037000Y-029250
X037750Y-026250
X037750Y-029250
X038750Y-026250
X038750Y-029250
X038750Y-031500
X039000Y-027000
X039750Y-026250
X039750Y-027000
X039750Y-029250
X040500Y-027000
X040500Y-038250
X040750Y-026250
X040750Y-029250
X041500Y-027000
X041750Y-026250
X041750Y-029250
X042500Y-027000
X042750Y-024000
X042750Y-026250
X042750Y-029250
X043500Y-027000
X043750Y-026250
X043750Y-029250
X044250Y-027000
X044500Y-038250
X044750Y-026250
X044750Y-029250
X045000Y-027000
X045000Y-032250
X045500Y-032250
X045750Y-026250
X045750Y-027000
X045750Y-029250
X046000Y-032250
X046500Y-027000
X046500Y-032250
X046750Y-026250
X046750Y-029250
X047250Y-027000
X047750Y-026250
X047750Y-029250
X048000Y-027000
X048750Y-023500
X048750Y-026250
X048750Y-027000
X048750Y-028750
X049500Y-027000
X049750Y-026250
X049750Y-028000
X049750Y-028750
X050500Y-028750
X051000Y-045000
X051000Y-059000
X051000Y-073000
X051250Y-087000
X051500Y-030750
X052500Y-042000
X052500Y-056000
X052500Y-070000
X052500Y-084000
X053000Y-028750
X053250Y-031500
X053750Y-028750
X056500Y-030000
X056500Y-032250
X057250Y-030000
X057250Y-032250
X065000Y-038250
X069250Y-024250
X072250Y-028250
X075000Y-023250
X075000Y-031250
X064950Y-086750
X065150Y-086250
X065150Y-087250
X065750Y-085950
X065750Y-087550
X066350Y-086250
X066350Y-087250
X066550Y-086750
X080950Y-094500
X081150Y-094000
X081150Y-095000
X081750Y-093700
X081750Y-095300
X082350Y-094000
X082350Y-095000
X082550Y-094500
X027500Y-030250
X027500Y-030750
X027750Y-030500
X028000Y-030250
X028000Y-030750
X064950Y-058750
X065150Y-058250
X065150Y-059250
X065750Y-057950
X065750Y-059550
X066350Y-058250
X066350Y-059250
X066550Y-058750
X036950Y-086750
X037150Y-086250
X037150Y-087250
X037750Y-085950
X037750Y-087550
X038350Y-086250
X038350Y-087250
X038550Y-086750
X058222Y-022433
X058222Y-022933
X058222Y-023433
X058222Y-023933
X058222Y-024433
X058222Y-024933
X058222Y-025433
X058222Y-025933
X058222Y-026433
X058222Y-026933
X058222Y-027433
X058222Y-027933
X058222Y-028433
X058222Y-028933
X060500Y-030504
X061000Y-030504
X061500Y-030504
X062000Y-030504
X062500Y-030504
X063000Y-030504
X063500Y-030504
X064000Y-030504
X064500Y-030504
X065000Y-030504
X067278Y-022433
X067278Y-022933
X067278Y-023433
X067278Y-023933
X067278Y-024433
X067278Y-024933
X067278Y-025433
X067278Y-025933
X067278Y-026433
X067278Y-026933
X067278Y-027433
X067278Y-027933
X067278Y-028433
X067278Y-028933
X020450Y-021000
X020650Y-020500
X020650Y-021500
X021250Y-020200
X021250Y-021800
X021850Y-020500
X021850Y-021500
X022050Y-021000
X020950Y-094500
X021150Y-094000
X021150Y-095000
X021750Y-093700
X021750Y-095300
X022350Y-094000
X022350Y-095000
X022550Y-094500
X081450Y-021000
X081650Y-020500
X081650Y-021500
X082250Y-020200
X082250Y-021800
X082850Y-020500
X082850Y-021500
X083050Y-021000
X020950Y-034500
X021150Y-034000
X021150Y-035000
X021750Y-033700
X021750Y-035300
X022350Y-034000
X022350Y-035000
X022550Y-034500
X036950Y-058750
X037150Y-058250
X037150Y-059250
X037750Y-057950
X037750Y-059550
X038350Y-058250
X038350Y-059250
X038550Y-058750
X080950Y-034500
X081150Y-034000
X081150Y-035000
X081750Y-033700
X081750Y-035300
X082350Y-034000
X082350Y-035000
X082550Y-034500
T3
X021396Y-046409
X022104Y-046409
X061396Y-082591
X062104Y-082591
X053396Y-074409
X054104Y-074409
X041396Y-068591
X042104Y-068591
X053396Y-060409
X054104Y-060409
X077396Y-068591
X078104Y-068591
X021396Y-088409
X022104Y-088409
X073396Y-060409
X074104Y-060409
X065396Y-074409
X066104Y-074409
X033396Y-074409
X034104Y-074409
X061396Y-088409
X062104Y-088409
X045396Y-046409
X046104Y-046409
X045396Y-060409
X046104Y-060409
X049396Y-040591
X050104Y-040591
X057396Y-054591
X058104Y-054591
X029396Y-074409
X030104Y-074409
X025396Y-082591
X026104Y-082591
X069396Y-054591
X070104Y-054591
X025396Y-060409
X026104Y-060409
X041396Y-082591
X042104Y-082591
X025396Y-074409
X026104Y-074409
X069396Y-040591
X070104Y-040591
X045396Y-088409
X046104Y-088409
X065396Y-046409
X066104Y-046409
X037396Y-046409
X038104Y-046409
X025396Y-068591
X026104Y-068591
X081396Y-088409
X082104Y-088409
X029396Y-046409
X030104Y-046409
X081396Y-068591
X082104Y-068591
X033396Y-068591
X034104Y-068591
X061396Y-068591
X062104Y-068591
X081396Y-060409
X082104Y-060409
X029396Y-054591
X030104Y-054591
X057396Y-082591
X058104Y-082591
X041396Y-074409
X042104Y-074409
X053396Y-068591
X054104Y-068591
X029396Y-088409
X030104Y-088409
X053396Y-046409
X054104Y-046409
X061396Y-060409
X062104Y-060409
X049396Y-054591
X050104Y-054591
X065396Y-088409
X066104Y-088409
X057396Y-068591
X058104Y-068591
X033396Y-060409
X034104Y-060409
X061396Y-040591
X062104Y-040591
X073396Y-046409
X074104Y-046409
X073396Y-082591
X074104Y-082591
X081396Y-040591
X082104Y-040591
X037396Y-040591
X038104Y-040591
X081396Y-074409
X082104Y-074409
X057396Y-060409
X058104Y-060409
X069396Y-074409
X070104Y-074409
X081396Y-082591
X082104Y-082591
X049396Y-088409
X050104Y-088409
X077396Y-054591
X078104Y-054591
X021396Y-054591
X022104Y-054591
X049396Y-074409
X050104Y-074409
X045396Y-068591
X046104Y-068591
X069396Y-060409
X070104Y-060409
X053396Y-082591
X054104Y-082591
X041396Y-054591
X042104Y-054591
X057396Y-046409
X058104Y-046409
X033396Y-088409
X034104Y-088409
X041396Y-060409
X042104Y-060409
X053396Y-040591
X054104Y-040591
X061396Y-054591
X062104Y-054591
X069396Y-088409
X070104Y-088409
X029396Y-082591
X030104Y-082591
X021396Y-060409
X022104Y-060409
X065396Y-068591
X066104Y-068591
X077396Y-074409
X078104Y-074409
X021396Y-074409
X022104Y-074409
X073396Y-040591
X074104Y-040591
X061396Y-046409
X062104Y-046409
X069396Y-082591
X070104Y-082591
X025396Y-088409
X026104Y-088409
X025396Y-046409
X026104Y-046409
X021396Y-040591
X022104Y-040591
X037396Y-068591
X038104Y-068591
X053396Y-088409
X054104Y-088409
X077396Y-060409
X078104Y-060409
X037396Y-074409
X038104Y-074409
X049396Y-046409
X050104Y-046409
X049396Y-060409
X050104Y-060409
X049396Y-082591
X050104Y-082591
X077396Y-046409
X078104Y-046409
X061396Y-074409
X062104Y-074409
X045396Y-040591
X046104Y-040591
X053396Y-054591
X054104Y-054591
X069396Y-068591
X070104Y-068591
X037396Y-088409
X038104Y-088409
X033396Y-054591
X034104Y-054591
X073396Y-074409
X074104Y-074409
X021396Y-082591
X022104Y-082591
X029396Y-060409
X030104Y-060409
X065396Y-040591
X066104Y-040591
X033396Y-082591
X034104Y-082591
X073396Y-088409
X074104Y-088409
X077396Y-082591
X078104Y-082591
X073396Y-054591
X074104Y-054591
X041396Y-040591
X042104Y-040591
X033396Y-046409
X034104Y-046409
X065396Y-082591
X066104Y-082591
X029396Y-068591
X030104Y-068591
X025396Y-040591
X026104Y-040591
X081396Y-054591
X082104Y-054591
X025396Y-054591
X026104Y-054591
X045396Y-074409
X046104Y-074409
X049396Y-068591
X050104Y-068591
X057396Y-088409
X058104Y-088409
X029396Y-040591
X030104Y-040591
X065396Y-060409
X066104Y-060409
X037396Y-082591
X038104Y-082591
X057396Y-074409
X058104Y-074409
X073396Y-068591
X074104Y-068591
X045396Y-054591
X046104Y-054591
X037396Y-060409
X038104Y-060409
X045396Y-082591
X046104Y-082591
X057396Y-040591
X058104Y-040591
X065396Y-054591
X066104Y-054591
X041396Y-088409
X042104Y-088409
X081396Y-046409
X082104Y-046409
X037396Y-054591
X038104Y-054591
X077396Y-040591
X078104Y-040591
X033396Y-040591
X034104Y-040591
X077396Y-088409
X078104Y-088409
X069396Y-046409
X070104Y-046409
X041396Y-046409
X042104Y-046409
X021396Y-068591
X022104Y-068591
T4
X021675Y-029516
X021675Y-031484
T5
X021250Y-091250
X022250Y-091250
X075250Y-021250
T6
X076850Y-038000
X078650Y-038000
X076850Y-091000
X078650Y-091000
X024850Y-038000
X026650Y-038000
X024850Y-091000
X026650Y-091000
T7
X065750Y-058750
X037750Y-086750
X053750Y-051750
X049750Y-051750
X061750Y-034750
X041750Y-051750
X057750Y-034750
X041750Y-034750
X021250Y-021000
X061750Y-051750
X049750Y-034750
X065750Y-051750
X021750Y-094500
X045750Y-034750
X037750Y-034750
X057750Y-051750
X053750Y-034750
X082250Y-021000
X021750Y-034500
X065750Y-034750
X037750Y-058750
X081750Y-034500
X065750Y-086750
X081750Y-094500
X037750Y-051750
X045750Y-051750
T8
X053350Y-092100
X053350Y-092900
X053750Y-092100
X053750Y-092900
X054150Y-092100
X054150Y-092900
X082100Y-092100
X082100Y-092900
X082500Y-092100
X082500Y-092900
X082900Y-092100
X082900Y-092900
X081850Y-036100
X081850Y-036900
X082250Y-036100
X082250Y-036900
X082650Y-036100
X082650Y-036900
X037350Y-092100
X037350Y-092900
X037750Y-092100
X037750Y-092900
X038150Y-092100
X038150Y-092900
X020600Y-092100
X020600Y-092900
X021000Y-092100
X021000Y-092900
X021400Y-092100
X021400Y-092900
X065350Y-092100
X065350Y-092900
X065750Y-092100
X065750Y-092900
X066150Y-092100
X066150Y-092900
X049350Y-092100
X049350Y-092900
X049750Y-092100
X049750Y-092900
X050150Y-092100
X050150Y-092900
X020850Y-036100
X020850Y-036900
X021250Y-036100
X021250Y-036900
X021650Y-036100
X021650Y-036900
T9
X071750Y-050500
X043750Y-050500
X075750Y-050500
X035750Y-050500
X073750Y-050500
X029750Y-078500
X079750Y-050500
X029750Y-057500
X023750Y-078500
X027750Y-078500
X031750Y-078500
X035750Y-078500
X027750Y-050500
X039750Y-078500
X043750Y-078500
X073750Y-085500
X047750Y-078500
X051750Y-078500
X055750Y-078500
X073750Y-078500
X047750Y-050500
X059750Y-078500
X073750Y-057500
X063750Y-078500
X029750Y-085500
X029750Y-064500
X067750Y-078500
X073750Y-071500
X071750Y-078500
X075750Y-078500
X079750Y-078500
X073750Y-064500
X031750Y-050500
X029750Y-043500
X029750Y-050500
X039750Y-050500
X023750Y-050500
X051750Y-050500
X055750Y-050500
X073750Y-043500
X059750Y-050500
X029750Y-071500
X063750Y-050500
X067750Y-050500
T2
X020474Y-029122G85X020750Y-029122
G05
X020750Y-031878G85X020474Y-031878
G05
T0
M30
