G04 #@! TF.GenerationSoftware,KiCad,Pcbnew,no-vcs-found-bf44d39~61~ubuntu16.04.1*
G04 #@! TF.CreationDate,2018-01-05T12:00:21+05:30*
G04 #@! TF.ProjectId,chromogram,6368726F6D6F6772616D2E6B69636164,rev?*
G04 #@! TF.SameCoordinates,Original*
G04 #@! TF.FileFunction,Soldermask,Bot*
G04 #@! TF.FilePolarity,Negative*
%FSLAX46Y46*%
G04 Gerber Fmt 4.6, Leading zero omitted, Abs format (unit mm)*
G04 Created by KiCad (PCBNEW no-vcs-found-bf44d39~61~ubuntu16.04.1) date Fri Jan  5 12:00:21 2018*
%MOMM*%
%LPD*%
G01*
G04 APERTURE LIST*
%ADD10C,5.200000*%
%ADD11C,0.750000*%
%ADD12C,0.508000*%
%ADD13R,1.200000X0.900000*%
%ADD14R,0.500000X0.250000*%
%ADD15C,18.796000*%
%ADD16R,5.080000X2.794000*%
%ADD17R,1.600000X1.600000*%
%ADD18R,2.000000X2.000000*%
%ADD19O,2.000000X2.000000*%
%ADD20R,1.675000X1.675000*%
%ADD21O,0.300000X0.850000*%
%ADD22O,0.850000X0.300000*%
%ADD23C,0.800000*%
%ADD24R,0.600000X0.400000*%
%ADD25R,1.198880X1.198880*%
%ADD26R,1.998980X0.599440*%
%ADD27C,2.000000*%
%ADD28R,2.100000X1.400000*%
%ADD29R,1.900000X1.500000*%
%ADD30C,1.450000*%
%ADD31R,1.350000X0.400000*%
%ADD32O,1.900000X1.200000*%
%ADD33R,1.900000X1.200000*%
%ADD34R,1.498600X1.300480*%
%ADD35R,1.300480X1.498600*%
%ADD36C,2.082800*%
%ADD37R,1.350000X1.550000*%
%ADD38R,3.048000X3.048000*%
%ADD39R,1.550000X1.350000*%
%ADD40R,0.400000X0.650000*%
%ADD41R,3.800000X2.000000*%
%ADD42R,1.500000X2.000000*%
%ADD43R,2.000000X1.000000*%
%ADD44R,1.000000X2.000000*%
%ADD45R,4.000000X4.000000*%
%ADD46O,2.000000X1.000000*%
%ADD47O,1.000000X2.000000*%
G04 APERTURE END LIST*
D10*
X95885000Y-88265000D03*
X106045000Y-88265000D03*
X116205000Y-88265000D03*
X167005000Y-88265000D03*
X156845000Y-88265000D03*
X126365000Y-88265000D03*
X146685000Y-88265000D03*
X136525000Y-88265000D03*
X95885000Y-131445000D03*
X106045000Y-131445000D03*
X116205000Y-131445000D03*
X167005000Y-131445000D03*
X156845000Y-131445000D03*
X126365000Y-131445000D03*
X146685000Y-131445000D03*
X136525000Y-131445000D03*
D11*
X53721000Y-86360000D03*
X56769000Y-86360000D03*
X56769000Y-88900000D03*
X53721000Y-88900000D03*
X55245000Y-89662000D03*
X55245000Y-85598000D03*
X53213000Y-87630000D03*
X57277000Y-87630000D03*
D10*
X55245000Y-87630000D03*
D11*
X53721000Y-238760000D03*
X56769000Y-238760000D03*
X56769000Y-241300000D03*
X53721000Y-241300000D03*
X55245000Y-242062000D03*
X55245000Y-237998000D03*
X53213000Y-240030000D03*
X57277000Y-240030000D03*
D10*
X55245000Y-240030000D03*
D11*
X206121000Y-238760000D03*
X209169000Y-238760000D03*
X209169000Y-241300000D03*
X206121000Y-241300000D03*
X207645000Y-242062000D03*
X207645000Y-237998000D03*
X205613000Y-240030000D03*
X209677000Y-240030000D03*
D10*
X207645000Y-240030000D03*
D11*
X94361000Y-147955000D03*
X97409000Y-147955000D03*
X97409000Y-150495000D03*
X94361000Y-150495000D03*
X95885000Y-151257000D03*
X95885000Y-147193000D03*
X93853000Y-149225000D03*
X97917000Y-149225000D03*
D10*
X95885000Y-149225000D03*
D11*
X165481000Y-147955000D03*
X168529000Y-147955000D03*
X168529000Y-150495000D03*
X165481000Y-150495000D03*
X167005000Y-151257000D03*
X167005000Y-147193000D03*
X164973000Y-149225000D03*
X169037000Y-149225000D03*
D10*
X167005000Y-149225000D03*
D11*
X165481000Y-219075000D03*
X168529000Y-219075000D03*
X168529000Y-221615000D03*
X165481000Y-221615000D03*
X167005000Y-222377000D03*
X167005000Y-218313000D03*
X164973000Y-220345000D03*
X169037000Y-220345000D03*
D10*
X167005000Y-220345000D03*
D11*
X94361000Y-219075000D03*
X97409000Y-219075000D03*
X97409000Y-221615000D03*
X94361000Y-221615000D03*
X95885000Y-222377000D03*
X95885000Y-218313000D03*
X93853000Y-220345000D03*
X97917000Y-220345000D03*
D10*
X95885000Y-220345000D03*
D11*
X206121000Y-86360000D03*
X209169000Y-86360000D03*
X209169000Y-88900000D03*
X206121000Y-88900000D03*
X207645000Y-89662000D03*
X207645000Y-85598000D03*
X205613000Y-87630000D03*
X209677000Y-87630000D03*
D10*
X207645000Y-87630000D03*
D11*
X207391000Y-52070000D03*
X210439000Y-52070000D03*
X210439000Y-54610000D03*
X207391000Y-54610000D03*
X208915000Y-55372000D03*
X208915000Y-51308000D03*
X206883000Y-53340000D03*
X210947000Y-53340000D03*
D10*
X208915000Y-53340000D03*
D11*
X52451000Y-52070000D03*
X55499000Y-52070000D03*
X55499000Y-54610000D03*
X52451000Y-54610000D03*
X53975000Y-55372000D03*
X53975000Y-51308000D03*
X51943000Y-53340000D03*
X56007000Y-53340000D03*
D10*
X53975000Y-53340000D03*
D12*
X53975000Y-91694000D03*
X53975000Y-93726000D03*
X54991000Y-91694000D03*
X52959000Y-91694000D03*
X52959000Y-93726000D03*
X54991000Y-93726000D03*
X208915000Y-91694000D03*
X208915000Y-93726000D03*
X209931000Y-91694000D03*
X207899000Y-91694000D03*
X207899000Y-93726000D03*
X209931000Y-93726000D03*
X53340000Y-233934000D03*
X53340000Y-235966000D03*
X54356000Y-233934000D03*
X52324000Y-233934000D03*
X52324000Y-235966000D03*
X54356000Y-235966000D03*
X95885000Y-233934000D03*
X95885000Y-235966000D03*
X96901000Y-233934000D03*
X94869000Y-233934000D03*
X94869000Y-235966000D03*
X96901000Y-235966000D03*
X126365000Y-233934000D03*
X126365000Y-235966000D03*
X127381000Y-233934000D03*
X125349000Y-233934000D03*
X125349000Y-235966000D03*
X127381000Y-235966000D03*
X136525000Y-233934000D03*
X136525000Y-235966000D03*
X137541000Y-233934000D03*
X135509000Y-233934000D03*
X135509000Y-235966000D03*
X137541000Y-235966000D03*
X167005000Y-233934000D03*
X167005000Y-235966000D03*
X168021000Y-233934000D03*
X165989000Y-233934000D03*
X165989000Y-235966000D03*
X168021000Y-235966000D03*
X209550000Y-233934000D03*
X209550000Y-235966000D03*
X210566000Y-233934000D03*
X208534000Y-233934000D03*
X208534000Y-235966000D03*
X210566000Y-235966000D03*
D13*
X59690000Y-83565000D03*
X59690000Y-80265000D03*
D14*
X66040000Y-81540000D03*
X66040000Y-82290000D03*
X62865000Y-81540000D03*
X62865000Y-82290000D03*
D15*
X200025000Y-69215000D03*
D16*
X200025000Y-58293000D03*
X200025000Y-80137000D03*
D17*
X191135000Y-53975000D03*
D18*
X56515000Y-231775000D03*
D19*
X53975000Y-231775000D03*
D20*
X69647500Y-78307500D03*
X69647500Y-76632500D03*
X71322500Y-78307500D03*
X71322500Y-76632500D03*
D21*
X68985000Y-79920000D03*
X69485000Y-79920000D03*
X69985000Y-79920000D03*
X70485000Y-79920000D03*
X70985000Y-79920000D03*
X71485000Y-79920000D03*
X71985000Y-79920000D03*
D22*
X72935000Y-78970000D03*
X72935000Y-78470000D03*
X72935000Y-77970000D03*
X72935000Y-77470000D03*
X72935000Y-76970000D03*
X72935000Y-76470000D03*
X72935000Y-75970000D03*
D21*
X71985000Y-75020000D03*
X71485000Y-75020000D03*
X70985000Y-75020000D03*
X70485000Y-75020000D03*
X69985000Y-75020000D03*
X69485000Y-75020000D03*
X68985000Y-75020000D03*
D22*
X68035000Y-75970000D03*
X68035000Y-76470000D03*
X68035000Y-76970000D03*
X68035000Y-77470000D03*
X68035000Y-77970000D03*
X68035000Y-78470000D03*
X68035000Y-78970000D03*
D23*
X69850000Y-78105000D03*
X71120000Y-78105000D03*
X71120000Y-76835000D03*
X69850000Y-76835000D03*
X70485000Y-77470000D03*
D24*
X88900000Y-77020000D03*
X88900000Y-77920000D03*
D25*
X91440000Y-76420980D03*
X91440000Y-78519020D03*
D26*
X186260740Y-67945000D03*
X186260740Y-69215000D03*
X186260740Y-70485000D03*
X186260740Y-71755000D03*
X186260740Y-73025000D03*
X186260740Y-74295000D03*
X186260740Y-75565000D03*
X186260740Y-76835000D03*
X176959260Y-76835000D03*
X176959260Y-75565000D03*
X176959260Y-74295000D03*
X176959260Y-73025000D03*
X176959260Y-71755000D03*
X176959260Y-70485000D03*
X176959260Y-69215000D03*
X176959260Y-67945000D03*
D27*
X63119000Y-96520000D03*
X67691000Y-96520000D03*
D28*
X119275000Y-61940000D03*
X128375000Y-61940000D03*
X128375000Y-57440000D03*
X119275000Y-57440000D03*
X104035000Y-61940000D03*
X113135000Y-61940000D03*
X113135000Y-57440000D03*
X104035000Y-57440000D03*
X67415000Y-57440000D03*
X58315000Y-57440000D03*
X58315000Y-61940000D03*
X67415000Y-61940000D03*
X143615000Y-57440000D03*
X134515000Y-57440000D03*
X134515000Y-61940000D03*
X143615000Y-61940000D03*
X88795000Y-61940000D03*
X97895000Y-61940000D03*
X97895000Y-57440000D03*
X88795000Y-57440000D03*
X73555000Y-61940000D03*
X82655000Y-61940000D03*
X82655000Y-57440000D03*
X73555000Y-57440000D03*
D29*
X52355000Y-76470000D03*
D30*
X55055000Y-79970000D03*
D31*
X55055000Y-78120000D03*
X55055000Y-78770000D03*
X55055000Y-76170000D03*
X55055000Y-76820000D03*
X55055000Y-77470000D03*
D30*
X55055000Y-74970000D03*
D29*
X52355000Y-78470000D03*
D32*
X52355000Y-80970000D03*
X52355000Y-73970000D03*
D33*
X52355000Y-74570000D03*
X52355000Y-80370000D03*
D34*
X53975000Y-97472500D03*
X53975000Y-95567500D03*
X56515000Y-97472500D03*
X56515000Y-95567500D03*
X182880000Y-65087500D03*
X182880000Y-63182500D03*
X185420000Y-65087500D03*
X185420000Y-63182500D03*
X177800000Y-65087500D03*
X177800000Y-63182500D03*
X180340000Y-65087500D03*
X180340000Y-63182500D03*
X116205000Y-63817500D03*
X116205000Y-61912500D03*
X100965000Y-63817500D03*
X100965000Y-61912500D03*
D35*
X64452500Y-99695000D03*
X66357500Y-99695000D03*
X197167500Y-99695000D03*
X195262500Y-99695000D03*
X198437500Y-227330000D03*
X196532500Y-227330000D03*
X65722500Y-227330000D03*
X67627500Y-227330000D03*
D27*
X63119000Y-231140000D03*
X67691000Y-231140000D03*
X199771000Y-231140000D03*
X195199000Y-231140000D03*
X199771000Y-96520000D03*
X195199000Y-96520000D03*
D36*
X187325000Y-217170000D03*
X187325000Y-199390000D03*
X187325000Y-181610000D03*
X187325000Y-163830000D03*
X187325000Y-146050000D03*
X187325000Y-128270000D03*
X187325000Y-110490000D03*
X75565000Y-217170000D03*
X75565000Y-199390000D03*
X75565000Y-181610000D03*
X75565000Y-163830000D03*
X75565000Y-146050000D03*
X75565000Y-128270000D03*
X75565000Y-110490000D03*
X202565000Y-199390000D03*
X192405000Y-199390000D03*
X182245000Y-199390000D03*
X172085000Y-199390000D03*
X161925000Y-199390000D03*
X151765000Y-199390000D03*
X141605000Y-199390000D03*
X131445000Y-199390000D03*
X121285000Y-199390000D03*
X111125000Y-199390000D03*
X100965000Y-199390000D03*
X90805000Y-199390000D03*
X80645000Y-199390000D03*
X70485000Y-199390000D03*
X60325000Y-199390000D03*
X202565000Y-128270000D03*
X192405000Y-128270000D03*
X182245000Y-128270000D03*
X172085000Y-128270000D03*
X161925000Y-128270000D03*
X151765000Y-128270000D03*
X141605000Y-128270000D03*
X131445000Y-128270000D03*
X121285000Y-128270000D03*
X111125000Y-128270000D03*
X100965000Y-128270000D03*
X90805000Y-128270000D03*
X80645000Y-128270000D03*
X70485000Y-128270000D03*
X60325000Y-128270000D03*
D37*
X182610000Y-80010000D03*
X180610000Y-80010000D03*
D38*
X90424000Y-71755000D03*
X82296000Y-71755000D03*
X107950000Y-70866000D03*
X107950000Y-78994000D03*
D37*
X124730000Y-78740000D03*
X126730000Y-78740000D03*
X63770000Y-64770000D03*
X65770000Y-64770000D03*
D39*
X131445000Y-55515000D03*
X131445000Y-57515000D03*
D38*
X65024000Y-71755000D03*
X56896000Y-71755000D03*
D37*
X63770000Y-67945000D03*
X65770000Y-67945000D03*
D38*
X69596000Y-71755000D03*
X77724000Y-71755000D03*
D37*
X70850000Y-67945000D03*
X68850000Y-67945000D03*
D38*
X178181000Y-58420000D03*
X186309000Y-58420000D03*
D37*
X183245000Y-53975000D03*
X181245000Y-53975000D03*
D40*
X129525000Y-74615000D03*
X130825000Y-74615000D03*
X130175000Y-76515000D03*
X130175000Y-74615000D03*
X130825000Y-76515000D03*
X129525000Y-76515000D03*
D35*
X126682500Y-75565000D03*
X124777500Y-75565000D03*
D34*
X95250000Y-78422500D03*
X95250000Y-76517500D03*
X55245000Y-61912500D03*
X55245000Y-63817500D03*
X131445000Y-61912500D03*
X131445000Y-63817500D03*
D35*
X138112500Y-81280000D03*
X140017500Y-81280000D03*
X138112500Y-78740000D03*
X140017500Y-78740000D03*
X138112500Y-73025000D03*
X140017500Y-73025000D03*
X133667500Y-75565000D03*
X135572500Y-75565000D03*
X138112500Y-75565000D03*
X140017500Y-75565000D03*
D34*
X85725000Y-63817500D03*
X85725000Y-61912500D03*
X70485000Y-63817500D03*
X70485000Y-61912500D03*
D41*
X100965000Y-70510000D03*
D42*
X100965000Y-76810000D03*
X98665000Y-76810000D03*
X103265000Y-76810000D03*
D43*
X168385000Y-56980000D03*
X168385000Y-58250000D03*
X168385000Y-59520000D03*
X168385000Y-60790000D03*
X168385000Y-62060000D03*
X168385000Y-63330000D03*
X168385000Y-64600000D03*
X168385000Y-65870000D03*
X168385000Y-67140000D03*
X168385000Y-68410000D03*
X168385000Y-69680000D03*
X168385000Y-70950000D03*
X168385000Y-72220000D03*
X168385000Y-73490000D03*
D44*
X165100000Y-74980000D03*
X163830000Y-74980000D03*
X162560000Y-74980000D03*
X161290000Y-74980000D03*
X160020000Y-74980000D03*
X158750000Y-74980000D03*
X157480000Y-74980000D03*
X156210000Y-74980000D03*
X154940000Y-74980000D03*
X153670000Y-74980000D03*
D43*
X150385000Y-73490000D03*
X150385000Y-72220000D03*
X150385000Y-70950000D03*
X150385000Y-69680000D03*
X150385000Y-68410000D03*
X150385000Y-67140000D03*
X150385000Y-65870000D03*
X150385000Y-64600000D03*
X150385000Y-63330000D03*
X150385000Y-62060000D03*
X150385000Y-60790000D03*
X150385000Y-59520000D03*
X150385000Y-58250000D03*
X150385000Y-56980000D03*
D45*
X160085000Y-64380000D03*
D46*
X170885000Y-56980000D03*
X170885000Y-58250000D03*
X170885000Y-59520000D03*
X170885000Y-60790000D03*
X170885000Y-62060000D03*
X170885000Y-63330000D03*
X170885000Y-64600000D03*
X170885000Y-65870000D03*
X170885000Y-67140000D03*
X170885000Y-68410000D03*
X170885000Y-69680000D03*
X170885000Y-70950000D03*
X170885000Y-72220000D03*
X170885000Y-73490000D03*
X147885000Y-58250000D03*
X147885000Y-67140000D03*
X147885000Y-68410000D03*
X147885000Y-60790000D03*
X147885000Y-56980000D03*
X147885000Y-69680000D03*
X147885000Y-63330000D03*
X147885000Y-73490000D03*
X147885000Y-72220000D03*
X147885000Y-65870000D03*
X147885000Y-64600000D03*
X147885000Y-62060000D03*
X147885000Y-70950000D03*
X147885000Y-59520000D03*
D47*
X165100000Y-77480000D03*
X163830000Y-77480000D03*
X162560000Y-77480000D03*
X161290000Y-77480000D03*
X160020000Y-77480000D03*
X157480000Y-77480000D03*
X156210000Y-77480000D03*
X154940000Y-77480000D03*
X153670000Y-77480000D03*
X158750000Y-77480000D03*
M02*
