G04 #@! TF.GenerationSoftware,KiCad,Pcbnew,no-vcs-found-bf44d39~61~ubuntu16.04.1*
G04 #@! TF.CreationDate,2018-01-05T12:00:21+05:30*
G04 #@! TF.ProjectId,chromogram,6368726F6D6F6772616D2E6B69636164,rev?*
G04 #@! TF.SameCoordinates,Original*
G04 #@! TF.FileFunction,Soldermask,Top*
G04 #@! TF.FilePolarity,Negative*
%FSLAX46Y46*%
G04 Gerber Fmt 4.6, Leading zero omitted, Abs format (unit mm)*
G04 Created by KiCad (PCBNEW no-vcs-found-bf44d39~61~ubuntu16.04.1) date Fri Jan  5 12:00:21 2018*
%MOMM*%
%LPD*%
G01*
G04 APERTURE LIST*
%ADD10C,5.200000*%
%ADD11C,0.750000*%
%ADD12C,0.508000*%
%ADD13R,1.600000X1.600000*%
%ADD14R,2.000000X2.000000*%
%ADD15O,2.000000X2.000000*%
%ADD16C,0.800000*%
%ADD17C,2.000000*%
%ADD18R,1.300480X1.498600*%
%ADD19R,1.400000X1.400000*%
%ADD20C,1.450000*%
%ADD21O,1.900000X1.200000*%
%ADD22C,2.082800*%
%ADD23R,1.350000X1.550000*%
%ADD24O,2.000000X1.000000*%
%ADD25O,1.000000X2.000000*%
G04 APERTURE END LIST*
D10*
X95885000Y-88265000D03*
X106045000Y-88265000D03*
X116205000Y-88265000D03*
X167005000Y-88265000D03*
X156845000Y-88265000D03*
X126365000Y-88265000D03*
X146685000Y-88265000D03*
X136525000Y-88265000D03*
X95885000Y-131445000D03*
X106045000Y-131445000D03*
X116205000Y-131445000D03*
X167005000Y-131445000D03*
X156845000Y-131445000D03*
X126365000Y-131445000D03*
X146685000Y-131445000D03*
X136525000Y-131445000D03*
D11*
X53721000Y-86360000D03*
X56769000Y-86360000D03*
X56769000Y-88900000D03*
X53721000Y-88900000D03*
X55245000Y-89662000D03*
X55245000Y-85598000D03*
X53213000Y-87630000D03*
X57277000Y-87630000D03*
D10*
X55245000Y-87630000D03*
D11*
X53721000Y-238760000D03*
X56769000Y-238760000D03*
X56769000Y-241300000D03*
X53721000Y-241300000D03*
X55245000Y-242062000D03*
X55245000Y-237998000D03*
X53213000Y-240030000D03*
X57277000Y-240030000D03*
D10*
X55245000Y-240030000D03*
D11*
X206121000Y-238760000D03*
X209169000Y-238760000D03*
X209169000Y-241300000D03*
X206121000Y-241300000D03*
X207645000Y-242062000D03*
X207645000Y-237998000D03*
X205613000Y-240030000D03*
X209677000Y-240030000D03*
D10*
X207645000Y-240030000D03*
D11*
X94361000Y-147955000D03*
X97409000Y-147955000D03*
X97409000Y-150495000D03*
X94361000Y-150495000D03*
X95885000Y-151257000D03*
X95885000Y-147193000D03*
X93853000Y-149225000D03*
X97917000Y-149225000D03*
D10*
X95885000Y-149225000D03*
D11*
X165481000Y-147955000D03*
X168529000Y-147955000D03*
X168529000Y-150495000D03*
X165481000Y-150495000D03*
X167005000Y-151257000D03*
X167005000Y-147193000D03*
X164973000Y-149225000D03*
X169037000Y-149225000D03*
D10*
X167005000Y-149225000D03*
D11*
X165481000Y-219075000D03*
X168529000Y-219075000D03*
X168529000Y-221615000D03*
X165481000Y-221615000D03*
X167005000Y-222377000D03*
X167005000Y-218313000D03*
X164973000Y-220345000D03*
X169037000Y-220345000D03*
D10*
X167005000Y-220345000D03*
D11*
X94361000Y-219075000D03*
X97409000Y-219075000D03*
X97409000Y-221615000D03*
X94361000Y-221615000D03*
X95885000Y-222377000D03*
X95885000Y-218313000D03*
X93853000Y-220345000D03*
X97917000Y-220345000D03*
D10*
X95885000Y-220345000D03*
D11*
X206121000Y-86360000D03*
X209169000Y-86360000D03*
X209169000Y-88900000D03*
X206121000Y-88900000D03*
X207645000Y-89662000D03*
X207645000Y-85598000D03*
X205613000Y-87630000D03*
X209677000Y-87630000D03*
D10*
X207645000Y-87630000D03*
D11*
X207391000Y-52070000D03*
X210439000Y-52070000D03*
X210439000Y-54610000D03*
X207391000Y-54610000D03*
X208915000Y-55372000D03*
X208915000Y-51308000D03*
X206883000Y-53340000D03*
X210947000Y-53340000D03*
D10*
X208915000Y-53340000D03*
D11*
X52451000Y-52070000D03*
X55499000Y-52070000D03*
X55499000Y-54610000D03*
X52451000Y-54610000D03*
X53975000Y-55372000D03*
X53975000Y-51308000D03*
X51943000Y-53340000D03*
X56007000Y-53340000D03*
D10*
X53975000Y-53340000D03*
D12*
X53975000Y-91694000D03*
X53975000Y-93726000D03*
X54991000Y-91694000D03*
X52959000Y-91694000D03*
X52959000Y-93726000D03*
X54991000Y-93726000D03*
X208915000Y-91694000D03*
X208915000Y-93726000D03*
X209931000Y-91694000D03*
X207899000Y-91694000D03*
X207899000Y-93726000D03*
X209931000Y-93726000D03*
X53340000Y-233934000D03*
X53340000Y-235966000D03*
X54356000Y-233934000D03*
X52324000Y-233934000D03*
X52324000Y-235966000D03*
X54356000Y-235966000D03*
X95885000Y-233934000D03*
X95885000Y-235966000D03*
X96901000Y-233934000D03*
X94869000Y-233934000D03*
X94869000Y-235966000D03*
X96901000Y-235966000D03*
X126365000Y-233934000D03*
X126365000Y-235966000D03*
X127381000Y-233934000D03*
X125349000Y-233934000D03*
X125349000Y-235966000D03*
X127381000Y-235966000D03*
X136525000Y-233934000D03*
X136525000Y-235966000D03*
X137541000Y-233934000D03*
X135509000Y-233934000D03*
X135509000Y-235966000D03*
X137541000Y-235966000D03*
X167005000Y-233934000D03*
X167005000Y-235966000D03*
X168021000Y-233934000D03*
X165989000Y-233934000D03*
X165989000Y-235966000D03*
X168021000Y-235966000D03*
X209550000Y-233934000D03*
X209550000Y-235966000D03*
X210566000Y-233934000D03*
X208534000Y-233934000D03*
X208534000Y-235966000D03*
X210566000Y-235966000D03*
D13*
X191135000Y-53975000D03*
D14*
X56515000Y-231775000D03*
D15*
X53975000Y-231775000D03*
D16*
X69850000Y-78105000D03*
X71120000Y-78105000D03*
X71120000Y-76835000D03*
X69850000Y-76835000D03*
X70485000Y-77470000D03*
D17*
X63119000Y-96520000D03*
X67691000Y-96520000D03*
D18*
X66357500Y-96520000D03*
X64452500Y-96520000D03*
D19*
X63205000Y-227660000D03*
X67605000Y-227660000D03*
X67605000Y-226060000D03*
X63205000Y-226060000D03*
X63205000Y-224460000D03*
X67605000Y-224460000D03*
D20*
X55055000Y-79970000D03*
X55055000Y-74970000D03*
D21*
X52355000Y-80970000D03*
X52355000Y-73970000D03*
D19*
X195285000Y-120980000D03*
X199685000Y-120980000D03*
X199685000Y-119380000D03*
X195285000Y-119380000D03*
X195285000Y-117780000D03*
X199685000Y-117780000D03*
X57445000Y-100000000D03*
X53045000Y-100000000D03*
X53045000Y-101600000D03*
X57445000Y-101600000D03*
X57445000Y-103200000D03*
X53045000Y-103200000D03*
X77765000Y-100000000D03*
X73365000Y-100000000D03*
X73365000Y-101600000D03*
X77765000Y-101600000D03*
X77765000Y-103200000D03*
X73365000Y-103200000D03*
X87925000Y-100000000D03*
X83525000Y-100000000D03*
X83525000Y-101600000D03*
X87925000Y-101600000D03*
X87925000Y-103200000D03*
X83525000Y-103200000D03*
X98085000Y-100000000D03*
X93685000Y-100000000D03*
X93685000Y-101600000D03*
X98085000Y-101600000D03*
X98085000Y-103200000D03*
X93685000Y-103200000D03*
X108245000Y-100000000D03*
X103845000Y-100000000D03*
X103845000Y-101600000D03*
X108245000Y-101600000D03*
X108245000Y-103200000D03*
X103845000Y-103200000D03*
X118405000Y-100000000D03*
X114005000Y-100000000D03*
X114005000Y-101600000D03*
X118405000Y-101600000D03*
X118405000Y-103200000D03*
X114005000Y-103200000D03*
X128565000Y-100000000D03*
X124165000Y-100000000D03*
X124165000Y-101600000D03*
X128565000Y-101600000D03*
X128565000Y-103200000D03*
X124165000Y-103200000D03*
X138725000Y-100000000D03*
X134325000Y-100000000D03*
X134325000Y-101600000D03*
X138725000Y-101600000D03*
X138725000Y-103200000D03*
X134325000Y-103200000D03*
X148885000Y-100000000D03*
X144485000Y-100000000D03*
X144485000Y-101600000D03*
X148885000Y-101600000D03*
X148885000Y-103200000D03*
X144485000Y-103200000D03*
X159045000Y-100000000D03*
X154645000Y-100000000D03*
X154645000Y-101600000D03*
X159045000Y-101600000D03*
X159045000Y-103200000D03*
X154645000Y-103200000D03*
X169205000Y-100000000D03*
X164805000Y-100000000D03*
X164805000Y-101600000D03*
X169205000Y-101600000D03*
X169205000Y-103200000D03*
X164805000Y-103200000D03*
X179365000Y-100000000D03*
X174965000Y-100000000D03*
X174965000Y-101600000D03*
X179365000Y-101600000D03*
X179365000Y-103200000D03*
X174965000Y-103200000D03*
X189525000Y-100000000D03*
X185125000Y-100000000D03*
X185125000Y-101600000D03*
X189525000Y-101600000D03*
X189525000Y-103200000D03*
X185125000Y-103200000D03*
X199685000Y-100000000D03*
X195285000Y-100000000D03*
X195285000Y-101600000D03*
X199685000Y-101600000D03*
X199685000Y-103200000D03*
X195285000Y-103200000D03*
X209845000Y-100000000D03*
X205445000Y-100000000D03*
X205445000Y-101600000D03*
X209845000Y-101600000D03*
X209845000Y-103200000D03*
X205445000Y-103200000D03*
X205445000Y-120980000D03*
X209845000Y-120980000D03*
X209845000Y-119380000D03*
X205445000Y-119380000D03*
X205445000Y-117780000D03*
X209845000Y-117780000D03*
X185125000Y-120980000D03*
X189525000Y-120980000D03*
X189525000Y-119380000D03*
X185125000Y-119380000D03*
X185125000Y-117780000D03*
X189525000Y-117780000D03*
X174965000Y-120980000D03*
X179365000Y-120980000D03*
X179365000Y-119380000D03*
X174965000Y-119380000D03*
X174965000Y-117780000D03*
X179365000Y-117780000D03*
X164805000Y-120980000D03*
X169205000Y-120980000D03*
X169205000Y-119380000D03*
X164805000Y-119380000D03*
X164805000Y-117780000D03*
X169205000Y-117780000D03*
X154645000Y-120980000D03*
X159045000Y-120980000D03*
X159045000Y-119380000D03*
X154645000Y-119380000D03*
X154645000Y-117780000D03*
X159045000Y-117780000D03*
X144485000Y-120980000D03*
X148885000Y-120980000D03*
X148885000Y-119380000D03*
X144485000Y-119380000D03*
X144485000Y-117780000D03*
X148885000Y-117780000D03*
X134325000Y-120980000D03*
X138725000Y-120980000D03*
X138725000Y-119380000D03*
X134325000Y-119380000D03*
X134325000Y-117780000D03*
X138725000Y-117780000D03*
X124165000Y-120980000D03*
X128565000Y-120980000D03*
X128565000Y-119380000D03*
X124165000Y-119380000D03*
X124165000Y-117780000D03*
X128565000Y-117780000D03*
X114005000Y-120980000D03*
X118405000Y-120980000D03*
X118405000Y-119380000D03*
X114005000Y-119380000D03*
X114005000Y-117780000D03*
X118405000Y-117780000D03*
X103845000Y-120980000D03*
X108245000Y-120980000D03*
X108245000Y-119380000D03*
X103845000Y-119380000D03*
X103845000Y-117780000D03*
X108245000Y-117780000D03*
X93685000Y-120980000D03*
X98085000Y-120980000D03*
X98085000Y-119380000D03*
X93685000Y-119380000D03*
X93685000Y-117780000D03*
X98085000Y-117780000D03*
X83525000Y-120980000D03*
X87925000Y-120980000D03*
X87925000Y-119380000D03*
X83525000Y-119380000D03*
X83525000Y-117780000D03*
X87925000Y-117780000D03*
X73365000Y-120980000D03*
X77765000Y-120980000D03*
X77765000Y-119380000D03*
X73365000Y-119380000D03*
X73365000Y-117780000D03*
X77765000Y-117780000D03*
X63205000Y-120980000D03*
X67605000Y-120980000D03*
X67605000Y-119380000D03*
X63205000Y-119380000D03*
X63205000Y-117780000D03*
X67605000Y-117780000D03*
X53045000Y-120980000D03*
X57445000Y-120980000D03*
X57445000Y-119380000D03*
X53045000Y-119380000D03*
X53045000Y-117780000D03*
X57445000Y-117780000D03*
X57445000Y-135560000D03*
X53045000Y-135560000D03*
X53045000Y-137160000D03*
X57445000Y-137160000D03*
X57445000Y-138760000D03*
X53045000Y-138760000D03*
X67605000Y-135560000D03*
X63205000Y-135560000D03*
X63205000Y-137160000D03*
X67605000Y-137160000D03*
X67605000Y-138760000D03*
X63205000Y-138760000D03*
X77765000Y-135560000D03*
X73365000Y-135560000D03*
X73365000Y-137160000D03*
X77765000Y-137160000D03*
X77765000Y-138760000D03*
X73365000Y-138760000D03*
X87925000Y-135560000D03*
X83525000Y-135560000D03*
X83525000Y-137160000D03*
X87925000Y-137160000D03*
X87925000Y-138760000D03*
X83525000Y-138760000D03*
X98085000Y-135560000D03*
X93685000Y-135560000D03*
X93685000Y-137160000D03*
X98085000Y-137160000D03*
X98085000Y-138760000D03*
X93685000Y-138760000D03*
X108245000Y-135560000D03*
X103845000Y-135560000D03*
X103845000Y-137160000D03*
X108245000Y-137160000D03*
X108245000Y-138760000D03*
X103845000Y-138760000D03*
X118405000Y-135560000D03*
X114005000Y-135560000D03*
X114005000Y-137160000D03*
X118405000Y-137160000D03*
X118405000Y-138760000D03*
X114005000Y-138760000D03*
X128565000Y-135560000D03*
X124165000Y-135560000D03*
X124165000Y-137160000D03*
X128565000Y-137160000D03*
X128565000Y-138760000D03*
X124165000Y-138760000D03*
X138725000Y-135560000D03*
X134325000Y-135560000D03*
X134325000Y-137160000D03*
X138725000Y-137160000D03*
X138725000Y-138760000D03*
X134325000Y-138760000D03*
X148885000Y-135560000D03*
X144485000Y-135560000D03*
X144485000Y-137160000D03*
X148885000Y-137160000D03*
X148885000Y-138760000D03*
X144485000Y-138760000D03*
X159045000Y-135560000D03*
X154645000Y-135560000D03*
X154645000Y-137160000D03*
X159045000Y-137160000D03*
X159045000Y-138760000D03*
X154645000Y-138760000D03*
X169205000Y-135560000D03*
X164805000Y-135560000D03*
X164805000Y-137160000D03*
X169205000Y-137160000D03*
X169205000Y-138760000D03*
X164805000Y-138760000D03*
X179365000Y-135560000D03*
X174965000Y-135560000D03*
X174965000Y-137160000D03*
X179365000Y-137160000D03*
X179365000Y-138760000D03*
X174965000Y-138760000D03*
X189525000Y-135560000D03*
X185125000Y-135560000D03*
X185125000Y-137160000D03*
X189525000Y-137160000D03*
X189525000Y-138760000D03*
X185125000Y-138760000D03*
X199685000Y-135560000D03*
X195285000Y-135560000D03*
X195285000Y-137160000D03*
X199685000Y-137160000D03*
X199685000Y-138760000D03*
X195285000Y-138760000D03*
X209845000Y-135560000D03*
X205445000Y-135560000D03*
X205445000Y-137160000D03*
X209845000Y-137160000D03*
X209845000Y-138760000D03*
X205445000Y-138760000D03*
X205445000Y-156540000D03*
X209845000Y-156540000D03*
X209845000Y-154940000D03*
X205445000Y-154940000D03*
X205445000Y-153340000D03*
X209845000Y-153340000D03*
X195285000Y-156540000D03*
X199685000Y-156540000D03*
X199685000Y-154940000D03*
X195285000Y-154940000D03*
X195285000Y-153340000D03*
X199685000Y-153340000D03*
X185125000Y-156540000D03*
X189525000Y-156540000D03*
X189525000Y-154940000D03*
X185125000Y-154940000D03*
X185125000Y-153340000D03*
X189525000Y-153340000D03*
X174965000Y-156540000D03*
X179365000Y-156540000D03*
X179365000Y-154940000D03*
X174965000Y-154940000D03*
X174965000Y-153340000D03*
X179365000Y-153340000D03*
X164805000Y-156540000D03*
X169205000Y-156540000D03*
X169205000Y-154940000D03*
X164805000Y-154940000D03*
X164805000Y-153340000D03*
X169205000Y-153340000D03*
X154645000Y-156540000D03*
X159045000Y-156540000D03*
X159045000Y-154940000D03*
X154645000Y-154940000D03*
X154645000Y-153340000D03*
X159045000Y-153340000D03*
X144485000Y-156540000D03*
X148885000Y-156540000D03*
X148885000Y-154940000D03*
X144485000Y-154940000D03*
X144485000Y-153340000D03*
X148885000Y-153340000D03*
X134325000Y-156540000D03*
X138725000Y-156540000D03*
X138725000Y-154940000D03*
X134325000Y-154940000D03*
X134325000Y-153340000D03*
X138725000Y-153340000D03*
X124165000Y-156540000D03*
X128565000Y-156540000D03*
X128565000Y-154940000D03*
X124165000Y-154940000D03*
X124165000Y-153340000D03*
X128565000Y-153340000D03*
X114005000Y-156540000D03*
X118405000Y-156540000D03*
X118405000Y-154940000D03*
X114005000Y-154940000D03*
X114005000Y-153340000D03*
X118405000Y-153340000D03*
X103845000Y-156540000D03*
X108245000Y-156540000D03*
X108245000Y-154940000D03*
X103845000Y-154940000D03*
X103845000Y-153340000D03*
X108245000Y-153340000D03*
X93685000Y-156540000D03*
X98085000Y-156540000D03*
X98085000Y-154940000D03*
X93685000Y-154940000D03*
X93685000Y-153340000D03*
X98085000Y-153340000D03*
X83525000Y-156540000D03*
X87925000Y-156540000D03*
X87925000Y-154940000D03*
X83525000Y-154940000D03*
X83525000Y-153340000D03*
X87925000Y-153340000D03*
X73365000Y-156540000D03*
X77765000Y-156540000D03*
X77765000Y-154940000D03*
X73365000Y-154940000D03*
X73365000Y-153340000D03*
X77765000Y-153340000D03*
X63205000Y-156540000D03*
X67605000Y-156540000D03*
X67605000Y-154940000D03*
X63205000Y-154940000D03*
X63205000Y-153340000D03*
X67605000Y-153340000D03*
X53045000Y-156540000D03*
X57445000Y-156540000D03*
X57445000Y-154940000D03*
X53045000Y-154940000D03*
X53045000Y-153340000D03*
X57445000Y-153340000D03*
X57445000Y-171120000D03*
X53045000Y-171120000D03*
X53045000Y-172720000D03*
X57445000Y-172720000D03*
X57445000Y-174320000D03*
X53045000Y-174320000D03*
X67605000Y-171120000D03*
X63205000Y-171120000D03*
X63205000Y-172720000D03*
X67605000Y-172720000D03*
X67605000Y-174320000D03*
X63205000Y-174320000D03*
X77765000Y-171120000D03*
X73365000Y-171120000D03*
X73365000Y-172720000D03*
X77765000Y-172720000D03*
X77765000Y-174320000D03*
X73365000Y-174320000D03*
X87925000Y-171120000D03*
X83525000Y-171120000D03*
X83525000Y-172720000D03*
X87925000Y-172720000D03*
X87925000Y-174320000D03*
X83525000Y-174320000D03*
X98085000Y-171120000D03*
X93685000Y-171120000D03*
X93685000Y-172720000D03*
X98085000Y-172720000D03*
X98085000Y-174320000D03*
X93685000Y-174320000D03*
X108245000Y-171120000D03*
X103845000Y-171120000D03*
X103845000Y-172720000D03*
X108245000Y-172720000D03*
X108245000Y-174320000D03*
X103845000Y-174320000D03*
X118405000Y-171120000D03*
X114005000Y-171120000D03*
X114005000Y-172720000D03*
X118405000Y-172720000D03*
X118405000Y-174320000D03*
X114005000Y-174320000D03*
X128565000Y-171120000D03*
X124165000Y-171120000D03*
X124165000Y-172720000D03*
X128565000Y-172720000D03*
X128565000Y-174320000D03*
X124165000Y-174320000D03*
X138725000Y-171120000D03*
X134325000Y-171120000D03*
X134325000Y-172720000D03*
X138725000Y-172720000D03*
X138725000Y-174320000D03*
X134325000Y-174320000D03*
X148885000Y-171120000D03*
X144485000Y-171120000D03*
X144485000Y-172720000D03*
X148885000Y-172720000D03*
X148885000Y-174320000D03*
X144485000Y-174320000D03*
X159045000Y-171120000D03*
X154645000Y-171120000D03*
X154645000Y-172720000D03*
X159045000Y-172720000D03*
X159045000Y-174320000D03*
X154645000Y-174320000D03*
X169205000Y-171120000D03*
X164805000Y-171120000D03*
X164805000Y-172720000D03*
X169205000Y-172720000D03*
X169205000Y-174320000D03*
X164805000Y-174320000D03*
X179365000Y-171120000D03*
X174965000Y-171120000D03*
X174965000Y-172720000D03*
X179365000Y-172720000D03*
X179365000Y-174320000D03*
X174965000Y-174320000D03*
X189525000Y-171120000D03*
X185125000Y-171120000D03*
X185125000Y-172720000D03*
X189525000Y-172720000D03*
X189525000Y-174320000D03*
X185125000Y-174320000D03*
X199685000Y-171120000D03*
X195285000Y-171120000D03*
X195285000Y-172720000D03*
X199685000Y-172720000D03*
X199685000Y-174320000D03*
X195285000Y-174320000D03*
X209845000Y-171120000D03*
X205445000Y-171120000D03*
X205445000Y-172720000D03*
X209845000Y-172720000D03*
X209845000Y-174320000D03*
X205445000Y-174320000D03*
X205445000Y-192100000D03*
X209845000Y-192100000D03*
X209845000Y-190500000D03*
X205445000Y-190500000D03*
X205445000Y-188900000D03*
X209845000Y-188900000D03*
X195285000Y-192100000D03*
X199685000Y-192100000D03*
X199685000Y-190500000D03*
X195285000Y-190500000D03*
X195285000Y-188900000D03*
X199685000Y-188900000D03*
X185125000Y-192100000D03*
X189525000Y-192100000D03*
X189525000Y-190500000D03*
X185125000Y-190500000D03*
X185125000Y-188900000D03*
X189525000Y-188900000D03*
X174965000Y-192100000D03*
X179365000Y-192100000D03*
X179365000Y-190500000D03*
X174965000Y-190500000D03*
X174965000Y-188900000D03*
X179365000Y-188900000D03*
X164805000Y-192100000D03*
X169205000Y-192100000D03*
X169205000Y-190500000D03*
X164805000Y-190500000D03*
X164805000Y-188900000D03*
X169205000Y-188900000D03*
X154645000Y-192100000D03*
X159045000Y-192100000D03*
X159045000Y-190500000D03*
X154645000Y-190500000D03*
X154645000Y-188900000D03*
X159045000Y-188900000D03*
X144485000Y-192100000D03*
X148885000Y-192100000D03*
X148885000Y-190500000D03*
X144485000Y-190500000D03*
X144485000Y-188900000D03*
X148885000Y-188900000D03*
X134325000Y-192100000D03*
X138725000Y-192100000D03*
X138725000Y-190500000D03*
X134325000Y-190500000D03*
X134325000Y-188900000D03*
X138725000Y-188900000D03*
X124165000Y-192100000D03*
X128565000Y-192100000D03*
X128565000Y-190500000D03*
X124165000Y-190500000D03*
X124165000Y-188900000D03*
X128565000Y-188900000D03*
X114005000Y-192100000D03*
X118405000Y-192100000D03*
X118405000Y-190500000D03*
X114005000Y-190500000D03*
X114005000Y-188900000D03*
X118405000Y-188900000D03*
X103845000Y-192100000D03*
X108245000Y-192100000D03*
X108245000Y-190500000D03*
X103845000Y-190500000D03*
X103845000Y-188900000D03*
X108245000Y-188900000D03*
X93685000Y-192100000D03*
X98085000Y-192100000D03*
X98085000Y-190500000D03*
X93685000Y-190500000D03*
X93685000Y-188900000D03*
X98085000Y-188900000D03*
X83525000Y-192100000D03*
X87925000Y-192100000D03*
X87925000Y-190500000D03*
X83525000Y-190500000D03*
X83525000Y-188900000D03*
X87925000Y-188900000D03*
X73365000Y-192100000D03*
X77765000Y-192100000D03*
X77765000Y-190500000D03*
X73365000Y-190500000D03*
X73365000Y-188900000D03*
X77765000Y-188900000D03*
X63205000Y-192100000D03*
X67605000Y-192100000D03*
X67605000Y-190500000D03*
X63205000Y-190500000D03*
X63205000Y-188900000D03*
X67605000Y-188900000D03*
X53045000Y-192100000D03*
X57445000Y-192100000D03*
X57445000Y-190500000D03*
X53045000Y-190500000D03*
X53045000Y-188900000D03*
X57445000Y-188900000D03*
X57445000Y-206680000D03*
X53045000Y-206680000D03*
X53045000Y-208280000D03*
X57445000Y-208280000D03*
X57445000Y-209880000D03*
X53045000Y-209880000D03*
X67605000Y-206680000D03*
X63205000Y-206680000D03*
X63205000Y-208280000D03*
X67605000Y-208280000D03*
X67605000Y-209880000D03*
X63205000Y-209880000D03*
X77765000Y-206680000D03*
X73365000Y-206680000D03*
X73365000Y-208280000D03*
X77765000Y-208280000D03*
X77765000Y-209880000D03*
X73365000Y-209880000D03*
X87925000Y-206680000D03*
X83525000Y-206680000D03*
X83525000Y-208280000D03*
X87925000Y-208280000D03*
X87925000Y-209880000D03*
X83525000Y-209880000D03*
X98085000Y-206680000D03*
X93685000Y-206680000D03*
X93685000Y-208280000D03*
X98085000Y-208280000D03*
X98085000Y-209880000D03*
X93685000Y-209880000D03*
X108245000Y-206680000D03*
X103845000Y-206680000D03*
X103845000Y-208280000D03*
X108245000Y-208280000D03*
X108245000Y-209880000D03*
X103845000Y-209880000D03*
X118405000Y-206680000D03*
X114005000Y-206680000D03*
X114005000Y-208280000D03*
X118405000Y-208280000D03*
X118405000Y-209880000D03*
X114005000Y-209880000D03*
X128565000Y-206680000D03*
X124165000Y-206680000D03*
X124165000Y-208280000D03*
X128565000Y-208280000D03*
X128565000Y-209880000D03*
X124165000Y-209880000D03*
X138725000Y-206680000D03*
X134325000Y-206680000D03*
X134325000Y-208280000D03*
X138725000Y-208280000D03*
X138725000Y-209880000D03*
X134325000Y-209880000D03*
X148885000Y-206680000D03*
X144485000Y-206680000D03*
X144485000Y-208280000D03*
X148885000Y-208280000D03*
X148885000Y-209880000D03*
X144485000Y-209880000D03*
X159045000Y-206680000D03*
X154645000Y-206680000D03*
X154645000Y-208280000D03*
X159045000Y-208280000D03*
X159045000Y-209880000D03*
X154645000Y-209880000D03*
X169205000Y-206680000D03*
X164805000Y-206680000D03*
X164805000Y-208280000D03*
X169205000Y-208280000D03*
X169205000Y-209880000D03*
X164805000Y-209880000D03*
X179365000Y-206680000D03*
X174965000Y-206680000D03*
X174965000Y-208280000D03*
X179365000Y-208280000D03*
X179365000Y-209880000D03*
X174965000Y-209880000D03*
X189525000Y-206680000D03*
X185125000Y-206680000D03*
X185125000Y-208280000D03*
X189525000Y-208280000D03*
X189525000Y-209880000D03*
X185125000Y-209880000D03*
X199685000Y-206680000D03*
X195285000Y-206680000D03*
X195285000Y-208280000D03*
X199685000Y-208280000D03*
X199685000Y-209880000D03*
X195285000Y-209880000D03*
X209845000Y-206680000D03*
X205445000Y-206680000D03*
X205445000Y-208280000D03*
X209845000Y-208280000D03*
X209845000Y-209880000D03*
X205445000Y-209880000D03*
X205445000Y-227660000D03*
X209845000Y-227660000D03*
X209845000Y-226060000D03*
X205445000Y-226060000D03*
X205445000Y-224460000D03*
X209845000Y-224460000D03*
X195285000Y-227660000D03*
X199685000Y-227660000D03*
X199685000Y-226060000D03*
X195285000Y-226060000D03*
X195285000Y-224460000D03*
X199685000Y-224460000D03*
X185125000Y-227660000D03*
X189525000Y-227660000D03*
X189525000Y-226060000D03*
X185125000Y-226060000D03*
X185125000Y-224460000D03*
X189525000Y-224460000D03*
X174965000Y-227660000D03*
X179365000Y-227660000D03*
X179365000Y-226060000D03*
X174965000Y-226060000D03*
X174965000Y-224460000D03*
X179365000Y-224460000D03*
X164805000Y-227660000D03*
X169205000Y-227660000D03*
X169205000Y-226060000D03*
X164805000Y-226060000D03*
X164805000Y-224460000D03*
X169205000Y-224460000D03*
X154645000Y-227660000D03*
X159045000Y-227660000D03*
X159045000Y-226060000D03*
X154645000Y-226060000D03*
X154645000Y-224460000D03*
X159045000Y-224460000D03*
X144485000Y-227660000D03*
X148885000Y-227660000D03*
X148885000Y-226060000D03*
X144485000Y-226060000D03*
X144485000Y-224460000D03*
X148885000Y-224460000D03*
X134325000Y-227660000D03*
X138725000Y-227660000D03*
X138725000Y-226060000D03*
X134325000Y-226060000D03*
X134325000Y-224460000D03*
X138725000Y-224460000D03*
X124165000Y-227660000D03*
X128565000Y-227660000D03*
X128565000Y-226060000D03*
X124165000Y-226060000D03*
X124165000Y-224460000D03*
X128565000Y-224460000D03*
X114005000Y-227660000D03*
X118405000Y-227660000D03*
X118405000Y-226060000D03*
X114005000Y-226060000D03*
X114005000Y-224460000D03*
X118405000Y-224460000D03*
X103845000Y-227660000D03*
X108245000Y-227660000D03*
X108245000Y-226060000D03*
X103845000Y-226060000D03*
X103845000Y-224460000D03*
X108245000Y-224460000D03*
X93685000Y-227660000D03*
X98085000Y-227660000D03*
X98085000Y-226060000D03*
X93685000Y-226060000D03*
X93685000Y-224460000D03*
X98085000Y-224460000D03*
X83525000Y-227660000D03*
X87925000Y-227660000D03*
X87925000Y-226060000D03*
X83525000Y-226060000D03*
X83525000Y-224460000D03*
X87925000Y-224460000D03*
X73365000Y-227660000D03*
X77765000Y-227660000D03*
X77765000Y-226060000D03*
X73365000Y-226060000D03*
X73365000Y-224460000D03*
X77765000Y-224460000D03*
X53045000Y-227660000D03*
X57445000Y-227660000D03*
X57445000Y-226060000D03*
X53045000Y-226060000D03*
X53045000Y-224460000D03*
X57445000Y-224460000D03*
X67605000Y-100000000D03*
X63205000Y-100000000D03*
X63205000Y-101600000D03*
X67605000Y-101600000D03*
X67605000Y-103200000D03*
X63205000Y-103200000D03*
D17*
X63119000Y-231140000D03*
X67691000Y-231140000D03*
D18*
X66357500Y-231140000D03*
X64452500Y-231140000D03*
D17*
X199771000Y-231140000D03*
X195199000Y-231140000D03*
D18*
X196532500Y-231140000D03*
X198437500Y-231140000D03*
D17*
X199771000Y-96520000D03*
X195199000Y-96520000D03*
D18*
X196532500Y-96520000D03*
X198437500Y-96520000D03*
D22*
X187325000Y-217170000D03*
X187325000Y-199390000D03*
X187325000Y-181610000D03*
X187325000Y-163830000D03*
X187325000Y-146050000D03*
X187325000Y-128270000D03*
X187325000Y-110490000D03*
X75565000Y-217170000D03*
X75565000Y-199390000D03*
X75565000Y-181610000D03*
X75565000Y-163830000D03*
X75565000Y-146050000D03*
X75565000Y-128270000D03*
X75565000Y-110490000D03*
X202565000Y-199390000D03*
X192405000Y-199390000D03*
X182245000Y-199390000D03*
X172085000Y-199390000D03*
X161925000Y-199390000D03*
X151765000Y-199390000D03*
X141605000Y-199390000D03*
X131445000Y-199390000D03*
X121285000Y-199390000D03*
X111125000Y-199390000D03*
X100965000Y-199390000D03*
X90805000Y-199390000D03*
X80645000Y-199390000D03*
X70485000Y-199390000D03*
X60325000Y-199390000D03*
X202565000Y-128270000D03*
X192405000Y-128270000D03*
X182245000Y-128270000D03*
X172085000Y-128270000D03*
X161925000Y-128270000D03*
X151765000Y-128270000D03*
X141605000Y-128270000D03*
X131445000Y-128270000D03*
X121285000Y-128270000D03*
X111125000Y-128270000D03*
X100965000Y-128270000D03*
X90805000Y-128270000D03*
X80645000Y-128270000D03*
X70485000Y-128270000D03*
X60325000Y-128270000D03*
D23*
X56245000Y-106680000D03*
X54245000Y-106680000D03*
X137525000Y-106680000D03*
X135525000Y-106680000D03*
X206645000Y-114300000D03*
X208645000Y-114300000D03*
X125365000Y-114300000D03*
X127365000Y-114300000D03*
X56245000Y-142240000D03*
X54245000Y-142240000D03*
X137525000Y-142240000D03*
X135525000Y-142240000D03*
X206645000Y-149860000D03*
X208645000Y-149860000D03*
X125365000Y-149860000D03*
X127365000Y-149860000D03*
X56245000Y-177800000D03*
X54245000Y-177800000D03*
X137525000Y-177800000D03*
X135525000Y-177800000D03*
X206645000Y-185420000D03*
X208645000Y-185420000D03*
X125365000Y-185420000D03*
X127365000Y-185420000D03*
X56245000Y-213360000D03*
X54245000Y-213360000D03*
X137525000Y-213360000D03*
X135525000Y-213360000D03*
X206645000Y-220980000D03*
X208645000Y-220980000D03*
X125365000Y-220980000D03*
X127365000Y-220980000D03*
D24*
X170885000Y-56980000D03*
X170885000Y-58250000D03*
X170885000Y-59520000D03*
X170885000Y-60790000D03*
X170885000Y-62060000D03*
X170885000Y-63330000D03*
X170885000Y-64600000D03*
X170885000Y-65870000D03*
X170885000Y-67140000D03*
X170885000Y-68410000D03*
X170885000Y-69680000D03*
X170885000Y-70950000D03*
X170885000Y-72220000D03*
X170885000Y-73490000D03*
X147885000Y-58250000D03*
X147885000Y-67140000D03*
X147885000Y-68410000D03*
X147885000Y-60790000D03*
X147885000Y-56980000D03*
X147885000Y-69680000D03*
X147885000Y-63330000D03*
X147885000Y-73490000D03*
X147885000Y-72220000D03*
X147885000Y-65870000D03*
X147885000Y-64600000D03*
X147885000Y-62060000D03*
X147885000Y-70950000D03*
X147885000Y-59520000D03*
D25*
X165100000Y-77480000D03*
X163830000Y-77480000D03*
X162560000Y-77480000D03*
X161290000Y-77480000D03*
X160020000Y-77480000D03*
X157480000Y-77480000D03*
X156210000Y-77480000D03*
X154940000Y-77480000D03*
X153670000Y-77480000D03*
X158750000Y-77480000D03*
M02*
