<?xml version="1.0" encoding="UTF-8" standalone="no"?>
<!-- Created with Inkscape (http://www.inkscape.org/) -->

<svg
   xmlns:ooo="http://xml.openoffice.org/svg/export"
   xmlns:dc="http://purl.org/dc/elements/1.1/"
   xmlns:cc="http://creativecommons.org/ns#"
   xmlns:rdf="http://www.w3.org/1999/02/22-rdf-syntax-ns#"
   xmlns:svg="http://www.w3.org/2000/svg"
   xmlns="http://www.w3.org/2000/svg"
   xmlns:sodipodi="http://sodipodi.sourceforge.net/DTD/sodipodi-0.dtd"
   xmlns:inkscape="http://www.inkscape.org/namespaces/inkscape"
   width="445.80157mm"
   height="148.58698mm"
   viewBox="0 0 445.80158 148.58698"
   version="1.1"
   id="svg8"
   inkscape:version="0.92.2 (unknown)"
   sodipodi:docname="desk_klok_FlexBox_side.svg">
  <sodipodi:namedview
     id="base"
     pagecolor="#ffffff"
     bordercolor="#666666"
     borderopacity="1.0"
     inkscape:pageopacity="0.0"
     inkscape:pageshadow="2"
     inkscape:zoom="0.49497475"
     inkscape:cx="800.40452"
     inkscape:cy="7.262159"
     inkscape:document-units="mm"
     inkscape:current-layer="g6132"
     showgrid="false"
     inkscape:window-width="1920"
     inkscape:window-height="1050"
     inkscape:window-x="0"
     inkscape:window-y="30"
     inkscape:window-maximized="1"
     fit-margin-top="0"
     fit-margin-left="0"
     fit-margin-right="0"
     fit-margin-bottom="0"
     showguides="true"
     inkscape:guide-bbox="true"
     inkscape:measure-start="713.749,527.592"
     inkscape:measure-end="736.426,527.592" />
  <defs
     id="defs2">
    <radialGradient
       id="radialGradient3661"
       gradientUnits="userSpaceOnUse"
       cy="29.149"
       cx="282.64999"
       gradientTransform="matrix(0.14777,0.23089,-0.2468,0.15795,-26.318,-62.617)"
       r="19.570999">
      <stop
         stop-color="#71b2f8"
         offset="0"
         id="stop13849" />
      <stop
         stop-color="#002795"
         offset="1"
         id="stop13851" />
    </radialGradient>
    <radialGradient
       id="radialGradient3817"
       gradientUnits="userSpaceOnUse"
       cy="33.900002"
       cx="270.57999"
       gradientTransform="matrix(0.26631,0.065024,-0.17931,0.73438,-60.668,-36.938)"
       r="19.570999">
      <stop
         stop-color="#ff6d0f"
         offset="0"
         id="stop13854" />
      <stop
         stop-color="#ff1000"
         offset="1"
         id="stop13856" />
    </radialGradient>
    <radialGradient
       id="radialGradient3661-5"
       gradientUnits="userSpaceOnUse"
       cy="29.149"
       cx="282.64999"
       gradientTransform="matrix(0.14777,0.23089,-0.2468,0.15795,-26.318,-62.617)"
       r="19.570999">
      <stop
         stop-color="#71b2f8"
         offset="0"
         id="stop14016" />
      <stop
         stop-color="#002795"
         offset="1"
         id="stop14018" />
    </radialGradient>
    <radialGradient
       id="radialGradient3817-9"
       gradientUnits="userSpaceOnUse"
       cy="33.900002"
       cx="270.57999"
       gradientTransform="matrix(0.26631,0.065024,-0.17931,0.73438,-60.668,-36.938)"
       r="19.570999">
      <stop
         stop-color="#ff6d0f"
         offset="0"
         id="stop14021" />
      <stop
         stop-color="#ff1000"
         offset="1"
         id="stop14023" />
    </radialGradient>
    <clipPath
       id="presentation_clip_path"
       clipPathUnits="userSpaceOnUse">
      <rect
         x="1363"
         y="1363"
         width="12218"
         height="6122"
         id="rect23949" />
    </clipPath>
    <g
       ooo:slide="id1"
       ooo:id-list="id3 id4 id5 id6 id7 id8 id9 id10 id11 id12 id13 id14 id15 id16 id17 id18 id19 id20 id21 id22 id23 id24 id25 id26 id27 id28 id29 id30 id31 id32 id33 id34 id35 id36 id37 id38 id39 id40 id41 id42 id43 id44 id45 id46 id47 id48 id49 id50 id51 id52 id53 id54 id55 id56 id57 id58 id59 id60 id61 id62 id63 id64 id65 id66 id67 id68 id69 id70 id71 id72 id73 id74 id75 id76 id77 id78 id79 id80 id81 id82 id83 id84 id85 id86 id87 id88 id89 id90 id91 id92 id93 id94 id95 id96 id97 id98 id99 id100 id101 id102 id103 id104 id105 id106 id107 id108 id109 id110 id111 id112 id113 id114 id115 id116 id117 id118 id119 id120 id121 id122 id123 id124 id125 id126 id127 id128 id129 id130 id131 id132 id133 id134 id135 id136 id137 id138 id139 id140 id141 id142 id143 id144 id145 id146 id147 id148 id149 id150 id151 id152 id153 id154 id155 id156 id157 id158 id159 id160 id161 id162 id163 id164 id165 id166 id167 id168 id169 id170 id171 id172 id173 id174 id175 id176 id177 id178 id179 id180 id181 id182 id183 id184 id185 id186 id187 id188 id189 id190 id191 id192 id193 id194 id195 id196 id197 id198 id199 id200 id201 id202 id203 id204 id205 id206 id207 id208 id209 id210 id211 id212 id213 id214 id215 id216 id217 id218 id219 id220 id221 id222 id223 id224 id225 id226 id227 id228 id229 id230 id231 id232 id233 id234 id235 id236 id237 id238 id239 id240 id241 id242 id243 id244 id245 id246 id247 id248 id249 id250 id251 id252 id253 id254 id255 id256 id257 id258"
       id="g23954" />
    <g
       id="bullet-char-template(57356)"
       transform="scale(0.00048828125,-0.00048828125)">
      <path
         d="M 580,1141 L 1163,571 580,0 -4,571 580,1141 Z"
         id="path23958" />
    </g>
    <g
       id="bullet-char-template(57354)"
       transform="scale(0.00048828125,-0.00048828125)">
      <path
         d="M 8,1128 L 1137,1128 1137,0 8,0 8,1128 Z"
         id="path23961" />
    </g>
    <g
       id="bullet-char-template(10146)"
       transform="scale(0.00048828125,-0.00048828125)">
      <path
         d="M 174,0 L 602,739 174,1481 1456,739 174,0 Z M 1358,739 L 309,1346 659,739 1358,739 Z"
         id="path23964" />
    </g>
    <g
       id="bullet-char-template(10132)"
       transform="scale(0.00048828125,-0.00048828125)">
      <path
         d="M 2015,739 L 1276,0 717,0 1260,543 174,543 174,936 1260,936 717,1481 1274,1481 2015,739 Z"
         id="path23967" />
    </g>
    <g
       id="bullet-char-template(10007)"
       transform="scale(0.00048828125,-0.00048828125)">
      <path
         d="M 0,-2 C -7,14 -16,27 -25,37 L 356,567 C 262,823 215,952 215,954 215,979 228,992 255,992 264,992 276,990 289,987 310,991 331,999 354,1012 L 381,999 492,748 772,1049 836,1024 860,1049 C 881,1039 901,1025 922,1006 886,937 835,863 770,784 769,783 710,716 594,584 L 774,223 C 774,196 753,168 711,139 L 727,119 C 717,90 699,76 672,76 641,76 570,178 457,381 L 164,-76 C 142,-110 111,-127 72,-127 30,-127 9,-110 8,-76 1,-67 -2,-52 -2,-32 -2,-23 -1,-13 0,-2 Z"
         id="path23970" />
    </g>
    <g
       id="bullet-char-template(10004)"
       transform="scale(0.00048828125,-0.00048828125)">
      <path
         d="M 285,-33 C 182,-33 111,30 74,156 52,228 41,333 41,471 41,549 55,616 82,672 116,743 169,778 240,778 293,778 328,747 346,684 L 369,508 C 377,444 397,411 428,410 L 1163,1116 C 1174,1127 1196,1133 1229,1133 1271,1133 1292,1118 1292,1087 L 1292,965 C 1292,929 1282,901 1262,881 L 442,47 C 390,-6 338,-33 285,-33 Z"
         id="path23973" />
    </g>
    <g
       id="bullet-char-template(9679)"
       transform="scale(0.00048828125,-0.00048828125)">
      <path
         d="M 813,0 C 632,0 489,54 383,161 276,268 223,411 223,592 223,773 276,916 383,1023 489,1130 632,1184 813,1184 992,1184 1136,1130 1245,1023 1353,916 1407,772 1407,592 1407,412 1353,268 1245,161 1136,54 992,0 813,0 Z"
         id="path23976" />
    </g>
    <g
       id="bullet-char-template(8226)"
       transform="scale(0.00048828125,-0.00048828125)">
      <path
         d="M 346,457 C 273,457 209,483 155,535 101,586 74,649 74,723 74,796 101,859 155,911 209,963 273,989 346,989 419,989 480,963 531,910 582,859 608,796 608,723 608,648 583,586 532,535 482,483 420,457 346,457 Z"
         id="path23979" />
    </g>
    <g
       id="bullet-char-template(8211)"
       transform="scale(0.00048828125,-0.00048828125)">
      <path
         d="M -4,459 L 1135,459 1135,606 -4,606 -4,459 Z"
         id="path23982" />
    </g>
    <clipPath
       id="presentation_clip_path-6"
       clipPathUnits="userSpaceOnUse">
      <rect
         x="0"
         y="0"
         width="21000"
         height="29700"
         id="rect29413" />
    </clipPath>
    <g
       ooo:slide="id1"
       ooo:id-list="id3 id4 id5 id6 id7 id8 id9 id10 id11 id12 id13 id14 id15 id16 id17 id18 id19 id20 id21 id22 id23 id24 id25 id26 id27 id28 id29 id30 id31 id32 id33 id34 id35 id36 id37 id38 id39 id40 id41 id42 id43 id44 id45 id46 id47 id48 id49 id50 id51 id52 id53 id54 id55 id56 id57 id58 id59 id60 id61 id62 id63 id64 id65 id66 id67 id68 id69 id70 id71 id72 id73 id74 id75 id76 id77 id78 id79 id80 id81 id82 id83 id84 id85 id86 id87 id88 id89 id90 id91 id92 id93 id94 id95 id96 id97 id98 id99 id100 id101 id102 id103 id104 id105 id106 id107 id108 id109 id110 id111 id112 id113 id114 id115 id116 id117 id118 id119 id120 id121 id122 id123 id124 id125 id126 id127 id128 id129 id130 id131 id132 id133 id134 id135 id136 id137 id138 id139 id140 id141 id142 id143 id144 id145 id146 id147 id148 id149 id150 id151 id152 id153 id154 id155 id156 id157 id158 id159 id160 id161 id162 id163 id164 id165 id166 id167 id168 id169 id170 id171 id172 id173 id174 id175 id176 id177 id178 id179 id180 id181 id182 id183 id184 id185 id186 id187 id188 id189 id190 id191 id192 id193 id194 id195 id196 id197 id198 id199 id200 id201 id202 id203 id204 id205 id206 id207 id208 id209 id210 id211 id212 id213 id214 id215 id216 id217 id218 id219 id220 id221 id222 id223 id224 id225 id226 id227 id228 id229 id230 id231 id232 id233 id234 id235 id236 id237 id238 id239 id240 id241 id242 id243 id244 id245 id246 id247 id248 id249 id250 id251 id252 id253 id254 id255 id256 id257 id258 id259"
       id="g29418" />
    <g
       id="bullet-char-template(57356)-2"
       transform="scale(0.00048828125,-0.00048828125)">
      <path
         d="M 580,1141 L 1163,571 580,0 -4,571 580,1141 Z"
         id="path29422" />
    </g>
    <g
       id="bullet-char-template(57354)-1"
       transform="scale(0.00048828125,-0.00048828125)">
      <path
         d="M 8,1128 L 1137,1128 1137,0 8,0 8,1128 Z"
         id="path29425" />
    </g>
    <g
       id="bullet-char-template(10146)-7"
       transform="scale(0.00048828125,-0.00048828125)">
      <path
         d="M 174,0 L 602,739 174,1481 1456,739 174,0 Z M 1358,739 L 309,1346 659,739 1358,739 Z"
         id="path29428" />
    </g>
    <g
       id="bullet-char-template(10132)-8"
       transform="scale(0.00048828125,-0.00048828125)">
      <path
         d="M 2015,739 L 1276,0 717,0 1260,543 174,543 174,936 1260,936 717,1481 1274,1481 2015,739 Z"
         id="path29431" />
    </g>
    <g
       id="bullet-char-template(10007)-5"
       transform="scale(0.00048828125,-0.00048828125)">
      <path
         d="M 0,-2 C -7,14 -16,27 -25,37 L 356,567 C 262,823 215,952 215,954 215,979 228,992 255,992 264,992 276,990 289,987 310,991 331,999 354,1012 L 381,999 492,748 772,1049 836,1024 860,1049 C 881,1039 901,1025 922,1006 886,937 835,863 770,784 769,783 710,716 594,584 L 774,223 C 774,196 753,168 711,139 L 727,119 C 717,90 699,76 672,76 641,76 570,178 457,381 L 164,-76 C 142,-110 111,-127 72,-127 30,-127 9,-110 8,-76 1,-67 -2,-52 -2,-32 -2,-23 -1,-13 0,-2 Z"
         id="path29434" />
    </g>
    <g
       id="bullet-char-template(10004)-7"
       transform="scale(0.00048828125,-0.00048828125)">
      <path
         d="M 285,-33 C 182,-33 111,30 74,156 52,228 41,333 41,471 41,549 55,616 82,672 116,743 169,778 240,778 293,778 328,747 346,684 L 369,508 C 377,444 397,411 428,410 L 1163,1116 C 1174,1127 1196,1133 1229,1133 1271,1133 1292,1118 1292,1087 L 1292,965 C 1292,929 1282,901 1262,881 L 442,47 C 390,-6 338,-33 285,-33 Z"
         id="path29437" />
    </g>
    <g
       id="bullet-char-template(9679)-4"
       transform="scale(0.00048828125,-0.00048828125)">
      <path
         d="M 813,0 C 632,0 489,54 383,161 276,268 223,411 223,592 223,773 276,916 383,1023 489,1130 632,1184 813,1184 992,1184 1136,1130 1245,1023 1353,916 1407,772 1407,592 1407,412 1353,268 1245,161 1136,54 992,0 813,0 Z"
         id="path29440" />
    </g>
    <g
       id="bullet-char-template(8226)-1"
       transform="scale(0.00048828125,-0.00048828125)">
      <path
         d="M 346,457 C 273,457 209,483 155,535 101,586 74,649 74,723 74,796 101,859 155,911 209,963 273,989 346,989 419,989 480,963 531,910 582,859 608,796 608,723 608,648 583,586 532,535 482,483 420,457 346,457 Z"
         id="path29443" />
    </g>
    <g
       id="bullet-char-template(8211)-8"
       transform="scale(0.00048828125,-0.00048828125)">
      <path
         d="M -4,459 L 1135,459 1135,606 -4,606 -4,459 Z"
         id="path29446" />
    </g>
    <radialGradient
       id="radialGradient3661-59"
       gradientUnits="userSpaceOnUse"
       cy="29.149"
       cx="282.64999"
       gradientTransform="matrix(0.14777,0.23089,-0.2468,0.15795,-26.318,-62.617)"
       r="19.570999">
      <stop
         stop-color="#71b2f8"
         offset="0"
         id="stop2" />
      <stop
         stop-color="#002795"
         offset="1"
         id="stop4" />
    </radialGradient>
    <radialGradient
       id="radialGradient3817-7"
       gradientUnits="userSpaceOnUse"
       cy="33.900002"
       cx="270.57999"
       gradientTransform="matrix(0.26631,0.065024,-0.17931,0.73438,-60.668,-36.938)"
       r="19.570999">
      <stop
         stop-color="#ff6d0f"
         offset="0"
         id="stop7" />
      <stop
         stop-color="#ff1000"
         offset="1"
         id="stop9" />
    </radialGradient>
    <marker
       inkscape:stockid="Arrow1Lstart"
       style="overflow:visible"
       refY="0.0"
       refX="0.0"
       orient="auto"
       id="Arrow1Lstart">
      <path
         id="path6106"
         style="fill-rule:evenodd;stroke:#000000;stroke-width:1.0pt;marker-start:none"
         transform="scale(0.8) translate(12.5,0)"
         d="M 0.0,0.0 L 5.0,-5.0 L -12.5,0.0 L 5.0,5.0 L 0.0,0.0 z " />
    </marker>
    <marker
       inkscape:stockid="Arrow1Lend"
       style="overflow:visible"
       refY="0.0"
       refX="0.0"
       orient="auto"
       id="Arrow1Lend">
      <path
         id="path6109"
         style="fill-rule:evenodd;stroke:#000000;stroke-width:1.0pt;marker-start:none"
         transform="scale(0.8) rotate(180) translate(12.5,0)"
         d="M 0.0,0.0 L 5.0,-5.0 L -12.5,0.0 L 5.0,5.0 L 0.0,0.0 z " />
    </marker>
  </defs>
  <metadata
     id="metadata5">
    <rdf:RDF>
      <cc:Work
         rdf:about="">
        <dc:format>image/svg+xml</dc:format>
        <dc:type
           rdf:resource="http://purl.org/dc/dcmitype/StillImage" />
        <dc:title />
      </cc:Work>
    </rdf:RDF>
  </metadata>
  <g
     transform="translate(-2.7984361,-146.26308)"
     inkscape:label="Layer 1"
     inkscape:groupmode="layer"
     id="layer1">
    <g
       id="Shape2DView"
       transform="scale(0.26458333,-0.26458333)">
      <title
         id="title13583">Shape2DView</title>
    </g>
  </g>
  <g
     transform="translate(1.0014901e-6,-52.956832)"
     id="g14159">
    <g
       id="g15503">
      <g
         id="g6132"
         stroke="black"
         fill="none">
        <path
           id="path6117"
           stroke-width="0.264583333328"
           marker-end="url(#Arrow1Lend)"
           marker-start="url(#Arrow1Lstart)"
           d="M 0.099999 142.409933 H 445.701560"
           style="fill:#ff0000;fill-opacity:1;stroke:#ff0000;stroke-opacity:1" />
        <path
           id="path6119"
           d="m 0.099999,131.70182 v 20"
           inkscape:connector-curvature="0"
           style="stroke-width:0.06959681;fill:#ff0000;fill-opacity:1;stroke:#ff0000;stroke-opacity:1" />
        <path
           id="path6121"
           d="m 445.70156,131.70182 v 20"
           inkscape:connector-curvature="0"
           style="stroke-width:0.06959681;fill:#ff0000;fill-opacity:1;stroke:#ff0000;stroke-opacity:1" />
        <g
           id="g36533">
          <path
             id="path14595"
             style="fill:none;stroke:#000000;stroke-width:0.2;stroke-linecap:butt;stroke-linejoin:miter;stroke-miterlimit:4;stroke-dasharray:none;stroke-opacity:1"
             d="m 0.099999,156.4907 v 44.1015 c 0,0.055 0.043,0.1016 0.10156,0.1016 m 9.94922,-44.3047 h -9.94922 c -0.0547,0 -0.10156,0.043 -0.10156,0.1016 m 10.15235,3 v -3 c 0,-0.055 -0.043,-0.1016 -0.10157,-0.1016 m 6,3 h -6 c 0.0547,0 0.10157,0.043 0.10157,0.1016 m 5.79687,-3 v 3 c 0,-0.055 0.043,-0.1016 0.10156,-0.1016 m 0,-3 c -0.0547,0 -0.10156,0.043 -0.10156,0.1016 m 6.10156,-0.1016 h -6 m 6.10157,3.1016 v -3 c 0,-0.055 -0.043,-0.1016 -0.10157,-0.1016 m 6,3 h -6 c 0.0547,0 0.10157,0.043 0.10157,0.1016 m 5.79687,-3 v 3 c 0,-0.055 0.043,-0.1016 0.10156,-0.1016 m 0,-3 c -0.0547,0 -0.10156,0.043 -0.10156,0.1016 m 6.10156,-0.1016 h -6 m 6.10157,3.1016 v -3 c 0,-0.055 -0.043,-0.1016 -0.10157,-0.1016 m 6,3 h -6 c 0.0547,0 0.10157,0.043 0.10157,0.1016 m 5.79687,-3 v 3 c 0,-0.055 0.043,-0.1016 0.10156,-0.1016 m 0,-3 c -0.0547,0 -0.10156,0.043 -0.10156,0.1016 m 6.10156,-0.1016 h -6 m 6.10157,3.1016 v -3 c 0,-0.055 -0.043,-0.1016 -0.10157,-0.1016 m 6,3 h -6 c 0.0547,0 0.10157,0.043 0.10157,0.1016 m 5.79687,-3 v 3 c 0,-0.055 0.043,-0.1016 0.10156,-0.1016 m 0,-3 c -0.0547,0 -0.10156,0.043 -0.10156,0.1016 m 6.10156,-0.1016 h -6 m 6.10156,3.1016 v -3 c 0,-0.055 -0.043,-0.1016 -0.10156,-0.1016 m 6,3 h -6 c 0.0547,0 0.10156,0.043 0.10156,0.1016 m 5.79688,-3 v 3 c 0,-0.055 0.043,-0.1016 0.10156,-0.1016 m 0,-3 c -0.0547,0 -0.10156,0.043 -0.10156,0.1016 m 6.10156,-0.1016 h -6 m 6.10156,3.1016 v -3 c 0,-0.055 -0.043,-0.1016 -0.10156,-0.1016 m 6,3 h -6 c 0.0547,0 0.10156,0.043 0.10156,0.1016 m 5.79688,-3 v 3 c 0,-0.055 0.043,-0.1016 0.10156,-0.1016 m 0,-3 c -0.0547,0 -0.10156,0.043 -0.10156,0.1016 m 6.10156,-0.1016 h -6 m 6.10156,3.1016 v -3 c 0,-0.055 -0.043,-0.1016 -0.10156,-0.1016 m 6.000003,3 h -6.000003 c 0.0547,0 0.10156,0.043 0.10156,0.1016 m 5.79688,-3 v 3 c 0,-0.055 0.04297,-0.1016 0.101563,-0.1016 m 0,-3 c -0.05469,0 -0.101563,0.043 -0.101563,0.1016 M 98.1,156.3891 h -9.949218 m 29.898438,0 H 98.1 m 29.39844,0 h -9.44922 m 9.55078,3.1016 v -3 c 0,-0.055 -0.043,-0.1016 -0.10156,-0.1016 m 6,3 h -6 c 0.0547,0 0.10156,0.043 0.10156,0.1016 m 5.79688,-3 v 3 c 0,-0.055 0.043,-0.1016 0.10156,-0.1016 m 0,-3 c -0.0547,0 -0.10156,0.043 -0.10156,0.1016 m 6.10156,-0.1016 h -6 m 6.10156,3.1016 v -3 c 0,-0.055 -0.043,-0.1016 -0.10156,-0.1016 m 6,3 h -6 c 0.0547,0 0.10156,0.043 0.10156,0.1016 m 5.79688,-3 v 3 c 0,-0.055 0.043,-0.1016 0.10156,-0.1016 m 0,-3 c -0.0547,0 -0.10156,0.043 -0.10156,0.1016 m 6.10156,-0.1016 h -6 m 6.10156,3.1016 v -3 c 0,-0.055 -0.043,-0.1016 -0.10156,-0.1016 m 6,3 h -6 c 0.0547,0 0.10156,0.043 0.10156,0.1016 m 5.79688,-3 v 3 c 0,-0.055 0.043,-0.1016 0.10156,-0.1016 m 0,-3 c -0.0547,0 -0.10156,0.043 -0.10156,0.1016 m 6.10156,-0.1016 h -6 m 6.10156,3.1016 v -3 c 0,-0.055 -0.043,-0.1016 -0.10156,-0.1016 m 6,3 h -6 c 0.0547,0 0.10156,0.043 0.10156,0.1016 m 5.79688,-3 v 3 c 0,-0.055 0.043,-0.1016 0.10156,-0.1016 m 0,-3 c -0.0547,0 -0.10156,0.043 -0.10156,0.1016 m 9.55078,-0.1016 h -9.44922 m 29.39844,0 h -19.94922 m 29.89843,0 h -9.94921 m 10.05078,3.1016 v -3 c 0,-0.055 -0.043,-0.1016 -0.10157,-0.1016 m 6,3 h -6 c 0.0547,0 0.10157,0.043 0.10157,0.1016 m 5.79687,-3 v 3 c 0,-0.055 0.043,-0.1016 0.10156,-0.1016 m 0,-3 c -0.0547,0 -0.10156,0.043 -0.10156,0.1016 m 6.10156,-0.1016 h -6 m 6.10157,3.1016 v -3 c 0,-0.055 -0.043,-0.1016 -0.10157,-0.1016 m 6,3 h -6 c 0.0547,0 0.10157,0.043 0.10157,0.1016 m 5.79687,-3 v 3 c 0,-0.055 0.043,-0.1016 0.10156,-0.1016 m 0,-3 c -0.0547,0 -0.10156,0.043 -0.10156,0.1016 m 6.10156,-0.1016 h -6 m 6.10157,3.1016 v -3 c 0,-0.055 -0.043,-0.1016 -0.10157,-0.1016 m 6,3 h -6 c 0.0547,0 0.10157,0.043 0.10157,0.1016 m 5.79687,-3 v 3 c 0,-0.055 0.043,-0.1016 0.10156,-0.1016 m 0,-3 c -0.0547,0 -0.10156,0.043 -0.10156,0.1016 m 6.10156,-0.1016 h -6 m 6.10157,3.1016 v -3 c 0,-0.055 -0.043,-0.1016 -0.10157,-0.1016 m 6,3 h -6 c 0.0547,0 0.10157,0.043 0.10157,0.1016 m 5.79687,-3 v 3 c 0,-0.055 0.043,-0.1016 0.10156,-0.1016 m 0,-3 c -0.0547,0 -0.10156,0.043 -0.10156,0.1016 m 6.10156,-0.1016 h -6 m 6.10157,3.1016 v -3 c 0,-0.055 -0.043,-0.1016 -0.10157,-0.1016 m 6,3 h -6 c 0.0547,0 0.10157,0.043 0.10157,0.1016 m 5.79687,-3 v 3 c 0,-0.055 0.043,-0.1016 0.10156,-0.1016 m 0,-3 c -0.0547,0 -0.10156,0.043 -0.10156,0.1016 m 6.10156,-0.1016 h -6 m 6.10157,3.1016 v -3 c 0,-0.055 -0.043,-0.1016 -0.10157,-0.1016 m 6,3 h -6 c 0.0547,0 0.10157,0.043 0.10157,0.1016 m 5.79687,-3 v 3 c 0,-0.055 0.043,-0.1016 0.10156,-0.1016 m 0,-3 c -0.0547,0 -0.10156,0.043 -0.10156,0.1016 m 6.10156,-0.1016 h -6 m 6.10157,3.1016 v -3 c 0,-0.055 -0.043,-0.1016 -0.10157,-0.1016 m 6,3 h -6 c 0.0547,0 0.10157,0.043 0.10157,0.1016 m 5.79687,-3 v 3 c 0,-0.055 0.043,-0.1016 0.10156,-0.1016 m 0,-3 c -0.0547,0 -0.10156,0.043 -0.10156,0.1016 m 6.10156,-0.1016 h -6 m 6.10157,3.1016 v -3 c 0,-0.055 -0.043,-0.1016 -0.10157,-0.1016 m 6,3 h -6 c 0.0547,0 0.10157,0.043 0.10157,0.1016 m 5.79687,-3 v 3 c 0,-0.055 0.043,-0.1016 0.10156,-0.1016 m 0,-3 c -0.0547,0 -0.10156,0.043 -0.10156,0.1016 m 6.10156,-0.1016 h -6 m 6.10157,3.1016 v -3 c 0,-0.055 -0.043,-0.1016 -0.10157,-0.1016 m 6,3 h -6 c 0.0547,0 0.10157,0.043 0.10157,0.1016 m 5.79687,-3 v 3 c 0,-0.055 0.043,-0.1016 0.10156,-0.1016 m 0,-3 c -0.0547,0 -0.10156,0.043 -0.10156,0.1016 m 10.05078,-0.1016 h -9.94922 m 29.89844,0 h -19.94922 m 80.84766,0 h -60.89844 m 80.84766,0 h -19.94922 m 20.05078,3.4024 v -3.3008 c 0,-0.055 -0.043,-0.1016 -0.10156,-0.1016 m 12.60156,3.3008 h -12.60156 c 0.0547,0 0.10156,0.043 0.10156,0.1016 m 12.39844,-3.3008 v 3.3008 c 0,-0.055 0.043,-0.1016 0.10156,-0.1016 m 11.50781,40.9023 v -44.1015 c 0,-0.4688 -0.3789,-0.8516 -0.85156,-0.8516 -0.39844,0 -0.71875,0.3203 -0.71875,0.7188 0,0.6914 -1.03906,0.6914 -1.03906,0 0,-0.3985 -0.32031,-0.7188 -0.71875,-0.7188 -0.39844,0 -0.71875,0.3203 -0.71875,0.7188 0,0.6914 -1.03906,0.6914 -1.03906,0 0,-0.3985 -0.32032,-0.7188 -0.71875,-0.7188 -0.39844,0 -0.71875,0.3203 -0.71875,0.7188 0,0.6914 -1.03907,0.6914 -1.03907,0 0,-0.3985 -0.32031,-0.7188 -0.71875,-0.7188 -0.39843,0 -0.71875,0.3203 -0.71875,0.7188 0,0.6914 -1.03906,0.6914 -1.03906,0 0,-0.3985 -0.32031,-0.7188 -0.71875,-0.7188 -0.46875,0 -0.85156,0.3789 -0.85156,0.8516 m 0,40.8008 v 3.3007 c 0,0.4688 0.3789,0.8516 0.85156,0.8516 0.39844,0 0.71875,-0.3203 0.71875,-0.7188 0,-0.6914 1.03906,-0.6914 1.03906,0 0,0.3985 0.32032,0.7188 0.71875,0.7188 0.39844,0 0.71875,-0.3203 0.71875,-0.7188 0,-0.6914 1.03907,-0.6914 1.03907,0 0,0.3985 0.32031,0.7188 0.71875,0.7188 0.39843,0 0.71875,-0.3203 0.71875,-0.7188 0,-0.6914 1.03906,-0.6914 1.03906,0 0,0.3985 0.32031,0.7188 0.71875,0.7188 0.39844,0 0.71875,-0.3203 0.71875,-0.7188 0,-0.6914 1.03906,-0.6914 1.03906,0 0,0.3985 0.32031,0.7188 0.71875,0.7188 0.46875,0 0.85156,-0.3789 0.85156,-0.8516 m -24.10937,-3.1992 h 12.60156 c -0.0547,0 -0.10156,-0.043 -0.10156,-0.1015 m -12.39844,3.3007 v -3.3007 c 0,0.055 -0.043,0.1015 -0.10156,0.1015 m -19.94922,3.3008 h 19.94922 c 0.0547,0 0.10156,-0.043 0.10156,-0.1016 m -1.82812,-41.1992 v 38.3008 m -1.5,-20.6484 V 156.393 m 0,44.3008 v -20.6484 m -1.5,-20.6524 v 38.3008 m -1.5,-20.6484 V 156.393 m 0,44.3008 v -20.6484 m -1.5,-20.6524 v 38.3008 m -1.5,-20.6484 V 156.393 m 0,44.3008 v -20.6484 m -1.5,-20.6524 v 38.3008 m -1.5,-20.6484 V 156.393 m 0,44.3008 v -20.6484 m -1.5,-20.6524 v 38.3008 m -1.5,-20.6484 V 156.393 m 0,44.3008 v -20.6484 m -1.5,-20.6524 v 38.3008 m -1.5,-20.6484 V 156.393 m 0,44.3008 v -20.6484 m -62.6211,20.6484 h 60.89844 m -80.84766,0 h 19.94922 m -1.72656,-41.3008 v 38.3008 m -1.5,-20.6484 V 156.393 m 0,44.3008 v -20.6484 m -1.5,-20.6524 v 38.3008 m -1.5,-20.6484 V 156.393 m 0,44.3008 v -20.6484 m -1.5,-20.6524 v 38.3008 m -1.5,-20.6484 V 156.393 m 0,44.3008 v -20.6484 m -1.5,-20.6524 v 38.3008 m -1.5,-20.6484 V 156.393 m 0,44.3008 v -20.6484 m -1.5,-20.6524 v 38.3008 m -1.5,-20.6484 V 156.393 m 0,44.3008 v -20.6484 m -1.5,-20.6524 v 38.3008 m -1.5,-20.6484 V 156.393 m 0,44.3008 v -20.6484 m -11.67188,20.6484 h 9.94922 m -10.05078,-3.1016 v 3 c 0,0.055 0.043,0.1016 0.10156,0.1016 m -6,-3 h 6 c -0.0547,0 -0.10156,-0.043 -0.10156,-0.1016 m -5.79687,3 v -3 c 0,0.055 -0.043,0.1016 -0.10157,0.1016 m 0,3 c 0.0547,0 0.10157,-0.043 0.10157,-0.1016 m -6.10157,0.1016 h 6 m -6.10156,-3.1016 v 3 c 0,0.055 0.043,0.1016 0.10156,0.1016 m -6,-3 h 6 c -0.0547,0 -0.10156,-0.043 -0.10156,-0.1016 m -5.79687,3 v -3 c 0,0.055 -0.043,0.1016 -0.10157,0.1016 m 0,3 c 0.0547,0 0.10157,-0.043 0.10157,-0.1016 m -6.10157,0.1016 h 6 m -6.10156,-3.1016 v 3 c 0,0.055 0.043,0.1016 0.10156,0.1016 m -6,-3 h 6 c -0.0547,0 -0.10156,-0.043 -0.10156,-0.1016 m -5.79687,3 v -3 c 0,0.055 -0.043,0.1016 -0.10157,0.1016 m 0,3 c 0.0547,0 0.10157,-0.043 0.10157,-0.1016 m -6.10157,0.1016 h 6 m -6.10156,-3.1016 v 3 c 0,0.055 0.043,0.1016 0.10156,0.1016 m -6,-3 h 6 c -0.0547,0 -0.10156,-0.043 -0.10156,-0.1016 m -5.79687,3 v -3 c 0,0.055 -0.043,0.1016 -0.10157,0.1016 m 0,3 c 0.0547,0 0.10157,-0.043 0.10157,-0.1016 m -6.10157,0.1016 h 6 m -6.10156,-3.1016 v 3 c 0,0.055 0.043,0.1016 0.10156,0.1016 m -6,-3 h 6 c -0.0547,0 -0.10156,-0.043 -0.10156,-0.1016 m -5.79687,3 v -3 c 0,0.055 -0.043,0.1016 -0.10157,0.1016 m 0,3 c 0.0547,0 0.10157,-0.043 0.10157,-0.1016 m -6.10157,0.1016 h 6 m -6.10156,-3.1016 v 3 c 0,0.055 0.043,0.1016 0.10156,0.1016 m -6,-3 h 6 c -0.0547,0 -0.10156,-0.043 -0.10156,-0.1016 m -5.79687,3 v -3 c 0,0.055 -0.043,0.1016 -0.10157,0.1016 m 0,3 c 0.0547,0 0.10157,-0.043 0.10157,-0.1016 m -6.10157,0.1016 h 6 m -6.10156,-3.1016 v 3 c 0,0.055 0.043,0.1016 0.10156,0.1016 m -6,-3 h 6 c -0.0547,0 -0.10156,-0.043 -0.10156,-0.1016 m -5.79687,3 v -3 c 0,0.055 -0.043,0.1016 -0.10157,0.1016 m 0,3 c 0.0547,0 0.10157,-0.043 0.10157,-0.1016 m -6.10157,0.1016 h 6 m -6.10156,-3.1016 v 3 c 0,0.055 0.043,0.1016 0.10156,0.1016 m -6,-3 h 6 c -0.0547,0 -0.10156,-0.043 -0.10156,-0.1016 m -5.79687,3 v -3 c 0,0.055 -0.043,0.1016 -0.10157,0.1016 m 0,3 c 0.0547,0 0.10157,-0.043 0.10157,-0.1016 m -6.10157,0.1016 h 6 m -6.10156,-3.1016 v 3 c 0,0.055 0.043,0.1016 0.10156,0.1016 m -6,-3 h 6 c -0.0547,0 -0.10156,-0.043 -0.10156,-0.1016 m -5.79687,3 v -3 c 0,0.055 -0.043,0.1016 -0.10157,0.1016 m 0,3 c 0.0547,0 0.10157,-0.043 0.10157,-0.1016 m -10.05078,0.1016 h 9.94921 m -29.89843,0 h 19.94922 m -1.72657,-41.3008 v 38.3008 m -1.5,-20.6484 V 156.393 m 0,44.3008 v -20.6484 m -1.5,-20.6524 v 38.3008 m -1.5,-20.6484 V 156.393 m 0,44.3008 v -20.6484 m -1.5,-20.6524 v 38.3008 m -1.5,-20.6484 V 156.393 m 0,44.3008 v -20.6484 m -1.5,-20.6524 v 38.3008 m -1.5,-20.6484 V 156.393 m 0,44.3008 v -20.6484 m -1.5,-20.6524 v 38.3008 m -1.5,-20.6484 V 156.393 m 0,44.3008 v -20.6484 m -1.5,-20.6524 v 38.3008 m -1.5,-20.6484 V 156.393 m 0,44.3008 v -20.6484 m -11.17187,20.6484 h 9.44922 m -9.55078,-3.1016 v 3 c 0,0.055 0.043,0.1016 0.10156,0.1016 m -6,-3 h 6 c -0.0547,0 -0.10156,-0.043 -0.10156,-0.1016 m -5.79688,3 v -3 c 0,0.055 -0.043,0.1016 -0.10156,0.1016 m 0,3 c 0.0547,0 0.10156,-0.043 0.10156,-0.1016 m -6.10156,0.1016 h 6 m -6.10156,-3.1016 v 3 c 0,0.055 0.043,0.1016 0.10156,0.1016 m -6,-3 h 6 c -0.0547,0 -0.10156,-0.043 -0.10156,-0.1016 m -5.79688,3 v -3 c 0,0.055 -0.043,0.1016 -0.10156,0.1016 m 0,3 c 0.0547,0 0.10156,-0.043 0.10156,-0.1016 m -6.10156,0.1016 h 6 m -6.10156,-3.1016 v 3 c 0,0.055 0.043,0.1016 0.10156,0.1016 m -6,-3 h 6 c -0.0547,0 -0.10156,-0.043 -0.10156,-0.1016 m -5.79688,3 v -3 c 0,0.055 -0.043,0.1016 -0.10156,0.1016 m 0,3 c 0.0547,0 0.10156,-0.043 0.10156,-0.1016 m -6.10156,0.1016 h 6 m -6.10156,-3.1016 v 3 c 0,0.055 0.043,0.1016 0.10156,0.1016 m -6,-3 h 6 c -0.0547,0 -0.10156,-0.043 -0.10156,-0.1016 m -5.79688,3 v -3 c 0,0.055 -0.043,0.1016 -0.10156,0.1016 m 0,3 c 0.0547,0 0.10156,-0.043 0.10156,-0.1016 m -9.55078,0.1016 h 9.44922 m -29.39844,0 h 19.94922 m -1.72656,-41.3008 v 38.3008 m -1.5,-20.6484 V 156.393 m 0,44.3008 v -20.6484 m -1.5,-20.6524 v 38.3008 m -1.5,-20.6484 V 156.393 m 0,44.3008 v -20.6484 m -1.5,-20.6524 v 38.3008 m -1.5,-20.6484 V 156.393 m 0,44.3008 v -20.6484 m -1.5,-20.6524 v 38.3008 m -1.5,-20.6484 V 156.393 m 0,44.3008 v -20.6484 m -1.5,-20.6524 v 38.3008 m -1.5,-20.6484 V 156.393 m 0,44.3008 v -20.6484 m -1.5,-20.6524 v 38.3008 m -1.5,-20.6484 V 156.393 m 0,44.3008 V 180.0454 M 88.150782,200.6938 H 98.1 m -10.050781,-3.1016 v 3 c 0,0.055 0.04297,0.1016 0.101563,0.1016 m -6.000003,-3 h 6.000003 c -0.05469,0 -0.101563,-0.043 -0.101563,-0.1016 m -5.79688,3 v -3 c 0,0.055 -0.043,0.1016 -0.10156,0.1016 m 0,3 c 0.0547,0 0.10156,-0.043 0.10156,-0.1016 m -6.10156,0.1016 h 6 m -6.10156,-3.1016 v 3 c 0,0.055 0.043,0.1016 0.10156,0.1016 m -6,-3 h 6 c -0.0547,0 -0.10156,-0.043 -0.10156,-0.1016 m -5.79688,3 v -3 c 0,0.055 -0.043,0.1016 -0.10156,0.1016 m 0,3 c 0.0547,0 0.10156,-0.043 0.10156,-0.1016 m -6.10156,0.1016 h 6 m -6.10156,-3.1016 v 3 c 0,0.055 0.043,0.1016 0.10156,0.1016 m -6,-3 h 6 c -0.0547,0 -0.10156,-0.043 -0.10156,-0.1016 m -5.79688,3 v -3 c 0,0.055 -0.043,0.1016 -0.10156,0.1016 m 0,3 c 0.0547,0 0.10156,-0.043 0.10156,-0.1016 m -6.10156,0.1016 h 6 m -6.10156,-3.1016 v 3 c 0,0.055 0.043,0.1016 0.10156,0.1016 m -6,-3 h 6 c -0.0547,0 -0.10156,-0.043 -0.10156,-0.1016 m -5.79687,3 v -3 c 0,0.055 -0.043,0.1016 -0.10157,0.1016 m 0,3 c 0.0547,0 0.10157,-0.043 0.10157,-0.1016 m -6.10157,0.1016 h 6 m -6.10156,-3.1016 v 3 c 0,0.055 0.043,0.1016 0.10156,0.1016 m -6,-3 h 6 c -0.0547,0 -0.10156,-0.043 -0.10156,-0.1016 m -5.79687,3 v -3 c 0,0.055 -0.043,0.1016 -0.10157,0.1016 m 0,3 c 0.0547,0 0.10157,-0.043 0.10157,-0.1016 m -6.10157,0.1016 h 6 m -6.10156,-3.1016 v 3 c 0,0.055 0.043,0.1016 0.10156,0.1016 m -6,-3 h 6 c -0.0547,0 -0.10156,-0.043 -0.10156,-0.1016 m -5.79687,3 v -3 c 0,0.055 -0.043,0.1016 -0.10157,0.1016 m 0,3 c 0.0547,0 0.10157,-0.043 0.10157,-0.1016 m -6.10157,0.1016 h 6 m -6.10156,-3.1016 v 3 c 0,0.055 0.043,0.1016 0.10156,0.1016 m -6,-3 h 6 c -0.0547,0 -0.10156,-0.043 -0.10156,-0.1016 m -5.79687,3 v -3 c 0,0.055 -0.043,0.1016 -0.10157,0.1016 m 0,3 c 0.0547,0 0.10157,-0.043 0.10157,-0.1016 m -10.05079,0.1016 h 9.94922"
             inkscape:connector-curvature="0" />
          <rect
             style="opacity:1;fill:none;fill-opacity:1;fill-rule:nonzero;stroke:#000000;stroke-width:0.2;stroke-miterlimit:4;stroke-dasharray:none;stroke-opacity:1"
             id="rect36529"
             width="20.32"
             height="10.16"
             x="213.71938"
             y="187.35236"
             ry="5.0799999" />
        </g>
        <text
           xml:space="preserve"
           style="font-style:normal;font-weight:normal;font-size:2.82222223px;line-height:2.9104166px;font-family:sans-serif;letter-spacing:0px;word-spacing:0px;fill:#ff0000;fill-opacity:1;stroke:none;stroke-width:0.26458332px;stroke-linecap:butt;stroke-linejoin:miter;stroke-opacity:1"
           x="206.18599"
           y="141.44559"
           id="text6220"><tspan
             sodipodi:role="line"
             id="tspan6218"
             x="206.18599"
             y="141.44559"
             style="fill:#ff0000;fill-opacity:1;stroke-width:0.26458332px">445.802 mm</tspan></text>
        <text
           xml:space="preserve"
           style="font-style:normal;font-weight:normal;font-size:2.82222223px;line-height:2.9104166px;font-family:sans-serif;letter-spacing:0px;word-spacing:0px;fill:#ff0000;fill-opacity:1;stroke:none;stroke-width:0.26458332px;stroke-linecap:butt;stroke-linejoin:miter;stroke-opacity:1"
           x="208.07588"
           y="130.67326"
           id="text6224"><tspan
             sodipodi:role="line"
             id="tspan6222"
             x="208.07588"
             y="130.67326"
             style="fill:#ff0000;fill-opacity:1;stroke-width:0.26458332px">3 mm MDF</tspan></text>
      </g>
    </g>
  </g>
</svg>
