G04 #@! TF.GenerationSoftware,KiCad,Pcbnew,5.0.0-rc2-dev-unknown-b5f1fdd~62~ubuntu16.04.1*
G04 #@! TF.CreationDate,2018-03-21T15:07:53+05:30*
G04 #@! TF.ProjectId,KlokTHREEjr,4B6C6F6B54485245456A722E6B696361,rev 1*
G04 #@! TF.SameCoordinates,Original*
G04 #@! TF.FileFunction,Soldermask,Bot*
G04 #@! TF.FilePolarity,Negative*
%FSLAX46Y46*%
G04 Gerber Fmt 4.6, Leading zero omitted, Abs format (unit mm)*
G04 Created by KiCad (PCBNEW 5.0.0-rc2-dev-unknown-b5f1fdd~62~ubuntu16.04.1) date Wed Mar 21 15:07:53 2018*
%MOMM*%
%LPD*%
G01*
G04 APERTURE LIST*
%ADD10C,0.762000*%
%ADD11C,0.254000*%
%ADD12C,18.796000*%
%ADD13R,5.080000X2.794000*%
%ADD14C,2.000000*%
%ADD15C,1.270000*%
%ADD16R,2.100000X1.400000*%
%ADD17R,3.048000X3.048000*%
%ADD18R,1.400000X1.200000*%
%ADD19R,1.400000X1.400000*%
%ADD20R,1.900000X1.500000*%
%ADD21C,1.450000*%
%ADD22R,1.350000X0.400000*%
%ADD23O,1.900000X1.200000*%
%ADD24R,1.900000X1.200000*%
%ADD25C,0.800000*%
%ADD26C,6.400000*%
%ADD27O,0.850000X0.300000*%
%ADD28O,0.300000X0.850000*%
%ADD29R,1.675000X1.675000*%
%ADD30R,1.498600X1.300480*%
%ADD31R,1.550000X1.350000*%
%ADD32C,3.200000*%
%ADD33R,1.350000X1.550000*%
%ADD34R,1.500000X2.000000*%
%ADD35R,3.800000X2.000000*%
%ADD36R,1.300480X1.498600*%
%ADD37R,0.400000X0.650000*%
%ADD38C,0.127000*%
%ADD39C,1.600000*%
%ADD40R,1.998980X0.599440*%
%ADD41C,5.200000*%
%ADD42C,1.524000*%
%ADD43R,1.524000X1.524000*%
%ADD44C,1.800000*%
%ADD45R,0.400000X0.600000*%
%ADD46O,1.000000X2.000000*%
%ADD47O,2.000000X1.000000*%
%ADD48R,4.000000X4.000000*%
%ADD49R,2.000000X1.000000*%
%ADD50R,1.000000X2.000000*%
%ADD51R,1.198880X1.198880*%
%ADD52C,0.508000*%
%ADD53R,2.000000X2.000000*%
%ADD54O,2.000000X2.000000*%
%ADD55C,2.082800*%
G04 APERTURE END LIST*
D10*
X147592142Y-164918571D02*
X147592142Y-161108571D01*
X145415000Y-164918571D02*
X147047857Y-162741428D01*
X145415000Y-161108571D02*
X147592142Y-163285714D01*
X143237857Y-164918571D02*
X143600714Y-164737142D01*
X143782142Y-164374285D01*
X143782142Y-161108571D01*
X141242142Y-164918571D02*
X141605000Y-164737142D01*
X141786428Y-164555714D01*
X141967857Y-164192857D01*
X141967857Y-163104285D01*
X141786428Y-162741428D01*
X141605000Y-162560000D01*
X141242142Y-162378571D01*
X140697857Y-162378571D01*
X140335000Y-162560000D01*
X140153571Y-162741428D01*
X139972142Y-163104285D01*
X139972142Y-164192857D01*
X140153571Y-164555714D01*
X140335000Y-164737142D01*
X140697857Y-164918571D01*
X141242142Y-164918571D01*
X138339285Y-164918571D02*
X138339285Y-161108571D01*
X137976428Y-163467142D02*
X136887857Y-164918571D01*
X136887857Y-162378571D02*
X138339285Y-163830000D01*
X135799285Y-161108571D02*
X133622142Y-161108571D01*
X134710714Y-164918571D02*
X134710714Y-161108571D01*
X132352142Y-164918571D02*
X132352142Y-161108571D01*
X132352142Y-162922857D02*
X130175000Y-162922857D01*
X130175000Y-164918571D02*
X130175000Y-161108571D01*
X126183571Y-164918571D02*
X127453571Y-163104285D01*
X128360714Y-164918571D02*
X128360714Y-161108571D01*
X126909285Y-161108571D01*
X126546428Y-161290000D01*
X126365000Y-161471428D01*
X126183571Y-161834285D01*
X126183571Y-162378571D01*
X126365000Y-162741428D01*
X126546428Y-162922857D01*
X126909285Y-163104285D01*
X128360714Y-163104285D01*
X124550714Y-162922857D02*
X123280714Y-162922857D01*
X122736428Y-164918571D02*
X124550714Y-164918571D01*
X124550714Y-161108571D01*
X122736428Y-161108571D01*
X121103571Y-162922857D02*
X119833571Y-162922857D01*
X119289285Y-164918571D02*
X121103571Y-164918571D01*
X121103571Y-161108571D01*
X119289285Y-161108571D01*
X117656428Y-162378571D02*
X117656428Y-165644285D01*
X117837857Y-166007142D01*
X118200714Y-166188571D01*
X118382142Y-166188571D01*
X117656428Y-161108571D02*
X117837857Y-161290000D01*
X117656428Y-161471428D01*
X117475000Y-161290000D01*
X117656428Y-161108571D01*
X117656428Y-161471428D01*
X115842142Y-164918571D02*
X115842142Y-162378571D01*
X115842142Y-163104285D02*
X115660714Y-162741428D01*
X115479285Y-162560000D01*
X115116428Y-162378571D01*
X114753571Y-162378571D01*
D11*
X140788571Y-53884285D02*
X140607142Y-53944761D01*
X140546666Y-54005238D01*
X140486190Y-54126190D01*
X140486190Y-54307619D01*
X140546666Y-54428571D01*
X140607142Y-54489047D01*
X140728095Y-54549523D01*
X141211904Y-54549523D01*
X141211904Y-53279523D01*
X140788571Y-53279523D01*
X140667619Y-53340000D01*
X140607142Y-53400476D01*
X140546666Y-53521428D01*
X140546666Y-53642380D01*
X140607142Y-53763333D01*
X140667619Y-53823809D01*
X140788571Y-53884285D01*
X141211904Y-53884285D01*
X139700000Y-53279523D02*
X139458095Y-53279523D01*
X139337142Y-53340000D01*
X139216190Y-53460952D01*
X139155714Y-53702857D01*
X139155714Y-54126190D01*
X139216190Y-54368095D01*
X139337142Y-54489047D01*
X139458095Y-54549523D01*
X139700000Y-54549523D01*
X139820952Y-54489047D01*
X139941904Y-54368095D01*
X140002380Y-54126190D01*
X140002380Y-53702857D01*
X139941904Y-53460952D01*
X139820952Y-53340000D01*
X139700000Y-53279523D01*
X138369523Y-53279523D02*
X138127619Y-53279523D01*
X138006666Y-53340000D01*
X137885714Y-53460952D01*
X137825238Y-53702857D01*
X137825238Y-54126190D01*
X137885714Y-54368095D01*
X138006666Y-54489047D01*
X138127619Y-54549523D01*
X138369523Y-54549523D01*
X138490476Y-54489047D01*
X138611428Y-54368095D01*
X138671904Y-54126190D01*
X138671904Y-53702857D01*
X138611428Y-53460952D01*
X138490476Y-53340000D01*
X138369523Y-53279523D01*
X137462380Y-53279523D02*
X136736666Y-53279523D01*
X137099523Y-54549523D02*
X137099523Y-53279523D01*
X126455714Y-53884285D02*
X126032380Y-53884285D01*
X125850952Y-54549523D02*
X126455714Y-54549523D01*
X126455714Y-53279523D01*
X125850952Y-53279523D01*
X125306666Y-54549523D02*
X125306666Y-53279523D01*
X124580952Y-54549523D01*
X124580952Y-53279523D01*
X124157619Y-53279523D02*
X123431904Y-53279523D01*
X123794761Y-54549523D02*
X123794761Y-53279523D01*
X123008571Y-53884285D02*
X122585238Y-53884285D01*
X122403809Y-54549523D02*
X123008571Y-54549523D01*
X123008571Y-53279523D01*
X122403809Y-53279523D01*
X121133809Y-54549523D02*
X121557142Y-53944761D01*
X121859523Y-54549523D02*
X121859523Y-53279523D01*
X121375714Y-53279523D01*
X121254761Y-53340000D01*
X121194285Y-53400476D01*
X121133809Y-53521428D01*
X121133809Y-53702857D01*
X121194285Y-53823809D01*
X121254761Y-53884285D01*
X121375714Y-53944761D01*
X121859523Y-53944761D01*
X109885238Y-54549523D02*
X109885238Y-53279523D01*
X109280476Y-54549523D02*
X109280476Y-53279523D01*
X108554761Y-54549523D01*
X108554761Y-53279523D01*
X107224285Y-54428571D02*
X107284761Y-54489047D01*
X107466190Y-54549523D01*
X107587142Y-54549523D01*
X107768571Y-54489047D01*
X107889523Y-54368095D01*
X107950000Y-54247142D01*
X108010476Y-54005238D01*
X108010476Y-53823809D01*
X107950000Y-53581904D01*
X107889523Y-53460952D01*
X107768571Y-53340000D01*
X107587142Y-53279523D01*
X107466190Y-53279523D01*
X107284761Y-53340000D01*
X107224285Y-53400476D01*
X94887142Y-54549523D02*
X94887142Y-53279523D01*
X94584761Y-53279523D01*
X94403333Y-53340000D01*
X94282380Y-53460952D01*
X94221904Y-53581904D01*
X94161428Y-53823809D01*
X94161428Y-54005238D01*
X94221904Y-54247142D01*
X94282380Y-54368095D01*
X94403333Y-54489047D01*
X94584761Y-54549523D01*
X94887142Y-54549523D01*
X93617142Y-53884285D02*
X93193809Y-53884285D01*
X93012380Y-54549523D02*
X93617142Y-54549523D01*
X93617142Y-53279523D01*
X93012380Y-53279523D01*
X91742380Y-54428571D02*
X91802857Y-54489047D01*
X91984285Y-54549523D01*
X92105238Y-54549523D01*
X92286666Y-54489047D01*
X92407619Y-54368095D01*
X92468095Y-54247142D01*
X92528571Y-54005238D01*
X92528571Y-53823809D01*
X92468095Y-53581904D01*
X92407619Y-53460952D01*
X92286666Y-53340000D01*
X92105238Y-53279523D01*
X91984285Y-53279523D01*
X91802857Y-53340000D01*
X91742380Y-53400476D01*
X80403095Y-54549523D02*
X80403095Y-53279523D01*
X79979761Y-54186666D01*
X79556428Y-53279523D01*
X79556428Y-54549523D01*
X78709761Y-53279523D02*
X78467857Y-53279523D01*
X78346904Y-53340000D01*
X78225952Y-53460952D01*
X78165476Y-53702857D01*
X78165476Y-54126190D01*
X78225952Y-54368095D01*
X78346904Y-54489047D01*
X78467857Y-54549523D01*
X78709761Y-54549523D01*
X78830714Y-54489047D01*
X78951666Y-54368095D01*
X79012142Y-54126190D01*
X79012142Y-53702857D01*
X78951666Y-53460952D01*
X78830714Y-53340000D01*
X78709761Y-53279523D01*
X77621190Y-54549523D02*
X77621190Y-53279523D01*
X77318809Y-53279523D01*
X77137380Y-53340000D01*
X77016428Y-53460952D01*
X76955952Y-53581904D01*
X76895476Y-53823809D01*
X76895476Y-54005238D01*
X76955952Y-54247142D01*
X77016428Y-54368095D01*
X77137380Y-54489047D01*
X77318809Y-54549523D01*
X77621190Y-54549523D01*
X76351190Y-53884285D02*
X75927857Y-53884285D01*
X75746428Y-54549523D02*
X76351190Y-54549523D01*
X76351190Y-53279523D01*
X75746428Y-53279523D01*
X63802380Y-53884285D02*
X63379047Y-53884285D01*
X63197619Y-54549523D02*
X63802380Y-54549523D01*
X63802380Y-53279523D01*
X63197619Y-53279523D01*
X62653333Y-54549523D02*
X62653333Y-53279523D01*
X61927619Y-54549523D01*
X61927619Y-53279523D01*
D12*
X200025000Y-69215000D03*
D13*
X200025000Y-58293000D03*
X200025000Y-80137000D03*
D14*
X83185000Y-53975000D03*
X88265000Y-53975000D03*
D15*
X85725000Y-53975000D03*
D14*
X179705000Y-53975000D03*
X174625000Y-53975000D03*
D15*
X177165000Y-53975000D03*
D16*
X88795000Y-57440000D03*
X97895000Y-57440000D03*
X97895000Y-61940000D03*
X88795000Y-61940000D03*
D17*
X91821000Y-71755000D03*
X99949000Y-71755000D03*
D18*
X75087000Y-81110000D03*
X75087000Y-78910000D03*
X72487000Y-78910000D03*
D19*
X72487000Y-81010000D03*
D20*
X52355000Y-76470000D03*
D21*
X55055000Y-79970000D03*
D22*
X55055000Y-78120000D03*
X55055000Y-78770000D03*
X55055000Y-76170000D03*
X55055000Y-76820000D03*
X55055000Y-77470000D03*
D21*
X55055000Y-74970000D03*
D20*
X52355000Y-78470000D03*
D23*
X52355000Y-80970000D03*
X52355000Y-73970000D03*
D24*
X52355000Y-74570000D03*
X52355000Y-80370000D03*
D25*
X56942056Y-85932944D03*
X55245000Y-85230000D03*
X53547944Y-85932944D03*
X52845000Y-87630000D03*
X53547944Y-89327056D03*
X55245000Y-90030000D03*
X56942056Y-89327056D03*
X57645000Y-87630000D03*
D26*
X55245000Y-87630000D03*
D16*
X73555000Y-57440000D03*
X82655000Y-57440000D03*
X82655000Y-61940000D03*
X73555000Y-61940000D03*
D17*
X186309000Y-58293000D03*
X178181000Y-58293000D03*
D25*
X80010000Y-77470000D03*
X79375000Y-76835000D03*
X80645000Y-76835000D03*
X80645000Y-78105000D03*
X79375000Y-78105000D03*
D27*
X77560000Y-78970000D03*
X77560000Y-78470000D03*
X77560000Y-77970000D03*
X77560000Y-77470000D03*
X77560000Y-76970000D03*
X77560000Y-76470000D03*
X77560000Y-75970000D03*
D28*
X78510000Y-75020000D03*
X79010000Y-75020000D03*
X79510000Y-75020000D03*
X80010000Y-75020000D03*
X80510000Y-75020000D03*
X81010000Y-75020000D03*
X81510000Y-75020000D03*
D27*
X82460000Y-75970000D03*
X82460000Y-76470000D03*
X82460000Y-76970000D03*
X82460000Y-77470000D03*
X82460000Y-77970000D03*
X82460000Y-78470000D03*
X82460000Y-78970000D03*
D28*
X81510000Y-79920000D03*
X81010000Y-79920000D03*
X80510000Y-79920000D03*
X80010000Y-79920000D03*
X79510000Y-79920000D03*
X79010000Y-79920000D03*
X78510000Y-79920000D03*
D29*
X80847500Y-76632500D03*
X80847500Y-78307500D03*
X79172500Y-76632500D03*
X79172500Y-78307500D03*
D30*
X70485000Y-61912500D03*
X70485000Y-63817500D03*
X85725000Y-61912500D03*
X85725000Y-63817500D03*
D31*
X83185000Y-87995000D03*
X83185000Y-85995000D03*
D16*
X143615000Y-61940000D03*
X134515000Y-61940000D03*
X134515000Y-57440000D03*
X143615000Y-57440000D03*
D32*
X53975000Y-53340000D03*
X208915000Y-53340000D03*
D17*
X122682000Y-78994000D03*
X122682000Y-70866000D03*
D33*
X182610000Y-79375000D03*
X180610000Y-79375000D03*
D30*
X100965000Y-61912500D03*
X100965000Y-63817500D03*
X116205000Y-61912500D03*
X116205000Y-63817500D03*
X80250000Y-86047500D03*
X80250000Y-87952500D03*
D34*
X115965000Y-76810000D03*
X111365000Y-76810000D03*
X113665000Y-76810000D03*
D35*
X113665000Y-70510000D03*
D36*
X140017500Y-68580000D03*
X138112500Y-68580000D03*
X138112500Y-71120000D03*
X140017500Y-71120000D03*
X140017500Y-73660000D03*
X138112500Y-73660000D03*
X140017500Y-76200000D03*
X138112500Y-76200000D03*
D30*
X131445000Y-63817500D03*
X131445000Y-61912500D03*
X55245000Y-63817500D03*
X55245000Y-61912500D03*
D36*
X97853500Y-77470000D03*
X99758500Y-77470000D03*
D30*
X131445000Y-67627500D03*
X131445000Y-69532500D03*
D37*
X133970000Y-72070000D03*
X135270000Y-72070000D03*
X134620000Y-70170000D03*
X134620000Y-72070000D03*
X135270000Y-70170000D03*
X133970000Y-70170000D03*
D33*
X183785000Y-53975000D03*
X185785000Y-53975000D03*
X78375000Y-67945000D03*
X80375000Y-67945000D03*
D17*
X87249000Y-71755000D03*
X79121000Y-71755000D03*
D33*
X75295000Y-67945000D03*
X73295000Y-67945000D03*
D17*
X66421000Y-71755000D03*
X74549000Y-71755000D03*
D31*
X131445000Y-57515000D03*
X131445000Y-55515000D03*
X55245000Y-66437000D03*
X55245000Y-68437000D03*
D30*
X77250000Y-86047500D03*
X77250000Y-87952500D03*
X185420000Y-63182500D03*
X185420000Y-65087500D03*
X182880000Y-63182500D03*
X182880000Y-65087500D03*
D38*
G36*
X191574207Y-53176926D02*
X191613036Y-53182686D01*
X191651114Y-53192224D01*
X191688073Y-53205448D01*
X191723559Y-53222231D01*
X191757228Y-53242412D01*
X191788757Y-53265796D01*
X191817843Y-53292157D01*
X191844204Y-53321243D01*
X191867588Y-53352772D01*
X191887769Y-53386441D01*
X191904552Y-53421927D01*
X191917776Y-53458886D01*
X191927314Y-53496964D01*
X191933074Y-53535793D01*
X191935000Y-53575000D01*
X191935000Y-54375000D01*
X191933074Y-54414207D01*
X191927314Y-54453036D01*
X191917776Y-54491114D01*
X191904552Y-54528073D01*
X191887769Y-54563559D01*
X191867588Y-54597228D01*
X191844204Y-54628757D01*
X191817843Y-54657843D01*
X191788757Y-54684204D01*
X191757228Y-54707588D01*
X191723559Y-54727769D01*
X191688073Y-54744552D01*
X191651114Y-54757776D01*
X191613036Y-54767314D01*
X191574207Y-54773074D01*
X191535000Y-54775000D01*
X190735000Y-54775000D01*
X190695793Y-54773074D01*
X190656964Y-54767314D01*
X190618886Y-54757776D01*
X190581927Y-54744552D01*
X190546441Y-54727769D01*
X190512772Y-54707588D01*
X190481243Y-54684204D01*
X190452157Y-54657843D01*
X190425796Y-54628757D01*
X190402412Y-54597228D01*
X190382231Y-54563559D01*
X190365448Y-54528073D01*
X190352224Y-54491114D01*
X190342686Y-54453036D01*
X190336926Y-54414207D01*
X190335000Y-54375000D01*
X190335000Y-53575000D01*
X190336926Y-53535793D01*
X190342686Y-53496964D01*
X190352224Y-53458886D01*
X190365448Y-53421927D01*
X190382231Y-53386441D01*
X190402412Y-53352772D01*
X190425796Y-53321243D01*
X190452157Y-53292157D01*
X190481243Y-53265796D01*
X190512772Y-53242412D01*
X190546441Y-53222231D01*
X190581927Y-53205448D01*
X190618886Y-53192224D01*
X190656964Y-53182686D01*
X190695793Y-53176926D01*
X190735000Y-53175000D01*
X191535000Y-53175000D01*
X191574207Y-53176926D01*
X191574207Y-53176926D01*
G37*
D39*
X191135000Y-53975000D03*
D16*
X104035000Y-57440000D03*
X113135000Y-57440000D03*
X113135000Y-61940000D03*
X104035000Y-61940000D03*
D25*
X209342056Y-85932944D03*
X207645000Y-85230000D03*
X205947944Y-85932944D03*
X205245000Y-87630000D03*
X205947944Y-89327056D03*
X207645000Y-90030000D03*
X209342056Y-89327056D03*
X210045000Y-87630000D03*
D26*
X207645000Y-87630000D03*
D40*
X176959260Y-67945000D03*
X176959260Y-69215000D03*
X176959260Y-70485000D03*
X176959260Y-71755000D03*
X176959260Y-73025000D03*
X176959260Y-74295000D03*
X176959260Y-75565000D03*
X176959260Y-76835000D03*
X186260740Y-76835000D03*
X186260740Y-75565000D03*
X186260740Y-74295000D03*
X186260740Y-73025000D03*
X186260740Y-71755000D03*
X186260740Y-70485000D03*
X186260740Y-69215000D03*
X186260740Y-67945000D03*
D16*
X67415000Y-61940000D03*
X58315000Y-61940000D03*
X58315000Y-57440000D03*
X67415000Y-57440000D03*
D41*
X136525000Y-88265000D03*
X146685000Y-88265000D03*
D38*
G36*
X182684207Y-88101926D02*
X182723036Y-88107686D01*
X182761114Y-88117224D01*
X182798073Y-88130448D01*
X182833559Y-88147231D01*
X182867228Y-88167412D01*
X182898757Y-88190796D01*
X182927843Y-88217157D01*
X182954204Y-88246243D01*
X182977588Y-88277772D01*
X182997769Y-88311441D01*
X183014552Y-88346927D01*
X183027776Y-88383886D01*
X183037314Y-88421964D01*
X183043074Y-88460793D01*
X183045000Y-88500000D01*
X183045000Y-89300000D01*
X183043074Y-89339207D01*
X183037314Y-89378036D01*
X183027776Y-89416114D01*
X183014552Y-89453073D01*
X182997769Y-89488559D01*
X182977588Y-89522228D01*
X182954204Y-89553757D01*
X182927843Y-89582843D01*
X182898757Y-89609204D01*
X182867228Y-89632588D01*
X182833559Y-89652769D01*
X182798073Y-89669552D01*
X182761114Y-89682776D01*
X182723036Y-89692314D01*
X182684207Y-89698074D01*
X182645000Y-89700000D01*
X181845000Y-89700000D01*
X181805793Y-89698074D01*
X181766964Y-89692314D01*
X181728886Y-89682776D01*
X181691927Y-89669552D01*
X181656441Y-89652769D01*
X181622772Y-89632588D01*
X181591243Y-89609204D01*
X181562157Y-89582843D01*
X181535796Y-89553757D01*
X181512412Y-89522228D01*
X181492231Y-89488559D01*
X181475448Y-89453073D01*
X181462224Y-89416114D01*
X181452686Y-89378036D01*
X181446926Y-89339207D01*
X181445000Y-89300000D01*
X181445000Y-88500000D01*
X181446926Y-88460793D01*
X181452686Y-88421964D01*
X181462224Y-88383886D01*
X181475448Y-88346927D01*
X181492231Y-88311441D01*
X181512412Y-88277772D01*
X181535796Y-88246243D01*
X181562157Y-88217157D01*
X181591243Y-88190796D01*
X181622772Y-88167412D01*
X181656441Y-88147231D01*
X181691927Y-88130448D01*
X181728886Y-88117224D01*
X181766964Y-88107686D01*
X181805793Y-88101926D01*
X181845000Y-88100000D01*
X182645000Y-88100000D01*
X182684207Y-88101926D01*
X182684207Y-88101926D01*
G37*
D39*
X182245000Y-88900000D03*
D38*
G36*
X175064207Y-88101926D02*
X175103036Y-88107686D01*
X175141114Y-88117224D01*
X175178073Y-88130448D01*
X175213559Y-88147231D01*
X175247228Y-88167412D01*
X175278757Y-88190796D01*
X175307843Y-88217157D01*
X175334204Y-88246243D01*
X175357588Y-88277772D01*
X175377769Y-88311441D01*
X175394552Y-88346927D01*
X175407776Y-88383886D01*
X175417314Y-88421964D01*
X175423074Y-88460793D01*
X175425000Y-88500000D01*
X175425000Y-89300000D01*
X175423074Y-89339207D01*
X175417314Y-89378036D01*
X175407776Y-89416114D01*
X175394552Y-89453073D01*
X175377769Y-89488559D01*
X175357588Y-89522228D01*
X175334204Y-89553757D01*
X175307843Y-89582843D01*
X175278757Y-89609204D01*
X175247228Y-89632588D01*
X175213559Y-89652769D01*
X175178073Y-89669552D01*
X175141114Y-89682776D01*
X175103036Y-89692314D01*
X175064207Y-89698074D01*
X175025000Y-89700000D01*
X174225000Y-89700000D01*
X174185793Y-89698074D01*
X174146964Y-89692314D01*
X174108886Y-89682776D01*
X174071927Y-89669552D01*
X174036441Y-89652769D01*
X174002772Y-89632588D01*
X173971243Y-89609204D01*
X173942157Y-89582843D01*
X173915796Y-89553757D01*
X173892412Y-89522228D01*
X173872231Y-89488559D01*
X173855448Y-89453073D01*
X173842224Y-89416114D01*
X173832686Y-89378036D01*
X173826926Y-89339207D01*
X173825000Y-89300000D01*
X173825000Y-88500000D01*
X173826926Y-88460793D01*
X173832686Y-88421964D01*
X173842224Y-88383886D01*
X173855448Y-88346927D01*
X173872231Y-88311441D01*
X173892412Y-88277772D01*
X173915796Y-88246243D01*
X173942157Y-88217157D01*
X173971243Y-88190796D01*
X174002772Y-88167412D01*
X174036441Y-88147231D01*
X174071927Y-88130448D01*
X174108886Y-88117224D01*
X174146964Y-88107686D01*
X174185793Y-88101926D01*
X174225000Y-88100000D01*
X175025000Y-88100000D01*
X175064207Y-88101926D01*
X175064207Y-88101926D01*
G37*
D39*
X174625000Y-88900000D03*
D38*
G36*
X182684207Y-85561926D02*
X182723036Y-85567686D01*
X182761114Y-85577224D01*
X182798073Y-85590448D01*
X182833559Y-85607231D01*
X182867228Y-85627412D01*
X182898757Y-85650796D01*
X182927843Y-85677157D01*
X182954204Y-85706243D01*
X182977588Y-85737772D01*
X182997769Y-85771441D01*
X183014552Y-85806927D01*
X183027776Y-85843886D01*
X183037314Y-85881964D01*
X183043074Y-85920793D01*
X183045000Y-85960000D01*
X183045000Y-86760000D01*
X183043074Y-86799207D01*
X183037314Y-86838036D01*
X183027776Y-86876114D01*
X183014552Y-86913073D01*
X182997769Y-86948559D01*
X182977588Y-86982228D01*
X182954204Y-87013757D01*
X182927843Y-87042843D01*
X182898757Y-87069204D01*
X182867228Y-87092588D01*
X182833559Y-87112769D01*
X182798073Y-87129552D01*
X182761114Y-87142776D01*
X182723036Y-87152314D01*
X182684207Y-87158074D01*
X182645000Y-87160000D01*
X181845000Y-87160000D01*
X181805793Y-87158074D01*
X181766964Y-87152314D01*
X181728886Y-87142776D01*
X181691927Y-87129552D01*
X181656441Y-87112769D01*
X181622772Y-87092588D01*
X181591243Y-87069204D01*
X181562157Y-87042843D01*
X181535796Y-87013757D01*
X181512412Y-86982228D01*
X181492231Y-86948559D01*
X181475448Y-86913073D01*
X181462224Y-86876114D01*
X181452686Y-86838036D01*
X181446926Y-86799207D01*
X181445000Y-86760000D01*
X181445000Y-85960000D01*
X181446926Y-85920793D01*
X181452686Y-85881964D01*
X181462224Y-85843886D01*
X181475448Y-85806927D01*
X181492231Y-85771441D01*
X181512412Y-85737772D01*
X181535796Y-85706243D01*
X181562157Y-85677157D01*
X181591243Y-85650796D01*
X181622772Y-85627412D01*
X181656441Y-85607231D01*
X181691927Y-85590448D01*
X181728886Y-85577224D01*
X181766964Y-85567686D01*
X181805793Y-85561926D01*
X181845000Y-85560000D01*
X182645000Y-85560000D01*
X182684207Y-85561926D01*
X182684207Y-85561926D01*
G37*
D39*
X182245000Y-86360000D03*
D42*
X179705000Y-83820000D03*
X177165000Y-83820000D03*
X179705000Y-86360000D03*
X177165000Y-86360000D03*
D43*
X179705000Y-88900000D03*
D42*
X177165000Y-88900000D03*
D38*
G36*
X175064207Y-85561926D02*
X175103036Y-85567686D01*
X175141114Y-85577224D01*
X175178073Y-85590448D01*
X175213559Y-85607231D01*
X175247228Y-85627412D01*
X175278757Y-85650796D01*
X175307843Y-85677157D01*
X175334204Y-85706243D01*
X175357588Y-85737772D01*
X175377769Y-85771441D01*
X175394552Y-85806927D01*
X175407776Y-85843886D01*
X175417314Y-85881964D01*
X175423074Y-85920793D01*
X175425000Y-85960000D01*
X175425000Y-86760000D01*
X175423074Y-86799207D01*
X175417314Y-86838036D01*
X175407776Y-86876114D01*
X175394552Y-86913073D01*
X175377769Y-86948559D01*
X175357588Y-86982228D01*
X175334204Y-87013757D01*
X175307843Y-87042843D01*
X175278757Y-87069204D01*
X175247228Y-87092588D01*
X175213559Y-87112769D01*
X175178073Y-87129552D01*
X175141114Y-87142776D01*
X175103036Y-87152314D01*
X175064207Y-87158074D01*
X175025000Y-87160000D01*
X174225000Y-87160000D01*
X174185793Y-87158074D01*
X174146964Y-87152314D01*
X174108886Y-87142776D01*
X174071927Y-87129552D01*
X174036441Y-87112769D01*
X174002772Y-87092588D01*
X173971243Y-87069204D01*
X173942157Y-87042843D01*
X173915796Y-87013757D01*
X173892412Y-86982228D01*
X173872231Y-86948559D01*
X173855448Y-86913073D01*
X173842224Y-86876114D01*
X173832686Y-86838036D01*
X173826926Y-86799207D01*
X173825000Y-86760000D01*
X173825000Y-85960000D01*
X173826926Y-85920793D01*
X173832686Y-85881964D01*
X173842224Y-85843886D01*
X173855448Y-85806927D01*
X173872231Y-85771441D01*
X173892412Y-85737772D01*
X173915796Y-85706243D01*
X173942157Y-85677157D01*
X173971243Y-85650796D01*
X174002772Y-85627412D01*
X174036441Y-85607231D01*
X174071927Y-85590448D01*
X174108886Y-85577224D01*
X174146964Y-85567686D01*
X174185793Y-85561926D01*
X174225000Y-85560000D01*
X175025000Y-85560000D01*
X175064207Y-85561926D01*
X175064207Y-85561926D01*
G37*
D39*
X174625000Y-86360000D03*
D38*
G36*
X182684207Y-83021926D02*
X182723036Y-83027686D01*
X182761114Y-83037224D01*
X182798073Y-83050448D01*
X182833559Y-83067231D01*
X182867228Y-83087412D01*
X182898757Y-83110796D01*
X182927843Y-83137157D01*
X182954204Y-83166243D01*
X182977588Y-83197772D01*
X182997769Y-83231441D01*
X183014552Y-83266927D01*
X183027776Y-83303886D01*
X183037314Y-83341964D01*
X183043074Y-83380793D01*
X183045000Y-83420000D01*
X183045000Y-84220000D01*
X183043074Y-84259207D01*
X183037314Y-84298036D01*
X183027776Y-84336114D01*
X183014552Y-84373073D01*
X182997769Y-84408559D01*
X182977588Y-84442228D01*
X182954204Y-84473757D01*
X182927843Y-84502843D01*
X182898757Y-84529204D01*
X182867228Y-84552588D01*
X182833559Y-84572769D01*
X182798073Y-84589552D01*
X182761114Y-84602776D01*
X182723036Y-84612314D01*
X182684207Y-84618074D01*
X182645000Y-84620000D01*
X181845000Y-84620000D01*
X181805793Y-84618074D01*
X181766964Y-84612314D01*
X181728886Y-84602776D01*
X181691927Y-84589552D01*
X181656441Y-84572769D01*
X181622772Y-84552588D01*
X181591243Y-84529204D01*
X181562157Y-84502843D01*
X181535796Y-84473757D01*
X181512412Y-84442228D01*
X181492231Y-84408559D01*
X181475448Y-84373073D01*
X181462224Y-84336114D01*
X181452686Y-84298036D01*
X181446926Y-84259207D01*
X181445000Y-84220000D01*
X181445000Y-83420000D01*
X181446926Y-83380793D01*
X181452686Y-83341964D01*
X181462224Y-83303886D01*
X181475448Y-83266927D01*
X181492231Y-83231441D01*
X181512412Y-83197772D01*
X181535796Y-83166243D01*
X181562157Y-83137157D01*
X181591243Y-83110796D01*
X181622772Y-83087412D01*
X181656441Y-83067231D01*
X181691927Y-83050448D01*
X181728886Y-83037224D01*
X181766964Y-83027686D01*
X181805793Y-83021926D01*
X181845000Y-83020000D01*
X182645000Y-83020000D01*
X182684207Y-83021926D01*
X182684207Y-83021926D01*
G37*
D39*
X182245000Y-83820000D03*
D38*
G36*
X175064207Y-83021926D02*
X175103036Y-83027686D01*
X175141114Y-83037224D01*
X175178073Y-83050448D01*
X175213559Y-83067231D01*
X175247228Y-83087412D01*
X175278757Y-83110796D01*
X175307843Y-83137157D01*
X175334204Y-83166243D01*
X175357588Y-83197772D01*
X175377769Y-83231441D01*
X175394552Y-83266927D01*
X175407776Y-83303886D01*
X175417314Y-83341964D01*
X175423074Y-83380793D01*
X175425000Y-83420000D01*
X175425000Y-84220000D01*
X175423074Y-84259207D01*
X175417314Y-84298036D01*
X175407776Y-84336114D01*
X175394552Y-84373073D01*
X175377769Y-84408559D01*
X175357588Y-84442228D01*
X175334204Y-84473757D01*
X175307843Y-84502843D01*
X175278757Y-84529204D01*
X175247228Y-84552588D01*
X175213559Y-84572769D01*
X175178073Y-84589552D01*
X175141114Y-84602776D01*
X175103036Y-84612314D01*
X175064207Y-84618074D01*
X175025000Y-84620000D01*
X174225000Y-84620000D01*
X174185793Y-84618074D01*
X174146964Y-84612314D01*
X174108886Y-84602776D01*
X174071927Y-84589552D01*
X174036441Y-84572769D01*
X174002772Y-84552588D01*
X173971243Y-84529204D01*
X173942157Y-84502843D01*
X173915796Y-84473757D01*
X173892412Y-84442228D01*
X173872231Y-84408559D01*
X173855448Y-84373073D01*
X173842224Y-84336114D01*
X173832686Y-84298036D01*
X173826926Y-84259207D01*
X173825000Y-84220000D01*
X173825000Y-83420000D01*
X173826926Y-83380793D01*
X173832686Y-83341964D01*
X173842224Y-83303886D01*
X173855448Y-83266927D01*
X173872231Y-83231441D01*
X173892412Y-83197772D01*
X173915796Y-83166243D01*
X173942157Y-83137157D01*
X173971243Y-83110796D01*
X174002772Y-83087412D01*
X174036441Y-83067231D01*
X174071927Y-83050448D01*
X174108886Y-83037224D01*
X174146964Y-83027686D01*
X174185793Y-83021926D01*
X174225000Y-83020000D01*
X175025000Y-83020000D01*
X175064207Y-83021926D01*
X175064207Y-83021926D01*
G37*
D39*
X174625000Y-83820000D03*
D31*
X186055000Y-87360000D03*
X186055000Y-85360000D03*
D38*
G36*
X196654207Y-53176926D02*
X196693036Y-53182686D01*
X196731114Y-53192224D01*
X196768073Y-53205448D01*
X196803559Y-53222231D01*
X196837228Y-53242412D01*
X196868757Y-53265796D01*
X196897843Y-53292157D01*
X196924204Y-53321243D01*
X196947588Y-53352772D01*
X196967769Y-53386441D01*
X196984552Y-53421927D01*
X196997776Y-53458886D01*
X197007314Y-53496964D01*
X197013074Y-53535793D01*
X197015000Y-53575000D01*
X197015000Y-54375000D01*
X197013074Y-54414207D01*
X197007314Y-54453036D01*
X196997776Y-54491114D01*
X196984552Y-54528073D01*
X196967769Y-54563559D01*
X196947588Y-54597228D01*
X196924204Y-54628757D01*
X196897843Y-54657843D01*
X196868757Y-54684204D01*
X196837228Y-54707588D01*
X196803559Y-54727769D01*
X196768073Y-54744552D01*
X196731114Y-54757776D01*
X196693036Y-54767314D01*
X196654207Y-54773074D01*
X196615000Y-54775000D01*
X195815000Y-54775000D01*
X195775793Y-54773074D01*
X195736964Y-54767314D01*
X195698886Y-54757776D01*
X195661927Y-54744552D01*
X195626441Y-54727769D01*
X195592772Y-54707588D01*
X195561243Y-54684204D01*
X195532157Y-54657843D01*
X195505796Y-54628757D01*
X195482412Y-54597228D01*
X195462231Y-54563559D01*
X195445448Y-54528073D01*
X195432224Y-54491114D01*
X195422686Y-54453036D01*
X195416926Y-54414207D01*
X195415000Y-54375000D01*
X195415000Y-53575000D01*
X195416926Y-53535793D01*
X195422686Y-53496964D01*
X195432224Y-53458886D01*
X195445448Y-53421927D01*
X195462231Y-53386441D01*
X195482412Y-53352772D01*
X195505796Y-53321243D01*
X195532157Y-53292157D01*
X195561243Y-53265796D01*
X195592772Y-53242412D01*
X195626441Y-53222231D01*
X195661927Y-53205448D01*
X195698886Y-53192224D01*
X195736964Y-53182686D01*
X195775793Y-53176926D01*
X195815000Y-53175000D01*
X196615000Y-53175000D01*
X196654207Y-53176926D01*
X196654207Y-53176926D01*
G37*
D39*
X196215000Y-53975000D03*
D38*
G36*
X194114207Y-53176926D02*
X194153036Y-53182686D01*
X194191114Y-53192224D01*
X194228073Y-53205448D01*
X194263559Y-53222231D01*
X194297228Y-53242412D01*
X194328757Y-53265796D01*
X194357843Y-53292157D01*
X194384204Y-53321243D01*
X194407588Y-53352772D01*
X194427769Y-53386441D01*
X194444552Y-53421927D01*
X194457776Y-53458886D01*
X194467314Y-53496964D01*
X194473074Y-53535793D01*
X194475000Y-53575000D01*
X194475000Y-54375000D01*
X194473074Y-54414207D01*
X194467314Y-54453036D01*
X194457776Y-54491114D01*
X194444552Y-54528073D01*
X194427769Y-54563559D01*
X194407588Y-54597228D01*
X194384204Y-54628757D01*
X194357843Y-54657843D01*
X194328757Y-54684204D01*
X194297228Y-54707588D01*
X194263559Y-54727769D01*
X194228073Y-54744552D01*
X194191114Y-54757776D01*
X194153036Y-54767314D01*
X194114207Y-54773074D01*
X194075000Y-54775000D01*
X193275000Y-54775000D01*
X193235793Y-54773074D01*
X193196964Y-54767314D01*
X193158886Y-54757776D01*
X193121927Y-54744552D01*
X193086441Y-54727769D01*
X193052772Y-54707588D01*
X193021243Y-54684204D01*
X192992157Y-54657843D01*
X192965796Y-54628757D01*
X192942412Y-54597228D01*
X192922231Y-54563559D01*
X192905448Y-54528073D01*
X192892224Y-54491114D01*
X192882686Y-54453036D01*
X192876926Y-54414207D01*
X192875000Y-54375000D01*
X192875000Y-53575000D01*
X192876926Y-53535793D01*
X192882686Y-53496964D01*
X192892224Y-53458886D01*
X192905448Y-53421927D01*
X192922231Y-53386441D01*
X192942412Y-53352772D01*
X192965796Y-53321243D01*
X192992157Y-53292157D01*
X193021243Y-53265796D01*
X193052772Y-53242412D01*
X193086441Y-53222231D01*
X193121927Y-53205448D01*
X193158886Y-53192224D01*
X193196964Y-53182686D01*
X193235793Y-53176926D01*
X193275000Y-53175000D01*
X194075000Y-53175000D01*
X194114207Y-53176926D01*
X194114207Y-53176926D01*
G37*
D39*
X193675000Y-53975000D03*
D44*
X64135000Y-87630000D03*
X66675000Y-87630000D03*
X69215000Y-87630000D03*
X71755000Y-87630000D03*
X191135000Y-87630000D03*
X193675000Y-87630000D03*
X196215000Y-87630000D03*
X198755000Y-87630000D03*
D33*
X196485000Y-85090000D03*
X198485000Y-85090000D03*
D41*
X106045000Y-88265000D03*
X95885000Y-88265000D03*
D45*
X108146000Y-77470000D03*
X107246000Y-77470000D03*
D46*
X158750000Y-77480000D03*
X153670000Y-77480000D03*
X154940000Y-77480000D03*
X156210000Y-77480000D03*
X157480000Y-77480000D03*
X160020000Y-77480000D03*
X161290000Y-77480000D03*
X162560000Y-77480000D03*
X163830000Y-77480000D03*
X165100000Y-77480000D03*
D47*
X147885000Y-59520000D03*
X147885000Y-70950000D03*
X147885000Y-62060000D03*
X147885000Y-64600000D03*
X147885000Y-65870000D03*
X147885000Y-72220000D03*
X147885000Y-73490000D03*
X147885000Y-63330000D03*
X147885000Y-69680000D03*
X147885000Y-56980000D03*
X147885000Y-60790000D03*
X147885000Y-68410000D03*
X147885000Y-67140000D03*
X147885000Y-58250000D03*
X170885000Y-73490000D03*
X170885000Y-72220000D03*
X170885000Y-70950000D03*
X170885000Y-69680000D03*
X170885000Y-68410000D03*
X170885000Y-67140000D03*
X170885000Y-65870000D03*
X170885000Y-64600000D03*
X170885000Y-63330000D03*
X170885000Y-62060000D03*
X170885000Y-60790000D03*
X170885000Y-59520000D03*
X170885000Y-58250000D03*
X170885000Y-56980000D03*
D48*
X160085000Y-64380000D03*
D49*
X150385000Y-56980000D03*
X150385000Y-58250000D03*
X150385000Y-59520000D03*
X150385000Y-60790000D03*
X150385000Y-62060000D03*
X150385000Y-63330000D03*
X150385000Y-64600000D03*
X150385000Y-65870000D03*
X150385000Y-67140000D03*
X150385000Y-68410000D03*
X150385000Y-69680000D03*
X150385000Y-70950000D03*
X150385000Y-72220000D03*
X150385000Y-73490000D03*
D50*
X153670000Y-74980000D03*
X154940000Y-74980000D03*
X156210000Y-74980000D03*
X157480000Y-74980000D03*
X158750000Y-74980000D03*
X160020000Y-74980000D03*
X161290000Y-74980000D03*
X162560000Y-74980000D03*
X163830000Y-74980000D03*
X165100000Y-74980000D03*
D49*
X168385000Y-73490000D03*
X168385000Y-72220000D03*
X168385000Y-70950000D03*
X168385000Y-69680000D03*
X168385000Y-68410000D03*
X168385000Y-67140000D03*
X168385000Y-65870000D03*
X168385000Y-64600000D03*
X168385000Y-63330000D03*
X168385000Y-62060000D03*
X168385000Y-60790000D03*
X168385000Y-59520000D03*
X168385000Y-58250000D03*
X168385000Y-56980000D03*
D36*
X140017500Y-66040000D03*
X138112500Y-66040000D03*
D31*
X131445000Y-72660000D03*
X131445000Y-74660000D03*
D16*
X119275000Y-57440000D03*
X128375000Y-57440000D03*
X128375000Y-61940000D03*
X119275000Y-61940000D03*
D51*
X102455980Y-77470000D03*
X104554020Y-77470000D03*
D33*
X56245000Y-177800000D03*
X54245000Y-177800000D03*
X137525000Y-142240000D03*
X135525000Y-142240000D03*
X56245000Y-106680000D03*
X54245000Y-106680000D03*
D26*
X55245000Y-240030000D03*
D25*
X57645000Y-240030000D03*
X56942056Y-241727056D03*
X55245000Y-242430000D03*
X53547944Y-241727056D03*
X52845000Y-240030000D03*
X53547944Y-238332944D03*
X55245000Y-237630000D03*
X56942056Y-238332944D03*
D26*
X207645000Y-240030000D03*
D25*
X210045000Y-240030000D03*
X209342056Y-241727056D03*
X207645000Y-242430000D03*
X205947944Y-241727056D03*
X205245000Y-240030000D03*
X205947944Y-238332944D03*
X207645000Y-237630000D03*
X209342056Y-238332944D03*
D26*
X95885000Y-149225000D03*
D25*
X98285000Y-149225000D03*
X97582056Y-150922056D03*
X95885000Y-151625000D03*
X94187944Y-150922056D03*
X93485000Y-149225000D03*
X94187944Y-147527944D03*
X95885000Y-146825000D03*
X97582056Y-147527944D03*
D26*
X167005000Y-149225000D03*
D25*
X169405000Y-149225000D03*
X168702056Y-150922056D03*
X167005000Y-151625000D03*
X165307944Y-150922056D03*
X164605000Y-149225000D03*
X165307944Y-147527944D03*
X167005000Y-146825000D03*
X168702056Y-147527944D03*
D26*
X167005000Y-220345000D03*
D25*
X169405000Y-220345000D03*
X168702056Y-222042056D03*
X167005000Y-222745000D03*
X165307944Y-222042056D03*
X164605000Y-220345000D03*
X165307944Y-218647944D03*
X167005000Y-217945000D03*
X168702056Y-218647944D03*
D26*
X95885000Y-220345000D03*
D25*
X98285000Y-220345000D03*
X97582056Y-222042056D03*
X95885000Y-222745000D03*
X94187944Y-222042056D03*
X93485000Y-220345000D03*
X94187944Y-218647944D03*
X95885000Y-217945000D03*
X97582056Y-218647944D03*
D41*
X95885000Y-131445000D03*
X106045000Y-131445000D03*
X146685000Y-131445000D03*
X136525000Y-131445000D03*
D52*
X53975000Y-91694000D03*
X53975000Y-93726000D03*
X54991000Y-91694000D03*
X52959000Y-91694000D03*
X52959000Y-93726000D03*
X54991000Y-93726000D03*
X208915000Y-91694000D03*
X208915000Y-93726000D03*
X209931000Y-91694000D03*
X207899000Y-91694000D03*
X207899000Y-93726000D03*
X209931000Y-93726000D03*
X53340000Y-233934000D03*
X53340000Y-235966000D03*
X54356000Y-233934000D03*
X52324000Y-233934000D03*
X52324000Y-235966000D03*
X54356000Y-235966000D03*
X95885000Y-233934000D03*
X95885000Y-235966000D03*
X96901000Y-233934000D03*
X94869000Y-233934000D03*
X94869000Y-235966000D03*
X96901000Y-235966000D03*
X126365000Y-233934000D03*
X126365000Y-235966000D03*
X127381000Y-233934000D03*
X125349000Y-233934000D03*
X125349000Y-235966000D03*
X127381000Y-235966000D03*
X136525000Y-233934000D03*
X136525000Y-235966000D03*
X137541000Y-233934000D03*
X135509000Y-233934000D03*
X135509000Y-235966000D03*
X137541000Y-235966000D03*
X167005000Y-233934000D03*
X167005000Y-235966000D03*
X168021000Y-233934000D03*
X165989000Y-233934000D03*
X165989000Y-235966000D03*
X168021000Y-235966000D03*
X209550000Y-233934000D03*
X209550000Y-235966000D03*
X210566000Y-233934000D03*
X208534000Y-233934000D03*
X208534000Y-235966000D03*
X210566000Y-235966000D03*
D53*
X56515000Y-231775000D03*
D54*
X53975000Y-231775000D03*
D30*
X53975000Y-97472500D03*
X53975000Y-95567500D03*
X56515000Y-97472500D03*
X56515000Y-95567500D03*
D36*
X101917500Y-53975000D03*
X100012500Y-53975000D03*
X170497500Y-53975000D03*
X172402500Y-53975000D03*
D55*
X187325000Y-217170000D03*
X187325000Y-199390000D03*
X187325000Y-181610000D03*
X187325000Y-163830000D03*
X187325000Y-146050000D03*
X187325000Y-128270000D03*
X187325000Y-110490000D03*
X75565000Y-217170000D03*
X75565000Y-199390000D03*
X75565000Y-181610000D03*
X75565000Y-163830000D03*
X75565000Y-146050000D03*
X75565000Y-128270000D03*
X75565000Y-110490000D03*
X202565000Y-199390000D03*
X192405000Y-199390000D03*
X182245000Y-199390000D03*
X172085000Y-199390000D03*
X161925000Y-199390000D03*
X151765000Y-199390000D03*
X141605000Y-199390000D03*
X131445000Y-199390000D03*
X121285000Y-199390000D03*
X111125000Y-199390000D03*
X100965000Y-199390000D03*
X90805000Y-199390000D03*
X80645000Y-199390000D03*
X70485000Y-199390000D03*
X60325000Y-199390000D03*
X202565000Y-128270000D03*
X192405000Y-128270000D03*
X182245000Y-128270000D03*
X172085000Y-128270000D03*
X161925000Y-128270000D03*
X151765000Y-128270000D03*
X141605000Y-128270000D03*
X131445000Y-128270000D03*
X121285000Y-128270000D03*
X111125000Y-128270000D03*
X100965000Y-128270000D03*
X90805000Y-128270000D03*
X80645000Y-128270000D03*
X70485000Y-128270000D03*
X60325000Y-128270000D03*
D33*
X137525000Y-106680000D03*
X135525000Y-106680000D03*
X206645000Y-114300000D03*
X208645000Y-114300000D03*
X125365000Y-114300000D03*
X127365000Y-114300000D03*
X56245000Y-142240000D03*
X54245000Y-142240000D03*
X206645000Y-149860000D03*
X208645000Y-149860000D03*
X125365000Y-149860000D03*
X127365000Y-149860000D03*
X137525000Y-177800000D03*
X135525000Y-177800000D03*
X206645000Y-185420000D03*
X208645000Y-185420000D03*
X125365000Y-185420000D03*
X127365000Y-185420000D03*
X56245000Y-213360000D03*
X54245000Y-213360000D03*
X137525000Y-213360000D03*
X135525000Y-213360000D03*
X206645000Y-220980000D03*
X208645000Y-220980000D03*
X125365000Y-220980000D03*
X127365000Y-220980000D03*
D30*
X60833000Y-79819500D03*
X60833000Y-81724500D03*
X60833000Y-72707500D03*
X60833000Y-70802500D03*
M02*
