M48
INCH,TZ
T1C0.0197
T2C0.0236
T3C0.0250
T4C0.0335
T5C0.0400
T6C0.0402
T7C0.0472
T8C0.1260
T9C0.0200
T10C0.0500
T11C0.0800
T12C0.1260
%
G90
G05
T1
X020250Y-038000
X020250Y-038750
X020250Y-040000
X022600Y-031600
X023000Y-038000
X023050Y-031600
X023250Y-030750
X023500Y-031250
X023750Y-030000
X024000Y-028750
X024250Y-031500
X024500Y-033250
X025000Y-033250
X025500Y-033250
X026000Y-033250
X026500Y-031500
X026500Y-032000
X026500Y-032750
X029250Y-029250
X030000Y-024000
X030000Y-025750
X030250Y-022000
X030750Y-024000
X032500Y-030000
X034250Y-028250
X034250Y-028750
X034250Y-029250
X034250Y-029750
X034250Y-030250
X034250Y-030750
X034750Y-028250
X036250Y-038000
X036750Y-024000
X037000Y-026250
X037000Y-027000
X037000Y-027750
X037000Y-028500
X037000Y-029250
X037750Y-026250
X037750Y-029250
X038250Y-027500
X038250Y-028000
X038250Y-028500
X038750Y-026250
X038750Y-027000
X038750Y-029250
X039250Y-027000
X039750Y-026250
X039750Y-027000
X039750Y-029250
X040250Y-027000
X040500Y-038000
X040750Y-026250
X040750Y-027000
X040750Y-029250
X041250Y-027500
X041250Y-028000
X041250Y-028500
X041750Y-023000
X041750Y-026250
X041750Y-029250
X042750Y-024000
X042750Y-026250
X042750Y-029250
X043750Y-023000
X043750Y-026250
X043750Y-029250
X044650Y-035500
X044750Y-026250
X044750Y-029250
X045200Y-035500
X045750Y-026250
X045750Y-029250
X046550Y-033650
X046550Y-034150
X046750Y-026250
X046750Y-029250
X047750Y-026250
X047750Y-029250
X048750Y-023500
X048750Y-026250
X048750Y-029250
X049750Y-026250
X049750Y-027000
X049750Y-027750
X049750Y-028500
X049750Y-029250
X051750Y-026250
X052559Y-025886
X053000Y-027250
X053750Y-027750
X053750Y-029000
X053750Y-030750
X054750Y-030750
X055500Y-030750
X055750Y-028000
X056250Y-030750
X057250Y-042000
X057874Y-030118
X058465Y-030118
X061250Y-042000
X065250Y-042000
X065984Y-029961
X066496Y-029961
X069250Y-042000
X070669Y-025197
X070965Y-027953
X072000Y-027750
X072250Y-028250
X072500Y-026750
X075000Y-023250
X075000Y-031250
X036805Y-086750
X037082Y-086082
X037082Y-087418
X037750Y-085805
X037750Y-087695
X038418Y-086082
X038418Y-087418
X038695Y-086750
X020805Y-034500
X021082Y-033832
X021082Y-035168
X021750Y-033555
X021750Y-035445
X022418Y-033832
X022418Y-035168
X022695Y-034500
X036805Y-058750
X037082Y-058082
X037082Y-059418
X037750Y-057805
X037750Y-059695
X038418Y-058082
X038418Y-059418
X038695Y-058750
X080805Y-094500
X081082Y-093832
X081082Y-095168
X081750Y-093555
X081750Y-095445
X082418Y-093832
X082418Y-095168
X082695Y-094500
X080805Y-034500
X081082Y-033832
X081082Y-035168
X081750Y-033555
X081750Y-035445
X082418Y-033832
X082418Y-035168
X082695Y-034500
X058222Y-022433
X058222Y-022933
X058222Y-023433
X058222Y-023933
X058222Y-024433
X058222Y-024933
X058222Y-025433
X058222Y-025933
X058222Y-026433
X058222Y-026933
X058222Y-027433
X058222Y-027933
X058222Y-028433
X058222Y-028933
X060500Y-030504
X061000Y-030504
X061500Y-030504
X062000Y-030504
X062500Y-030504
X063000Y-030504
X063500Y-030504
X064000Y-030504
X064500Y-030504
X065000Y-030504
X067278Y-022433
X067278Y-022933
X067278Y-023433
X067278Y-023933
X067278Y-024433
X067278Y-024933
X067278Y-025433
X067278Y-025933
X067278Y-026433
X067278Y-026933
X067278Y-027433
X067278Y-027933
X067278Y-028433
X067278Y-028933
X020805Y-094500
X021082Y-093832
X021082Y-095168
X021750Y-093555
X021750Y-095445
X022418Y-093832
X022418Y-095168
X022695Y-094500
X064805Y-058750
X065082Y-058082
X065082Y-059418
X065750Y-057805
X065750Y-059695
X066418Y-058082
X066418Y-059418
X066695Y-058750
X027500Y-030250
X027500Y-030750
X027750Y-030500
X028000Y-030250
X028000Y-030750
X064805Y-086750
X065082Y-086082
X065082Y-087418
X065750Y-085805
X065750Y-087695
X066418Y-086082
X066418Y-087418
X066695Y-086750
T3
X073396Y-060409
X074104Y-060409
X021396Y-040591
X022104Y-040591
X029396Y-082591
X030104Y-082591
X073396Y-040591
X074104Y-040591
X077396Y-054591
X078104Y-054591
X073396Y-054591
X074104Y-054591
X057396Y-088409
X058104Y-088409
X045396Y-088409
X046104Y-088409
X037396Y-088409
X038104Y-088409
X021396Y-046409
X022104Y-046409
X069396Y-046409
X070104Y-046409
X053396Y-068591
X054104Y-068591
X045396Y-060409
X046104Y-060409
X033396Y-082591
X034104Y-082591
X073396Y-068591
X074104Y-068591
X069396Y-068591
X070104Y-068591
X081396Y-088409
X082104Y-088409
X045396Y-054591
X046104Y-054591
X069396Y-054591
X070104Y-054591
X033396Y-054591
X034104Y-054591
X065396Y-040591
X066104Y-040591
X021396Y-082591
X022104Y-082591
X041396Y-046409
X042104Y-046409
X041396Y-074409
X042104Y-074409
X037396Y-082591
X038104Y-082591
X065396Y-082591
X066104Y-082591
X073396Y-088409
X074104Y-088409
X061396Y-074409
X062104Y-074409
X077396Y-088409
X078104Y-088409
X025396Y-046409
X026104Y-046409
X077396Y-060409
X078104Y-060409
X029396Y-040591
X030104Y-040591
X049396Y-074409
X050104Y-074409
X065396Y-046409
X066104Y-046409
X069396Y-082591
X070104Y-082591
X041396Y-088409
X042104Y-088409
X053396Y-046409
X054104Y-046409
X025396Y-054591
X026104Y-054591
X073396Y-046409
X074104Y-046409
X033396Y-040591
X034104Y-040591
X061396Y-046409
X062104Y-046409
X045396Y-068591
X046104Y-068591
X037396Y-054591
X038104Y-054591
X025396Y-088409
X026104Y-088409
X021396Y-060409
X022104Y-060409
X029396Y-074409
X030104Y-074409
X061396Y-088409
X062104Y-088409
X053396Y-054591
X054104Y-054591
X025396Y-074409
X026104Y-074409
X081396Y-060409
X082104Y-060409
X049396Y-040591
X050104Y-040591
X033396Y-068591
X034104Y-068591
X081396Y-040591
X082104Y-040591
X057396Y-082591
X058104Y-082591
X069396Y-060409
X070104Y-060409
X065396Y-060409
X066104Y-060409
X061396Y-068591
X062104Y-068591
X065396Y-054591
X066104Y-054591
X049396Y-054591
X050104Y-054591
X073396Y-074409
X074104Y-074409
X069396Y-040591
X070104Y-040591
X081396Y-046409
X082104Y-046409
X065396Y-088409
X066104Y-088409
X033396Y-088409
X034104Y-088409
X053396Y-074409
X054104Y-074409
X065396Y-074409
X066104Y-074409
X025396Y-040591
X026104Y-040591
X069396Y-088409
X070104Y-088409
X021396Y-068591
X022104Y-068591
X077396Y-040591
X078104Y-040591
X061396Y-060409
X062104Y-060409
X029396Y-060409
X030104Y-060409
X061396Y-054591
X062104Y-054591
X025396Y-060409
X026104Y-060409
X045396Y-074409
X046104Y-074409
X037396Y-074409
X038104Y-074409
X057396Y-074409
X058104Y-074409
X045396Y-046409
X046104Y-046409
X057396Y-068591
X058104Y-068591
X041396Y-082591
X042104Y-082591
X021396Y-054591
X022104Y-054591
X081396Y-074409
X082104Y-074409
X037396Y-040591
X038104Y-040591
X045396Y-082591
X046104Y-082591
X041396Y-054591
X042104Y-054591
X033396Y-046409
X034104Y-046409
X049396Y-082591
X050104Y-082591
X041396Y-060409
X042104Y-060409
X057396Y-060409
X058104Y-060409
X053396Y-060409
X054104Y-060409
X053396Y-082591
X054104Y-082591
X081396Y-054591
X082104Y-054591
X077396Y-082591
X078104Y-082591
X077396Y-068591
X078104Y-068591
X041396Y-068591
X042104Y-068591
X029396Y-046409
X030104Y-046409
X049396Y-046409
X050104Y-046409
X029396Y-054591
X030104Y-054591
X057396Y-040591
X058104Y-040591
X025396Y-082591
X026104Y-082591
X025396Y-068591
X026104Y-068591
X073396Y-082591
X074104Y-082591
X053396Y-040591
X054104Y-040591
X053396Y-088409
X054104Y-088409
X029396Y-088409
X030104Y-088409
X049396Y-060409
X050104Y-060409
X037396Y-068591
X038104Y-068591
X069396Y-074409
X070104Y-074409
X049396Y-068591
X050104Y-068591
X077396Y-074409
X078104Y-074409
X057396Y-054591
X058104Y-054591
X037396Y-060409
X038104Y-060409
X041396Y-040591
X042104Y-040591
X049396Y-088409
X050104Y-088409
X057396Y-046409
X058104Y-046409
X061396Y-040591
X062104Y-040591
X033396Y-074409
X034104Y-074409
X061396Y-082591
X062104Y-082591
X033396Y-060409
X034104Y-060409
X021396Y-074409
X022104Y-074409
X021396Y-088409
X022104Y-088409
X029396Y-068591
X030104Y-068591
X065396Y-068591
X066104Y-068591
X081396Y-082591
X082104Y-082591
X045396Y-040591
X046104Y-040591
X081396Y-068591
X082104Y-068591
X077396Y-046409
X078104Y-046409
X037396Y-046409
X038104Y-046409
T4
X021675Y-029516
X021675Y-031484
T5
X069750Y-033000
X069750Y-034000
X069750Y-035000
X070750Y-033000
X070750Y-034000
X070750Y-035000
T6
X068750Y-035000
X071750Y-033000
X075250Y-034500
X076250Y-034500
X077250Y-034500
X078250Y-034500
X068750Y-034000
X071750Y-034000
X025250Y-034500
X026250Y-034500
X027250Y-034500
X028250Y-034500
X075250Y-021250
X021250Y-091250
X022250Y-091250
X068750Y-033000
X071750Y-035000
X076250Y-021250
X077250Y-021250
T7
X032750Y-021250
X034750Y-021250
X068750Y-021250
X070750Y-021250
T8
X081750Y-034500
X021750Y-094500
X065750Y-058750
X037750Y-034750
X065750Y-086750
X041750Y-051750
X037750Y-051750
X037750Y-086750
X021750Y-034500
X053750Y-034750
X053750Y-051750
X041750Y-034750
X037750Y-058750
X057750Y-034750
X081750Y-094500
X057750Y-051750
T9
X081850Y-036100
X081850Y-036900
X082250Y-036100
X082250Y-036900
X082650Y-036100
X082650Y-036900
X082100Y-092100
X082100Y-092900
X082500Y-092100
X082500Y-092900
X082900Y-092100
X082900Y-092900
X020600Y-092100
X020600Y-092900
X021000Y-092100
X021000Y-092900
X021400Y-092100
X021400Y-092900
X065350Y-092100
X065350Y-092900
X065750Y-092100
X065750Y-092900
X066150Y-092100
X066150Y-092900
X020850Y-036100
X020850Y-036900
X021250Y-036100
X021250Y-036900
X021650Y-036100
X021650Y-036900
X037350Y-092100
X037350Y-092900
X037750Y-092100
X037750Y-092900
X038150Y-092100
X038150Y-092900
X053350Y-092100
X053350Y-092900
X053750Y-092100
X053750Y-092900
X054150Y-092100
X054150Y-092900
X049350Y-092100
X049350Y-092900
X049750Y-092100
X049750Y-092900
X050150Y-092100
X050150Y-092900
T10
X033750Y-021250
X069750Y-021250
T11
X059750Y-050500
X063750Y-078500
X079750Y-078500
X071750Y-078500
X073750Y-071500
X029750Y-085500
X073750Y-085500
X073750Y-050500
X075750Y-050500
X039750Y-078500
X051750Y-050500
X029750Y-057500
X027750Y-078500
X079750Y-050500
X067750Y-050500
X035750Y-050500
X043750Y-078500
X029750Y-064500
X067750Y-078500
X023750Y-050500
X029750Y-078500
X075750Y-078500
X073750Y-064500
X059750Y-078500
X029750Y-071500
X035750Y-078500
X073750Y-057500
X055750Y-078500
X055750Y-050500
X051750Y-078500
X039750Y-050500
X047750Y-050500
X023750Y-078500
X031750Y-078500
X029750Y-050500
X031750Y-050500
X071750Y-050500
X029750Y-043500
X047750Y-078500
X073750Y-078500
X063750Y-050500
X027750Y-050500
X073750Y-043500
X043750Y-050500
T12
X021250Y-021000
X082250Y-021000
T2
X020474Y-029122G85X020750Y-029122
G05
X020750Y-031878G85X020474Y-031878
G05
T0
M30
