G04 #@! TF.GenerationSoftware,KiCad,Pcbnew,no-vcs-found-bf44d39~61~ubuntu16.04.1*
G04 #@! TF.CreationDate,2018-01-13T17:44:10+05:30*
G04 #@! TF.ProjectId,KlokTHREEjr,4B6C6F6B54485245456A722E6B696361,rev 1*
G04 #@! TF.SameCoordinates,Original*
G04 #@! TF.FileFunction,Paste,Bot*
G04 #@! TF.FilePolarity,Positive*
%FSLAX46Y46*%
G04 Gerber Fmt 4.6, Leading zero omitted, Abs format (unit mm)*
G04 Created by KiCad (PCBNEW no-vcs-found-bf44d39~61~ubuntu16.04.1) date Sat Jan 13 17:44:10 2018*
%MOMM*%
%LPD*%
G01*
G04 APERTURE LIST*
%ADD10R,1.550000X1.350000*%
%ADD11R,1.300480X1.498600*%
%ADD12R,1.998980X0.599440*%
%ADD13R,1.350000X1.550000*%
%ADD14R,3.048000X3.048000*%
%ADD15R,1.498600X1.300480*%
%ADD16R,1.200000X0.900000*%
%ADD17R,0.500000X0.250000*%
%ADD18C,17.780000*%
%ADD19R,5.080000X2.794000*%
%ADD20R,1.005000X1.005000*%
%ADD21O,0.300000X0.850000*%
%ADD22O,0.850000X0.300000*%
%ADD23R,0.600000X0.400000*%
%ADD24R,1.198880X1.198880*%
%ADD25R,2.100000X1.400000*%
%ADD26R,1.900000X1.500000*%
%ADD27R,1.350000X0.400000*%
%ADD28R,0.400000X0.650000*%
%ADD29R,3.800000X2.000000*%
%ADD30R,1.500000X2.000000*%
%ADD31R,2.000000X1.000000*%
%ADD32R,1.000000X2.000000*%
%ADD33R,4.000000X4.000000*%
G04 APERTURE END LIST*
D10*
X131445000Y-74660000D03*
X131445000Y-72660000D03*
D11*
X138112500Y-66040000D03*
X140017500Y-66040000D03*
D12*
X186260740Y-67945000D03*
X186260740Y-69215000D03*
X186260740Y-70485000D03*
X186260740Y-71755000D03*
X186260740Y-73025000D03*
X186260740Y-74295000D03*
X186260740Y-75565000D03*
X186260740Y-76835000D03*
X176959260Y-76835000D03*
X176959260Y-75565000D03*
X176959260Y-74295000D03*
X176959260Y-73025000D03*
X176959260Y-71755000D03*
X176959260Y-70485000D03*
X176959260Y-69215000D03*
X176959260Y-67945000D03*
D13*
X66405000Y-85090000D03*
X64405000Y-85090000D03*
D14*
X178181000Y-58293000D03*
X186309000Y-58293000D03*
D15*
X70485000Y-63817500D03*
X70485000Y-61912500D03*
X85725000Y-63817500D03*
X85725000Y-61912500D03*
D16*
X59690000Y-83565000D03*
X59690000Y-80265000D03*
D17*
X66040000Y-81540000D03*
X66040000Y-82290000D03*
X62865000Y-81540000D03*
X62865000Y-82290000D03*
D18*
X200025000Y-69215000D03*
D19*
X200025000Y-58293000D03*
X200025000Y-80137000D03*
D20*
X69647500Y-78307500D03*
X69647500Y-76632500D03*
X71322500Y-78307500D03*
X71322500Y-76632500D03*
D21*
X68985000Y-79920000D03*
X69485000Y-79920000D03*
X69985000Y-79920000D03*
X70485000Y-79920000D03*
X70985000Y-79920000D03*
X71485000Y-79920000D03*
X71985000Y-79920000D03*
D22*
X72935000Y-78970000D03*
X72935000Y-78470000D03*
X72935000Y-77970000D03*
X72935000Y-77470000D03*
X72935000Y-76970000D03*
X72935000Y-76470000D03*
X72935000Y-75970000D03*
D21*
X71985000Y-75020000D03*
X71485000Y-75020000D03*
X70985000Y-75020000D03*
X70485000Y-75020000D03*
X69985000Y-75020000D03*
X69485000Y-75020000D03*
X68985000Y-75020000D03*
D22*
X68035000Y-75970000D03*
X68035000Y-76470000D03*
X68035000Y-76970000D03*
X68035000Y-77470000D03*
X68035000Y-77970000D03*
X68035000Y-78470000D03*
X68035000Y-78970000D03*
D23*
X88900000Y-77020000D03*
X88900000Y-77920000D03*
D24*
X91440000Y-76420980D03*
X91440000Y-78519020D03*
D25*
X119275000Y-61940000D03*
X128375000Y-61940000D03*
X128375000Y-57440000D03*
X119275000Y-57440000D03*
X104035000Y-61940000D03*
X113135000Y-61940000D03*
X113135000Y-57440000D03*
X104035000Y-57440000D03*
X67415000Y-57440000D03*
X58315000Y-57440000D03*
X58315000Y-61940000D03*
X67415000Y-61940000D03*
X143615000Y-57440000D03*
X134515000Y-57440000D03*
X134515000Y-61940000D03*
X143615000Y-61940000D03*
X88795000Y-61940000D03*
X97895000Y-61940000D03*
X97895000Y-57440000D03*
X88795000Y-57440000D03*
X73555000Y-61940000D03*
X82655000Y-61940000D03*
X82655000Y-57440000D03*
X73555000Y-57440000D03*
D26*
X52355000Y-76470000D03*
D27*
X55055000Y-78120000D03*
X55055000Y-78770000D03*
X55055000Y-76170000D03*
X55055000Y-76820000D03*
X55055000Y-77470000D03*
D26*
X52355000Y-78470000D03*
D15*
X53975000Y-97472500D03*
X53975000Y-95567500D03*
X56515000Y-97472500D03*
X56515000Y-95567500D03*
X182880000Y-65087500D03*
X182880000Y-63182500D03*
X185420000Y-65087500D03*
X185420000Y-63182500D03*
X177800000Y-65087500D03*
X177800000Y-63182500D03*
X180340000Y-65087500D03*
X180340000Y-63182500D03*
X116205000Y-63817500D03*
X116205000Y-61912500D03*
X100965000Y-63817500D03*
X100965000Y-61912500D03*
D11*
X64452500Y-99695000D03*
X66357500Y-99695000D03*
X197167500Y-99695000D03*
X195262500Y-99695000D03*
X198437500Y-227330000D03*
X196532500Y-227330000D03*
X65722500Y-227330000D03*
X67627500Y-227330000D03*
D13*
X180610000Y-79375000D03*
X182610000Y-79375000D03*
D14*
X90424000Y-71755000D03*
X82296000Y-71755000D03*
X107950000Y-70866000D03*
X107950000Y-78994000D03*
D13*
X63770000Y-64770000D03*
X65770000Y-64770000D03*
D10*
X131445000Y-55515000D03*
X131445000Y-57515000D03*
D14*
X65024000Y-71755000D03*
X56896000Y-71755000D03*
D13*
X63770000Y-67945000D03*
X65770000Y-67945000D03*
D14*
X69596000Y-71755000D03*
X77724000Y-71755000D03*
D13*
X70850000Y-67945000D03*
X68850000Y-67945000D03*
D10*
X173863000Y-52721000D03*
X173863000Y-54721000D03*
D28*
X133970000Y-70170000D03*
X135270000Y-70170000D03*
X134620000Y-72070000D03*
X134620000Y-70170000D03*
X135270000Y-72070000D03*
X133970000Y-72070000D03*
D15*
X131445000Y-69532500D03*
X131445000Y-67627500D03*
X95250000Y-78422500D03*
X95250000Y-76517500D03*
X55245000Y-61912500D03*
X55245000Y-63817500D03*
X131445000Y-61912500D03*
X131445000Y-63817500D03*
D11*
X138112500Y-76200000D03*
X140017500Y-76200000D03*
X138112500Y-73660000D03*
X140017500Y-73660000D03*
X140017500Y-71120000D03*
X138112500Y-71120000D03*
X138112500Y-68580000D03*
X140017500Y-68580000D03*
D29*
X100965000Y-70510000D03*
D30*
X100965000Y-76810000D03*
X98665000Y-76810000D03*
X103265000Y-76810000D03*
D31*
X168385000Y-56980000D03*
X168385000Y-58250000D03*
X168385000Y-59520000D03*
X168385000Y-60790000D03*
X168385000Y-62060000D03*
X168385000Y-63330000D03*
X168385000Y-64600000D03*
X168385000Y-65870000D03*
X168385000Y-67140000D03*
X168385000Y-68410000D03*
X168385000Y-69680000D03*
X168385000Y-70950000D03*
X168385000Y-72220000D03*
X168385000Y-73490000D03*
D32*
X165100000Y-74980000D03*
X163830000Y-74980000D03*
X162560000Y-74980000D03*
X161290000Y-74980000D03*
X160020000Y-74980000D03*
X158750000Y-74980000D03*
X157480000Y-74980000D03*
X156210000Y-74980000D03*
X154940000Y-74980000D03*
X153670000Y-74980000D03*
D31*
X150385000Y-73490000D03*
X150385000Y-72220000D03*
X150385000Y-70950000D03*
X150385000Y-69680000D03*
X150385000Y-68410000D03*
X150385000Y-67140000D03*
X150385000Y-65870000D03*
X150385000Y-64600000D03*
X150385000Y-63330000D03*
X150385000Y-62060000D03*
X150385000Y-60790000D03*
X150385000Y-59520000D03*
X150385000Y-58250000D03*
X150385000Y-56980000D03*
D33*
X160085000Y-64380000D03*
D13*
X198485000Y-85090000D03*
X196485000Y-85090000D03*
D10*
X186055000Y-85360000D03*
X186055000Y-87360000D03*
M02*
