<?xml version="1.0" encoding="UTF-8" standalone="no"?>
<svg
   xmlns:dc="http://purl.org/dc/elements/1.1/"
   xmlns:cc="http://creativecommons.org/ns#"
   xmlns:rdf="http://www.w3.org/1999/02/22-rdf-syntax-ns#"
   xmlns:svg="http://www.w3.org/2000/svg"
   xmlns="http://www.w3.org/2000/svg"
   xmlns:sodipodi="http://sodipodi.sourceforge.net/DTD/sodipodi-0.dtd"
   xmlns:inkscape="http://www.inkscape.org/namespaces/inkscape"
   version="1.1"
   width="85.439995mm"
   height="29.052mm"
   viewBox="0 0 85.439995 29.052"
   id="svg80"
   sodipodi:docname="desk_klok2_spacer.svg"
   inkscape:version="0.92.2 (unknown)">
  <metadata
     id="metadata84">
    <rdf:RDF>
      <cc:Work
         rdf:about="">
        <dc:format>image/svg+xml</dc:format>
        <dc:type
           rdf:resource="http://purl.org/dc/dcmitype/StillImage" />
        <dc:title></dc:title>
      </cc:Work>
    </rdf:RDF>
  </metadata>
  <sodipodi:namedview
     pagecolor="#ffffff"
     bordercolor="#666666"
     borderopacity="1"
     objecttolerance="10"
     gridtolerance="10"
     guidetolerance="10"
     inkscape:pageopacity="0"
     inkscape:pageshadow="2"
     inkscape:window-width="1920"
     inkscape:window-height="1050"
     id="namedview82"
     showgrid="false"
     fit-margin-top="0"
     fit-margin-left="0"
     fit-margin-right="0"
     fit-margin-bottom="0"
     inkscape:zoom="1.0592783"
     inkscape:cx="155.79212"
     inkscape:cy="36.003778"
     inkscape:window-x="0"
     inkscape:window-y="30"
     inkscape:window-maximized="1"
     inkscape:current-layer="svg80" />
  <!-- Working space 0 0 297 210 -->
  <defs
     id="defs12">
    <radialGradient
       id="radialGradient3661"
       gradientUnits="userSpaceOnUse"
       cy="29.149"
       cx="282.64999"
       gradientTransform="matrix(0.14777,0.23089,-0.2468,0.15795,-26.318,-62.617)"
       r="19.570999">
      <stop
         stop-color="#71b2f8"
         offset="0"
         id="stop2" />
      <stop
         stop-color="#002795"
         offset="1"
         id="stop4" />
    </radialGradient>
    <radialGradient
       id="radialGradient3817"
       gradientUnits="userSpaceOnUse"
       cy="33.900002"
       cx="270.57999"
       gradientTransform="matrix(0.26631,0.065024,-0.17931,0.73438,-60.668,-36.938)"
       r="19.570999">
      <stop
         stop-color="#ff6d0f"
         offset="0"
         id="stop7" />
      <stop
         stop-color="#ff1000"
         offset="1"
         id="stop9" />
    </radialGradient>
  </defs>
  <!-- Set display:none to hide FreeCAD Logo -->
  <g
     id="Ortho_0_0"
     transform="rotate(-90,16.684999,-26.034999)">
    <g
       transform="scale(1,-1)"
       id="g77"
       style="fill:none;stroke:#000000;stroke-width:0.34999999;stroke-linecap:butt;stroke-linejoin:miter">
      <path
         id="1"
         d="m -18.669,-17.145 v 34.29"
         inkscape:connector-curvature="0" />
      <path
         d="m -16.764,19.05 a 1.905,1.905 0 0 1 -1.905,-1.905"
         id="path20"
         inkscape:connector-curvature="0" />
      <path
         id="3"
         d="m -16.764,19.05 h 2.286"
         inkscape:connector-curvature="0" />
      <path
         d="m -14.478,19.05 a 1.905,1.905 0 0 1 1.905,1.905"
         id="path23"
         inkscape:connector-curvature="0" />
      <path
         id="5"
         d="m -12.573,20.955 v 0.8255"
         inkscape:connector-curvature="0" />
      <path
         id="6"
         d="m -12.573,21.7805 3.048,0.254"
         inkscape:connector-curvature="0" />
      <path
         id="7"
         d="m -9.525,22.0345 v 1.6256"
         inkscape:connector-curvature="0" />
      <path
         id="8"
         d="m -9.525,23.6601 -3.048,0.254"
         inkscape:connector-curvature="0" />
      <path
         id="9"
         d="M -12.573,38.735 V 23.9141"
         inkscape:connector-curvature="0" />
      <path
         d="m -12.573,38.735 a 3.81,3.81 0 0 1 -7.62,0"
         id="path30"
         inkscape:connector-curvature="0" />
      <path
         id="11"
         d="m -20.193,38.735 v -1.27"
         inkscape:connector-curvature="0" />
      <path
         d="m -24.384,37.465 a 2.0955,2.0955 0 0 1 4.191,0"
         id="path33"
         inkscape:connector-curvature="0" />
      <path
         d="m -24.384,37.465 a 5.08,5.08 0 0 1 -10.16,0"
         id="path35"
         inkscape:connector-curvature="0" />
      <path
         id="14"
         d="M -34.544,37.465 -35.179,23.9268"
         inkscape:connector-curvature="0" />
      <path
         id="15"
         d="m -38.227,23.6728 3.048,0.254"
         inkscape:connector-curvature="0" />
      <path
         id="16"
         d="m -38.227,22.0472 v 1.6256"
         inkscape:connector-curvature="0" />
      <path
         id="17"
         d="m -35.179,21.7932 -3.048,0.254"
         inkscape:connector-curvature="0" />
      <path
         id="18"
         d="m -35.179,17.145 v 4.6482"
         inkscape:connector-curvature="0" />
      <path
         d="m -35.179,17.145 a 1.905,1.905 0 0 1 3.81,0"
         id="path42"
         inkscape:connector-curvature="0" />
      <path
         id="20"
         d="M -31.369,37.465 V 17.145"
         inkscape:connector-curvature="0" />
      <path
         d="m -27.559,37.465 a 1.905,1.905 0 0 1 -3.81,0"
         id="path45"
         inkscape:connector-curvature="0" />
      <path
         id="22"
         d="m -27.559,17.145 v 20.32"
         inkscape:connector-curvature="0" />
      <path
         id="23"
         d="m -27.559,-17.145 v 34.29"
         inkscape:connector-curvature="0" />
      <path
         id="24"
         d="m -27.559,-17.145 v -20.32"
         inkscape:connector-curvature="0" />
      <path
         d="m -31.369,-37.465 a 1.905,1.905 0 0 1 3.81,0"
         id="path50"
         inkscape:connector-curvature="0" />
      <path
         id="26"
         d="m -31.369,-37.465 v 20.32"
         inkscape:connector-curvature="0" />
      <path
         d="m -31.369,-17.145 a 1.905,1.905 0 0 1 -3.81,0"
         id="path53"
         inkscape:connector-curvature="0" />
      <path
         id="28"
         d="m -35.179,-17.145 v -4.6482"
         inkscape:connector-curvature="0" />
      <path
         id="29"
         d="m -35.179,-21.7932 -3.048,-0.254"
         inkscape:connector-curvature="0" />
      <path
         id="30"
         d="m -38.227,-22.0472 v -1.6256"
         inkscape:connector-curvature="0" />
      <path
         id="31"
         d="m -38.227,-23.6728 3.048,-0.254"
         inkscape:connector-curvature="0" />
      <path
         id="32"
         d="m -34.544,-37.465 -0.635,13.5382"
         inkscape:connector-curvature="0" />
      <path
         d="m -34.544,-37.465 a 5.08,5.08 0 0 1 10.16,0"
         id="path60"
         inkscape:connector-curvature="0" />
      <path
         d="m -20.193,-37.465 a 2.0955,2.0955 0 0 1 -4.191,0"
         id="path62"
         inkscape:connector-curvature="0" />
      <path
         id="35"
         d="m -20.193,-37.465 v -1.27"
         inkscape:connector-curvature="0" />
      <path
         d="m -20.193,-38.735 a 3.81,3.81 0 0 1 7.62,0"
         id="path65"
         inkscape:connector-curvature="0" />
      <path
         id="37"
         d="m -12.573,-38.735 v 14.8209"
         inkscape:connector-curvature="0" />
      <path
         id="38"
         d="m -9.525,-23.6601 -3.048,-0.254"
         inkscape:connector-curvature="0" />
      <path
         id="39"
         d="m -9.525,-22.0345 v -1.6256"
         inkscape:connector-curvature="0" />
      <path
         id="40"
         d="m -12.573,-21.7805 3.048,-0.254"
         inkscape:connector-curvature="0" />
      <path
         id="41"
         d="m -12.573,-20.955 v -0.8255"
         inkscape:connector-curvature="0" />
      <path
         d="m -12.573,-20.955 a 1.905,1.905 0 0 1 -1.905,1.905"
         id="path72"
         inkscape:connector-curvature="0" />
      <path
         id="43"
         d="m -16.764,-19.05 h 2.286"
         inkscape:connector-curvature="0" />
      <path
         d="m -18.669,-17.145 a 1.905,1.905 0 0 1 1.905,-1.905"
         id="path75"
         inkscape:connector-curvature="0" />
    </g>
  </g>
</svg>
