<?xml version="1.0"?>
<!DOCTYPE svg PUBLIC "-//W3C//DTD SVG 1.1//EN" "http://www.w3.org/Graphics/SVG/1.1/DTD/svg11.dtd">
<svg width="150.2664mm" height="89.3064mm" viewBox="0 0 150.2664 89.3064" xmlns="http://www.w3.org/2000/svg" version="1.1">
<g id="Pocket003" transform="translate(75.133200,44.653200) scale(1,-1)">
<path id="Pocket003_f0000"  d="M -73.66 30.48 L -73.66 -30.48 L -73.66 -30.48 L -73.66 30.48 L -73.66 30.48 Z " stroke="#191919" stroke-width="0.35 px" style="stroke-width:0.35;stroke-miterlimit:4;stroke-dasharray:none;fill:#aa5500;fill-rule: evenodd "/>
<path id="Pocket003_f0001"  d="M -73.66 -30.48 L -73.66 -30.48 A 12.7 12.7 0 0 1 -60.96 -43.18 L -60.96 -43.18 A 12.7 12.7 0 0 0 -73.66 -30.48 Z " stroke="#191919" stroke-width="0.35 px" style="stroke-width:0.35;stroke-miterlimit:4;stroke-dasharray:none;fill:#aa5500;fill-rule: evenodd "/>
<path id="Pocket003_f0002"  d="M -60.96 43.18 L -60.96 43.18 A 12.7 12.7 0 0 1 -73.66 30.48 L -73.66 30.48 A 12.7 12.7 0 0 0 -60.96 43.18 Z " stroke="#191919" stroke-width="0.35 px" style="stroke-width:0.35;stroke-miterlimit:4;stroke-dasharray:none;fill:#aa5500;fill-rule: evenodd "/>
<circle cx="-22.86" cy="-22.86" r="1.524" stroke="#191919" stroke-width="0.35 px" style="stroke-width:0.35;stroke-miterlimit:4;stroke-dasharray:none;fill:#aa5500"/>
<circle cx="-22.86" cy="-22.86" r="1.524" stroke="#191919" stroke-width="0.35 px" style="stroke-width:0.35;stroke-miterlimit:4;stroke-dasharray:none;fill:#aa5500"/>
<path id="Pocket003_f0005"  d="M -60.96 -43.18 L 60.96 -43.18 L 60.96 -43.18 L -60.96 -43.18 L -60.96 -43.18 Z " stroke="#191919" stroke-width="0.35 px" style="stroke-width:0.35;stroke-miterlimit:4;stroke-dasharray:none;fill:#aa5500;fill-rule: evenodd "/>
<path id="Pocket003_f0006"  d="M 60.96 43.18 L -60.96 43.18 L -60.96 43.18 L 60.96 43.18 L 60.96 43.18 Z " stroke="#191919" stroke-width="0.35 px" style="stroke-width:0.35;stroke-miterlimit:4;stroke-dasharray:none;fill:#aa5500;fill-rule: evenodd "/>
<path id="Pocket003_f0007"  d="M 60.96 -43.18 L 60.96 -43.18 A 12.7 12.7 0 0 1 73.66 -30.48 L 73.66 -30.48 A 12.7 12.7 0 0 0 60.96 -43.18 Z " stroke="#191919" stroke-width="0.35 px" style="stroke-width:0.35;stroke-miterlimit:4;stroke-dasharray:none;fill:#aa5500;fill-rule: evenodd "/>
<path id="Pocket003_f0008"  d="M 73.66 30.48 L 73.66 30.48 A 12.7 12.7 0 0 1 60.96 43.18 L 60.96 43.18 A 12.7 12.7 0 0 0 73.66 30.48 Z " stroke="#191919" stroke-width="0.35 px" style="stroke-width:0.35;stroke-miterlimit:4;stroke-dasharray:none;fill:#aa5500;fill-rule: evenodd "/>
<path id="Pocket003_f0009"  d="M 73.66 -30.48 L 73.66 30.48 L 73.66 30.48 L 73.66 -30.48 L 73.66 -30.48 Z " stroke="#191919" stroke-width="0.35 px" style="stroke-width:0.35;stroke-miterlimit:4;stroke-dasharray:none;fill:#aa5500;fill-rule: evenodd "/>
<circle cx="-22.86" cy="-22.86" r="1.524" stroke="#191919" stroke-width="0.35 px" style="stroke-width:0.35;stroke-miterlimit:4;stroke-dasharray:none;fill:#aa5500"/>
<circle cx="-63.5" cy="-33.02" r="1.524" stroke="#191919" stroke-width="0.35 px" style="stroke-width:0.35;stroke-miterlimit:4;stroke-dasharray:none;fill:#aa5500"/>
<circle cx="-22.86" cy="22.86" r="1.524" stroke="#191919" stroke-width="0.35 px" style="stroke-width:0.35;stroke-miterlimit:4;stroke-dasharray:none;fill:#aa5500"/>
<circle cx="22.86" cy="22.86" r="1.524" stroke="#191919" stroke-width="0.35 px" style="stroke-width:0.35;stroke-miterlimit:4;stroke-dasharray:none;fill:#aa5500"/>
<circle cx="22.86" cy="-22.86" r="1.524" stroke="#191919" stroke-width="0.35 px" style="stroke-width:0.35;stroke-miterlimit:4;stroke-dasharray:none;fill:#aa5500"/>
<circle cx="63.5" cy="-33.02" r="1.524" stroke="#191919" stroke-width="0.35 px" style="stroke-width:0.35;stroke-miterlimit:4;stroke-dasharray:none;fill:#aa5500"/>
<circle cx="63.5" cy="33.02" r="1.524" stroke="#191919" stroke-width="0.35 px" style="stroke-width:0.35;stroke-miterlimit:4;stroke-dasharray:none;fill:#aa5500"/>
<circle cx="-63.5" cy="33.02" r="1.524" stroke="#191919" stroke-width="0.35 px" style="stroke-width:0.35;stroke-miterlimit:4;stroke-dasharray:none;fill:#aa5500"/>
<title>Pocket003</title>
</g>
</svg>