<?xml version="1.0" encoding="UTF-8" standalone="no"?>
<!-- Created with Inkscape (http://www.inkscape.org/) -->

<svg
   xmlns:dc="http://purl.org/dc/elements/1.1/"
   xmlns:cc="http://creativecommons.org/ns#"
   xmlns:rdf="http://www.w3.org/1999/02/22-rdf-syntax-ns#"
   xmlns:svg="http://www.w3.org/2000/svg"
   xmlns="http://www.w3.org/2000/svg"
   xmlns:sodipodi="http://sodipodi.sourceforge.net/DTD/sodipodi-0.dtd"
   xmlns:inkscape="http://www.inkscape.org/namespaces/inkscape"
   width="448.72891mm"
   height="160.60474mm"
   viewBox="0 0 448.72891 160.60474"
   version="1.1"
   id="svg5886"
   inkscape:version="0.92.2 (unknown)"
   sodipodi:docname="desk_klok_FlexBox2.svg">
  <sodipodi:namedview
     id="base"
     pagecolor="#ffffff"
     bordercolor="#666666"
     borderopacity="1.0"
     inkscape:pageopacity="0.0"
     inkscape:pageshadow="2"
     inkscape:zoom="0.88167377"
     inkscape:cx="113.23066"
     inkscape:cy="355.59309"
     inkscape:document-units="mm"
     inkscape:current-layer="svg5886"
     showgrid="false"
     inkscape:window-width="1920"
     inkscape:window-height="1050"
     inkscape:window-x="0"
     inkscape:window-y="30"
     inkscape:window-maximized="1"
     fit-margin-top="0"
     fit-margin-left="0"
     fit-margin-right="0"
     fit-margin-bottom="0"
     showguides="true"
     inkscape:guide-bbox="true">
    <sodipodi:guide
       position="0.1,160"
       orientation="1,0"
       id="guide11694"
       inkscape:locked="false"
       inkscape:label=""
       inkscape:color="rgb(0,0,255)" />
    <sodipodi:guide
       position="147.592,160"
       orientation="1,0"
       id="guide11696"
       inkscape:locked="false"
       inkscape:label=""
       inkscape:color="rgb(0,0,255)" />
    <sodipodi:guide
       position="73.745002,160"
       orientation="1,0"
       id="guide11698"
       inkscape:locked="false"
       inkscape:label=""
       inkscape:color="rgb(0,0,255)" />
    <sodipodi:guide
       position="0,71.052002"
       orientation="0,1"
       id="guide11700"
       inkscape:locked="false"
       inkscape:label=""
       inkscape:color="rgb(0,0,255)" />
    <sodipodi:guide
       position="0,157.403"
       orientation="0,1"
       id="guide11702"
       inkscape:locked="false"
       inkscape:label=""
       inkscape:color="rgb(0,0,255)" />
    <sodipodi:guide
       position="0.099999998,114.2275"
       orientation="0,1"
       id="guide11704"
       inkscape:locked="false"
       inkscape:label=""
       inkscape:color="rgb(0,0,255)" />
  </sodipodi:namedview>
  <defs
     id="defs5880">
    <clipPath
       id="clipPath19792"
       clipPathUnits="userSpaceOnUse">
      <path
         style="clip-rule:evenodd"
         inkscape:connector-curvature="0"
         id="path19790"
         d="M 0,0.1 H 595.2 V 841.9 H 0 Z" />
    </clipPath>
  </defs>
  <metadata
     id="metadata5883">
    <rdf:RDF>
      <cc:Work
         rdf:about="">
        <dc:format>image/svg+xml</dc:format>
        <dc:type
           rdf:resource="http://purl.org/dc/dcmitype/StillImage" />
        <dc:title></dc:title>
      </cc:Work>
    </rdf:RDF>
  </metadata>
  <g
     id="layer1"
     inkscape:groupmode="layer"
     inkscape:label="Layer 1"
     transform="translate(0,-134.24527)" />
  <path
     id="path11051"
     style="fill:none;stroke:#000000;stroke-width:0.2;stroke-linecap:butt;stroke-linejoin:miter;stroke-miterlimit:10;stroke-opacity:1"
     d="m 2.898442,113.65317 v 46 c 0,0.0547 0.04297,0.10156 0.10156,0.10156 m 9.80078,-46.20313 h -9.80078 c -0.0547,0 -0.10156,0.043 -0.10156,0.10157 m 10.0039,3 v -3 c 0,-0.0547 -0.043,-0.10157 -0.10156,-0.10157 m 6.30078,3 h -6.30078 c 0.0547,0 0.10156,0.043 0.10156,0.10157 m 6.09766,-3 v 3 c 0,-0.0547 0.043,-0.10157 0.10156,-0.10157 m 0,-3 c -0.0547,0 -0.10156,0.043 -0.10156,0.10157 m 5.80078,-0.10157 h -5.69922 m 5.80078,3.10157 v -3 c 0,-0.0547 -0.043,-0.10157 -0.10156,-0.10157 m 6.30078,3 h -6.30078 c 0.0547,0 0.10156,0.043 0.10156,0.10157 m 6.09766,-3 v 3 c 0,-0.0547 0.043,-0.10157 0.10156,-0.10157 m 0,-3 c -0.0547,0 -0.10156,0.043 -0.10156,0.10157 m 5.80078,-0.10157 h -5.69922 m 5.80078,3.10157 v -3 c 0,-0.0547 -0.043,-0.10157 -0.10156,-0.10157 m 6.30078,3 h -6.30078 c 0.0547,0 0.10156,0.043 0.10156,0.10157 m 6.09766,-3 v 3 c 0,-0.0547 0.043,-0.10157 0.10156,-0.10157 m 0,-3 c -0.0547,0 -0.10156,0.043 -0.10156,0.10157 m 5.80078,-0.10157 h -5.69922 m 5.80078,3.10157 v -3 c 0,-0.0547 -0.043,-0.10157 -0.10156,-0.10157 m 6.30078,3 h -6.30078 c 0.0547,0 0.10156,0.043 0.10156,0.10157 m 6.09766,-3 v 3 c 0,-0.0547 0.043,-0.10157 0.10156,-0.10157 m 0,-3 c -0.0547,0 -0.10156,0.043 -0.10156,0.10157 m 5.80078,-0.10157 h -5.69922 m 5.80078,3.10157 v -3 c 0,-0.0547 -0.043,-0.10157 -0.10156,-0.10157 m 6.30078,3 h -6.30078 c 0.0547,0 0.10156,0.043 0.10156,0.10157 m 6.09766,-3 v 3 c 0,-0.0547 0.043,-0.10157 0.10156,-0.10157 m 0,-3 c -0.0547,0 -0.10156,0.043 -0.10156,0.10157 m 5.80078,-0.10157 h -5.69922 m 5.80078,3.10157 v -3 c 0,-0.0547 -0.043,-0.10157 -0.10156,-0.10157 m 6.30078,3 h -6.30078 c 0.0547,0 0.10156,0.043 0.10156,0.10157 m 6.09766,-3 v 3 c 0,-0.0547 0.043,-0.10157 0.10156,-0.10157 m 0,-3 c -0.0547,0 -0.10156,0.043 -0.10156,0.10157 m 5.80078,-0.10157 h -5.69922 m 5.80078,3.10157 v -3 c 0,-0.0547 -0.043,-0.10157 -0.10156,-0.10157 m 6.300781,3 h -6.300781 c 0.0547,0 0.10156,0.043 0.10156,0.10157 m 6.097659,-3 v 3 c 0,-0.0547 0.04297,-0.10157 0.101562,-0.10157 m 0,-3 c -0.05469,0 -0.101562,0.043 -0.101562,0.10157 m 9.902339,-0.10157 h -9.800777 m 29.749997,0 h -19.94922 m 29.27735,0 h -9.32813 m 9.42969,3.10157 v -3 c 0,-0.0547 -0.043,-0.10157 -0.10156,-0.10157 m 6.30078,3 h -6.30078 c 0.0547,0 0.10156,0.043 0.10156,0.10157 m 6.09766,-3 v 3 c 0,-0.0547 0.043,-0.10157 0.10156,-0.10157 m 0,-3 c -0.0547,0 -0.10156,0.043 -0.10156,0.10157 m 5.80078,-0.10157 h -5.69922 m 5.80078,3.10157 v -3 c 0,-0.0547 -0.043,-0.10157 -0.10156,-0.10157 m 6.30078,3 h -6.30078 c 0.0547,0 0.10156,0.043 0.10156,0.10157 m 6.09766,-3 v 3 c 0,-0.0547 0.043,-0.10157 0.10156,-0.10157 m 0,-3 c -0.0547,0 -0.10156,0.043 -0.10156,0.10157 m 5.80078,-0.10157 h -5.69922 m 5.80078,3.10157 v -3 c 0,-0.0547 -0.043,-0.10157 -0.10156,-0.10157 m 6.30078,3 h -6.30078 c 0.0547,0 0.10156,0.043 0.10156,0.10157 m 6.09766,-3 v 3 c 0,-0.0547 0.043,-0.10157 0.10156,-0.10157 m 0,-3 c -0.0547,0 -0.10156,0.043 -0.10156,0.10157 m 5.80078,-0.10157 h -5.69922 m 5.80078,3.10157 v -3 c 0,-0.0547 -0.043,-0.10157 -0.10156,-0.10157 m 6.30078,3 h -6.30078 c 0.0547,0 0.10156,0.043 0.10156,0.10157 m 6.09766,-3 v 3 c 0,-0.0547 0.043,-0.10157 0.10156,-0.10157 m 0,-3 c -0.0547,0 -0.10156,0.043 -0.10156,0.10157 m 9.42968,-0.10157 h -9.32812 m 29.27734,0 h -19.94922 m 29.75,0 h -9.80078 m 9.90235,3.10157 v -3 c 0,-0.0547 -0.043,-0.10157 -0.10157,-0.10157 m 6.30079,3 h -6.30079 c 0.0547,0 0.10157,0.043 0.10157,0.10157 m 6.09765,-3 v 3 c 0,-0.0547 0.043,-0.10157 0.10157,-0.10157 m 0,-3 c -0.0547,0 -0.10157,0.043 -0.10157,0.10157 m 5.80078,-0.10157 h -5.69921 m 5.80078,3.10157 v -3 c 0,-0.0547 -0.043,-0.10157 -0.10157,-0.10157 m 6.30079,3 h -6.30079 c 0.0547,0 0.10157,0.043 0.10157,0.10157 m 6.09765,-3 v 3 c 0,-0.0547 0.043,-0.10157 0.10157,-0.10157 m 0,-3 c -0.0547,0 -0.10157,0.043 -0.10157,0.10157 m 5.80078,-0.10157 h -5.69921 m 5.80078,3.10157 v -3 c 0,-0.0547 -0.043,-0.10157 -0.10157,-0.10157 m 6.30079,3 h -6.30079 c 0.0547,0 0.10157,0.043 0.10157,0.10157 m 6.09765,-3 v 3 c 0,-0.0547 0.043,-0.10157 0.10157,-0.10157 m 0,-3 c -0.0547,0 -0.10157,0.043 -0.10157,0.10157 m 5.80078,-0.10157 h -5.69921 m 5.80078,3.10157 v -3 c 0,-0.0547 -0.043,-0.10157 -0.10157,-0.10157 m 6.30079,3 h -6.30079 c 0.0547,0 0.10157,0.043 0.10157,0.10157 m 6.09765,-3 v 3 c 0,-0.0547 0.043,-0.10157 0.10157,-0.10157 m 0,-3 c -0.0547,0 -0.10157,0.043 -0.10157,0.10157 m 5.80078,-0.10157 h -5.69921 m 5.80078,3.10157 v -3 c 0,-0.0547 -0.043,-0.10157 -0.10157,-0.10157 m 6.30079,3 h -6.30079 c 0.0547,0 0.10157,0.043 0.10157,0.10157 m 6.09765,-3 v 3 c 0,-0.0547 0.043,-0.10157 0.10157,-0.10157 m 0,-3 c -0.0547,0 -0.10157,0.043 -0.10157,0.10157 m 5.80078,-0.10157 h -5.69921 m 5.80078,3.10157 v -3 c 0,-0.0547 -0.043,-0.10157 -0.10157,-0.10157 m 6.30079,3 h -6.30079 c 0.0547,0 0.10157,0.043 0.10157,0.10157 m 6.09765,-3 v 3 c 0,-0.0547 0.043,-0.10157 0.10157,-0.10157 m 0,-3 c -0.0547,0 -0.10157,0.043 -0.10157,0.10157 m 5.80078,-0.10157 h -5.69921 m 5.80078,3.10157 v -3 c 0,-0.0547 -0.043,-0.10157 -0.10157,-0.10157 m 6.30078,3 h -6.30078 c 0.0547,0 0.10157,0.043 0.10157,0.10157 m 6.09765,-3 v 3 c 0,-0.0547 0.043,-0.10157 0.10156,-0.10157 m 0,-3 c -0.0547,0 -0.10156,0.043 -0.10156,0.10157 m 5.80078,-0.10157 h -5.69922 m 5.80079,3.10157 v -3 c 0,-0.0547 -0.043,-0.10157 -0.10157,-0.10157 m 6.30078,3 h -6.30078 c 0.0547,0 0.10157,0.043 0.10157,0.10157 m 6.09765,-3 v 3 c 0,-0.0547 0.043,-0.10157 0.10156,-0.10157 m 0,-3 c -0.0547,0 -0.10156,0.043 -0.10156,0.10157 m 5.80078,-0.10157 h -5.69922 m 5.80079,3.10157 v -3 c 0,-0.0547 -0.043,-0.10157 -0.10157,-0.10157 m 6.30078,3 h -6.30078 c 0.0547,0 0.10157,0.043 0.10157,0.10157 m 6.09765,-3 v 3 c 0,-0.0547 0.043,-0.10157 0.10156,-0.10157 m 0,-3 c -0.0547,0 -0.10156,0.043 -0.10156,0.10157 m 9.90234,-0.10157 h -9.80078 m 29.75,1e-5 -19.94922,-1e-5 m 80.91016,1e-5 h -60.96094 m 80.91016,0 h -19.94922 m 20.05078,3.40234 v -3.30078 c 0,-0.0547 -0.043,-0.10156 -0.10156,-0.10156 m 12.60156,3.30078 h -12.60156 c 0.0547,0 0.10156,0.043 0.10156,0.10156 m 12.39844,-3.30078 v 3.30078 c 0,-0.0547 0.043,-0.10156 0.10156,-0.10156 m 11.50781,42.80078 v -46 c 0,-0.46875 -0.3789,-0.85156 -0.85156,-0.85156 -0.39844,0 -0.71875,0.32031 -0.71875,0.71875 0,0.6914 -1.03906,0.6914 -1.03906,0 0,-0.39844 -0.32031,-0.71875 -0.71875,-0.71875 -0.39844,0 -0.71875,0.32031 -0.71875,0.71875 0,0.6914 -1.03906,0.6914 -1.03906,0 0,-0.39844 -0.32032,-0.71875 -0.71875,-0.71875 -0.39844,0 -0.71875,0.32031 -0.71875,0.71875 0,0.6914 -1.03907,0.6914 -1.03907,0 0,-0.39844 -0.32031,-0.71875 -0.71875,-0.71875 -0.39843,0 -0.71875,0.32031 -0.71875,0.71875 0,0.6914 -1.03906,0.6914 -1.03906,0 0,-0.39844 -0.32031,-0.71875 -0.71875,-0.71875 -0.46875,0 -0.85156,0.3789 -0.85156,0.85156 m 0,42.69922 v 3.30078 c 0,0.46875 0.37891,0.85156 0.85156,0.85156 0.39844,0 0.71875,-0.32031 0.71875,-0.71875 0,-0.69141 1.03906,-0.69141 1.03906,0 0,0.39844 0.32032,0.71875 0.71875,0.71875 0.39844,0 0.71875,-0.32031 0.71875,-0.71875 0,-0.69141 1.03907,-0.69141 1.03907,0 0,0.39844 0.32031,0.71875 0.71875,0.71875 0.39843,0 0.71875,-0.32031 0.71875,-0.71875 0,-0.69141 1.03906,-0.69141 1.03906,0 0,0.39844 0.32031,0.71875 0.71875,0.71875 0.39844,0 0.71875,-0.32031 0.71875,-0.71875 0,-0.69141 1.03906,-0.69141 1.03906,0 0,0.39844 0.32031,0.71875 0.71875,0.71875 0.46875,0 0.85156,-0.37891 0.85156,-0.85156 m -24.10937,-3.19922 h 12.60156 c -0.0547,0 -0.10156,-0.043 -0.10156,-0.10156 m -12.39844,3.30078 v -3.30078 c 0,0.0547 -0.043,0.10156 -0.10156,0.10156 m -19.94922,3.30078 h 19.94922 c 0.0547,0 0.10156,-0.043 0.10156,-0.10156 m -1.82812,-28.69922 v 25.80078 m 0,-43.19922 v 14.39844 m -1.5,14.40234 v -25.80078 m 0,43.19922 v -14.39844 m -1.5,-14.40234 v 25.80078 m 0,-43.19922 v 14.39844 m -1.5,14.40234 v -25.80078 m 0,43.19922 v -14.39844 m -1.5,-14.40234 v 25.80078 m 0,-43.19922 v 14.39844 m -1.5,14.40234 v -25.80078 m 0,43.19922 v -14.39844 m -1.5,-14.40234 v 25.80078 m 0,-43.19922 v 14.39844 m -1.5,14.40234 v -25.80078 m 0,43.19922 v -14.39844 m -1.5,-14.40234 v 25.80078 m 0,-43.19922 v 14.39844 m -1.5,14.40234 v -25.80078 m 0,43.19922 v -14.39844 m -1.5,-14.40234 v 25.80078 m 0,-43.19922 v 14.39844 m -1.5,14.40234 v -25.80078 m 0,43.19922 v -14.39844 m -62.6836,14.39844 h 60.96094 m -80.91016,0 h 19.94922 m -1.72656,-28.80078 v 25.80078 m 0,-43.19922 v 14.39844 m -1.5,14.40234 v -25.80078 m 0,43.19922 v -14.39844 m -1.5,-14.40234 v 25.80078 m 0,-43.19922 v 14.39844 m -1.5,14.40234 v -25.80078 m 0,43.19922 v -14.39844 m -1.5,-14.40234 v 25.80078 m 0,-43.19922 v 14.39844 m -1.5,14.40234 v -25.80078 m 0,43.19922 v -14.39844 m -1.5,-14.40234 v 25.80078 m 0,-43.19922 v 14.39844 m -1.5,14.40234 v -25.80078 m 0,43.19922 v -14.39844 m -1.5,-14.40234 v 25.80078 m 0,-43.19922 v 14.39844 m -1.5,14.40234 v -25.80078 m 0,43.19922 v -14.39844 m -1.5,-14.40234 v 25.80078 m 0,-43.19922 v 14.39844 m -1.5,14.40234 v -25.80078 m 0,43.19922 v -14.39844 m -11.52344,14.39844 h 9.80078 m -9.90234,-3.10156 v 3 c 0,0.0547 0.043,0.10156 0.10156,0.10156 m -6.30078,-3 h 6.30078 c -0.0547,0 -0.10156,-0.043 -0.10156,-0.10156 m -6.09765,3 v -3 c 0,0.0547 -0.043,0.10156 -0.10157,0.10156 m 0,3 c 0.0547,0 0.10157,-0.043 0.10157,-0.10156 m -5.80079,0.10156 h 5.69922 m -5.80078,-3.10156 v 3 c 0,0.0547 0.043,0.10156 0.10156,0.10156 m -6.30078,-3 h 6.30078 c -0.0547,0 -0.10156,-0.043 -0.10156,-0.10156 m -6.09765,3 v -3 c 0,0.0547 -0.043,0.10156 -0.10157,0.10156 m 0,3 c 0.0547,0 0.10157,-0.043 0.10157,-0.10156 m -5.80079,0.10156 h 5.69922 m -5.80078,-3.10156 v 3 c 0,0.0547 0.043,0.10156 0.10156,0.10156 m -6.30078,-3 h 6.30078 c -0.0547,0 -0.10156,-0.043 -0.10156,-0.10156 m -6.09765,3 v -3 c 0,0.0547 -0.043,0.10156 -0.10157,0.10156 m 0,3 c 0.0547,0 0.10157,-0.043 0.10157,-0.10156 m -5.80078,0.10156 h 5.69921 m -5.80078,-3.10156 v 3 c 0,0.0547 0.043,0.10156 0.10157,0.10156 m -6.30079,-3 h 6.30079 c -0.0547,0 -0.10157,-0.043 -0.10157,-0.10156 m -6.09765,3 v -3 c 0,0.0547 -0.043,0.10156 -0.10157,0.10156 m 0,3 c 0.0547,0 0.10157,-0.043 0.10157,-0.10156 m -5.80078,0.10156 h 5.69921 m -5.80078,-3.10156 v 3 c 0,0.0547 0.043,0.10156 0.10157,0.10156 m -6.30079,-3 h 6.30079 c -0.0547,0 -0.10157,-0.043 -0.10157,-0.10156 m -6.09765,3 v -3 c 0,0.0547 -0.043,0.10156 -0.10157,0.10156 m 0,3 c 0.0547,0 0.10157,-0.043 0.10157,-0.10156 m -5.80078,0.10156 h 5.69921 m -5.80078,-3.10156 v 3 c 0,0.0547 0.043,0.10156 0.10157,0.10156 m -6.30079,-3 h 6.30079 c -0.0547,0 -0.10157,-0.043 -0.10157,-0.10156 m -6.09765,3 v -3 c 0,0.0547 -0.043,0.10156 -0.10157,0.10156 m 0,3 c 0.0547,0 0.10157,-0.043 0.10157,-0.10156 m -5.80078,0.10156 h 5.69921 m -5.80078,-3.10156 v 3 c 0,0.0547 0.043,0.10156 0.10157,0.10156 m -6.30079,-3 h 6.30079 c -0.0547,0 -0.10157,-0.043 -0.10157,-0.10156 m -6.09765,3 v -3 c 0,0.0547 -0.043,0.10156 -0.10157,0.10156 m 0,3 c 0.0547,0 0.10157,-0.043 0.10157,-0.10156 m -5.80078,0.10156 h 5.69921 m -5.80078,-3.10156 v 3 c 0,0.0547 0.043,0.10156 0.10157,0.10156 m -6.30079,-3 h 6.30079 c -0.0547,0 -0.10157,-0.043 -0.10157,-0.10156 m -6.09765,3 v -3 c 0,0.0547 -0.043,0.10156 -0.10157,0.10156 m 0,3 c 0.0547,0 0.10157,-0.043 0.10157,-0.10156 m -5.80078,0.10156 h 5.69921 m -5.80078,-3.10156 v 3 c 0,0.0547 0.043,0.10156 0.10157,0.10156 m -6.30079,-3 h 6.30079 c -0.0547,0 -0.10157,-0.043 -0.10157,-0.10156 m -6.09765,3 v -3 c 0,0.0547 -0.043,0.10156 -0.10157,0.10156 m 0,3 c 0.0547,0 0.10157,-0.043 0.10157,-0.10156 m -9.90235,0.10156 h 9.80078 m -29.75,0 h 19.94922 m -1.72656,-28.80078 v 25.80078 m 0,-43.19922 v 14.39844 m -1.5,14.40234 v -25.80078 m 0,43.19922 v -14.39844 m -1.5,-14.40234 v 25.80078 m 0,-43.19922 v 14.39844 m -1.5,14.40234 v -25.80078 m 0,43.19922 v -14.39844 m -1.5,-14.40234 v 25.80078 m 0,-43.19922 v 14.39844 m -1.5,14.40234 v -25.80078 m 0,43.19922 v -14.39844 m -1.5,-14.40234 v 25.80078 m 0,-43.19922 v 14.39844 m -1.5,14.40234 v -25.80078 m 0,43.19922 v -14.39844 m -1.5,-14.40234 v 25.80078 m 0,-43.19922 v 14.39844 m -1.5,14.40234 v -25.80078 m 0,43.19922 v -14.39844 m -1.5,-14.40234 v 25.80078 m 0,-43.19922 v 14.39844 m -1.5,14.40234 v -25.80078 m 0,43.19922 v -14.39844 m -11.05078,14.39844 h 9.32812 m -9.42968,-3.10156 v 3 c 0,0.0547 0.043,0.10156 0.10156,0.10156 m -6.30078,-3 h 6.30078 c -0.0547,0 -0.10156,-0.043 -0.10156,-0.10156 m -6.09766,3 v -3 c 0,0.0547 -0.043,0.10156 -0.10156,0.10156 m 0,3 c 0.0547,0 0.10156,-0.043 0.10156,-0.10156 m -5.80078,0.10156 h 5.69922 m -5.80078,-3.10156 v 3 c 0,0.0547 0.043,0.10156 0.10156,0.10156 m -6.30078,-3 h 6.30078 c -0.0547,0 -0.10156,-0.043 -0.10156,-0.10156 m -6.09766,3 v -3 c 0,0.0547 -0.043,0.10156 -0.10156,0.10156 m 0,3 c 0.0547,0 0.10156,-0.043 0.10156,-0.10156 m -5.80078,0.10156 h 5.69922 m -5.80078,-3.10156 v 3 c 0,0.0547 0.043,0.10156 0.10156,0.10156 m -6.30078,-3 h 6.30078 c -0.0547,0 -0.10156,-0.043 -0.10156,-0.10156 m -6.09766,3 v -3 c 0,0.0547 -0.043,0.10156 -0.10156,0.10156 m 0,3 c 0.0547,0 0.10156,-0.043 0.10156,-0.10156 m -5.80078,0.10156 h 5.69922 m -5.80078,-3.10156 v 3 c 0,0.0547 0.043,0.10156 0.10156,0.10156 m -6.30078,-3 h 6.30078 c -0.0547,0 -0.10156,-0.043 -0.10156,-0.10156 m -6.09766,3 v -3 c 0,0.0547 -0.043,0.10156 -0.10156,0.10156 m 0,3 c 0.0547,0 0.10156,-0.043 0.10156,-0.10156 m -9.42969,0.10156 h 9.32813 m -29.27735,0 h 19.94922 M 119.125,130.95395 v 25.80078 m 0,-43.19922 v 14.39844 m -1.5,14.40234 v -25.80078 m 0,43.19922 v -14.39844 m -1.5,-14.40234 v 25.80078 m 0,-43.19922 v 14.39844 m -1.5,14.40234 v -25.80078 m 0,43.19922 v -14.39844 m -1.5,-14.40234 v 25.80078 m 0,-43.19922 v 14.39844 m -1.5,14.40234 v -25.80078 m 0,43.19922 v -14.39844 m -1.5,-14.40234 v 25.80078 m 0,-43.19922 v 14.39844 m -1.5,14.40234 v -25.80078 m 0,43.19922 v -14.39844 m -1.5,-14.40234 v 25.80078 m 0,-43.19922 v 14.39844 m -1.5,14.40234 v -25.80078 m 0,43.19922 v -14.39844 m -1.5,-14.40234 v 25.80078 m 0,-43.19922 v 14.39844 m -1.5,14.40234 v -25.80078 m 0,43.19922 v -14.39844 m -11.523437,14.39844 h 9.800777 m -9.902339,-3.10156 v 3 c 0,0.0547 0.04297,0.10156 0.101562,0.10156 m -6.300781,-3 h 6.300781 c -0.05469,0 -0.101562,-0.043 -0.101562,-0.10156 m -6.097659,3 v -3 c 0,0.0547 -0.043,0.10156 -0.10156,0.10156 m 0,3 c 0.0547,0 0.10156,-0.043 0.10156,-0.10156 m -5.80078,0.10156 h 5.69922 m -5.80078,-3.10156 v 3 c 0,0.0547 0.04297,0.10156 0.10156,0.10156 m -6.30078,-3 h 6.30078 c -0.0547,0 -0.10156,-0.043 -0.10156,-0.10156 m -6.09766,3 v -3 c 0,0.0547 -0.043,0.10156 -0.10156,0.10156 m 0,3 c 0.0547,0 0.10156,-0.043 0.10156,-0.10156 m -5.80078,0.10156 h 5.69922 m -5.80078,-3.10156 v 3 c 0,0.0547 0.04297,0.10156 0.10156,0.10156 m -6.30078,-3 h 6.30078 c -0.0547,0 -0.10156,-0.043 -0.10156,-0.10156 m -6.09766,3 v -3 c 0,0.0547 -0.043,0.10156 -0.10156,0.10156 m 0,3 c 0.0547,0 0.10156,-0.043 0.10156,-0.10156 m -5.80078,0.10156 h 5.69922 m -5.80078,-3.10156 v 3 c 0,0.0547 0.04297,0.10156 0.10156,0.10156 m -6.30078,-3 h 6.30078 c -0.0547,0 -0.10156,-0.043 -0.10156,-0.10156 m -6.09766,3 v -3 c 0,0.0547 -0.043,0.10156 -0.10156,0.10156 m 0,3 c 0.0547,0 0.10156,-0.043 0.10156,-0.10156 m -5.80078,0.10156 h 5.69922 m -5.80078,-3.10156 v 3 c 0,0.0547 0.04297,0.10156 0.10156,0.10156 m -6.30078,-3 h 6.30078 c -0.0547,0 -0.10156,-0.043 -0.10156,-0.10156 m -6.09766,3 v -3 c 0,0.0547 -0.043,0.10156 -0.10156,0.10156 m 0,3 c 0.0547,0 0.10156,-0.043 0.10156,-0.10156 m -5.80078,0.10156 h 5.69922 m -5.80078,-3.10156 v 3 c 0,0.0547 0.04297,0.10156 0.10156,0.10156 m -6.30078,-3 h 6.30078 c -0.0547,0 -0.10156,-0.043 -0.10156,-0.10156 m -6.09766,3 v -3 c 0,0.0547 -0.043,0.10156 -0.10156,0.10156 m 0,3 c 0.0547,0 0.10156,-0.043 0.10156,-0.10156 m -5.80078,0.10156 h 5.69922 m -5.80078,-3.10156 v 3 c 0,0.0547 0.04297,0.10156 0.10156,0.10156 m -6.30078,-3 h 6.30078 c -0.0547,0 -0.10156,-0.043 -0.10156,-0.10156 m -6.09766,3 v -3 c 0,0.0547 -0.043,0.10156 -0.10156,0.10156 m 0,3 c 0.0547,0 0.10156,-0.043 0.10156,-0.10156 m -9.90234,0.10156 h 9.80078"
     inkscape:connector-curvature="0" />
  <path
     id="path10835"
     style="fill:none;stroke:#000000;stroke-width:0.2;stroke-linecap:butt;stroke-linejoin:miter;stroke-miterlimit:10;stroke-opacity:1"
     d="m 124.8461,89.65473 h 9.94921 c 2.2461,0 4.45313,-0.58985 6.39844,-1.71485 1.94531,-1.125 3.5625,-2.73828 4.6836,-4.68359 1.125,-1.94531 1.71484,-4.15234 1.71484,-6.39844 m -22.64453,15.69531 v -3 c 0,0.0547 -0.043,0.10157 -0.10156,0.10157 m -6,3 h 6 c 0.0547,0 0.10156,-0.043 0.10156,-0.10157 m -6.20313,-3 v 3 c 0,0.0547 0.043,0.10157 0.10157,0.10157 m 0,-3 c -0.0547,0 -0.10157,-0.043 -0.10157,-0.10157 m -5.89843,0.10157 h 6 m -5.89844,2.89843 v -3 c 0,0.0547 -0.043,0.10157 -0.10156,0.10157 m -6,3 h 6 c 0.0547,0 0.10156,-0.043 0.10156,-0.10157 m -6.20313,-3 v 3 c 0,0.0547 0.043,0.10157 0.10157,0.10157 m 0,-3 c -0.0547,0 -0.10157,-0.043 -0.10157,-0.10157 m -5.89843,0.10157 h 6 m -5.89844,2.89843 v -3 c 0,0.0547 -0.043,0.10157 -0.10156,0.10157 m -6,3 h 6 c 0.0547,0 0.10156,-0.043 0.10156,-0.10157 m -6.20313,-3 v 3 c 0,0.0547 0.043,0.10157 0.10157,0.10157 m 0,-3 c -0.0547,0 -0.10157,-0.043 -0.10157,-0.10157 m -5.89843,0.10157 h 6 m -5.89844,2.89843 v -3 c 0,0.0547 -0.043,0.10157 -0.10156,0.10157 m -6,3 h 6 c 0.0547,0 0.10156,-0.043 0.10156,-0.10157 m -6.20313,-3 v 3 c 0,0.0547 0.043,0.10157 0.10157,0.10157 m 0,-3 c -0.0547,0 -0.10157,-0.043 -0.10157,-0.10157 m -5.89843,0.10157 h 6 m -5.89844,2.89843 v -3 c 0,0.0547 -0.043,0.10157 -0.10156,0.10157 m -6,3 h 6 c 0.0547,0 0.10156,-0.043 0.10156,-0.10157 m -6.20313,-3 v 3 c 0,0.0547 0.043,0.10157 0.10157,0.10157 m 0,-3 c -0.0547,0 -0.10157,-0.043 -0.10157,-0.10157 m -5.89843,0.10157 h 6 m -5.89844,2.89843 v -3 c 0,0.0547 -0.043,0.10157 -0.10156,0.10157 m -6,3 h 6 c 0.0547,0 0.10156,-0.043 0.10156,-0.10157 m -6.20313,-3 v 3 c 0,0.0547 0.043,0.10157 0.10157,0.10157 m 0,-3 c -0.0547,0 -0.10157,-0.043 -0.10157,-0.10157 m -5.89843,0.10157 h 6 m -5.89844,2.89843 v -3 c 0,0.0547 -0.043,0.10157 -0.10156,0.10157 m -6,3 h 6 c 0.0547,0 0.10156,-0.043 0.10156,-0.10157 m -6.20313,-3 v 3 c 0,0.0547 0.043,0.10157 0.10157,0.10157 m 0,-3 c -0.0547,0 -0.10157,-0.043 -0.10157,-0.10157 m -9.84765,0.10157 h 9.94922 m -21.94922,0 h 12 m -11.89844,2.89843 v -3 c 0,0.0547 -0.043,0.10157 -0.10156,0.10157 m -12,3 h 12 c 0.0547,0 0.10156,-0.043 0.10156,-0.10157 m -12.20312,-3 v 3 c 0,0.0547 0.043,0.10157 0.10156,0.10157 M 0.1,15.89691 v 60.96094 c 0,2.2461 0.58985,4.45313 1.71485,6.39844 1.125,1.94531 2.73828,3.5625 4.68359,4.68359 1.94531,1.125 4.15234,1.71485 6.39844,1.71485 -0.0547,0 -0.10156,-0.043 -0.10156,-0.10157 M 22.8461,3.10004 h -9.94922 c -2.2461,0 -4.45313,0.58984 -6.39844,1.71484 -1.94531,1.125 -3.5625,2.73829 -4.68359,4.6836 C 0.68985,11.44379 0.1,13.65082 0.1,15.89691 M 22.74453,0.2016 v 3 c 0,-0.0547 0.043,-0.10156 0.10157,-0.10156 m 6,-3 h -6 c -0.0547,0 -0.10157,0.043 -0.10157,0.10156 m 6.20313,3 v -3 c 0,-0.0547 -0.043,-0.10156 -0.10156,-0.10156 m 0,3 c 0.0547,0 0.10156,0.043 0.10156,0.10156 M 34.8461,3.10004 h -6 M 34.74453,0.2016 v 3 c 0,-0.0547 0.043,-0.10156 0.10157,-0.10156 m 6,-3 h -6 c -0.0547,0 -0.10157,0.043 -0.10157,0.10156 m 6.20313,3 v -3 c 0,-0.0547 -0.043,-0.10156 -0.10156,-0.10156 m 0,3 c 0.0547,0 0.10156,0.043 0.10156,0.10156 M 46.8461,3.10004 h -6 M 46.74453,0.2016 v 3 c 0,-0.0547 0.043,-0.10156 0.10157,-0.10156 m 6,-3 h -6 c -0.0547,0 -0.10157,0.043 -0.10157,0.10156 m 6.20313,3 v -3 c 0,-0.0547 -0.043,-0.10156 -0.10156,-0.10156 m 0,3 c 0.0547,0 0.10156,0.043 0.10156,0.10156 M 58.8461,3.10004 h -6 M 58.74453,0.2016 v 3 c 0,-0.0547 0.043,-0.10156 0.10157,-0.10156 m 6,-3 h -6 c -0.0547,0 -0.10157,0.043 -0.10157,0.10156 m 6.20313,3 v -3 c 0,-0.0547 -0.043,-0.10156 -0.10156,-0.10156 m 0,3 c 0.0547,0 0.10156,0.043 0.10156,0.10156 M 70.8461,3.10004 h -6 M 70.74453,0.2016 v 3 c 0,-0.0547 0.043,-0.10156 0.10157,-0.10156 m 6,-3 h -6 c -0.0547,0 -0.10157,0.043 -0.10157,0.10156 m 6.20313,3 v -3 c 0,-0.0547 -0.043,-0.10156 -0.10156,-0.10156 m 0,3 c 0.0547,0 0.10156,0.043 0.10156,0.10156 M 82.8461,3.10004 h -6 M 82.74453,0.2016 v 3 c 0,-0.0547 0.043,-0.10156 0.10157,-0.10156 m 6,-3 h -6 c -0.0547,0 -0.10157,0.043 -0.10157,0.10156 m 6.20313,3 v -3 c 0,-0.0547 -0.043,-0.10156 -0.10156,-0.10156 m 0,3 c 0.0547,0 0.10156,0.043 0.10156,0.10156 M 94.8461,3.10004 h -6 M 94.74453,0.2016 v 3 c 0,-0.0547 0.043,-0.10156 0.10157,-0.10156 m 6,-3 h -6 c -0.0547,0 -0.10157,0.043 -0.10157,0.10156 m 6.20313,3 v -3 c 0,-0.0547 -0.043,-0.10156 -0.10156,-0.10156 m 0,3 c 0.0547,0 0.10156,0.043 0.10156,0.10156 m 5.89844,-0.10156 h -6 m 5.89843,-2.89844 v 3 c 0,-0.0547 0.043,-0.10156 0.10157,-0.10156 m 6,-3 h -6 c -0.0547,0 -0.10157,0.043 -0.10157,0.10156 m 6.20313,3 v -3 c 0,-0.0547 -0.043,-0.10156 -0.10156,-0.10156 m 0,3 c 0.0547,0 0.10156,0.043 0.10156,0.10156 m 5.89844,-0.10156 h -6 m 5.89843,-2.89844 v 3 c 0,-0.0547 0.043,-0.10156 0.10157,-0.10156 m 6,-3 h -6 c -0.0547,0 -0.10157,0.043 -0.10157,0.10156 m 6.20313,3 v -3 c 0,-0.0547 -0.043,-0.10156 -0.10156,-0.10156 m 0,3 c 0.0547,0 0.10156,0.043 0.10156,0.10156 m 9.84765,-0.10156 h -9.94921 m 22.74609,22.27734 v -9.48047 c 0,-2.24609 -0.58984,-4.45312 -1.71484,-6.39843 -1.125,-1.94531 -2.73829,-3.5625 -4.6836,-4.6836 -1.94531,-1.125 -4.15234,-1.71484 -6.39844,-1.71484 m 15.69532,22.17578 h -3 c 0.0547,0 0.10156,0.043 0.10156,0.10156 m 3,6 v -6 c 0,-0.0547 -0.043,-0.10156 -0.10156,-0.10156 m -3,6.20313 h 3 c 0.0547,0 0.10156,-0.043 0.10156,-0.10157 m -3,0 c 0,0.0547 -0.043,0.10157 -0.10156,0.10157 m 0.10156,5.89843 v -6 m 2.89844,5.89844 h -3 c 0.0547,0 0.10156,0.043 0.10156,0.10156 m 3,6 v -6 c 0,-0.0547 -0.043,-0.10156 -0.10156,-0.10156 m -3,6.20313 h 3 c 0.0547,0 0.10156,-0.043 0.10156,-0.10157 m -3,0 c 0,0.0547 -0.043,0.10157 -0.10156,0.10157 m 0.10156,5.89843 v -6 m 2.89844,5.89844 h -3 c 0.0547,0 0.10156,0.043 0.10156,0.10156 m 3,6 v -6 c 0,-0.0547 -0.043,-0.10156 -0.10156,-0.10156 m -3,6.20313 h 3 c 0.0547,0 0.10156,-0.043 0.10156,-0.10157 m -3,0 c 0,0.0547 -0.043,0.10157 -0.10156,0.10157 m 0.10156,5.89843 v -6 m 2.89844,5.89844 h -3 c 0.0547,0 0.10156,0.043 0.10156,0.10156 m 3,6 v -6 c 0,-0.0547 -0.043,-0.10156 -0.10156,-0.10156 m -3,6.20313 h 3 c 0.0547,0 0.10156,-0.043 0.10156,-0.10157 m -3,0 c 0,0.0547 -0.043,0.10157 -0.10156,0.10157 m 0.10156,9.3789 v -9.48047"
     inkscape:connector-curvature="0" />
  <path
     id="path10607"
     style="fill:none;stroke:#000000;stroke-width:0.2;stroke-linecap:butt;stroke-linejoin:miter;stroke-miterlimit:10;stroke-opacity:1"
     d="m 317.59219,89.55703 m -22.74609,0.0977 h 9.94921 c 2.2461,0 4.45313,-0.58985 6.39844,-1.71485 1.94531,-1.125 3.5625,-2.73828 4.6836,-4.68359 1.125,-1.94531 1.71484,-4.15234 1.71484,-6.39844 m -22.64453,15.69531 v -3 c 0,0.0547 -0.043,0.10157 -0.10156,0.10157 m -6,3 h 6 c 0.0547,0 0.10156,-0.043 0.10156,-0.10157 m -6.20313,-3 v 3 c 0,0.0547 0.043,0.10157 0.10157,0.10157 m 0,-3 c -0.0547,0 -0.10157,-0.043 -0.10157,-0.10157 m -5.89843,0.10157 h 6 m -5.89844,2.89843 v -3 c 0,0.0547 -0.043,0.10157 -0.10156,0.10157 m -6,3 h 6 c 0.0547,0 0.10156,-0.043 0.10156,-0.10157 m -6.20313,-3 v 3 c 0,0.0547 0.043,0.10157 0.10157,0.10157 m 0,-3 c -0.0547,0 -0.10157,-0.043 -0.10157,-0.10157 m -5.89843,0.10157 h 6 m -5.89844,2.89843 v -3 c 0,0.0547 -0.043,0.10157 -0.10156,0.10157 m -6,3 h 6 c 0.0547,0 0.10156,-0.043 0.10156,-0.10157 m -6.20313,-3 v 3 c 0,0.0547 0.043,0.10157 0.10157,0.10157 m 0,-3 c -0.0547,0 -0.10157,-0.043 -0.10157,-0.10157 m -5.89843,0.10157 h 6 m -5.89844,2.89843 v -3 c 0,0.0547 -0.043,0.10157 -0.10156,0.10157 m -6,3 h 6 c 0.0547,0 0.10156,-0.043 0.10156,-0.10157 m -6.20313,-3 v 3 c 0,0.0547 0.043,0.10157 0.10157,0.10157 m 0,-3 c -0.0547,0 -0.10157,-0.043 -0.10157,-0.10157 m -5.89843,0.10157 h 6 m -5.89844,2.89843 v -3 c 0,0.0547 -0.043,0.10157 -0.10156,0.10157 m -6,3 h 6 c 0.0547,0 0.10156,-0.043 0.10156,-0.10157 m -6.20313,-3 v 3 c 0,0.0547 0.043,0.10157 0.10157,0.10157 m 0,-3 c -0.0547,0 -0.10157,-0.043 -0.10157,-0.10157 m -5.89843,0.10157 h 6 m -5.89844,2.89843 v -3 c 0,0.0547 -0.043,0.10157 -0.10156,0.10157 m -6,3 h 6 c 0.0547,0 0.10156,-0.043 0.10156,-0.10157 m -6.20313,-3 v 3 c 0,0.0547 0.043,0.10157 0.10157,0.10157 m 0,-3 c -0.0547,0 -0.10157,-0.043 -0.10157,-0.10157 m -5.89843,0.10157 h 6 m -5.89844,2.89843 v -3 c 0,0.0547 -0.043,0.10157 -0.10156,0.10157 m -6,3 h 6 c 0.0547,0 0.10156,-0.043 0.10156,-0.10157 m -6.20313,-3 v 3 c 0,0.0547 0.043,0.10157 0.10157,0.10157 m 0,-3 c -0.0547,0 -0.10157,-0.043 -0.10157,-0.10157 m -9.84765,0.10157 h 9.94922 m -21.94922,0 h 12 m -11.89844,2.89843 v -3 c 0,0.0547 -0.043,0.10157 -0.10156,0.10157 m -12,3 h 12 c 0.0547,0 0.10156,-0.043 0.10156,-0.10157 m -12.20312,-3 v 3 c 0,0.0547 0.043,0.10157 0.10156,0.10157 M 170.1,15.89687 v 60.96094 c 0,2.2461 0.58985,4.45313 1.71485,6.39844 1.125,1.94531 2.73828,3.5625 4.68359,4.68359 1.94531,1.125 4.15234,1.71485 6.39844,1.71485 -0.0547,0 -0.10156,-0.043 -0.10156,-0.10157 M 192.8461,3.1 h -9.94922 c -2.2461,0 -4.45313,0.58984 -6.39844,1.71484 -1.94531,1.125 -3.5625,2.73828 -4.68359,4.6836 -1.125,1.94531 -1.71485,4.15234 -1.71485,6.39843 M 192.74453,0.20156 v 3 c 0,-0.0547 0.043,-0.10156 0.10157,-0.10156 m 6,-3 h -6 c -0.0547,0 -0.10157,0.043 -0.10157,0.10156 m 6.20313,3 v -3 c 0,-0.0547 -0.043,-0.10156 -0.10156,-0.10156 m 0,3 c 0.0547,0 0.10156,0.043 0.10156,0.10156 M 204.8461,3.1 h -6 m 5.89843,-2.89844 v 3 c 0,-0.0547 0.043,-0.10156 0.10157,-0.10156 m 6,-3 h -6 c -0.0547,0 -0.10157,0.043 -0.10157,0.10156 m 6.20313,3 v -3 c 0,-0.0547 -0.043,-0.10156 -0.10156,-0.10156 m 0,3 c 0.0547,0 0.10156,0.043 0.10156,0.10156 M 216.8461,3.1 h -6 m 5.89843,-2.89844 v 3 c 0,-0.0547 0.043,-0.10156 0.10157,-0.10156 m 6,-3 h -6 c -0.0547,0 -0.10157,0.043 -0.10157,0.10156 m 6.20313,3 v -3 c 0,-0.0547 -0.043,-0.10156 -0.10156,-0.10156 m 0,3 c 0.0547,0 0.10156,0.043 0.10156,0.10156 M 228.8461,3.1 h -6 m 5.89843,-2.89844 v 3 c 0,-0.0547 0.043,-0.10156 0.10157,-0.10156 m 6,-3 h -6 c -0.0547,0 -0.10157,0.043 -0.10157,0.10156 m 6.20313,3 v -3 c 0,-0.0547 -0.043,-0.10156 -0.10156,-0.10156 m 0,3 c 0.0547,0 0.10156,0.043 0.10156,0.10156 M 240.8461,3.1 h -6 m 5.89843,-2.89844 v 3 c 0,-0.0547 0.043,-0.10156 0.10157,-0.10156 m 6,-3 h -6 c -0.0547,0 -0.10157,0.043 -0.10157,0.10156 m 6.20313,3 v -3 c 0,-0.0547 -0.043,-0.10156 -0.10156,-0.10156 m 0,3 c 0.0547,0 0.10156,0.043 0.10156,0.10156 M 252.8461,3.1 h -6 m 5.89843,-2.89844 v 3 c 0,-0.0547 0.043,-0.10156 0.10157,-0.10156 m 6,-3 h -6 c -0.0547,0 -0.10157,0.043 -0.10157,0.10156 m 6.20313,3 v -3 c 0,-0.0547 -0.043,-0.10156 -0.10156,-0.10156 m 0,3 c 0.0547,0 0.10156,0.043 0.10156,0.10156 M 264.8461,3.1 h -6 m 5.89843,-2.89844 v 3 c 0,-0.0547 0.043,-0.10156 0.10157,-0.10156 m 6,-3 h -6 c -0.0547,0 -0.10157,0.043 -0.10157,0.10156 m 6.20313,3 v -3 c 0,-0.0547 -0.043,-0.10156 -0.10156,-0.10156 m 0,3 c 0.0547,0 0.10156,0.043 0.10156,0.10156 M 276.8461,3.1 h -6 m 5.89843,-2.89844 v 3 c 0,-0.0547 0.043,-0.10156 0.10157,-0.10156 m 6,-3 h -6 c -0.0547,0 -0.10157,0.043 -0.10157,0.10156 m 6.20313,3 v -3 c 0,-0.0547 -0.043,-0.10156 -0.10156,-0.10156 m 0,3 c 0.0547,0 0.10156,0.043 0.10156,0.10156 M 288.8461,3.1 h -6 m 5.89843,-2.89844 v 3 c 0,-0.0547 0.043,-0.10156 0.10157,-0.10156 m 6,-3 h -6 c -0.0547,0 -0.10157,0.043 -0.10157,0.10156 m 6.20313,3 v -3 c 0,-0.0547 -0.043,-0.10156 -0.10156,-0.10156 m 0,3 c 0.0547,0 0.10156,0.043 0.10156,0.10156 M 304.79531,3.1 h -9.94921 m 22.74609,22.27734 v -9.48047 c 0,-2.24609 -0.58984,-4.45312 -1.71484,-6.39843 -1.125,-1.94532 -2.73829,-3.5625 -4.6836,-4.6836 C 309.24844,3.68984 307.04141,3.1 304.79531,3.1 m 15.69532,22.17578 h -3 c 0.0547,0 0.10156,0.043 0.10156,0.10156 m 3,6 v -6 c 0,-0.0547 -0.043,-0.10156 -0.10156,-0.10156 m -3,6.20313 h 3 c 0.0547,0 0.10156,-0.043 0.10156,-0.10157 m -3,0 c 0,0.0547 -0.043,0.10157 -0.10156,0.10157 m 0.10156,5.89843 v -6 m 2.89844,5.89844 h -3 c 0.0547,0 0.10156,0.043 0.10156,0.10156 m 3,6 v -6 c 0,-0.0547 -0.043,-0.10156 -0.10156,-0.10156 m -3,6.20313 h 3 c 0.0547,0 0.10156,-0.043 0.10156,-0.10157 m -3,0 c 0,0.0547 -0.043,0.10157 -0.10156,0.10157 m 0.10156,5.89843 v -6 m 2.89844,5.89844 h -3 c 0.0547,0 0.10156,0.043 0.10156,0.10156 m 3,6 v -6 c 0,-0.0547 -0.043,-0.10156 -0.10156,-0.10156 m -3,6.20313 h 3 c 0.0547,0 0.10156,-0.043 0.10156,-0.10157 m -3,0 c 0,0.0547 -0.043,0.10157 -0.10156,0.10157 m 0.10156,5.89843 v -6 m 2.89844,5.89844 h -3 c 0.0547,0 0.10156,0.043 0.10156,0.10156 m 3,6 v -6 c 0,-0.0547 -0.043,-0.10156 -0.10156,-0.10156 m -3,6.20313 h 3 c 0.0547,0 0.10156,-0.043 0.10156,-0.10157 m -3,0 c 0,0.0547 -0.043,0.10157 -0.10156,0.10157 m 0.10156,9.3789 v -9.48047"
     inkscape:connector-curvature="0" />
</svg>
