999
dxfrw 0.6.3
  0
SECTION
  2
HEADER
  9
$ACADVER
  1
AC1021
  9
$DWGCODEPAGE
  3
ANSI_1252
  9
$INSBASE
 10
0
 20
0
 30
0
  9
$EXTMIN
 10
3.99706
 20
-1828.634719
 30
0
  9
$EXTMAX
 10
11797.53456
 20
-605.995136
 30
0
  9
$LIMMIN
 10
0
 20
0
  9
$LIMMAX
 10
420
 20
297
  9
$ORTHOMODE
 70
    0
  9
$REGENMODE
 70
    1
  9
$FILLMODE
 70
    1
  9
$QTEXTMODE
 70
    0
  9
$MIRRTEXT
 70
    0
  9
$LTSCALE
 40
1
  9
$ATTMODE
 70
    0
  9
$TEXTSIZE
 40
2.5
  9
$TRACEWID
 40
15.68
  9
$TEXTSTYLE
  7
STANDARD
  9
$CLAYER
  8
0
  9
$CELTYPE
  6
BYLAYER
  9
$CECOLOR
 62
  256
  9
$CELTSCALE
 40
1
  9
$DISPSILH
 70
    0
  9
$DIMSCALE
 40
2.5
  9
$DIMASZ
 40
2.5
  9
$DIMEXO
 40
0.625
  9
$DIMDLI
 40
3.75
  9
$DIMRND
 40
0
  9
$DIMDLE
 40
0
  9
$DIMEXE
 40
1.25
  9
$DIMTP
 40
0
  9
$DIMTM
 40
0
  9
$DIMTXT
 40
2.5
  9
$DIMCEN
 40
2.5
  9
$DIMTSZ
 40
0
  9
$DIMTOL
 70
    0
  9
$DIMLIM
 70
    0
  9
$DIMTIH
 70
    0
  9
$DIMTOH
 70
    0
  9
$DIMSE1
 70
    0
  9
$DIMSE2
 70
    0
  9
$DIMTAD
 70
    1
  9
$DIMZIN
 70
    8
  9
$DIMBLK
  1

  9
$DIMASO
 70
    1
  9
$DIMSHO
 70
    1
  9
$DIMPOST
  1

  9
$DIMAPOST
  1

  9
$DIMALT
 70
    0
  9
$DIMALTD
 70
    3
  9
$DIMALTF
 40
0.03937
  9
$DIMLFAC
 40
1
  9
$DIMTOFL
 70
    1
  9
$DIMTVP
 40
0
  9
$DIMTIX
 70
    0
  9
$DIMSOXD
 70
    0
  9
$DIMSAH
 70
    0
  9
$DIMBLK1
  1

  9
$DIMBLK2
  1

  9
$DIMSTYLE
  2
Standard
  9
$DIMCLRD
 70
    0
  9
$DIMCLRE
 70
    0
  9
$DIMCLRT
 70
    0
  9
$DIMTFAC
 40
1
  9
$DIMGAP
 40
0.625
  9
$DIMJUST
 70
    0
  9
$DIMSD1
 70
    0
  9
$DIMSD2
 70
    0
  9
$DIMTOLJ
 70
    0
  9
$DIMTZIN
 70
    8
  9
$DIMALTZ
 70
    0
  9
$DIMALTTZ
 70
    0
  9
$DIMUPT
 70
    0
  9
$DIMDEC
 70
    2
  9
$DIMTDEC
 70
    2
  9
$DIMALTU
 70
    2
  9
$DIMALTTD
 70
    3
  9
$DIMTXSTY
  7
STANDARD
  9
$DIMAUNIT
 70
    0
  9
$DIMADEC
 70
    0
  9
$DIMALTRND
 40
0
  9
$DIMAZIN
 70
    0
  9
$DIMDSEP
 70
   44
  9
$DIMATFIT
 70
    3
  9
$DIMFRAC
 70
    0
  9
$DIMLDRBLK
  1
STANDARD
  9
$DIMLUNIT
 70
    2
  9
$DIMLWD
 70
   -2
  9
$DIMLWE
 70
   -2
  9
$DIMTMOVE
 70
    0
  9
$DIMFXL
 40
1
  9
$DIMFXLON
 70
    0
  9
$DIMJOGANG
 40
0.7854
  9
$DIMTFILL
 70
    0
  9
$DIMTFILLCLR
 70
    0
  9
$DIMARCSYM
 70
    0
  9
$DIMLTYPE
  6

  9
$DIMLTEX1
  6

  9
$DIMLTEX2
  6

  9
$LUNITS
 70
    2
  9
$LUPREC
 70
    4
  9
$SKETCHINC
 40
1
  9
$FILLETRAD
 40
0
  9
$AUNITS
 70
    0
  9
$AUPREC
 70
    2
  9
$MENU
  1
.
  9
$ELEVATION
 40
0
  9
$PELEVATION
 40
0
  9
$THICKNESS
 40
0
  9
$LIMCHECK
 70
    0
  9
$CHAMFERA
 40
0
  9
$CHAMFERB
 40
0
  9
$CHAMFERC
 40
0
  9
$CHAMFERD
 40
0
  9
$SKPOLY
 70
    0
  9
$USRTIMER
 70
    1
  9
$ANGBASE
 50
0
  9
$ANGDIR
 70
    0
  9
$PDMODE
 70
   34
  9
$PDSIZE
 40
0
  9
$PLINEWID
 40
0
  9
$SPLFRAME
 70
    0
  9
$SPLINETYPE
 70
    2
  9
$SPLINESEGS
 70
    8
  9
$HANDSEED
  5
20000
  9
$SURFTAB1
 70
    6
  9
$SURFTAB2
 70
    6
  9
$SURFTYPE
 70
    6
  9
$SURFU
 70
    6
  9
$SURFV
 70
    6
  9
$UCSBASE
  2

  9
$UCSNAME
  2

  9
$UCSORG
 10
0
 20
0
 30
0
  9
$UCSXDIR
 10
1
 20
0
 30
0
  9
$UCSYDIR
 10
0
 20
1
 30
0
  9
$UCSORTHOREF
  2

  9
$UCSORTHOVIEW
 70
    0
  9
$UCSORGTOP
 10
0
 20
0
 30
0
  9
$UCSORGBOTTOM
 10
0
 20
0
 30
0
  9
$UCSORGLEFT
 10
0
 20
0
 30
0
  9
$UCSORGRIGHT
 10
0
 20
0
 30
0
  9
$UCSORGFRONT
 10
0
 20
0
 30
0
  9
$UCSORGBACK
 10
0
 20
0
 30
0
  9
$PUCSBASE
  2

  9
$PUCSNAME
  2

  9
$PUCSORG
 10
0
 20
0
 30
0
  9
$PUCSXDIR
 10
1
 20
0
 30
0
  9
$PUCSYDIR
 10
0
 20
1
 30
0
  9
$PUCSORTHOREF
  2

  9
$PUCSORTHOVIEW
 70
    0
  9
$PUCSORGTOP
 10
0
 20
0
 30
0
  9
$PUCSORGBOTTOM
 10
0
 20
0
 30
0
  9
$PUCSORGLEFT
 10
0
 20
0
 30
0
  9
$PUCSORGRIGHT
 10
0
 20
0
 30
0
  9
$PUCSORGFRONT
 10
0
 20
0
 30
0
  9
$PUCSORGBACK
 10
0
 20
0
 30
0
  9
$USERI1
 70
    0
  9
$USERI2
 70
    0
  9
$USERI3
 70
    0
  9
$USERI4
 70
    0
  9
$USERI5
 70
    0
  9
$USERR1
 40
0
  9
$USERR2
 40
0
  9
$USERR3
 40
0
  9
$USERR4
 40
0
  9
$USERR5
 40
0
  9
$WORLDVIEW
 70
    1
  9
$SHADEDGE
 70
    3
  9
$SHADEDIF
 70
   70
  9
$TILEMODE
 70
    1
  9
$MAXACTVP
 70
   64
  9
$PINSBASE
 10
0
 20
0
 30
0
  9
$PLIMCHECK
 70
    0
  9
$PEXTMIN
 10
0
 20
0
 30
0
  9
$PEXTMAX
 10
0
 20
0
 30
0
  9
$GRIDMODE
 70
    0
  9
$SNAPSTYLE
 70
    0
  9
$PLIMMIN
 10
0
 20
0
  9
$PLIMMAX
 10
210
 20
297
  9
$UNITMODE
 70
    0
  9
$VISRETAIN
 70
    1
  9
$PLINEGEN
 70
    0
  9
$PSLTSCALE
 70
    1
  9
$TREEDEPTH
 70
 3020
  9
$CMLSTYLE
  2
Standard
  9
$CMLJUST
 70
    0
  9
$CMLSCALE
 40
20
  9
$PROXYGRAPHICS
 70
    1
  9
$MEASUREMENT
 70
    1
  9
$CELWEIGHT
370
   -1
  9
$ENDCAPS
280
    0
  9
$JOINSTYLE
280
    0
  9
$LWDISPLAY
290
    0
  9
$INSUNITS
 70
    4
  9
$HYPERLINKBASE
  1

  9
$STYLESHEET
  1

  9
$XEDIT
290
    1
  9
$CEPSNTYPE
380
    0
  9
$PSTYLEMODE
290
    1
  9
$EXTNAMES
290
    1
  9
$PSVPSCALE
 40
1
  9
$OLESTARTUP
290
    0
  9
$SORTENTS
280
  127
  9
$INDEXCTL
280
    0
  9
$HIDETEXT
280
    1
  9
$XCLIPFRAME
290
    0
  9
$HALOGAP
280
    0
  9
$OBSCOLOR
 70
  257
  9
$OBSLTYPE
280
    0
  9
$INTERSECTIONDISPLAY
280
    0
  9
$INTERSECTIONCOLOR
 70
  257
  9
$DIMASSOC
280
    1
  9
$PROJECTNAME
  1

  9
$CAMERADISPLAY
290
    0
  9
$LENSLENGTH
 40
50
  9
$CAMERAHEIGHT
 40
0
  9
$STEPSPERSEC
 40
2
  9
$STEPSIZE
 40
50
  9
$3DDWFPREC
 40
2
  9
$PSOLWIDTH
 40
5
  9
$PSOLHEIGHT
 40
80
  9
$LOFTANG1
 40
1.570796326794897
  9
$LOFTANG2
 40
1.570796326794897
  9
$LOFTMAG1
 40
0
  9
$LOFTMAG2
 40
0
  9
$LOFTPARAM
 70
    7
  9
$LOFTNORMALS
280
    1
  9
$LATITUDE
 40
1
  9
$LONGITUDE
 40
1
  9
$NORTHDIRECTION
 40
0
  9
$TIMEZONE
 70
-8000
  9
$LIGHTGLYPHDISPLAY
280
    1
  9
$TILEMODELIGHTSYNCH
280
    1
  9
$SOLIDHIST
280
    1
  9
$SHOWHIST
280
    1
  9
$DWFFRAME
280
    2
  9
$DGNFRAME
280
    0
  9
$REALWORLDSCALE
290
    1
  9
$INTERFERECOLOR
 62
    1
  9
$CSHADOW
280
    0
  9
$SHADOWPLANELOCATION
 40
0
  0
ENDSEC
  0
SECTION
  2
CLASSES
  0
ENDSEC
  0
SECTION
  2
TABLES
  0
TABLE
  2
VPORT
  5
8
330
0
100
AcDbSymbolTable
 70
    1
  0
VPORT
  5
31
330
2
100
AcDbSymbolTableRecord
100
AcDbViewportTableRecord
  2
*ACTIVE
 70
    0
 10
0
 20
0
 11
1
 21
1
 12
8159.967804461032
 22
2651.253077261707
 13
0
 23
0
 14
10
 24
10
 15
10
 25
10
 16
0
 26
0
 36
1
 17
0
 27
0
 37
0
 40
9691.802915767796
 41
2.36322188449848
 42
50
 43
0
 44
0
 50
0
 51
0
 71
    0
 72
  100
 73
    1
 74
    3
 75
    0
 76
    0
 77
    0
 78
    0
281
    0
 65
    1
110
0
120
0
130
0
111
1
121
0
131
0
112
0
122
1
132
0
 79
    0
146
0
348
10020
 60
    7
 61
    5
292
1
282
    1
141
0
142
0
 63
  250
421
3358443
  0
ENDTAB
  0
TABLE
  2
LTYPE
  5
5
330
0
100
AcDbSymbolTable
 70
    4
  0
LTYPE
  5
14
330
5
100
AcDbSymbolTableRecord
100
AcDbLinetypeTableRecord
  2
ByBlock
 70
    0
  3

 72
   65
 73
    0
 40
0
  0
LTYPE
  5
15
330
5
100
AcDbSymbolTableRecord
100
AcDbLinetypeTableRecord
  2
ByLayer
 70
    0
  3

 72
   65
 73
    0
 40
0
  0
LTYPE
  5
16
330
5
100
AcDbSymbolTableRecord
100
AcDbLinetypeTableRecord
  2
Continuous
 70
    0
  3
Solid line
 72
   65
 73
    0
 40
0
  0
LTYPE
  5
32
330
5
100
AcDbSymbolTableRecord
100
AcDbLinetypeTableRecord
  2
DOT
 70
    0
  3
Dot . . . . . . . . . . . . . . . . . . . . . .
 72
   65
 73
    2
 40
6.35
 49
0
 74
    0
 49
-6.35
 74
    0
  0
LTYPE
  5
33
330
5
100
AcDbSymbolTableRecord
100
AcDbLinetypeTableRecord
  2
DOTTINY
 70
    0
  3
Dot (.15x) .....................................
 72
   65
 73
    2
 40
0.9525
 49
0
 74
    0
 49
-0.9525
 74
    0
  0
LTYPE
  5
34
330
5
100
AcDbSymbolTableRecord
100
AcDbLinetypeTableRecord
  2
DOT2
 70
    0
  3
Dot (.5x) .....................................
 72
   65
 73
    2
 40
3.175
 49
0
 74
    0
 49
-3.175
 74
    0
  0
LTYPE
  5
35
330
5
100
AcDbSymbolTableRecord
100
AcDbLinetypeTableRecord
  2
DOTX2
 70
    0
  3
Dot (2x) .  .  .  .  .  .  .  .  .  .  .  .  .
 72
   65
 73
    2
 40
12.7
 49
0
 74
    0
 49
-12.7
 74
    0
  0
LTYPE
  5
36
330
5
100
AcDbSymbolTableRecord
100
AcDbLinetypeTableRecord
  2
DASHED
 70
    0
  3
Dashed _ _ _ _ _ _ _ _ _ _ _ _ _ _ _ _ _
 72
   65
 73
    2
 40
19.05
 49
12.7
 74
    0
 49
-6.35
 74
    0
  0
LTYPE
  5
37
330
5
100
AcDbSymbolTableRecord
100
AcDbLinetypeTableRecord
  2
DASHEDTINY
 70
    0
  3
Dashed (.15x) _ _ _ _ _ _ _ _ _ _ _ _ _ _ _ _ _
 72
   65
 73
    2
 40
2.8575
 49
1.905
 74
    0
 49
-0.9525
 74
    0
  0
LTYPE
  5
38
330
5
100
AcDbSymbolTableRecord
100
AcDbLinetypeTableRecord
  2
DASHED2
 70
    0
  3
Dashed (.5x) _ _ _ _ _ _ _ _ _ _ _ _ _ _ _ _ _
 72
   65
 73
    2
 40
9.524999999999999
 49
6.35
 74
    0
 49
-3.175
 74
    0
  0
LTYPE
  5
39
330
5
100
AcDbSymbolTableRecord
100
AcDbLinetypeTableRecord
  2
DASHEDX2
 70
    0
  3
Dashed (2x) ____  ____  ____  ____  ____  ___
 72
   65
 73
    2
 40
38.09999999999999
 49
25.4
 74
    0
 49
-12.7
 74
    0
  0
LTYPE
  5
3A
330
5
100
AcDbSymbolTableRecord
100
AcDbLinetypeTableRecord
  2
DASHDOT
 70
    0
  3
Dash dot __ . __ . __ . __ . __ . __ . __ . __
 72
   65
 73
    4
 40
25.4
 49
12.7
 74
    0
 49
-6.35
 74
    0
 49
0
 74
    0
 49
-6.35
 74
    0
  0
LTYPE
  5
3B
330
5
100
AcDbSymbolTableRecord
100
AcDbLinetypeTableRecord
  2
DASHDOTTINY
 70
    0
  3
Dash dot (.15x) _._._._._._._._._._._._._._._.
 72
   65
 73
    4
 40
3.81
 49
1.905
 74
    0
 49
-0.9525
 74
    0
 49
0
 74
    0
 49
-0.9525
 74
    0
  0
LTYPE
  5
3C
330
5
100
AcDbSymbolTableRecord
100
AcDbLinetypeTableRecord
  2
DASHDOT2
 70
    0
  3
Dash dot (.5x) _._._._._._._._._._._._._._._.
 72
   65
 73
    4
 40
12.7
 49
6.35
 74
    0
 49
-3.175
 74
    0
 49
0
 74
    0
 49
-3.175
 74
    0
  0
LTYPE
  5
3D
330
5
100
AcDbSymbolTableRecord
100
AcDbLinetypeTableRecord
  2
DASHDOTX2
 70
    0
  3
Dash dot (2x) ____  .  ____  .  ____  .  ___
 72
   65
 73
    4
 40
50.8
 49
25.4
 74
    0
 49
-12.7
 74
    0
 49
0
 74
    0
 49
-12.7
 74
    0
  0
LTYPE
  5
3E
330
5
100
AcDbSymbolTableRecord
100
AcDbLinetypeTableRecord
  2
DIVIDE
 70
    0
  3
Divide ____ . . ____ . . ____ . . ____ . . ____
 72
   65
 73
    6
 40
31.75
 49
12.7
 74
    0
 49
-6.35
 74
    0
 49
0
 74
    0
 49
-6.35
 74
    0
 49
0
 74
    0
 49
-6.35
 74
    0
  0
LTYPE
  5
3F
330
5
100
AcDbSymbolTableRecord
100
AcDbLinetypeTableRecord
  2
DIVIDETINY
 70
    0
  3
Divide (.15x) __..__..__..__..__..__..__..__.._
 72
   65
 73
    6
 40
4.7625
 49
1.905
 74
    0
 49
-0.9525
 74
    0
 49
0
 74
    0
 49
-0.9525
 74
    0
 49
0
 74
    0
 49
-0.9525
 74
    0
  0
LTYPE
  5
40
330
5
100
AcDbSymbolTableRecord
100
AcDbLinetypeTableRecord
  2
DIVIDE2
 70
    0
  3
Divide (.5x) __..__..__..__..__..__..__..__.._
 72
   65
 73
    6
 40
15.875
 49
6.35
 74
    0
 49
-3.175
 74
    0
 49
0
 74
    0
 49
-3.175
 74
    0
 49
0
 74
    0
 49
-3.175
 74
    0
  0
LTYPE
  5
41
330
5
100
AcDbSymbolTableRecord
100
AcDbLinetypeTableRecord
  2
DIVIDEX2
 70
    0
  3
Divide (2x) ________  .  .  ________  .  .  _
 72
   65
 73
    6
 40
63.5
 49
25.4
 74
    0
 49
-12.7
 74
    0
 49
0
 74
    0
 49
-12.7
 74
    0
 49
0
 74
    0
 49
-12.7
 74
    0
  0
LTYPE
  5
42
330
5
100
AcDbSymbolTableRecord
100
AcDbLinetypeTableRecord
  2
BORDER
 70
    0
  3
Border __ __ . __ __ . __ __ . __ __ . __ __ .
 72
   65
 73
    6
 40
44.45
 49
12.7
 74
    0
 49
-6.35
 74
    0
 49
12.7
 74
    0
 49
-6.35
 74
    0
 49
0
 74
    0
 49
-6.35
 74
    0
  0
LTYPE
  5
43
330
5
100
AcDbSymbolTableRecord
100
AcDbLinetypeTableRecord
  2
BORDERTINY
 70
    0
  3
Border (.15x) __.__.__.__.__.__.__.__.__.__.__.
 72
   65
 73
    6
 40
6.6675
 49
1.905
 74
    0
 49
-0.9525
 74
    0
 49
1.905
 74
    0
 49
-0.9525
 74
    0
 49
0
 74
    0
 49
-0.9525
 74
    0
  0
LTYPE
  5
44
330
5
100
AcDbSymbolTableRecord
100
AcDbLinetypeTableRecord
  2
BORDER2
 70
    0
  3
Border (.5x) __.__.__.__.__.__.__.__.__.__.__.
 72
   65
 73
    6
 40
22.225
 49
6.35
 74
    0
 49
-3.175
 74
    0
 49
6.35
 74
    0
 49
-3.175
 74
    0
 49
0
 74
    0
 49
-3.175
 74
    0
  0
LTYPE
  5
45
330
5
100
AcDbSymbolTableRecord
100
AcDbLinetypeTableRecord
  2
BORDERX2
 70
    0
  3
Border (2x) ____  ____  .  ____  ____  .  ___
 72
   65
 73
    6
 40
88.89999999999999
 49
25.4
 74
    0
 49
-12.7
 74
    0
 49
25.4
 74
    0
 49
-12.7
 74
    0
 49
0
 74
    0
 49
-12.7
 74
    0
  0
LTYPE
  5
46
330
5
100
AcDbSymbolTableRecord
100
AcDbLinetypeTableRecord
  2
CENTER
 70
    0
  3
Center ____ _ ____ _ ____ _ ____ _ ____ _ ____
 72
   65
 73
    4
 40
50.8
 49
31.75
 74
    0
 49
-6.35
 74
    0
 49
6.35
 74
    0
 49
-6.35
 74
    0
  0
LTYPE
  5
47
330
5
100
AcDbSymbolTableRecord
100
AcDbLinetypeTableRecord
  2
CENTERTINY
 70
    0
  3
Center (.15x) ___ _ ___ _ ___ _ ___ _ ___ _ ___
 72
   65
 73
    4
 40
7.619999999999999
 49
4.7625
 74
    0
 49
-0.9525
 74
    0
 49
0.9525
 74
    0
 49
-0.9525
 74
    0
  0
LTYPE
  5
48
330
5
100
AcDbSymbolTableRecord
100
AcDbLinetypeTableRecord
  2
CENTER2
 70
    0
  3
Center (.5x) ___ _ ___ _ ___ _ ___ _ ___ _ ___
 72
   65
 73
    4
 40
28.575
 49
19.05
 74
    0
 49
-3.175
 74
    0
 49
3.175
 74
    0
 49
-3.175
 74
    0
  0
LTYPE
  5
49
330
5
100
AcDbSymbolTableRecord
100
AcDbLinetypeTableRecord
  2
CENTERX2
 70
    0
  3
Center (2x) ________  __  ________  __  _____
 72
   65
 73
    4
 40
101.6
 49
63.5
 74
    0
 49
-12.7
 74
    0
 49
12.7
 74
    0
 49
-12.7
 74
    0
  0
ENDTAB
  0
TABLE
  2
LAYER
  5
2
330
0
100
AcDbSymbolTable
 70
    1
  0
LAYER
  5
10
330
2
100
AcDbSymbolTableRecord
100
AcDbLayerTableRecord
  2
0
 70
    0
 62
    7
  6
CONTINUOUS
370
   -3
390
F
  0
ENDTAB
  0
TABLE
  2
STYLE
  5
3
330
0
100
AcDbSymbolTable
 70
    3
  0
STYLE
  5
4A
330
2
100
AcDbSymbolTableRecord
100
AcDbTextStyleTableRecord
  2
Standard
 70
    0
 40
0
 41
1
 50
0
 71
    0
 42
1
  3
txt
  4

  0
ENDTAB
  0
TABLE
  2
VIEW
  5
6
330
0
100
AcDbSymbolTable
 70
    0
  0
ENDTAB
  0
TABLE
  2
UCS
  5
7
330
0
100
AcDbSymbolTable
 70
    0
  0
ENDTAB
  0
TABLE
  2
APPID
  5
9
330
0
100
AcDbSymbolTable
 70
    1
  0
APPID
  5
12
330
9
100
AcDbSymbolTableRecord
100
AcDbRegAppTableRecord
  2
ACAD
 70
    0
  0
APPID
  5
4B
330
9
100
AcDbSymbolTableRecord
100
AcDbRegAppTableRecord
  2
LibreCad
 70
    0
  0
ENDTAB
  0
TABLE
  2
DIMSTYLE
  5
A
330
0
100
AcDbSymbolTable
 70
    1
100
AcDbDimStyleTable
 71
    1
  0
DIMSTYLE
105
4C
330
A
100
AcDbSymbolTableRecord
100
AcDbDimStyleTableRecord
  2
Standard
 70
    0
 40
2.5
 41
2.5
 42
0.625
 43
0.38
 44
1.25
 45
0
 46
0
 47
0
 48
0
 49
1
140
2.5
141
0.09
142
0
143
25.4
144
1
145
0
146
1
147
0.625
148
0
 71
    0
 72
    0
 73
    0
 74
    1
 75
    0
 76
    0
 77
    0
 78
    8
 79
    0
170
    0
171
    2
172
    0
173
    0
174
    0
175
    0
176
    0
177
    0
178
    0
179
    0
271
    2
272
    4
273
    2
274
    2
275
    0
276
    0
277
    2
278
   44
279
    0
280
    0
281
    0
282
    0
283
    1
284
    0
285
    0
286
    0
288
    0
289
    3
340
STANDARD
341

371
   -2
372
   -2
  0
ENDTAB
  0
TABLE
  2
BLOCK_RECORD
  5
1
330
0
100
AcDbSymbolTable
 70
    2
  0
BLOCK_RECORD
  5
1F
330
1
100
AcDbSymbolTableRecord
100
AcDbBlockTableRecord
  2
*Model_Space
 70
    0
280
    1
281
    0
  0
BLOCK_RECORD
  5
1E
330
1
100
AcDbSymbolTableRecord
100
AcDbBlockTableRecord
  2
*Paper_Space
 70
    0
280
    1
281
    0
  0
ENDTAB
  0
ENDSEC
  0
SECTION
  2
BLOCKS
  0
BLOCK
  5
20
330
1F
100
AcDbEntity
  8
0
100
AcDbBlockBegin
  2
*Model_Space
 70
    0
 10
0
 20
0
 30
0
  3
*Model_Space
  1

  0
ENDBLK
  5
21
330
1F
100
AcDbEntity
  8
0
100
AcDbBlockEnd
  0
BLOCK
  5
1C
330
1B
100
AcDbEntity
  8
0
100
AcDbBlockBegin
  2
*Paper_Space
 70
    0
 10
0
 20
0
 30
0
  3
*Paper_Space
  1

  0
ENDBLK
  5
1D
330
1F
100
AcDbEntity
  8
0
100
AcDbBlockEnd
  0
ENDSEC
  0
SECTION
  2
ENTITIES
  0
LWPOLYLINE
  5
4D
100
AcDbEntity
  8
0
  6
ByLayer
 62
    7
370
   -1
100
AcDbPolyline
 90
    2
 70
    0
 43
0
 10
11797.53456
 20
-1825.988886
 10
11797.53456
 20
-608.640969
  0
SPLINE
  5
4E
100
AcDbEntity
  8
0
  6
ByLayer
 62
    7
370
   -1
100
AcDbSpline
210
0
220
0
230
0
 70
    8
 71
    3
 72
   10
 73
    6
 74
    0
 42
1e-07
 43
1e-07
 40
0
 40
0
 40
0
 40
0
 40
0.3333333333333333
 40
0.6666666666666666
 40
1
 40
1
 40
1
 40
1
 10
11797.53456
 20
-608.640969
 30
0
 10
11797.477894
 20
-608.156963
 30
0
 10
11797.369638
 20
-607.2323
 30
0
 10
11796.297396
 20
-606.160059
 30
0
 10
11795.372733
 20
-606.051802
 30
0
 10
11794.888727
 20
-605.995136
 30
0
  0
LWPOLYLINE
  5
4F
100
AcDbEntity
  8
0
  6
ByLayer
 62
    7
370
   -1
100
AcDbPolyline
 90
    2
 70
    0
 43
0
 10
11535.59706
 20
-1828.634719
 10
11794.888727
 20
-1828.634719
  0
SPLINE
  5
50
100
AcDbEntity
  8
0
  6
ByLayer
 62
    7
370
   -1
100
AcDbSpline
210
0
220
0
230
0
 70
    8
 71
    3
 72
   10
 73
    6
 74
    0
 42
1e-07
 43
1e-07
 40
0
 40
0
 40
0
 40
0
 40
0.3333333333333333
 40
0.6666666666666666
 40
1
 40
1
 40
1
 40
1
 10
11794.888727
 20
-1828.634719
 30
0
 10
11795.328233
 20
-1828.565855
 30
0
 10
11796.216637
 20
-1828.426654
 30
0
 10
11797.306373
 20
-1827.413705
 30
0
 10
11797.456689
 20
-1826.475122
 30
0
 10
11797.53456
 20
-1825.988886
 30
0
  0
LWPOLYLINE
  5
51
100
AcDbEntity
  8
0
  6
ByLayer
 62
    7
370
   -1
100
AcDbPolyline
 90
    2
 70
    0
 43
0
 10
11532.951227
 20
-1746.613886
 10
11532.951227
 20
-1825.988886
  0
SPLINE
  5
52
100
AcDbEntity
  8
0
  6
ByLayer
 62
    7
370
   -1
100
AcDbSpline
210
0
220
0
230
0
 70
    8
 71
    3
 72
   10
 73
    6
 74
    0
 42
1e-07
 43
1e-07
 40
0
 40
0
 40
0
 40
0
 40
0.3333333333333333
 40
0.6666666666666666
 40
1
 40
1
 40
1
 40
1
 10
11532.951227
 20
-1825.988886
 30
0
 10
11533.020092
 20
-1826.428392
 30
0
 10
11533.159293
 20
-1827.316796
 30
0
 10
11534.172241
 20
-1828.406532
 30
0
 10
11535.110825
 20
-1828.556848
 30
0
 10
11535.59706
 20
-1828.634719
 30
0
  0
LWPOLYLINE
  5
53
100
AcDbEntity
  8
0
  6
ByLayer
 62
    7
370
   -1
100
AcDbPolyline
 90
    2
 70
    0
 43
0
 10
11368.90956
 20
-1749.259719
 10
11535.59706
 20
-1749.259719
  0
SPLINE
  5
54
100
AcDbEntity
  8
0
  6
ByLayer
 62
    7
370
   -1
100
AcDbSpline
210
0
220
0
230
0
 70
    8
 71
    3
 72
   10
 73
    6
 74
    0
 42
1e-07
 43
1e-07
 40
0
 40
0
 40
0
 40
0
 40
0.3333333333333333
 40
0.6666666666666666
 40
1
 40
1
 40
1
 40
1
 10
11535.59706
 20
-1749.259719
 30
0
 10
11535.113054
 20
-1749.203053
 30
0
 10
11534.188391
 20
-1749.094797
 30
0
 10
11533.11615
 20
-1748.022555
 30
0
 10
11533.007893
 20
-1747.097892
 30
0
 10
11532.951227
 20
-1746.613886
 30
0
  0
SPLINE
  5
55
100
AcDbEntity
  8
0
  6
ByLayer
 62
    7
370
   -1
100
AcDbSpline
210
0
220
0
230
0
 70
    8
 71
    3
 72
   10
 73
    6
 74
    0
 42
1e-07
 43
1e-07
 40
0
 40
0
 40
0
 40
0
 40
0.3333333333333333
 40
0.6666666666666666
 40
1
 40
1
 40
1
 40
1
 10
11371.555394
 20
-1746.613886
 30
0
 10
11371.486529
 20
-1747.053392
 30
0
 10
11371.347328
 20
-1747.941796
 30
0
 10
11370.334379
 20
-1749.031532
 30
0
 10
11369.395796
 20
-1749.181848
 30
0
 10
11368.90956
 20
-1749.259719
 30
0
  0
LWPOLYLINE
  5
56
100
AcDbEntity
  8
0
  6
ByLayer
 62
    7
370
   -1
100
AcDbPolyline
 90
    2
 70
    0
 43
0
 10
11371.555394
 20
-1825.988886
 10
11371.555394
 20
-1746.613886
  0
LWPOLYLINE
  5
57
100
AcDbEntity
  8
0
  6
ByLayer
 62
    7
370
   -1
100
AcDbPolyline
 90
    2
 70
    0
 43
0
 10
11218.09706
 20
-1828.634719
 10
11368.90956
 20
-1828.634719
  0
SPLINE
  5
58
100
AcDbEntity
  8
0
  6
ByLayer
 62
    7
370
   -1
100
AcDbSpline
210
0
220
0
230
0
 70
    8
 71
    3
 72
   10
 73
    6
 74
    0
 42
1e-07
 43
1e-07
 40
0
 40
0
 40
0
 40
0
 40
0.3333333333333333
 40
0.6666666666666666
 40
1
 40
1
 40
1
 40
1
 10
11368.90956
 20
-1828.634719
 30
0
 10
11369.349066
 20
-1828.565855
 30
0
 10
11370.237471
 20
-1828.426654
 30
0
 10
11371.327206
 20
-1827.413705
 30
0
 10
11371.477522
 20
-1826.475122
 30
0
 10
11371.555394
 20
-1825.988886
 30
0
  0
LWPOLYLINE
  5
59
100
AcDbEntity
  8
0
  6
ByLayer
 62
    7
370
   -1
100
AcDbPolyline
 90
    2
 70
    0
 43
0
 10
11215.451227
 20
-1746.613886
 10
11215.451227
 20
-1825.988886
  0
SPLINE
  5
5A
100
AcDbEntity
  8
0
  6
ByLayer
 62
    7
370
   -1
100
AcDbSpline
210
0
220
0
230
0
 70
    8
 71
    3
 72
   10
 73
    6
 74
    0
 42
1e-07
 43
1e-07
 40
0
 40
0
 40
0
 40
0
 40
0.3333333333333333
 40
0.6666666666666666
 40
1
 40
1
 40
1
 40
1
 10
11215.451227
 20
-1825.988886
 30
0
 10
11215.520092
 20
-1826.428392
 30
0
 10
11215.659293
 20
-1827.316796
 30
0
 10
11216.672241
 20
-1828.406532
 30
0
 10
11217.610825
 20
-1828.556848
 30
0
 10
11218.09706
 20
-1828.634719
 30
0
  0
LWPOLYLINE
  5
5B
100
AcDbEntity
  8
0
  6
ByLayer
 62
    7
370
   -1
100
AcDbPolyline
 90
    2
 70
    0
 43
0
 10
11051.40956
 20
-1749.259719
 10
11218.09706
 20
-1749.259719
  0
SPLINE
  5
5C
100
AcDbEntity
  8
0
  6
ByLayer
 62
    7
370
   -1
100
AcDbSpline
210
0
220
0
230
0
 70
    8
 71
    3
 72
   10
 73
    6
 74
    0
 42
1e-07
 43
1e-07
 40
0
 40
0
 40
0
 40
0
 40
0.3333333333333333
 40
0.6666666666666666
 40
1
 40
1
 40
1
 40
1
 10
11218.09706
 20
-1749.259719
 30
0
 10
11217.613054
 20
-1749.203053
 30
0
 10
11216.688391
 20
-1749.094797
 30
0
 10
11215.61615
 20
-1748.022555
 30
0
 10
11215.507893
 20
-1747.097892
 30
0
 10
11215.451227
 20
-1746.613886
 30
0
  0
SPLINE
  5
5D
100
AcDbEntity
  8
0
  6
ByLayer
 62
    7
370
   -1
100
AcDbSpline
210
0
220
0
230
0
 70
    8
 71
    3
 72
   10
 73
    6
 74
    0
 42
1e-07
 43
1e-07
 40
0
 40
0
 40
0
 40
0
 40
0.3333333333333333
 40
0.6666666666666666
 40
1
 40
1
 40
1
 40
1
 10
11054.055394
 20
-1746.613886
 30
0
 10
11053.965459
 20
-1747.055229
 30
0
 10
11053.782015
 20
-1747.955458
 30
0
 10
11052.751132
 20
-1748.986341
 30
0
 10
11051.850903
 20
-1749.169785
 30
0
 10
11051.40956
 20
-1749.259719
 30
0
  0
LWPOLYLINE
  5
5E
100
AcDbEntity
  8
0
  6
ByLayer
 62
    7
370
   -1
100
AcDbPolyline
 90
    2
 70
    0
 43
0
 10
11054.055394
 20
-1825.988886
 10
11054.055394
 20
-1746.613886
  0
LWPOLYLINE
  5
5F
100
AcDbEntity
  8
0
  6
ByLayer
 62
    7
370
   -1
100
AcDbPolyline
 90
    2
 70
    0
 43
0
 10
10900.59706
 20
-1828.634719
 10
11051.40956
 20
-1828.634719
  0
SPLINE
  5
60
100
AcDbEntity
  8
0
  6
ByLayer
 62
    7
370
   -1
100
AcDbSpline
210
0
220
0
230
0
 70
    8
 71
    3
 72
   10
 73
    6
 74
    0
 42
1e-07
 43
1e-07
 40
0
 40
0
 40
0
 40
0
 40
0.3333333333333333
 40
0.6666666666666666
 40
1
 40
1
 40
1
 40
1
 10
11051.40956
 20
-1828.634719
 30
0
 10
11051.849066
 20
-1828.565855
 30
0
 10
11052.737471
 20
-1828.426654
 30
0
 10
11053.827206
 20
-1827.413705
 30
0
 10
11053.977522
 20
-1826.475122
 30
0
 10
11054.055394
 20
-1825.988886
 30
0
  0
LWPOLYLINE
  5
61
100
AcDbEntity
  8
0
  6
ByLayer
 62
    7
370
   -1
100
AcDbPolyline
 90
    2
 70
    0
 43
0
 10
10897.951227
 20
-1746.613886
 10
10897.951227
 20
-1825.988886
  0
SPLINE
  5
62
100
AcDbEntity
  8
0
  6
ByLayer
 62
    7
370
   -1
100
AcDbSpline
210
0
220
0
230
0
 70
    8
 71
    3
 72
   10
 73
    6
 74
    0
 42
1e-07
 43
1e-07
 40
0
 40
0
 40
0
 40
0
 40
0.3333333333333333
 40
0.6666666666666666
 40
1
 40
1
 40
1
 40
1
 10
10897.951227
 20
-1825.988886
 30
0
 10
10898.020092
 20
-1826.428392
 30
0
 10
10898.159293
 20
-1827.316796
 30
0
 10
10899.172241
 20
-1828.406532
 30
0
 10
10900.110825
 20
-1828.556848
 30
0
 10
10900.59706
 20
-1828.634719
 30
0
  0
LWPOLYLINE
  5
63
100
AcDbEntity
  8
0
  6
ByLayer
 62
    7
370
   -1
100
AcDbPolyline
 90
    2
 70
    0
 43
0
 10
10733.90956
 20
-1749.259719
 10
10900.59706
 20
-1749.259719
  0
SPLINE
  5
64
100
AcDbEntity
  8
0
  6
ByLayer
 62
    7
370
   -1
100
AcDbSpline
210
0
220
0
230
0
 70
    8
 71
    3
 72
   10
 73
    6
 74
    0
 42
1e-07
 43
1e-07
 40
0
 40
0
 40
0
 40
0
 40
0.3333333333333333
 40
0.6666666666666666
 40
1
 40
1
 40
1
 40
1
 10
10900.59706
 20
-1749.259719
 30
0
 10
10900.113054
 20
-1749.203053
 30
0
 10
10899.188391
 20
-1749.094797
 30
0
 10
10898.11615
 20
-1748.022555
 30
0
 10
10898.007893
 20
-1747.097892
 30
0
 10
10897.951227
 20
-1746.613886
 30
0
  0
SPLINE
  5
65
100
AcDbEntity
  8
0
  6
ByLayer
 62
    7
370
   -1
100
AcDbSpline
210
0
220
0
230
0
 70
    8
 71
    3
 72
   10
 73
    6
 74
    0
 42
1e-07
 43
1e-07
 40
0
 40
0
 40
0
 40
0
 40
0.3333333333333333
 40
0.6666666666666666
 40
1
 40
1
 40
1
 40
1
 10
10736.555394
 20
-1746.613886
 30
0
 10
10736.465459
 20
-1747.055229
 30
0
 10
10736.282015
 20
-1747.955458
 30
0
 10
10735.251132
 20
-1748.986341
 30
0
 10
10734.350903
 20
-1749.169785
 30
0
 10
10733.90956
 20
-1749.259719
 30
0
  0
LWPOLYLINE
  5
66
100
AcDbEntity
  8
0
  6
ByLayer
 62
    7
370
   -1
100
AcDbPolyline
 90
    2
 70
    0
 43
0
 10
10736.555394
 20
-1825.988886
 10
10736.555394
 20
-1746.613886
  0
LWPOLYLINE
  5
67
100
AcDbEntity
  8
0
  6
ByLayer
 62
    7
370
   -1
100
AcDbPolyline
 90
    2
 70
    0
 43
0
 10
10583.09706
 20
-1828.634719
 10
10733.90956
 20
-1828.634719
  0
SPLINE
  5
68
100
AcDbEntity
  8
0
  6
ByLayer
 62
    7
370
   -1
100
AcDbSpline
210
0
220
0
230
0
 70
    8
 71
    3
 72
   10
 73
    6
 74
    0
 42
1e-07
 43
1e-07
 40
0
 40
0
 40
0
 40
0
 40
0.3333333333333333
 40
0.6666666666666666
 40
1
 40
1
 40
1
 40
1
 10
10733.90956
 20
-1828.634719
 30
0
 10
10734.349066
 20
-1828.565855
 30
0
 10
10735.237471
 20
-1828.426654
 30
0
 10
10736.327206
 20
-1827.413705
 30
0
 10
10736.477522
 20
-1826.475122
 30
0
 10
10736.555394
 20
-1825.988886
 30
0
  0
LWPOLYLINE
  5
69
100
AcDbEntity
  8
0
  6
ByLayer
 62
    7
370
   -1
100
AcDbPolyline
 90
    2
 70
    0
 43
0
 10
10580.451227
 20
-1746.613886
 10
10580.451227
 20
-1825.988886
  0
SPLINE
  5
6A
100
AcDbEntity
  8
0
  6
ByLayer
 62
    7
370
   -1
100
AcDbSpline
210
0
220
0
230
0
 70
    8
 71
    3
 72
   10
 73
    6
 74
    0
 42
1e-07
 43
1e-07
 40
0
 40
0
 40
0
 40
0
 40
0.3333333333333333
 40
0.6666666666666666
 40
1
 40
1
 40
1
 40
1
 10
10580.451227
 20
-1825.988886
 30
0
 10
10580.520092
 20
-1826.428392
 30
0
 10
10580.659293
 20
-1827.316796
 30
0
 10
10581.672241
 20
-1828.406532
 30
0
 10
10582.610825
 20
-1828.556848
 30
0
 10
10583.09706
 20
-1828.634719
 30
0
  0
LWPOLYLINE
  5
6B
100
AcDbEntity
  8
0
  6
ByLayer
 62
    7
370
   -1
100
AcDbPolyline
 90
    2
 70
    0
 43
0
 10
10416.40956
 20
-1749.259719
 10
10583.09706
 20
-1749.259719
  0
SPLINE
  5
6C
100
AcDbEntity
  8
0
  6
ByLayer
 62
    7
370
   -1
100
AcDbSpline
210
0
220
0
230
0
 70
    8
 71
    3
 72
   10
 73
    6
 74
    0
 42
1e-07
 43
1e-07
 40
0
 40
0
 40
0
 40
0
 40
0.3333333333333333
 40
0.6666666666666666
 40
1
 40
1
 40
1
 40
1
 10
10583.09706
 20
-1749.259719
 30
0
 10
10582.613054
 20
-1749.203053
 30
0
 10
10581.688391
 20
-1749.094797
 30
0
 10
10580.61615
 20
-1748.022555
 30
0
 10
10580.507893
 20
-1747.097892
 30
0
 10
10580.451227
 20
-1746.613886
 30
0
  0
SPLINE
  5
6D
100
AcDbEntity
  8
0
  6
ByLayer
 62
    7
370
   -1
100
AcDbSpline
210
0
220
0
230
0
 70
    8
 71
    3
 72
   10
 73
    6
 74
    0
 42
1e-07
 43
1e-07
 40
0
 40
0
 40
0
 40
0
 40
0.3333333333333333
 40
0.6666666666666666
 40
1
 40
1
 40
1
 40
1
 10
10419.055394
 20
-1746.613886
 30
0
 10
10418.965459
 20
-1747.055229
 30
0
 10
10418.782015
 20
-1747.955458
 30
0
 10
10417.751132
 20
-1748.986341
 30
0
 10
10416.850903
 20
-1749.169785
 30
0
 10
10416.40956
 20
-1749.259719
 30
0
  0
LWPOLYLINE
  5
6E
100
AcDbEntity
  8
0
  6
ByLayer
 62
    7
370
   -1
100
AcDbPolyline
 90
    2
 70
    0
 43
0
 10
10419.055394
 20
-1825.988886
 10
10419.055394
 20
-1746.613886
  0
LWPOLYLINE
  5
6F
100
AcDbEntity
  8
0
  6
ByLayer
 62
    7
370
   -1
100
AcDbPolyline
 90
    2
 70
    0
 43
0
 10
10265.59706
 20
-1828.634719
 10
10416.40956
 20
-1828.634719
  0
SPLINE
  5
70
100
AcDbEntity
  8
0
  6
ByLayer
 62
    7
370
   -1
100
AcDbSpline
210
0
220
0
230
0
 70
    8
 71
    3
 72
   10
 73
    6
 74
    0
 42
1e-07
 43
1e-07
 40
0
 40
0
 40
0
 40
0
 40
0.3333333333333333
 40
0.6666666666666666
 40
1
 40
1
 40
1
 40
1
 10
10416.40956
 20
-1828.634719
 30
0
 10
10416.849066
 20
-1828.565855
 30
0
 10
10417.737471
 20
-1828.426654
 30
0
 10
10418.827206
 20
-1827.413705
 30
0
 10
10418.977522
 20
-1826.475122
 30
0
 10
10419.055394
 20
-1825.988886
 30
0
  0
LWPOLYLINE
  5
71
100
AcDbEntity
  8
0
  6
ByLayer
 62
    7
370
   -1
100
AcDbPolyline
 90
    2
 70
    0
 43
0
 10
10262.686644
 20
-1746.613886
 10
10262.686644
 20
-1825.988886
  0
SPLINE
  5
72
100
AcDbEntity
  8
0
  6
ByLayer
 62
    7
370
   -1
100
AcDbSpline
210
0
220
0
230
0
 70
    8
 71
    3
 72
   10
 73
    6
 74
    0
 42
1e-07
 43
1e-07
 40
0
 40
0
 40
0
 40
0
 40
0.3333333333333333
 40
0.6666666666666666
 40
1
 40
1
 40
1
 40
1
 10
10262.686644
 20
-1825.988886
 30
0
 10
10262.777895
 20
-1826.432742
 30
0
 10
10262.967187
 20
-1827.35348
 30
0
 10
10264.111215
 20
-1828.393152
 30
0
 10
10265.093266
 20
-1828.552813
 30
0
 10
10265.59706
 20
-1828.634719
 30
0
  0
LWPOLYLINE
  5
73
100
AcDbEntity
  8
0
  6
ByLayer
 62
    7
370
   -1
100
AcDbPolyline
 90
    2
 70
    0
 43
0
 10
10098.90956
 20
-1749.259719
 10
10265.59706
 20
-1749.259719
  0
SPLINE
  5
74
100
AcDbEntity
  8
0
  6
ByLayer
 62
    7
370
   -1
100
AcDbSpline
210
0
220
0
230
0
 70
    8
 71
    3
 72
   10
 73
    6
 74
    0
 42
1e-07
 43
1e-07
 40
0
 40
0
 40
0
 40
0
 40
0.3333333333333333
 40
0.6666666666666666
 40
1
 40
1
 40
1
 40
1
 10
10265.59706
 20
-1749.259719
 30
0
 10
10265.095609
 20
-1749.19861
 30
0
 10
10264.126845
 20
-1749.080551
 30
0
 10
10262.920937
 20
-1748.064132
 30
0
 10
10262.7657
 20
-1747.103233
 30
0
 10
10262.686644
 20
-1746.613886
 30
0
  0
SPLINE
  5
75
100
AcDbEntity
  8
0
  6
ByLayer
 62
    7
370
   -1
100
AcDbSpline
210
0
220
0
230
0
 70
    8
 71
    3
 72
   10
 73
    6
 74
    0
 42
1e-07
 43
1e-07
 40
0
 40
0
 40
0
 40
0
 40
0.3333333333333333
 40
0.6666666666666666
 40
1
 40
1
 40
1
 40
1
 10
10101.555394
 20
-1746.613886
 30
0
 10
10101.465459
 20
-1747.055229
 30
0
 10
10101.282015
 20
-1747.955458
 30
0
 10
10100.251132
 20
-1748.986341
 30
0
 10
10099.350903
 20
-1749.169785
 30
0
 10
10098.90956
 20
-1749.259719
 30
0
  0
LWPOLYLINE
  5
76
100
AcDbEntity
  8
0
  6
ByLayer
 62
    7
370
   -1
100
AcDbPolyline
 90
    2
 70
    0
 43
0
 10
10101.555394
 20
-1825.988886
 10
10101.555394
 20
-1746.613886
  0
LWPOLYLINE
  5
77
100
AcDbEntity
  8
0
  6
ByLayer
 62
    7
370
   -1
100
AcDbPolyline
 90
    2
 70
    0
 43
0
 10
9948.09706
 20
-1828.634719
 10
10098.90956
 20
-1828.634719
  0
SPLINE
  5
78
100
AcDbEntity
  8
0
  6
ByLayer
 62
    7
370
   -1
100
AcDbSpline
210
0
220
0
230
0
 70
    8
 71
    3
 72
   10
 73
    6
 74
    0
 42
1e-07
 43
1e-07
 40
0
 40
0
 40
0
 40
0
 40
0.3333333333333333
 40
0.6666666666666666
 40
1
 40
1
 40
1
 40
1
 10
10098.90956
 20
-1828.634719
 30
0
 10
10099.349066
 20
-1828.565855
 30
0
 10
10100.237471
 20
-1828.426654
 30
0
 10
10101.327206
 20
-1827.413705
 30
0
 10
10101.477522
 20
-1826.475122
 30
0
 10
10101.555394
 20
-1825.988886
 30
0
  0
LWPOLYLINE
  5
79
100
AcDbEntity
  8
0
  6
ByLayer
 62
    7
370
   -1
100
AcDbPolyline
 90
    2
 70
    0
 43
0
 10
9945.186643999999
 20
-1746.613886
 10
9945.186643999999
 20
-1825.988886
  0
SPLINE
  5
7A
100
AcDbEntity
  8
0
  6
ByLayer
 62
    7
370
   -1
100
AcDbSpline
210
0
220
0
230
0
 70
    8
 71
    3
 72
   10
 73
    6
 74
    0
 42
1e-07
 43
1e-07
 40
0
 40
0
 40
0
 40
0
 40
0.3333333333333333
 40
0.6666666666666666
 40
1
 40
1
 40
1
 40
1
 10
9945.186643999999
 20
-1825.988886
 30
0
 10
9945.277894999999
 20
-1826.432742
 30
0
 10
9945.467187
 20
-1827.35348
 30
0
 10
9946.611215000001
 20
-1828.393152
 30
0
 10
9947.593266
 20
-1828.552813
 30
0
 10
9948.09706
 20
-1828.634719
 30
0
  0
LWPOLYLINE
  5
7B
100
AcDbEntity
  8
0
  6
ByLayer
 62
    7
370
   -1
100
AcDbPolyline
 90
    2
 70
    0
 43
0
 10
9781.40956
 20
-1749.259719
 10
9948.09706
 20
-1749.259719
  0
SPLINE
  5
7C
100
AcDbEntity
  8
0
  6
ByLayer
 62
    7
370
   -1
100
AcDbSpline
210
0
220
0
230
0
 70
    8
 71
    3
 72
   10
 73
    6
 74
    0
 42
1e-07
 43
1e-07
 40
0
 40
0
 40
0
 40
0
 40
0.3333333333333333
 40
0.6666666666666666
 40
1
 40
1
 40
1
 40
1
 10
9948.09706
 20
-1749.259719
 30
0
 10
9947.595609
 20
-1749.19861
 30
0
 10
9946.626845000001
 20
-1749.080551
 30
0
 10
9945.420937000001
 20
-1748.064132
 30
0
 10
9945.2657
 20
-1747.103233
 30
0
 10
9945.186643999999
 20
-1746.613886
 30
0
  0
SPLINE
  5
7D
100
AcDbEntity
  8
0
  6
ByLayer
 62
    7
370
   -1
100
AcDbSpline
210
0
220
0
230
0
 70
    8
 71
    3
 72
   10
 73
    6
 74
    0
 42
1e-07
 43
1e-07
 40
0
 40
0
 40
0
 40
0
 40
0.3333333333333333
 40
0.6666666666666666
 40
1
 40
1
 40
1
 40
1
 10
9784.055394000001
 20
-1746.613886
 30
0
 10
9783.965458999999
 20
-1747.055229
 30
0
 10
9783.782015000001
 20
-1747.955458
 30
0
 10
9782.751131999999
 20
-1748.986341
 30
0
 10
9781.850903
 20
-1749.169785
 30
0
 10
9781.40956
 20
-1749.259719
 30
0
  0
LWPOLYLINE
  5
7E
100
AcDbEntity
  8
0
  6
ByLayer
 62
    7
370
   -1
100
AcDbPolyline
 90
    2
 70
    0
 43
0
 10
9784.055394000001
 20
-1825.988886
 10
9784.055394000001
 20
-1746.613886
  0
LWPOLYLINE
  5
7F
100
AcDbEntity
  8
0
  6
ByLayer
 62
    7
370
   -1
100
AcDbPolyline
 90
    2
 70
    0
 43
0
 10
9630.59706
 20
-1828.634719
 10
9781.40956
 20
-1828.634719
  0
SPLINE
  5
80
100
AcDbEntity
  8
0
  6
ByLayer
 62
    7
370
   -1
100
AcDbSpline
210
0
220
0
230
0
 70
    8
 71
    3
 72
   10
 73
    6
 74
    0
 42
1e-07
 43
1e-07
 40
0
 40
0
 40
0
 40
0
 40
0.3333333333333333
 40
0.6666666666666666
 40
1
 40
1
 40
1
 40
1
 10
9781.40956
 20
-1828.634719
 30
0
 10
9781.849066000001
 20
-1828.565855
 30
0
 10
9782.737471
 20
-1828.426654
 30
0
 10
9783.827206
 20
-1827.413705
 30
0
 10
9783.977521999999
 20
-1826.475122
 30
0
 10
9784.055394000001
 20
-1825.988886
 30
0
  0
LWPOLYLINE
  5
81
100
AcDbEntity
  8
0
  6
ByLayer
 62
    7
370
   -1
100
AcDbPolyline
 90
    2
 70
    0
 43
0
 10
9627.686643999999
 20
-1746.613886
 10
9627.686643999999
 20
-1825.988886
  0
SPLINE
  5
82
100
AcDbEntity
  8
0
  6
ByLayer
 62
    7
370
   -1
100
AcDbSpline
210
0
220
0
230
0
 70
    8
 71
    3
 72
   10
 73
    6
 74
    0
 42
1e-07
 43
1e-07
 40
0
 40
0
 40
0
 40
0
 40
0.3333333333333333
 40
0.6666666666666666
 40
1
 40
1
 40
1
 40
1
 10
9627.686643999999
 20
-1825.988886
 30
0
 10
9627.777894999999
 20
-1826.432742
 30
0
 10
9627.967187
 20
-1827.35348
 30
0
 10
9629.111215000001
 20
-1828.393152
 30
0
 10
9630.093266
 20
-1828.552813
 30
0
 10
9630.59706
 20
-1828.634719
 30
0
  0
LWPOLYLINE
  5
83
100
AcDbEntity
  8
0
  6
ByLayer
 62
    7
370
   -1
100
AcDbPolyline
 90
    2
 70
    0
 43
0
 10
9463.644977
 20
-1749.259719
 10
9630.59706
 20
-1749.259719
  0
SPLINE
  5
84
100
AcDbEntity
  8
0
  6
ByLayer
 62
    7
370
   -1
100
AcDbSpline
210
0
220
0
230
0
 70
    8
 71
    3
 72
   10
 73
    6
 74
    0
 42
1e-07
 43
1e-07
 40
0
 40
0
 40
0
 40
0
 40
0.3333333333333333
 40
0.6666666666666666
 40
1
 40
1
 40
1
 40
1
 10
9630.59706
 20
-1749.259719
 30
0
 10
9630.095609
 20
-1749.19861
 30
0
 10
9629.126845000001
 20
-1749.080551
 30
0
 10
9627.920937000001
 20
-1748.064132
 30
0
 10
9627.7657
 20
-1747.103233
 30
0
 10
9627.686643999999
 20
-1746.613886
 30
0
  0
SPLINE
  5
85
100
AcDbEntity
  8
0
  6
ByLayer
 62
    7
370
   -1
100
AcDbSpline
210
0
220
0
230
0
 70
    8
 71
    3
 72
   10
 73
    6
 74
    0
 42
1e-07
 43
1e-07
 40
0
 40
0
 40
0
 40
0
 40
0.3333333333333333
 40
0.6666666666666666
 40
1
 40
1
 40
1
 40
1
 10
9466.555394000001
 20
-1746.613886
 30
0
 10
9466.464142000001
 20
-1747.057742
 30
0
 10
9466.27485
 20
-1747.97848
 30
0
 10
9465.130821999999
 20
-1749.018152
 30
0
 10
9464.148772
 20
-1749.177813
 30
0
 10
9463.644977
 20
-1749.259719
 30
0
  0
LWPOLYLINE
  5
86
100
AcDbEntity
  8
0
  6
ByLayer
 62
    7
370
   -1
100
AcDbPolyline
 90
    2
 70
    0
 43
0
 10
9466.555394000001
 20
-1825.988886
 10
9466.555394000001
 20
-1746.613886
  0
LWPOLYLINE
  5
87
100
AcDbEntity
  8
0
  6
ByLayer
 62
    7
370
   -1
100
AcDbPolyline
 90
    2
 70
    0
 43
0
 10
9204.35331
 20
-1828.634719
 10
9463.644977
 20
-1828.634719
  0
LWPOLYLINE
  5
88
100
AcDbEntity
  8
0
  6
ByLayer
 62
    7
370
   -1
100
AcDbPolyline
 90
    2
 70
    0
 43
0
 10
8676.50956
 20
-1828.634719
 10
9204.35331
 20
-1828.634719
  0
LWPOLYLINE
  5
89
100
AcDbEntity
  8
0
  6
ByLayer
 62
    7
370
   -1
100
AcDbPolyline
 90
    2
 70
    0
 43
0
 10
8429.917894
 20
-1828.634719
 10
8676.50956
 20
-1828.634719
  0
SPLINE
  5
8A
100
AcDbEntity
  8
0
  6
ByLayer
 62
    7
370
   -1
100
AcDbSpline
210
0
220
0
230
0
 70
    8
 71
    3
 72
   10
 73
    6
 74
    0
 42
1e-07
 43
1e-07
 40
0
 40
0
 40
0
 40
0
 40
0.3333333333333333
 40
0.6666666666666666
 40
1
 40
1
 40
1
 40
1
 10
9463.644977
 20
-1828.634719
 30
0
 10
9464.146428
 20
-1828.57361
 30
0
 10
9465.115191999999
 20
-1828.455551
 30
0
 10
9466.321101
 20
-1827.439132
 30
0
 10
9466.476338
 20
-1826.478233
 30
0
 10
9466.555394000001
 20
-1825.988886
 30
0
  0
LWPOLYLINE
  5
8B
100
AcDbEntity
  8
0
  6
ByLayer
 62
    7
370
   -1
100
AcDbPolyline
 90
    2
 70
    0
 43
0
 10
8427.007476999999
 20
-1746.613886
 10
8427.007476999999
 20
-1825.988886
  0
SPLINE
  5
8C
100
AcDbEntity
  8
0
  6
ByLayer
 62
    7
370
   -1
100
AcDbSpline
210
0
220
0
230
0
 70
    8
 71
    3
 72
   10
 73
    6
 74
    0
 42
1e-07
 43
1e-07
 40
0
 40
0
 40
0
 40
0
 40
0.3333333333333333
 40
0.6666666666666666
 40
1
 40
1
 40
1
 40
1
 10
8427.007476999999
 20
-1825.988886
 30
0
 10
8427.098728000001
 20
-1826.432742
 30
0
 10
8427.288021
 20
-1827.35348
 30
0
 10
8428.432048999999
 20
-1828.393152
 30
0
 10
8429.414099
 20
-1828.552813
 30
0
 10
8429.917894
 20
-1828.634719
 30
0
  0
LWPOLYLINE
  5
8D
100
AcDbEntity
  8
0
  6
ByLayer
 62
    7
370
   -1
100
AcDbPolyline
 90
    2
 70
    0
 43
0
 10
8262.96581
 20
-1749.259719
 10
8429.917894
 20
-1749.259719
  0
SPLINE
  5
8E
100
AcDbEntity
  8
0
  6
ByLayer
 62
    7
370
   -1
100
AcDbSpline
210
0
220
0
230
0
 70
    8
 71
    3
 72
   10
 73
    6
 74
    0
 42
1e-07
 43
1e-07
 40
0
 40
0
 40
0
 40
0
 40
0.3333333333333333
 40
0.6666666666666666
 40
1
 40
1
 40
1
 40
1
 10
8429.917894
 20
-1749.259719
 30
0
 10
8429.416443
 20
-1749.19861
 30
0
 10
8428.447679000001
 20
-1749.080551
 30
0
 10
8427.241770000001
 20
-1748.064132
 30
0
 10
8427.086533
 20
-1747.103233
 30
0
 10
8427.007476999999
 20
-1746.613886
 30
0
  0
SPLINE
  5
8F
100
AcDbEntity
  8
0
  6
ByLayer
 62
    7
370
   -1
100
AcDbSpline
210
0
220
0
230
0
 70
    8
 71
    3
 72
   10
 73
    6
 74
    0
 42
1e-07
 43
1e-07
 40
0
 40
0
 40
0
 40
0
 40
0.3333333333333333
 40
0.6666666666666666
 40
1
 40
1
 40
1
 40
1
 10
8265.876227000001
 20
-1746.613886
 30
0
 10
8265.784976000001
 20
-1747.057742
 30
0
 10
8265.595683
 20
-1747.97848
 30
0
 10
8264.451655000001
 20
-1749.018152
 30
0
 10
8263.469605
 20
-1749.177813
 30
0
 10
8262.96581
 20
-1749.259719
 30
0
  0
LWPOLYLINE
  5
90
100
AcDbEntity
  8
0
  6
ByLayer
 62
    7
370
   -1
100
AcDbPolyline
 90
    2
 70
    0
 43
0
 10
8265.876227000001
 20
-1825.988886
 10
8265.876227000001
 20
-1746.613886
  0
LWPOLYLINE
  5
91
100
AcDbEntity
  8
0
  6
ByLayer
 62
    7
370
   -1
100
AcDbPolyline
 90
    2
 70
    0
 43
0
 10
8112.417894
 20
-1828.634719
 10
8262.96581
 20
-1828.634719
  0
SPLINE
  5
92
100
AcDbEntity
  8
0
  6
ByLayer
 62
    7
370
   -1
100
AcDbSpline
210
0
220
0
230
0
 70
    8
 71
    3
 72
   10
 73
    6
 74
    0
 42
1e-07
 43
1e-07
 40
0
 40
0
 40
0
 40
0
 40
0.3333333333333333
 40
0.6666666666666666
 40
1
 40
1
 40
1
 40
1
 10
8262.96581
 20
-1828.634719
 30
0
 10
8263.467262
 20
-1828.57361
 30
0
 10
8264.436025999999
 20
-1828.455551
 30
0
 10
8265.641933999999
 20
-1827.439132
 30
0
 10
8265.797171
 20
-1826.478233
 30
0
 10
8265.876227000001
 20
-1825.988886
 30
0
  0
LWPOLYLINE
  5
93
100
AcDbEntity
  8
0
  6
ByLayer
 62
    7
370
   -1
100
AcDbPolyline
 90
    2
 70
    0
 43
0
 10
8109.507477
 20
-1746.613886
 10
8109.507477
 20
-1825.988886
  0
SPLINE
  5
94
100
AcDbEntity
  8
0
  6
ByLayer
 62
    7
370
   -1
100
AcDbSpline
210
0
220
0
230
0
 70
    8
 71
    3
 72
   10
 73
    6
 74
    0
 42
1e-07
 43
1e-07
 40
0
 40
0
 40
0
 40
0
 40
0.3333333333333333
 40
0.6666666666666666
 40
1
 40
1
 40
1
 40
1
 10
8109.507477
 20
-1825.988886
 30
0
 10
8109.598728
 20
-1826.432742
 30
0
 10
8109.788021
 20
-1827.35348
 30
0
 10
8110.932049
 20
-1828.393152
 30
0
 10
8111.914099
 20
-1828.552813
 30
0
 10
8112.417894
 20
-1828.634719
 30
0
  0
LWPOLYLINE
  5
95
100
AcDbEntity
  8
0
  6
ByLayer
 62
    7
370
   -1
100
AcDbPolyline
 90
    2
 70
    0
 43
0
 10
7945.46581
 20
-1749.259719
 10
8112.417894
 20
-1749.259719
  0
SPLINE
  5
96
100
AcDbEntity
  8
0
  6
ByLayer
 62
    7
370
   -1
100
AcDbSpline
210
0
220
0
230
0
 70
    8
 71
    3
 72
   10
 73
    6
 74
    0
 42
1e-07
 43
1e-07
 40
0
 40
0
 40
0
 40
0
 40
0.3333333333333333
 40
0.6666666666666666
 40
1
 40
1
 40
1
 40
1
 10
8112.417894
 20
-1749.259719
 30
0
 10
8111.916443
 20
-1749.19861
 30
0
 10
8110.947679
 20
-1749.080551
 30
0
 10
8109.74177
 20
-1748.064132
 30
0
 10
8109.586533
 20
-1747.103233
 30
0
 10
8109.507477
 20
-1746.613886
 30
0
  0
SPLINE
  5
97
100
AcDbEntity
  8
0
  6
ByLayer
 62
    7
370
   -1
100
AcDbSpline
210
0
220
0
230
0
 70
    8
 71
    3
 72
   10
 73
    6
 74
    0
 42
1e-07
 43
1e-07
 40
0
 40
0
 40
0
 40
0
 40
0.3333333333333333
 40
0.6666666666666666
 40
1
 40
1
 40
1
 40
1
 10
7948.376227
 20
-1746.613886
 30
0
 10
7948.284976
 20
-1747.057742
 30
0
 10
7948.095683
 20
-1747.97848
 30
0
 10
7946.951655
 20
-1749.018152
 30
0
 10
7945.969605
 20
-1749.177813
 30
0
 10
7945.46581
 20
-1749.259719
 30
0
  0
LWPOLYLINE
  5
98
100
AcDbEntity
  8
0
  6
ByLayer
 62
    7
370
   -1
100
AcDbPolyline
 90
    2
 70
    0
 43
0
 10
7948.376227
 20
-1825.988886
 10
7948.376227
 20
-1746.613886
  0
LWPOLYLINE
  5
99
100
AcDbEntity
  8
0
  6
ByLayer
 62
    7
370
   -1
100
AcDbPolyline
 90
    2
 70
    0
 43
0
 10
7794.917894
 20
-1828.634719
 10
7945.46581
 20
-1828.634719
  0
SPLINE
  5
9A
100
AcDbEntity
  8
0
  6
ByLayer
 62
    7
370
   -1
100
AcDbSpline
210
0
220
0
230
0
 70
    8
 71
    3
 72
   10
 73
    6
 74
    0
 42
1e-07
 43
1e-07
 40
0
 40
0
 40
0
 40
0
 40
0.3333333333333333
 40
0.6666666666666666
 40
1
 40
1
 40
1
 40
1
 10
7945.46581
 20
-1828.634719
 30
0
 10
7945.967262
 20
-1828.57361
 30
0
 10
7946.936026
 20
-1828.455551
 30
0
 10
7948.141934
 20
-1827.439132
 30
0
 10
7948.297171
 20
-1826.478233
 30
0
 10
7948.376227
 20
-1825.988886
 30
0
  0
LWPOLYLINE
  5
9B
100
AcDbEntity
  8
0
  6
ByLayer
 62
    7
370
   -1
100
AcDbPolyline
 90
    2
 70
    0
 43
0
 10
7792.007477
 20
-1746.613886
 10
7792.007477
 20
-1825.988886
  0
SPLINE
  5
9C
100
AcDbEntity
  8
0
  6
ByLayer
 62
    7
370
   -1
100
AcDbSpline
210
0
220
0
230
0
 70
    8
 71
    3
 72
   10
 73
    6
 74
    0
 42
1e-07
 43
1e-07
 40
0
 40
0
 40
0
 40
0
 40
0.3333333333333333
 40
0.6666666666666666
 40
1
 40
1
 40
1
 40
1
 10
7792.007477
 20
-1825.988886
 30
0
 10
7792.098728
 20
-1826.432742
 30
0
 10
7792.288021
 20
-1827.35348
 30
0
 10
7793.432049
 20
-1828.393152
 30
0
 10
7794.414099
 20
-1828.552813
 30
0
 10
7794.917894
 20
-1828.634719
 30
0
  0
LWPOLYLINE
  5
9D
100
AcDbEntity
  8
0
  6
ByLayer
 62
    7
370
   -1
100
AcDbPolyline
 90
    2
 70
    0
 43
0
 10
7627.96581
 20
-1749.259719
 10
7794.917894
 20
-1749.259719
  0
SPLINE
  5
9E
100
AcDbEntity
  8
0
  6
ByLayer
 62
    7
370
   -1
100
AcDbSpline
210
0
220
0
230
0
 70
    8
 71
    3
 72
   10
 73
    6
 74
    0
 42
1e-07
 43
1e-07
 40
0
 40
0
 40
0
 40
0
 40
0.3333333333333333
 40
0.6666666666666666
 40
1
 40
1
 40
1
 40
1
 10
7794.917894
 20
-1749.259719
 30
0
 10
7794.416443
 20
-1749.19861
 30
0
 10
7793.447679
 20
-1749.080551
 30
0
 10
7792.24177
 20
-1748.064132
 30
0
 10
7792.086533
 20
-1747.103233
 30
0
 10
7792.007477
 20
-1746.613886
 30
0
  0
SPLINE
  5
9F
100
AcDbEntity
  8
0
  6
ByLayer
 62
    7
370
   -1
100
AcDbSpline
210
0
220
0
230
0
 70
    8
 71
    3
 72
   10
 73
    6
 74
    0
 42
1e-07
 43
1e-07
 40
0
 40
0
 40
0
 40
0
 40
0.3333333333333333
 40
0.6666666666666666
 40
1
 40
1
 40
1
 40
1
 10
7630.876227
 20
-1746.613886
 30
0
 10
7630.784976
 20
-1747.057742
 30
0
 10
7630.595683
 20
-1747.97848
 30
0
 10
7629.451655
 20
-1749.018152
 30
0
 10
7628.469605
 20
-1749.177813
 30
0
 10
7627.96581
 20
-1749.259719
 30
0
  0
LWPOLYLINE
  5
A0
100
AcDbEntity
  8
0
  6
ByLayer
 62
    7
370
   -1
100
AcDbPolyline
 90
    2
 70
    0
 43
0
 10
7630.876227
 20
-1825.988886
 10
7630.876227
 20
-1746.613886
  0
LWPOLYLINE
  5
A1
100
AcDbEntity
  8
0
  6
ByLayer
 62
    7
370
   -1
100
AcDbPolyline
 90
    2
 70
    0
 43
0
 10
7477.417894
 20
-1828.634719
 10
7627.96581
 20
-1828.634719
  0
SPLINE
  5
A2
100
AcDbEntity
  8
0
  6
ByLayer
 62
    7
370
   -1
100
AcDbSpline
210
0
220
0
230
0
 70
    8
 71
    3
 72
   10
 73
    6
 74
    0
 42
1e-07
 43
1e-07
 40
0
 40
0
 40
0
 40
0
 40
0.3333333333333333
 40
0.6666666666666666
 40
1
 40
1
 40
1
 40
1
 10
7627.96581
 20
-1828.634719
 30
0
 10
7628.467262
 20
-1828.57361
 30
0
 10
7629.436026
 20
-1828.455551
 30
0
 10
7630.641934
 20
-1827.439132
 30
0
 10
7630.797171
 20
-1826.478233
 30
0
 10
7630.876227
 20
-1825.988886
 30
0
  0
LWPOLYLINE
  5
A3
100
AcDbEntity
  8
0
  6
ByLayer
 62
    7
370
   -1
100
AcDbPolyline
 90
    2
 70
    0
 43
0
 10
7474.507477
 20
-1746.613886
 10
7474.507477
 20
-1825.988886
  0
SPLINE
  5
A4
100
AcDbEntity
  8
0
  6
ByLayer
 62
    7
370
   -1
100
AcDbSpline
210
0
220
0
230
0
 70
    8
 71
    3
 72
   10
 73
    6
 74
    0
 42
1e-07
 43
1e-07
 40
0
 40
0
 40
0
 40
0
 40
0.3333333333333333
 40
0.6666666666666666
 40
1
 40
1
 40
1
 40
1
 10
7474.507477
 20
-1825.988886
 30
0
 10
7474.598728
 20
-1826.432742
 30
0
 10
7474.788021
 20
-1827.35348
 30
0
 10
7475.932049
 20
-1828.393152
 30
0
 10
7476.914099
 20
-1828.552813
 30
0
 10
7477.417894
 20
-1828.634719
 30
0
  0
LWPOLYLINE
  5
A5
100
AcDbEntity
  8
0
  6
ByLayer
 62
    7
370
   -1
100
AcDbPolyline
 90
    2
 70
    0
 43
0
 10
7310.46581
 20
-1749.259719
 10
7477.417894
 20
-1749.259719
  0
SPLINE
  5
A6
100
AcDbEntity
  8
0
  6
ByLayer
 62
    7
370
   -1
100
AcDbSpline
210
0
220
0
230
0
 70
    8
 71
    3
 72
   10
 73
    6
 74
    0
 42
1e-07
 43
1e-07
 40
0
 40
0
 40
0
 40
0
 40
0.3333333333333333
 40
0.6666666666666666
 40
1
 40
1
 40
1
 40
1
 10
7477.417894
 20
-1749.259719
 30
0
 10
7476.916443
 20
-1749.19861
 30
0
 10
7475.947679
 20
-1749.080551
 30
0
 10
7474.74177
 20
-1748.064132
 30
0
 10
7474.586533
 20
-1747.103233
 30
0
 10
7474.507477
 20
-1746.613886
 30
0
  0
SPLINE
  5
A7
100
AcDbEntity
  8
0
  6
ByLayer
 62
    7
370
   -1
100
AcDbSpline
210
0
220
0
230
0
 70
    8
 71
    3
 72
   10
 73
    6
 74
    0
 42
1e-07
 43
1e-07
 40
0
 40
0
 40
0
 40
0
 40
0.3333333333333333
 40
0.6666666666666666
 40
1
 40
1
 40
1
 40
1
 10
7313.376227
 20
-1746.613886
 30
0
 10
7313.284976
 20
-1747.057742
 30
0
 10
7313.095683
 20
-1747.97848
 30
0
 10
7311.951655
 20
-1749.018152
 30
0
 10
7310.969605
 20
-1749.177813
 30
0
 10
7310.46581
 20
-1749.259719
 30
0
  0
LWPOLYLINE
  5
A8
100
AcDbEntity
  8
0
  6
ByLayer
 62
    7
370
   -1
100
AcDbPolyline
 90
    2
 70
    0
 43
0
 10
7313.376227
 20
-1825.988886
 10
7313.376227
 20
-1746.613886
  0
LWPOLYLINE
  5
A9
100
AcDbEntity
  8
0
  6
ByLayer
 62
    7
370
   -1
100
AcDbPolyline
 90
    2
 70
    0
 43
0
 10
7063.874144
 20
-1828.634719
 10
7310.46581
 20
-1828.634719
  0
LWPOLYLINE
  5
AA
100
AcDbEntity
  8
0
  6
ByLayer
 62
    7
370
   -1
100
AcDbPolyline
 90
    2
 70
    0
 43
0
 10
6536.030394
 20
-1828.634719
 10
7063.874144
 20
-1828.634719
  0
LWPOLYLINE
  5
AB
100
AcDbEntity
  8
0
  6
ByLayer
 62
    7
370
   -1
100
AcDbPolyline
 90
    2
 70
    0
 43
0
 10
6276.738727
 20
-1828.634719
 10
6536.030394
 20
-1828.634719
  0
SPLINE
  5
AC
100
AcDbEntity
  8
0
  6
ByLayer
 62
    7
370
   -1
100
AcDbSpline
210
0
220
0
230
0
 70
    8
 71
    3
 72
   10
 73
    6
 74
    0
 42
1e-07
 43
1e-07
 40
0
 40
0
 40
0
 40
0
 40
0.3333333333333333
 40
0.6666666666666666
 40
1
 40
1
 40
1
 40
1
 10
7310.46581
 20
-1828.634719
 30
0
 10
7310.967262
 20
-1828.57361
 30
0
 10
7311.936026
 20
-1828.455551
 30
0
 10
7313.141934
 20
-1827.439132
 30
0
 10
7313.297171
 20
-1826.478233
 30
0
 10
7313.376227
 20
-1825.988886
 30
0
  0
LWPOLYLINE
  5
AD
100
AcDbEntity
  8
0
  6
ByLayer
 62
    7
370
   -1
100
AcDbPolyline
 90
    2
 70
    0
 43
0
 10
6273.82831
 20
-1746.613886
 10
6273.82831
 20
-1825.988886
  0
SPLINE
  5
AE
100
AcDbEntity
  8
0
  6
ByLayer
 62
    7
370
   -1
100
AcDbSpline
210
0
220
0
230
0
 70
    8
 71
    3
 72
   10
 73
    6
 74
    0
 42
1e-07
 43
1e-07
 40
0
 40
0
 40
0
 40
0
 40
0.3333333333333333
 40
0.6666666666666666
 40
1
 40
1
 40
1
 40
1
 10
6273.82831
 20
-1825.988886
 30
0
 10
6273.919562
 20
-1826.432742
 30
0
 10
6274.108854
 20
-1827.35348
 30
0
 10
6275.252882
 20
-1828.393152
 30
0
 10
6276.234932
 20
-1828.552813
 30
0
 10
6276.738727
 20
-1828.634719
 30
0
  0
LWPOLYLINE
  5
AF
100
AcDbEntity
  8
0
  6
ByLayer
 62
    7
370
   -1
100
AcDbPolyline
 90
    2
 70
    0
 43
0
 10
6109.786644
 20
-1749.259719
 10
6276.738727
 20
-1749.259719
  0
SPLINE
  5
B0
100
AcDbEntity
  8
0
  6
ByLayer
 62
    7
370
   -1
100
AcDbSpline
210
0
220
0
230
0
 70
    8
 71
    3
 72
   10
 73
    6
 74
    0
 42
1e-07
 43
1e-07
 40
0
 40
0
 40
0
 40
0
 40
0.3333333333333333
 40
0.6666666666666666
 40
1
 40
1
 40
1
 40
1
 10
6276.738727
 20
-1749.259719
 30
0
 10
6276.237276
 20
-1749.19861
 30
0
 10
6275.268512
 20
-1749.080551
 30
0
 10
6274.062603
 20
-1748.064132
 30
0
 10
6273.907366
 20
-1747.103233
 30
0
 10
6273.82831
 20
-1746.613886
 30
0
  0
SPLINE
  5
B1
100
AcDbEntity
  8
0
  6
ByLayer
 62
    7
370
   -1
100
AcDbSpline
210
0
220
0
230
0
 70
    8
 71
    3
 72
   10
 73
    6
 74
    0
 42
1e-07
 43
1e-07
 40
0
 40
0
 40
0
 40
0
 40
0.3333333333333333
 40
0.6666666666666666
 40
1
 40
1
 40
1
 40
1
 10
6112.69706
 20
-1746.613886
 30
0
 10
6112.605809
 20
-1747.057742
 30
0
 10
6112.416517
 20
-1747.97848
 30
0
 10
6111.272489
 20
-1749.018152
 30
0
 10
6110.290439
 20
-1749.177813
 30
0
 10
6109.786644
 20
-1749.259719
 30
0
  0
LWPOLYLINE
  5
B2
100
AcDbEntity
  8
0
  6
ByLayer
 62
    7
370
   -1
100
AcDbPolyline
 90
    2
 70
    0
 43
0
 10
6112.69706
 20
-1825.988886
 10
6112.69706
 20
-1746.613886
  0
LWPOLYLINE
  5
B3
100
AcDbEntity
  8
0
  6
ByLayer
 62
    7
370
   -1
100
AcDbPolyline
 90
    2
 70
    0
 43
0
 10
5958.974144
 20
-1828.634719
 10
6109.786644
 20
-1828.634719
  0
SPLINE
  5
B4
100
AcDbEntity
  8
0
  6
ByLayer
 62
    7
370
   -1
100
AcDbSpline
210
0
220
0
230
0
 70
    8
 71
    3
 72
   10
 73
    6
 74
    0
 42
1e-07
 43
1e-07
 40
0
 40
0
 40
0
 40
0
 40
0.3333333333333333
 40
0.6666666666666666
 40
1
 40
1
 40
1
 40
1
 10
6109.786644
 20
-1828.634719
 30
0
 10
6110.288095
 20
-1828.57361
 30
0
 10
6111.256859
 20
-1828.455551
 30
0
 10
6112.462768
 20
-1827.439132
 30
0
 10
6112.618004
 20
-1826.478233
 30
0
 10
6112.69706
 20
-1825.988886
 30
0
  0
LWPOLYLINE
  5
B5
100
AcDbEntity
  8
0
  6
ByLayer
 62
    7
370
   -1
100
AcDbPolyline
 90
    2
 70
    0
 43
0
 10
5956.32831
 20
-1746.613886
 10
5956.32831
 20
-1825.988886
  0
SPLINE
  5
B6
100
AcDbEntity
  8
0
  6
ByLayer
 62
    7
370
   -1
100
AcDbSpline
210
0
220
0
230
0
 70
    8
 71
    3
 72
   10
 73
    6
 74
    0
 42
1e-07
 43
1e-07
 40
0
 40
0
 40
0
 40
0
 40
0.3333333333333333
 40
0.6666666666666666
 40
1
 40
1
 40
1
 40
1
 10
5956.32831
 20
-1825.988886
 30
0
 10
5956.418245
 20
-1826.430229
 30
0
 10
5956.601689
 20
-1827.330458
 30
0
 10
5957.632572
 20
-1828.361341
 30
0
 10
5958.532801
 20
-1828.544785
 30
0
 10
5958.974144
 20
-1828.634719
 30
0
  0
LWPOLYLINE
  5
B7
100
AcDbEntity
  8
0
  6
ByLayer
 62
    7
370
   -1
100
AcDbPolyline
 90
    2
 70
    0
 43
0
 10
5792.286644
 20
-1749.259719
 10
5958.974144
 20
-1749.259719
  0
SPLINE
  5
B8
100
AcDbEntity
  8
0
  6
ByLayer
 62
    7
370
   -1
100
AcDbSpline
210
0
220
0
230
0
 70
    8
 71
    3
 72
   10
 73
    6
 74
    0
 42
1e-07
 43
1e-07
 40
0
 40
0
 40
0
 40
0
 40
0.3333333333333333
 40
0.6666666666666666
 40
1
 40
1
 40
1
 40
1
 10
5958.974144
 20
-1749.259719
 30
0
 10
5958.534638
 20
-1749.190855
 30
0
 10
5957.646233
 20
-1749.051654
 30
0
 10
5956.556498
 20
-1748.038705
 30
0
 10
5956.406182
 20
-1747.100122
 30
0
 10
5956.32831
 20
-1746.613886
 30
0
  0
SPLINE
  5
B9
100
AcDbEntity
  8
0
  6
ByLayer
 62
    7
370
   -1
100
AcDbSpline
210
0
220
0
230
0
 70
    8
 71
    3
 72
   10
 73
    6
 74
    0
 42
1e-07
 43
1e-07
 40
0
 40
0
 40
0
 40
0
 40
0.3333333333333333
 40
0.6666666666666666
 40
1
 40
1
 40
1
 40
1
 10
5795.19706
 20
-1746.613886
 30
0
 10
5795.105809
 20
-1747.057742
 30
0
 10
5794.916517
 20
-1747.97848
 30
0
 10
5793.772489
 20
-1749.018152
 30
0
 10
5792.790439
 20
-1749.177813
 30
0
 10
5792.286644
 20
-1749.259719
 30
0
  0
LWPOLYLINE
  5
BA
100
AcDbEntity
  8
0
  6
ByLayer
 62
    7
370
   -1
100
AcDbPolyline
 90
    2
 70
    0
 43
0
 10
5795.19706
 20
-1825.988886
 10
5795.19706
 20
-1746.613886
  0
LWPOLYLINE
  5
BB
100
AcDbEntity
  8
0
  6
ByLayer
 62
    7
370
   -1
100
AcDbPolyline
 90
    2
 70
    0
 43
0
 10
5641.474144
 20
-1828.634719
 10
5792.286644
 20
-1828.634719
  0
SPLINE
  5
BC
100
AcDbEntity
  8
0
  6
ByLayer
 62
    7
370
   -1
100
AcDbSpline
210
0
220
0
230
0
 70
    8
 71
    3
 72
   10
 73
    6
 74
    0
 42
1e-07
 43
1e-07
 40
0
 40
0
 40
0
 40
0
 40
0.3333333333333333
 40
0.6666666666666666
 40
1
 40
1
 40
1
 40
1
 10
5792.286644
 20
-1828.634719
 30
0
 10
5792.788095
 20
-1828.57361
 30
0
 10
5793.756859
 20
-1828.455551
 30
0
 10
5794.962768
 20
-1827.439132
 30
0
 10
5795.118004
 20
-1826.478233
 30
0
 10
5795.19706
 20
-1825.988886
 30
0
  0
LWPOLYLINE
  5
BD
100
AcDbEntity
  8
0
  6
ByLayer
 62
    7
370
   -1
100
AcDbPolyline
 90
    2
 70
    0
 43
0
 10
5638.82831
 20
-1746.613886
 10
5638.82831
 20
-1825.988886
  0
SPLINE
  5
BE
100
AcDbEntity
  8
0
  6
ByLayer
 62
    7
370
   -1
100
AcDbSpline
210
0
220
0
230
0
 70
    8
 71
    3
 72
   10
 73
    6
 74
    0
 42
1e-07
 43
1e-07
 40
0
 40
0
 40
0
 40
0
 40
0.3333333333333333
 40
0.6666666666666666
 40
1
 40
1
 40
1
 40
1
 10
5638.82831
 20
-1825.988886
 30
0
 10
5638.918245
 20
-1826.430229
 30
0
 10
5639.101689
 20
-1827.330458
 30
0
 10
5640.132572
 20
-1828.361341
 30
0
 10
5641.032801
 20
-1828.544785
 30
0
 10
5641.474144
 20
-1828.634719
 30
0
  0
LWPOLYLINE
  5
BF
100
AcDbEntity
  8
0
  6
ByLayer
 62
    7
370
   -1
100
AcDbPolyline
 90
    2
 70
    0
 43
0
 10
5474.786644
 20
-1749.259719
 10
5641.474144
 20
-1749.259719
  0
SPLINE
  5
C0
100
AcDbEntity
  8
0
  6
ByLayer
 62
    7
370
   -1
100
AcDbSpline
210
0
220
0
230
0
 70
    8
 71
    3
 72
   10
 73
    6
 74
    0
 42
1e-07
 43
1e-07
 40
0
 40
0
 40
0
 40
0
 40
0.3333333333333333
 40
0.6666666666666666
 40
1
 40
1
 40
1
 40
1
 10
5641.474144
 20
-1749.259719
 30
0
 10
5641.034638
 20
-1749.190855
 30
0
 10
5640.146233
 20
-1749.051654
 30
0
 10
5639.056498
 20
-1748.038705
 30
0
 10
5638.906182
 20
-1747.100122
 30
0
 10
5638.82831
 20
-1746.613886
 30
0
  0
SPLINE
  5
C1
100
AcDbEntity
  8
0
  6
ByLayer
 62
    7
370
   -1
100
AcDbSpline
210
0
220
0
230
0
 70
    8
 71
    3
 72
   10
 73
    6
 74
    0
 42
1e-07
 43
1e-07
 40
0
 40
0
 40
0
 40
0
 40
0.3333333333333333
 40
0.6666666666666666
 40
1
 40
1
 40
1
 40
1
 10
5477.69706
 20
-1746.613886
 30
0
 10
5477.605809
 20
-1747.057742
 30
0
 10
5477.416517
 20
-1747.97848
 30
0
 10
5476.272489
 20
-1749.018152
 30
0
 10
5475.290439
 20
-1749.177813
 30
0
 10
5474.786644
 20
-1749.259719
 30
0
  0
LWPOLYLINE
  5
C2
100
AcDbEntity
  8
0
  6
ByLayer
 62
    7
370
   -1
100
AcDbPolyline
 90
    2
 70
    0
 43
0
 10
5477.69706
 20
-1825.988886
 10
5477.69706
 20
-1746.613886
  0
LWPOLYLINE
  5
C3
100
AcDbEntity
  8
0
  6
ByLayer
 62
    7
370
   -1
100
AcDbPolyline
 90
    2
 70
    0
 43
0
 10
5323.974144
 20
-1828.634719
 10
5474.786644
 20
-1828.634719
  0
SPLINE
  5
C4
100
AcDbEntity
  8
0
  6
ByLayer
 62
    7
370
   -1
100
AcDbSpline
210
0
220
0
230
0
 70
    8
 71
    3
 72
   10
 73
    6
 74
    0
 42
1e-07
 43
1e-07
 40
0
 40
0
 40
0
 40
0
 40
0.3333333333333333
 40
0.6666666666666666
 40
1
 40
1
 40
1
 40
1
 10
5474.786644
 20
-1828.634719
 30
0
 10
5475.288095
 20
-1828.57361
 30
0
 10
5476.256859
 20
-1828.455551
 30
0
 10
5477.462768
 20
-1827.439132
 30
0
 10
5477.618004
 20
-1826.478233
 30
0
 10
5477.69706
 20
-1825.988886
 30
0
  0
LWPOLYLINE
  5
C5
100
AcDbEntity
  8
0
  6
ByLayer
 62
    7
370
   -1
100
AcDbPolyline
 90
    2
 70
    0
 43
0
 10
5321.32831
 20
-1746.613886
 10
5321.32831
 20
-1825.988886
  0
SPLINE
  5
C6
100
AcDbEntity
  8
0
  6
ByLayer
 62
    7
370
   -1
100
AcDbSpline
210
0
220
0
230
0
 70
    8
 71
    3
 72
   10
 73
    6
 74
    0
 42
1e-07
 43
1e-07
 40
0
 40
0
 40
0
 40
0
 40
0.3333333333333333
 40
0.6666666666666666
 40
1
 40
1
 40
1
 40
1
 10
5321.32831
 20
-1825.988886
 30
0
 10
5321.418245
 20
-1826.430229
 30
0
 10
5321.601689
 20
-1827.330458
 30
0
 10
5322.632572
 20
-1828.361341
 30
0
 10
5323.532801
 20
-1828.544785
 30
0
 10
5323.974144
 20
-1828.634719
 30
0
  0
LWPOLYLINE
  5
C7
100
AcDbEntity
  8
0
  6
ByLayer
 62
    7
370
   -1
100
AcDbPolyline
 90
    2
 70
    0
 43
0
 10
5157.286644
 20
-1749.259719
 10
5323.974144
 20
-1749.259719
  0
SPLINE
  5
C8
100
AcDbEntity
  8
0
  6
ByLayer
 62
    7
370
   -1
100
AcDbSpline
210
0
220
0
230
0
 70
    8
 71
    3
 72
   10
 73
    6
 74
    0
 42
1e-07
 43
1e-07
 40
0
 40
0
 40
0
 40
0
 40
0.3333333333333333
 40
0.6666666666666666
 40
1
 40
1
 40
1
 40
1
 10
5323.974144
 20
-1749.259719
 30
0
 10
5323.534638
 20
-1749.190855
 30
0
 10
5322.646233
 20
-1749.051654
 30
0
 10
5321.556498
 20
-1748.038705
 30
0
 10
5321.406182
 20
-1747.100122
 30
0
 10
5321.32831
 20
-1746.613886
 30
0
  0
SPLINE
  5
C9
100
AcDbEntity
  8
0
  6
ByLayer
 62
    7
370
   -1
100
AcDbSpline
210
0
220
0
230
0
 70
    8
 71
    3
 72
   10
 73
    6
 74
    0
 42
1e-07
 43
1e-07
 40
0
 40
0
 40
0
 40
0
 40
0.3333333333333333
 40
0.6666666666666666
 40
1
 40
1
 40
1
 40
1
 10
5160.19706
 20
-1746.613886
 30
0
 10
5160.105809
 20
-1747.057742
 30
0
 10
5159.916517
 20
-1747.97848
 30
0
 10
5158.772489
 20
-1749.018152
 30
0
 10
5157.790439
 20
-1749.177813
 30
0
 10
5157.286644
 20
-1749.259719
 30
0
  0
LWPOLYLINE
  5
CA
100
AcDbEntity
  8
0
  6
ByLayer
 62
    7
370
   -1
100
AcDbPolyline
 90
    2
 70
    0
 43
0
 10
5160.19706
 20
-1825.988886
 10
5160.19706
 20
-1746.613886
  0
LWPOLYLINE
  5
CB
100
AcDbEntity
  8
0
  6
ByLayer
 62
    7
370
   -1
100
AcDbPolyline
 90
    2
 70
    0
 43
0
 10
5006.474144
 20
-1828.634719
 10
5157.286644
 20
-1828.634719
  0
SPLINE
  5
CC
100
AcDbEntity
  8
0
  6
ByLayer
 62
    7
370
   -1
100
AcDbSpline
210
0
220
0
230
0
 70
    8
 71
    3
 72
   10
 73
    6
 74
    0
 42
1e-07
 43
1e-07
 40
0
 40
0
 40
0
 40
0
 40
0.3333333333333333
 40
0.6666666666666666
 40
1
 40
1
 40
1
 40
1
 10
5157.286644
 20
-1828.634719
 30
0
 10
5157.788095
 20
-1828.57361
 30
0
 10
5158.756859
 20
-1828.455551
 30
0
 10
5159.962768
 20
-1827.439132
 30
0
 10
5160.118004
 20
-1826.478233
 30
0
 10
5160.19706
 20
-1825.988886
 30
0
  0
LWPOLYLINE
  5
CD
100
AcDbEntity
  8
0
  6
ByLayer
 62
    7
370
   -1
100
AcDbPolyline
 90
    2
 70
    0
 43
0
 10
5003.82831
 20
-1746.613886
 10
5003.82831
 20
-1825.988886
  0
SPLINE
  5
CE
100
AcDbEntity
  8
0
  6
ByLayer
 62
    7
370
   -1
100
AcDbSpline
210
0
220
0
230
0
 70
    8
 71
    3
 72
   10
 73
    6
 74
    0
 42
1e-07
 43
1e-07
 40
0
 40
0
 40
0
 40
0
 40
0.3333333333333333
 40
0.6666666666666666
 40
1
 40
1
 40
1
 40
1
 10
5003.82831
 20
-1825.988886
 30
0
 10
5003.918245
 20
-1826.430229
 30
0
 10
5004.101689
 20
-1827.330458
 30
0
 10
5005.132572
 20
-1828.361341
 30
0
 10
5006.032801
 20
-1828.544785
 30
0
 10
5006.474144
 20
-1828.634719
 30
0
  0
LWPOLYLINE
  5
CF
100
AcDbEntity
  8
0
  6
ByLayer
 62
    7
370
   -1
100
AcDbPolyline
 90
    2
 70
    0
 43
0
 10
4839.786644
 20
-1749.259719
 10
5006.474144
 20
-1749.259719
  0
SPLINE
  5
D0
100
AcDbEntity
  8
0
  6
ByLayer
 62
    7
370
   -1
100
AcDbSpline
210
0
220
0
230
0
 70
    8
 71
    3
 72
   10
 73
    6
 74
    0
 42
1e-07
 43
1e-07
 40
0
 40
0
 40
0
 40
0
 40
0.3333333333333333
 40
0.6666666666666666
 40
1
 40
1
 40
1
 40
1
 10
5006.474144
 20
-1749.259719
 30
0
 10
5006.034638
 20
-1749.190855
 30
0
 10
5005.146233
 20
-1749.051654
 30
0
 10
5004.056498
 20
-1748.038705
 30
0
 10
5003.906182
 20
-1747.100122
 30
0
 10
5003.82831
 20
-1746.613886
 30
0
  0
SPLINE
  5
D1
100
AcDbEntity
  8
0
  6
ByLayer
 62
    7
370
   -1
100
AcDbSpline
210
0
220
0
230
0
 70
    8
 71
    3
 72
   10
 73
    6
 74
    0
 42
1e-07
 43
1e-07
 40
0
 40
0
 40
0
 40
0
 40
0.3333333333333333
 40
0.6666666666666666
 40
1
 40
1
 40
1
 40
1
 10
4842.432477
 20
-1746.613886
 30
0
 10
4842.363612
 20
-1747.053392
 30
0
 10
4842.224411
 20
-1747.941796
 30
0
 10
4841.211463
 20
-1749.031532
 30
0
 10
4840.27288
 20
-1749.181848
 30
0
 10
4839.786644
 20
-1749.259719
 30
0
  0
LWPOLYLINE
  5
D2
100
AcDbEntity
  8
0
  6
ByLayer
 62
    7
370
   -1
100
AcDbPolyline
 90
    2
 70
    0
 43
0
 10
4842.432477
 20
-1825.988886
 10
4842.432477
 20
-1746.613886
  0
LWPOLYLINE
  5
D3
100
AcDbEntity
  8
0
  6
ByLayer
 62
    7
370
   -1
100
AcDbPolyline
 90
    2
 70
    0
 43
0
 10
4688.974144
 20
-1828.634719
 10
4839.786644
 20
-1828.634719
  0
SPLINE
  5
D4
100
AcDbEntity
  8
0
  6
ByLayer
 62
    7
370
   -1
100
AcDbSpline
210
0
220
0
230
0
 70
    8
 71
    3
 72
   10
 73
    6
 74
    0
 42
1e-07
 43
1e-07
 40
0
 40
0
 40
0
 40
0
 40
0.3333333333333333
 40
0.6666666666666666
 40
1
 40
1
 40
1
 40
1
 10
4839.786644
 20
-1828.634719
 30
0
 10
4840.27065
 20
-1828.578053
 30
0
 10
4841.195313
 20
-1828.469797
 30
0
 10
4842.267554
 20
-1827.397555
 30
0
 10
4842.375811
 20
-1826.472892
 30
0
 10
4842.432477
 20
-1825.988886
 30
0
  0
LWPOLYLINE
  5
D5
100
AcDbEntity
  8
0
  6
ByLayer
 62
    7
370
   -1
100
AcDbPolyline
 90
    2
 70
    0
 43
0
 10
4686.32831
 20
-1746.613886
 10
4686.32831
 20
-1825.988886
  0
SPLINE
  5
D6
100
AcDbEntity
  8
0
  6
ByLayer
 62
    7
370
   -1
100
AcDbSpline
210
0
220
0
230
0
 70
    8
 71
    3
 72
   10
 73
    6
 74
    0
 42
1e-07
 43
1e-07
 40
0
 40
0
 40
0
 40
0
 40
0.3333333333333333
 40
0.6666666666666666
 40
1
 40
1
 40
1
 40
1
 10
4686.32831
 20
-1825.988886
 30
0
 10
4686.418245
 20
-1826.430229
 30
0
 10
4686.601689
 20
-1827.330458
 30
0
 10
4687.632572
 20
-1828.361341
 30
0
 10
4688.532801
 20
-1828.544785
 30
0
 10
4688.974144
 20
-1828.634719
 30
0
  0
LWPOLYLINE
  5
D7
100
AcDbEntity
  8
0
  6
ByLayer
 62
    7
370
   -1
100
AcDbPolyline
 90
    2
 70
    0
 43
0
 10
4522.286644
 20
-1749.259719
 10
4688.974144
 20
-1749.259719
  0
SPLINE
  5
D8
100
AcDbEntity
  8
0
  6
ByLayer
 62
    7
370
   -1
100
AcDbSpline
210
0
220
0
230
0
 70
    8
 71
    3
 72
   10
 73
    6
 74
    0
 42
1e-07
 43
1e-07
 40
0
 40
0
 40
0
 40
0
 40
0.3333333333333333
 40
0.6666666666666666
 40
1
 40
1
 40
1
 40
1
 10
4688.974144
 20
-1749.259719
 30
0
 10
4688.534638
 20
-1749.190855
 30
0
 10
4687.646233
 20
-1749.051654
 30
0
 10
4686.556498
 20
-1748.038705
 30
0
 10
4686.406182
 20
-1747.100122
 30
0
 10
4686.32831
 20
-1746.613886
 30
0
  0
SPLINE
  5
D9
100
AcDbEntity
  8
0
  6
ByLayer
 62
    7
370
   -1
100
AcDbSpline
210
0
220
0
230
0
 70
    8
 71
    3
 72
   10
 73
    6
 74
    0
 42
1e-07
 43
1e-07
 40
0
 40
0
 40
0
 40
0
 40
0.3333333333333333
 40
0.6666666666666666
 40
1
 40
1
 40
1
 40
1
 10
4524.932477
 20
-1746.613886
 30
0
 10
4524.863612
 20
-1747.053392
 30
0
 10
4524.724411
 20
-1747.941796
 30
0
 10
4523.711463
 20
-1749.031532
 30
0
 10
4522.77288
 20
-1749.181848
 30
0
 10
4522.286644
 20
-1749.259719
 30
0
  0
LWPOLYLINE
  5
DA
100
AcDbEntity
  8
0
  6
ByLayer
 62
    7
370
   -1
100
AcDbPolyline
 90
    2
 70
    0
 43
0
 10
4524.932477
 20
-1825.988886
 10
4524.932477
 20
-1746.613886
  0
LWPOLYLINE
  5
DB
100
AcDbEntity
  8
0
  6
ByLayer
 62
    7
370
   -1
100
AcDbPolyline
 90
    2
 70
    0
 43
0
 10
4371.474144
 20
-1828.634719
 10
4522.286644
 20
-1828.634719
  0
SPLINE
  5
DC
100
AcDbEntity
  8
0
  6
ByLayer
 62
    7
370
   -1
100
AcDbSpline
210
0
220
0
230
0
 70
    8
 71
    3
 72
   10
 73
    6
 74
    0
 42
1e-07
 43
1e-07
 40
0
 40
0
 40
0
 40
0
 40
0.3333333333333333
 40
0.6666666666666666
 40
1
 40
1
 40
1
 40
1
 10
4522.286644
 20
-1828.634719
 30
0
 10
4522.77065
 20
-1828.578053
 30
0
 10
4523.695313
 20
-1828.469797
 30
0
 10
4524.767554
 20
-1827.397555
 30
0
 10
4524.875811
 20
-1826.472892
 30
0
 10
4524.932477
 20
-1825.988886
 30
0
  0
LWPOLYLINE
  5
DD
100
AcDbEntity
  8
0
  6
ByLayer
 62
    7
370
   -1
100
AcDbPolyline
 90
    2
 70
    0
 43
0
 10
4368.82831
 20
-1746.613886
 10
4368.82831
 20
-1825.988886
  0
SPLINE
  5
DE
100
AcDbEntity
  8
0
  6
ByLayer
 62
    7
370
   -1
100
AcDbSpline
210
0
220
0
230
0
 70
    8
 71
    3
 72
   10
 73
    6
 74
    0
 42
1e-07
 43
1e-07
 40
0
 40
0
 40
0
 40
0
 40
0.3333333333333333
 40
0.6666666666666666
 40
1
 40
1
 40
1
 40
1
 10
4368.82831
 20
-1825.988886
 30
0
 10
4368.897175
 20
-1826.428392
 30
0
 10
4369.036376
 20
-1827.316796
 30
0
 10
4370.049325
 20
-1828.406532
 30
0
 10
4370.987908
 20
-1828.556848
 30
0
 10
4371.474144
 20
-1828.634719
 30
0
  0
LWPOLYLINE
  5
DF
100
AcDbEntity
  8
0
  6
ByLayer
 62
    7
370
   -1
100
AcDbPolyline
 90
    2
 70
    0
 43
0
 10
4204.786644
 20
-1749.259719
 10
4371.474144
 20
-1749.259719
  0
SPLINE
  5
E0
100
AcDbEntity
  8
0
  6
ByLayer
 62
    7
370
   -1
100
AcDbSpline
210
0
220
0
230
0
 70
    8
 71
    3
 72
   10
 73
    6
 74
    0
 42
1e-07
 43
1e-07
 40
0
 40
0
 40
0
 40
0
 40
0.3333333333333333
 40
0.6666666666666666
 40
1
 40
1
 40
1
 40
1
 10
4371.474144
 20
-1749.259719
 30
0
 10
4371.034638
 20
-1749.190855
 30
0
 10
4370.146233
 20
-1749.051654
 30
0
 10
4369.056498
 20
-1748.038705
 30
0
 10
4368.906182
 20
-1747.100122
 30
0
 10
4368.82831
 20
-1746.613886
 30
0
  0
SPLINE
  5
E1
100
AcDbEntity
  8
0
  6
ByLayer
 62
    7
370
   -1
100
AcDbSpline
210
0
220
0
230
0
 70
    8
 71
    3
 72
   10
 73
    6
 74
    0
 42
1e-07
 43
1e-07
 40
0
 40
0
 40
0
 40
0
 40
0.3333333333333333
 40
0.6666666666666666
 40
1
 40
1
 40
1
 40
1
 10
4207.432477
 20
-1746.613886
 30
0
 10
4207.363612
 20
-1747.053392
 30
0
 10
4207.224411
 20
-1747.941796
 30
0
 10
4206.211463
 20
-1749.031532
 30
0
 10
4205.27288
 20
-1749.181848
 30
0
 10
4204.786644
 20
-1749.259719
 30
0
  0
LWPOLYLINE
  5
E2
100
AcDbEntity
  8
0
  6
ByLayer
 62
    7
370
   -1
100
AcDbPolyline
 90
    2
 70
    0
 43
0
 10
4207.432477
 20
-1825.988886
 10
4207.432477
 20
-1746.613886
  0
LWPOLYLINE
  5
E3
100
AcDbEntity
  8
0
  6
ByLayer
 62
    7
370
   -1
100
AcDbPolyline
 90
    2
 70
    0
 43
0
 10
4053.974144
 20
-1828.634719
 10
4204.786644
 20
-1828.634719
  0
SPLINE
  5
E4
100
AcDbEntity
  8
0
  6
ByLayer
 62
    7
370
   -1
100
AcDbSpline
210
0
220
0
230
0
 70
    8
 71
    3
 72
   10
 73
    6
 74
    0
 42
1e-07
 43
1e-07
 40
0
 40
0
 40
0
 40
0
 40
0.3333333333333333
 40
0.6666666666666666
 40
1
 40
1
 40
1
 40
1
 10
4204.786644
 20
-1828.634719
 30
0
 10
4205.27065
 20
-1828.578053
 30
0
 10
4206.195313
 20
-1828.469797
 30
0
 10
4207.267554
 20
-1827.397555
 30
0
 10
4207.375811
 20
-1826.472892
 30
0
 10
4207.432477
 20
-1825.988886
 30
0
  0
LWPOLYLINE
  5
E5
100
AcDbEntity
  8
0
  6
ByLayer
 62
    7
370
   -1
100
AcDbPolyline
 90
    2
 70
    0
 43
0
 10
4051.32831
 20
-1746.613886
 10
4051.32831
 20
-1825.988886
  0
SPLINE
  5
E6
100
AcDbEntity
  8
0
  6
ByLayer
 62
    7
370
   -1
100
AcDbSpline
210
0
220
0
230
0
 70
    8
 71
    3
 72
   10
 73
    6
 74
    0
 42
1e-07
 43
1e-07
 40
0
 40
0
 40
0
 40
0
 40
0.3333333333333333
 40
0.6666666666666666
 40
1
 40
1
 40
1
 40
1
 10
4051.32831
 20
-1825.988886
 30
0
 10
4051.397175
 20
-1826.428392
 30
0
 10
4051.536376
 20
-1827.316796
 30
0
 10
4052.549325
 20
-1828.406532
 30
0
 10
4053.487908
 20
-1828.556848
 30
0
 10
4053.974144
 20
-1828.634719
 30
0
  0
LWPOLYLINE
  5
E7
100
AcDbEntity
  8
0
  6
ByLayer
 62
    7
370
   -1
100
AcDbPolyline
 90
    2
 70
    0
 43
0
 10
3887.286644
 20
-1749.259719
 10
4053.974144
 20
-1749.259719
  0
SPLINE
  5
E8
100
AcDbEntity
  8
0
  6
ByLayer
 62
    7
370
   -1
100
AcDbSpline
210
0
220
0
230
0
 70
    8
 71
    3
 72
   10
 73
    6
 74
    0
 42
1e-07
 43
1e-07
 40
0
 40
0
 40
0
 40
0
 40
0.3333333333333333
 40
0.6666666666666666
 40
1
 40
1
 40
1
 40
1
 10
4053.974144
 20
-1749.259719
 30
0
 10
4053.534638
 20
-1749.190855
 30
0
 10
4052.646233
 20
-1749.051654
 30
0
 10
4051.556498
 20
-1748.038705
 30
0
 10
4051.406182
 20
-1747.100122
 30
0
 10
4051.32831
 20
-1746.613886
 30
0
  0
SPLINE
  5
E9
100
AcDbEntity
  8
0
  6
ByLayer
 62
    7
370
   -1
100
AcDbSpline
210
0
220
0
230
0
 70
    8
 71
    3
 72
   10
 73
    6
 74
    0
 42
1e-07
 43
1e-07
 40
0
 40
0
 40
0
 40
0
 40
0.3333333333333333
 40
0.6666666666666666
 40
1
 40
1
 40
1
 40
1
 10
3889.932477
 20
-1746.613886
 30
0
 10
3889.863612
 20
-1747.053392
 30
0
 10
3889.724411
 20
-1747.941796
 30
0
 10
3888.711463
 20
-1749.031532
 30
0
 10
3887.77288
 20
-1749.181848
 30
0
 10
3887.286644
 20
-1749.259719
 30
0
  0
LWPOLYLINE
  5
EA
100
AcDbEntity
  8
0
  6
ByLayer
 62
    7
370
   -1
100
AcDbPolyline
 90
    2
 70
    0
 43
0
 10
3889.932477
 20
-1825.988886
 10
3889.932477
 20
-1746.613886
  0
LWPOLYLINE
  5
EB
100
AcDbEntity
  8
0
  6
ByLayer
 62
    7
370
   -1
100
AcDbPolyline
 90
    2
 70
    0
 43
0
 10
3736.474144
 20
-1828.634719
 10
3887.286644
 20
-1828.634719
  0
SPLINE
  5
EC
100
AcDbEntity
  8
0
  6
ByLayer
 62
    7
370
   -1
100
AcDbSpline
210
0
220
0
230
0
 70
    8
 71
    3
 72
   10
 73
    6
 74
    0
 42
1e-07
 43
1e-07
 40
0
 40
0
 40
0
 40
0
 40
0.3333333333333333
 40
0.6666666666666666
 40
1
 40
1
 40
1
 40
1
 10
3887.286644
 20
-1828.634719
 30
0
 10
3887.77065
 20
-1828.578053
 30
0
 10
3888.695313
 20
-1828.469797
 30
0
 10
3889.767554
 20
-1827.397555
 30
0
 10
3889.875811
 20
-1826.472892
 30
0
 10
3889.932477
 20
-1825.988886
 30
0
  0
LWPOLYLINE
  5
ED
100
AcDbEntity
  8
0
  6
ByLayer
 62
    7
370
   -1
100
AcDbPolyline
 90
    2
 70
    0
 43
0
 10
3733.82831
 20
-1746.613886
 10
3733.82831
 20
-1825.988886
  0
SPLINE
  5
EE
100
AcDbEntity
  8
0
  6
ByLayer
 62
    7
370
   -1
100
AcDbSpline
210
0
220
0
230
0
 70
    8
 71
    3
 72
   10
 73
    6
 74
    0
 42
1e-07
 43
1e-07
 40
0
 40
0
 40
0
 40
0
 40
0.3333333333333333
 40
0.6666666666666666
 40
1
 40
1
 40
1
 40
1
 10
3733.82831
 20
-1825.988886
 30
0
 10
3733.897175
 20
-1826.428392
 30
0
 10
3734.036376
 20
-1827.316796
 30
0
 10
3735.049325
 20
-1828.406532
 30
0
 10
3735.987908
 20
-1828.556848
 30
0
 10
3736.474144
 20
-1828.634719
 30
0
  0
LWPOLYLINE
  5
EF
100
AcDbEntity
  8
0
  6
ByLayer
 62
    7
370
   -1
100
AcDbPolyline
 90
    2
 70
    0
 43
0
 10
3569.786644
 20
-1749.259719
 10
3736.474144
 20
-1749.259719
  0
SPLINE
  5
F0
100
AcDbEntity
  8
0
  6
ByLayer
 62
    7
370
   -1
100
AcDbSpline
210
0
220
0
230
0
 70
    8
 71
    3
 72
   10
 73
    6
 74
    0
 42
1e-07
 43
1e-07
 40
0
 40
0
 40
0
 40
0
 40
0.3333333333333333
 40
0.6666666666666666
 40
1
 40
1
 40
1
 40
1
 10
3736.474144
 20
-1749.259719
 30
0
 10
3736.034638
 20
-1749.190855
 30
0
 10
3735.146233
 20
-1749.051654
 30
0
 10
3734.056498
 20
-1748.038705
 30
0
 10
3733.906182
 20
-1747.100122
 30
0
 10
3733.82831
 20
-1746.613886
 30
0
  0
SPLINE
  5
F1
100
AcDbEntity
  8
0
  6
ByLayer
 62
    7
370
   -1
100
AcDbSpline
210
0
220
0
230
0
 70
    8
 71
    3
 72
   10
 73
    6
 74
    0
 42
1e-07
 43
1e-07
 40
0
 40
0
 40
0
 40
0
 40
0.3333333333333333
 40
0.6666666666666666
 40
1
 40
1
 40
1
 40
1
 10
3572.432477
 20
-1746.613886
 30
0
 10
3572.363612
 20
-1747.053392
 30
0
 10
3572.224411
 20
-1747.941796
 30
0
 10
3571.211463
 20
-1749.031532
 30
0
 10
3570.27288
 20
-1749.181848
 30
0
 10
3569.786644
 20
-1749.259719
 30
0
  0
LWPOLYLINE
  5
F2
100
AcDbEntity
  8
0
  6
ByLayer
 62
    7
370
   -1
100
AcDbPolyline
 90
    2
 70
    0
 43
0
 10
3572.432477
 20
-1825.988886
 10
3572.432477
 20
-1746.613886
  0
LWPOLYLINE
  5
F3
100
AcDbEntity
  8
0
  6
ByLayer
 62
    7
370
   -1
100
AcDbPolyline
 90
    2
 70
    0
 43
0
 10
3310.494977
 20
-1828.634719
 10
3569.786644
 20
-1828.634719
  0
LWPOLYLINE
  5
F4
100
AcDbEntity
  8
0
  6
ByLayer
 62
    7
370
   -1
100
AcDbPolyline
 90
    2
 70
    0
 43
0
 10
2782.651227
 20
-1828.634719
 10
3310.494977
 20
-1828.634719
  0
LWPOLYLINE
  5
F5
100
AcDbEntity
  8
0
  6
ByLayer
 62
    7
370
   -1
100
AcDbPolyline
 90
    2
 70
    0
 43
0
 10
1169.751227
 20
-1828.634719
 10
2782.651227
 20
-1828.634719
  0
LWPOLYLINE
  5
F6
100
AcDbEntity
  8
0
  6
ByLayer
 62
    7
370
   -1
100
AcDbPolyline
 90
    2
 70
    0
 43
0
 10
641.907477
 20
-1828.634719
 10
1169.751227
 20
-1828.634719
  0
SPLINE
  5
F7
100
AcDbEntity
  8
0
  6
ByLayer
 62
    7
370
   -1
100
AcDbSpline
210
0
220
0
230
0
 70
    8
 71
    3
 72
   10
 73
    6
 74
    0
 42
1e-07
 43
1e-07
 40
0
 40
0
 40
0
 40
0
 40
0.3333333333333333
 40
0.6666666666666666
 40
1
 40
1
 40
1
 40
1
 10
3569.786644
 20
-1828.634719
 30
0
 10
3570.27065
 20
-1828.578053
 30
0
 10
3571.195313
 20
-1828.469797
 30
0
 10
3572.267554
 20
-1827.397555
 30
0
 10
3572.375811
 20
-1826.472892
 30
0
 10
3572.432477
 20
-1825.988886
 30
0
  0
LWPOLYLINE
  5
F8
100
AcDbEntity
  8
0
  6
ByLayer
 62
    7
370
   -1
100
AcDbPolyline
 90
    2
 70
    0
 43
0
 10
639.261644
 20
-1738.676386
 10
639.261644
 20
-1825.988886
  0
SPLINE
  5
F9
100
AcDbEntity
  8
0
  6
ByLayer
 62
    7
370
   -1
100
AcDbSpline
210
0
220
0
230
0
 70
    8
 71
    3
 72
   10
 73
    6
 74
    0
 42
1e-07
 43
1e-07
 40
0
 40
0
 40
0
 40
0
 40
0.3333333333333333
 40
0.6666666666666666
 40
1
 40
1
 40
1
 40
1
 10
639.261644
 20
-1825.988886
 30
0
 10
639.330508
 20
-1826.428392
 30
0
 10
639.469709
 20
-1827.316796
 30
0
 10
640.482658
 20
-1828.406532
 30
0
 10
641.421241
 20
-1828.556848
 30
0
 10
641.907477
 20
-1828.634719
 30
0
  0
LWPOLYLINE
  5
FA
100
AcDbEntity
  8
0
  6
ByLayer
 62
    7
370
   -1
100
AcDbPolyline
 90
    2
 70
    0
 43
0
 10
308.532477
 20
-1741.322219
 10
641.907477
 20
-1741.322219
  0
SPLINE
  5
FB
100
AcDbEntity
  8
0
  6
ByLayer
 62
    7
370
   -1
100
AcDbSpline
210
0
220
0
230
0
 70
    8
 71
    3
 72
   10
 73
    6
 74
    0
 42
1e-07
 43
1e-07
 40
0
 40
0
 40
0
 40
0
 40
0.3333333333333333
 40
0.6666666666666666
 40
1
 40
1
 40
1
 40
1
 10
641.907477
 20
-1741.322219
 30
0
 10
641.4234709999999
 20
-1741.265553
 30
0
 10
640.4988080000001
 20
-1741.157297
 30
0
 10
639.426567
 20
-1740.085055
 30
0
 10
639.31831
 20
-1739.160392
 30
0
 10
639.261644
 20
-1738.676386
 30
0
  0
LWPOLYLINE
  5
FC
100
AcDbEntity
  8
0
  6
ByLayer
 62
    7
370
   -1
100
AcDbPolyline
 90
    2
 70
    0
 43
0
 10
311.17831
 20
-1825.988886
 10
311.17831
 20
-1738.676386
  0
SPLINE
  5
FD
100
AcDbEntity
  8
0
  6
ByLayer
 62
    7
370
   -1
100
AcDbSpline
210
0
220
0
230
0
 70
    8
 71
    3
 72
   10
 73
    6
 74
    0
 42
1e-07
 43
1e-07
 40
0
 40
0
 40
0
 40
0
 40
0.3333333333333333
 40
0.6666666666666666
 40
1
 40
1
 40
1
 40
1
 10
311.17831
 20
-1738.676386
 30
0
 10
311.109446
 20
-1739.115892
 30
0
 10
310.970245
 20
-1740.004296
 30
0
 10
309.957296
 20
-1741.094032
 30
0
 10
309.018713
 20
-1741.244348
 30
0
 10
308.532477
 20
-1741.322219
 30
0
  0
LWPOLYLINE
  5
FE
100
AcDbEntity
  8
0
  6
ByLayer
 62
    7
370
   -1
100
AcDbPolyline
 90
    2
 70
    0
 43
0
 10
3.99706
 20
-608.640969
 10
3.99706
 20
-1825.988886
  0
SPLINE
  5
FF
100
AcDbEntity
  8
0
  6
ByLayer
 62
    7
370
   -1
100
AcDbSpline
210
0
220
0
230
0
 70
    8
 71
    3
 72
   49
 73
   45
 74
    0
 42
1e-07
 43
1e-07
 40
0
 40
0
 40
0
 40
0
 40
0.02380952380952381
 40
0.04761904761904762
 40
0.07142857142857142
 40
0.09523809523809523
 40
0.119047619047619
 40
0.1428571428571428
 40
0.1666666666666667
 40
0.1904761904761905
 40
0.2142857142857143
 40
0.2380952380952381
 40
0.2619047619047619
 40
0.2857142857142857
 40
0.3095238095238095
 40
0.3333333333333333
 40
0.3571428571428571
 40
0.3809523809523809
 40
0.4047619047619048
 40
0.4285714285714285
 40
0.4523809523809523
 40
0.4761904761904762
 40
0.5
 40
0.5238095238095237
 40
0.5476190476190476
 40
0.5714285714285714
 40
0.5952380952380952
 40
0.6190476190476191
 40
0.6428571428571428
 40
0.6666666666666666
 40
0.6904761904761905
 40
0.7142857142857142
 40
0.738095238095238
 40
0.7619047619047619
 40
0.7857142857142857
 40
0.8095238095238095
 40
0.8333333333333333
 40
0.8571428571428571
 40
0.8809523809523809
 40
0.9047619047619047
 40
0.9285714285714285
 40
0.9523809523809523
 40
0.9761904761904762
 40
1
 40
1
 40
1
 40
1
 10
3.99706
 20
-1825.988886
 30
0
 10
4.613979
 20
-1829.957466
 30
0
 10
5.828997
 20
-1837.77356
 30
0
 10
14.775225
 20
-1846.351822
 30
0
 10
25.898133
 20
-1849.459132
 30
0
 10
36.386508
 20
-1846.740425
 30
0
 10
44.120757
 20
-1839.395558
 30
0
 10
45.224541
 20
-1828.1211
 30
0
 10
50.480725
 20
-1815.003391
 30
0
 10
68.10926600000001
 20
-1815.004066
 30
0
 10
73.365236
 20
-1828.119224
 30
0
 10
74.469646
 20
-1839.400188
 30
0
 10
82.201792
 20
-1846.723383
 30
0
 10
92.10331100000001
 20
-1849.37113
 30
0
 10
102.004828
 20
-1846.723383
 30
0
 10
109.736978
 20
-1839.40019
 30
0
 10
110.841371
 20
-1828.119215
 30
0
 10
116.097428
 20
-1815.004111
 30
0
 10
133.725637
 20
-1815.00323
 30
0
 10
138.98263
 20
-1828.120773
 30
0
 10
140.081959
 20
-1839.376305
 30
0
 10
147.697015
 20
-1846.690412
 30
0
 10
157.513609
 20
-1849.378421
 30
0
 10
167.357398
 20
-1846.717327
 30
0
 10
175.088926
 20
-1839.401825
 30
0
 10
176.193523
 20
-1828.118595
 30
0
 10
181.449409
 20
-1815.004104
 30
0
 10
199.078035
 20
-1815.003864
 30
0
 10
204.333983
 20
-1828.119262
 30
0
 10
205.438397
 20
-1839.400179
 30
0
 10
213.170542
 20
-1846.723386
 30
0
 10
223.07206
 20
-1849.371129
 30
0
 10
232.973579
 20
-1846.723383
 30
0
 10
240.705725
 20
-1839.400188
 30
0
 10
241.810135
 20
-1828.119224
 30
0
 10
247.066105
 20
-1815.004066
 30
0
 10
264.694646
 20
-1815.003391
 30
0
 10
269.95083
 20
-1828.1211
 30
0
 10
271.054614
 20
-1839.395558
 30
0
 10
278.788863
 20
-1846.740425
 30
0
 10
289.277238
 20
-1849.459132
 30
0
 10
300.400145
 20
-1846.351822
 30
0
 10
309.346374
 20
-1837.77356
 30
0
 10
310.561392
 20
-1829.957466
 30
0
 10
311.17831
 20
-1825.988886
 30
0
  0
LWPOLYLINE
  5
100
100
AcDbEntity
  8
0
  6
ByLayer
 62
    7
370
   -1
100
AcDbPolyline
 90
    2
 70
    0
 43
0
 10
311.17831
 20
-695.953469
 10
311.17831
 20
-608.640969
  0
SPLINE
  5
101
100
AcDbEntity
  8
0
  6
ByLayer
 62
    7
370
   -1
100
AcDbSpline
210
0
220
0
230
0
 70
    8
 71
    3
 72
   49
 73
   45
 74
    0
 42
1e-07
 43
1e-07
 40
0
 40
0
 40
0
 40
0
 40
0.02380952380952381
 40
0.04761904761904762
 40
0.07142857142857142
 40
0.09523809523809523
 40
0.119047619047619
 40
0.1428571428571428
 40
0.1666666666666667
 40
0.1904761904761905
 40
0.2142857142857143
 40
0.2380952380952381
 40
0.2619047619047619
 40
0.2857142857142857
 40
0.3095238095238095
 40
0.3333333333333333
 40
0.3571428571428571
 40
0.3809523809523809
 40
0.4047619047619048
 40
0.4285714285714285
 40
0.4523809523809523
 40
0.4761904761904762
 40
0.5
 40
0.5238095238095237
 40
0.5476190476190476
 40
0.5714285714285714
 40
0.5952380952380952
 40
0.6190476190476191
 40
0.6428571428571428
 40
0.6666666666666666
 40
0.6904761904761905
 40
0.7142857142857142
 40
0.738095238095238
 40
0.7619047619047619
 40
0.7857142857142857
 40
0.8095238095238095
 40
0.8333333333333333
 40
0.8571428571428571
 40
0.8809523809523809
 40
0.9047619047619047
 40
0.9285714285714285
 40
0.9523809523809523
 40
0.9761904761904762
 40
1
 40
1
 40
1
 40
1
 10
311.17831
 20
-608.640969
 30
0
 10
310.561392
 20
-604.67239
 30
0
 10
309.346374
 20
-596.856295
 30
0
 10
300.400145
 20
-588.2780330000001
 30
0
 10
289.277238
 20
-585.170723
 30
0
 10
278.788863
 20
-587.8894309999999
 30
0
 10
271.054614
 20
-595.234298
 30
0
 10
269.95083
 20
-606.5087559999999
 30
0
 10
264.694646
 20
-619.6264650000001
 30
0
 10
247.066105
 20
-619.6257890000001
 30
0
 10
241.810135
 20
-606.510631
 30
0
 10
240.705725
 20
-595.2296679999999
 30
0
 10
232.973579
 20
-587.906472
 30
0
 10
223.07206
 20
-585.258726
 30
0
 10
213.170542
 20
-587.90647
 30
0
 10
205.438397
 20
-595.229676
 30
0
 10
204.333983
 20
-606.510594
 30
0
 10
199.078035
 20
-619.625991
 30
0
 10
181.449409
 20
-619.625751
 30
0
 10
176.193523
 20
-606.51126
 30
0
 10
175.088926
 20
-595.22803
 30
0
 10
167.357398
 20
-587.912528
 30
0
 10
157.513609
 20
-585.251434
 30
0
 10
147.697015
 20
-587.939444
 30
0
 10
140.081959
 20
-595.25355
 30
0
 10
138.98263
 20
-606.509083
 30
0
 10
133.725637
 20
-619.626625
 30
0
 10
116.097428
 20
-619.6257440000001
 30
0
 10
110.841371
 20
-606.51064
 30
0
 10
109.736978
 20
-595.229666
 30
0
 10
102.004828
 20
-587.906473
 30
0
 10
92.10331100000001
 20
-585.258726
 30
0
 10
82.201792
 20
-587.906472
 30
0
 10
74.469646
 20
-595.2296679999999
 30
0
 10
73.365236
 20
-606.510631
 30
0
 10
68.10926600000001
 20
-619.6257890000001
 30
0
 10
50.480725
 20
-619.6264650000001
 30
0
 10
45.224541
 20
-606.5087559999999
 30
0
 10
44.120757
 20
-595.234298
 30
0
 10
36.386508
 20
-587.8894309999999
 30
0
 10
25.898133
 20
-585.170723
 30
0
 10
14.775225
 20
-588.2780330000001
 30
0
 10
5.828997
 20
-596.856295
 30
0
 10
4.613979
 20
-604.67239
 30
0
 10
3.99706
 20
-608.640969
 30
0
  0
LWPOLYLINE
  5
102
100
AcDbEntity
  8
0
  6
ByLayer
 62
    7
370
   -1
100
AcDbPolyline
 90
    2
 70
    0
 43
0
 10
641.907477
 20
-693.307636
 10
308.532477
 20
-693.307636
  0
SPLINE
  5
103
100
AcDbEntity
  8
0
  6
ByLayer
 62
    7
370
   -1
100
AcDbSpline
210
0
220
0
230
0
 70
    8
 71
    3
 72
   10
 73
    6
 74
    0
 42
1e-07
 43
1e-07
 40
0
 40
0
 40
0
 40
0
 40
0.3333333333333333
 40
0.6666666666666666
 40
1
 40
1
 40
1
 40
1
 10
308.532477
 20
-693.307636
 30
0
 10
308.971983
 20
-693.376501
 30
0
 10
309.860387
 20
-693.515702
 30
0
 10
310.950123
 20
-694.52865
 30
0
 10
311.100439
 20
-695.467233
 30
0
 10
311.17831
 20
-695.953469
 30
0
  0
LWPOLYLINE
  5
104
100
AcDbEntity
  8
0
  6
ByLayer
 62
    7
370
   -1
100
AcDbPolyline
 90
    2
 70
    0
 43
0
 10
639.261644
 20
-608.640969
 10
639.261644
 20
-695.953469
  0
SPLINE
  5
105
100
AcDbEntity
  8
0
  6
ByLayer
 62
    7
370
   -1
100
AcDbSpline
210
0
220
0
230
0
 70
    8
 71
    3
 72
   10
 73
    6
 74
    0
 42
1e-07
 43
1e-07
 40
0
 40
0
 40
0
 40
0
 40
0.3333333333333333
 40
0.6666666666666666
 40
1
 40
1
 40
1
 40
1
 10
639.261644
 20
-695.953469
 30
0
 10
639.330508
 20
-695.513963
 30
0
 10
639.469709
 20
-694.625559
 30
0
 10
640.482658
 20
-693.535824
 30
0
 10
641.421241
 20
-693.385508
 30
0
 10
641.907477
 20
-693.307636
 30
0
  0
LWPOLYLINE
  5
106
100
AcDbEntity
  8
0
  6
ByLayer
 62
    7
370
   -1
100
AcDbPolyline
 90
    2
 70
    0
 43
0
 10
1169.751227
 20
-605.995136
 10
641.907477
 20
-605.995136
  0
LWPOLYLINE
  5
107
100
AcDbEntity
  8
0
  6
ByLayer
 62
    7
370
   -1
100
AcDbPolyline
 90
    2
 70
    0
 43
0
 10
687.680394
 20
-1367.995136
 10
687.680394
 20
-685.370136
  0
LWPOLYLINE
  5
108
100
AcDbEntity
  8
0
  6
ByLayer
 62
    7
370
   -1
100
AcDbPolyline
 90
    2
 70
    0
 43
0
 10
687.680394
 20
-1828.634719
 10
687.680394
 20
-1447.370136
  0
LWPOLYLINE
  5
109
100
AcDbEntity
  8
0
  6
ByLayer
 62
    7
370
   -1
100
AcDbPolyline
 90
    2
 70
    0
 43
0
 10
727.367894
 20
-1066.370136
 10
727.367894
 20
-1749.259719
  0
LWPOLYLINE
  5
10A
100
AcDbEntity
  8
0
  6
ByLayer
 62
    7
370
   -1
100
AcDbPolyline
 90
    2
 70
    0
 43
0
 10
727.367894
 20
-605.995136
 10
727.367894
 20
-986.995136
  0
LWPOLYLINE
  5
10B
100
AcDbEntity
  8
0
  6
ByLayer
 62
    7
370
   -1
100
AcDbPolyline
 90
    2
 70
    0
 43
0
 10
767.055394
 20
-1367.995136
 10
767.055394
 20
-685.370136
  0
LWPOLYLINE
  5
10C
100
AcDbEntity
  8
0
  6
ByLayer
 62
    7
370
   -1
100
AcDbPolyline
 90
    2
 70
    0
 43
0
 10
767.055394
 20
-1828.634719
 10
767.055394
 20
-1447.370136
  0
LWPOLYLINE
  5
10D
100
AcDbEntity
  8
0
  6
ByLayer
 62
    7
370
   -1
100
AcDbPolyline
 90
    2
 70
    0
 43
0
 10
806.742894
 20
-1066.370136
 10
806.742894
 20
-1749.259719
  0
LWPOLYLINE
  5
10E
100
AcDbEntity
  8
0
  6
ByLayer
 62
    7
370
   -1
100
AcDbPolyline
 90
    2
 70
    0
 43
0
 10
806.742894
 20
-605.995136
 10
806.742894
 20
-986.995136
  0
LWPOLYLINE
  5
10F
100
AcDbEntity
  8
0
  6
ByLayer
 62
    7
370
   -1
100
AcDbPolyline
 90
    2
 70
    0
 43
0
 10
846.430394
 20
-1367.995136
 10
846.430394
 20
-685.370136
  0
LWPOLYLINE
  5
110
100
AcDbEntity
  8
0
  6
ByLayer
 62
    7
370
   -1
100
AcDbPolyline
 90
    2
 70
    0
 43
0
 10
846.430394
 20
-1828.634719
 10
846.430394
 20
-1447.370136
  0
LWPOLYLINE
  5
111
100
AcDbEntity
  8
0
  6
ByLayer
 62
    7
370
   -1
100
AcDbPolyline
 90
    2
 70
    0
 43
0
 10
886.117894
 20
-1066.370136
 10
886.117894
 20
-1749.259719
  0
LWPOLYLINE
  5
112
100
AcDbEntity
  8
0
  6
ByLayer
 62
    7
370
   -1
100
AcDbPolyline
 90
    2
 70
    0
 43
0
 10
886.117894
 20
-605.995136
 10
886.117894
 20
-986.995136
  0
LWPOLYLINE
  5
113
100
AcDbEntity
  8
0
  6
ByLayer
 62
    7
370
   -1
100
AcDbPolyline
 90
    2
 70
    0
 43
0
 10
925.805394
 20
-1367.995136
 10
925.805394
 20
-685.370136
  0
LWPOLYLINE
  5
114
100
AcDbEntity
  8
0
  6
ByLayer
 62
    7
370
   -1
100
AcDbPolyline
 90
    2
 70
    0
 43
0
 10
925.805394
 20
-1828.634719
 10
925.805394
 20
-1447.370136
  0
LWPOLYLINE
  5
115
100
AcDbEntity
  8
0
  6
ByLayer
 62
    7
370
   -1
100
AcDbPolyline
 90
    2
 70
    0
 43
0
 10
965.492894
 20
-1066.370136
 10
965.492894
 20
-1749.259719
  0
LWPOLYLINE
  5
116
100
AcDbEntity
  8
0
  6
ByLayer
 62
    7
370
   -1
100
AcDbPolyline
 90
    2
 70
    0
 43
0
 10
965.492894
 20
-605.995136
 10
965.492894
 20
-986.995136
  0
LWPOLYLINE
  5
117
100
AcDbEntity
  8
0
  6
ByLayer
 62
    7
370
   -1
100
AcDbPolyline
 90
    2
 70
    0
 43
0
 10
1005.180394
 20
-1367.995136
 10
1005.180394
 20
-685.370136
  0
LWPOLYLINE
  5
118
100
AcDbEntity
  8
0
  6
ByLayer
 62
    7
370
   -1
100
AcDbPolyline
 90
    2
 70
    0
 43
0
 10
1005.180394
 20
-1828.634719
 10
1005.180394
 20
-1447.370136
  0
LWPOLYLINE
  5
119
100
AcDbEntity
  8
0
  6
ByLayer
 62
    7
370
   -1
100
AcDbPolyline
 90
    2
 70
    0
 43
0
 10
1044.867894
 20
-1066.370136
 10
1044.867894
 20
-1749.259719
  0
LWPOLYLINE
  5
11A
100
AcDbEntity
  8
0
  6
ByLayer
 62
    7
370
   -1
100
AcDbPolyline
 90
    2
 70
    0
 43
0
 10
1044.867894
 20
-605.995136
 10
1044.867894
 20
-986.995136
  0
LWPOLYLINE
  5
11B
100
AcDbEntity
  8
0
  6
ByLayer
 62
    7
370
   -1
100
AcDbPolyline
 90
    2
 70
    0
 43
0
 10
1084.555394
 20
-1367.995136
 10
1084.555394
 20
-685.370136
  0
LWPOLYLINE
  5
11C
100
AcDbEntity
  8
0
  6
ByLayer
 62
    7
370
   -1
100
AcDbPolyline
 90
    2
 70
    0
 43
0
 10
1084.555394
 20
-1828.634719
 10
1084.555394
 20
-1447.370136
  0
LWPOLYLINE
  5
11D
100
AcDbEntity
  8
0
  6
ByLayer
 62
    7
370
   -1
100
AcDbPolyline
 90
    2
 70
    0
 43
0
 10
1124.242894
 20
-1066.370136
 10
1124.242894
 20
-1749.259719
  0
LWPOLYLINE
  5
11E
100
AcDbEntity
  8
0
  6
ByLayer
 62
    7
370
   -1
100
AcDbPolyline
 90
    2
 70
    0
 43
0
 10
1124.242894
 20
-605.995136
 10
1124.242894
 20
-986.995136
  0
LWPOLYLINE
  5
11F
100
AcDbEntity
  8
0
  6
ByLayer
 62
    7
370
   -1
100
AcDbPolyline
 90
    2
 70
    0
 43
0
 10
2782.651227
 20
-605.995136
 10
1169.751227
 20
-605.995136
  0
LWPOLYLINE
  5
120
100
AcDbEntity
  8
0
  6
ByLayer
 62
    7
370
   -1
100
AcDbPolyline
 90
    2
 70
    0
 43
0
 10
3310.494977
 20
-605.995136
 10
2782.651227
 20
-605.995136
  0
LWPOLYLINE
  5
121
100
AcDbEntity
  8
0
  6
ByLayer
 62
    7
370
   -1
100
AcDbPolyline
 90
    2
 70
    0
 43
0
 10
2828.424144
 20
-1367.995136
 10
2828.424144
 20
-685.370136
  0
LWPOLYLINE
  5
122
100
AcDbEntity
  8
0
  6
ByLayer
 62
    7
370
   -1
100
AcDbPolyline
 90
    2
 70
    0
 43
0
 10
2828.424144
 20
-1828.634719
 10
2828.424144
 20
-1447.370136
  0
LWPOLYLINE
  5
123
100
AcDbEntity
  8
0
  6
ByLayer
 62
    7
370
   -1
100
AcDbPolyline
 90
    2
 70
    0
 43
0
 10
2868.111644
 20
-1066.370136
 10
2868.111644
 20
-1749.259719
  0
LWPOLYLINE
  5
124
100
AcDbEntity
  8
0
  6
ByLayer
 62
    7
370
   -1
100
AcDbPolyline
 90
    2
 70
    0
 43
0
 10
2868.111644
 20
-605.995136
 10
2868.111644
 20
-986.995136
  0
LWPOLYLINE
  5
125
100
AcDbEntity
  8
0
  6
ByLayer
 62
    7
370
   -1
100
AcDbPolyline
 90
    2
 70
    0
 43
0
 10
2907.799144
 20
-1367.995136
 10
2907.799144
 20
-685.370136
  0
LWPOLYLINE
  5
126
100
AcDbEntity
  8
0
  6
ByLayer
 62
    7
370
   -1
100
AcDbPolyline
 90
    2
 70
    0
 43
0
 10
2907.799144
 20
-1828.634719
 10
2907.799144
 20
-1447.370136
  0
LWPOLYLINE
  5
127
100
AcDbEntity
  8
0
  6
ByLayer
 62
    7
370
   -1
100
AcDbPolyline
 90
    2
 70
    0
 43
0
 10
2947.486644
 20
-1066.370136
 10
2947.486644
 20
-1749.259719
  0
LWPOLYLINE
  5
128
100
AcDbEntity
  8
0
  6
ByLayer
 62
    7
370
   -1
100
AcDbPolyline
 90
    2
 70
    0
 43
0
 10
2947.486644
 20
-605.995136
 10
2947.486644
 20
-986.995136
  0
LWPOLYLINE
  5
129
100
AcDbEntity
  8
0
  6
ByLayer
 62
    7
370
   -1
100
AcDbPolyline
 90
    2
 70
    0
 43
0
 10
2987.174144
 20
-1367.995136
 10
2987.174144
 20
-685.370136
  0
LWPOLYLINE
  5
12A
100
AcDbEntity
  8
0
  6
ByLayer
 62
    7
370
   -1
100
AcDbPolyline
 90
    2
 70
    0
 43
0
 10
2987.174144
 20
-1828.634719
 10
2987.174144
 20
-1447.370136
  0
LWPOLYLINE
  5
12B
100
AcDbEntity
  8
0
  6
ByLayer
 62
    7
370
   -1
100
AcDbPolyline
 90
    2
 70
    0
 43
0
 10
3026.861644
 20
-1066.370136
 10
3026.861644
 20
-1749.259719
  0
LWPOLYLINE
  5
12C
100
AcDbEntity
  8
0
  6
ByLayer
 62
    7
370
   -1
100
AcDbPolyline
 90
    2
 70
    0
 43
0
 10
3026.861644
 20
-605.995136
 10
3026.861644
 20
-986.995136
  0
LWPOLYLINE
  5
12D
100
AcDbEntity
  8
0
  6
ByLayer
 62
    7
370
   -1
100
AcDbPolyline
 90
    2
 70
    0
 43
0
 10
3066.549144
 20
-1367.995136
 10
3066.549144
 20
-685.370136
  0
LWPOLYLINE
  5
12E
100
AcDbEntity
  8
0
  6
ByLayer
 62
    7
370
   -1
100
AcDbPolyline
 90
    2
 70
    0
 43
0
 10
3066.549144
 20
-1828.634719
 10
3066.549144
 20
-1447.370136
  0
LWPOLYLINE
  5
12F
100
AcDbEntity
  8
0
  6
ByLayer
 62
    7
370
   -1
100
AcDbPolyline
 90
    2
 70
    0
 43
0
 10
3106.236644
 20
-1066.370136
 10
3106.236644
 20
-1749.259719
  0
LWPOLYLINE
  5
130
100
AcDbEntity
  8
0
  6
ByLayer
 62
    7
370
   -1
100
AcDbPolyline
 90
    2
 70
    0
 43
0
 10
3106.236644
 20
-605.995136
 10
3106.236644
 20
-986.995136
  0
LWPOLYLINE
  5
131
100
AcDbEntity
  8
0
  6
ByLayer
 62
    7
370
   -1
100
AcDbPolyline
 90
    2
 70
    0
 43
0
 10
3145.924144
 20
-1367.995136
 10
3145.924144
 20
-685.370136
  0
LWPOLYLINE
  5
132
100
AcDbEntity
  8
0
  6
ByLayer
 62
    7
370
   -1
100
AcDbPolyline
 90
    2
 70
    0
 43
0
 10
3145.924144
 20
-1828.634719
 10
3145.924144
 20
-1447.370136
  0
LWPOLYLINE
  5
133
100
AcDbEntity
  8
0
  6
ByLayer
 62
    7
370
   -1
100
AcDbPolyline
 90
    2
 70
    0
 43
0
 10
3185.611644
 20
-1066.370136
 10
3185.611644
 20
-1749.259719
  0
LWPOLYLINE
  5
134
100
AcDbEntity
  8
0
  6
ByLayer
 62
    7
370
   -1
100
AcDbPolyline
 90
    2
 70
    0
 43
0
 10
3185.611644
 20
-605.995136
 10
3185.611644
 20
-986.995136
  0
LWPOLYLINE
  5
135
100
AcDbEntity
  8
0
  6
ByLayer
 62
    7
370
   -1
100
AcDbPolyline
 90
    2
 70
    0
 43
0
 10
3225.299144
 20
-1367.995136
 10
3225.299144
 20
-685.370136
  0
LWPOLYLINE
  5
136
100
AcDbEntity
  8
0
  6
ByLayer
 62
    7
370
   -1
100
AcDbPolyline
 90
    2
 70
    0
 43
0
 10
3225.299144
 20
-1828.634719
 10
3225.299144
 20
-1447.370136
  0
LWPOLYLINE
  5
137
100
AcDbEntity
  8
0
  6
ByLayer
 62
    7
370
   -1
100
AcDbPolyline
 90
    2
 70
    0
 43
0
 10
3264.986644
 20
-1066.370136
 10
3264.986644
 20
-1749.259719
  0
LWPOLYLINE
  5
138
100
AcDbEntity
  8
0
  6
ByLayer
 62
    7
370
   -1
100
AcDbPolyline
 90
    2
 70
    0
 43
0
 10
3264.986644
 20
-605.995136
 10
3264.986644
 20
-986.995136
  0
LWPOLYLINE
  5
139
100
AcDbEntity
  8
0
  6
ByLayer
 62
    7
370
   -1
100
AcDbPolyline
 90
    2
 70
    0
 43
0
 10
3569.786644
 20
-605.995136
 10
3310.494977
 20
-605.995136
  0
SPLINE
  5
13A
100
AcDbEntity
  8
0
  6
ByLayer
 62
    7
370
   -1
100
AcDbSpline
210
0
220
0
230
0
 70
    8
 71
    3
 72
   10
 73
    6
 74
    0
 42
1e-07
 43
1e-07
 40
0
 40
0
 40
0
 40
0
 40
0.3333333333333333
 40
0.6666666666666666
 40
1
 40
1
 40
1
 40
1
 10
641.907477
 20
-605.995136
 30
0
 10
641.4234709999999
 20
-606.051802
 30
0
 10
640.4988080000001
 20
-606.160059
 30
0
 10
639.426567
 20
-607.2323
 30
0
 10
639.31831
 20
-608.156963
 30
0
 10
639.261644
 20
-608.640969
 30
0
  0
LWPOLYLINE
  5
13B
100
AcDbEntity
  8
0
  6
ByLayer
 62
    7
370
   -1
100
AcDbPolyline
 90
    2
 70
    0
 43
0
 10
3572.432477
 20
-688.015969
 10
3572.432477
 20
-608.640969
  0
SPLINE
  5
13C
100
AcDbEntity
  8
0
  6
ByLayer
 62
    7
370
   -1
100
AcDbSpline
210
0
220
0
230
0
 70
    8
 71
    3
 72
   10
 73
    6
 74
    0
 42
1e-07
 43
1e-07
 40
0
 40
0
 40
0
 40
0
 40
0.3333333333333333
 40
0.6666666666666666
 40
1
 40
1
 40
1
 40
1
 10
3572.432477
 20
-608.640969
 30
0
 10
3572.375811
 20
-608.156963
 30
0
 10
3572.267554
 20
-607.2323
 30
0
 10
3571.195313
 20
-606.160059
 30
0
 10
3570.27065
 20
-606.051802
 30
0
 10
3569.786644
 20
-605.995136
 30
0
  0
LWPOLYLINE
  5
13D
100
AcDbEntity
  8
0
  6
ByLayer
 62
    7
370
   -1
100
AcDbPolyline
 90
    2
 70
    0
 43
0
 10
3736.474144
 20
-685.370136
 10
3569.786644
 20
-685.370136
  0
SPLINE
  5
13E
100
AcDbEntity
  8
0
  6
ByLayer
 62
    7
370
   -1
100
AcDbSpline
210
0
220
0
230
0
 70
    8
 71
    3
 72
   10
 73
    6
 74
    0
 42
1e-07
 43
1e-07
 40
0
 40
0
 40
0
 40
0
 40
0.3333333333333333
 40
0.6666666666666666
 40
1
 40
1
 40
1
 40
1
 10
3569.786644
 20
-685.370136
 30
0
 10
3570.27065
 20
-685.426802
 30
0
 10
3571.195313
 20
-685.535059
 30
0
 10
3572.267554
 20
-686.6073
 30
0
 10
3572.375811
 20
-687.531963
 30
0
 10
3572.432477
 20
-688.015969
 30
0
  0
SPLINE
  5
13F
100
AcDbEntity
  8
0
  6
ByLayer
 62
    7
370
   -1
100
AcDbSpline
210
0
220
0
230
0
 70
    8
 71
    3
 72
   10
 73
    6
 74
    0
 42
1e-07
 43
1e-07
 40
0
 40
0
 40
0
 40
0
 40
0.3333333333333333
 40
0.6666666666666666
 40
1
 40
1
 40
1
 40
1
 10
3733.82831
 20
-688.015969
 30
0
 10
3733.884976
 20
-687.531963
 30
0
 10
3733.993233
 20
-686.6073
 30
0
 10
3735.065475
 20
-685.535059
 30
0
 10
3735.990138
 20
-685.426802
 30
0
 10
3736.474144
 20
-685.370136
 30
0
  0
LWPOLYLINE
  5
140
100
AcDbEntity
  8
0
  6
ByLayer
 62
    7
370
   -1
100
AcDbPolyline
 90
    2
 70
    0
 43
0
 10
3733.82831
 20
-608.640969
 10
3733.82831
 20
-688.015969
  0
LWPOLYLINE
  5
141
100
AcDbEntity
  8
0
  6
ByLayer
 62
    7
370
   -1
100
AcDbPolyline
 90
    2
 70
    0
 43
0
 10
3887.286644
 20
-605.995136
 10
3736.474144
 20
-605.995136
  0
SPLINE
  5
142
100
AcDbEntity
  8
0
  6
ByLayer
 62
    7
370
   -1
100
AcDbSpline
210
0
220
0
230
0
 70
    8
 71
    3
 72
   10
 73
    6
 74
    0
 42
1e-07
 43
1e-07
 40
0
 40
0
 40
0
 40
0
 40
0.3333333333333333
 40
0.6666666666666666
 40
1
 40
1
 40
1
 40
1
 10
3736.474144
 20
-605.995136
 30
0
 10
3736.034638
 20
-606.064001
 30
0
 10
3735.146233
 20
-606.203202
 30
0
 10
3734.056498
 20
-607.21615
 30
0
 10
3733.906182
 20
-608.154733
 30
0
 10
3733.82831
 20
-608.640969
 30
0
  0
LWPOLYLINE
  5
143
100
AcDbEntity
  8
0
  6
ByLayer
 62
    7
370
   -1
100
AcDbPolyline
 90
    2
 70
    0
 43
0
 10
3889.932477
 20
-688.015969
 10
3889.932477
 20
-608.640969
  0
SPLINE
  5
144
100
AcDbEntity
  8
0
  6
ByLayer
 62
    7
370
   -1
100
AcDbSpline
210
0
220
0
230
0
 70
    8
 71
    3
 72
   10
 73
    6
 74
    0
 42
1e-07
 43
1e-07
 40
0
 40
0
 40
0
 40
0
 40
0.3333333333333333
 40
0.6666666666666666
 40
1
 40
1
 40
1
 40
1
 10
3889.932477
 20
-608.640969
 30
0
 10
3889.875811
 20
-608.156963
 30
0
 10
3889.767554
 20
-607.2323
 30
0
 10
3888.695313
 20
-606.160059
 30
0
 10
3887.77065
 20
-606.051802
 30
0
 10
3887.286644
 20
-605.995136
 30
0
  0
LWPOLYLINE
  5
145
100
AcDbEntity
  8
0
  6
ByLayer
 62
    7
370
   -1
100
AcDbPolyline
 90
    2
 70
    0
 43
0
 10
4053.974144
 20
-685.370136
 10
3887.286644
 20
-685.370136
  0
SPLINE
  5
146
100
AcDbEntity
  8
0
  6
ByLayer
 62
    7
370
   -1
100
AcDbSpline
210
0
220
0
230
0
 70
    8
 71
    3
 72
   10
 73
    6
 74
    0
 42
1e-07
 43
1e-07
 40
0
 40
0
 40
0
 40
0
 40
0.3333333333333333
 40
0.6666666666666666
 40
1
 40
1
 40
1
 40
1
 10
3887.286644
 20
-685.370136
 30
0
 10
3887.77065
 20
-685.426802
 30
0
 10
3888.695313
 20
-685.535059
 30
0
 10
3889.767554
 20
-686.6073
 30
0
 10
3889.875811
 20
-687.531963
 30
0
 10
3889.932477
 20
-688.015969
 30
0
  0
SPLINE
  5
147
100
AcDbEntity
  8
0
  6
ByLayer
 62
    7
370
   -1
100
AcDbSpline
210
0
220
0
230
0
 70
    8
 71
    3
 72
   10
 73
    6
 74
    0
 42
1e-07
 43
1e-07
 40
0
 40
0
 40
0
 40
0
 40
0.3333333333333333
 40
0.6666666666666666
 40
1
 40
1
 40
1
 40
1
 10
4051.32831
 20
-688.015969
 30
0
 10
4051.384976
 20
-687.531963
 30
0
 10
4051.493233
 20
-686.6073
 30
0
 10
4052.565475
 20
-685.535059
 30
0
 10
4053.490138
 20
-685.426802
 30
0
 10
4053.974144
 20
-685.370136
 30
0
  0
LWPOLYLINE
  5
148
100
AcDbEntity
  8
0
  6
ByLayer
 62
    7
370
   -1
100
AcDbPolyline
 90
    2
 70
    0
 43
0
 10
4051.32831
 20
-608.640969
 10
4051.32831
 20
-688.015969
  0
LWPOLYLINE
  5
149
100
AcDbEntity
  8
0
  6
ByLayer
 62
    7
370
   -1
100
AcDbPolyline
 90
    2
 70
    0
 43
0
 10
4204.786644
 20
-605.995136
 10
4053.974144
 20
-605.995136
  0
SPLINE
  5
14A
100
AcDbEntity
  8
0
  6
ByLayer
 62
    7
370
   -1
100
AcDbSpline
210
0
220
0
230
0
 70
    8
 71
    3
 72
   10
 73
    6
 74
    0
 42
1e-07
 43
1e-07
 40
0
 40
0
 40
0
 40
0
 40
0.3333333333333333
 40
0.6666666666666666
 40
1
 40
1
 40
1
 40
1
 10
4053.974144
 20
-605.995136
 30
0
 10
4053.534638
 20
-606.064001
 30
0
 10
4052.646233
 20
-606.203202
 30
0
 10
4051.556498
 20
-607.21615
 30
0
 10
4051.406182
 20
-608.154733
 30
0
 10
4051.32831
 20
-608.640969
 30
0
  0
LWPOLYLINE
  5
14B
100
AcDbEntity
  8
0
  6
ByLayer
 62
    7
370
   -1
100
AcDbPolyline
 90
    2
 70
    0
 43
0
 10
4207.432477
 20
-688.015969
 10
4207.432477
 20
-608.640969
  0
SPLINE
  5
14C
100
AcDbEntity
  8
0
  6
ByLayer
 62
    7
370
   -1
100
AcDbSpline
210
0
220
0
230
0
 70
    8
 71
    3
 72
   10
 73
    6
 74
    0
 42
1e-07
 43
1e-07
 40
0
 40
0
 40
0
 40
0
 40
0.3333333333333333
 40
0.6666666666666666
 40
1
 40
1
 40
1
 40
1
 10
4207.432477
 20
-608.640969
 30
0
 10
4207.375811
 20
-608.156963
 30
0
 10
4207.267554
 20
-607.2323
 30
0
 10
4206.195313
 20
-606.160059
 30
0
 10
4205.27065
 20
-606.051802
 30
0
 10
4204.786644
 20
-605.995136
 30
0
  0
LWPOLYLINE
  5
14D
100
AcDbEntity
  8
0
  6
ByLayer
 62
    7
370
   -1
100
AcDbPolyline
 90
    2
 70
    0
 43
0
 10
4371.474144
 20
-685.370136
 10
4204.786644
 20
-685.370136
  0
SPLINE
  5
14E
100
AcDbEntity
  8
0
  6
ByLayer
 62
    7
370
   -1
100
AcDbSpline
210
0
220
0
230
0
 70
    8
 71
    3
 72
   10
 73
    6
 74
    0
 42
1e-07
 43
1e-07
 40
0
 40
0
 40
0
 40
0
 40
0.3333333333333333
 40
0.6666666666666666
 40
1
 40
1
 40
1
 40
1
 10
4204.786644
 20
-685.370136
 30
0
 10
4205.27065
 20
-685.426802
 30
0
 10
4206.195313
 20
-685.535059
 30
0
 10
4207.267554
 20
-686.6073
 30
0
 10
4207.375811
 20
-687.531963
 30
0
 10
4207.432477
 20
-688.015969
 30
0
  0
SPLINE
  5
14F
100
AcDbEntity
  8
0
  6
ByLayer
 62
    7
370
   -1
100
AcDbSpline
210
0
220
0
230
0
 70
    8
 71
    3
 72
   10
 73
    6
 74
    0
 42
1e-07
 43
1e-07
 40
0
 40
0
 40
0
 40
0
 40
0.3333333333333333
 40
0.6666666666666666
 40
1
 40
1
 40
1
 40
1
 10
4368.82831
 20
-688.015969
 30
0
 10
4368.884976
 20
-687.531963
 30
0
 10
4368.993233
 20
-686.6073
 30
0
 10
4370.065475
 20
-685.535059
 30
0
 10
4370.990138
 20
-685.426802
 30
0
 10
4371.474144
 20
-685.370136
 30
0
  0
LWPOLYLINE
  5
150
100
AcDbEntity
  8
0
  6
ByLayer
 62
    7
370
   -1
100
AcDbPolyline
 90
    2
 70
    0
 43
0
 10
4368.82831
 20
-608.640969
 10
4368.82831
 20
-688.015969
  0
LWPOLYLINE
  5
151
100
AcDbEntity
  8
0
  6
ByLayer
 62
    7
370
   -1
100
AcDbPolyline
 90
    2
 70
    0
 43
0
 10
4522.286644
 20
-605.995136
 10
4371.474144
 20
-605.995136
  0
SPLINE
  5
152
100
AcDbEntity
  8
0
  6
ByLayer
 62
    7
370
   -1
100
AcDbSpline
210
0
220
0
230
0
 70
    8
 71
    3
 72
   10
 73
    6
 74
    0
 42
1e-07
 43
1e-07
 40
0
 40
0
 40
0
 40
0
 40
0.3333333333333333
 40
0.6666666666666666
 40
1
 40
1
 40
1
 40
1
 10
4371.474144
 20
-605.995136
 30
0
 10
4371.034638
 20
-606.064001
 30
0
 10
4370.146233
 20
-606.203202
 30
0
 10
4369.056498
 20
-607.21615
 30
0
 10
4368.906182
 20
-608.154733
 30
0
 10
4368.82831
 20
-608.640969
 30
0
  0
LWPOLYLINE
  5
153
100
AcDbEntity
  8
0
  6
ByLayer
 62
    7
370
   -1
100
AcDbPolyline
 90
    2
 70
    0
 43
0
 10
4524.932477
 20
-688.015969
 10
4524.932477
 20
-608.640969
  0
SPLINE
  5
154
100
AcDbEntity
  8
0
  6
ByLayer
 62
    7
370
   -1
100
AcDbSpline
210
0
220
0
230
0
 70
    8
 71
    3
 72
   10
 73
    6
 74
    0
 42
1e-07
 43
1e-07
 40
0
 40
0
 40
0
 40
0
 40
0.3333333333333333
 40
0.6666666666666666
 40
1
 40
1
 40
1
 40
1
 10
4524.932477
 20
-608.640969
 30
0
 10
4524.875811
 20
-608.156963
 30
0
 10
4524.767554
 20
-607.2323
 30
0
 10
4523.695313
 20
-606.160059
 30
0
 10
4522.77065
 20
-606.051802
 30
0
 10
4522.286644
 20
-605.995136
 30
0
  0
LWPOLYLINE
  5
155
100
AcDbEntity
  8
0
  6
ByLayer
 62
    7
370
   -1
100
AcDbPolyline
 90
    2
 70
    0
 43
0
 10
4688.974144
 20
-685.370136
 10
4522.286644
 20
-685.370136
  0
SPLINE
  5
156
100
AcDbEntity
  8
0
  6
ByLayer
 62
    7
370
   -1
100
AcDbSpline
210
0
220
0
230
0
 70
    8
 71
    3
 72
   10
 73
    6
 74
    0
 42
1e-07
 43
1e-07
 40
0
 40
0
 40
0
 40
0
 40
0.3333333333333333
 40
0.6666666666666666
 40
1
 40
1
 40
1
 40
1
 10
4522.286644
 20
-685.370136
 30
0
 10
4522.77065
 20
-685.426802
 30
0
 10
4523.695313
 20
-685.535059
 30
0
 10
4524.767554
 20
-686.6073
 30
0
 10
4524.875811
 20
-687.531963
 30
0
 10
4524.932477
 20
-688.015969
 30
0
  0
SPLINE
  5
157
100
AcDbEntity
  8
0
  6
ByLayer
 62
    7
370
   -1
100
AcDbSpline
210
0
220
0
230
0
 70
    8
 71
    3
 72
   10
 73
    6
 74
    0
 42
1e-07
 43
1e-07
 40
0
 40
0
 40
0
 40
0
 40
0.3333333333333333
 40
0.6666666666666666
 40
1
 40
1
 40
1
 40
1
 10
4686.32831
 20
-688.015969
 30
0
 10
4686.406182
 20
-687.529733
 30
0
 10
4686.556498
 20
-686.59115
 30
0
 10
4687.646233
 20
-685.578202
 30
0
 10
4688.534638
 20
-685.439001
 30
0
 10
4688.974144
 20
-685.370136
 30
0
  0
LWPOLYLINE
  5
158
100
AcDbEntity
  8
0
  6
ByLayer
 62
    7
370
   -1
100
AcDbPolyline
 90
    2
 70
    0
 43
0
 10
4686.32831
 20
-608.640969
 10
4686.32831
 20
-688.015969
  0
LWPOLYLINE
  5
159
100
AcDbEntity
  8
0
  6
ByLayer
 62
    7
370
   -1
100
AcDbPolyline
 90
    2
 70
    0
 43
0
 10
4839.786644
 20
-605.995136
 10
4688.974144
 20
-605.995136
  0
SPLINE
  5
15A
100
AcDbEntity
  8
0
  6
ByLayer
 62
    7
370
   -1
100
AcDbSpline
210
0
220
0
230
0
 70
    8
 71
    3
 72
   10
 73
    6
 74
    0
 42
1e-07
 43
1e-07
 40
0
 40
0
 40
0
 40
0
 40
0.3333333333333333
 40
0.6666666666666666
 40
1
 40
1
 40
1
 40
1
 10
4688.974144
 20
-605.995136
 30
0
 10
4688.534638
 20
-606.064001
 30
0
 10
4687.646233
 20
-606.203202
 30
0
 10
4686.556498
 20
-607.21615
 30
0
 10
4686.406182
 20
-608.154733
 30
0
 10
4686.32831
 20
-608.640969
 30
0
  0
LWPOLYLINE
  5
15B
100
AcDbEntity
  8
0
  6
ByLayer
 62
    7
370
   -1
100
AcDbPolyline
 90
    2
 70
    0
 43
0
 10
4842.432477
 20
-688.015969
 10
4842.432477
 20
-608.640969
  0
SPLINE
  5
15C
100
AcDbEntity
  8
0
  6
ByLayer
 62
    7
370
   -1
100
AcDbSpline
210
0
220
0
230
0
 70
    8
 71
    3
 72
   10
 73
    6
 74
    0
 42
1e-07
 43
1e-07
 40
0
 40
0
 40
0
 40
0
 40
0.3333333333333333
 40
0.6666666666666666
 40
1
 40
1
 40
1
 40
1
 10
4842.432477
 20
-608.640969
 30
0
 10
4842.375811
 20
-608.156963
 30
0
 10
4842.267554
 20
-607.2323
 30
0
 10
4841.195313
 20
-606.160059
 30
0
 10
4840.27065
 20
-606.051802
 30
0
 10
4839.786644
 20
-605.995136
 30
0
  0
LWPOLYLINE
  5
15D
100
AcDbEntity
  8
0
  6
ByLayer
 62
    7
370
   -1
100
AcDbPolyline
 90
    2
 70
    0
 43
0
 10
5006.474144
 20
-685.370136
 10
4839.786644
 20
-685.370136
  0
SPLINE
  5
15E
100
AcDbEntity
  8
0
  6
ByLayer
 62
    7
370
   -1
100
AcDbSpline
210
0
220
0
230
0
 70
    8
 71
    3
 72
   10
 73
    6
 74
    0
 42
1e-07
 43
1e-07
 40
0
 40
0
 40
0
 40
0
 40
0.3333333333333333
 40
0.6666666666666666
 40
1
 40
1
 40
1
 40
1
 10
4839.786644
 20
-685.370136
 30
0
 10
4840.27065
 20
-685.426802
 30
0
 10
4841.195313
 20
-685.535059
 30
0
 10
4842.267554
 20
-686.6073
 30
0
 10
4842.375811
 20
-687.531963
 30
0
 10
4842.432477
 20
-688.015969
 30
0
  0
SPLINE
  5
15F
100
AcDbEntity
  8
0
  6
ByLayer
 62
    7
370
   -1
100
AcDbSpline
210
0
220
0
230
0
 70
    8
 71
    3
 72
   10
 73
    6
 74
    0
 42
1e-07
 43
1e-07
 40
0
 40
0
 40
0
 40
0
 40
0.3333333333333333
 40
0.6666666666666666
 40
1
 40
1
 40
1
 40
1
 10
5003.82831
 20
-688.015969
 30
0
 10
5003.906182
 20
-687.529733
 30
0
 10
5004.056498
 20
-686.59115
 30
0
 10
5005.146233
 20
-685.578202
 30
0
 10
5006.034638
 20
-685.439001
 30
0
 10
5006.474144
 20
-685.370136
 30
0
  0
LWPOLYLINE
  5
160
100
AcDbEntity
  8
0
  6
ByLayer
 62
    7
370
   -1
100
AcDbPolyline
 90
    2
 70
    0
 43
0
 10
5003.82831
 20
-608.640969
 10
5003.82831
 20
-688.015969
  0
LWPOLYLINE
  5
161
100
AcDbEntity
  8
0
  6
ByLayer
 62
    7
370
   -1
100
AcDbPolyline
 90
    2
 70
    0
 43
0
 10
5157.286644
 20
-605.995136
 10
5006.474144
 20
-605.995136
  0
SPLINE
  5
162
100
AcDbEntity
  8
0
  6
ByLayer
 62
    7
370
   -1
100
AcDbSpline
210
0
220
0
230
0
 70
    8
 71
    3
 72
   10
 73
    6
 74
    0
 42
1e-07
 43
1e-07
 40
0
 40
0
 40
0
 40
0
 40
0.3333333333333333
 40
0.6666666666666666
 40
1
 40
1
 40
1
 40
1
 10
5006.474144
 20
-605.995136
 30
0
 10
5006.034638
 20
-606.064001
 30
0
 10
5005.146233
 20
-606.203202
 30
0
 10
5004.056498
 20
-607.21615
 30
0
 10
5003.906182
 20
-608.154733
 30
0
 10
5003.82831
 20
-608.640969
 30
0
  0
LWPOLYLINE
  5
163
100
AcDbEntity
  8
0
  6
ByLayer
 62
    7
370
   -1
100
AcDbPolyline
 90
    2
 70
    0
 43
0
 10
5160.19706
 20
-688.015969
 10
5160.19706
 20
-608.640969
  0
SPLINE
  5
164
100
AcDbEntity
  8
0
  6
ByLayer
 62
    7
370
   -1
100
AcDbSpline
210
0
220
0
230
0
 70
    8
 71
    3
 72
   10
 73
    6
 74
    0
 42
1e-07
 43
1e-07
 40
0
 40
0
 40
0
 40
0
 40
0.3333333333333333
 40
0.6666666666666666
 40
1
 40
1
 40
1
 40
1
 10
5160.19706
 20
-608.640969
 30
0
 10
5160.118004
 20
-608.151622
 30
0
 10
5159.962768
 20
-607.190723
 30
0
 10
5158.756859
 20
-606.174304
 30
0
 10
5157.788095
 20
-606.056246
 30
0
 10
5157.286644
 20
-605.995136
 30
0
  0
LWPOLYLINE
  5
165
100
AcDbEntity
  8
0
  6
ByLayer
 62
    7
370
   -1
100
AcDbPolyline
 90
    2
 70
    0
 43
0
 10
5323.974144
 20
-685.370136
 10
5157.286644
 20
-685.370136
  0
SPLINE
  5
166
100
AcDbEntity
  8
0
  6
ByLayer
 62
    7
370
   -1
100
AcDbSpline
210
0
220
0
230
0
 70
    8
 71
    3
 72
   10
 73
    6
 74
    0
 42
1e-07
 43
1e-07
 40
0
 40
0
 40
0
 40
0
 40
0.3333333333333333
 40
0.6666666666666666
 40
1
 40
1
 40
1
 40
1
 10
5157.286644
 20
-685.370136
 30
0
 10
5157.788095
 20
-685.431246
 30
0
 10
5158.756859
 20
-685.549304
 30
0
 10
5159.962768
 20
-686.565723
 30
0
 10
5160.118004
 20
-687.526622
 30
0
 10
5160.19706
 20
-688.015969
 30
0
  0
SPLINE
  5
167
100
AcDbEntity
  8
0
  6
ByLayer
 62
    7
370
   -1
100
AcDbSpline
210
0
220
0
230
0
 70
    8
 71
    3
 72
   10
 73
    6
 74
    0
 42
1e-07
 43
1e-07
 40
0
 40
0
 40
0
 40
0
 40
0.3333333333333333
 40
0.6666666666666666
 40
1
 40
1
 40
1
 40
1
 10
5321.32831
 20
-688.015969
 30
0
 10
5321.406182
 20
-687.529733
 30
0
 10
5321.556498
 20
-686.59115
 30
0
 10
5322.646233
 20
-685.578202
 30
0
 10
5323.534638
 20
-685.439001
 30
0
 10
5323.974144
 20
-685.370136
 30
0
  0
LWPOLYLINE
  5
168
100
AcDbEntity
  8
0
  6
ByLayer
 62
    7
370
   -1
100
AcDbPolyline
 90
    2
 70
    0
 43
0
 10
5321.32831
 20
-608.640969
 10
5321.32831
 20
-688.015969
  0
LWPOLYLINE
  5
169
100
AcDbEntity
  8
0
  6
ByLayer
 62
    7
370
   -1
100
AcDbPolyline
 90
    2
 70
    0
 43
0
 10
5474.786644
 20
-605.995136
 10
5323.974144
 20
-605.995136
  0
SPLINE
  5
16A
100
AcDbEntity
  8
0
  6
ByLayer
 62
    7
370
   -1
100
AcDbSpline
210
0
220
0
230
0
 70
    8
 71
    3
 72
   10
 73
    6
 74
    0
 42
1e-07
 43
1e-07
 40
0
 40
0
 40
0
 40
0
 40
0.3333333333333333
 40
0.6666666666666666
 40
1
 40
1
 40
1
 40
1
 10
5323.974144
 20
-605.995136
 30
0
 10
5323.534638
 20
-606.064001
 30
0
 10
5322.646233
 20
-606.203202
 30
0
 10
5321.556498
 20
-607.21615
 30
0
 10
5321.406182
 20
-608.154733
 30
0
 10
5321.32831
 20
-608.640969
 30
0
  0
LWPOLYLINE
  5
16B
100
AcDbEntity
  8
0
  6
ByLayer
 62
    7
370
   -1
100
AcDbPolyline
 90
    2
 70
    0
 43
0
 10
5477.69706
 20
-688.015969
 10
5477.69706
 20
-608.640969
  0
SPLINE
  5
16C
100
AcDbEntity
  8
0
  6
ByLayer
 62
    7
370
   -1
100
AcDbSpline
210
0
220
0
230
0
 70
    8
 71
    3
 72
   10
 73
    6
 74
    0
 42
1e-07
 43
1e-07
 40
0
 40
0
 40
0
 40
0
 40
0.3333333333333333
 40
0.6666666666666666
 40
1
 40
1
 40
1
 40
1
 10
5477.69706
 20
-608.640969
 30
0
 10
5477.618004
 20
-608.151622
 30
0
 10
5477.462768
 20
-607.190723
 30
0
 10
5476.256859
 20
-606.174304
 30
0
 10
5475.288095
 20
-606.056246
 30
0
 10
5474.786644
 20
-605.995136
 30
0
  0
LWPOLYLINE
  5
16D
100
AcDbEntity
  8
0
  6
ByLayer
 62
    7
370
   -1
100
AcDbPolyline
 90
    2
 70
    0
 43
0
 10
5641.474144
 20
-685.370136
 10
5474.786644
 20
-685.370136
  0
SPLINE
  5
16E
100
AcDbEntity
  8
0
  6
ByLayer
 62
    7
370
   -1
100
AcDbSpline
210
0
220
0
230
0
 70
    8
 71
    3
 72
   10
 73
    6
 74
    0
 42
1e-07
 43
1e-07
 40
0
 40
0
 40
0
 40
0
 40
0.3333333333333333
 40
0.6666666666666666
 40
1
 40
1
 40
1
 40
1
 10
5474.786644
 20
-685.370136
 30
0
 10
5475.288095
 20
-685.431246
 30
0
 10
5476.256859
 20
-685.549304
 30
0
 10
5477.462768
 20
-686.565723
 30
0
 10
5477.618004
 20
-687.526622
 30
0
 10
5477.69706
 20
-688.015969
 30
0
  0
SPLINE
  5
16F
100
AcDbEntity
  8
0
  6
ByLayer
 62
    7
370
   -1
100
AcDbSpline
210
0
220
0
230
0
 70
    8
 71
    3
 72
   10
 73
    6
 74
    0
 42
1e-07
 43
1e-07
 40
0
 40
0
 40
0
 40
0
 40
0.3333333333333333
 40
0.6666666666666666
 40
1
 40
1
 40
1
 40
1
 10
5638.82831
 20
-688.015969
 30
0
 10
5638.906182
 20
-687.529733
 30
0
 10
5639.056498
 20
-686.59115
 30
0
 10
5640.146233
 20
-685.578202
 30
0
 10
5641.034638
 20
-685.439001
 30
0
 10
5641.474144
 20
-685.370136
 30
0
  0
LWPOLYLINE
  5
170
100
AcDbEntity
  8
0
  6
ByLayer
 62
    7
370
   -1
100
AcDbPolyline
 90
    2
 70
    0
 43
0
 10
5638.82831
 20
-608.640969
 10
5638.82831
 20
-688.015969
  0
LWPOLYLINE
  5
171
100
AcDbEntity
  8
0
  6
ByLayer
 62
    7
370
   -1
100
AcDbPolyline
 90
    2
 70
    0
 43
0
 10
5792.286644
 20
-605.995136
 10
5641.474144
 20
-605.995136
  0
SPLINE
  5
172
100
AcDbEntity
  8
0
  6
ByLayer
 62
    7
370
   -1
100
AcDbSpline
210
0
220
0
230
0
 70
    8
 71
    3
 72
   10
 73
    6
 74
    0
 42
1e-07
 43
1e-07
 40
0
 40
0
 40
0
 40
0
 40
0.3333333333333333
 40
0.6666666666666666
 40
1
 40
1
 40
1
 40
1
 10
5641.474144
 20
-605.995136
 30
0
 10
5641.034638
 20
-606.064001
 30
0
 10
5640.146233
 20
-606.203202
 30
0
 10
5639.056498
 20
-607.21615
 30
0
 10
5638.906182
 20
-608.154733
 30
0
 10
5638.82831
 20
-608.640969
 30
0
  0
LWPOLYLINE
  5
173
100
AcDbEntity
  8
0
  6
ByLayer
 62
    7
370
   -1
100
AcDbPolyline
 90
    2
 70
    0
 43
0
 10
5795.19706
 20
-688.015969
 10
5795.19706
 20
-608.640969
  0
SPLINE
  5
174
100
AcDbEntity
  8
0
  6
ByLayer
 62
    7
370
   -1
100
AcDbSpline
210
0
220
0
230
0
 70
    8
 71
    3
 72
   10
 73
    6
 74
    0
 42
1e-07
 43
1e-07
 40
0
 40
0
 40
0
 40
0
 40
0.3333333333333333
 40
0.6666666666666666
 40
1
 40
1
 40
1
 40
1
 10
5795.19706
 20
-608.640969
 30
0
 10
5795.118004
 20
-608.151622
 30
0
 10
5794.962768
 20
-607.190723
 30
0
 10
5793.756859
 20
-606.174304
 30
0
 10
5792.788095
 20
-606.056246
 30
0
 10
5792.286644
 20
-605.995136
 30
0
  0
LWPOLYLINE
  5
175
100
AcDbEntity
  8
0
  6
ByLayer
 62
    7
370
   -1
100
AcDbPolyline
 90
    2
 70
    0
 43
0
 10
5958.974144
 20
-685.370136
 10
5792.286644
 20
-685.370136
  0
SPLINE
  5
176
100
AcDbEntity
  8
0
  6
ByLayer
 62
    7
370
   -1
100
AcDbSpline
210
0
220
0
230
0
 70
    8
 71
    3
 72
   10
 73
    6
 74
    0
 42
1e-07
 43
1e-07
 40
0
 40
0
 40
0
 40
0
 40
0.3333333333333333
 40
0.6666666666666666
 40
1
 40
1
 40
1
 40
1
 10
5792.286644
 20
-685.370136
 30
0
 10
5792.788095
 20
-685.431246
 30
0
 10
5793.756859
 20
-685.549304
 30
0
 10
5794.962768
 20
-686.565723
 30
0
 10
5795.118004
 20
-687.526622
 30
0
 10
5795.19706
 20
-688.015969
 30
0
  0
SPLINE
  5
177
100
AcDbEntity
  8
0
  6
ByLayer
 62
    7
370
   -1
100
AcDbSpline
210
0
220
0
230
0
 70
    8
 71
    3
 72
   10
 73
    6
 74
    0
 42
1e-07
 43
1e-07
 40
0
 40
0
 40
0
 40
0
 40
0.3333333333333333
 40
0.6666666666666666
 40
1
 40
1
 40
1
 40
1
 10
5956.32831
 20
-688.015969
 30
0
 10
5956.406182
 20
-687.529733
 30
0
 10
5956.556498
 20
-686.59115
 30
0
 10
5957.646233
 20
-685.578202
 30
0
 10
5958.534638
 20
-685.439001
 30
0
 10
5958.974144
 20
-685.370136
 30
0
  0
LWPOLYLINE
  5
178
100
AcDbEntity
  8
0
  6
ByLayer
 62
    7
370
   -1
100
AcDbPolyline
 90
    2
 70
    0
 43
0
 10
5956.32831
 20
-608.640969
 10
5956.32831
 20
-688.015969
  0
LWPOLYLINE
  5
179
100
AcDbEntity
  8
0
  6
ByLayer
 62
    7
370
   -1
100
AcDbPolyline
 90
    2
 70
    0
 43
0
 10
6109.786644
 20
-605.995136
 10
5958.974144
 20
-605.995136
  0
SPLINE
  5
17A
100
AcDbEntity
  8
0
  6
ByLayer
 62
    7
370
   -1
100
AcDbSpline
210
0
220
0
230
0
 70
    8
 71
    3
 72
   10
 73
    6
 74
    0
 42
1e-07
 43
1e-07
 40
0
 40
0
 40
0
 40
0
 40
0.3333333333333333
 40
0.6666666666666666
 40
1
 40
1
 40
1
 40
1
 10
5958.974144
 20
-605.995136
 30
0
 10
5958.534638
 20
-606.064001
 30
0
 10
5957.646233
 20
-606.203202
 30
0
 10
5956.556498
 20
-607.21615
 30
0
 10
5956.406182
 20
-608.154733
 30
0
 10
5956.32831
 20
-608.640969
 30
0
  0
LWPOLYLINE
  5
17B
100
AcDbEntity
  8
0
  6
ByLayer
 62
    7
370
   -1
100
AcDbPolyline
 90
    2
 70
    0
 43
0
 10
6112.69706
 20
-688.015969
 10
6112.69706
 20
-608.640969
  0
SPLINE
  5
17C
100
AcDbEntity
  8
0
  6
ByLayer
 62
    7
370
   -1
100
AcDbSpline
210
0
220
0
230
0
 70
    8
 71
    3
 72
   10
 73
    6
 74
    0
 42
1e-07
 43
1e-07
 40
0
 40
0
 40
0
 40
0
 40
0.3333333333333333
 40
0.6666666666666666
 40
1
 40
1
 40
1
 40
1
 10
6112.69706
 20
-608.640969
 30
0
 10
6112.618004
 20
-608.151622
 30
0
 10
6112.462768
 20
-607.190723
 30
0
 10
6111.256859
 20
-606.174304
 30
0
 10
6110.288095
 20
-606.056246
 30
0
 10
6109.786644
 20
-605.995136
 30
0
  0
LWPOLYLINE
  5
17D
100
AcDbEntity
  8
0
  6
ByLayer
 62
    7
370
   -1
100
AcDbPolyline
 90
    2
 70
    0
 43
0
 10
6276.738727
 20
-685.370136
 10
6109.786644
 20
-685.370136
  0
SPLINE
  5
17E
100
AcDbEntity
  8
0
  6
ByLayer
 62
    7
370
   -1
100
AcDbSpline
210
0
220
0
230
0
 70
    8
 71
    3
 72
   10
 73
    6
 74
    0
 42
1e-07
 43
1e-07
 40
0
 40
0
 40
0
 40
0
 40
0.3333333333333333
 40
0.6666666666666666
 40
1
 40
1
 40
1
 40
1
 10
6109.786644
 20
-685.370136
 30
0
 10
6110.288095
 20
-685.431246
 30
0
 10
6111.256859
 20
-685.549304
 30
0
 10
6112.462768
 20
-686.565723
 30
0
 10
6112.618004
 20
-687.526622
 30
0
 10
6112.69706
 20
-688.015969
 30
0
  0
SPLINE
  5
17F
100
AcDbEntity
  8
0
  6
ByLayer
 62
    7
370
   -1
100
AcDbSpline
210
0
220
0
230
0
 70
    8
 71
    3
 72
   10
 73
    6
 74
    0
 42
1e-07
 43
1e-07
 40
0
 40
0
 40
0
 40
0
 40
0.3333333333333333
 40
0.6666666666666666
 40
1
 40
1
 40
1
 40
1
 10
6273.82831
 20
-688.015969
 30
0
 10
6273.907366
 20
-687.526622
 30
0
 10
6274.062603
 20
-686.565723
 30
0
 10
6275.268512
 20
-685.549304
 30
0
 10
6276.237276
 20
-685.431246
 30
0
 10
6276.738727
 20
-685.370136
 30
0
  0
LWPOLYLINE
  5
180
100
AcDbEntity
  8
0
  6
ByLayer
 62
    7
370
   -1
100
AcDbPolyline
 90
    2
 70
    0
 43
0
 10
6273.82831
 20
-608.640969
 10
6273.82831
 20
-688.015969
  0
LWPOLYLINE
  5
181
100
AcDbEntity
  8
0
  6
ByLayer
 62
    7
370
   -1
100
AcDbPolyline
 90
    2
 70
    0
 43
0
 10
6536.030394
 20
-605.995136
 10
6276.738727
 20
-605.995136
  0
LWPOLYLINE
  5
182
100
AcDbEntity
  8
0
  6
ByLayer
 62
    7
370
   -1
100
AcDbPolyline
 90
    2
 70
    0
 43
0
 10
7063.874144
 20
-605.995136
 10
6536.030394
 20
-605.995136
  0
LWPOLYLINE
  5
183
100
AcDbEntity
  8
0
  6
ByLayer
 62
    7
370
   -1
100
AcDbPolyline
 90
    2
 70
    0
 43
0
 10
6581.538727
 20
-1367.995136
 10
6581.538727
 20
-685.370136
  0
LWPOLYLINE
  5
184
100
AcDbEntity
  8
0
  6
ByLayer
 62
    7
370
   -1
100
AcDbPolyline
 90
    2
 70
    0
 43
0
 10
6581.538727
 20
-1828.634719
 10
6581.538727
 20
-1447.370136
  0
LWPOLYLINE
  5
185
100
AcDbEntity
  8
0
  6
ByLayer
 62
    7
370
   -1
100
AcDbPolyline
 90
    2
 70
    0
 43
0
 10
6621.226227
 20
-1066.370136
 10
6621.226227
 20
-1749.259719
  0
LWPOLYLINE
  5
186
100
AcDbEntity
  8
0
  6
ByLayer
 62
    7
370
   -1
100
AcDbPolyline
 90
    2
 70
    0
 43
0
 10
6621.226227
 20
-605.995136
 10
6621.226227
 20
-986.995136
  0
LWPOLYLINE
  5
187
100
AcDbEntity
  8
0
  6
ByLayer
 62
    7
370
   -1
100
AcDbPolyline
 90
    2
 70
    0
 43
0
 10
6660.913727
 20
-1367.995136
 10
6660.913727
 20
-685.370136
  0
LWPOLYLINE
  5
188
100
AcDbEntity
  8
0
  6
ByLayer
 62
    7
370
   -1
100
AcDbPolyline
 90
    2
 70
    0
 43
0
 10
6660.913727
 20
-1828.634719
 10
6660.913727
 20
-1447.370136
  0
LWPOLYLINE
  5
189
100
AcDbEntity
  8
0
  6
ByLayer
 62
    7
370
   -1
100
AcDbPolyline
 90
    2
 70
    0
 43
0
 10
6700.601227
 20
-1066.370136
 10
6700.601227
 20
-1749.259719
  0
LWPOLYLINE
  5
18A
100
AcDbEntity
  8
0
  6
ByLayer
 62
    7
370
   -1
100
AcDbPolyline
 90
    2
 70
    0
 43
0
 10
6700.601227
 20
-605.995136
 10
6700.601227
 20
-986.995136
  0
LWPOLYLINE
  5
18B
100
AcDbEntity
  8
0
  6
ByLayer
 62
    7
370
   -1
100
AcDbPolyline
 90
    2
 70
    0
 43
0
 10
6740.288727
 20
-1367.995136
 10
6740.288727
 20
-685.370136
  0
LWPOLYLINE
  5
18C
100
AcDbEntity
  8
0
  6
ByLayer
 62
    7
370
   -1
100
AcDbPolyline
 90
    2
 70
    0
 43
0
 10
6740.288727
 20
-1828.634719
 10
6740.288727
 20
-1447.370136
  0
LWPOLYLINE
  5
18D
100
AcDbEntity
  8
0
  6
ByLayer
 62
    7
370
   -1
100
AcDbPolyline
 90
    2
 70
    0
 43
0
 10
6779.976227
 20
-1066.370136
 10
6779.976227
 20
-1749.259719
  0
LWPOLYLINE
  5
18E
100
AcDbEntity
  8
0
  6
ByLayer
 62
    7
370
   -1
100
AcDbPolyline
 90
    2
 70
    0
 43
0
 10
6779.976227
 20
-605.995136
 10
6779.976227
 20
-986.995136
  0
LWPOLYLINE
  5
18F
100
AcDbEntity
  8
0
  6
ByLayer
 62
    7
370
   -1
100
AcDbPolyline
 90
    2
 70
    0
 43
0
 10
6819.663727
 20
-1367.995136
 10
6819.663727
 20
-685.370136
  0
LWPOLYLINE
  5
190
100
AcDbEntity
  8
0
  6
ByLayer
 62
    7
370
   -1
100
AcDbPolyline
 90
    2
 70
    0
 43
0
 10
6819.663727
 20
-1828.634719
 10
6819.663727
 20
-1447.370136
  0
LWPOLYLINE
  5
191
100
AcDbEntity
  8
0
  6
ByLayer
 62
    7
370
   -1
100
AcDbPolyline
 90
    2
 70
    0
 43
0
 10
6859.351227
 20
-1066.370136
 10
6859.351227
 20
-1749.259719
  0
LWPOLYLINE
  5
192
100
AcDbEntity
  8
0
  6
ByLayer
 62
    7
370
   -1
100
AcDbPolyline
 90
    2
 70
    0
 43
0
 10
6859.351227
 20
-605.995136
 10
6859.351227
 20
-986.995136
  0
LWPOLYLINE
  5
193
100
AcDbEntity
  8
0
  6
ByLayer
 62
    7
370
   -1
100
AcDbPolyline
 90
    2
 70
    0
 43
0
 10
6899.038727
 20
-1367.995136
 10
6899.038727
 20
-685.370136
  0
LWPOLYLINE
  5
194
100
AcDbEntity
  8
0
  6
ByLayer
 62
    7
370
   -1
100
AcDbPolyline
 90
    2
 70
    0
 43
0
 10
6899.038727
 20
-1828.634719
 10
6899.038727
 20
-1447.370136
  0
LWPOLYLINE
  5
195
100
AcDbEntity
  8
0
  6
ByLayer
 62
    7
370
   -1
100
AcDbPolyline
 90
    2
 70
    0
 43
0
 10
6938.726227
 20
-1066.370136
 10
6938.726227
 20
-1749.259719
  0
LWPOLYLINE
  5
196
100
AcDbEntity
  8
0
  6
ByLayer
 62
    7
370
   -1
100
AcDbPolyline
 90
    2
 70
    0
 43
0
 10
6938.726227
 20
-605.995136
 10
6938.726227
 20
-986.995136
  0
LWPOLYLINE
  5
197
100
AcDbEntity
  8
0
  6
ByLayer
 62
    7
370
   -1
100
AcDbPolyline
 90
    2
 70
    0
 43
0
 10
6978.413727
 20
-1367.995136
 10
6978.413727
 20
-685.370136
  0
LWPOLYLINE
  5
198
100
AcDbEntity
  8
0
  6
ByLayer
 62
    7
370
   -1
100
AcDbPolyline
 90
    2
 70
    0
 43
0
 10
6978.413727
 20
-1828.634719
 10
6978.413727
 20
-1447.370136
  0
LWPOLYLINE
  5
199
100
AcDbEntity
  8
0
  6
ByLayer
 62
    7
370
   -1
100
AcDbPolyline
 90
    2
 70
    0
 43
0
 10
7018.101227
 20
-1066.370136
 10
7018.101227
 20
-1749.259719
  0
LWPOLYLINE
  5
19A
100
AcDbEntity
  8
0
  6
ByLayer
 62
    7
370
   -1
100
AcDbPolyline
 90
    2
 70
    0
 43
0
 10
7018.101227
 20
-605.995136
 10
7018.101227
 20
-986.995136
  0
LWPOLYLINE
  5
19B
100
AcDbEntity
  8
0
  6
ByLayer
 62
    7
370
   -1
100
AcDbPolyline
 90
    2
 70
    0
 43
0
 10
7310.46581
 20
-605.995136
 10
7063.874144
 20
-605.995136
  0
SPLINE
  5
19C
100
AcDbEntity
  8
0
  6
ByLayer
 62
    7
370
   -1
100
AcDbSpline
210
0
220
0
230
0
 70
    8
 71
    3
 72
   10
 73
    6
 74
    0
 42
1e-07
 43
1e-07
 40
0
 40
0
 40
0
 40
0
 40
0.3333333333333333
 40
0.6666666666666666
 40
1
 40
1
 40
1
 40
1
 10
6276.738727
 20
-605.995136
 30
0
 10
6276.237276
 20
-606.056246
 30
0
 10
6275.268512
 20
-606.174304
 30
0
 10
6274.062603
 20
-607.190723
 30
0
 10
6273.907366
 20
-608.151622
 30
0
 10
6273.82831
 20
-608.640969
 30
0
  0
LWPOLYLINE
  5
19D
100
AcDbEntity
  8
0
  6
ByLayer
 62
    7
370
   -1
100
AcDbPolyline
 90
    2
 70
    0
 43
0
 10
7313.376227
 20
-688.015969
 10
7313.376227
 20
-608.640969
  0
SPLINE
  5
19E
100
AcDbEntity
  8
0
  6
ByLayer
 62
    7
370
   -1
100
AcDbSpline
210
0
220
0
230
0
 70
    8
 71
    3
 72
   10
 73
    6
 74
    0
 42
1e-07
 43
1e-07
 40
0
 40
0
 40
0
 40
0
 40
0.3333333333333333
 40
0.6666666666666666
 40
1
 40
1
 40
1
 40
1
 10
7313.376227
 20
-608.640969
 30
0
 10
7313.297171
 20
-608.151622
 30
0
 10
7313.141934
 20
-607.190723
 30
0
 10
7311.936026
 20
-606.174304
 30
0
 10
7310.967262
 20
-606.056246
 30
0
 10
7310.46581
 20
-605.995136
 30
0
  0
LWPOLYLINE
  5
19F
100
AcDbEntity
  8
0
  6
ByLayer
 62
    7
370
   -1
100
AcDbPolyline
 90
    2
 70
    0
 43
0
 10
7477.417894
 20
-685.370136
 10
7310.46581
 20
-685.370136
  0
SPLINE
  5
1A0
100
AcDbEntity
  8
0
  6
ByLayer
 62
    7
370
   -1
100
AcDbSpline
210
0
220
0
230
0
 70
    8
 71
    3
 72
   10
 73
    6
 74
    0
 42
1e-07
 43
1e-07
 40
0
 40
0
 40
0
 40
0
 40
0.3333333333333333
 40
0.6666666666666666
 40
1
 40
1
 40
1
 40
1
 10
7310.46581
 20
-685.370136
 30
0
 10
7310.967262
 20
-685.431246
 30
0
 10
7311.936026
 20
-685.549304
 30
0
 10
7313.141934
 20
-686.565723
 30
0
 10
7313.297171
 20
-687.526622
 30
0
 10
7313.376227
 20
-688.015969
 30
0
  0
SPLINE
  5
1A1
100
AcDbEntity
  8
0
  6
ByLayer
 62
    7
370
   -1
100
AcDbSpline
210
0
220
0
230
0
 70
    8
 71
    3
 72
   10
 73
    6
 74
    0
 42
1e-07
 43
1e-07
 40
0
 40
0
 40
0
 40
0
 40
0.3333333333333333
 40
0.6666666666666666
 40
1
 40
1
 40
1
 40
1
 10
7474.507477
 20
-688.015969
 30
0
 10
7474.586533
 20
-687.526622
 30
0
 10
7474.74177
 20
-686.565723
 30
0
 10
7475.947679
 20
-685.549304
 30
0
 10
7476.916443
 20
-685.431246
 30
0
 10
7477.417894
 20
-685.370136
 30
0
  0
LWPOLYLINE
  5
1A2
100
AcDbEntity
  8
0
  6
ByLayer
 62
    7
370
   -1
100
AcDbPolyline
 90
    2
 70
    0
 43
0
 10
7474.507477
 20
-608.640969
 10
7474.507477
 20
-688.015969
  0
LWPOLYLINE
  5
1A3
100
AcDbEntity
  8
0
  6
ByLayer
 62
    7
370
   -1
100
AcDbPolyline
 90
    2
 70
    0
 43
0
 10
7627.96581
 20
-605.995136
 10
7477.417894
 20
-605.995136
  0
SPLINE
  5
1A4
100
AcDbEntity
  8
0
  6
ByLayer
 62
    7
370
   -1
100
AcDbSpline
210
0
220
0
230
0
 70
    8
 71
    3
 72
   10
 73
    6
 74
    0
 42
1e-07
 43
1e-07
 40
0
 40
0
 40
0
 40
0
 40
0.3333333333333333
 40
0.6666666666666666
 40
1
 40
1
 40
1
 40
1
 10
7477.417894
 20
-605.995136
 30
0
 10
7476.916443
 20
-606.056246
 30
0
 10
7475.947679
 20
-606.174304
 30
0
 10
7474.74177
 20
-607.190723
 30
0
 10
7474.586533
 20
-608.151622
 30
0
 10
7474.507477
 20
-608.640969
 30
0
  0
LWPOLYLINE
  5
1A5
100
AcDbEntity
  8
0
  6
ByLayer
 62
    7
370
   -1
100
AcDbPolyline
 90
    2
 70
    0
 43
0
 10
7630.876227
 20
-688.015969
 10
7630.876227
 20
-608.640969
  0
SPLINE
  5
1A6
100
AcDbEntity
  8
0
  6
ByLayer
 62
    7
370
   -1
100
AcDbSpline
210
0
220
0
230
0
 70
    8
 71
    3
 72
   10
 73
    6
 74
    0
 42
1e-07
 43
1e-07
 40
0
 40
0
 40
0
 40
0
 40
0.3333333333333333
 40
0.6666666666666666
 40
1
 40
1
 40
1
 40
1
 10
7630.876227
 20
-608.640969
 30
0
 10
7630.797171
 20
-608.151622
 30
0
 10
7630.641934
 20
-607.190723
 30
0
 10
7629.436026
 20
-606.174304
 30
0
 10
7628.467262
 20
-606.056246
 30
0
 10
7627.96581
 20
-605.995136
 30
0
  0
LWPOLYLINE
  5
1A7
100
AcDbEntity
  8
0
  6
ByLayer
 62
    7
370
   -1
100
AcDbPolyline
 90
    2
 70
    0
 43
0
 10
7794.917894
 20
-685.370136
 10
7627.96581
 20
-685.370136
  0
SPLINE
  5
1A8
100
AcDbEntity
  8
0
  6
ByLayer
 62
    7
370
   -1
100
AcDbSpline
210
0
220
0
230
0
 70
    8
 71
    3
 72
   10
 73
    6
 74
    0
 42
1e-07
 43
1e-07
 40
0
 40
0
 40
0
 40
0
 40
0.3333333333333333
 40
0.6666666666666666
 40
1
 40
1
 40
1
 40
1
 10
7627.96581
 20
-685.370136
 30
0
 10
7628.467262
 20
-685.431246
 30
0
 10
7629.436026
 20
-685.549304
 30
0
 10
7630.641934
 20
-686.565723
 30
0
 10
7630.797171
 20
-687.526622
 30
0
 10
7630.876227
 20
-688.015969
 30
0
  0
SPLINE
  5
1A9
100
AcDbEntity
  8
0
  6
ByLayer
 62
    7
370
   -1
100
AcDbSpline
210
0
220
0
230
0
 70
    8
 71
    3
 72
   10
 73
    6
 74
    0
 42
1e-07
 43
1e-07
 40
0
 40
0
 40
0
 40
0
 40
0.3333333333333333
 40
0.6666666666666666
 40
1
 40
1
 40
1
 40
1
 10
7792.007477
 20
-688.015969
 30
0
 10
7792.086533
 20
-687.526622
 30
0
 10
7792.24177
 20
-686.565723
 30
0
 10
7793.447679
 20
-685.549304
 30
0
 10
7794.416443
 20
-685.431246
 30
0
 10
7794.917894
 20
-685.370136
 30
0
  0
LWPOLYLINE
  5
1AA
100
AcDbEntity
  8
0
  6
ByLayer
 62
    7
370
   -1
100
AcDbPolyline
 90
    2
 70
    0
 43
0
 10
7792.007477
 20
-608.640969
 10
7792.007477
 20
-688.015969
  0
LWPOLYLINE
  5
1AB
100
AcDbEntity
  8
0
  6
ByLayer
 62
    7
370
   -1
100
AcDbPolyline
 90
    2
 70
    0
 43
0
 10
7945.46581
 20
-605.995136
 10
7794.917894
 20
-605.995136
  0
SPLINE
  5
1AC
100
AcDbEntity
  8
0
  6
ByLayer
 62
    7
370
   -1
100
AcDbSpline
210
0
220
0
230
0
 70
    8
 71
    3
 72
   10
 73
    6
 74
    0
 42
1e-07
 43
1e-07
 40
0
 40
0
 40
0
 40
0
 40
0.3333333333333333
 40
0.6666666666666666
 40
1
 40
1
 40
1
 40
1
 10
7794.917894
 20
-605.995136
 30
0
 10
7794.416443
 20
-606.056246
 30
0
 10
7793.447679
 20
-606.174304
 30
0
 10
7792.24177
 20
-607.190723
 30
0
 10
7792.086533
 20
-608.151622
 30
0
 10
7792.007477
 20
-608.640969
 30
0
  0
LWPOLYLINE
  5
1AD
100
AcDbEntity
  8
0
  6
ByLayer
 62
    7
370
   -1
100
AcDbPolyline
 90
    2
 70
    0
 43
0
 10
7948.376227
 20
-688.015969
 10
7948.376227
 20
-608.640969
  0
SPLINE
  5
1AE
100
AcDbEntity
  8
0
  6
ByLayer
 62
    7
370
   -1
100
AcDbSpline
210
0
220
0
230
0
 70
    8
 71
    3
 72
   10
 73
    6
 74
    0
 42
1e-07
 43
1e-07
 40
0
 40
0
 40
0
 40
0
 40
0.3333333333333333
 40
0.6666666666666666
 40
1
 40
1
 40
1
 40
1
 10
7948.376227
 20
-608.640969
 30
0
 10
7948.297171
 20
-608.151622
 30
0
 10
7948.141934
 20
-607.190723
 30
0
 10
7946.936026
 20
-606.174304
 30
0
 10
7945.967262
 20
-606.056246
 30
0
 10
7945.46581
 20
-605.995136
 30
0
  0
LWPOLYLINE
  5
1AF
100
AcDbEntity
  8
0
  6
ByLayer
 62
    7
370
   -1
100
AcDbPolyline
 90
    2
 70
    0
 43
0
 10
8112.417894
 20
-685.370136
 10
7945.46581
 20
-685.370136
  0
SPLINE
  5
1B0
100
AcDbEntity
  8
0
  6
ByLayer
 62
    7
370
   -1
100
AcDbSpline
210
0
220
0
230
0
 70
    8
 71
    3
 72
   10
 73
    6
 74
    0
 42
1e-07
 43
1e-07
 40
0
 40
0
 40
0
 40
0
 40
0.3333333333333333
 40
0.6666666666666666
 40
1
 40
1
 40
1
 40
1
 10
7945.46581
 20
-685.370136
 30
0
 10
7945.967262
 20
-685.431246
 30
0
 10
7946.936026
 20
-685.549304
 30
0
 10
7948.141934
 20
-686.565723
 30
0
 10
7948.297171
 20
-687.526622
 30
0
 10
7948.376227
 20
-688.015969
 30
0
  0
SPLINE
  5
1B1
100
AcDbEntity
  8
0
  6
ByLayer
 62
    7
370
   -1
100
AcDbSpline
210
0
220
0
230
0
 70
    8
 71
    3
 72
   10
 73
    6
 74
    0
 42
1e-07
 43
1e-07
 40
0
 40
0
 40
0
 40
0
 40
0.3333333333333333
 40
0.6666666666666666
 40
1
 40
1
 40
1
 40
1
 10
8109.507477
 20
-688.015969
 30
0
 10
8109.586533
 20
-687.526622
 30
0
 10
8109.74177
 20
-686.565723
 30
0
 10
8110.947679
 20
-685.549304
 30
0
 10
8111.916443
 20
-685.431246
 30
0
 10
8112.417894
 20
-685.370136
 30
0
  0
LWPOLYLINE
  5
1B2
100
AcDbEntity
  8
0
  6
ByLayer
 62
    7
370
   -1
100
AcDbPolyline
 90
    2
 70
    0
 43
0
 10
8109.507477
 20
-608.640969
 10
8109.507477
 20
-688.015969
  0
LWPOLYLINE
  5
1B3
100
AcDbEntity
  8
0
  6
ByLayer
 62
    7
370
   -1
100
AcDbPolyline
 90
    2
 70
    0
 43
0
 10
8262.96581
 20
-605.995136
 10
8112.417894
 20
-605.995136
  0
SPLINE
  5
1B4
100
AcDbEntity
  8
0
  6
ByLayer
 62
    7
370
   -1
100
AcDbSpline
210
0
220
0
230
0
 70
    8
 71
    3
 72
   10
 73
    6
 74
    0
 42
1e-07
 43
1e-07
 40
0
 40
0
 40
0
 40
0
 40
0.3333333333333333
 40
0.6666666666666666
 40
1
 40
1
 40
1
 40
1
 10
8112.417894
 20
-605.995136
 30
0
 10
8111.916443
 20
-606.056246
 30
0
 10
8110.947679
 20
-606.174304
 30
0
 10
8109.74177
 20
-607.190723
 30
0
 10
8109.586533
 20
-608.151622
 30
0
 10
8109.507477
 20
-608.640969
 30
0
  0
LWPOLYLINE
  5
1B5
100
AcDbEntity
  8
0
  6
ByLayer
 62
    7
370
   -1
100
AcDbPolyline
 90
    2
 70
    0
 43
0
 10
8265.876227000001
 20
-688.015969
 10
8265.876227000001
 20
-608.640969
  0
SPLINE
  5
1B6
100
AcDbEntity
  8
0
  6
ByLayer
 62
    7
370
   -1
100
AcDbSpline
210
0
220
0
230
0
 70
    8
 71
    3
 72
   10
 73
    6
 74
    0
 42
1e-07
 43
1e-07
 40
0
 40
0
 40
0
 40
0
 40
0.3333333333333333
 40
0.6666666666666666
 40
1
 40
1
 40
1
 40
1
 10
8265.876227000001
 20
-608.640969
 30
0
 10
8265.797171
 20
-608.151622
 30
0
 10
8265.641933999999
 20
-607.190723
 30
0
 10
8264.436025999999
 20
-606.174304
 30
0
 10
8263.467262
 20
-606.056246
 30
0
 10
8262.96581
 20
-605.995136
 30
0
  0
LWPOLYLINE
  5
1B7
100
AcDbEntity
  8
0
  6
ByLayer
 62
    7
370
   -1
100
AcDbPolyline
 90
    2
 70
    0
 43
0
 10
8429.917894
 20
-685.370136
 10
8262.96581
 20
-685.370136
  0
SPLINE
  5
1B8
100
AcDbEntity
  8
0
  6
ByLayer
 62
    7
370
   -1
100
AcDbSpline
210
0
220
0
230
0
 70
    8
 71
    3
 72
   10
 73
    6
 74
    0
 42
1e-07
 43
1e-07
 40
0
 40
0
 40
0
 40
0
 40
0.3333333333333333
 40
0.6666666666666666
 40
1
 40
1
 40
1
 40
1
 10
8262.96581
 20
-685.370136
 30
0
 10
8263.467262
 20
-685.431246
 30
0
 10
8264.436025999999
 20
-685.549304
 30
0
 10
8265.641933999999
 20
-686.565723
 30
0
 10
8265.797171
 20
-687.526622
 30
0
 10
8265.876227000001
 20
-688.015969
 30
0
  0
SPLINE
  5
1B9
100
AcDbEntity
  8
0
  6
ByLayer
 62
    7
370
   -1
100
AcDbSpline
210
0
220
0
230
0
 70
    8
 71
    3
 72
   10
 73
    6
 74
    0
 42
1e-07
 43
1e-07
 40
0
 40
0
 40
0
 40
0
 40
0.3333333333333333
 40
0.6666666666666666
 40
1
 40
1
 40
1
 40
1
 10
8427.007476999999
 20
-688.015969
 30
0
 10
8427.086533
 20
-687.526622
 30
0
 10
8427.241770000001
 20
-686.565723
 30
0
 10
8428.447679000001
 20
-685.549304
 30
0
 10
8429.416443
 20
-685.431246
 30
0
 10
8429.917894
 20
-685.370136
 30
0
  0
LWPOLYLINE
  5
1BA
100
AcDbEntity
  8
0
  6
ByLayer
 62
    7
370
   -1
100
AcDbPolyline
 90
    2
 70
    0
 43
0
 10
8427.007476999999
 20
-608.640969
 10
8427.007476999999
 20
-688.015969
  0
LWPOLYLINE
  5
1BB
100
AcDbEntity
  8
0
  6
ByLayer
 62
    7
370
   -1
100
AcDbPolyline
 90
    2
 70
    0
 43
0
 10
8676.50956
 20
-605.995136
 10
8429.917894
 20
-605.995136
  0
LWPOLYLINE
  5
1BC
100
AcDbEntity
  8
0
  6
ByLayer
 62
    7
370
   -1
100
AcDbPolyline
 90
    2
 70
    0
 43
0
 10
9204.35331
 20
-605.995136
 10
8676.50956
 20
-605.995136
  0
LWPOLYLINE
  5
1BD
100
AcDbEntity
  8
0
  6
ByLayer
 62
    7
370
   -1
100
AcDbPolyline
 90
    2
 70
    0
 43
0
 10
8722.282477000001
 20
-1367.995136
 10
8722.282477000001
 20
-685.370136
  0
LWPOLYLINE
  5
1BE
100
AcDbEntity
  8
0
  6
ByLayer
 62
    7
370
   -1
100
AcDbPolyline
 90
    2
 70
    0
 43
0
 10
8722.282477000001
 20
-1828.634719
 10
8722.282477000001
 20
-1447.370136
  0
LWPOLYLINE
  5
1BF
100
AcDbEntity
  8
0
  6
ByLayer
 62
    7
370
   -1
100
AcDbPolyline
 90
    2
 70
    0
 43
0
 10
8761.969977000001
 20
-1066.370136
 10
8761.969977000001
 20
-1749.259719
  0
LWPOLYLINE
  5
1C0
100
AcDbEntity
  8
0
  6
ByLayer
 62
    7
370
   -1
100
AcDbPolyline
 90
    2
 70
    0
 43
0
 10
8761.969977000001
 20
-605.995136
 10
8761.969977000001
 20
-986.995136
  0
LWPOLYLINE
  5
1C1
100
AcDbEntity
  8
0
  6
ByLayer
 62
    7
370
   -1
100
AcDbPolyline
 90
    2
 70
    0
 43
0
 10
8801.657477000001
 20
-1367.995136
 10
8801.657477000001
 20
-685.370136
  0
LWPOLYLINE
  5
1C2
100
AcDbEntity
  8
0
  6
ByLayer
 62
    7
370
   -1
100
AcDbPolyline
 90
    2
 70
    0
 43
0
 10
8801.657477000001
 20
-1828.634719
 10
8801.657477000001
 20
-1447.370136
  0
LWPOLYLINE
  5
1C3
100
AcDbEntity
  8
0
  6
ByLayer
 62
    7
370
   -1
100
AcDbPolyline
 90
    2
 70
    0
 43
0
 10
8841.344977000001
 20
-1066.370136
 10
8841.344977000001
 20
-1749.259719
  0
LWPOLYLINE
  5
1C4
100
AcDbEntity
  8
0
  6
ByLayer
 62
    7
370
   -1
100
AcDbPolyline
 90
    2
 70
    0
 43
0
 10
8841.344977000001
 20
-605.995136
 10
8841.344977000001
 20
-986.995136
  0
LWPOLYLINE
  5
1C5
100
AcDbEntity
  8
0
  6
ByLayer
 62
    7
370
   -1
100
AcDbPolyline
 90
    2
 70
    0
 43
0
 10
8881.032477000001
 20
-1367.995136
 10
8881.032477000001
 20
-685.370136
  0
LWPOLYLINE
  5
1C6
100
AcDbEntity
  8
0
  6
ByLayer
 62
    7
370
   -1
100
AcDbPolyline
 90
    2
 70
    0
 43
0
 10
8881.032477000001
 20
-1828.634719
 10
8881.032477000001
 20
-1447.370136
  0
LWPOLYLINE
  5
1C7
100
AcDbEntity
  8
0
  6
ByLayer
 62
    7
370
   -1
100
AcDbPolyline
 90
    2
 70
    0
 43
0
 10
8920.719977000001
 20
-1066.370136
 10
8920.719977000001
 20
-1749.259719
  0
LWPOLYLINE
  5
1C8
100
AcDbEntity
  8
0
  6
ByLayer
 62
    7
370
   -1
100
AcDbPolyline
 90
    2
 70
    0
 43
0
 10
8920.719977000001
 20
-605.995136
 10
8920.719977000001
 20
-986.995136
  0
LWPOLYLINE
  5
1C9
100
AcDbEntity
  8
0
  6
ByLayer
 62
    7
370
   -1
100
AcDbPolyline
 90
    2
 70
    0
 43
0
 10
8960.407477000001
 20
-1367.995136
 10
8960.407477000001
 20
-685.370136
  0
LWPOLYLINE
  5
1CA
100
AcDbEntity
  8
0
  6
ByLayer
 62
    7
370
   -1
100
AcDbPolyline
 90
    2
 70
    0
 43
0
 10
8960.407477000001
 20
-1828.634719
 10
8960.407477000001
 20
-1447.370136
  0
LWPOLYLINE
  5
1CB
100
AcDbEntity
  8
0
  6
ByLayer
 62
    7
370
   -1
100
AcDbPolyline
 90
    2
 70
    0
 43
0
 10
9000.094977000001
 20
-1066.370136
 10
9000.094977000001
 20
-1749.259719
  0
LWPOLYLINE
  5
1CC
100
AcDbEntity
  8
0
  6
ByLayer
 62
    7
370
   -1
100
AcDbPolyline
 90
    2
 70
    0
 43
0
 10
9000.094977000001
 20
-605.995136
 10
9000.094977000001
 20
-986.995136
  0
LWPOLYLINE
  5
1CD
100
AcDbEntity
  8
0
  6
ByLayer
 62
    7
370
   -1
100
AcDbPolyline
 90
    2
 70
    0
 43
0
 10
9039.782477000001
 20
-1367.995136
 10
9039.782477000001
 20
-685.370136
  0
LWPOLYLINE
  5
1CE
100
AcDbEntity
  8
0
  6
ByLayer
 62
    7
370
   -1
100
AcDbPolyline
 90
    2
 70
    0
 43
0
 10
9039.782477000001
 20
-1828.634719
 10
9039.782477000001
 20
-1447.370136
  0
LWPOLYLINE
  5
1CF
100
AcDbEntity
  8
0
  6
ByLayer
 62
    7
370
   -1
100
AcDbPolyline
 90
    2
 70
    0
 43
0
 10
9079.469977000001
 20
-1066.370136
 10
9079.469977000001
 20
-1749.259719
  0
LWPOLYLINE
  5
1D0
100
AcDbEntity
  8
0
  6
ByLayer
 62
    7
370
   -1
100
AcDbPolyline
 90
    2
 70
    0
 43
0
 10
9079.469977000001
 20
-605.995136
 10
9079.469977000001
 20
-986.995136
  0
LWPOLYLINE
  5
1D1
100
AcDbEntity
  8
0
  6
ByLayer
 62
    7
370
   -1
100
AcDbPolyline
 90
    2
 70
    0
 43
0
 10
9119.157477000001
 20
-1367.995136
 10
9119.157477000001
 20
-685.370136
  0
LWPOLYLINE
  5
1D2
100
AcDbEntity
  8
0
  6
ByLayer
 62
    7
370
   -1
100
AcDbPolyline
 90
    2
 70
    0
 43
0
 10
9119.157477000001
 20
-1828.634719
 10
9119.157477000001
 20
-1447.370136
  0
LWPOLYLINE
  5
1D3
100
AcDbEntity
  8
0
  6
ByLayer
 62
    7
370
   -1
100
AcDbPolyline
 90
    2
 70
    0
 43
0
 10
9158.844977000001
 20
-1066.370136
 10
9158.844977000001
 20
-1749.259719
  0
LWPOLYLINE
  5
1D4
100
AcDbEntity
  8
0
  6
ByLayer
 62
    7
370
   -1
100
AcDbPolyline
 90
    2
 70
    0
 43
0
 10
9158.844977000001
 20
-605.995136
 10
9158.844977000001
 20
-986.995136
  0
LWPOLYLINE
  5
1D5
100
AcDbEntity
  8
0
  6
ByLayer
 62
    7
370
   -1
100
AcDbPolyline
 90
    2
 70
    0
 43
0
 10
9463.644977
 20
-605.995136
 10
9204.35331
 20
-605.995136
  0
SPLINE
  5
1D6
100
AcDbEntity
  8
0
  6
ByLayer
 62
    7
370
   -1
100
AcDbSpline
210
0
220
0
230
0
 70
    8
 71
    3
 72
   10
 73
    6
 74
    0
 42
1e-07
 43
1e-07
 40
0
 40
0
 40
0
 40
0
 40
0.3333333333333333
 40
0.6666666666666666
 40
1
 40
1
 40
1
 40
1
 10
8429.917894
 20
-605.995136
 30
0
 10
8429.416443
 20
-606.056246
 30
0
 10
8428.447679000001
 20
-606.174304
 30
0
 10
8427.241770000001
 20
-607.190723
 30
0
 10
8427.086533
 20
-608.151622
 30
0
 10
8427.007476999999
 20
-608.640969
 30
0
  0
LWPOLYLINE
  5
1D7
100
AcDbEntity
  8
0
  6
ByLayer
 62
    7
370
   -1
100
AcDbPolyline
 90
    2
 70
    0
 43
0
 10
9466.555394000001
 20
-688.015969
 10
9466.555394000001
 20
-608.640969
  0
SPLINE
  5
1D8
100
AcDbEntity
  8
0
  6
ByLayer
 62
    7
370
   -1
100
AcDbSpline
210
0
220
0
230
0
 70
    8
 71
    3
 72
   10
 73
    6
 74
    0
 42
1e-07
 43
1e-07
 40
0
 40
0
 40
0
 40
0
 40
0.3333333333333333
 40
0.6666666666666666
 40
1
 40
1
 40
1
 40
1
 10
9466.555394000001
 20
-608.640969
 30
0
 10
9466.476338
 20
-608.151622
 30
0
 10
9466.321101
 20
-607.190723
 30
0
 10
9465.115191999999
 20
-606.174304
 30
0
 10
9464.146428
 20
-606.056246
 30
0
 10
9463.644977
 20
-605.995136
 30
0
  0
LWPOLYLINE
  5
1D9
100
AcDbEntity
  8
0
  6
ByLayer
 62
    7
370
   -1
100
AcDbPolyline
 90
    2
 70
    0
 43
0
 10
9630.59706
 20
-685.370136
 10
9463.644977
 20
-685.370136
  0
SPLINE
  5
1DA
100
AcDbEntity
  8
0
  6
ByLayer
 62
    7
370
   -1
100
AcDbSpline
210
0
220
0
230
0
 70
    8
 71
    3
 72
   10
 73
    6
 74
    0
 42
1e-07
 43
1e-07
 40
0
 40
0
 40
0
 40
0
 40
0.3333333333333333
 40
0.6666666666666666
 40
1
 40
1
 40
1
 40
1
 10
9463.644977
 20
-685.370136
 30
0
 10
9464.146428
 20
-685.431246
 30
0
 10
9465.115191999999
 20
-685.549304
 30
0
 10
9466.321101
 20
-686.565723
 30
0
 10
9466.476338
 20
-687.526622
 30
0
 10
9466.555394000001
 20
-688.015969
 30
0
  0
SPLINE
  5
1DB
100
AcDbEntity
  8
0
  6
ByLayer
 62
    7
370
   -1
100
AcDbSpline
210
0
220
0
230
0
 70
    8
 71
    3
 72
   10
 73
    6
 74
    0
 42
1e-07
 43
1e-07
 40
0
 40
0
 40
0
 40
0
 40
0.3333333333333333
 40
0.6666666666666666
 40
1
 40
1
 40
1
 40
1
 10
9627.686643999999
 20
-688.015969
 30
0
 10
9627.7657
 20
-687.526622
 30
0
 10
9627.920937000001
 20
-686.565723
 30
0
 10
9629.126845000001
 20
-685.549304
 30
0
 10
9630.095609
 20
-685.431246
 30
0
 10
9630.59706
 20
-685.370136
 30
0
  0
LWPOLYLINE
  5
1DC
100
AcDbEntity
  8
0
  6
ByLayer
 62
    7
370
   -1
100
AcDbPolyline
 90
    2
 70
    0
 43
0
 10
9627.686643999999
 20
-608.640969
 10
9627.686643999999
 20
-688.015969
  0
LWPOLYLINE
  5
1DD
100
AcDbEntity
  8
0
  6
ByLayer
 62
    7
370
   -1
100
AcDbPolyline
 90
    2
 70
    0
 43
0
 10
9781.40956
 20
-605.995136
 10
9630.59706
 20
-605.995136
  0
SPLINE
  5
1DE
100
AcDbEntity
  8
0
  6
ByLayer
 62
    7
370
   -1
100
AcDbSpline
210
0
220
0
230
0
 70
    8
 71
    3
 72
   10
 73
    6
 74
    0
 42
1e-07
 43
1e-07
 40
0
 40
0
 40
0
 40
0
 40
0.3333333333333333
 40
0.6666666666666666
 40
1
 40
1
 40
1
 40
1
 10
9630.59706
 20
-605.995136
 30
0
 10
9630.095609
 20
-606.056246
 30
0
 10
9629.126845000001
 20
-606.174304
 30
0
 10
9627.920937000001
 20
-607.190723
 30
0
 10
9627.7657
 20
-608.151622
 30
0
 10
9627.686643999999
 20
-608.640969
 30
0
  0
LWPOLYLINE
  5
1DF
100
AcDbEntity
  8
0
  6
ByLayer
 62
    7
370
   -1
100
AcDbPolyline
 90
    2
 70
    0
 43
0
 10
9784.055394000001
 20
-688.015969
 10
9784.055394000001
 20
-608.640969
  0
SPLINE
  5
1E0
100
AcDbEntity
  8
0
  6
ByLayer
 62
    7
370
   -1
100
AcDbSpline
210
0
220
0
230
0
 70
    8
 71
    3
 72
   10
 73
    6
 74
    0
 42
1e-07
 43
1e-07
 40
0
 40
0
 40
0
 40
0
 40
0.3333333333333333
 40
0.6666666666666666
 40
1
 40
1
 40
1
 40
1
 10
9784.055394000001
 20
-608.640969
 30
0
 10
9783.977521999999
 20
-608.154733
 30
0
 10
9783.827206
 20
-607.21615
 30
0
 10
9782.737471
 20
-606.203202
 30
0
 10
9781.849066000001
 20
-606.064001
 30
0
 10
9781.40956
 20
-605.995136
 30
0
  0
LWPOLYLINE
  5
1E1
100
AcDbEntity
  8
0
  6
ByLayer
 62
    7
370
   -1
100
AcDbPolyline
 90
    2
 70
    0
 43
0
 10
9948.09706
 20
-685.370136
 10
9781.40956
 20
-685.370136
  0
SPLINE
  5
1E2
100
AcDbEntity
  8
0
  6
ByLayer
 62
    7
370
   -1
100
AcDbSpline
210
0
220
0
230
0
 70
    8
 71
    3
 72
   10
 73
    6
 74
    0
 42
1e-07
 43
1e-07
 40
0
 40
0
 40
0
 40
0
 40
0.3333333333333333
 40
0.6666666666666666
 40
1
 40
1
 40
1
 40
1
 10
9781.40956
 20
-685.370136
 30
0
 10
9781.849066000001
 20
-685.439001
 30
0
 10
9782.737471
 20
-685.578202
 30
0
 10
9783.827206
 20
-686.59115
 30
0
 10
9783.977521999999
 20
-687.529733
 30
0
 10
9784.055394000001
 20
-688.015969
 30
0
  0
SPLINE
  5
1E3
100
AcDbEntity
  8
0
  6
ByLayer
 62
    7
370
   -1
100
AcDbSpline
210
0
220
0
230
0
 70
    8
 71
    3
 72
   10
 73
    6
 74
    0
 42
1e-07
 43
1e-07
 40
0
 40
0
 40
0
 40
0
 40
0.3333333333333333
 40
0.6666666666666666
 40
1
 40
1
 40
1
 40
1
 10
9945.186643999999
 20
-688.015969
 30
0
 10
9945.2657
 20
-687.526622
 30
0
 10
9945.420937000001
 20
-686.565723
 30
0
 10
9946.626845000001
 20
-685.549304
 30
0
 10
9947.595609
 20
-685.431246
 30
0
 10
9948.09706
 20
-685.370136
 30
0
  0
LWPOLYLINE
  5
1E4
100
AcDbEntity
  8
0
  6
ByLayer
 62
    7
370
   -1
100
AcDbPolyline
 90
    2
 70
    0
 43
0
 10
9945.186643999999
 20
-608.640969
 10
9945.186643999999
 20
-688.015969
  0
LWPOLYLINE
  5
1E5
100
AcDbEntity
  8
0
  6
ByLayer
 62
    7
370
   -1
100
AcDbPolyline
 90
    2
 70
    0
 43
0
 10
10098.90956
 20
-605.995136
 10
9948.09706
 20
-605.995136
  0
SPLINE
  5
1E6
100
AcDbEntity
  8
0
  6
ByLayer
 62
    7
370
   -1
100
AcDbSpline
210
0
220
0
230
0
 70
    8
 71
    3
 72
   10
 73
    6
 74
    0
 42
1e-07
 43
1e-07
 40
0
 40
0
 40
0
 40
0
 40
0.3333333333333333
 40
0.6666666666666666
 40
1
 40
1
 40
1
 40
1
 10
9948.09706
 20
-605.995136
 30
0
 10
9947.595609
 20
-606.056246
 30
0
 10
9946.626845000001
 20
-606.174304
 30
0
 10
9945.420937000001
 20
-607.190723
 30
0
 10
9945.2657
 20
-608.151622
 30
0
 10
9945.186643999999
 20
-608.640969
 30
0
  0
LWPOLYLINE
  5
1E7
100
AcDbEntity
  8
0
  6
ByLayer
 62
    7
370
   -1
100
AcDbPolyline
 90
    2
 70
    0
 43
0
 10
10101.555394
 20
-688.015969
 10
10101.555394
 20
-608.640969
  0
SPLINE
  5
1E8
100
AcDbEntity
  8
0
  6
ByLayer
 62
    7
370
   -1
100
AcDbSpline
210
0
220
0
230
0
 70
    8
 71
    3
 72
   10
 73
    6
 74
    0
 42
1e-07
 43
1e-07
 40
0
 40
0
 40
0
 40
0
 40
0.3333333333333333
 40
0.6666666666666666
 40
1
 40
1
 40
1
 40
1
 10
10101.555394
 20
-608.640969
 30
0
 10
10101.477522
 20
-608.154733
 30
0
 10
10101.327206
 20
-607.21615
 30
0
 10
10100.237471
 20
-606.203202
 30
0
 10
10099.349066
 20
-606.064001
 30
0
 10
10098.90956
 20
-605.995136
 30
0
  0
LWPOLYLINE
  5
1E9
100
AcDbEntity
  8
0
  6
ByLayer
 62
    7
370
   -1
100
AcDbPolyline
 90
    2
 70
    0
 43
0
 10
10265.59706
 20
-685.370136
 10
10098.90956
 20
-685.370136
  0
SPLINE
  5
1EA
100
AcDbEntity
  8
0
  6
ByLayer
 62
    7
370
   -1
100
AcDbSpline
210
0
220
0
230
0
 70
    8
 71
    3
 72
   10
 73
    6
 74
    0
 42
1e-07
 43
1e-07
 40
0
 40
0
 40
0
 40
0
 40
0.3333333333333333
 40
0.6666666666666666
 40
1
 40
1
 40
1
 40
1
 10
10098.90956
 20
-685.370136
 30
0
 10
10099.349066
 20
-685.439001
 30
0
 10
10100.237471
 20
-685.578202
 30
0
 10
10101.327206
 20
-686.59115
 30
0
 10
10101.477522
 20
-687.529733
 30
0
 10
10101.555394
 20
-688.015969
 30
0
  0
SPLINE
  5
1EB
100
AcDbEntity
  8
0
  6
ByLayer
 62
    7
370
   -1
100
AcDbSpline
210
0
220
0
230
0
 70
    8
 71
    3
 72
   10
 73
    6
 74
    0
 42
1e-07
 43
1e-07
 40
0
 40
0
 40
0
 40
0
 40
0.3333333333333333
 40
0.6666666666666666
 40
1
 40
1
 40
1
 40
1
 10
10262.686644
 20
-688.015969
 30
0
 10
10262.7657
 20
-687.526622
 30
0
 10
10262.920937
 20
-686.565723
 30
0
 10
10264.126845
 20
-685.549304
 30
0
 10
10265.095609
 20
-685.431246
 30
0
 10
10265.59706
 20
-685.370136
 30
0
  0
LWPOLYLINE
  5
1EC
100
AcDbEntity
  8
0
  6
ByLayer
 62
    7
370
   -1
100
AcDbPolyline
 90
    2
 70
    0
 43
0
 10
10262.686644
 20
-608.640969
 10
10262.686644
 20
-688.015969
  0
LWPOLYLINE
  5
1ED
100
AcDbEntity
  8
0
  6
ByLayer
 62
    7
370
   -1
100
AcDbPolyline
 90
    2
 70
    0
 43
0
 10
10416.40956
 20
-605.995136
 10
10265.59706
 20
-605.995136
  0
SPLINE
  5
1EE
100
AcDbEntity
  8
0
  6
ByLayer
 62
    7
370
   -1
100
AcDbSpline
210
0
220
0
230
0
 70
    8
 71
    3
 72
   10
 73
    6
 74
    0
 42
1e-07
 43
1e-07
 40
0
 40
0
 40
0
 40
0
 40
0.3333333333333333
 40
0.6666666666666666
 40
1
 40
1
 40
1
 40
1
 10
10265.59706
 20
-605.995136
 30
0
 10
10265.095609
 20
-606.056246
 30
0
 10
10264.126845
 20
-606.174304
 30
0
 10
10262.920937
 20
-607.190723
 30
0
 10
10262.7657
 20
-608.151622
 30
0
 10
10262.686644
 20
-608.640969
 30
0
  0
LWPOLYLINE
  5
1EF
100
AcDbEntity
  8
0
  6
ByLayer
 62
    7
370
   -1
100
AcDbPolyline
 90
    2
 70
    0
 43
0
 10
10419.055394
 20
-688.015969
 10
10419.055394
 20
-608.640969
  0
SPLINE
  5
1F0
100
AcDbEntity
  8
0
  6
ByLayer
 62
    7
370
   -1
100
AcDbSpline
210
0
220
0
230
0
 70
    8
 71
    3
 72
   10
 73
    6
 74
    0
 42
1e-07
 43
1e-07
 40
0
 40
0
 40
0
 40
0
 40
0.3333333333333333
 40
0.6666666666666666
 40
1
 40
1
 40
1
 40
1
 10
10419.055394
 20
-608.640969
 30
0
 10
10418.977522
 20
-608.154733
 30
0
 10
10418.827206
 20
-607.21615
 30
0
 10
10417.737471
 20
-606.203202
 30
0
 10
10416.849066
 20
-606.064001
 30
0
 10
10416.40956
 20
-605.995136
 30
0
  0
LWPOLYLINE
  5
1F1
100
AcDbEntity
  8
0
  6
ByLayer
 62
    7
370
   -1
100
AcDbPolyline
 90
    2
 70
    0
 43
0
 10
10583.09706
 20
-685.370136
 10
10416.40956
 20
-685.370136
  0
SPLINE
  5
1F2
100
AcDbEntity
  8
0
  6
ByLayer
 62
    7
370
   -1
100
AcDbSpline
210
0
220
0
230
0
 70
    8
 71
    3
 72
   10
 73
    6
 74
    0
 42
1e-07
 43
1e-07
 40
0
 40
0
 40
0
 40
0
 40
0.3333333333333333
 40
0.6666666666666666
 40
1
 40
1
 40
1
 40
1
 10
10416.40956
 20
-685.370136
 30
0
 10
10416.849066
 20
-685.439001
 30
0
 10
10417.737471
 20
-685.578202
 30
0
 10
10418.827206
 20
-686.59115
 30
0
 10
10418.977522
 20
-687.529733
 30
0
 10
10419.055394
 20
-688.015969
 30
0
  0
SPLINE
  5
1F3
100
AcDbEntity
  8
0
  6
ByLayer
 62
    7
370
   -1
100
AcDbSpline
210
0
220
0
230
0
 70
    8
 71
    3
 72
   10
 73
    6
 74
    0
 42
1e-07
 43
1e-07
 40
0
 40
0
 40
0
 40
0
 40
0.3333333333333333
 40
0.6666666666666666
 40
1
 40
1
 40
1
 40
1
 10
10580.451227
 20
-688.015969
 30
0
 10
10580.507893
 20
-687.531963
 30
0
 10
10580.61615
 20
-686.6073
 30
0
 10
10581.688391
 20
-685.535059
 30
0
 10
10582.613054
 20
-685.426802
 30
0
 10
10583.09706
 20
-685.370136
 30
0
  0
LWPOLYLINE
  5
1F4
100
AcDbEntity
  8
0
  6
ByLayer
 62
    7
370
   -1
100
AcDbPolyline
 90
    2
 70
    0
 43
0
 10
10580.451227
 20
-608.640969
 10
10580.451227
 20
-688.015969
  0
LWPOLYLINE
  5
1F5
100
AcDbEntity
  8
0
  6
ByLayer
 62
    7
370
   -1
100
AcDbPolyline
 90
    2
 70
    0
 43
0
 10
10733.90956
 20
-605.995136
 10
10583.09706
 20
-605.995136
  0
SPLINE
  5
1F6
100
AcDbEntity
  8
0
  6
ByLayer
 62
    7
370
   -1
100
AcDbSpline
210
0
220
0
230
0
 70
    8
 71
    3
 72
   10
 73
    6
 74
    0
 42
1e-07
 43
1e-07
 40
0
 40
0
 40
0
 40
0
 40
0.3333333333333333
 40
0.6666666666666666
 40
1
 40
1
 40
1
 40
1
 10
10583.09706
 20
-605.995136
 30
0
 10
10582.613054
 20
-606.051802
 30
0
 10
10581.688391
 20
-606.160059
 30
0
 10
10580.61615
 20
-607.2323
 30
0
 10
10580.507893
 20
-608.156963
 30
0
 10
10580.451227
 20
-608.640969
 30
0
  0
LWPOLYLINE
  5
1F7
100
AcDbEntity
  8
0
  6
ByLayer
 62
    7
370
   -1
100
AcDbPolyline
 90
    2
 70
    0
 43
0
 10
10736.555394
 20
-688.015969
 10
10736.555394
 20
-608.640969
  0
SPLINE
  5
1F8
100
AcDbEntity
  8
0
  6
ByLayer
 62
    7
370
   -1
100
AcDbSpline
210
0
220
0
230
0
 70
    8
 71
    3
 72
   10
 73
    6
 74
    0
 42
1e-07
 43
1e-07
 40
0
 40
0
 40
0
 40
0
 40
0.3333333333333333
 40
0.6666666666666666
 40
1
 40
1
 40
1
 40
1
 10
10736.555394
 20
-608.640969
 30
0
 10
10736.477522
 20
-608.154733
 30
0
 10
10736.327206
 20
-607.21615
 30
0
 10
10735.237471
 20
-606.203202
 30
0
 10
10734.349066
 20
-606.064001
 30
0
 10
10733.90956
 20
-605.995136
 30
0
  0
LWPOLYLINE
  5
1F9
100
AcDbEntity
  8
0
  6
ByLayer
 62
    7
370
   -1
100
AcDbPolyline
 90
    2
 70
    0
 43
0
 10
10900.59706
 20
-685.370136
 10
10733.90956
 20
-685.370136
  0
SPLINE
  5
1FA
100
AcDbEntity
  8
0
  6
ByLayer
 62
    7
370
   -1
100
AcDbSpline
210
0
220
0
230
0
 70
    8
 71
    3
 72
   10
 73
    6
 74
    0
 42
1e-07
 43
1e-07
 40
0
 40
0
 40
0
 40
0
 40
0.3333333333333333
 40
0.6666666666666666
 40
1
 40
1
 40
1
 40
1
 10
10733.90956
 20
-685.370136
 30
0
 10
10734.349066
 20
-685.439001
 30
0
 10
10735.237471
 20
-685.578202
 30
0
 10
10736.327206
 20
-686.59115
 30
0
 10
10736.477522
 20
-687.529733
 30
0
 10
10736.555394
 20
-688.015969
 30
0
  0
SPLINE
  5
1FB
100
AcDbEntity
  8
0
  6
ByLayer
 62
    7
370
   -1
100
AcDbSpline
210
0
220
0
230
0
 70
    8
 71
    3
 72
   10
 73
    6
 74
    0
 42
1e-07
 43
1e-07
 40
0
 40
0
 40
0
 40
0
 40
0.3333333333333333
 40
0.6666666666666666
 40
1
 40
1
 40
1
 40
1
 10
10897.951227
 20
-688.015969
 30
0
 10
10898.007893
 20
-687.531963
 30
0
 10
10898.11615
 20
-686.6073
 30
0
 10
10899.188391
 20
-685.535059
 30
0
 10
10900.113054
 20
-685.426802
 30
0
 10
10900.59706
 20
-685.370136
 30
0
  0
LWPOLYLINE
  5
1FC
100
AcDbEntity
  8
0
  6
ByLayer
 62
    7
370
   -1
100
AcDbPolyline
 90
    2
 70
    0
 43
0
 10
10897.951227
 20
-608.640969
 10
10897.951227
 20
-688.015969
  0
LWPOLYLINE
  5
1FD
100
AcDbEntity
  8
0
  6
ByLayer
 62
    7
370
   -1
100
AcDbPolyline
 90
    2
 70
    0
 43
0
 10
11051.40956
 20
-605.995136
 10
10900.59706
 20
-605.995136
  0
SPLINE
  5
1FE
100
AcDbEntity
  8
0
  6
ByLayer
 62
    7
370
   -1
100
AcDbSpline
210
0
220
0
230
0
 70
    8
 71
    3
 72
   10
 73
    6
 74
    0
 42
1e-07
 43
1e-07
 40
0
 40
0
 40
0
 40
0
 40
0.3333333333333333
 40
0.6666666666666666
 40
1
 40
1
 40
1
 40
1
 10
10900.59706
 20
-605.995136
 30
0
 10
10900.113054
 20
-606.051802
 30
0
 10
10899.188391
 20
-606.160059
 30
0
 10
10898.11615
 20
-607.2323
 30
0
 10
10898.007893
 20
-608.156963
 30
0
 10
10897.951227
 20
-608.640969
 30
0
  0
LWPOLYLINE
  5
1FF
100
AcDbEntity
  8
0
  6
ByLayer
 62
    7
370
   -1
100
AcDbPolyline
 90
    2
 70
    0
 43
0
 10
11054.055394
 20
-688.015969
 10
11054.055394
 20
-608.640969
  0
SPLINE
  5
200
100
AcDbEntity
  8
0
  6
ByLayer
 62
    7
370
   -1
100
AcDbSpline
210
0
220
0
230
0
 70
    8
 71
    3
 72
   10
 73
    6
 74
    0
 42
1e-07
 43
1e-07
 40
0
 40
0
 40
0
 40
0
 40
0.3333333333333333
 40
0.6666666666666666
 40
1
 40
1
 40
1
 40
1
 10
11054.055394
 20
-608.640969
 30
0
 10
11053.977522
 20
-608.154733
 30
0
 10
11053.827206
 20
-607.21615
 30
0
 10
11052.737471
 20
-606.203202
 30
0
 10
11051.849066
 20
-606.064001
 30
0
 10
11051.40956
 20
-605.995136
 30
0
  0
LWPOLYLINE
  5
201
100
AcDbEntity
  8
0
  6
ByLayer
 62
    7
370
   -1
100
AcDbPolyline
 90
    2
 70
    0
 43
0
 10
11218.09706
 20
-685.370136
 10
11051.40956
 20
-685.370136
  0
SPLINE
  5
202
100
AcDbEntity
  8
0
  6
ByLayer
 62
    7
370
   -1
100
AcDbSpline
210
0
220
0
230
0
 70
    8
 71
    3
 72
   10
 73
    6
 74
    0
 42
1e-07
 43
1e-07
 40
0
 40
0
 40
0
 40
0
 40
0.3333333333333333
 40
0.6666666666666666
 40
1
 40
1
 40
1
 40
1
 10
11051.40956
 20
-685.370136
 30
0
 10
11051.849066
 20
-685.439001
 30
0
 10
11052.737471
 20
-685.578202
 30
0
 10
11053.827206
 20
-686.59115
 30
0
 10
11053.977522
 20
-687.529733
 30
0
 10
11054.055394
 20
-688.015969
 30
0
  0
SPLINE
  5
203
100
AcDbEntity
  8
0
  6
ByLayer
 62
    7
370
   -1
100
AcDbSpline
210
0
220
0
230
0
 70
    8
 71
    3
 72
   10
 73
    6
 74
    0
 42
1e-07
 43
1e-07
 40
0
 40
0
 40
0
 40
0
 40
0.3333333333333333
 40
0.6666666666666666
 40
1
 40
1
 40
1
 40
1
 10
11215.451227
 20
-688.015969
 30
0
 10
11215.507893
 20
-687.531963
 30
0
 10
11215.61615
 20
-686.6073
 30
0
 10
11216.688391
 20
-685.535059
 30
0
 10
11217.613054
 20
-685.426802
 30
0
 10
11218.09706
 20
-685.370136
 30
0
  0
LWPOLYLINE
  5
204
100
AcDbEntity
  8
0
  6
ByLayer
 62
    7
370
   -1
100
AcDbPolyline
 90
    2
 70
    0
 43
0
 10
11215.451227
 20
-608.640969
 10
11215.451227
 20
-688.015969
  0
LWPOLYLINE
  5
205
100
AcDbEntity
  8
0
  6
ByLayer
 62
    7
370
   -1
100
AcDbPolyline
 90
    2
 70
    0
 43
0
 10
11368.90956
 20
-605.995136
 10
11218.09706
 20
-605.995136
  0
SPLINE
  5
206
100
AcDbEntity
  8
0
  6
ByLayer
 62
    7
370
   -1
100
AcDbSpline
210
0
220
0
230
0
 70
    8
 71
    3
 72
   10
 73
    6
 74
    0
 42
1e-07
 43
1e-07
 40
0
 40
0
 40
0
 40
0
 40
0.3333333333333333
 40
0.6666666666666666
 40
1
 40
1
 40
1
 40
1
 10
11218.09706
 20
-605.995136
 30
0
 10
11217.613054
 20
-606.051802
 30
0
 10
11216.688391
 20
-606.160059
 30
0
 10
11215.61615
 20
-607.2323
 30
0
 10
11215.507893
 20
-608.156963
 30
0
 10
11215.451227
 20
-608.640969
 30
0
  0
LWPOLYLINE
  5
207
100
AcDbEntity
  8
0
  6
ByLayer
 62
    7
370
   -1
100
AcDbPolyline
 90
    2
 70
    0
 43
0
 10
11371.555394
 20
-688.015969
 10
11371.555394
 20
-608.640969
  0
SPLINE
  5
208
100
AcDbEntity
  8
0
  6
ByLayer
 62
    7
370
   -1
100
AcDbSpline
210
0
220
0
230
0
 70
    8
 71
    3
 72
   10
 73
    6
 74
    0
 42
1e-07
 43
1e-07
 40
0
 40
0
 40
0
 40
0
 40
0.3333333333333333
 40
0.6666666666666666
 40
1
 40
1
 40
1
 40
1
 10
11371.555394
 20
-608.640969
 30
0
 10
11371.498728
 20
-608.156963
 30
0
 10
11371.390471
 20
-607.2323
 30
0
 10
11370.318229
 20
-606.160059
 30
0
 10
11369.393567
 20
-606.051802
 30
0
 10
11368.90956
 20
-605.995136
 30
0
  0
LWPOLYLINE
  5
209
100
AcDbEntity
  8
0
  6
ByLayer
 62
    7
370
   -1
100
AcDbPolyline
 90
    2
 70
    0
 43
0
 10
11535.59706
 20
-685.370136
 10
11368.90956
 20
-685.370136
  0
SPLINE
  5
20A
100
AcDbEntity
  8
0
  6
ByLayer
 62
    7
370
   -1
100
AcDbSpline
210
0
220
0
230
0
 70
    8
 71
    3
 72
   10
 73
    6
 74
    0
 42
1e-07
 43
1e-07
 40
0
 40
0
 40
0
 40
0
 40
0.3333333333333333
 40
0.6666666666666666
 40
1
 40
1
 40
1
 40
1
 10
11368.90956
 20
-685.370136
 30
0
 10
11369.349066
 20
-685.439001
 30
0
 10
11370.237471
 20
-685.578202
 30
0
 10
11371.327206
 20
-686.59115
 30
0
 10
11371.477522
 20
-687.529733
 30
0
 10
11371.555394
 20
-688.015969
 30
0
  0
SPLINE
  5
20B
100
AcDbEntity
  8
0
  6
ByLayer
 62
    7
370
   -1
100
AcDbSpline
210
0
220
0
230
0
 70
    8
 71
    3
 72
   10
 73
    6
 74
    0
 42
1e-07
 43
1e-07
 40
0
 40
0
 40
0
 40
0
 40
0.3333333333333333
 40
0.6666666666666666
 40
1
 40
1
 40
1
 40
1
 10
11532.951227
 20
-688.015969
 30
0
 10
11533.007893
 20
-687.531963
 30
0
 10
11533.11615
 20
-686.6073
 30
0
 10
11534.188391
 20
-685.535059
 30
0
 10
11535.113054
 20
-685.426802
 30
0
 10
11535.59706
 20
-685.370136
 30
0
  0
LWPOLYLINE
  5
20C
100
AcDbEntity
  8
0
  6
ByLayer
 62
    7
370
   -1
100
AcDbPolyline
 90
    2
 70
    0
 43
0
 10
11532.951227
 20
-608.640969
 10
11532.951227
 20
-688.015969
  0
LWPOLYLINE
  5
20D
100
AcDbEntity
  8
0
  6
ByLayer
 62
    7
370
   -1
100
AcDbPolyline
 90
    2
 70
    0
 43
0
 10
11794.888727
 20
-605.995136
 10
11535.59706
 20
-605.995136
  0
SPLINE
  5
20E
100
AcDbEntity
  8
0
  6
ByLayer
 62
    7
370
   -1
100
AcDbSpline
210
0
220
0
230
0
 70
    8
 71
    3
 72
   10
 73
    6
 74
    0
 42
1e-07
 43
1e-07
 40
0
 40
0
 40
0
 40
0
 40
0.3333333333333333
 40
0.6666666666666666
 40
1
 40
1
 40
1
 40
1
 10
11535.59706
 20
-605.995136
 30
0
 10
11535.113054
 20
-606.051802
 30
0
 10
11534.188391
 20
-606.160059
 30
0
 10
11533.11615
 20
-607.2323
 30
0
 10
11533.007893
 20
-608.156963
 30
0
 10
11532.951227
 20
-608.640969
 30
0
  0
LWPOLYLINE
  5
20F
100
AcDbEntity
  8
0
  6
ByLayer
 62
    7
370
   -1
100
AcDbPolyline
 90
    2
 70
    0
 43
0
 10
6070.363727
 20
-753.103469
 10
5825.094977
 20
-753.103469
  0
SPLINE
  5
210
100
AcDbEntity
  8
0
  6
ByLayer
 62
    7
370
   -1
100
AcDbSpline
210
0
220
0
230
0
 70
    8
 71
    3
 72
   13
 73
    9
 74
    0
 42
1e-07
 43
1e-07
 40
0
 40
0
 40
0
 40
0
 40
0.1666666666666667
 40
0.3333333333333333
 40
0.5
 40
0.6666666666666666
 40
0.8333333333333333
 40
1
 40
1
 40
1
 40
1
 10
5825.094977
 20
-753.103469
 30
0
 10
5803.270647
 20
-756.932068
 30
0
 10
5759.417477
 20
-764.625142
 30
0
 10
5713.193753
 20
-819.028734
 30
0
 10
5696.69972
 20
-887.717005
 30
0
 10
5713.217205
 20
-956.381871
 30
0
 10
5759.442519
 20
-1010.670262
 30
0
 10
5803.273603
 20
-1018.357577
 30
0
 10
5825.094977
 20
-1022.184719
 30
0
  0
LWPOLYLINE
  5
211
100
AcDbEntity
  8
0
  6
ByLayer
 62
    7
370
   -1
100
AcDbPolyline
 90
    2
 70
    0
 43
0
 10
5825.094977
 20
-1022.184719
 10
6070.363727
 20
-1022.184719
  0
SPLINE
  5
212
100
AcDbEntity
  8
0
  6
ByLayer
 62
    7
370
   -1
100
AcDbSpline
210
0
220
0
230
0
 70
    8
 71
    3
 72
   13
 73
    9
 74
    0
 42
1e-07
 43
1e-07
 40
0
 40
0
 40
0
 40
0
 40
0.1666666666666667
 40
0.3333333333333333
 40
0.5
 40
0.6666666666666666
 40
0.8333333333333333
 40
1
 40
1
 40
1
 40
1
 10
6070.363727
 20
-1022.184719
 30
0
 10
6092.185101
 20
-1018.357577
 30
0
 10
6136.016185
 20
-1010.670262
 30
0
 10
6182.2415
 20
-956.381871
 30
0
 10
6198.758984
 20
-887.717005
 30
0
 10
6182.264952
 20
-819.028734
 30
0
 10
6136.041227
 20
-764.625142
 30
0
 10
6092.188057
 20
-756.932068
 30
0
 10
6070.363727
 20
-753.103469
 30
0
  0
LWPOLYLINE
  5
213
100
AcDbEntity
  8
0
  6
ByLayer
 62
    7
370
   -1
100
AcDbPolyline
 90
    1
 70
    1
 43
0
 10
6070.363727
 20
-753.103469
  0
ENDSEC
  0
SECTION
  2
OBJECTS
  0
DICTIONARY
  5
C
330
0
100
AcDbDictionary
281
    1
  3
ACAD_GROUP
350
D
  0
DICTIONARY
  5
D
330
C
100
AcDbDictionary
281
    1
  0
ENDSEC
  0
EOF
