<?xml version="1.0" encoding="UTF-8" standalone="no"?>
<!-- Created with Inkscape (http://www.inkscape.org/) -->

<svg
   xmlns:ooo="http://xml.openoffice.org/svg/export"
   xmlns:dc="http://purl.org/dc/elements/1.1/"
   xmlns:cc="http://creativecommons.org/ns#"
   xmlns:rdf="http://www.w3.org/1999/02/22-rdf-syntax-ns#"
   xmlns:svg="http://www.w3.org/2000/svg"
   xmlns="http://www.w3.org/2000/svg"
   xmlns:sodipodi="http://sodipodi.sourceforge.net/DTD/sodipodi-0.dtd"
   xmlns:inkscape="http://www.inkscape.org/namespaces/inkscape"
   width="446.84372mm"
   height="75.477608mm"
   viewBox="0 0 446.84372 75.477608"
   version="1.1"
   id="svg8"
   inkscape:version="0.92.2 (unknown)"
   sodipodi:docname="desk_klok_FlexBox_side.svg">
  <sodipodi:namedview
     id="base"
     pagecolor="#ffffff"
     bordercolor="#666666"
     borderopacity="1.0"
     inkscape:pageopacity="0.0"
     inkscape:pageshadow="2"
     inkscape:zoom="0.55524902"
     inkscape:cx="760.32153"
     inkscape:cy="36.001654"
     inkscape:document-units="mm"
     inkscape:current-layer="g6148"
     showgrid="false"
     inkscape:window-width="1920"
     inkscape:window-height="1050"
     inkscape:window-x="0"
     inkscape:window-y="30"
     inkscape:window-maximized="1"
     fit-margin-top="0"
     fit-margin-left="0"
     fit-margin-right="0"
     fit-margin-bottom="0"
     showguides="true"
     inkscape:guide-bbox="true"
     inkscape:measure-start="713.749,527.592"
     inkscape:measure-end="736.426,527.592" />
  <defs
     id="defs2">
    <radialGradient
       id="radialGradient3661"
       gradientUnits="userSpaceOnUse"
       cy="29.149"
       cx="282.64999"
       gradientTransform="matrix(0.14777,0.23089,-0.2468,0.15795,-26.318,-62.617)"
       r="19.570999">
      <stop
         stop-color="#71b2f8"
         offset="0"
         id="stop13849" />
      <stop
         stop-color="#002795"
         offset="1"
         id="stop13851" />
    </radialGradient>
    <radialGradient
       id="radialGradient3817"
       gradientUnits="userSpaceOnUse"
       cy="33.900002"
       cx="270.57999"
       gradientTransform="matrix(0.26631,0.065024,-0.17931,0.73438,-60.668,-36.938)"
       r="19.570999">
      <stop
         stop-color="#ff6d0f"
         offset="0"
         id="stop13854" />
      <stop
         stop-color="#ff1000"
         offset="1"
         id="stop13856" />
    </radialGradient>
    <radialGradient
       id="radialGradient3661-5"
       gradientUnits="userSpaceOnUse"
       cy="29.149"
       cx="282.64999"
       gradientTransform="matrix(0.14777,0.23089,-0.2468,0.15795,-26.318,-62.617)"
       r="19.570999">
      <stop
         stop-color="#71b2f8"
         offset="0"
         id="stop14016" />
      <stop
         stop-color="#002795"
         offset="1"
         id="stop14018" />
    </radialGradient>
    <radialGradient
       id="radialGradient3817-9"
       gradientUnits="userSpaceOnUse"
       cy="33.900002"
       cx="270.57999"
       gradientTransform="matrix(0.26631,0.065024,-0.17931,0.73438,-60.668,-36.938)"
       r="19.570999">
      <stop
         stop-color="#ff6d0f"
         offset="0"
         id="stop14021" />
      <stop
         stop-color="#ff1000"
         offset="1"
         id="stop14023" />
    </radialGradient>
    <clipPath
       id="presentation_clip_path"
       clipPathUnits="userSpaceOnUse">
      <rect
         x="1363"
         y="1363"
         width="12218"
         height="6122"
         id="rect23949" />
    </clipPath>
    <g
       ooo:slide="id1"
       ooo:id-list="id3 id4 id5 id6 id7 id8 id9 id10 id11 id12 id13 id14 id15 id16 id17 id18 id19 id20 id21 id22 id23 id24 id25 id26 id27 id28 id29 id30 id31 id32 id33 id34 id35 id36 id37 id38 id39 id40 id41 id42 id43 id44 id45 id46 id47 id48 id49 id50 id51 id52 id53 id54 id55 id56 id57 id58 id59 id60 id61 id62 id63 id64 id65 id66 id67 id68 id69 id70 id71 id72 id73 id74 id75 id76 id77 id78 id79 id80 id81 id82 id83 id84 id85 id86 id87 id88 id89 id90 id91 id92 id93 id94 id95 id96 id97 id98 id99 id100 id101 id102 id103 id104 id105 id106 id107 id108 id109 id110 id111 id112 id113 id114 id115 id116 id117 id118 id119 id120 id121 id122 id123 id124 id125 id126 id127 id128 id129 id130 id131 id132 id133 id134 id135 id136 id137 id138 id139 id140 id141 id142 id143 id144 id145 id146 id147 id148 id149 id150 id151 id152 id153 id154 id155 id156 id157 id158 id159 id160 id161 id162 id163 id164 id165 id166 id167 id168 id169 id170 id171 id172 id173 id174 id175 id176 id177 id178 id179 id180 id181 id182 id183 id184 id185 id186 id187 id188 id189 id190 id191 id192 id193 id194 id195 id196 id197 id198 id199 id200 id201 id202 id203 id204 id205 id206 id207 id208 id209 id210 id211 id212 id213 id214 id215 id216 id217 id218 id219 id220 id221 id222 id223 id224 id225 id226 id227 id228 id229 id230 id231 id232 id233 id234 id235 id236 id237 id238 id239 id240 id241 id242 id243 id244 id245 id246 id247 id248 id249 id250 id251 id252 id253 id254 id255 id256 id257 id258"
       id="g23954" />
    <g
       id="bullet-char-template(57356)"
       transform="matrix(4.8828125e-4,0,0,-4.8828125e-4,0,0)">
      <path
         inkscape:connector-curvature="0"
         d="M 580,1141 1163,571 580,0 -4,571 Z"
         id="path23958" />
    </g>
    <g
       id="bullet-char-template(57354)"
       transform="matrix(4.8828125e-4,0,0,-4.8828125e-4,0,0)">
      <path
         inkscape:connector-curvature="0"
         d="M 8,1128 H 1137 V 0 H 8 Z"
         id="path23961" />
    </g>
    <g
       id="bullet-char-template(10146)"
       transform="matrix(4.8828125e-4,0,0,-4.8828125e-4,0,0)">
      <path
         inkscape:connector-curvature="0"
         d="M 174,0 602,739 174,1481 1456,739 Z M 1358,739 309,1346 659,739 Z"
         id="path23964" />
    </g>
    <g
       id="bullet-char-template(10132)"
       transform="matrix(4.8828125e-4,0,0,-4.8828125e-4,0,0)">
      <path
         inkscape:connector-curvature="0"
         d="M 2015,739 1276,0 H 717 l 543,543 H 174 v 393 h 1086 l -543,545 h 557 z"
         id="path23967" />
    </g>
    <g
       id="bullet-char-template(10007)"
       transform="matrix(4.8828125e-4,0,0,-4.8828125e-4,0,0)">
      <path
         inkscape:connector-curvature="0"
         d="m 0,-2 c -7,16 -16,29 -25,39 l 381,530 c -94,256 -141,385 -141,387 0,25 13,38 40,38 9,0 21,-2 34,-5 21,4 42,12 65,25 l 27,-13 111,-251 280,301 64,-25 24,25 c 21,-10 41,-24 62,-43 C 886,937 835,863 770,784 769,783 710,716 594,584 L 774,223 c 0,-27 -21,-55 -63,-84 l 16,-20 C 717,90 699,76 672,76 641,76 570,178 457,381 L 164,-76 c -22,-34 -53,-51 -92,-51 -42,0 -63,17 -64,51 -7,9 -10,24 -10,44 0,9 1,19 2,30 z"
         id="path23970" />
    </g>
    <g
       id="bullet-char-template(10004)"
       transform="matrix(4.8828125e-4,0,0,-4.8828125e-4,0,0)">
      <path
         inkscape:connector-curvature="0"
         d="M 285,-33 C 182,-33 111,30 74,156 52,228 41,333 41,471 c 0,78 14,145 41,201 34,71 87,106 158,106 53,0 88,-31 106,-94 l 23,-176 c 8,-64 28,-97 59,-98 l 735,706 c 11,11 33,17 66,17 42,0 63,-15 63,-46 V 965 c 0,-36 -10,-64 -30,-84 L 442,47 C 390,-6 338,-33 285,-33 Z"
         id="path23973" />
    </g>
    <g
       id="bullet-char-template(9679)"
       transform="matrix(4.8828125e-4,0,0,-4.8828125e-4,0,0)">
      <path
         inkscape:connector-curvature="0"
         d="M 813,0 C 632,0 489,54 383,161 276,268 223,411 223,592 c 0,181 53,324 160,431 106,107 249,161 430,161 179,0 323,-54 432,-161 108,-107 162,-251 162,-431 0,-180 -54,-324 -162,-431 C 1136,54 992,0 813,0 Z"
         id="path23976" />
    </g>
    <g
       id="bullet-char-template(8226)"
       transform="matrix(4.8828125e-4,0,0,-4.8828125e-4,0,0)">
      <path
         inkscape:connector-curvature="0"
         d="m 346,457 c -73,0 -137,26 -191,78 -54,51 -81,114 -81,188 0,73 27,136 81,188 54,52 118,78 191,78 73,0 134,-26 185,-79 51,-51 77,-114 77,-187 0,-75 -25,-137 -76,-188 -50,-52 -112,-78 -186,-78 z"
         id="path23979" />
    </g>
    <g
       id="bullet-char-template(8211)"
       transform="matrix(4.8828125e-4,0,0,-4.8828125e-4,0,0)">
      <path
         inkscape:connector-curvature="0"
         d="M -4,459 H 1135 V 606 H -4 Z"
         id="path23982" />
    </g>
    <clipPath
       id="presentation_clip_path-6"
       clipPathUnits="userSpaceOnUse">
      <rect
         x="0"
         y="0"
         width="21000"
         height="29700"
         id="rect29413" />
    </clipPath>
    <g
       ooo:slide="id1"
       ooo:id-list="id3 id4 id5 id6 id7 id8 id9 id10 id11 id12 id13 id14 id15 id16 id17 id18 id19 id20 id21 id22 id23 id24 id25 id26 id27 id28 id29 id30 id31 id32 id33 id34 id35 id36 id37 id38 id39 id40 id41 id42 id43 id44 id45 id46 id47 id48 id49 id50 id51 id52 id53 id54 id55 id56 id57 id58 id59 id60 id61 id62 id63 id64 id65 id66 id67 id68 id69 id70 id71 id72 id73 id74 id75 id76 id77 id78 id79 id80 id81 id82 id83 id84 id85 id86 id87 id88 id89 id90 id91 id92 id93 id94 id95 id96 id97 id98 id99 id100 id101 id102 id103 id104 id105 id106 id107 id108 id109 id110 id111 id112 id113 id114 id115 id116 id117 id118 id119 id120 id121 id122 id123 id124 id125 id126 id127 id128 id129 id130 id131 id132 id133 id134 id135 id136 id137 id138 id139 id140 id141 id142 id143 id144 id145 id146 id147 id148 id149 id150 id151 id152 id153 id154 id155 id156 id157 id158 id159 id160 id161 id162 id163 id164 id165 id166 id167 id168 id169 id170 id171 id172 id173 id174 id175 id176 id177 id178 id179 id180 id181 id182 id183 id184 id185 id186 id187 id188 id189 id190 id191 id192 id193 id194 id195 id196 id197 id198 id199 id200 id201 id202 id203 id204 id205 id206 id207 id208 id209 id210 id211 id212 id213 id214 id215 id216 id217 id218 id219 id220 id221 id222 id223 id224 id225 id226 id227 id228 id229 id230 id231 id232 id233 id234 id235 id236 id237 id238 id239 id240 id241 id242 id243 id244 id245 id246 id247 id248 id249 id250 id251 id252 id253 id254 id255 id256 id257 id258 id259"
       id="g29418" />
    <g
       id="bullet-char-template(57356)-2"
       transform="matrix(4.8828125e-4,0,0,-4.8828125e-4,0,0)">
      <path
         inkscape:connector-curvature="0"
         d="M 580,1141 1163,571 580,0 -4,571 Z"
         id="path29422" />
    </g>
    <g
       id="bullet-char-template(57354)-1"
       transform="matrix(4.8828125e-4,0,0,-4.8828125e-4,0,0)">
      <path
         inkscape:connector-curvature="0"
         d="M 8,1128 H 1137 V 0 H 8 Z"
         id="path29425" />
    </g>
    <g
       id="bullet-char-template(10146)-7"
       transform="matrix(4.8828125e-4,0,0,-4.8828125e-4,0,0)">
      <path
         inkscape:connector-curvature="0"
         d="M 174,0 602,739 174,1481 1456,739 Z M 1358,739 309,1346 659,739 Z"
         id="path29428" />
    </g>
    <g
       id="bullet-char-template(10132)-8"
       transform="matrix(4.8828125e-4,0,0,-4.8828125e-4,0,0)">
      <path
         inkscape:connector-curvature="0"
         d="M 2015,739 1276,0 H 717 l 543,543 H 174 v 393 h 1086 l -543,545 h 557 z"
         id="path29431" />
    </g>
    <g
       id="bullet-char-template(10007)-5"
       transform="matrix(4.8828125e-4,0,0,-4.8828125e-4,0,0)">
      <path
         inkscape:connector-curvature="0"
         d="m 0,-2 c -7,16 -16,29 -25,39 l 381,530 c -94,256 -141,385 -141,387 0,25 13,38 40,38 9,0 21,-2 34,-5 21,4 42,12 65,25 l 27,-13 111,-251 280,301 64,-25 24,25 c 21,-10 41,-24 62,-43 C 886,937 835,863 770,784 769,783 710,716 594,584 L 774,223 c 0,-27 -21,-55 -63,-84 l 16,-20 C 717,90 699,76 672,76 641,76 570,178 457,381 L 164,-76 c -22,-34 -53,-51 -92,-51 -42,0 -63,17 -64,51 -7,9 -10,24 -10,44 0,9 1,19 2,30 z"
         id="path29434" />
    </g>
    <g
       id="bullet-char-template(10004)-7"
       transform="matrix(4.8828125e-4,0,0,-4.8828125e-4,0,0)">
      <path
         inkscape:connector-curvature="0"
         d="M 285,-33 C 182,-33 111,30 74,156 52,228 41,333 41,471 c 0,78 14,145 41,201 34,71 87,106 158,106 53,0 88,-31 106,-94 l 23,-176 c 8,-64 28,-97 59,-98 l 735,706 c 11,11 33,17 66,17 42,0 63,-15 63,-46 V 965 c 0,-36 -10,-64 -30,-84 L 442,47 C 390,-6 338,-33 285,-33 Z"
         id="path29437" />
    </g>
    <g
       id="bullet-char-template(9679)-4"
       transform="matrix(4.8828125e-4,0,0,-4.8828125e-4,0,0)">
      <path
         inkscape:connector-curvature="0"
         d="M 813,0 C 632,0 489,54 383,161 276,268 223,411 223,592 c 0,181 53,324 160,431 106,107 249,161 430,161 179,0 323,-54 432,-161 108,-107 162,-251 162,-431 0,-180 -54,-324 -162,-431 C 1136,54 992,0 813,0 Z"
         id="path29440" />
    </g>
    <g
       id="bullet-char-template(8226)-1"
       transform="matrix(4.8828125e-4,0,0,-4.8828125e-4,0,0)">
      <path
         inkscape:connector-curvature="0"
         d="m 346,457 c -73,0 -137,26 -191,78 -54,51 -81,114 -81,188 0,73 27,136 81,188 54,52 118,78 191,78 73,0 134,-26 185,-79 51,-51 77,-114 77,-187 0,-75 -25,-137 -76,-188 -50,-52 -112,-78 -186,-78 z"
         id="path29443" />
    </g>
    <g
       id="bullet-char-template(8211)-8"
       transform="matrix(4.8828125e-4,0,0,-4.8828125e-4,0,0)">
      <path
         inkscape:connector-curvature="0"
         d="M -4,459 H 1135 V 606 H -4 Z"
         id="path29446" />
    </g>
    <radialGradient
       id="radialGradient3661-59"
       gradientUnits="userSpaceOnUse"
       cy="29.149"
       cx="282.64999"
       gradientTransform="matrix(0.14777,0.23089,-0.2468,0.15795,-26.318,-62.617)"
       r="19.570999">
      <stop
         stop-color="#71b2f8"
         offset="0"
         id="stop2" />
      <stop
         stop-color="#002795"
         offset="1"
         id="stop4" />
    </radialGradient>
    <radialGradient
       id="radialGradient3817-7"
       gradientUnits="userSpaceOnUse"
       cy="33.900002"
       cx="270.57999"
       gradientTransform="matrix(0.26631,0.065024,-0.17931,0.73438,-60.668,-36.938)"
       r="19.570999">
      <stop
         stop-color="#ff6d0f"
         offset="0"
         id="stop7" />
      <stop
         stop-color="#ff1000"
         offset="1"
         id="stop9" />
    </radialGradient>
    <radialGradient
       id="radialGradient3661-4"
       gradientUnits="userSpaceOnUse"
       cy="29.149"
       cx="282.64999"
       gradientTransform="matrix(0.14777,0.23089,-0.2468,0.15795,-26.318,-62.617)"
       r="19.570999">
      <stop
         stop-color="#71b2f8"
         offset="0"
         id="stop2-6" />
      <stop
         stop-color="#002795"
         offset="1"
         id="stop4-9" />
    </radialGradient>
    <radialGradient
       id="radialGradient3817-2"
       gradientUnits="userSpaceOnUse"
       cy="33.900002"
       cx="270.57999"
       gradientTransform="matrix(0.26631,0.065024,-0.17931,0.73438,-60.668,-36.938)"
       r="19.570999">
      <stop
         stop-color="#ff6d0f"
         offset="0"
         id="stop7-2" />
      <stop
         stop-color="#ff1000"
         offset="1"
         id="stop9-4" />
    </radialGradient>
    <radialGradient
       id="radialGradient3661-6"
       gradientUnits="userSpaceOnUse"
       cy="29.149"
       cx="282.64999"
       gradientTransform="matrix(0.14777,0.23089,-0.2468,0.15795,-26.318,-62.617)"
       r="19.570999">
      <stop
         stop-color="#71b2f8"
         offset="0"
         id="stop2-1" />
      <stop
         stop-color="#002795"
         offset="1"
         id="stop4-2" />
    </radialGradient>
    <radialGradient
       id="radialGradient3817-93"
       gradientUnits="userSpaceOnUse"
       cy="33.900002"
       cx="270.57999"
       gradientTransform="matrix(0.26631,0.065024,-0.17931,0.73438,-60.668,-36.938)"
       r="19.570999">
      <stop
         stop-color="#ff6d0f"
         offset="0"
         id="stop7-1" />
      <stop
         stop-color="#ff1000"
         offset="1"
         id="stop9-9" />
    </radialGradient>
    <marker
       inkscape:stockid="Arrow1Lstart"
       style="overflow:visible"
       refY="0"
       refX="0"
       orient="auto"
       id="Arrow1Lstart">
      <path
         id="path6124"
         style="fill-rule:evenodd;stroke:#000000;stroke-width:1.00000003pt;marker-start:none"
         transform="matrix(0.8,0,0,0.8,10,0)"
         d="M 0,0 5,-5 -12.5,0 5,5 Z"
         inkscape:connector-curvature="0" />
    </marker>
    <marker
       inkscape:stockid="Arrow1Lend"
       style="overflow:visible"
       refY="0"
       refX="0"
       orient="auto"
       id="Arrow1Lend">
      <path
         id="path6127"
         style="fill-rule:evenodd;stroke:#000000;stroke-width:1.00000003pt;marker-start:none"
         transform="matrix(-0.8,0,0,-0.8,-10,0)"
         d="M 0,0 5,-5 -12.5,0 5,5 Z"
         inkscape:connector-curvature="0" />
    </marker>
  </defs>
  <metadata
     id="metadata5">
    <rdf:RDF>
      <cc:Work
         rdf:about="">
        <dc:format>image/svg+xml</dc:format>
        <dc:type
           rdf:resource="http://purl.org/dc/dcmitype/StillImage" />
        <dc:title></dc:title>
      </cc:Work>
    </rdf:RDF>
  </metadata>
  <g
     transform="translate(-2.3847839,-219.37245)"
     inkscape:label="Layer 1"
     inkscape:groupmode="layer"
     id="layer1">
    <g
       id="Shape2DView"
       transform="scale(0.26458333,-0.26458333)">
      <title
         id="title13583">Shape2DView</title>
    </g>
  </g>
  <g
     id="g6148"
     style="fill:none;stroke:#000000"
     transform="translate(0.41365219,-72.315683)">
    <path
       id="path6135"
       d="M 0.1,86.761008 H 445.91642"
       style="fill:#ff0000;fill-opacity:1;stroke:#ff0000;stroke-width:0.26458332;stroke-opacity:1;marker-start:url(#Arrow1Lstart);marker-end:url(#Arrow1Lend)"
       inkscape:connector-curvature="0" />
    <path
       id="path6137"
       d="m 0.06276081,80.61532 v 14.161"
       inkscape:connector-curvature="0"
       style="fill:#ff0000;fill-opacity:1;stroke:#ff0000;stroke-width:0.05781326;stroke-opacity:1" />
    <path
       id="path6139"
       d="m 445.95366,80.61532 v 14.161"
       inkscape:connector-curvature="0"
       style="fill:#ff0000;fill-opacity:1;stroke:#ff0000;stroke-width:0.05781326;stroke-opacity:1" />
    <path
       inkscape:connector-curvature="0"
       d="m 219.03702,114.99189 h 10.16 c 2.81432,0 5.08,-2.26568 5.08,-5.08 0,-2.81432 -2.26568,-5.08 -5.08,-5.08 h -10.16 c -2.81432,0 -5.08,2.26568 -5.08,5.08 0,2.81432 2.26568,5.08 5.08,5.08 z M 0.20157,100.74017 h 9.80078 m 0,0 c 0.0547,0 0.10156,0.043 0.10156,0.10156 m 0,0 v 3 c 0,-0.0547 -0.043,-0.10156 -0.10156,-0.10156 m 0,0 h 6.30078 c -0.0547,0 -0.10156,0.043 -0.10156,0.10156 m 0,0 v -3 c 0,-0.0547 0.043,-0.10156 0.10156,-0.10156 m 0,0 h 5.69922 m 0,0 c 0.0547,0 0.10156,0.043 0.10156,0.10156 m 0,0 v 3 c 0,-0.0547 -0.043,-0.10156 -0.10156,-0.10156 m 0,0 h 6.30078 c -0.0547,0 -0.10156,0.043 -0.10156,0.10156 m 0,0 v -3 c 0,-0.0547 0.043,-0.10156 0.10156,-0.10156 m 0,0 h 5.69922 m 0,0 c 0.0547,0 0.10156,0.043 0.10156,0.10156 m 0,0 v 3 c 0,-0.0547 -0.043,-0.10156 -0.10156,-0.10156 m 0,0 h 6.30078 c -0.0547,0 -0.10156,0.043 -0.10156,0.10156 m 0,0 v -3 c 0,-0.0547 0.043,-0.10156 0.10156,-0.10156 m 0,0 h 5.69922 m 0,0 c 0.0547,0 0.10156,0.043 0.10156,0.10156 m 0,0 v 3 c 0,-0.0547 -0.043,-0.10156 -0.10156,-0.10156 m 0,0 h 6.30078 c -0.0547,0 -0.10156,0.043 -0.10156,0.10156 m 0,0 v -3 c 0,-0.0547 0.043,-0.10156 0.10156,-0.10156 m 0,0 h 5.69922 m 0,0 c 0.0547,0 0.10156,0.043 0.10156,0.10156 m 0,0 v 3 c 0,-0.0547 -0.043,-0.10156 -0.10156,-0.10156 m 0,0 h 6.30078 c -0.0547,0 -0.10155,0.043 -0.10155,0.10156 m 0,0 v -3 c 0,-0.0547 0.043,-0.10156 0.10155,-0.10156 m 0,0 h 5.69922 m 0,0 c 0.0547,0 0.10156,0.043 0.10156,0.10156 m 0,0 v 3 c 0,-0.0547 -0.043,-0.10156 -0.10156,-0.10156 m 0,0 h 6.30079 c -0.0547,0 -0.10156,0.043 -0.10156,0.10156 m 0,0 v -3 c 0,-0.0547 0.043,-0.10156 0.10156,-0.10156 m 0,0 h 5.69922 m 0,0 c 0.0547,0 0.10155,0.043 0.10155,0.10156 m 0,0 v 3 c 0,-0.0547 -0.043,-0.10156 -0.10155,-0.10156 m 0,0 h 6.30077 c -0.0547,0 -0.10156,0.043 -0.10156,0.10156 m 0,0 v -3 c 0,-0.0547 0.043,-0.10156 0.10156,-0.10156 m 0,0 h 9.80078 m 1.722656,0 v 21.60156 m 0,3 v 21.59766 m 1.500004,-3 v -40.19922 m 1.5,-3 v 21.60156 m 0,3 v 21.59766 m 1.5,-3 v -40.19922 m 1.5,-3 v 21.60156 m 0,3 v 21.59766 m 1.5,-3 v -40.19922 m 1.5,-3 v 21.60156 m 0,3 v 21.59766 m 1.5,-3 v -40.19922 m 1.5,-3 v 21.60156 m 0,3 v 21.59766 m 1.5,-3 v -40.19922 m 1.5,-3 v 21.60156 m 0,3 v 21.59766 m 1.5,-3 v -40.19922 m -18.22266,-3 h 19.94922 m 0,0 h 9.35157 m 0,0 c 0.0547,0 0.10156,0.043 0.10156,0.10156 m 0,0 v 3 c 0,-0.0547 -0.043,-0.10156 -0.10156,-0.10156 m 0,0 h 6.30078 c -0.0547,0 -0.10157,0.043 -0.10157,0.10156 m 0,0 v -3 c 0,-0.0547 0.043,-0.10156 0.10157,-0.10156 m 0,0 h 5.69922 m 0,0 c 0.0547,0 0.10156,0.043 0.10156,0.10156 m 0,0 v 3 c 0,-0.0547 -0.043,-0.10156 -0.10156,-0.10156 m 0,0 h 6.30078 c -0.0547,0 -0.10157,0.043 -0.10157,0.10156 m 0,0 v -3 c 0,-0.0547 0.043,-0.10156 0.10157,-0.10156 m 0,0 h 5.69922 m 0,0 c 0.0547,0 0.10156,0.043 0.10156,0.10156 m 0,0 v 3 c 0,-0.0547 -0.043,-0.10156 -0.10156,-0.10156 m 0,0 h 6.30078 c -0.0547,0 -0.10157,0.043 -0.10157,0.10156 m 0,0 v -3 c 0,-0.0547 0.043,-0.10156 0.10157,-0.10156 m 0,0 h 5.69922 m 0,0 c 0.0547,0 0.10156,0.043 0.10156,0.10156 m 0,0 v 3 c 0,-0.0547 -0.043,-0.10156 -0.10156,-0.10156 m 0,0 h 6.30078 c -0.0547,0 -0.10157,0.043 -0.10157,0.10156 m 0,0 v -3 c 0,-0.0547 0.043,-0.10156 0.10157,-0.10156 m 0,0 h 9.35156 m 1.72266,0 v 21.60156 m 0,3 v 21.59766 m 1.5,-3 v -40.19922 m 1.5,-3 v 21.60156 m 0,3 v 21.59766 m 1.5,-3 v -40.19922 m 1.5,-3 v 21.60156 m 0,3 v 21.59766 m 1.5,-3 v -40.19922 m 1.5,-3 v 21.60156 m 0,3 v 21.59766 m 1.5,-3 v -40.19922 m 1.5,-3 v 21.60156 m 0,3 v 21.59766 m 1.5,-3 v -40.19922 m 1.5,-3 v 21.60156 m 0,3 v 21.59766 m 1.5,-3 v -40.19922 m -18.22266,-3 h 19.94922 m 0,0 h 9.80078 m 0,0 c 0.0547,0 0.10156,0.043 0.10156,0.10156 m 0,0 v 3 c 0,-0.0547 -0.043,-0.10156 -0.10156,-0.10156 m 0,0 h 6.30078 c -0.0547,0 -0.10156,0.043 -0.10156,0.10156 m 0,0 v -3 c 0,-0.0547 0.043,-0.10156 0.10156,-0.10156 m 0,0 h 5.69922 m 0,0 c 0.0547,0 0.10156,0.043 0.10156,0.10156 m 0,0 v 3 c 0,-0.0547 -0.043,-0.10156 -0.10156,-0.10156 m 0,0 h 6.30078 c -0.0547,0 -0.10156,0.043 -0.10156,0.10156 m 0,0 v -3 c 0,-0.0547 0.043,-0.10156 0.10156,-0.10156 m 0,0 h 5.69922 m 0,0 c 0.0547,0 0.10156,0.043 0.10156,0.10156 m 0,0 v 3 c 0,-0.0547 -0.043,-0.10156 -0.10156,-0.10156 m 0,0 h 6.30078 c -0.0547,0 -0.10156,0.043 -0.10156,0.10156 m 0,0 v -3 c 0,-0.0547 0.043,-0.10156 0.10156,-0.10156 m 0,0 h 5.69922 m 0,0 c 0.0547,0 0.10156,0.043 0.10156,0.10156 m 0,0 v 3 c 0,-0.0547 -0.043,-0.10156 -0.10156,-0.10156 m 0,0 h 6.30078 c -0.0547,0 -0.10156,0.043 -0.10156,0.10156 m 0,0 v -3 c 0,-0.0547 0.043,-0.10156 0.10156,-0.10156 m 0,0 h 5.69922 m 0,0 c 0.0547,0 0.10156,0.043 0.10156,0.10156 m 0,0 v 3 c 0,-0.0547 -0.043,-0.10156 -0.10156,-0.10156 m 0,0 h 6.30078 c -0.0547,0 -0.10156,0.043 -0.10156,0.10156 m 0,0 v -3 c 0,-0.0547 0.043,-0.10156 0.10156,-0.10156 m 0,0 h 5.69922 m 0,0 c 0.0547,0 0.10157,0.043 0.10157,0.10156 m 0,0 v 3 c 0,-0.0547 -0.043,-0.10156 -0.10157,-0.10156 m 0,0 h 6.30078 c -0.0547,0 -0.10157,0.043 -0.10157,0.10156 m 0,0 v -3 c 0,-0.0547 0.043,-0.10156 0.10157,-0.10156 m 0,0 h 5.69921 m 0,0 c 0.0547,0 0.10157,0.043 0.10157,0.10156 m 0,0 v 3 c 0,-0.0547 -0.043,-0.10156 -0.10157,-0.10156 m 0,0 h 6.30079 c -0.0547,0 -0.10158,0.043 -0.10158,0.10156 m 0,0 v -3 c 0,-0.0547 0.043,-0.10156 0.10158,-0.10156 m 0,0 h 5.69923 m 0,0 c 0.0547,0 0.10154,0.043 0.10154,0.10156 m 0,0 v 3 c 0,-0.0547 -0.043,-0.10156 -0.10154,-0.10156 m 0,0 h 6.30076 c -0.0547,0 -0.10155,0.043 -0.10155,0.10156 m 0,0 v -3 c 0,-0.0547 0.043,-0.10156 0.10155,-0.10156 m 0,0 h 5.69923 m 0,0 c 0.0547,0 0.10157,0.043 0.10157,0.10156 m 0,0 v 3 c 0,-0.0547 -0.043,-0.10156 -0.10157,-0.10156 m 0,0 h 6.30079 c -0.0547,0 -0.10158,0.043 -0.10158,0.10156 m 0,0 v -3 c 0,-0.0547 0.043,-0.10156 0.10158,-0.10156 m 0,0 h 9.80077 m 1.72265,0 v 21.60156 m 0,3 v 21.59766 m 1.5,-3 v -40.19922 m 1.5,-3 v 21.60156 m 0,3 v 21.59766 m 1.50001,-3 v -40.19922 m 1.5,-3 v 21.60156 m 0,3 v 21.59766 m 1.5,-3 v -40.19922 m 1.49998,-3 v 21.60156 m 0,3 v 21.59766 m 1.5,-3 v -40.19922 m 1.5,-3 v 21.60156 m 0,3 v 21.59766 m 1.5,-3 v -40.19922 m 1.50001,-3 v 21.60156 m 0,3 v 21.59766 m 1.5,-3 v -40.19922 m -18.22265,-3 h 19.94921 m 62.72266,0 v 21.60156 m 0,3 v 21.59766 m 1.5,-3 v -40.19922 m 1.5,-3 v 21.60156 m 0,3 v 21.59766 m 1.5,-3 v -40.19922 m 1.50001,-3 v 21.60156 m 0,3 v 21.59766 m 1.5,-3 v -40.19922 m 1.5,-3 v 21.60156 m 0,3 v 21.59766 m 1.49998,-3 v -40.19922 m 1.5,-3 v 21.60156 m 0,3 v 21.59766 m 1.5,-3 v -40.19922 m 1.5,-3 v 21.60156 m 0,3 v 21.59766 m 1.50001,-3 v -40.19922 m -18.22265,-3 h 19.94921 c 0.0547,0 0.10157,0.043 0.10157,0.10156 m 0,0 v 3.30078 c 0,-0.0547 -0.043,-0.10156 -0.10157,-0.10156 m 0,0 h 12.60158 c -0.0547,0 -0.10158,0.043 -0.10158,0.10156 m 0,0 v -3.30078 c 0,-0.46875 0.37891,-0.851557 0.85156,-0.851557 0.39844,0 0.71877,0.320307 0.71877,0.718747 0,0.69141 1.03905,0.69141 1.03905,0 0,-0.39844 0.3203,-0.718747 0.71876,-0.718747 0.39844,0 0.71874,0.320307 0.71874,0.718747 0,0.69141 1.03905,0.69141 1.03905,0 0,-0.39844 0.32033,-0.718747 0.71877,-0.718747 0.39843,0 0.71874,0.320307 0.71874,0.718747 0,0.69141 1.03907,0.69141 1.03907,0 0,-0.39844 0.3203,-0.718747 0.71874,-0.718747 0.39844,0 0.71877,0.320307 0.71877,0.718747 0,0.69141 1.03904,0.69141 1.03904,0 0,-0.39844 0.32033,-0.718747 0.71877,-0.718747 0.46873,0 0.85156,0.378907 0.85156,0.851557 m 0,0 v 46 c 0,0.46875 -0.37891,0.85156 -0.85156,0.85156 -0.39844,0 -0.71877,-0.32031 -0.71877,-0.71875 0,-0.6914 -1.03904,-0.6914 -1.03904,0 0,0.39844 -0.32033,0.71875 -0.71877,0.71875 -0.39844,0 -0.71874,-0.32031 -0.71874,-0.71875 0,-0.6914 -1.03907,-0.6914 -1.03907,0 0,0.39844 -0.32031,0.71875 -0.71874,0.71875 -0.39844,0 -0.71877,-0.32031 -0.71877,-0.71875 0,-0.6914 -1.03905,-0.6914 -1.03905,0 0,0.39844 -0.3203,0.71875 -0.71874,0.71875 -0.39846,0 -0.71876,-0.32031 -0.71876,-0.71875 0,-0.6914 -1.03905,-0.6914 -1.03905,0 0,0.39844 -0.32033,0.71875 -0.71877,0.71875 -0.46873,0 -0.85156,-0.3789 -0.85156,-0.85156 m 0,0 v -3.30078 c 0,0.0547 0.043,0.10156 0.10158,0.10156 m 0,0 h -12.60158 c 0.0547,0 0.10157,-0.043 0.10157,-0.10156 m 0,0 v 3.30078 c 0,0.0547 -0.043,0.10156 -0.10157,0.10156 m 0,0 h -19.94921 m -61.00001,0 -19.94921,1e-5 m 0,0 h -9.80077 m 0,0 c -0.0547,0 -0.10158,-0.043 -0.10158,-0.10157 m 0,0 v -3 c 0,0.0547 0.043,0.10157 0.10158,0.10157 m 0,0 h -6.30079 c 0.0547,0 0.10157,-0.043 0.10157,-0.10157 m 0,0 v 3 c 0,0.0547 -0.043,0.10157 -0.10157,0.10157 m 0,0 h -5.69923 m 0,0 c -0.0547,0 -0.10155,-0.043 -0.10155,-0.10157 m 0,0 v -3 c 0,0.0547 0.043,0.10157 0.10155,0.10157 m 0,0 h -6.30076 c 0.0547,0 0.10154,-0.043 0.10154,-0.10157 m 0,0 v 3 c 0,0.0547 -0.043,0.10157 -0.10154,0.10157 m 0,0 h -5.69923 m 0,0 c -0.0547,0 -0.10158,-0.043 -0.10158,-0.10157 m 0,0 v -3 c 0,0.0547 0.043,0.10157 0.10158,0.10157 m 0,0 h -6.30079 c 0.0547,0 0.10157,-0.043 0.10157,-0.10157 m 0,0 v 3 c 0,0.0547 -0.043,0.10157 -0.10157,0.10157 m 0,0 h -5.69921 m 0,0 c -0.0547,0 -0.10157,-0.043 -0.10157,-0.10157 m 0,0 v -3 c 0,0.0547 0.043,0.10157 0.10157,0.10157 m 0,0 h -6.30078 c 0.0547,0 0.10157,-0.043 0.10157,-0.10157 m 0,0 v 3 c 0,0.0547 -0.043,0.10157 -0.10157,0.10157 m 0,0 h -5.69922 m 0,0 c -0.0547,0 -0.10156,-0.043 -0.10156,-0.10157 m 0,0 v -3 c 0,0.0547 0.043,0.10157 0.10156,0.10157 m 0,0 h -6.30078 c 0.0547,0 0.10156,-0.043 0.10156,-0.10157 m 0,0 v 3 c 0,0.0547 -0.043,0.10157 -0.10156,0.10157 m 0,0 h -5.69922 m 0,0 c -0.0547,0 -0.10156,-0.043 -0.10156,-0.10157 m 0,0 v -3 c 0,0.0547 0.043,0.10157 0.10156,0.10157 m 0,0 h -6.30078 c 0.0547,0 0.10156,-0.043 0.10156,-0.10157 m 0,0 v 3 c 0,0.0547 -0.043,0.10157 -0.10156,0.10157 m 0,0 h -5.69922 m 0,0 c -0.0547,0 -0.10156,-0.043 -0.10156,-0.10157 m 0,0 v -3 c 0,0.0547 0.043,0.10157 0.10156,0.10157 m 0,0 h -6.30078 c 0.0547,0 0.10156,-0.043 0.10156,-0.10157 m 0,0 v 3 c 0,0.0547 -0.043,0.10157 -0.10156,0.10157 m 0,0 h -5.69922 m 0,0 c -0.0547,0 -0.10156,-0.043 -0.10156,-0.10157 m 0,0 v -3 c 0,0.0547 0.043,0.10157 0.10156,0.10157 m 0,0 h -6.30078 c 0.0547,0 0.10156,-0.043 0.10156,-0.10157 m 0,0 v 3 c 0,0.0547 -0.043,0.10157 -0.10156,0.10157 m 0,0 h -5.69922 m 0,0 c -0.0547,0 -0.10156,-0.043 -0.10156,-0.10157 m 0,0 v -3 c 0,0.0547 0.043,0.10157 0.10156,0.10157 m 0,0 h -6.30078 c 0.0547,0 0.10156,-0.043 0.10156,-0.10157 m 0,0 v 3 c 0,0.0547 -0.043,0.10157 -0.10156,0.10157 m 0,0 h -9.80078 m 0,0 h -19.94922 m 0,0 h -9.35156 m 0,0 c -0.0547,0 -0.10157,-0.043 -0.10157,-0.10157 m 0,0 v -3 c 0,0.0547 0.043,0.10157 0.10157,0.10157 m 0,0 h -6.30078 c 0.0547,0 0.10156,-0.043 0.10156,-0.10157 m 0,0 v 3 c 0,0.0547 -0.043,0.10157 -0.10156,0.10157 m 0,0 h -5.69922 m 0,0 c -0.0547,0 -0.10157,-0.043 -0.10157,-0.10157 m 0,0 v -3 c 0,0.0547 0.043,0.10157 0.10157,0.10157 m 0,0 h -6.30078 c 0.0547,0 0.10156,-0.043 0.10156,-0.10157 m 0,0 v 3 c 0,0.0547 -0.043,0.10157 -0.10156,0.10157 m 0,0 h -5.69922 m 0,0 c -0.0547,0 -0.10157,-0.043 -0.10157,-0.10157 m 0,0 v -3 c 0,0.0547 0.043,0.10157 0.10157,0.10157 m 0,0 h -6.30078 c 0.0547,0 0.10156,-0.043 0.10156,-0.10157 m 0,0 v 3 c 0,0.0547 -0.043,0.10157 -0.10156,0.10157 m 0,0 h -5.69922 m 0,0 c -0.0547,0 -0.10157,-0.043 -0.10157,-0.10157 m 0,0 v -3 c 0,0.0547 0.043,0.10157 0.10157,0.10157 m 0,0 h -6.30078 c 0.0547,0 0.10156,-0.043 0.10156,-0.10157 m 0,0 v 3 c 0,0.0547 -0.043,0.10157 -0.10156,0.10157 m 0,0 h -9.35157 m 0,0 H 98.10391 m 0,0 h -9.80078 m 0,0 c -0.0547,0 -0.10156,-0.043 -0.10156,-0.10157 m 0,0 v -3 c 0,0.0547 0.043,0.10157 0.10156,0.10157 m 0,0 h -6.30077 c 0.0547,0 0.10155,-0.043 0.10155,-0.10157 m 0,0 v 3 c 0,0.0547 -0.043,0.10157 -0.10155,0.10157 m 0,0 h -5.69922 m 0,0 c -0.0547,0 -0.10156,-0.043 -0.10156,-0.10157 m 0,0 v -3 c 0,0.0547 0.043,0.10157 0.10156,0.10157 m 0,0 h -6.30079 c 0.0547,0 0.10156,-0.043 0.10156,-0.10157 m 0,0 v 3 c 0,0.0547 -0.043,0.10157 -0.10156,0.10157 m 0,0 h -5.69922 m 0,0 c -0.0547,0 -0.10155,-0.043 -0.10155,-0.10157 m 0,0 v -3 c 0,0.0547 0.043,0.10157 0.10155,0.10157 m 0,0 h -6.30078 c 0.0547,0 0.10156,-0.043 0.10156,-0.10157 m 0,0 v 3 c 0,0.0547 -0.043,0.10157 -0.10156,0.10157 m 0,0 h -5.69922 m 0,0 c -0.0547,0 -0.10156,-0.043 -0.10156,-0.10157 m 0,0 v -3 c 0,0.0547 0.043,0.10157 0.10156,0.10157 m 0,0 h -6.30078 c 0.0547,0 0.10156,-0.043 0.10156,-0.10157 m 0,0 v 3 c 0,0.0547 -0.043,0.10157 -0.10156,0.10157 m 0,0 h -5.69922 m 0,0 c -0.0547,0 -0.10156,-0.043 -0.10156,-0.10157 m 0,0 v -3 c 0,0.0547 0.043,0.10157 0.10156,0.10157 m 0,0 h -6.30078 c 0.0547,0 0.10156,-0.043 0.10156,-0.10157 m 0,0 v 3 c 0,0.0547 -0.043,0.10157 -0.10156,0.10157 m 0,0 h -5.69922 m 0,0 c -0.0547,0 -0.10156,-0.043 -0.10156,-0.10157 m 0,0 v -3 c 0,0.0547 0.043,0.10157 0.10156,0.10157 m 0,0 h -6.30078 c 0.0547,0 0.10156,-0.043 0.10156,-0.10157 m 0,0 v 3 c 0,0.0547 -0.043,0.10157 -0.10156,0.10157 m 0,0 h -5.69922 m 0,0 c -0.0547,0 -0.10156,-0.043 -0.10156,-0.10157 m 0,0 v -3 c 0,0.0547 0.043,0.10157 0.10156,0.10157 m 0,0 h -6.30078 c 0.0547,0 0.10156,-0.043 0.10156,-0.10157 m 0,0 v 3 c 0,0.0547 -0.043,0.10157 -0.10156,0.10157 m 0,0 H 0.20157 c -0.0547,0 -0.10157,-0.043 -0.10157,-0.10157 m 0,0 v -46 c 0,-0.0547 0.043,-0.10156 0.10157,-0.10156 m 401.6599,46.20313 h -9.35154 m 0,0 c -0.0547,0 -0.10157,-0.043 -0.10157,-0.10157 m 0,0 v -3 c 0,0.0547 0.043,0.10157 0.10157,0.10157 m 0,0 h -6.30079 c 0.0547,0 0.10155,-0.043 0.10155,-0.10157 m 0,0 v 3 c 0,0.0547 -0.043,0.10157 -0.10155,0.10157 m 0,0 h -5.69923 m 0,0 c -0.0547,0 -0.10157,-0.043 -0.10157,-0.10157 m 0,0 v -3 c 0,0.0547 0.043,0.10157 0.10157,0.10157 m 0,0 h -6.30076 c 0.0547,0 0.10155,-0.043 0.10155,-0.10157 m 0,0 v 3 c 0,0.0547 -0.043,0.10157 -0.10155,0.10157 m 0,0 h -5.69923 m 0,0 c -0.0547,0 -0.10157,-0.043 -0.10157,-0.10157 m 0,0 v -3 c 0,0.0547 0.043,0.10157 0.10157,0.10157 m 0,0 h -6.30079 c 0.0547,0 0.10158,-0.043 0.10158,-0.10157 m 0,0 v 3 c 0,0.0547 -0.043,0.10157 -0.10158,0.10157 m 0,0 h -5.6992 m 0,0 c -0.0547,0 -0.10158,-0.043 -0.10158,-0.10157 m 0,0 v -3 c 0,0.0547 0.043,0.10157 0.10158,0.10157 m 0,0 h -6.30079 c 0.0547,0 0.10155,-0.043 0.10155,-0.10157 m 0,0 v 3 c 0,0.0547 -0.043,0.10157 -0.10155,0.10157 m 0,0 h -9.35156 m 0,-46.20313 h 9.35156 m 0,0 c 0.0547,0 0.10155,0.043 0.10155,0.10156 m 0,0 v 3 c 0,-0.0547 -0.043,-0.10156 -0.10155,-0.10156 m 0,0 h 6.30079 c -0.0547,0 -0.10157,0.043 -0.10157,0.10156 m 0,0 v -3 c 0,-0.0547 0.043,-0.10156 0.10157,-0.10156 m 0,0 h 5.6992 m 0,0 c 0.0547,0 0.10158,0.043 0.10158,0.10156 m 0,0 v 3 c 0,-0.0547 -0.043,-0.10156 -0.10158,-0.10156 m 0,0 h 6.30079 c -0.0547,0 -0.10157,0.043 -0.10157,0.10156 m 0,0 v -3 c 0,-0.0547 0.043,-0.10156 0.10157,-0.10156 m 0,0 h 5.69923 m 0,0 c 0.0547,0 0.10155,0.043 0.10155,0.10156 m 0,0 v 3 c 0,-0.0547 -0.043,-0.10156 -0.10155,-0.10156 m 0,0 h 6.30076 c -0.0547,0 -0.10157,0.043 -0.10157,0.10156 m 0,0 v -3 c 0,-0.0547 0.043,-0.10156 0.10157,-0.10156 m 0,0 h 5.69923 m 0,0 c 0.0547,0 0.10155,0.043 0.10155,0.10156 m 0,0 v 3 c 0,-0.0547 -0.043,-0.10156 -0.10155,-0.10156 m 0,0 h 6.30079 c -0.0547,0 -0.10157,0.043 -0.10157,0.10156 m 0,0 v -3 c 0,-0.0547 0.043,-0.10156 0.10157,-0.10156 m 0,0 h 9.35154"
       style="opacity:1;fill:none;fill-opacity:1;fill-rule:nonzero;stroke:#000000;stroke-width:0.2;stroke-miterlimit:4;stroke-dasharray:none;stroke-opacity:1"
       id="rect36529-8" />
    <text
       xml:space="preserve"
       style="font-style:normal;font-weight:normal;font-size:2.82222223px;line-height:2.9104166px;font-family:sans-serif;letter-spacing:0px;word-spacing:0px;fill:#ff0000;fill-opacity:1;stroke:none;stroke-width:0.26458332px;stroke-linecap:butt;stroke-linejoin:miter;stroke-opacity:1"
       x="210.97035"
       y="84.893578"
       id="text6242"><tspan
         sodipodi:role="line"
         id="tspan6240"
         x="210.97035"
         y="84.893578"
         style="fill:#ff0000;fill-opacity:1;stroke-width:0.26458332px">446 mm</tspan></text>
    <text
       xml:space="preserve"
       style="font-style:normal;font-weight:normal;font-size:2.82222223px;line-height:2.9104166px;font-family:sans-serif;letter-spacing:0px;word-spacing:0px;fill:#ff0000;fill-opacity:1;stroke:none;stroke-width:0.26458332px;stroke-linecap:butt;stroke-linejoin:miter;stroke-opacity:1"
       x="208.71266"
       y="74.410301"
       id="text6246"><tspan
         sodipodi:role="line"
         id="tspan6244"
         x="208.71266"
         y="74.410301"
         style="fill:#ff0000;fill-opacity:1;stroke-width:0.26458332px">MDF, 3 mm</tspan></text>
  </g>
</svg>
