<?xml version="1.0" encoding="UTF-8" standalone="no"?>
<svg
   xmlns:ooo="http://xml.openoffice.org/svg/export"
   xmlns:dc="http://purl.org/dc/elements/1.1/"
   xmlns:cc="http://creativecommons.org/ns#"
   xmlns:rdf="http://www.w3.org/1999/02/22-rdf-syntax-ns#"
   xmlns:svg="http://www.w3.org/2000/svg"
   xmlns="http://www.w3.org/2000/svg"
   xmlns:xlink="http://www.w3.org/1999/xlink"
   xmlns:sodipodi="http://sodipodi.sourceforge.net/DTD/sodipodi-0.dtd"
   xmlns:inkscape="http://www.inkscape.org/namespaces/inkscape"
   version="1.2"
   width="190.76947mm"
   height="97.648125mm"
   viewBox="0 0 19076.947 9764.8125"
   preserveAspectRatio="xMidYMid"
   xml:space="preserve"
   id="svg4526"
   sodipodi:docname="desk_klok_FlexBox_baffle2.svg"
   inkscape:version="0.92.2 (unknown)"
   style="fill-rule:evenodd;stroke-width:28.22200012;stroke-linejoin:round"><sodipodi:namedview
     pagecolor="#ffffff"
     bordercolor="#666666"
     borderopacity="1"
     objecttolerance="10"
     gridtolerance="10"
     guidetolerance="10"
     inkscape:pageopacity="0"
     inkscape:pageshadow="2"
     inkscape:window-width="1920"
     inkscape:window-height="1050"
     id="namedview4528"
     showgrid="false"
     inkscape:zoom="0.89845659"
     inkscape:cx="281.98369"
     inkscape:cy="161.14481"
     inkscape:window-x="0"
     inkscape:window-y="30"
     inkscape:window-maximized="1"
     inkscape:current-layer="svg4526"
     fit-margin-top="0"
     fit-margin-left="0"
     fit-margin-right="0"
     fit-margin-bottom="0" /><metadata
     id="metadata4530"><rdf:RDF><cc:Work
         rdf:about=""><dc:format>image/svg+xml</dc:format><dc:type
           rdf:resource="http://purl.org/dc/dcmitype/StillImage" /><dc:title></dc:title></cc:Work></rdf:RDF></metadata><defs
     id="defs5"
     class="ClipPathGroup"><marker
       inkscape:isstock="true"
       style="overflow:visible"
       id="Arrow1Lend"
       refX="0"
       refY="0"
       orient="auto"
       inkscape:stockid="Arrow1Lend"><path
         transform="matrix(-0.8,0,0,-0.8,-10,0)"
         style="fill:#ff0000;fill-opacity:1;fill-rule:evenodd;stroke:#ff0000;stroke-width:1.00000003pt;stroke-opacity:1"
         d="M 0,0 5,-5 -12.5,0 5,5 Z"
         id="path16342"
         inkscape:connector-curvature="0" /></marker><marker
       inkscape:isstock="true"
       style="overflow:visible"
       id="Arrow1Lstart"
       refX="0"
       refY="0"
       orient="auto"
       inkscape:stockid="Arrow1Lstart"><path
         transform="matrix(0.8,0,0,0.8,10,0)"
         style="fill:#ff0000;fill-opacity:1;fill-rule:evenodd;stroke:#ff0000;stroke-width:1.00000003pt;stroke-opacity:1"
         d="M 0,0 5,-5 -12.5,0 5,5 Z"
         id="path16339"
         inkscape:connector-curvature="0" /></marker><clipPath
       clipPathUnits="userSpaceOnUse"
       id="presentation_clip_path"><rect
         id="rect2"
         height="25400"
         width="45720"
         y="0"
         x="0" /></clipPath></defs><defs
     id="defs9"
     class="TextShapeIndex"><g
       id="g7"
       ooo:id-list="id3 id4 id5 id6 id7 id8 id9 id10 id11 id12 id13 id14 id15 id16 id17 id18 id19 id20 id21 id22 id23 id24 id25 id26 id27 id28 id29 id30 id31 id32 id33 id34 id35 id36 id37 id38 id39 id40 id41 id42 id43 id44 id45 id46 id47 id48 id49 id50 id51 id52 id53 id54 id55 id56 id57 id58 id59 id60 id61 id62 id63 id64 id65 id66 id67 id68 id69 id70 id71 id72 id73 id74 id75 id76 id77 id78 id79 id80 id81 id82 id83 id84 id85 id86 id87 id88 id89 id90 id91 id92 id93 id94 id95 id96 id97 id98 id99 id100 id101 id102 id103 id104 id105 id106 id107 id108 id109 id110 id111 id112 id113 id114 id115 id116 id117 id118 id119 id120 id121 id122 id123 id124 id125 id126 id127 id128 id129 id130 id131 id132 id133 id134 id135 id136 id137 id138 id139 id140 id141 id142 id143 id144 id145 id146 id147 id148 id149 id150"
       ooo:slide="id1" /></defs><defs
     id="defs38"
     class="EmbeddedBulletChars"><g
       transform="matrix(4.8828125e-4,0,0,-4.8828125e-4,0,0)"
       id="bullet-char-template(57356)"><path
         id="path11"
         d="M 580,1141 1163,571 580,0 -4,571 Z"
         inkscape:connector-curvature="0" /></g><g
       transform="matrix(4.8828125e-4,0,0,-4.8828125e-4,0,0)"
       id="bullet-char-template(57354)"><path
         id="path14"
         d="M 8,1128 H 1137 V 0 H 8 Z"
         inkscape:connector-curvature="0" /></g><g
       transform="matrix(4.8828125e-4,0,0,-4.8828125e-4,0,0)"
       id="bullet-char-template(10146)"><path
         id="path17"
         d="M 174,0 602,739 174,1481 1456,739 Z M 1358,739 309,1346 659,739 Z"
         inkscape:connector-curvature="0" /></g><g
       transform="matrix(4.8828125e-4,0,0,-4.8828125e-4,0,0)"
       id="bullet-char-template(10132)"><path
         id="path20"
         d="M 2015,739 1276,0 H 717 l 543,543 H 174 v 393 h 1086 l -543,545 h 557 z"
         inkscape:connector-curvature="0" /></g><g
       transform="matrix(4.8828125e-4,0,0,-4.8828125e-4,0,0)"
       id="bullet-char-template(10007)"><path
         id="path23"
         d="m 0,-2 c -7,16 -16,29 -25,39 l 381,530 c -94,256 -141,385 -141,387 0,25 13,38 40,38 9,0 21,-2 34,-5 21,4 42,12 65,25 l 27,-13 111,-251 280,301 64,-25 24,25 c 21,-10 41,-24 62,-43 C 886,937 835,863 770,784 769,783 710,716 594,584 L 774,223 c 0,-27 -21,-55 -63,-84 l 16,-20 C 717,90 699,76 672,76 641,76 570,178 457,381 L 164,-76 c -22,-34 -53,-51 -92,-51 -42,0 -63,17 -64,51 -7,9 -10,24 -10,44 0,9 1,19 2,30 z"
         inkscape:connector-curvature="0" /></g><g
       transform="matrix(4.8828125e-4,0,0,-4.8828125e-4,0,0)"
       id="bullet-char-template(10004)"><path
         id="path26"
         d="M 285,-33 C 182,-33 111,30 74,156 52,228 41,333 41,471 c 0,78 14,145 41,201 34,71 87,106 158,106 53,0 88,-31 106,-94 l 23,-176 c 8,-64 28,-97 59,-98 l 735,706 c 11,11 33,17 66,17 42,0 63,-15 63,-46 V 965 c 0,-36 -10,-64 -30,-84 L 442,47 C 390,-6 338,-33 285,-33 Z"
         inkscape:connector-curvature="0" /></g><g
       transform="matrix(4.8828125e-4,0,0,-4.8828125e-4,0,0)"
       id="bullet-char-template(9679)"><path
         id="path29"
         d="M 813,0 C 632,0 489,54 383,161 276,268 223,411 223,592 c 0,181 53,324 160,431 106,107 249,161 430,161 179,0 323,-54 432,-161 108,-107 162,-251 162,-431 0,-180 -54,-324 -162,-431 C 1136,54 992,0 813,0 Z"
         inkscape:connector-curvature="0" /></g><g
       transform="matrix(4.8828125e-4,0,0,-4.8828125e-4,0,0)"
       id="bullet-char-template(8226)"><path
         id="path32"
         d="m 346,457 c -73,0 -137,26 -191,78 -54,51 -81,114 -81,188 0,73 27,136 81,188 54,52 118,78 191,78 73,0 134,-26 185,-79 51,-51 77,-114 77,-187 0,-75 -25,-137 -76,-188 -50,-52 -112,-78 -186,-78 z"
         inkscape:connector-curvature="0" /></g><g
       transform="matrix(4.8828125e-4,0,0,-4.8828125e-4,0,0)"
       id="bullet-char-template(8211)"><path
         id="path35"
         d="M -4,459 H 1135 V 606 H -4 Z"
         inkscape:connector-curvature="0" /></g></defs><defs
     id="defs40"
     class="TextEmbeddedBitmaps" /><g
     id="g45"
     transform="translate(-15874.5,-1386.8546)"><g
       class="Master_Slide"
       id="id2"><g
         class="Background"
         id="bg-id2" /><g
         class="BackgroundObjects"
         id="bo-id2" /></g></g><g
     transform="translate(-15874.5,94.812385)"
     id="g4331"
     class="Graphic"><g
       id="id148"><rect
         style="fill:none;stroke:none"
         id="rect4208"
         height="8671"
         width="14767"
         y="999"
         x="15875"
         class="BoundingBox" /><path
         style="fill:none;stroke:#000000;stroke-width:35;stroke-linejoin:miter"
         inkscape:connector-curvature="0"
         id="path4210"
         d="m 15892,8382 v 0 c 0,233 54,432 171,635 117,202 262,347 464,464 203,117 402,171 635,171" /><path
         style="fill:none;stroke:#000000;stroke-width:35;stroke-linejoin:miter"
         inkscape:connector-curvature="0"
         id="path4212"
         d="M 29354,9652 H 17162" /><path
         style="fill:none;stroke:#000000;stroke-width:35;stroke-linejoin:miter"
         inkscape:connector-curvature="0"
         id="path4214"
         d="m 29354,9652 v 0 c 233,0 432,-54 635,-171 202,-117 347,-262 464,-464 117,-203 171,-402 171,-635 v 0" /><path
         style="fill:none;stroke:#000000;stroke-width:35;stroke-linejoin:miter"
         inkscape:connector-curvature="0"
         id="path4216"
         d="M 30624,2286 V 8382" /><path
         style="fill:none;stroke:#000000;stroke-width:35;stroke-linejoin:miter"
         inkscape:connector-curvature="0"
         id="path4218"
         d="m 30624,2286 v 0 c 0,-233 -54,-432 -171,-635 -117,-202 -262,-347 -464,-464 -203,-117 -402,-171 -635,-171" /><path
         style="fill:none;stroke:#000000;stroke-width:35;stroke-linejoin:miter"
         inkscape:connector-curvature="0"
         id="path4220"
         d="M 17162,1016 H 29354" /><path
         style="fill:none;stroke:#000000;stroke-width:35;stroke-linejoin:miter"
         inkscape:connector-curvature="0"
         id="path4222"
         d="m 17162,1016 v 0 c -233,0 -432,54 -635,171 -202,117 -347,262 -464,464 -117,203 -171,402 -171,635" /><path
         style="fill:none;stroke:#000000;stroke-width:35;stroke-linejoin:miter"
         inkscape:connector-curvature="0"
         id="path4224"
         d="M 15892,8382 V 2286" /><path
         style="fill:none;stroke:#000000;stroke-width:35;stroke-linejoin:miter"
         inkscape:connector-curvature="0"
         id="path4226"
         d="m 23385,2286 h 1270" /><path
         style="fill:none;stroke:#000000;stroke-width:35;stroke-linejoin:miter"
         inkscape:connector-curvature="0"
         id="path4228"
         d="m 23131,2286 v 0 c 0,24 5,44 17,64 12,20 26,35 47,46 20,12 40,17 63,17 23,0 43,-5 63,-17 21,-11 35,-26 47,-46 12,-20 17,-40 17,-64 v 0" /><path
         style="fill:none;stroke:#000000;stroke-width:35;stroke-linejoin:miter"
         inkscape:connector-curvature="0"
         id="path4230"
         d="m 21861,2286 h 1270" /><path
         style="fill:none;stroke:#000000;stroke-width:35;stroke-linejoin:miter"
         inkscape:connector-curvature="0"
         id="path4232"
         d="m 21607,2286 v 0 c 0,0 0,0 0,0 0,24 5,44 17,64 12,20 26,35 47,46 20,12 40,17 63,17 23,0 43,-5 64,-17 20,-11 34,-26 46,-46 12,-20 17,-40 17,-64 0,0 0,0 0,0" /><path
         style="fill:none;stroke:#000000;stroke-width:35;stroke-linejoin:miter"
         inkscape:connector-curvature="0"
         id="path4234"
         d="m 20337,2286 h 1270" /><path
         style="fill:none;stroke:#000000;stroke-width:35;stroke-linejoin:miter"
         inkscape:connector-curvature="0"
         id="path4236"
         d="m 20083,2286 v 0 c 0,0 0,0 0,0 0,24 6,44 17,64 12,20 26,35 47,46 20,12 40,17 63,17 24,0 43,-5 64,-17 20,-11 34,-26 46,-46 12,-20 17,-40 17,-64 0,0 0,0 0,0" /><path
         style="fill:none;stroke:#000000;stroke-width:35;stroke-linejoin:miter"
         inkscape:connector-curvature="0"
         id="path4238"
         d="m 18813,2286 h 1270" /><path
         style="fill:none;stroke:#000000;stroke-width:35;stroke-linejoin:miter"
         inkscape:connector-curvature="0"
         id="path4240"
         d="m 18559,2286 v 0 c 0,0 0,0 0,0 0,24 6,44 17,64 12,20 27,35 47,46 20,12 40,17 63,17 24,0 44,-5 64,-17 20,-11 35,-26 46,-46 12,-20 17,-40 17,-64 0,0 0,0 0,0" /><path
         style="fill:none;stroke:#000000;stroke-width:35;stroke-linejoin:miter"
         inkscape:connector-curvature="0"
         id="path4242"
         d="m 17289,2286 h 1270" /><path
         style="fill:none;stroke:#000000;stroke-width:35;stroke-linejoin:miter"
         inkscape:connector-curvature="0"
         id="path4244"
         d="m 17162,2413 v 0 0 c 24,0 44,-5 64,-17 20,-11 35,-26 46,-46 12,-20 17,-40 17,-64 v 0" /><path
         style="fill:none;stroke:#000000;stroke-width:35;stroke-linejoin:miter"
         inkscape:connector-curvature="0"
         id="path4246"
         d="M 17162,3683 V 2413" /><path
         style="fill:none;stroke:#000000;stroke-width:35;stroke-linejoin:miter"
         inkscape:connector-curvature="0"
         id="path4248"
         d="m 17162,3937 v 0 c 24,0 44,-5 64,-17 20,-12 35,-26 46,-46 12,-21 17,-40 17,-64 0,-23 -5,-43 -17,-63 -11,-21 -26,-35 -46,-47 -20,-11 -40,-17 -64,-17" /><path
         style="fill:none;stroke:#000000;stroke-width:35;stroke-linejoin:miter"
         inkscape:connector-curvature="0"
         id="path4250"
         d="M 17162,5207 V 3937" /><path
         style="fill:none;stroke:#000000;stroke-width:35;stroke-linejoin:miter"
         inkscape:connector-curvature="0"
         id="path4252"
         d="m 17162,5461 v 0 c 24,0 44,-5 64,-17 20,-12 35,-26 46,-47 12,-20 17,-40 17,-63 0,-23 -5,-43 -17,-63 -11,-21 -26,-35 -46,-47 -20,-12 -40,-17 -64,-17" /><path
         style="fill:none;stroke:#000000;stroke-width:35;stroke-linejoin:miter"
         inkscape:connector-curvature="0"
         id="path4254"
         d="M 17162,6731 V 5461" /><path
         style="fill:none;stroke:#000000;stroke-width:35;stroke-linejoin:miter"
         inkscape:connector-curvature="0"
         id="path4256"
         d="m 17162,6985 v 0 c 0,0 0,0 0,0 24,0 44,-6 64,-17 20,-12 35,-26 46,-47 12,-20 17,-40 17,-63 0,-24 -5,-43 -17,-64 -11,-20 -26,-34 -46,-46 -20,-12 -40,-17 -64,-17 0,0 0,0 0,0" /><path
         style="fill:none;stroke:#000000;stroke-width:35;stroke-linejoin:miter"
         inkscape:connector-curvature="0"
         id="path4258"
         d="M 17162,8255 V 6985" /><path
         style="fill:none;stroke:#000000;stroke-width:35;stroke-linejoin:miter"
         inkscape:connector-curvature="0"
         id="path4260"
         d="m 17289,8382 v 0 c 0,-24 -5,-44 -17,-64 -11,-20 -26,-35 -46,-46 -20,-12 -40,-17 -64,-17 v 0" /><path
         style="fill:none;stroke:#000000;stroke-width:35;stroke-linejoin:miter"
         inkscape:connector-curvature="0"
         id="path4262"
         d="M 18559,8382 H 17289" /><path
         style="fill:none;stroke:#000000;stroke-width:35;stroke-linejoin:miter"
         inkscape:connector-curvature="0"
         id="path4264"
         d="m 18813,8382 v 0 c 0,0 0,0 0,0 0,-24 -5,-44 -17,-64 -11,-20 -26,-35 -46,-46 -20,-12 -40,-17 -64,-17 -23,0 -43,5 -63,17 -20,11 -35,26 -47,46 -11,20 -17,40 -17,64 0,0 0,0 0,0" /><path
         style="fill:none;stroke:#000000;stroke-width:35;stroke-linejoin:miter"
         inkscape:connector-curvature="0"
         id="path4266"
         d="M 20083,8382 H 18813" /><path
         style="fill:none;stroke:#000000;stroke-width:35;stroke-linejoin:miter"
         inkscape:connector-curvature="0"
         id="path4268"
         d="m 20337,8382 v 0 c 0,0 0,0 0,0 0,-24 -5,-44 -17,-64 -12,-20 -26,-35 -46,-46 -21,-12 -40,-17 -64,-17 -23,0 -43,5 -63,17 -21,11 -35,26 -47,46 -11,20 -17,40 -17,64 0,0 0,0 0,0" /><path
         style="fill:none;stroke:#000000;stroke-width:35;stroke-linejoin:miter"
         inkscape:connector-curvature="0"
         id="path4270"
         d="M 21607,8382 H 20337" /><path
         style="fill:none;stroke:#000000;stroke-width:35;stroke-linejoin:miter"
         inkscape:connector-curvature="0"
         id="path4272"
         d="m 21861,8382 v 0 c 0,-24 -5,-44 -17,-64 -12,-20 -26,-35 -46,-46 -21,-12 -41,-17 -64,-17 -23,0 -43,5 -63,17 -21,11 -35,26 -47,46 -12,20 -17,40 -17,64" /><path
         style="fill:none;stroke:#000000;stroke-width:35;stroke-linejoin:miter"
         inkscape:connector-curvature="0"
         id="path4274"
         d="M 23131,8382 H 21861" /><path
         style="fill:none;stroke:#000000;stroke-width:35;stroke-linejoin:miter"
         inkscape:connector-curvature="0"
         id="path4276"
         d="m 23385,8382 v 0 c 0,-24 -5,-44 -17,-64 -12,-20 -26,-35 -47,-46 -20,-12 -40,-17 -63,-17 -23,0 -43,5 -63,17 -21,11 -35,26 -47,46 -12,20 -17,40 -17,64" /><path
         style="fill:none;stroke:#000000;stroke-width:35;stroke-linejoin:miter"
         inkscape:connector-curvature="0"
         id="path4278"
         d="M 24655,8382 H 23385" /><path
         style="fill:none;stroke:#000000;stroke-width:35;stroke-linejoin:miter"
         inkscape:connector-curvature="0"
         id="path4280"
         d="m 24909,8382 v 0 c 0,0 0,0 0,0 0,-24 -5,-44 -17,-64 -12,-20 -26,-35 -47,-46 -20,-12 -40,-17 -63,-17 -23,0 -43,5 -64,17 -20,11 -34,26 -46,46 -12,20 -17,40 -17,64 0,0 0,0 0,0" /><path
         style="fill:none;stroke:#000000;stroke-width:35;stroke-linejoin:miter"
         inkscape:connector-curvature="0"
         id="path4282"
         d="M 26179,8382 H 24909" /><path
         style="fill:none;stroke:#000000;stroke-width:35;stroke-linejoin:miter"
         inkscape:connector-curvature="0"
         id="path4284"
         d="m 26433,8382 v 0 c 0,0 0,0 0,0 0,-24 -6,-44 -17,-64 -12,-20 -26,-35 -47,-46 -20,-12 -40,-17 -63,-17 -24,0 -43,5 -64,17 -20,11 -34,26 -46,46 -12,20 -17,40 -17,64 0,0 0,0 0,0" /><path
         style="fill:none;stroke:#000000;stroke-width:35;stroke-linejoin:miter"
         inkscape:connector-curvature="0"
         id="path4286"
         d="M 27703,8382 H 26433" /><path
         style="fill:none;stroke:#000000;stroke-width:35;stroke-linejoin:miter"
         inkscape:connector-curvature="0"
         id="path4288"
         d="m 27957,8382 v 0 c 0,0 0,0 0,0 0,-24 -6,-44 -17,-64 -12,-20 -27,-35 -47,-46 -20,-12 -40,-17 -63,-17 -24,0 -44,5 -64,17 -20,11 -35,26 -46,46 -12,20 -17,40 -17,64 0,0 0,0 0,0" /><path
         style="fill:none;stroke:#000000;stroke-width:35;stroke-linejoin:miter"
         inkscape:connector-curvature="0"
         id="path4290"
         d="M 29227,8382 H 27957" /><path
         style="fill:none;stroke:#000000;stroke-width:35;stroke-linejoin:miter"
         inkscape:connector-curvature="0"
         id="path4292"
         d="m 29354,8255 v 0 0 c -24,0 -44,5 -64,17 -20,11 -35,26 -46,46 -12,20 -17,40 -17,64" /><path
         style="fill:none;stroke:#000000;stroke-width:35;stroke-linejoin:miter"
         inkscape:connector-curvature="0"
         id="path4294"
         d="M 29354,6985 V 8255" /><path
         style="fill:none;stroke:#000000;stroke-width:35;stroke-linejoin:miter"
         inkscape:connector-curvature="0"
         id="path4296"
         d="m 29354,6731 v 0 c -24,0 -44,5 -64,17 -20,12 -35,26 -46,46 -12,21 -17,40 -17,64 0,23 5,43 17,63 11,21 26,35 46,47 20,11 40,17 64,17" /><path
         style="fill:none;stroke:#000000;stroke-width:35;stroke-linejoin:miter"
         inkscape:connector-curvature="0"
         id="path4298"
         d="M 29354,5461 V 6731" /><path
         style="fill:none;stroke:#000000;stroke-width:35;stroke-linejoin:miter"
         inkscape:connector-curvature="0"
         id="path4300"
         d="m 29354,5207 v 0 c -24,0 -44,5 -64,17 -20,12 -35,26 -46,47 -12,20 -17,40 -17,63 0,23 5,43 17,63 11,21 26,35 46,47 20,12 40,17 64,17" /><path
         style="fill:none;stroke:#000000;stroke-width:35;stroke-linejoin:miter"
         inkscape:connector-curvature="0"
         id="path4302"
         d="M 29354,3937 V 5207" /><path
         style="fill:none;stroke:#000000;stroke-width:35;stroke-linejoin:miter"
         inkscape:connector-curvature="0"
         id="path4304"
         d="m 29354,3683 v 0 c -24,0 -44,6 -64,17 -20,12 -35,26 -46,47 -12,20 -17,40 -17,63 0,24 5,43 17,64 11,20 26,34 46,46 20,12 40,17 64,17" /><path
         style="fill:none;stroke:#000000;stroke-width:35;stroke-linejoin:miter"
         inkscape:connector-curvature="0"
         id="path4306"
         d="M 29354,2413 V 3683" /><path
         style="fill:none;stroke:#000000;stroke-width:35;stroke-linejoin:miter"
         inkscape:connector-curvature="0"
         id="path4308"
         d="m 29227,2286 v 0 c 0,24 5,44 17,64 11,20 26,35 46,46 20,12 40,17 64,17 v 0" /><path
         style="fill:none;stroke:#000000;stroke-width:35;stroke-linejoin:miter"
         inkscape:connector-curvature="0"
         id="path4310"
         d="m 27957,2286 h 1270" /><path
         style="fill:none;stroke:#000000;stroke-width:35;stroke-linejoin:miter"
         inkscape:connector-curvature="0"
         id="path4312"
         d="m 27703,2286 v 0 c 0,0 0,0 0,0 0,24 5,44 17,64 11,20 26,35 46,46 20,12 40,17 64,17 23,0 43,-5 63,-17 20,-11 35,-26 47,-46 11,-20 17,-40 17,-64 0,0 0,0 0,0" /><path
         style="fill:none;stroke:#000000;stroke-width:35;stroke-linejoin:miter"
         inkscape:connector-curvature="0"
         id="path4314"
         d="m 26433,2286 h 1270" /><path
         style="fill:none;stroke:#000000;stroke-width:35;stroke-linejoin:miter"
         inkscape:connector-curvature="0"
         id="path4316"
         d="m 26179,2286 v 0 c 0,0 0,0 0,0 0,24 5,44 17,64 12,20 26,35 46,46 21,12 40,17 64,17 23,0 43,-5 63,-17 21,-11 35,-26 47,-46 11,-20 17,-40 17,-64 0,0 0,0 0,0" /><path
         style="fill:none;stroke:#000000;stroke-width:35;stroke-linejoin:miter"
         inkscape:connector-curvature="0"
         id="path4318"
         d="m 24909,2286 h 1270" /><path
         style="fill:none;stroke:#000000;stroke-width:35;stroke-linejoin:miter"
         inkscape:connector-curvature="0"
         id="path4320"
         d="m 24655,2286 v 0 c 0,24 5,44 17,64 12,20 26,35 46,46 21,12 41,17 64,17 23,0 43,-5 63,-17 21,-11 35,-26 47,-46 12,-20 17,-40 17,-64 v 0" /><path
         style="fill:none;stroke:#000000;stroke-width:35;stroke-linejoin:miter"
         inkscape:connector-curvature="0"
         id="path4322"
         d="m 29760,2032 c 0,-28 -6,-52 -20,-76 -14,-24 -32,-42 -56,-56 -25,-14 -48,-20 -76,-20 -28,0 -52,6 -77,20 -24,14 -41,32 -55,56 -14,24 -21,48 -21,76 0,28 7,52 21,77 14,24 31,41 55,55 25,14 49,21 77,21 28,0 51,-7 76,-21 24,-14 42,-31 56,-55 14,-25 20,-49 20,-77 z" /><path
         style="fill:none;stroke:#000000;stroke-width:35;stroke-linejoin:miter"
         inkscape:connector-curvature="0"
         id="path4324"
         d="m 29760,8636 c 0,-28 -6,-52 -20,-77 -14,-24 -32,-41 -56,-55 -25,-14 -48,-21 -76,-21 -28,0 -52,7 -77,21 -24,14 -41,31 -55,55 -14,25 -21,49 -21,77 0,28 7,52 21,76 14,24 31,42 55,56 25,14 49,20 77,20 28,0 51,-6 76,-20 24,-14 42,-32 56,-56 14,-24 20,-48 20,-76 z" /><path
         style="fill:none;stroke:#000000;stroke-width:35;stroke-linejoin:miter"
         inkscape:connector-curvature="0"
         id="path4326"
         d="m 17061,8636 c 0,-28 -7,-52 -21,-77 -14,-24 -31,-41 -55,-55 -25,-14 -49,-21 -77,-21 -28,0 -51,7 -76,21 -24,14 -42,31 -56,55 -14,25 -20,49 -20,77 0,28 6,52 20,76 14,24 32,42 56,56 25,14 48,20 76,20 28,0 52,-6 77,-20 24,-14 41,-32 55,-56 14,-24 21,-48 21,-76 z" /><path
         style="fill:none;stroke:#000000;stroke-width:35;stroke-linejoin:miter"
         inkscape:connector-curvature="0"
         id="path4328"
         d="m 17061,2032 c 0,-28 -7,-52 -21,-76 -14,-24 -31,-42 -55,-56 -25,-14 -49,-20 -77,-20 -28,0 -51,6 -76,20 -24,14 -42,32 -56,56 -14,24 -20,48 -20,76 0,28 6,52 20,77 14,24 32,41 56,55 25,14 48,21 76,21 28,0 52,-7 77,-21 24,-14 41,-31 55,-55 14,-25 21,-49 21,-77 z" /></g></g><text
     id="text16333"
     y="2731.6917"
     x="16017.979"
     style="font-style:normal;font-weight:normal;font-size:282.222229px;line-height:291.04165649px;font-family:sans-serif;letter-spacing:0px;word-spacing:0px;fill:#000000;fill-opacity:1;stroke:none;stroke-width:26.45833206px;stroke-linecap:butt;stroke-linejoin:miter;stroke-opacity:1"
     xml:space="preserve"><tspan
       style="fill:#ff0000;fill-opacity:1;stroke-width:26.45833206px"
       y="2731.6917"
       x="16017.979"
       id="tspan16331"
       sodipodi:role="line">BLACK ACRYLIC</tspan><tspan
       id="tspan16335"
       style="fill:#ff0000;fill-opacity:1;stroke-width:26.45833206px"
       y="3022.7334"
       x="16017.979"
       sodipodi:role="line">3mm</tspan></text>
<path
     inkscape:connector-curvature="0"
     id="path16337"
     d="M 17.509,634.56103 H 14759.276"
     style="color:#000000;clip-rule:nonzero;display:inline;overflow:visible;visibility:visible;opacity:1;isolation:auto;mix-blend-mode:normal;color-interpolation:sRGB;color-interpolation-filters:linearRGB;solid-color:#000000;solid-opacity:1;fill:#ff0000;fill-opacity:1;fill-rule:nonzero;stroke:#ff0000;stroke-width:26.46710396;stroke-linecap:butt;stroke-linejoin:miter;stroke-miterlimit:4;stroke-dasharray:none;stroke-dashoffset:0;stroke-opacity:1;marker-start:url(#Arrow1Lstart);marker-end:url(#Arrow1Lend);color-rendering:auto;image-rendering:auto;shape-rendering:auto;text-rendering:auto;enable-background:accumulate" /><text
     id="text16937"
     y="0"
     x="0"
     transform="translate(-507.74239,-89.095542)"><textPath
       id="textPath16935"
       dy="-6"
       startOffset="50%"
       xlink:href="#path16337"
       style="font-style:normal;font-weight:normal;font-size:317.5px;text-align:center;text-anchor:start;fill:#ff0000;fill-opacity:1;stroke:none">147.7 mm</textPath></text>
</svg>