<?xml version="1.0" encoding="UTF-8" standalone="no"?>
<svg
   xmlns:ooo="http://xml.openoffice.org/svg/export"
   xmlns:dc="http://purl.org/dc/elements/1.1/"
   xmlns:cc="http://creativecommons.org/ns#"
   xmlns:rdf="http://www.w3.org/1999/02/22-rdf-syntax-ns#"
   xmlns:svg="http://www.w3.org/2000/svg"
   xmlns="http://www.w3.org/2000/svg"
   xmlns:xlink="http://www.w3.org/1999/xlink"
   xmlns:sodipodi="http://sodipodi.sourceforge.net/DTD/sodipodi-0.dtd"
   xmlns:inkscape="http://www.inkscape.org/namespaces/inkscape"
   style="fill-rule:evenodd;stroke-width:28.22200012;stroke-linejoin:round"
   inkscape:version="0.92.2 (unknown)"
   sodipodi:docname="desk_klok_FlexBox_back.svg"
   id="svg4526"
   xml:space="preserve"
   preserveAspectRatio="xMidYMid"
   viewBox="0 0 24401.499 10351.989"
   height="103.51989mm"
   width="244.015mm"
   version="1.2"><sodipodi:namedview
     fit-margin-bottom="0"
     fit-margin-right="0"
     fit-margin-left="0"
     fit-margin-top="0"
     inkscape:current-layer="svg4526"
     inkscape:window-maximized="1"
     inkscape:window-y="30"
     inkscape:window-x="0"
     inkscape:cy="117.66697"
     inkscape:cx="390.30609"
     inkscape:zoom="0.89845659"
     showgrid="false"
     id="namedview4528"
     inkscape:window-height="1050"
     inkscape:window-width="1920"
     inkscape:pageshadow="2"
     inkscape:pageopacity="0"
     guidetolerance="10"
     gridtolerance="10"
     objecttolerance="10"
     borderopacity="1"
     bordercolor="#666666"
     pagecolor="#ffffff" /><metadata
     id="metadata4530"><rdf:RDF><cc:Work
         rdf:about=""><dc:format>image/svg+xml</dc:format><dc:type
           rdf:resource="http://purl.org/dc/dcmitype/StillImage" /><dc:title></dc:title></cc:Work></rdf:RDF></metadata><defs
     class="ClipPathGroup"
     id="defs5"><marker
       inkscape:stockid="Arrow1Lend"
       orient="auto"
       refY="0.0"
       refX="0.0"
       id="Arrow1Lend"
       style="overflow:visible;"
       inkscape:isstock="true"><path
         id="path17829"
         d="M 0.0,0.0 L 5.0,-5.0 L -12.5,0.0 L 5.0,5.0 L 0.0,0.0 z "
         style="fill-rule:evenodd;stroke:#ff0000;stroke-width:1pt;stroke-opacity:1;fill:#ff0000;fill-opacity:1"
         transform="scale(0.8) rotate(180) translate(12.5,0)" /></marker><marker
       inkscape:stockid="Arrow1Lstart"
       orient="auto"
       refY="0.0"
       refX="0.0"
       id="Arrow1Lstart"
       style="overflow:visible"
       inkscape:isstock="true"><path
         id="path17826"
         d="M 0.0,0.0 L 5.0,-5.0 L -12.5,0.0 L 5.0,5.0 L 0.0,0.0 z "
         style="fill-rule:evenodd;stroke:#ff0000;stroke-width:1pt;stroke-opacity:1;fill:#ff0000;fill-opacity:1"
         transform="scale(0.8) translate(12.5,0)" /></marker><clipPath
       id="presentation_clip_path"
       clipPathUnits="userSpaceOnUse"><rect
         x="0"
         y="0"
         width="45720"
         height="25400"
         id="rect2" /></clipPath></defs><defs
     class="TextShapeIndex"
     id="defs9"><g
       ooo:slide="id1"
       ooo:id-list="id3 id4 id5 id6 id7 id8 id9 id10 id11 id12 id13 id14 id15 id16 id17 id18 id19 id20 id21 id22 id23 id24 id25 id26 id27 id28 id29 id30 id31 id32 id33 id34 id35 id36 id37 id38 id39 id40 id41 id42 id43 id44 id45 id46 id47 id48 id49 id50 id51 id52 id53 id54 id55 id56 id57 id58 id59 id60 id61 id62 id63 id64 id65 id66 id67 id68 id69 id70 id71 id72 id73 id74 id75 id76 id77 id78 id79 id80 id81 id82 id83 id84 id85 id86 id87 id88 id89 id90 id91 id92 id93 id94 id95 id96 id97 id98 id99 id100 id101 id102 id103 id104 id105 id106 id107 id108 id109 id110 id111 id112 id113 id114 id115 id116 id117 id118 id119 id120 id121 id122 id123 id124 id125 id126 id127 id128 id129 id130 id131 id132 id133 id134 id135 id136 id137 id138 id139 id140 id141 id142 id143 id144 id145 id146 id147 id148 id149 id150"
       id="g7" /></defs><defs
     class="EmbeddedBulletChars"
     id="defs38"><g
       id="bullet-char-template(57356)"
       transform="matrix(4.8828125e-4,0,0,-4.8828125e-4,0,0)"><path
         d="M 580,1141 1163,571 580,0 -4,571 Z"
         id="path11"
         inkscape:connector-curvature="0" /></g><g
       id="bullet-char-template(57354)"
       transform="matrix(4.8828125e-4,0,0,-4.8828125e-4,0,0)"><path
         d="M 8,1128 H 1137 V 0 H 8 Z"
         id="path14"
         inkscape:connector-curvature="0" /></g><g
       id="bullet-char-template(10146)"
       transform="matrix(4.8828125e-4,0,0,-4.8828125e-4,0,0)"><path
         d="M 174,0 602,739 174,1481 1456,739 Z M 1358,739 309,1346 659,739 Z"
         id="path17"
         inkscape:connector-curvature="0" /></g><g
       id="bullet-char-template(10132)"
       transform="matrix(4.8828125e-4,0,0,-4.8828125e-4,0,0)"><path
         d="M 2015,739 1276,0 H 717 l 543,543 H 174 v 393 h 1086 l -543,545 h 557 z"
         id="path20"
         inkscape:connector-curvature="0" /></g><g
       id="bullet-char-template(10007)"
       transform="matrix(4.8828125e-4,0,0,-4.8828125e-4,0,0)"><path
         d="m 0,-2 c -7,16 -16,29 -25,39 l 381,530 c -94,256 -141,385 -141,387 0,25 13,38 40,38 9,0 21,-2 34,-5 21,4 42,12 65,25 l 27,-13 111,-251 280,301 64,-25 24,25 c 21,-10 41,-24 62,-43 C 886,937 835,863 770,784 769,783 710,716 594,584 L 774,223 c 0,-27 -21,-55 -63,-84 l 16,-20 C 717,90 699,76 672,76 641,76 570,178 457,381 L 164,-76 c -22,-34 -53,-51 -92,-51 -42,0 -63,17 -64,51 -7,9 -10,24 -10,44 0,9 1,19 2,30 z"
         id="path23"
         inkscape:connector-curvature="0" /></g><g
       id="bullet-char-template(10004)"
       transform="matrix(4.8828125e-4,0,0,-4.8828125e-4,0,0)"><path
         d="M 285,-33 C 182,-33 111,30 74,156 52,228 41,333 41,471 c 0,78 14,145 41,201 34,71 87,106 158,106 53,0 88,-31 106,-94 l 23,-176 c 8,-64 28,-97 59,-98 l 735,706 c 11,11 33,17 66,17 42,0 63,-15 63,-46 V 965 c 0,-36 -10,-64 -30,-84 L 442,47 C 390,-6 338,-33 285,-33 Z"
         id="path26"
         inkscape:connector-curvature="0" /></g><g
       id="bullet-char-template(9679)"
       transform="matrix(4.8828125e-4,0,0,-4.8828125e-4,0,0)"><path
         d="M 813,0 C 632,0 489,54 383,161 276,268 223,411 223,592 c 0,181 53,324 160,431 106,107 249,161 430,161 179,0 323,-54 432,-161 108,-107 162,-251 162,-431 0,-180 -54,-324 -162,-431 C 1136,54 992,0 813,0 Z"
         id="path29"
         inkscape:connector-curvature="0" /></g><g
       id="bullet-char-template(8226)"
       transform="matrix(4.8828125e-4,0,0,-4.8828125e-4,0,0)"><path
         d="m 346,457 c -73,0 -137,26 -191,78 -54,51 -81,114 -81,188 0,73 27,136 81,188 54,52 118,78 191,78 73,0 134,-26 185,-79 51,-51 77,-114 77,-187 0,-75 -25,-137 -76,-188 -50,-52 -112,-78 -186,-78 z"
         id="path32"
         inkscape:connector-curvature="0" /></g><g
       id="bullet-char-template(8211)"
       transform="matrix(4.8828125e-4,0,0,-4.8828125e-4,0,0)"><path
         d="M -4,459 H 1135 V 606 H -4 Z"
         id="path35"
         inkscape:connector-curvature="0" /></g></defs><defs
     class="TextEmbeddedBitmaps"
     id="defs40" /><g
     id="id137"
     style="fill:none;fill-opacity:1"
     transform="translate(-15870,-9216.0109)" /><g
     style="fill:none;fill-opacity:1;stroke-width:10;stroke-miterlimit:4;stroke-dasharray:none"
     id="g2120"
     class="Group"
     transform="translate(-15870,-9216.0109)"><g
       style="fill:none;fill-opacity:1;stroke-width:10;stroke-miterlimit:4;stroke-dasharray:none"
       id="g2069"
       class="com.sun.star.drawing.ClosedBezierShape"><g
         style="fill:none;fill-opacity:1;stroke-width:10;stroke-miterlimit:4;stroke-dasharray:none"
         id="id138" /></g><g
       style="fill:none;fill-opacity:1;stroke-width:10;stroke-miterlimit:4;stroke-dasharray:none"
       id="g2076"
       class="com.sun.star.drawing.ClosedBezierShape"><g
         style="fill:none;fill-opacity:1;stroke-width:10;stroke-miterlimit:4;stroke-dasharray:none"
         id="id139" /></g><g
       style="fill:none;fill-opacity:1;stroke-width:10;stroke-miterlimit:4;stroke-dasharray:none"
       id="g2083"
       class="com.sun.star.drawing.ClosedBezierShape"><g
         style="fill:none;fill-opacity:1;stroke-width:10;stroke-miterlimit:4;stroke-dasharray:none"
         id="id140" /></g><g
       style="fill:none;fill-opacity:1;stroke-width:10;stroke-miterlimit:4;stroke-dasharray:none"
       id="g2090"
       class="com.sun.star.drawing.ClosedBezierShape"><g
         style="fill:none;fill-opacity:1;stroke-width:10;stroke-miterlimit:4;stroke-dasharray:none"
         id="id141" /></g><g
       style="fill:none;fill-opacity:1;stroke-width:10;stroke-miterlimit:4;stroke-dasharray:none"
       id="g2097"
       class="com.sun.star.drawing.ClosedBezierShape"><g
         style="fill:none;fill-opacity:1;stroke-width:10;stroke-miterlimit:4;stroke-dasharray:none"
         id="id142" /></g><g
       style="fill:none;fill-opacity:1;stroke-width:10;stroke-miterlimit:4;stroke-dasharray:none"
       id="g2104"
       class="com.sun.star.drawing.ClosedBezierShape"><g
         style="fill:none;fill-opacity:1;stroke-width:10;stroke-miterlimit:4;stroke-dasharray:none"
         id="id143" /></g><g
       style="fill:none;fill-opacity:1;stroke-width:10;stroke-miterlimit:4;stroke-dasharray:none"
       id="g2111"
       class="com.sun.star.drawing.ClosedBezierShape"><g
         style="fill:none;fill-opacity:1;stroke-width:10;stroke-miterlimit:4;stroke-dasharray:none"
         id="id144" /></g><g
       style="fill:none;fill-opacity:1;stroke-width:10;stroke-miterlimit:4;stroke-dasharray:none"
       id="g2118"
       class="com.sun.star.drawing.ClosedBezierShape"><g
         style="fill:none;fill-opacity:1;stroke-width:10;stroke-miterlimit:4;stroke-dasharray:none"
         id="id145"><path
           id="path2115"
           style="fill:none;fill-opacity:1;stroke:#000000;stroke-width:10;stroke-linejoin:miter;stroke-miterlimit:4;stroke-dasharray:none"
           d="m 17076,18237 c 0,28 -7,52 -21,76 -14,25 -31,42 -56,56 -24,14 -48,21 -76,21 -28,0 -52,-7 -77,-21 -24,-14 -41,-31 -56,-56 -14,-24 -20,-48 -20,-76 0,-28 6,-52 20,-77 15,-24 32,-41 56,-56 25,-14 49,-20 77,-20 28,0 52,6 76,20 25,15 42,32 56,56 14,25 21,49 21,77 z m 12700,0 c 0,28 -7,52 -21,76 -14,25 -31,42 -56,56 -24,14 -48,21 -76,21 -28,0 -52,-7 -77,-21 -24,-14 -41,-31 -56,-56 -14,-24 -20,-48 -20,-76 0,-28 6,-52 20,-77 15,-24 32,-41 56,-56 25,-14 49,-20 77,-20 28,0 52,6 76,20 25,15 42,32 56,56 14,25 21,49 21,77 z m 0,-6604 c 0,28 -7,52 -21,76 -14,25 -31,42 -56,56 -24,14 -48,21 -76,21 -28,0 -52,-7 -77,-21 -24,-14 -41,-31 -56,-56 -14,-24 -20,-48 -20,-76 0,-28 6,-52 20,-77 15,-24 32,-41 56,-56 25,-14 49,-20 77,-20 28,0 52,6 76,20 25,15 42,32 56,56 14,25 21,49 21,77 z m -4064,1016 c 0,28 -7,52 -21,76 -14,25 -31,42 -56,56 -24,14 -48,21 -76,21 -28,0 -52,-7 -77,-21 -24,-14 -41,-31 -56,-56 -14,-24 -20,-48 -20,-76 0,-28 6,-52 20,-77 15,-24 32,-41 56,-56 25,-14 49,-20 77,-20 28,0 52,6 76,20 25,15 42,32 56,56 14,25 21,49 21,77 z m 0,4572 c 0,28 -7,52 -21,76 -14,25 -31,42 -56,56 -24,14 -48,21 -76,21 -28,0 -52,-7 -77,-21 -24,-14 -41,-31 -56,-56 -14,-24 -20,-48 -20,-76 0,-28 6,-52 20,-77 15,-24 32,-41 56,-56 25,-14 49,-20 77,-20 28,0 52,6 76,20 25,15 42,32 56,56 14,25 21,49 21,77 z m -4572,0 c 0,28 -7,52 -21,76 -14,25 -31,42 -56,56 -24,14 -48,21 -76,21 -28,0 -52,-7 -77,-21 -24,-14 -41,-31 -56,-56 -14,-24 -20,-48 -20,-76 0,-28 6,-52 20,-77 15,-24 32,-41 56,-56 25,-14 49,-20 77,-20 28,0 52,6 76,20 25,15 42,32 56,56 14,25 21,49 21,77 z m -4064,-5588 c 0,28 -7,52 -21,76 -14,25 -31,42 -56,56 -24,14 -48,21 -76,21 -28,0 -52,-7 -77,-21 -24,-14 -41,-31 -56,-56 -14,-24 -20,-48 -20,-76 0,-28 6,-52 20,-77 15,-24 32,-41 56,-56 25,-14 49,-20 77,-20 28,0 52,6 76,20 25,15 42,32 56,56 14,25 21,49 21,77 z m 4064,1016 c 0,28 -7,52 -21,76 -14,25 -31,42 -56,56 -24,14 -48,21 -76,21 -28,0 -52,-7 -77,-21 -24,-14 -41,-31 -56,-56 -14,-24 -20,-48 -20,-76 0,-28 6,-52 20,-77 15,-24 32,-41 56,-56 25,-14 49,-20 77,-20 28,0 52,6 76,20 25,15 42,32 56,56 14,25 21,49 21,77 z m 9485,5335 v -949 m 0,0 c 0,6 -4,11 -10,11 m 0,0 h 300 c 6,0 10,-5 10,-11 m 0,0 v -600 c 0,-5 -4,-10 -10,-10 m 0,0 h -300 c 6,0 10,5 10,10 m 0,0 v -600 m 0,0 c 0,6 -4,10 -10,10 m 0,0 h 300 c 6,0 10,-4 10,-10 m 0,0 v -600 c 0,-5 -4,-10 -10,-10 m 0,0 h -300 c 6,0 10,4 10,10 m 0,0 v -600 m 0,0 c 0,6 -4,10 -10,10 m 0,0 h 300 c 6,0 10,-4 10,-10 m 0,0 v -600 c 0,-5 -4,-10 -10,-10 m 0,0 h -300 c 6,0 10,4 10,10 m 0,0 v -600 m 0,0 c 0,6 -4,10 -10,10 m 0,0 h 300 c 6,0 10,-4 10,-10 m 0,0 v -600 c 0,-5 -4,-10 -10,-10 m 0,0 h -300 c 6,0 10,4 10,10 m 0,0 v -948 c 0,-225 -59,-446 -171,-640 -113,-195 -274,-356 -469,-468 -194,-113 -415,-172 -640,-172 m 0,0 h -995 m 0,0 c 6,0 11,4 11,10 m 0,0 v -300 c 0,-5 -5,-10 -11,-10 m 0,0 h -600 c -5,0 -10,4 -10,10 m 0,0 v 300 c 0,-5 5,-10 10,-10 m 0,0 h -600 m 0,0 c 6,0 11,4 11,10 m 0,0 v -300 c 0,-5 -5,-10 -11,-10 m 0,0 h -600 c -5,0 -10,4 -10,10 m 0,0 v 300 c 0,-5 4,-10 10,-10 m 0,0 h -600 m 0,0 c 6,0 10,4 10,10 m 0,0 v -300 c 0,-5 -4,-10 -10,-10 m 0,0 h -600 c -5,0 -10,4 -10,10 m 0,0 v 300 c 0,-5 4,-10 10,-10 m 0,0 h -600 m 0,0 c 6,0 10,4 10,10 m 0,0 v -300 c 0,-5 -4,-10 -10,-10 m 0,0 h -600 c -5,0 -10,4 -10,10 m 0,0 v 300 c 0,-5 4,-10 10,-10 m 0,0 h -600 m 0,0 c 6,0 10,4 10,10 m 0,0 v -300 c 0,-5 -4,-10 -10,-10 m 0,0 h -600 c -5,0 -10,4 -10,10 m 0,0 v 300 c 0,-5 4,-10 10,-10 m 0,0 h -600 m 0,0 c 6,0 10,4 10,10 m 0,0 v -300 c 0,-5 -4,-10 -10,-10 m 0,0 h -600 c -5,0 -10,4 -10,10 m 0,0 v 300 c 0,-5 4,-10 10,-10 m 0,0 h -600 m 0,0 c 5,0 10,4 10,10 m 0,0 v -300 c 0,-5 -4,-10 -10,-10 m 0,0 h -600 c -6,0 -10,4 -10,10 m 0,0 v 300 c 0,-5 4,-10 10,-10 m 0,0 h -600 m 0,0 c 5,0 10,4 10,10 m 0,0 v -300 c 0,-5 -4,-10 -10,-10 m 0,0 h -600 c -6,0 -10,4 -10,10 m 0,0 v 300 c 0,-5 4,-10 10,-10 m 0,0 h -600 m 0,0 c 5,0 10,4 10,10 m 0,0 v -300 c 0,-5 -4,-10 -10,-10 m 0,0 h -600 c -6,0 -10,4 -10,10 m 0,0 v 300 c 0,-5 4,-10 10,-10 m 0,0 h -995 c -225,0 -446,59 -640,172 -195,112 -356,273 -469,468 -112,194 -171,415 -171,640 m 0,0 v 6097 c 0,224 59,445 171,640 113,194 274,356 469,468 194,112 415,171 640,171 -6,0 -10,-4 -10,-10 m 0,0 v 300 c 0,6 4,10 10,10 m 0,0 h 1200 c 5,0 10,-4 10,-10 m 0,0 v -300 c 0,6 -4,10 -10,10 m 0,0 h 1200 m 0,0 h 995 m 0,0 c -6,0 -10,-4 -10,-10 m 0,0 v 300 c 0,6 4,10 10,10 m 0,0 h 600 c 5,0 10,-4 10,-10 m 0,0 v -300 c 0,6 -4,10 -10,10 m 0,0 h 600 m 0,0 c -5,0 -10,-4 -10,-10 m 0,0 v 300 c 0,6 4,10 10,10 m 0,0 h 600 c 6,0 10,-4 10,-10 m 0,0 v -300 c 0,6 -4,10 -10,10 m 0,0 h 600 m 0,0 c -5,0 -10,-4 -10,-10 m 0,0 v 300 c 0,6 4,10 10,10 m 0,0 h 600 c 6,0 10,-4 10,-10 m 0,0 v -300 c 0,6 -4,10 -10,10 m 0,0 h 600 m 0,0 c -5,0 -10,-4 -10,-10 m 0,0 v 300 c 0,6 4,10 10,10 m 0,0 h 600 c 6,0 10,-4 10,-10 m 0,0 v -300 c 0,6 -4,10 -10,10 m 0,0 h 600 m 0,0 c -5,0 -10,-4 -10,-10 m 0,0 v 300 c 0,6 4,10 10,10 m 0,0 h 600 c 6,0 10,-4 10,-10 m 0,0 v -300 c 0,6 -4,10 -10,10 m 0,0 h 600 m 0,0 c -5,0 -10,-4 -10,-10 m 0,0 v 300 c 0,6 4,10 10,10 m 0,0 h 600 c 6,0 11,-4 11,-10 m 0,0 v -300 c 0,6 -5,10 -11,10 m 0,0 h 600 m 0,0 c -5,0 -10,-4 -10,-10 m 0,0 v 300 c 0,6 5,10 10,10 m 0,0 h 600 c 6,0 11,-4 11,-10 m 0,0 v -300 c 0,6 -5,10 -11,10 m 0,0 h 995 c 225,0 446,-59 640,-171 195,-113 357,-274 469,-468 112,-195 171,-416 171,-640"
           inkscape:connector-curvature="0"
           sodipodi:nodetypes="sccsccsccsccssccsccsccsccssccsccsccsccssccsccsccsccssccsccsccsccssccsccsccsccssccsccsccsccssccsccsccsccscccccsccscccccccccsccscccccccccsccscccccccccsccscccccsccccccccsccscccccccccsccscccccccccsccscccccccccsccscccccccccsccscccccccccsccscccccccccsccscccccccccsccscccccccccsccscccccsccccscccccsccscccccccccccsccscccccccccsccscccccccccsccscccccccccsccscccccccccsccscccccccccsccscccccccccsccscccccsccc" /></g></g></g><path
     id="path4514"
     style="fill:none;fill-opacity:1;stroke:#000000;stroke-width:10;stroke-linejoin:miter;stroke-miterlimit:4;stroke-dasharray:none"
     d="m 21856.5,5157.0771 v 0 c 35,0 65,-8 95,-26 30,-18 52,-39 70,-70 17,-30 25,-60 25,-95 m 0,0 v -228 m 191,-191 v 0 c -35,0 -65,8 -95,26 -31,17 -53,39 -70,69 -18,31 -26,61 -26,96 m 191,-191 h 82 m 0,0 26,-305 m 0,0 h 162 m 0,0 26,305 m 1482,0 h -1482 m 1482,762 v 0 c 70,0 129,-16 190,-51 61,-35 104,-79 139,-140 36,-60 52,-120 52,-190 0,-70 -16,-130 -52,-190 -35,-61 -78,-105 -139,-140 -61,-35 -120,-51 -190,-51 v 0 m -127,762 h 127 m -127,0 v 0 c -39,0 -72,9 -105,28 -34,19 -58,43 -77,77 -19,33 -28,66 -28,104 0,39 9,72 28,105 19,33 43,57 77,77 33,19 66,28 105,28 m 0,1015 v 0 c 93,0 173,-21 254,-68 81,-46 139,-105 185,-186 47,-80 69,-160 69,-253 0,-94 -22,-173 -69,-254 -46,-81 -104,-139 -185,-186 -81,-47 -161,-68 -254,-68 v 0 m 0,1015 -1354,64 m -25,305 25,-305 m -188,305 h 163 m -188,-305 25,305 m -490,-305 h 465 m -465,-381 v 0 c -35,0 -65,8 -95,26 -31,17 -53,39 -70,69 -18,31 -26,60 -26,95 0,35 8,65 26,96 17,30 39,52 70,69 30,18 60,26 95,26 m 2032,-381 h -2032 m 2032,0 v 0 c 35,0 64,-8 95,-26 30,-17 52,-39 70,-69 17,-31 25,-60 25,-95 0,-35 -8,-65 -25,-96 -18,-30 -40,-52 -70,-69 -31,-18 -60,-26 -95,-26 m -2032,0 h 2032 m -2032,0 h -3429 m 0,0 h -2032 m 0,0 v 0 c -35,0 -64,8 -95,26 -30,17 -52,39 -70,69 -17,31 -25,61 -25,96 0,35 8,64 25,95 18,30 40,52 70,69 31,18 60,26 95,26 m 0,0 h 2032 m 0,381 v 0 c 35,0 65,-8 95,-26 31,-17 53,-39 70,-69 18,-31 26,-61 26,-96 0,-35 -8,-64 -26,-95 -17,-30 -39,-52 -70,-69 -30,-18 -60,-26 -95,-26 m 0,381 h -465 m 0,0 -25,305 m 0,0 h -163 m 0,0 -25,-305 m -1354,-64 1354,64 m -1354,-1079 v 0 c -93,0 -173,21 -254,68 -81,47 -139,105 -185,186 -47,81 -69,160 -69,254 0,93 22,173 69,253 46,81 104,140 185,186 81,47 161,68 254,68 m 0,-1015 v 0 c 39,0 72,-9 105,-28 34,-20 58,-44 77,-77 19,-33 28,-66 28,-105 0,-38 -9,-71 -28,-104 -19,-34 -43,-58 -77,-77 -33,-19 -66,-28 -105,-28 m -127,0 h 127 m -127,-762 v 0 c -70,0 -129,16 -190,51 -61,35 -104,79 -139,140 -36,60 -52,120 -52,190 0,70 16,130 52,190 35,61 78,105 139,140 61,35 120,51 190,51 m 0,-762 h 1482 m 26,-305 -26,305 m 188,-305 h -162 m 188,305 -26,-305 m 108,305 h -82 m 273,191 v 0 c 0,-35 -8,-65 -26,-96 -17,-30 -39,-52 -70,-69 -30,-18 -60,-26 -95,-26 v 0 m 191,419 v -228 m 0,228 v 0 c 0,35 8,65 25,95 18,31 40,52 70,70 30,18 60,26 95,26 v 0 m 3429,0 h -3429"
     inkscape:connector-curvature="0"
     sodipodi:nodetypes="ccscccccccccccccccccccccscscsccccccccssccccccscsccccccccccccccccscccccccccscccccccccccccscccccccccscccccccccccccccscsccccccsscccccccscscsccccccccccccccccccccccscccc" /><path
     id="path4514-1"
     style="fill:none;fill-opacity:1;fill-rule:evenodd;stroke:#000000;stroke-width:10;stroke-linejoin:miter;stroke-miterlimit:4;stroke-dasharray:none"
     d="m 21856.499,8385.489 c -1143,0 -2286,0 -3429,0 m -190,-191 c -3.553,101.3855 88.789,193.6937 190,191 m -190,-191 c 0,-76 0,-152 0,-228 m 0,0 c 3.423,-101.8649 -89.598,-193.5785 -191,-191 m 0,0 c -27.333,0 -54.667,0 -82,0 m 0,0 c -8.667,-101.6667 -17.333,-203.3334 -26,-305.0001 m 0,0 c -54,0 -108,0 -162,0 m 0,0 c -8.667,101.6667 -17.333,203.3334 -26,305.0001 m -1482,0 c 494,0 988,0 1482,0 m -1482,0 c -444.43,-29.8258 -518.208,714.3956 -62.36,757.3758 l 62.36,4.6242 m 0,0 c 42.333,0 84.667,0 127,0 m 0,419 c 272.534,12.4891 272.873,-430.6738 0,-419 m 0,419 c -458.86,-39.4281 -696.966,660.2518 -310.609,909.922 88.691,66.8598 198.887,107.3914 310.609,105.0781 m 0,0 c 451.333,21.3333 902.667,42.6669 1354,63.9999 m 25,305 c -8.333,-101.667 -16.667,-203.333 -25,-305 m 188,305 c -54.333,0 -108.667,0 -163,0 m 188,-305 c -8.333,101.667 -16.667,203.333 -25,305 m 490,-305 c -155,0 -310,0 -465,0 m 465,0 c 246.378,10.532 246.872,-390.4028 0,-380.9999 m -2032,0 c 677.333,0 1354.667,0 2032,0 m -2032,-381.0001 c -245.585,-10.481 -246.034,390.3919 0,381.0001 m 2032,-381.0001 c -677.333,0 -1354.667,0 -2032,0 m 5461,0 c -1143,0 -2286,0 -3429,0 m 3429,0 c 677.333,0 1354.667,0 2032,0 m 0,381.0001 c 245.646,10.5241 245.981,-390.3169 0,-381.0001 m 0,381.0001 c -677.333,0 -1354.667,0 -2032,0 m 0,0 c -246.44,-10.5759 -246.818,390.3259 0,380.9999 m 0,0 c 155,0 310,0 465,0 m 0,0 c 8.333,101.667 16.667,203.333 25,305 m 0,0 c 54.333,0 108.667,0 163,0 m 0,0 c 8.333,-101.667 16.667,-203.333 25,-305 m 1354,-63.9999 c -451.333,21.3333 -902.667,42.6669 -1354,63.9999 m 1354,-63.9999 c 458.806,39.7379 697.062,-660.0075 310.609,-909.5001 -88.349,-67.5427 -198.879,-107.6654 -310.609,-105.5 m 0,-419 c -272.881,-12.7777 -272.545,430.3222 0,419 m 0,-419 c 42.333,0 84.667,0 127,0 m 0,0 c 444.43,29.8258 518.207,-714.3956 62.36,-757.3759 l -62.36,-4.6241 m 0,0 c -494,0 -988,0 -1482,0 m -26,-305.0001 c 8.667,101.6667 17.333,203.3334 26,305.0001 m -188,-305.0001 c 54,0 108,0 162,0 m -188,305.0001 c 8.667,-101.6667 17.333,-203.3334 26,-305.0001 m -108,305.0001 c 27.333,0 54.667,0 82,0 m -82,0 c -101.398,-2.6127 -194.426,89.1784 -191,191 m 0,228 c 0,-76 0,-152 0,-228 m -190,419 c 101.207,2.7279 193.562,-89.6647 190,-191"
     inkscape:connector-curvature="0" /><path
     style="opacity:1;fill:none;fill-opacity:1;fill-rule:nonzero;stroke:none;stroke-width:11.13019753;stroke-miterlimit:4;stroke-dasharray:none;stroke-opacity:1"
     d="m 17783.81,10175.936 c -5.291,-74.534 -16.27,-142.166 -24.398,-150.294 -8.483,-8.484 -322.667,-29.47 -737.56,-49.2672 -817.075,-38.9877 -820.539,-39.5714 -955.6,-161.0027 -115.46,-103.8082 -139.771,-160.9227 -139.819,-328.482 -0.03,-120.4198 5.357,-151.3941 38.76,-222.6321 79.104,-168.7047 225.471,-277.9146 372.69,-278.0773 110.109,-0.1058 176.995,-23.9017 226.81,-80.6379 90.377,-102.9329 69.86,-282.3956 -40.81,-356.9763 -42.19,-28.4319 -68.94,-33.482 -177.353,-33.482 -213.947,0 -320.745,-51.4336 -389.288,-187.4813 -81.568,-161.9004 -12.162,-402.4442 141.51,-490.4417 l 63.229,-36.2067 802.234,-7.362 802.234,-7.3623 10.436,-58.8973 c 5.74,-32.3935 10.819,-86.5156 11.285,-120.2714 1.292,-93.3172 11.303,-107.9555 73.843,-107.9555 h 55.119 l 13.246,143.4515 13.246,143.4518 78.318,11.1786 c 163.539,23.3426 193.95,70.3255 194.027,299.7568 0.05,145.388 3.753,169.0055 33.479,213.5026 72.849,109.0493 -67.111,101.5182 1887.133,101.5439 1738.189,0.022 1751.693,-0.2117 1813.888,-30.3109 96.079,-46.5111 123.328,-115.7108 123.328,-313.1908 0,-157.3611 0.05,-157.5916 47.854,-208.9872 38.347,-41.2297 62.481,-53.2415 121.476,-60.4596 89.052,-10.8956 110.382,-34.4991 110.594,-122.378 0.08,-36.9195 4.269,-91.9737 9.289,-122.3426 8.647,-52.3152 12.015,-55.2161 64.096,-55.2161 54.232,0 55.095,0.9154 64.333,68.3146 5.15,37.5729 9.364,95.8813 9.364,129.5739 0,33.6928 7.951,69.2107 17.669,78.9286 13.265,13.2649 199.53,17.6906 747.259,17.7546 401.275,0.053 768.758,6.4992 816.629,14.3388 119.121,19.5072 193.565,71.7392 237.869,166.8965 66.855,143.5891 39.305,332.6599 -64.419,442.0965 -70.344,74.2188 -115.196,88.8117 -299.975,97.5977 -157.068,7.4686 -175.411,11.3607 -211.22,44.8199 -57.539,53.7612 -80.591,107.2687 -80.591,187.0638 0,86.3709 38.752,164.0483 99.698,199.8427 24.657,14.4817 94.76,31.9297 155.784,38.7731 183.111,20.5351 329.332,113.6825 403.122,256.8019 48.794,94.638 54.904,254.5594 14.217,372.0783 -49.598,143.257 -167.592,271.6471 -286.514,311.7585 -26.433,8.9159 -374.242,31.3777 -772.908,49.915 -820.616,38.1573 -776.49,29.3293 -776.782,155.4183 -0.08,38.468 -4.269,94.788 -9.289,125.157 -8.647,52.315 -12.015,55.216 -64.096,55.216 -54.232,0 -55.095,-0.915 -64.333,-68.315 -5.15,-37.572 -9.363,-95.881 -9.363,-129.573 0,-33.693 -7.952,-69.211 -17.67,-78.929 -12.284,-12.284 -90.148,-17.669 -255.478,-17.669 -131.601,0 -258.085,-7.069 -283.208,-15.826 -113.343,-39.512 -135.525,-215.5989 -36.928,-293.1548 37.045,-29.1399 57.285,-29.6799 1114.302,-29.7342 1041.786,-0.053 1078.094,-0.9842 1123.71,-28.7975 61.132,-37.2742 92.742,-100.2099 92.742,-184.6501 0,-84.4401 -31.61,-147.3758 -92.742,-184.65 -46.432,-28.3115 -104.324,-28.7433 -3859.001,-28.7975 -3798.295,-0.053 -3812.034,0.053 -3859.969,29.6762 -50.246,31.0539 -95.25,118.247 -95.25,184.5423 0,53.8327 34.533,126.3545 80.264,168.5589 l 39.887,36.8107 1092.103,7.3623 c 600.656,4.0492 1103.943,13.1345 1118.415,20.1896 38.634,18.8346 69.396,87.7821 69.396,155.5387 0,44.8022 -10.549,71.2113 -42.931,107.4825 l -42.93,48.0869 -277.324,7.362 -277.324,7.362 -9.753,73.621 c -5.364,40.492 -10.334,105.095 -11.043,143.563 l -1.291,69.94 h -64.055 -64.054 z"
     id="path16939"
     inkscape:connector-curvature="0" /><path
     style="opacity:1;fill:none;fill-opacity:1;fill-rule:nonzero;stroke:none;stroke-width:11.13019753;stroke-miterlimit:4;stroke-dasharray:none;stroke-opacity:1"
     d="m 17788.378,7002.1603 c -0.606,-79.8578 -18.444,-205.4793 -30.618,-215.6076 -3.054,-2.54 -326.91,-19.3326 -719.681,-37.3163 -392.772,-17.984 -737.321,-38.7929 -765.665,-46.2425 -90.536,-23.7946 -204.367,-100.0464 -257.336,-172.3811 -69.012,-94.2427 -96.076,-180.058 -95.904,-304.1025 0.346,-250.1482 191.461,-447.1498 459.404,-473.5523 66.005,-6.504 117.433,-20.8923 147.09,-41.1531 131.005,-89.4955 131.841,-298.9193 1.54,-385.917 -37.499,-25.0369 -76.365,-32.8369 -191.416,-38.4132 -171.153,-8.296 -253.56,-39.1636 -326.578,-122.328 -67.31,-76.6622 -90.246,-137.573 -89.862,-238.643 0.535,-140.8063 67.59,-248.5369 198.262,-318.5263 57.836,-30.9775 75.966,-31.8059 853.961,-39.0115 l 794.871,-7.3623 10.438,-58.8973 c 5.74,-32.3935 10.819,-89.8287 11.285,-127.6337 1.247,-101.0454 10.369,-115.3176 73.7,-115.3176 h 54.976 l 13.389,150.9242 13.389,150.9244 86.289,9.2691 c 70.323,7.5539 94.842,17.8223 132.519,55.4977 45.982,45.9806 46.27,47.2358 53.592,233.6824 6.409,163.1873 11.602,193.3966 40.11,233.363 65.084,91.2418 -36.474,86.6095 1898.741,86.6095 1764.234,0 1769.643,-0.079 1810.182,-30.3586 89.365,-66.7221 100.789,-97.2844 108.748,-290.9485 4.321,-105.1494 15.16,-192.9601 26.204,-212.2974 26.007,-45.5367 93.571,-77.4549 163.955,-77.4549 69.242,0 89.596,-26.0734 89.596,-114.7718 0,-31.7955 4.213,-88.5515 9.363,-126.1247 9.234,-67.3669 10.124,-68.3144 64.208,-68.3144 h 54.845 l 9.286,77.3025 c 5.106,42.5167 9.342,104.6517 9.413,138.0784 0.08,33.4264 8.819,67.9889 19.443,76.8056 13.252,10.998 266.325,17.3419 806.157,20.2084 774.086,4.1103 787.796,4.6931 845.738,35.9592 179.682,96.9571 248.19,304.6397 157.658,477.9386 -75.544,144.6069 -196.63,204.4099 -413.881,204.4099 -79.638,0 -110.144,6.79 -148.845,33.1298 -81.495,55.4649 -109.231,105.0041 -109.231,195.0971 0,137.4365 86.477,217.9032 252.505,234.9561 187.608,19.2691 318.265,104.0442 401.743,260.6656 95.223,178.6562 71.917,382.8968 -60.912,533.7987 -67.298,76.4543 -153.545,131.4805 -241.004,153.7618 -32.394,8.2526 -376.943,29.4762 -765.665,47.1636 -388.722,17.6874 -712.687,37.605 -719.921,44.2611 -10.423,9.5903 -32.106,168.8623 -37.455,275.1283 -0.574,11.386 -22.606,18.4054 -57.773,18.4054 h -56.846 l -9.286,-77.3027 c -5.106,-42.5165 -9.342,-104.1377 -9.413,-136.9362 -0.08,-32.7983 -8.079,-67.5846 -17.797,-77.3028 -12.426,-12.4264 -95.871,-17.6691 -281.234,-17.6691 h -263.566 l -51.933,-51.9327 c -48.149,-48.1494 -51.365,-56.9648 -44.148,-120.9982 5.988,-53.1238 18.368,-78.5214 53.638,-110.0346 l 45.853,-40.9697 h 1062.632 c 1056.967,0 1062.981,-0.1587 1127.972,-31.6299 149.795,-72.5146 157.164,-278.7324 13.099,-366.5746 -46.319,-28.2427 -106.589,-28.6914 -3858.916,-28.7457 -3796.147,-0.053 -3812.06,0.079 -3859.887,29.6257 -86.374,53.3821 -121.394,186.4217 -73.468,279.1005 12.025,23.2545 43.499,57.7117 69.94,76.5714 l 48.077,34.2906 1082.237,7.362 c 810.898,5.5163 1090.063,11.8491 1113.449,25.2585 17.165,9.843 42.776,42.2695 56.912,72.059 33.04,69.6269 11.921,152.143 -50.273,196.4295 -38.964,27.7448 -63.834,30.1882 -307.266,30.1882 -220.689,0 -266.271,3.6481 -273.263,21.8694 -4.616,12.0282 -12.901,81.6007 -18.412,154.6053 l -10.02,132.7361 h -64.147 -64.147 l -0.643,-84.6648 z"
     id="path16941"
     inkscape:connector-curvature="0" /><path
     style="opacity:1;fill:none;fill-opacity:1;fill-rule:nonzero;stroke:none;stroke-width:11.13019753;stroke-miterlimit:4;stroke-dasharray:none;stroke-opacity:1"
     d="m 1297.776,10178.933 v -147.243 h -49.606 c -27.284,0 -107.346,-10.069 -177.916,-22.375 C 514.511,9912.4012 96.312,9464.7863 31.226,8897.2013 20.11,8800.2643 16.62,7806.3621 19.725,5621.7548 l 4.458,-3136.2809 33.249,-117.7946 c 36.478,-129.2369 122.582,-317.3965 191.064,-417.527 112.457,-164.4262 309.772,-328.2638 509.029,-422.6631 229.028,-108.5039 272.87,-114.1695 934.127,-120.7154 l 592.654,-5.8667 v -146.0788 -146.0787 h 294.486 294.487 v 147.2432 147.2433 h 309.211 309.21 v -147.2433 -147.2432 h 287.125 287.124 v 147.2432 147.2433 h 309.211 309.211 v -147.2433 -147.2432 h 294.486 294.487 v 147.2432 147.2433 h 309.21 309.211 v -147.2433 -147.2432 h 287.125 287.124 v 147.2432 147.2433 h 309.211 309.211 v -147.2433 -147.2432 h 294.486 294.486 v 147.2432 147.2433 h 309.211 309.211 v -147.2433 -147.2432 h 287.1243 287.1242 v 147.2432 147.2433 h 309.2108 309.2109 v -147.2433 -147.2432 h 294.4865 294.4863 v 147.2432 147.2433 h 309.211 309.211 v -147.2433 -147.2432 h 295.464 295.464 l -4.659,147.2753 -4.658,147.2753 305.529,-0.032 305.53,-0.032 v -147.2439 -147.2432 h 294.487 294.486 v 146.0787 146.0788 l 592.654,5.8667 c 553.355,5.4777 600.465,8.0011 710.449,38.0544 391.959,107.1035 722.617,390.4711 862.093,738.797 89.493,223.5 91.558,241.6645 98.39,865.0541 l 6.335,577.9297 h 146.055 146.056 v 294.4865 294.4865 h -147.243 -147.243 v 301.8486 301.8485 h 147.243 147.243 v 294.4866 294.4865 h -147.243 -147.243 v 309.2109 309.2108 h 147.243 147.243 v 294.4863 294.4865 h -147.243 -147.243 v 301.8488 301.8486 h 147.243 147.243 v 294.4865 294.4865 h -146.056 -146.055 l -5.919,577.9296 c -5.514,538.5792 -8.112,585.896 -38.134,694.9295 -122.429,444.6322 -463.351,785.6275 -908.836,909.0305 -109.865,30.4338 -153.586,32.7498 -717.016,37.9758 l -600.016,5.565 v 146.215 146.214 h -294.486 -294.487 v -147.243 -147.243 l -305.53,-0.01 -305.529,-0.01 5.06,147.257 5.061,147.257 h -295.866 -295.866 v -147.243 -147.243 h -309.211 -309.211 v 147.243 147.243 h -294.4863 -294.4865 v -147.243 -147.243 h -309.2109 -309.2108 v 147.243 147.243 H 8578.9543 8291.83 v -147.243 -147.243 h -309.211 -309.211 v 147.243 147.243 h -294.486 -294.486 v -147.243 -147.243 h -309.211 -309.211 v 147.243 147.243 H 6178.89 5891.765 v -147.243 -147.243 h -309.211 -309.21 v 147.243 147.243 h -294.487 -294.486 v -147.243 -147.243 H 3580.046 2475.722 v 147.243 147.243 H 1886.749 1297.776 Z M 1128.764,9169.1792 c 50.442,-23.9363 95.39,-95.9093 95.39,-152.7431 0,-88.4336 -84.347,-162.6921 -184.795,-162.6921 -75.936,0 -153.864,77.928 -153.864,153.8642 0,141.8328 118.712,220.6773 243.269,161.571 z m 12699.249,1.2224 c 61.277,-31.6878 88.509,-78.4773 88.509,-152.0764 0,-53.67 -8.377,-72.8327 -50.063,-114.5183 -56.129,-56.1295 -125.877,-66.4361 -197.821,-29.2322 -81.364,42.0743 -107.843,164.9592 -51.809,240.4327 56.142,75.6192 133.058,95.7945 211.184,55.3939 z M 5192.678,8153.2012 c 50.442,-23.9363 95.39,-95.9093 95.39,-152.7431 0,-88.4338 -84.347,-162.6921 -184.795,-162.6921 -41.483,0 -65.157,11.4181 -103.802,50.0627 -38.644,38.6445 -50.063,62.3191 -50.063,103.8015 0,141.8326 118.712,220.6771 243.27,161.571 z m 4571.4219,1.2224 c 61.277,-31.6881 88.5085,-78.4773 88.5085,-152.0764 0,-53.6699 -8.3773,-72.8327 -50.0626,-114.5183 -38.6448,-38.6445 -62.3195,-50.0626 -103.8016,-50.0626 -75.2142,0 -132.3584,33.8288 -161.7417,95.7495 -68.3921,144.1257 85.7062,294.0238 227.0974,220.9075 z M 5217.83,3568.2107 c 81.98,-64.4855 88.986,-184.4403 14.838,-254.0435 -114.347,-107.3388 -283.26,-30.3371 -283.26,129.129 0,41.4822 11.419,65.1569 50.063,103.8014 41.985,41.9848 60.671,50.0628 115.809,50.0628 43.073,0 78.438,-9.9836 102.55,-28.9497 z m 4559.0213,7.9675 c 49.3379,-25.5137 75.7571,-79.3641 75.7571,-154.4168 0,-72.201 -43.5872,-128.0427 -117.1464,-150.0815 -48.2897,-14.468 -65.0465,-12.8875 -113.3234,10.6888 -113.5976,55.4756 -136.0562,189.5692 -45.8613,273.8237 50.2261,46.9184 132.6165,55.1279 200.574,19.9858 z M 1153.916,2552.2324 c 81.98,-64.4855 88.987,-184.4404 14.839,-254.0436 -114.348,-107.3387 -283.26,-30.337 -283.26,129.129 0,41.4823 11.418,65.1569 50.063,103.8015 41.985,41.9848 60.671,50.0627 115.809,50.0627 43.072,0 78.438,-9.9835 102.549,-28.9496 z m 12686.849,7.9674 c 49.338,-25.5137 75.757,-79.3641 75.757,-154.4168 0,-72.201 -43.588,-128.0427 -117.146,-150.0815 -48.29,-14.468 -65.047,-12.8875 -113.324,10.6888 -113.598,55.4756 -136.056,189.5692 -45.861,273.8238 50.226,46.9183 132.616,55.1278 200.574,19.9857 z"
     id="path16943"
     inkscape:connector-curvature="0" /><text
     xml:space="preserve"
     style="font-style:normal;font-weight:normal;font-size:282.222229px;line-height:291.04165649px;font-family:sans-serif;letter-spacing:0px;word-spacing:0px;fill:#000000;fill-opacity:1;stroke:none;stroke-width:26.45833206px;stroke-linecap:butt;stroke-linejoin:miter;stroke-opacity:1"
     x="18737.379"
     y="880.76959"
     id="text16966"><tspan
       sodipodi:role="line"
       id="tspan16964"
       x="18737.379"
       y="880.76959"
       style="fill:#ff0000;fill-opacity:1;stroke-width:26.45833206px">Frosted Acrylic</tspan><tspan
       sodipodi:role="line"
       x="18737.379"
       y="1171.8113"
       style="fill:#ff0000;fill-opacity:1;stroke-width:26.45833206px"
       id="tspan16968">3mm thick</tspan></text>
<path
     style="color:#000000;clip-rule:nonzero;display:inline;overflow:visible;visibility:visible;opacity:1;isolation:auto;mix-blend-mode:normal;color-interpolation:sRGB;color-interpolation-filters:linearRGB;solid-color:#000000;solid-opacity:1;fill:#ff0000;fill-opacity:1;fill-rule:nonzero;stroke:#ff0000;stroke-width:20.43178177;stroke-linecap:butt;stroke-linejoin:miter;stroke-miterlimit:4;stroke-dasharray:none;stroke-dashoffset:0;stroke-opacity:1;marker-start:url(#Arrow1Lstart);marker-end:url(#Arrow1Lend);color-rendering:auto;image-rendering:auto;shape-rendering:auto;text-rendering:auto;enable-background:accumulate"
     d="M 2.8845974,642.53211 15035.57,663.27351"
     id="path17824"
     inkscape:connector-curvature="0" /><text
     id="text20577"
     y="-57.264183"
     x="-1941.7764"
     transform="translate(-255.08593,-52.058348)"
     style="fill:#ff0000;fill-opacity:1;stroke:none;stroke-opacity:1"><textPath
       id="textPath20575"
       dy="-6"
       startOffset="50%"
       xlink:href="#path17824"
       style="font-style:normal;font-weight:normal;font-size:317.5px;text-align:center;text-anchor:start;fill:#ff0000;fill-opacity:1;stroke:none;stroke-opacity:1">150.6 mm</textPath></text>
</svg>