M48
INCH,TZ
T1C0.0197
T2C0.0236
T3C0.0335
T4C0.0400
T5C0.0402
T6C0.1260
T7C0.1260
%
G90
G05
T1
X023250Y-030750
X023750Y-030000
X024000Y-028750
X024500Y-032750
X025000Y-032750
X025500Y-032750
X026000Y-032750
X026500Y-031500
X026500Y-032000
X026500Y-032750
X029250Y-029250
X030000Y-022000
X030000Y-024000
X030000Y-025750
X030750Y-024000
X032500Y-030000
X034250Y-028250
X034250Y-028750
X034250Y-029250
X034250Y-029750
X034250Y-030250
X034250Y-030750
X034750Y-028250
X036750Y-024000
X037000Y-026250
X037000Y-027000
X037000Y-027750
X037000Y-028500
X037000Y-029250
X037750Y-026250
X037750Y-029250
X038250Y-027500
X038250Y-028000
X038250Y-028500
X038750Y-026250
X038750Y-027000
X038750Y-029250
X039250Y-027000
X039750Y-026250
X039750Y-027000
X039750Y-029250
X040250Y-027000
X040750Y-026250
X040750Y-027000
X040750Y-029250
X041250Y-027500
X041250Y-028000
X041250Y-028500
X041750Y-023000
X041750Y-026250
X041750Y-029250
X042750Y-024000
X042750Y-026250
X042750Y-029250
X043750Y-023000
X043750Y-026250
X043750Y-029250
X044750Y-026250
X044750Y-029250
X045750Y-026250
X045750Y-029250
X046750Y-026250
X046750Y-029250
X047750Y-026250
X047750Y-029250
X048750Y-023500
X048750Y-026250
X048750Y-029250
X049750Y-026250
X049750Y-027000
X049750Y-027750
X049750Y-028500
X049750Y-029250
X052500Y-026250
X053000Y-025750
X053000Y-027250
X053750Y-027750
X053750Y-029000
X053750Y-030750
X054750Y-030750
X055500Y-030750
X055750Y-028000
X056250Y-030750
X057874Y-030118
X058465Y-030118
X065984Y-029961
X066496Y-029961
X067008Y-029961
X067480Y-029961
X067960Y-029970
X068394Y-030000
X070669Y-025197
X070965Y-027953
X072000Y-027750
X072250Y-028250
X072500Y-026750
X075000Y-023250
X075000Y-031250
X020805Y-034500
X021082Y-033832
X021082Y-035168
X021750Y-033555
X021750Y-035445
X022418Y-033832
X022418Y-035168
X022695Y-034500
X080805Y-034500
X081082Y-033832
X081082Y-035168
X081750Y-033555
X081750Y-035445
X082418Y-033832
X082418Y-035168
X082695Y-034500
X058222Y-022433
X058222Y-022933
X058222Y-023433
X058222Y-023933
X058222Y-024433
X058222Y-024933
X058222Y-025433
X058222Y-025933
X058222Y-026433
X058222Y-026933
X058222Y-027433
X058222Y-027933
X058222Y-028433
X058222Y-028933
X060500Y-030504
X061000Y-030504
X061500Y-030504
X062000Y-030504
X062500Y-030504
X063000Y-030504
X063500Y-030504
X064000Y-030504
X064500Y-030504
X065000Y-030504
X067278Y-022433
X067278Y-022933
X067278Y-023433
X067278Y-023933
X067278Y-024433
X067278Y-024933
X067278Y-025433
X067278Y-025933
X067278Y-026433
X067278Y-026933
X067278Y-027433
X067278Y-027933
X067278Y-028433
X067278Y-028933
X027500Y-030250
X027500Y-030750
X027750Y-030500
X028000Y-030250
X028000Y-030750
T3
X021675Y-029516
X021675Y-031484
T4
X069750Y-033000
X069750Y-034000
X069750Y-035000
X070750Y-033000
X070750Y-034000
X070750Y-035000
T5
X071750Y-033000
X077250Y-021250
X075250Y-021250
X068750Y-034000
X071750Y-035000
X071750Y-034000
X068750Y-035000
X025250Y-034500
X026250Y-034500
X027250Y-034500
X028250Y-034500
X076250Y-021250
X068750Y-033000
X075250Y-034500
X076250Y-034500
X077250Y-034500
X078250Y-034500
T6
X037750Y-034750
X081750Y-034500
X049750Y-034750
X041750Y-034750
X065750Y-034750
X061750Y-034750
X057750Y-034750
X053750Y-034750
X045750Y-034750
X021750Y-034500
T7
X021250Y-021000
X082250Y-021000
T2
X020474Y-029122G85X020750Y-029122
G05
X020750Y-031878G85X020474Y-031878
G05
T0
M30
