G04 #@! TF.GenerationSoftware,KiCad,Pcbnew,5.0.0-rc2-dev-unknown-30a78f0~62~ubuntu16.04.1*
G04 #@! TF.CreationDate,2018-03-10T16:31:00+05:30*
G04 #@! TF.ProjectId,k3jr_controller,6B336A725F636F6E74726F6C6C65722E,rev 1*
G04 #@! TF.SameCoordinates,Original*
G04 #@! TF.FileFunction,Copper,L1,Top,Signal*
G04 #@! TF.FilePolarity,Positive*
%FSLAX46Y46*%
G04 Gerber Fmt 4.6, Leading zero omitted, Abs format (unit mm)*
G04 Created by KiCad (PCBNEW 5.0.0-rc2-dev-unknown-30a78f0~62~ubuntu16.04.1) date Sat Mar 10 16:31:00 2018*
%MOMM*%
%LPD*%
G01*
G04 APERTURE LIST*
%ADD10C,1.450000*%
%ADD11O,1.900000X1.200000*%
%ADD12C,0.150000*%
%ADD13C,1.600000*%
%ADD14C,6.400000*%
%ADD15C,0.800000*%
%ADD16C,5.200000*%
%ADD17O,2.000000X1.000000*%
%ADD18O,1.000000X2.000000*%
%ADD19C,1.800000*%
%ADD20C,1.524000*%
%ADD21R,1.524000X1.524000*%
%ADD22C,0.900000*%
%ADD23C,0.762000*%
%ADD24C,0.254000*%
%ADD25C,1.016000*%
%ADD26C,0.508000*%
G04 APERTURE END LIST*
D10*
X55055000Y-79970000D03*
X55055000Y-74970000D03*
D11*
X52355000Y-80970000D03*
X52355000Y-73970000D03*
D12*
G36*
X191574207Y-53176926D02*
X191613036Y-53182686D01*
X191651114Y-53192224D01*
X191688073Y-53205448D01*
X191723559Y-53222231D01*
X191757228Y-53242412D01*
X191788757Y-53265796D01*
X191817843Y-53292157D01*
X191844204Y-53321243D01*
X191867588Y-53352772D01*
X191887769Y-53386441D01*
X191904552Y-53421927D01*
X191917776Y-53458886D01*
X191927314Y-53496964D01*
X191933074Y-53535793D01*
X191935000Y-53575000D01*
X191935000Y-54375000D01*
X191933074Y-54414207D01*
X191927314Y-54453036D01*
X191917776Y-54491114D01*
X191904552Y-54528073D01*
X191887769Y-54563559D01*
X191867588Y-54597228D01*
X191844204Y-54628757D01*
X191817843Y-54657843D01*
X191788757Y-54684204D01*
X191757228Y-54707588D01*
X191723559Y-54727769D01*
X191688073Y-54744552D01*
X191651114Y-54757776D01*
X191613036Y-54767314D01*
X191574207Y-54773074D01*
X191535000Y-54775000D01*
X190735000Y-54775000D01*
X190695793Y-54773074D01*
X190656964Y-54767314D01*
X190618886Y-54757776D01*
X190581927Y-54744552D01*
X190546441Y-54727769D01*
X190512772Y-54707588D01*
X190481243Y-54684204D01*
X190452157Y-54657843D01*
X190425796Y-54628757D01*
X190402412Y-54597228D01*
X190382231Y-54563559D01*
X190365448Y-54528073D01*
X190352224Y-54491114D01*
X190342686Y-54453036D01*
X190336926Y-54414207D01*
X190335000Y-54375000D01*
X190335000Y-53575000D01*
X190336926Y-53535793D01*
X190342686Y-53496964D01*
X190352224Y-53458886D01*
X190365448Y-53421927D01*
X190382231Y-53386441D01*
X190402412Y-53352772D01*
X190425796Y-53321243D01*
X190452157Y-53292157D01*
X190481243Y-53265796D01*
X190512772Y-53242412D01*
X190546441Y-53222231D01*
X190581927Y-53205448D01*
X190618886Y-53192224D01*
X190656964Y-53182686D01*
X190695793Y-53176926D01*
X190735000Y-53175000D01*
X191535000Y-53175000D01*
X191574207Y-53176926D01*
X191574207Y-53176926D01*
G37*
D13*
X191135000Y-53975000D03*
D14*
X55245000Y-87630000D03*
D15*
X57645000Y-87630000D03*
X56942056Y-89327056D03*
X55245000Y-90030000D03*
X53547944Y-89327056D03*
X52845000Y-87630000D03*
X53547944Y-85932944D03*
X55245000Y-85230000D03*
X56942056Y-85932944D03*
D14*
X207645000Y-87630000D03*
D15*
X210045000Y-87630000D03*
X209342056Y-89327056D03*
X207645000Y-90030000D03*
X205947944Y-89327056D03*
X205245000Y-87630000D03*
X205947944Y-85932944D03*
X207645000Y-85230000D03*
X209342056Y-85932944D03*
D16*
X95885000Y-88265000D03*
X106045000Y-88265000D03*
X116205000Y-88265000D03*
X167005000Y-88265000D03*
X156845000Y-88265000D03*
X126365000Y-88265000D03*
X146685000Y-88265000D03*
X136525000Y-88265000D03*
D15*
X69850000Y-78105000D03*
X71120000Y-78105000D03*
X71120000Y-76835000D03*
X69850000Y-76835000D03*
X70485000Y-77470000D03*
D17*
X170885000Y-56980000D03*
X170885000Y-58250000D03*
X170885000Y-59520000D03*
X170885000Y-60790000D03*
X170885000Y-62060000D03*
X170885000Y-63330000D03*
X170885000Y-64600000D03*
X170885000Y-65870000D03*
X170885000Y-67140000D03*
X170885000Y-68410000D03*
X170885000Y-69680000D03*
X170885000Y-70950000D03*
X170885000Y-72220000D03*
X170885000Y-73490000D03*
X147885000Y-58250000D03*
X147885000Y-67140000D03*
X147885000Y-68410000D03*
X147885000Y-60790000D03*
X147885000Y-56980000D03*
X147885000Y-69680000D03*
X147885000Y-63330000D03*
X147885000Y-73490000D03*
X147885000Y-72220000D03*
X147885000Y-65870000D03*
X147885000Y-64600000D03*
X147885000Y-62060000D03*
X147885000Y-70950000D03*
X147885000Y-59520000D03*
D18*
X165100000Y-77480000D03*
X163830000Y-77480000D03*
X162560000Y-77480000D03*
X161290000Y-77480000D03*
X160020000Y-77480000D03*
X157480000Y-77480000D03*
X156210000Y-77480000D03*
X154940000Y-77480000D03*
X153670000Y-77480000D03*
X158750000Y-77480000D03*
D19*
X198755000Y-87630000D03*
X196215000Y-87630000D03*
X193675000Y-87630000D03*
X191135000Y-87630000D03*
X71755000Y-87630000D03*
X69215000Y-87630000D03*
X66675000Y-87630000D03*
X64135000Y-87630000D03*
D12*
G36*
X194114207Y-53176926D02*
X194153036Y-53182686D01*
X194191114Y-53192224D01*
X194228073Y-53205448D01*
X194263559Y-53222231D01*
X194297228Y-53242412D01*
X194328757Y-53265796D01*
X194357843Y-53292157D01*
X194384204Y-53321243D01*
X194407588Y-53352772D01*
X194427769Y-53386441D01*
X194444552Y-53421927D01*
X194457776Y-53458886D01*
X194467314Y-53496964D01*
X194473074Y-53535793D01*
X194475000Y-53575000D01*
X194475000Y-54375000D01*
X194473074Y-54414207D01*
X194467314Y-54453036D01*
X194457776Y-54491114D01*
X194444552Y-54528073D01*
X194427769Y-54563559D01*
X194407588Y-54597228D01*
X194384204Y-54628757D01*
X194357843Y-54657843D01*
X194328757Y-54684204D01*
X194297228Y-54707588D01*
X194263559Y-54727769D01*
X194228073Y-54744552D01*
X194191114Y-54757776D01*
X194153036Y-54767314D01*
X194114207Y-54773074D01*
X194075000Y-54775000D01*
X193275000Y-54775000D01*
X193235793Y-54773074D01*
X193196964Y-54767314D01*
X193158886Y-54757776D01*
X193121927Y-54744552D01*
X193086441Y-54727769D01*
X193052772Y-54707588D01*
X193021243Y-54684204D01*
X192992157Y-54657843D01*
X192965796Y-54628757D01*
X192942412Y-54597228D01*
X192922231Y-54563559D01*
X192905448Y-54528073D01*
X192892224Y-54491114D01*
X192882686Y-54453036D01*
X192876926Y-54414207D01*
X192875000Y-54375000D01*
X192875000Y-53575000D01*
X192876926Y-53535793D01*
X192882686Y-53496964D01*
X192892224Y-53458886D01*
X192905448Y-53421927D01*
X192922231Y-53386441D01*
X192942412Y-53352772D01*
X192965796Y-53321243D01*
X192992157Y-53292157D01*
X193021243Y-53265796D01*
X193052772Y-53242412D01*
X193086441Y-53222231D01*
X193121927Y-53205448D01*
X193158886Y-53192224D01*
X193196964Y-53182686D01*
X193235793Y-53176926D01*
X193275000Y-53175000D01*
X194075000Y-53175000D01*
X194114207Y-53176926D01*
X194114207Y-53176926D01*
G37*
D13*
X193675000Y-53975000D03*
D12*
G36*
X196654207Y-53176926D02*
X196693036Y-53182686D01*
X196731114Y-53192224D01*
X196768073Y-53205448D01*
X196803559Y-53222231D01*
X196837228Y-53242412D01*
X196868757Y-53265796D01*
X196897843Y-53292157D01*
X196924204Y-53321243D01*
X196947588Y-53352772D01*
X196967769Y-53386441D01*
X196984552Y-53421927D01*
X196997776Y-53458886D01*
X197007314Y-53496964D01*
X197013074Y-53535793D01*
X197015000Y-53575000D01*
X197015000Y-54375000D01*
X197013074Y-54414207D01*
X197007314Y-54453036D01*
X196997776Y-54491114D01*
X196984552Y-54528073D01*
X196967769Y-54563559D01*
X196947588Y-54597228D01*
X196924204Y-54628757D01*
X196897843Y-54657843D01*
X196868757Y-54684204D01*
X196837228Y-54707588D01*
X196803559Y-54727769D01*
X196768073Y-54744552D01*
X196731114Y-54757776D01*
X196693036Y-54767314D01*
X196654207Y-54773074D01*
X196615000Y-54775000D01*
X195815000Y-54775000D01*
X195775793Y-54773074D01*
X195736964Y-54767314D01*
X195698886Y-54757776D01*
X195661927Y-54744552D01*
X195626441Y-54727769D01*
X195592772Y-54707588D01*
X195561243Y-54684204D01*
X195532157Y-54657843D01*
X195505796Y-54628757D01*
X195482412Y-54597228D01*
X195462231Y-54563559D01*
X195445448Y-54528073D01*
X195432224Y-54491114D01*
X195422686Y-54453036D01*
X195416926Y-54414207D01*
X195415000Y-54375000D01*
X195415000Y-53575000D01*
X195416926Y-53535793D01*
X195422686Y-53496964D01*
X195432224Y-53458886D01*
X195445448Y-53421927D01*
X195462231Y-53386441D01*
X195482412Y-53352772D01*
X195505796Y-53321243D01*
X195532157Y-53292157D01*
X195561243Y-53265796D01*
X195592772Y-53242412D01*
X195626441Y-53222231D01*
X195661927Y-53205448D01*
X195698886Y-53192224D01*
X195736964Y-53182686D01*
X195775793Y-53176926D01*
X195815000Y-53175000D01*
X196615000Y-53175000D01*
X196654207Y-53176926D01*
X196654207Y-53176926D01*
G37*
D13*
X196215000Y-53975000D03*
D12*
G36*
X175064207Y-83021926D02*
X175103036Y-83027686D01*
X175141114Y-83037224D01*
X175178073Y-83050448D01*
X175213559Y-83067231D01*
X175247228Y-83087412D01*
X175278757Y-83110796D01*
X175307843Y-83137157D01*
X175334204Y-83166243D01*
X175357588Y-83197772D01*
X175377769Y-83231441D01*
X175394552Y-83266927D01*
X175407776Y-83303886D01*
X175417314Y-83341964D01*
X175423074Y-83380793D01*
X175425000Y-83420000D01*
X175425000Y-84220000D01*
X175423074Y-84259207D01*
X175417314Y-84298036D01*
X175407776Y-84336114D01*
X175394552Y-84373073D01*
X175377769Y-84408559D01*
X175357588Y-84442228D01*
X175334204Y-84473757D01*
X175307843Y-84502843D01*
X175278757Y-84529204D01*
X175247228Y-84552588D01*
X175213559Y-84572769D01*
X175178073Y-84589552D01*
X175141114Y-84602776D01*
X175103036Y-84612314D01*
X175064207Y-84618074D01*
X175025000Y-84620000D01*
X174225000Y-84620000D01*
X174185793Y-84618074D01*
X174146964Y-84612314D01*
X174108886Y-84602776D01*
X174071927Y-84589552D01*
X174036441Y-84572769D01*
X174002772Y-84552588D01*
X173971243Y-84529204D01*
X173942157Y-84502843D01*
X173915796Y-84473757D01*
X173892412Y-84442228D01*
X173872231Y-84408559D01*
X173855448Y-84373073D01*
X173842224Y-84336114D01*
X173832686Y-84298036D01*
X173826926Y-84259207D01*
X173825000Y-84220000D01*
X173825000Y-83420000D01*
X173826926Y-83380793D01*
X173832686Y-83341964D01*
X173842224Y-83303886D01*
X173855448Y-83266927D01*
X173872231Y-83231441D01*
X173892412Y-83197772D01*
X173915796Y-83166243D01*
X173942157Y-83137157D01*
X173971243Y-83110796D01*
X174002772Y-83087412D01*
X174036441Y-83067231D01*
X174071927Y-83050448D01*
X174108886Y-83037224D01*
X174146964Y-83027686D01*
X174185793Y-83021926D01*
X174225000Y-83020000D01*
X175025000Y-83020000D01*
X175064207Y-83021926D01*
X175064207Y-83021926D01*
G37*
D13*
X174625000Y-83820000D03*
D12*
G36*
X182684207Y-83021926D02*
X182723036Y-83027686D01*
X182761114Y-83037224D01*
X182798073Y-83050448D01*
X182833559Y-83067231D01*
X182867228Y-83087412D01*
X182898757Y-83110796D01*
X182927843Y-83137157D01*
X182954204Y-83166243D01*
X182977588Y-83197772D01*
X182997769Y-83231441D01*
X183014552Y-83266927D01*
X183027776Y-83303886D01*
X183037314Y-83341964D01*
X183043074Y-83380793D01*
X183045000Y-83420000D01*
X183045000Y-84220000D01*
X183043074Y-84259207D01*
X183037314Y-84298036D01*
X183027776Y-84336114D01*
X183014552Y-84373073D01*
X182997769Y-84408559D01*
X182977588Y-84442228D01*
X182954204Y-84473757D01*
X182927843Y-84502843D01*
X182898757Y-84529204D01*
X182867228Y-84552588D01*
X182833559Y-84572769D01*
X182798073Y-84589552D01*
X182761114Y-84602776D01*
X182723036Y-84612314D01*
X182684207Y-84618074D01*
X182645000Y-84620000D01*
X181845000Y-84620000D01*
X181805793Y-84618074D01*
X181766964Y-84612314D01*
X181728886Y-84602776D01*
X181691927Y-84589552D01*
X181656441Y-84572769D01*
X181622772Y-84552588D01*
X181591243Y-84529204D01*
X181562157Y-84502843D01*
X181535796Y-84473757D01*
X181512412Y-84442228D01*
X181492231Y-84408559D01*
X181475448Y-84373073D01*
X181462224Y-84336114D01*
X181452686Y-84298036D01*
X181446926Y-84259207D01*
X181445000Y-84220000D01*
X181445000Y-83420000D01*
X181446926Y-83380793D01*
X181452686Y-83341964D01*
X181462224Y-83303886D01*
X181475448Y-83266927D01*
X181492231Y-83231441D01*
X181512412Y-83197772D01*
X181535796Y-83166243D01*
X181562157Y-83137157D01*
X181591243Y-83110796D01*
X181622772Y-83087412D01*
X181656441Y-83067231D01*
X181691927Y-83050448D01*
X181728886Y-83037224D01*
X181766964Y-83027686D01*
X181805793Y-83021926D01*
X181845000Y-83020000D01*
X182645000Y-83020000D01*
X182684207Y-83021926D01*
X182684207Y-83021926D01*
G37*
D13*
X182245000Y-83820000D03*
D12*
G36*
X175064207Y-85561926D02*
X175103036Y-85567686D01*
X175141114Y-85577224D01*
X175178073Y-85590448D01*
X175213559Y-85607231D01*
X175247228Y-85627412D01*
X175278757Y-85650796D01*
X175307843Y-85677157D01*
X175334204Y-85706243D01*
X175357588Y-85737772D01*
X175377769Y-85771441D01*
X175394552Y-85806927D01*
X175407776Y-85843886D01*
X175417314Y-85881964D01*
X175423074Y-85920793D01*
X175425000Y-85960000D01*
X175425000Y-86760000D01*
X175423074Y-86799207D01*
X175417314Y-86838036D01*
X175407776Y-86876114D01*
X175394552Y-86913073D01*
X175377769Y-86948559D01*
X175357588Y-86982228D01*
X175334204Y-87013757D01*
X175307843Y-87042843D01*
X175278757Y-87069204D01*
X175247228Y-87092588D01*
X175213559Y-87112769D01*
X175178073Y-87129552D01*
X175141114Y-87142776D01*
X175103036Y-87152314D01*
X175064207Y-87158074D01*
X175025000Y-87160000D01*
X174225000Y-87160000D01*
X174185793Y-87158074D01*
X174146964Y-87152314D01*
X174108886Y-87142776D01*
X174071927Y-87129552D01*
X174036441Y-87112769D01*
X174002772Y-87092588D01*
X173971243Y-87069204D01*
X173942157Y-87042843D01*
X173915796Y-87013757D01*
X173892412Y-86982228D01*
X173872231Y-86948559D01*
X173855448Y-86913073D01*
X173842224Y-86876114D01*
X173832686Y-86838036D01*
X173826926Y-86799207D01*
X173825000Y-86760000D01*
X173825000Y-85960000D01*
X173826926Y-85920793D01*
X173832686Y-85881964D01*
X173842224Y-85843886D01*
X173855448Y-85806927D01*
X173872231Y-85771441D01*
X173892412Y-85737772D01*
X173915796Y-85706243D01*
X173942157Y-85677157D01*
X173971243Y-85650796D01*
X174002772Y-85627412D01*
X174036441Y-85607231D01*
X174071927Y-85590448D01*
X174108886Y-85577224D01*
X174146964Y-85567686D01*
X174185793Y-85561926D01*
X174225000Y-85560000D01*
X175025000Y-85560000D01*
X175064207Y-85561926D01*
X175064207Y-85561926D01*
G37*
D13*
X174625000Y-86360000D03*
D20*
X177165000Y-88900000D03*
D21*
X179705000Y-88900000D03*
D20*
X177165000Y-86360000D03*
X179705000Y-86360000D03*
X177165000Y-83820000D03*
X179705000Y-83820000D03*
D12*
G36*
X182684207Y-85561926D02*
X182723036Y-85567686D01*
X182761114Y-85577224D01*
X182798073Y-85590448D01*
X182833559Y-85607231D01*
X182867228Y-85627412D01*
X182898757Y-85650796D01*
X182927843Y-85677157D01*
X182954204Y-85706243D01*
X182977588Y-85737772D01*
X182997769Y-85771441D01*
X183014552Y-85806927D01*
X183027776Y-85843886D01*
X183037314Y-85881964D01*
X183043074Y-85920793D01*
X183045000Y-85960000D01*
X183045000Y-86760000D01*
X183043074Y-86799207D01*
X183037314Y-86838036D01*
X183027776Y-86876114D01*
X183014552Y-86913073D01*
X182997769Y-86948559D01*
X182977588Y-86982228D01*
X182954204Y-87013757D01*
X182927843Y-87042843D01*
X182898757Y-87069204D01*
X182867228Y-87092588D01*
X182833559Y-87112769D01*
X182798073Y-87129552D01*
X182761114Y-87142776D01*
X182723036Y-87152314D01*
X182684207Y-87158074D01*
X182645000Y-87160000D01*
X181845000Y-87160000D01*
X181805793Y-87158074D01*
X181766964Y-87152314D01*
X181728886Y-87142776D01*
X181691927Y-87129552D01*
X181656441Y-87112769D01*
X181622772Y-87092588D01*
X181591243Y-87069204D01*
X181562157Y-87042843D01*
X181535796Y-87013757D01*
X181512412Y-86982228D01*
X181492231Y-86948559D01*
X181475448Y-86913073D01*
X181462224Y-86876114D01*
X181452686Y-86838036D01*
X181446926Y-86799207D01*
X181445000Y-86760000D01*
X181445000Y-85960000D01*
X181446926Y-85920793D01*
X181452686Y-85881964D01*
X181462224Y-85843886D01*
X181475448Y-85806927D01*
X181492231Y-85771441D01*
X181512412Y-85737772D01*
X181535796Y-85706243D01*
X181562157Y-85677157D01*
X181591243Y-85650796D01*
X181622772Y-85627412D01*
X181656441Y-85607231D01*
X181691927Y-85590448D01*
X181728886Y-85577224D01*
X181766964Y-85567686D01*
X181805793Y-85561926D01*
X181845000Y-85560000D01*
X182645000Y-85560000D01*
X182684207Y-85561926D01*
X182684207Y-85561926D01*
G37*
D13*
X182245000Y-86360000D03*
D12*
G36*
X175064207Y-88101926D02*
X175103036Y-88107686D01*
X175141114Y-88117224D01*
X175178073Y-88130448D01*
X175213559Y-88147231D01*
X175247228Y-88167412D01*
X175278757Y-88190796D01*
X175307843Y-88217157D01*
X175334204Y-88246243D01*
X175357588Y-88277772D01*
X175377769Y-88311441D01*
X175394552Y-88346927D01*
X175407776Y-88383886D01*
X175417314Y-88421964D01*
X175423074Y-88460793D01*
X175425000Y-88500000D01*
X175425000Y-89300000D01*
X175423074Y-89339207D01*
X175417314Y-89378036D01*
X175407776Y-89416114D01*
X175394552Y-89453073D01*
X175377769Y-89488559D01*
X175357588Y-89522228D01*
X175334204Y-89553757D01*
X175307843Y-89582843D01*
X175278757Y-89609204D01*
X175247228Y-89632588D01*
X175213559Y-89652769D01*
X175178073Y-89669552D01*
X175141114Y-89682776D01*
X175103036Y-89692314D01*
X175064207Y-89698074D01*
X175025000Y-89700000D01*
X174225000Y-89700000D01*
X174185793Y-89698074D01*
X174146964Y-89692314D01*
X174108886Y-89682776D01*
X174071927Y-89669552D01*
X174036441Y-89652769D01*
X174002772Y-89632588D01*
X173971243Y-89609204D01*
X173942157Y-89582843D01*
X173915796Y-89553757D01*
X173892412Y-89522228D01*
X173872231Y-89488559D01*
X173855448Y-89453073D01*
X173842224Y-89416114D01*
X173832686Y-89378036D01*
X173826926Y-89339207D01*
X173825000Y-89300000D01*
X173825000Y-88500000D01*
X173826926Y-88460793D01*
X173832686Y-88421964D01*
X173842224Y-88383886D01*
X173855448Y-88346927D01*
X173872231Y-88311441D01*
X173892412Y-88277772D01*
X173915796Y-88246243D01*
X173942157Y-88217157D01*
X173971243Y-88190796D01*
X174002772Y-88167412D01*
X174036441Y-88147231D01*
X174071927Y-88130448D01*
X174108886Y-88117224D01*
X174146964Y-88107686D01*
X174185793Y-88101926D01*
X174225000Y-88100000D01*
X175025000Y-88100000D01*
X175064207Y-88101926D01*
X175064207Y-88101926D01*
G37*
D13*
X174625000Y-88900000D03*
D12*
G36*
X182684207Y-88101926D02*
X182723036Y-88107686D01*
X182761114Y-88117224D01*
X182798073Y-88130448D01*
X182833559Y-88147231D01*
X182867228Y-88167412D01*
X182898757Y-88190796D01*
X182927843Y-88217157D01*
X182954204Y-88246243D01*
X182977588Y-88277772D01*
X182997769Y-88311441D01*
X183014552Y-88346927D01*
X183027776Y-88383886D01*
X183037314Y-88421964D01*
X183043074Y-88460793D01*
X183045000Y-88500000D01*
X183045000Y-89300000D01*
X183043074Y-89339207D01*
X183037314Y-89378036D01*
X183027776Y-89416114D01*
X183014552Y-89453073D01*
X182997769Y-89488559D01*
X182977588Y-89522228D01*
X182954204Y-89553757D01*
X182927843Y-89582843D01*
X182898757Y-89609204D01*
X182867228Y-89632588D01*
X182833559Y-89652769D01*
X182798073Y-89669552D01*
X182761114Y-89682776D01*
X182723036Y-89692314D01*
X182684207Y-89698074D01*
X182645000Y-89700000D01*
X181845000Y-89700000D01*
X181805793Y-89698074D01*
X181766964Y-89692314D01*
X181728886Y-89682776D01*
X181691927Y-89669552D01*
X181656441Y-89652769D01*
X181622772Y-89632588D01*
X181591243Y-89609204D01*
X181562157Y-89582843D01*
X181535796Y-89553757D01*
X181512412Y-89522228D01*
X181492231Y-89488559D01*
X181475448Y-89453073D01*
X181462224Y-89416114D01*
X181452686Y-89378036D01*
X181446926Y-89339207D01*
X181445000Y-89300000D01*
X181445000Y-88500000D01*
X181446926Y-88460793D01*
X181452686Y-88421964D01*
X181462224Y-88383886D01*
X181475448Y-88346927D01*
X181492231Y-88311441D01*
X181512412Y-88277772D01*
X181535796Y-88246243D01*
X181562157Y-88217157D01*
X181591243Y-88190796D01*
X181622772Y-88167412D01*
X181656441Y-88147231D01*
X181691927Y-88130448D01*
X181728886Y-88117224D01*
X181766964Y-88107686D01*
X181805793Y-88101926D01*
X181845000Y-88100000D01*
X182645000Y-88100000D01*
X182684207Y-88101926D01*
X182684207Y-88101926D01*
G37*
D13*
X182245000Y-88900000D03*
D22*
X168900000Y-76100000D03*
X167600000Y-76100000D03*
X180250000Y-71000000D03*
X111125000Y-58420000D03*
X106045000Y-58420000D03*
X86995000Y-73025000D03*
X86995000Y-71755000D03*
X88265000Y-71755000D03*
X86995000Y-74295000D03*
X86995000Y-78105000D03*
X86995000Y-76835000D03*
X86995000Y-75565000D03*
X67310000Y-80010000D03*
X76200000Y-55880000D03*
X67310000Y-83185000D03*
X67310000Y-81280000D03*
X62230000Y-83185000D03*
X63500000Y-83185000D03*
X64770000Y-83185000D03*
X66040000Y-83185000D03*
X190500000Y-79375000D03*
X190500000Y-59055000D03*
X74295006Y-74295000D03*
X126365000Y-72390000D03*
X126365008Y-74295000D03*
X123825000Y-74295000D03*
X133350000Y-66675000D03*
X179500000Y-64000000D03*
X93980000Y-68580000D03*
X82550000Y-76200000D03*
X60960000Y-73025000D03*
X121285000Y-74295000D03*
X118745000Y-74295000D03*
X116205000Y-74295000D03*
X113665000Y-74295000D03*
X111125000Y-74295000D03*
X108585000Y-74295000D03*
X106045000Y-74295000D03*
X103505000Y-74295000D03*
X100965000Y-74295000D03*
X98425000Y-74295000D03*
X95885000Y-74295000D03*
X93980000Y-70485000D03*
X93980000Y-74295000D03*
X93980000Y-72390000D03*
X93980000Y-66675000D03*
X95885000Y-66675000D03*
X98425000Y-66675000D03*
X100965000Y-66675000D03*
X103505000Y-66675000D03*
X106045000Y-66675000D03*
X108585000Y-66675000D03*
X111125000Y-66675000D03*
X113665000Y-66675000D03*
X116205000Y-66675000D03*
X118745000Y-66675000D03*
X121285000Y-66675000D03*
X123825000Y-66675000D03*
X126365000Y-66675000D03*
X99695000Y-68580000D03*
X100965000Y-68580000D03*
X102235000Y-68580000D03*
X98425000Y-68580000D03*
X103505000Y-68580000D03*
X97155000Y-69850000D03*
X104775000Y-69850000D03*
X97155000Y-71120000D03*
X104775000Y-71120000D03*
X97155000Y-72390000D03*
X104775000Y-72390000D03*
X126365000Y-68580000D03*
X126365000Y-70485000D03*
X134620000Y-65405000D03*
X76200000Y-60960000D03*
X76200000Y-65405000D03*
X134620000Y-69215000D03*
X142875000Y-78105000D03*
X136525000Y-78105000D03*
X136525000Y-73660000D03*
X148500000Y-76500000D03*
X147000000Y-76500000D03*
X108585000Y-60960000D03*
X139065000Y-78105000D03*
X136525000Y-70485000D03*
X140970000Y-78105000D03*
X141605000Y-71120000D03*
X93345000Y-60960000D03*
X78105000Y-60960000D03*
X59054970Y-78105000D03*
X60325000Y-76200000D03*
X170200000Y-76100000D03*
X173719790Y-76199990D03*
X172619139Y-76124869D03*
X171400000Y-76100000D03*
X182880000Y-70485000D03*
X184150000Y-67945000D03*
X123825000Y-59690000D03*
X183515000Y-71755000D03*
D23*
X61556890Y-90766890D02*
X88233110Y-90766890D01*
X60500000Y-89710000D02*
X61556890Y-90766890D01*
X60500000Y-82460000D02*
X60500000Y-89710000D01*
X88233110Y-90766890D02*
X90805000Y-88195000D01*
X90805000Y-85695000D02*
X92500000Y-84000000D01*
X60960000Y-82000000D02*
X60500000Y-82460000D01*
X90805000Y-88195000D02*
X90805000Y-85695000D01*
X92500000Y-84000000D02*
X132260000Y-84000000D01*
X132260000Y-84000000D02*
X136525000Y-88265000D01*
X54000000Y-82000000D02*
X60960000Y-82000000D01*
X60960000Y-82000000D02*
X60960000Y-79970000D01*
X52970000Y-80970000D02*
X54000000Y-82000000D01*
X52355000Y-80970000D02*
X52970000Y-80970000D01*
X62865000Y-78105000D02*
X69850000Y-78105000D01*
X60960000Y-79970000D02*
X61000000Y-79970000D01*
X61000000Y-79970000D02*
X62865000Y-78105000D01*
X55055000Y-79970000D02*
X55055000Y-74970000D01*
X52355000Y-73970000D02*
X52355000Y-80970000D01*
D24*
X145530000Y-81280000D02*
X186530000Y-81280000D01*
X71755000Y-87630000D02*
X78885000Y-80500000D01*
X144750000Y-80500000D02*
X145530000Y-81280000D01*
X78885000Y-80500000D02*
X144750000Y-80500000D01*
X186530000Y-81280000D02*
X191135000Y-85885000D01*
X191135000Y-85885000D02*
X191135000Y-87630000D01*
X150500000Y-72383408D02*
X152411592Y-74295000D01*
X150500000Y-61635000D02*
X150500000Y-72383408D01*
X148385000Y-59520000D02*
X150500000Y-61635000D01*
X147885000Y-59520000D02*
X148385000Y-59520000D01*
X152411592Y-74295000D02*
X167095000Y-74295000D01*
X167095000Y-74295000D02*
X168450001Y-75650001D01*
X168450001Y-75650001D02*
X168900000Y-76100000D01*
X186867789Y-80822789D02*
X145719381Y-80822789D01*
X70114999Y-86730001D02*
X69215000Y-87630000D01*
X145719381Y-80822789D02*
X144896592Y-80000000D01*
X76845000Y-80000000D02*
X70114999Y-86730001D01*
X144896592Y-80000000D02*
X76845000Y-80000000D01*
X193675000Y-87630000D02*
X186867789Y-80822789D01*
X150000000Y-72530000D02*
X150000000Y-64000000D01*
X152400000Y-74930000D02*
X150000000Y-72530000D01*
X166430000Y-74930000D02*
X152400000Y-74930000D01*
X149330000Y-63330000D02*
X147885000Y-63330000D01*
X167600000Y-76100000D02*
X166430000Y-74930000D01*
X150000000Y-64000000D02*
X149330000Y-63330000D01*
X182250000Y-73000000D02*
X180250000Y-71000000D01*
X190500000Y-73000000D02*
X190500000Y-79375000D01*
X190500000Y-73000000D02*
X182250000Y-73000000D01*
X190500000Y-59055000D02*
X190500000Y-73000000D01*
D23*
X86995000Y-71755000D02*
X88265000Y-71755000D01*
X86995000Y-73025000D02*
X86995000Y-71755000D01*
X86995000Y-74295000D02*
X86995000Y-73025000D01*
X86995000Y-75565000D02*
X86995000Y-74295000D01*
X86995000Y-76835000D02*
X86995000Y-75565000D01*
X86995000Y-78105000D02*
X86995000Y-76835000D01*
D25*
X106045000Y-58420000D02*
X111125000Y-58420000D01*
D26*
X83220000Y-89500000D02*
X90220000Y-82500000D01*
X63465000Y-89500000D02*
X83220000Y-89500000D01*
X62230000Y-88265000D02*
X63465000Y-89500000D01*
X62230000Y-83185000D02*
X62230000Y-88265000D01*
X90220000Y-82500000D02*
X140920000Y-82500000D01*
X140920000Y-82500000D02*
X146685000Y-88265000D01*
D25*
X67310000Y-80010000D02*
X71740000Y-80010000D01*
X71740000Y-80010000D02*
X74295006Y-77454994D01*
X74295006Y-77454994D02*
X74295006Y-74295000D01*
X86995000Y-74295000D02*
X74295006Y-74295000D01*
D23*
X71120000Y-78105000D02*
X69850000Y-78105000D01*
X71120000Y-76835000D02*
X71120000Y-78105000D01*
X69850000Y-76835000D02*
X71120000Y-76835000D01*
X69850000Y-78105000D02*
X69850000Y-76835000D01*
D26*
X58420000Y-73660000D02*
X58420000Y-65405000D01*
X58420000Y-65405000D02*
X67945000Y-55880000D01*
X59055000Y-74295000D02*
X58420000Y-73660000D01*
X74295006Y-74295000D02*
X59055000Y-74295000D01*
X67945000Y-55880000D02*
X76200000Y-55880000D01*
D25*
X67310000Y-80010000D02*
X67310000Y-83185000D01*
X67310000Y-83185000D02*
X62230000Y-83185000D01*
X104775000Y-74295000D02*
X97155000Y-74295000D01*
X97155000Y-74295000D02*
X93980000Y-74295000D01*
X97155000Y-72390000D02*
X97155000Y-74295000D01*
X121285000Y-74295000D02*
X104775000Y-74295000D01*
X104775000Y-72390000D02*
X104775000Y-74295000D01*
X104775000Y-71120000D02*
X104775000Y-72390000D01*
X104775000Y-69850000D02*
X104775000Y-71120000D01*
X103505000Y-68580000D02*
X104775000Y-69850000D01*
X102235000Y-68580000D02*
X103505000Y-68580000D01*
X100965000Y-68580000D02*
X102235000Y-68580000D01*
X99695000Y-68580000D02*
X100965000Y-68580000D01*
X98425000Y-68580000D02*
X99695000Y-68580000D01*
X97155000Y-69850000D02*
X98425000Y-68580000D01*
X97155000Y-71120000D02*
X97155000Y-69850000D01*
X97155000Y-72390000D02*
X97155000Y-71120000D01*
X126365000Y-70485000D02*
X126365000Y-68580000D01*
X126365000Y-72390000D02*
X126365000Y-70485000D01*
X126365008Y-72390008D02*
X126365000Y-72390000D01*
X126365000Y-73025000D02*
X126365000Y-72390000D01*
X126365008Y-74295000D02*
X126365008Y-72390008D01*
X121285000Y-74295000D02*
X126365008Y-74295000D01*
X140925000Y-66675000D02*
X133350000Y-66675000D01*
X175750000Y-79750000D02*
X147000000Y-79750000D01*
X147000000Y-79750000D02*
X144000000Y-76750000D01*
X144000000Y-76750000D02*
X144000000Y-69750000D01*
X144000000Y-69750000D02*
X140925000Y-66675000D01*
X93980000Y-66675000D02*
X133350000Y-66675000D01*
X189000000Y-88250000D02*
X190250000Y-89500000D01*
X187320000Y-83820000D02*
X189000000Y-85500000D01*
X189000000Y-85500000D02*
X189000000Y-88250000D01*
X182245000Y-83820000D02*
X187320000Y-83820000D01*
X190250000Y-89500000D02*
X195000000Y-89500000D01*
X195000000Y-89500000D02*
X196215000Y-88285000D01*
X196215000Y-88285000D02*
X196215000Y-87630000D01*
X173500000Y-59000000D02*
X173500000Y-64000000D01*
X173500000Y-65000000D02*
X173500000Y-64000000D01*
X85250000Y-71250000D02*
X84250000Y-72250000D01*
X85250000Y-69690000D02*
X85250000Y-71250000D01*
X86360000Y-68580000D02*
X85250000Y-69690000D01*
X93980000Y-68580000D02*
X86360000Y-68580000D01*
X84250000Y-72250000D02*
X61735000Y-72250000D01*
X61735000Y-72250000D02*
X60960000Y-73025000D01*
X82550000Y-76200000D02*
X78050000Y-76200000D01*
X78050000Y-76200000D02*
X66675000Y-87575000D01*
X66675000Y-87575000D02*
X66675000Y-87630000D01*
X187250000Y-79750000D02*
X175750000Y-79750000D01*
X196215000Y-87630000D02*
X194250000Y-85665000D01*
X193165000Y-85665000D02*
X187250000Y-79750000D01*
X194250000Y-85665000D02*
X193165000Y-85665000D01*
X175750000Y-67250000D02*
X175750000Y-79750000D01*
X179500000Y-64000000D02*
X173500000Y-64000000D01*
X173500000Y-65000000D02*
X175750000Y-67250000D01*
X172750000Y-58250000D02*
X173500000Y-59000000D01*
X170885000Y-58250000D02*
X172750000Y-58250000D01*
X93980000Y-69215000D02*
X93980000Y-68580000D01*
X93980000Y-69215000D02*
X93980000Y-66675000D01*
X93980000Y-74295000D02*
X93980000Y-69215000D01*
D23*
X69850000Y-76835000D02*
X70485000Y-77470000D01*
X71120000Y-76835000D02*
X70485000Y-77470000D01*
X71120000Y-78105000D02*
X70485000Y-77470000D01*
X69850000Y-78105000D02*
X70485000Y-77470000D01*
D24*
X145250000Y-76250000D02*
X145250000Y-69500000D01*
X172250000Y-60385000D02*
X172250000Y-65250000D01*
X172250000Y-65250000D02*
X174500000Y-67500000D01*
X174500000Y-77000000D02*
X173990000Y-77510000D01*
X141155000Y-65405000D02*
X135256396Y-65405000D01*
X145250000Y-69500000D02*
X141155000Y-65405000D01*
X171385000Y-59520000D02*
X172250000Y-60385000D01*
X170885000Y-59520000D02*
X171385000Y-59520000D01*
X135256396Y-65405000D02*
X134620000Y-65405000D01*
X152400000Y-75565000D02*
X150495000Y-77470000D01*
X150495000Y-77470000D02*
X146470000Y-77470000D01*
X173990000Y-77510000D02*
X167680000Y-77510000D01*
X167680000Y-77510000D02*
X165735000Y-75565000D01*
X165735000Y-75565000D02*
X152400000Y-75565000D01*
X174500000Y-67500000D02*
X174500000Y-77000000D01*
X146470000Y-77470000D02*
X145250000Y-76250000D01*
X76200000Y-65405000D02*
X76200000Y-60960000D01*
X134620000Y-69215000D02*
X141965000Y-69215000D01*
X141965000Y-69215000D02*
X142875000Y-70125000D01*
X142875000Y-70125000D02*
X142875000Y-78105000D01*
X136525000Y-73660000D02*
X136525000Y-78105000D01*
X149500000Y-75500000D02*
X148500000Y-76500000D01*
X149500000Y-72750000D02*
X149500000Y-75500000D01*
X148970000Y-72220000D02*
X149500000Y-72750000D01*
X147885000Y-72220000D02*
X148970000Y-72220000D01*
X146300001Y-75800001D02*
X147000000Y-76500000D01*
X146300001Y-71449999D02*
X146300001Y-75800001D01*
X146800000Y-70950000D02*
X146300001Y-71449999D01*
X147885000Y-70950000D02*
X146800000Y-70950000D01*
X147885000Y-65870000D02*
X146514978Y-65870000D01*
X146514978Y-65870000D02*
X140334978Y-59690000D01*
X140334978Y-59690000D02*
X123825000Y-59690000D01*
X147885000Y-67140000D02*
X146515000Y-67140000D01*
X146515000Y-67140000D02*
X140335000Y-60960000D01*
X140335000Y-60960000D02*
X108585000Y-60960000D01*
X138430000Y-70485000D02*
X136525000Y-70485000D01*
X139065000Y-71120000D02*
X138430000Y-70485000D01*
X139065000Y-78105000D02*
X139065000Y-71120000D01*
X141605000Y-77470000D02*
X140970000Y-78105000D01*
X141605000Y-71120000D02*
X141605000Y-77470000D01*
X147885000Y-68410000D02*
X146515000Y-68410000D01*
X146515000Y-68410000D02*
X140335000Y-62230000D01*
X140335000Y-62230000D02*
X94615000Y-62230000D01*
X94615000Y-62230000D02*
X93345000Y-60960000D01*
X78740000Y-63500000D02*
X78105000Y-62865000D01*
X140335000Y-63500000D02*
X78740000Y-63500000D01*
X146515000Y-69680000D02*
X140335000Y-63500000D01*
X147885000Y-69680000D02*
X146515000Y-69680000D01*
X78105000Y-62865000D02*
X78105000Y-60960000D01*
X60325000Y-76200000D02*
X60325000Y-77470000D01*
X59690000Y-78105000D02*
X59054970Y-78105000D01*
X60325000Y-77470000D02*
X59690000Y-78105000D01*
X172500000Y-73800000D02*
X170200000Y-76100000D01*
X171930000Y-69680000D02*
X172500000Y-70250000D01*
X172500000Y-70250000D02*
X172500000Y-73800000D01*
X170885000Y-69680000D02*
X171930000Y-69680000D01*
X170885000Y-65870000D02*
X171870000Y-65870000D01*
X171870000Y-65870000D02*
X174000000Y-68000000D01*
X174000000Y-68000000D02*
X174000000Y-75919780D01*
X174000000Y-75919780D02*
X173719790Y-76199990D01*
X173500000Y-75244008D02*
X172619139Y-76124869D01*
X173500000Y-68750000D02*
X173500000Y-75244008D01*
X171890000Y-67140000D02*
X173500000Y-68750000D01*
X170885000Y-67140000D02*
X171890000Y-67140000D01*
X173000000Y-74500000D02*
X171400000Y-76100000D01*
X173000000Y-69500000D02*
X173000000Y-74500000D01*
X171910000Y-68410000D02*
X173000000Y-69500000D01*
X170885000Y-68410000D02*
X171910000Y-68410000D01*
X182000000Y-57395000D02*
X182000000Y-70875000D01*
X182880000Y-71755000D02*
X183515000Y-71755000D01*
X189860000Y-55250000D02*
X184145000Y-55250000D01*
X184145000Y-55250000D02*
X182000000Y-57395000D01*
X191135000Y-53975000D02*
X189860000Y-55250000D01*
X182000000Y-70875000D02*
X182880000Y-71755000D01*
X182880000Y-70485000D02*
X182880000Y-57785000D01*
X193675000Y-53975000D02*
X191770000Y-55880000D01*
X191770000Y-55880000D02*
X184785000Y-55880000D01*
X184785000Y-55880000D02*
X182880000Y-57785000D01*
X194750000Y-56500000D02*
X196215000Y-55035000D01*
X185435000Y-56500000D02*
X194750000Y-56500000D01*
X184150000Y-57785000D02*
X185435000Y-56500000D01*
X184150000Y-67945000D02*
X184150000Y-57785000D01*
X196215000Y-55035000D02*
X196215000Y-53975000D01*
G36*
X138758394Y-64643000D02*
X135392421Y-64643000D01*
X135234603Y-64485182D01*
X134835820Y-64320000D01*
X134404180Y-64320000D01*
X134005397Y-64485182D01*
X133700182Y-64790397D01*
X133535000Y-65189180D01*
X133535000Y-65620820D01*
X133700182Y-66019603D01*
X134005397Y-66324818D01*
X134404180Y-66490000D01*
X134835820Y-66490000D01*
X135234603Y-66324818D01*
X135392421Y-66167000D01*
X138938000Y-66167000D01*
X138938000Y-68453000D01*
X135392421Y-68453000D01*
X135234603Y-68295182D01*
X134835820Y-68130000D01*
X134404180Y-68130000D01*
X134005397Y-68295182D01*
X133700182Y-68600397D01*
X133535000Y-68999180D01*
X133535000Y-69430820D01*
X133700182Y-69829603D01*
X134005397Y-70134818D01*
X134404180Y-70300000D01*
X134835820Y-70300000D01*
X135234603Y-70134818D01*
X135392421Y-69977000D01*
X135561025Y-69977000D01*
X135440000Y-70269180D01*
X135440000Y-70700820D01*
X135605182Y-71099603D01*
X135910397Y-71404818D01*
X136309180Y-71570000D01*
X136740820Y-71570000D01*
X137139603Y-71404818D01*
X137297421Y-71247000D01*
X138114370Y-71247000D01*
X138303001Y-71435632D01*
X138303000Y-77332579D01*
X138145182Y-77490397D01*
X137980000Y-77889180D01*
X137980000Y-77978000D01*
X137610000Y-77978000D01*
X137610000Y-77889180D01*
X137444818Y-77490397D01*
X137287000Y-77332579D01*
X137287000Y-74432421D01*
X137444818Y-74274603D01*
X137610000Y-73875820D01*
X137610000Y-73444180D01*
X137444818Y-73045397D01*
X137139603Y-72740182D01*
X136740820Y-72575000D01*
X136309180Y-72575000D01*
X135910397Y-72740182D01*
X135605182Y-73045397D01*
X135440000Y-73444180D01*
X135440000Y-73875820D01*
X135605182Y-74274603D01*
X135763000Y-74432421D01*
X135763001Y-77332578D01*
X135605182Y-77490397D01*
X135440000Y-77889180D01*
X135440000Y-77978000D01*
X92762606Y-77978000D01*
X92202000Y-77417394D01*
X92202000Y-64822606D01*
X92762606Y-64262000D01*
X138377394Y-64262000D01*
X138758394Y-64643000D01*
X138758394Y-64643000D01*
G37*
X138758394Y-64643000D02*
X135392421Y-64643000D01*
X135234603Y-64485182D01*
X134835820Y-64320000D01*
X134404180Y-64320000D01*
X134005397Y-64485182D01*
X133700182Y-64790397D01*
X133535000Y-65189180D01*
X133535000Y-65620820D01*
X133700182Y-66019603D01*
X134005397Y-66324818D01*
X134404180Y-66490000D01*
X134835820Y-66490000D01*
X135234603Y-66324818D01*
X135392421Y-66167000D01*
X138938000Y-66167000D01*
X138938000Y-68453000D01*
X135392421Y-68453000D01*
X135234603Y-68295182D01*
X134835820Y-68130000D01*
X134404180Y-68130000D01*
X134005397Y-68295182D01*
X133700182Y-68600397D01*
X133535000Y-68999180D01*
X133535000Y-69430820D01*
X133700182Y-69829603D01*
X134005397Y-70134818D01*
X134404180Y-70300000D01*
X134835820Y-70300000D01*
X135234603Y-70134818D01*
X135392421Y-69977000D01*
X135561025Y-69977000D01*
X135440000Y-70269180D01*
X135440000Y-70700820D01*
X135605182Y-71099603D01*
X135910397Y-71404818D01*
X136309180Y-71570000D01*
X136740820Y-71570000D01*
X137139603Y-71404818D01*
X137297421Y-71247000D01*
X138114370Y-71247000D01*
X138303001Y-71435632D01*
X138303000Y-77332579D01*
X138145182Y-77490397D01*
X137980000Y-77889180D01*
X137980000Y-77978000D01*
X137610000Y-77978000D01*
X137610000Y-77889180D01*
X137444818Y-77490397D01*
X137287000Y-77332579D01*
X137287000Y-74432421D01*
X137444818Y-74274603D01*
X137610000Y-73875820D01*
X137610000Y-73444180D01*
X137444818Y-73045397D01*
X137139603Y-72740182D01*
X136740820Y-72575000D01*
X136309180Y-72575000D01*
X135910397Y-72740182D01*
X135605182Y-73045397D01*
X135440000Y-73444180D01*
X135440000Y-73875820D01*
X135605182Y-74274603D01*
X135763000Y-74432421D01*
X135763001Y-77332578D01*
X135605182Y-77490397D01*
X135440000Y-77889180D01*
X135440000Y-77978000D01*
X92762606Y-77978000D01*
X92202000Y-77417394D01*
X92202000Y-64822606D01*
X92762606Y-64262000D01*
X138377394Y-64262000D01*
X138758394Y-64643000D01*
G36*
X107188000Y-61468000D02*
X94930631Y-61468000D01*
X94430000Y-60967370D01*
X94430000Y-60744180D01*
X94264818Y-60345397D01*
X93959603Y-60040182D01*
X93560820Y-59875000D01*
X93129180Y-59875000D01*
X92730397Y-60040182D01*
X92425182Y-60345397D01*
X92260000Y-60744180D01*
X92260000Y-61175820D01*
X92425182Y-61574603D01*
X92730397Y-61879818D01*
X93129180Y-62045000D01*
X93352370Y-62045000D01*
X94023117Y-62715748D01*
X94037986Y-62738000D01*
X79055631Y-62738000D01*
X78867000Y-62549370D01*
X78867000Y-61732421D01*
X79024818Y-61574603D01*
X79190000Y-61175820D01*
X79190000Y-60744180D01*
X79024818Y-60345397D01*
X78719603Y-60040182D01*
X78320820Y-59875000D01*
X77889180Y-59875000D01*
X77490397Y-60040182D01*
X77185182Y-60345397D01*
X77152500Y-60424298D01*
X77119818Y-60345397D01*
X76814603Y-60040182D01*
X76415820Y-59875000D01*
X75984180Y-59875000D01*
X75585397Y-60040182D01*
X75280182Y-60345397D01*
X75115000Y-60744180D01*
X75115000Y-61175820D01*
X75280182Y-61574603D01*
X75438001Y-61732422D01*
X75438000Y-64632579D01*
X75280182Y-64790397D01*
X75115000Y-65189180D01*
X75115000Y-65620820D01*
X75280182Y-66019603D01*
X75585397Y-66324818D01*
X75984180Y-66490000D01*
X76415820Y-66490000D01*
X76814603Y-66324818D01*
X77119818Y-66019603D01*
X77285000Y-65620820D01*
X77285000Y-65189180D01*
X77119818Y-64790397D01*
X76962000Y-64632579D01*
X76962000Y-61732421D01*
X77119818Y-61574603D01*
X77152500Y-61495702D01*
X77185182Y-61574603D01*
X77343001Y-61732422D01*
X77343000Y-62789957D01*
X77328073Y-62865000D01*
X77343000Y-62940043D01*
X77343000Y-62940047D01*
X77387212Y-63162316D01*
X77555629Y-63414371D01*
X77619253Y-63456883D01*
X78148117Y-63985748D01*
X78190629Y-64049371D01*
X78442683Y-64217788D01*
X78664952Y-64262000D01*
X78664953Y-64262000D01*
X78740000Y-64276928D01*
X78815047Y-64262000D01*
X90678000Y-64262000D01*
X90678000Y-67437000D01*
X86472570Y-67437000D01*
X86359999Y-67414608D01*
X86247428Y-67437000D01*
X85914024Y-67503318D01*
X85535943Y-67755943D01*
X85472174Y-67851380D01*
X84521382Y-68802173D01*
X84425943Y-68865943D01*
X84173318Y-69244025D01*
X84128809Y-69467787D01*
X84084608Y-69690000D01*
X84107000Y-69802571D01*
X84107000Y-70776554D01*
X83776555Y-71107000D01*
X61847572Y-71107000D01*
X61735000Y-71084608D01*
X61289023Y-71173318D01*
X61212251Y-71224616D01*
X60910943Y-71425943D01*
X60847176Y-71521378D01*
X60072177Y-72296378D01*
X59883319Y-72579024D01*
X59794608Y-73025000D01*
X59883319Y-73470976D01*
X60135944Y-73849056D01*
X60514024Y-74101681D01*
X60960000Y-74190392D01*
X61405976Y-74101681D01*
X61688622Y-73912823D01*
X62208446Y-73393000D01*
X84137429Y-73393000D01*
X84250000Y-73415392D01*
X84362571Y-73393000D01*
X84362572Y-73393000D01*
X84695976Y-73326682D01*
X85074057Y-73074057D01*
X85137827Y-72978618D01*
X85978620Y-72137826D01*
X86074057Y-72074057D01*
X86292378Y-71747316D01*
X86326682Y-71695977D01*
X86415392Y-71250000D01*
X86393000Y-71137428D01*
X86393000Y-70163445D01*
X86833446Y-69723000D01*
X90678000Y-69723000D01*
X90678000Y-78740000D01*
X90687667Y-78788601D01*
X90715197Y-78829803D01*
X91123394Y-79238000D01*
X76920047Y-79238000D01*
X76845000Y-79223072D01*
X76769953Y-79238000D01*
X76769952Y-79238000D01*
X76593309Y-79273136D01*
X78523446Y-77343000D01*
X82662572Y-77343000D01*
X82995976Y-77276682D01*
X83374057Y-77024057D01*
X83626682Y-76645976D01*
X83715392Y-76200000D01*
X83626682Y-75754024D01*
X83374057Y-75375943D01*
X82995976Y-75123318D01*
X82662572Y-75057000D01*
X78162570Y-75057000D01*
X78049999Y-75034608D01*
X77937428Y-75057000D01*
X77604024Y-75123318D01*
X77225943Y-75375943D01*
X77162175Y-75471379D01*
X66538555Y-86095000D01*
X66369670Y-86095000D01*
X65805493Y-86328690D01*
X65405000Y-86729183D01*
X65004507Y-86328690D01*
X64440330Y-86095000D01*
X63829670Y-86095000D01*
X63265493Y-86328690D01*
X62833690Y-86760493D01*
X62600000Y-87324670D01*
X62600000Y-87935330D01*
X62833690Y-88499507D01*
X63265493Y-88931310D01*
X63829670Y-89165000D01*
X64440330Y-89165000D01*
X65004507Y-88931310D01*
X65405000Y-88530817D01*
X65805493Y-88931310D01*
X66369670Y-89165000D01*
X66980330Y-89165000D01*
X67544507Y-88931310D01*
X67945000Y-88530817D01*
X68345493Y-88931310D01*
X68909670Y-89165000D01*
X69520330Y-89165000D01*
X70084507Y-88931310D01*
X70485000Y-88530817D01*
X70885493Y-88931310D01*
X71449670Y-89165000D01*
X72060330Y-89165000D01*
X72624507Y-88931310D01*
X73056310Y-88499507D01*
X73290000Y-87935330D01*
X73290000Y-87324670D01*
X73245469Y-87217162D01*
X79200631Y-81262000D01*
X144434370Y-81262000D01*
X144938117Y-81765748D01*
X144980629Y-81829371D01*
X145232683Y-81997788D01*
X145454952Y-82042000D01*
X145454953Y-82042000D01*
X145530000Y-82056928D01*
X145605047Y-82042000D01*
X186214370Y-82042000D01*
X186849370Y-82677000D01*
X183382138Y-82677000D01*
X183045838Y-82452292D01*
X182645000Y-82372560D01*
X181845000Y-82372560D01*
X181444162Y-82452292D01*
X181104348Y-82679348D01*
X180878304Y-83017647D01*
X180496337Y-82635680D01*
X179982881Y-82423000D01*
X179427119Y-82423000D01*
X178913663Y-82635680D01*
X178520680Y-83028663D01*
X178435000Y-83235513D01*
X178349320Y-83028663D01*
X177956337Y-82635680D01*
X177442881Y-82423000D01*
X176887119Y-82423000D01*
X176373663Y-82635680D01*
X175991696Y-83017647D01*
X175765652Y-82679348D01*
X175425838Y-82452292D01*
X175025000Y-82372560D01*
X174225000Y-82372560D01*
X173824162Y-82452292D01*
X173484348Y-82679348D01*
X173257292Y-83019162D01*
X173177560Y-83420000D01*
X173177560Y-84220000D01*
X173257292Y-84620838D01*
X173484348Y-84960652D01*
X173677931Y-85090000D01*
X173484348Y-85219348D01*
X173257292Y-85559162D01*
X173177560Y-85960000D01*
X173177560Y-86760000D01*
X173257292Y-87160838D01*
X173484348Y-87500652D01*
X173677931Y-87630000D01*
X173484348Y-87759348D01*
X173257292Y-88099162D01*
X173177560Y-88500000D01*
X173177560Y-89300000D01*
X173257292Y-89700838D01*
X173484348Y-90040652D01*
X173824162Y-90267708D01*
X174225000Y-90347440D01*
X175025000Y-90347440D01*
X175425838Y-90267708D01*
X175765652Y-90040652D01*
X175991696Y-89702353D01*
X176373663Y-90084320D01*
X176887119Y-90297000D01*
X177442881Y-90297000D01*
X177956337Y-90084320D01*
X178309347Y-89731310D01*
X178344843Y-89909765D01*
X178485191Y-90119809D01*
X178695235Y-90260157D01*
X178943000Y-90309440D01*
X180467000Y-90309440D01*
X180714765Y-90260157D01*
X180924809Y-90119809D01*
X181041025Y-89945882D01*
X181104348Y-90040652D01*
X181444162Y-90267708D01*
X181845000Y-90347440D01*
X182645000Y-90347440D01*
X183045838Y-90267708D01*
X183385652Y-90040652D01*
X183612708Y-89700838D01*
X183692440Y-89300000D01*
X183692440Y-88500000D01*
X183612708Y-88099162D01*
X183385652Y-87759348D01*
X183192069Y-87630000D01*
X183385652Y-87500652D01*
X183612708Y-87160838D01*
X183692440Y-86760000D01*
X183692440Y-85960000D01*
X183612708Y-85559162D01*
X183385652Y-85219348D01*
X183192069Y-85090000D01*
X183382138Y-84963000D01*
X186846555Y-84963000D01*
X187857000Y-85973446D01*
X187857001Y-88137424D01*
X187834608Y-88250000D01*
X187918967Y-88674096D01*
X187923319Y-88695976D01*
X188175944Y-89074057D01*
X188271380Y-89137825D01*
X189362174Y-90228620D01*
X189425943Y-90324057D01*
X189804024Y-90576682D01*
X190137428Y-90643000D01*
X190137429Y-90643000D01*
X190250000Y-90665392D01*
X190362571Y-90643000D01*
X194887429Y-90643000D01*
X195000000Y-90665392D01*
X195112571Y-90643000D01*
X195112572Y-90643000D01*
X195445976Y-90576682D01*
X195824057Y-90324057D01*
X195887827Y-90228618D01*
X196943621Y-89172825D01*
X197039057Y-89109057D01*
X197291682Y-88730976D01*
X197293381Y-88722436D01*
X197485000Y-88530817D01*
X197885493Y-88931310D01*
X198449670Y-89165000D01*
X199060330Y-89165000D01*
X199624507Y-88931310D01*
X200056310Y-88499507D01*
X200290000Y-87935330D01*
X200290000Y-87324670D01*
X200056310Y-86760493D01*
X199624507Y-86328690D01*
X199060330Y-86095000D01*
X198449670Y-86095000D01*
X197885493Y-86328690D01*
X197485000Y-86729183D01*
X197084507Y-86328690D01*
X196520330Y-86095000D01*
X196296446Y-86095000D01*
X195137827Y-84936382D01*
X195074057Y-84840943D01*
X194695976Y-84588318D01*
X194362572Y-84522000D01*
X194362571Y-84522000D01*
X194250000Y-84499608D01*
X194137429Y-84522000D01*
X193638446Y-84522000D01*
X188137827Y-79021382D01*
X188074057Y-78925943D01*
X187695976Y-78673318D01*
X187362572Y-78607000D01*
X187362571Y-78607000D01*
X187250000Y-78584608D01*
X187137429Y-78607000D01*
X176893000Y-78607000D01*
X176893000Y-70784180D01*
X179165000Y-70784180D01*
X179165000Y-71215820D01*
X179330182Y-71614603D01*
X179635397Y-71919818D01*
X180034180Y-72085000D01*
X180257370Y-72085000D01*
X181658118Y-73485749D01*
X181700629Y-73549371D01*
X181952683Y-73717788D01*
X182174952Y-73762000D01*
X182174956Y-73762000D01*
X182249999Y-73776927D01*
X182325042Y-73762000D01*
X189738000Y-73762000D01*
X189738001Y-78602578D01*
X189580182Y-78760397D01*
X189415000Y-79159180D01*
X189415000Y-79590820D01*
X189580182Y-79989603D01*
X189885397Y-80294818D01*
X190284180Y-80460000D01*
X190715820Y-80460000D01*
X191114603Y-80294818D01*
X191419818Y-79989603D01*
X191585000Y-79590820D01*
X191585000Y-79159180D01*
X191419818Y-78760397D01*
X191262000Y-78602579D01*
X191262000Y-73075048D01*
X191276928Y-73000000D01*
X191262000Y-72924952D01*
X191262000Y-59827421D01*
X191419818Y-59669603D01*
X191585000Y-59270820D01*
X191585000Y-58839180D01*
X191419818Y-58440397D01*
X191114603Y-58135182D01*
X190715820Y-57970000D01*
X190284180Y-57970000D01*
X189885397Y-58135182D01*
X189580182Y-58440397D01*
X189415000Y-58839180D01*
X189415000Y-59270820D01*
X189580182Y-59669603D01*
X189738000Y-59827421D01*
X189738001Y-72238000D01*
X184489330Y-72238000D01*
X184600000Y-71970820D01*
X184600000Y-71539180D01*
X184434818Y-71140397D01*
X184129603Y-70835182D01*
X183941601Y-70757309D01*
X183965000Y-70700820D01*
X183965000Y-70269180D01*
X183799818Y-69870397D01*
X183642000Y-69712579D01*
X183642000Y-68908975D01*
X183934180Y-69030000D01*
X184365820Y-69030000D01*
X184764603Y-68864818D01*
X185069818Y-68559603D01*
X185235000Y-68160820D01*
X185235000Y-67729180D01*
X185069818Y-67330397D01*
X184912000Y-67172579D01*
X184912000Y-58100630D01*
X185750631Y-57262000D01*
X194674957Y-57262000D01*
X194750000Y-57276927D01*
X194825043Y-57262000D01*
X194825048Y-57262000D01*
X195047317Y-57217788D01*
X195299371Y-57049371D01*
X195341883Y-56985747D01*
X196700750Y-55626881D01*
X196764371Y-55584371D01*
X196912051Y-55363353D01*
X197015838Y-55342708D01*
X197355652Y-55115652D01*
X197582708Y-54775838D01*
X197662440Y-54375000D01*
X197662440Y-53575000D01*
X197582708Y-53174162D01*
X197355652Y-52834348D01*
X197015838Y-52607292D01*
X196615000Y-52527560D01*
X195815000Y-52527560D01*
X195414162Y-52607292D01*
X195074348Y-52834348D01*
X194945000Y-53027931D01*
X194815652Y-52834348D01*
X194475838Y-52607292D01*
X194075000Y-52527560D01*
X193275000Y-52527560D01*
X192874162Y-52607292D01*
X192534348Y-52834348D01*
X192405000Y-53027931D01*
X192275652Y-52834348D01*
X191935838Y-52607292D01*
X191535000Y-52527560D01*
X190735000Y-52527560D01*
X190334162Y-52607292D01*
X189994348Y-52834348D01*
X189767292Y-53174162D01*
X189687560Y-53575000D01*
X189687560Y-54344810D01*
X189544370Y-54488000D01*
X184220042Y-54488000D01*
X184144999Y-54473073D01*
X184069956Y-54488000D01*
X184069952Y-54488000D01*
X183847683Y-54532212D01*
X183595629Y-54700629D01*
X183553118Y-54764251D01*
X181514253Y-56803117D01*
X181450629Y-56845629D01*
X181282212Y-57097684D01*
X181238000Y-57319953D01*
X181238000Y-57319957D01*
X181223073Y-57395000D01*
X181238000Y-57470043D01*
X181238001Y-70550005D01*
X181169818Y-70385397D01*
X180864603Y-70080182D01*
X180465820Y-69915000D01*
X180034180Y-69915000D01*
X179635397Y-70080182D01*
X179330182Y-70385397D01*
X179165000Y-70784180D01*
X176893000Y-70784180D01*
X176893000Y-67362572D01*
X176915392Y-67250000D01*
X176826682Y-66804023D01*
X176721714Y-66646928D01*
X176574057Y-66425943D01*
X176478621Y-66362175D01*
X175259445Y-65143000D01*
X179612572Y-65143000D01*
X179945976Y-65076682D01*
X180324057Y-64824057D01*
X180576682Y-64445976D01*
X180665392Y-64000000D01*
X180576682Y-63554024D01*
X180324057Y-63175943D01*
X179945976Y-62923318D01*
X179612572Y-62857000D01*
X174643000Y-62857000D01*
X174643000Y-59112570D01*
X174665392Y-58999999D01*
X174626050Y-58802213D01*
X174576682Y-58554024D01*
X174324057Y-58175943D01*
X174228621Y-58112175D01*
X173637827Y-57521382D01*
X173574057Y-57425943D01*
X173195976Y-57173318D01*
X172862572Y-57107000D01*
X172862571Y-57107000D01*
X172750000Y-57084608D01*
X172637429Y-57107000D01*
X172516973Y-57107000D01*
X172542235Y-56980000D01*
X172454146Y-56537145D01*
X172203289Y-56161711D01*
X171827855Y-55910854D01*
X171496783Y-55845000D01*
X170273217Y-55845000D01*
X169942145Y-55910854D01*
X169566711Y-56161711D01*
X169315854Y-56537145D01*
X169227765Y-56980000D01*
X169315854Y-57422855D01*
X169444241Y-57615000D01*
X169315854Y-57807145D01*
X169227765Y-58250000D01*
X169315854Y-58692855D01*
X169444241Y-58885000D01*
X169315854Y-59077145D01*
X169227765Y-59520000D01*
X169315854Y-59962855D01*
X169444241Y-60155000D01*
X169315854Y-60347145D01*
X169227765Y-60790000D01*
X169315854Y-61232855D01*
X169444241Y-61425000D01*
X169315854Y-61617145D01*
X169227765Y-62060000D01*
X169315854Y-62502855D01*
X169444241Y-62695000D01*
X169315854Y-62887145D01*
X169227765Y-63330000D01*
X169315854Y-63772855D01*
X169444241Y-63965000D01*
X169315854Y-64157145D01*
X169227765Y-64600000D01*
X169315854Y-65042855D01*
X169444241Y-65235000D01*
X169315854Y-65427145D01*
X169227765Y-65870000D01*
X169315854Y-66312855D01*
X169444241Y-66505000D01*
X169315854Y-66697145D01*
X169227765Y-67140000D01*
X169315854Y-67582855D01*
X169444241Y-67775000D01*
X169315854Y-67967145D01*
X169227765Y-68410000D01*
X169315854Y-68852855D01*
X169444241Y-69045000D01*
X169315854Y-69237145D01*
X169227765Y-69680000D01*
X169315854Y-70122855D01*
X169444241Y-70315000D01*
X169315854Y-70507145D01*
X169227765Y-70950000D01*
X169315854Y-71392855D01*
X169444241Y-71585000D01*
X169315854Y-71777145D01*
X169227765Y-72220000D01*
X169315854Y-72662855D01*
X169444241Y-72855000D01*
X169315854Y-73047145D01*
X169227765Y-73490000D01*
X169315854Y-73932855D01*
X169566711Y-74308289D01*
X169942145Y-74559146D01*
X170273217Y-74625000D01*
X170597370Y-74625000D01*
X170207370Y-75015000D01*
X169984180Y-75015000D01*
X169585397Y-75180182D01*
X169550000Y-75215579D01*
X169514603Y-75180182D01*
X169115820Y-75015000D01*
X168892631Y-75015000D01*
X167686883Y-73809253D01*
X167644371Y-73745629D01*
X167392317Y-73577212D01*
X167170048Y-73533000D01*
X167170043Y-73533000D01*
X167095000Y-73518073D01*
X167019957Y-73533000D01*
X152727223Y-73533000D01*
X151262000Y-72067778D01*
X151262000Y-61710047D01*
X151276928Y-61635000D01*
X151245722Y-61478118D01*
X151217788Y-61337683D01*
X151049371Y-61085629D01*
X150985750Y-61043119D01*
X149529028Y-59586397D01*
X149542235Y-59520000D01*
X149454146Y-59077145D01*
X149325759Y-58885000D01*
X149454146Y-58692855D01*
X149542235Y-58250000D01*
X149454146Y-57807145D01*
X149325759Y-57615000D01*
X149454146Y-57422855D01*
X149542235Y-56980000D01*
X149454146Y-56537145D01*
X149203289Y-56161711D01*
X148827855Y-55910854D01*
X148496783Y-55845000D01*
X147273217Y-55845000D01*
X146942145Y-55910854D01*
X146566711Y-56161711D01*
X146315854Y-56537145D01*
X146227765Y-56980000D01*
X146315854Y-57422855D01*
X146444241Y-57615000D01*
X146315854Y-57807145D01*
X146227765Y-58250000D01*
X146315854Y-58692855D01*
X146444241Y-58885000D01*
X146315854Y-59077145D01*
X146227765Y-59520000D01*
X146315854Y-59962855D01*
X146444241Y-60155000D01*
X146315854Y-60347145D01*
X146227765Y-60790000D01*
X146315854Y-61232855D01*
X146444241Y-61425000D01*
X146315854Y-61617145D01*
X146227765Y-62060000D01*
X146315854Y-62502855D01*
X146444241Y-62695000D01*
X146315854Y-62887145D01*
X146227765Y-63330000D01*
X146315854Y-63772855D01*
X146444241Y-63965000D01*
X146315854Y-64157145D01*
X146243501Y-64520892D01*
X140926861Y-59204253D01*
X140884349Y-59140629D01*
X140632295Y-58972212D01*
X140410026Y-58928000D01*
X140410021Y-58928000D01*
X140334978Y-58913073D01*
X140259935Y-58928000D01*
X124597421Y-58928000D01*
X124439603Y-58770182D01*
X124040820Y-58605000D01*
X123609180Y-58605000D01*
X123210397Y-58770182D01*
X122905182Y-59075397D01*
X122740000Y-59474180D01*
X122740000Y-59905820D01*
X122861025Y-60198000D01*
X109357421Y-60198000D01*
X109199603Y-60040182D01*
X108800820Y-59875000D01*
X108712000Y-59875000D01*
X108712000Y-51473100D01*
X148531113Y-51473100D01*
X148790600Y-51518854D01*
X148967005Y-51620703D01*
X149097938Y-51776742D01*
X149177890Y-51996410D01*
X149186900Y-52099392D01*
X149186901Y-54676291D01*
X149192662Y-54705255D01*
X149208755Y-54889197D01*
X149231517Y-54974144D01*
X149246787Y-55060747D01*
X149397641Y-55475215D01*
X149459799Y-55582875D01*
X149514524Y-55677661D01*
X149798036Y-56015537D01*
X149819593Y-56033625D01*
X149977109Y-56165797D01*
X150359082Y-56386331D01*
X150359083Y-56386332D01*
X150359084Y-56386332D01*
X150359087Y-56386333D01*
X150578750Y-56466284D01*
X150578752Y-56466284D01*
X151005906Y-56541602D01*
X151063709Y-56553100D01*
X167706291Y-56553100D01*
X167735264Y-56547337D01*
X167919197Y-56531245D01*
X168004144Y-56508483D01*
X168090747Y-56493213D01*
X168505215Y-56342359D01*
X168707661Y-56225476D01*
X169045537Y-55941964D01*
X169126899Y-55845000D01*
X169195797Y-55762891D01*
X169416331Y-55380918D01*
X169419104Y-55373301D01*
X169447135Y-55296286D01*
X169496284Y-55161250D01*
X169496284Y-55161248D01*
X169571602Y-54734094D01*
X169583100Y-54676291D01*
X169583100Y-52128887D01*
X169628854Y-51869400D01*
X169730703Y-51692995D01*
X169886742Y-51562062D01*
X170106410Y-51482110D01*
X170209391Y-51473100D01*
X206218232Y-51473100D01*
X206179281Y-51512051D01*
X205688000Y-52698110D01*
X205688000Y-53981890D01*
X206179281Y-55167949D01*
X207087051Y-56075719D01*
X208273110Y-56567000D01*
X209556890Y-56567000D01*
X210742949Y-56075719D01*
X211416900Y-55401768D01*
X211416901Y-61536107D01*
X211371146Y-61795600D01*
X211269298Y-61972005D01*
X211113258Y-62102938D01*
X210893592Y-62182890D01*
X210790608Y-62191900D01*
X210118709Y-62191900D01*
X210089737Y-62197663D01*
X209905803Y-62213755D01*
X209820856Y-62236517D01*
X209734253Y-62251787D01*
X209319786Y-62402641D01*
X209117339Y-62519524D01*
X208779463Y-62803036D01*
X208752971Y-62834608D01*
X208629203Y-62982109D01*
X208408669Y-63364082D01*
X208408668Y-63364084D01*
X208371938Y-63465000D01*
X208328716Y-63583750D01*
X208328716Y-63583752D01*
X208253390Y-64010950D01*
X208241901Y-64068709D01*
X208241900Y-74361290D01*
X208247663Y-74390262D01*
X208263755Y-74574197D01*
X208286517Y-74659144D01*
X208301787Y-74745747D01*
X208452641Y-75160215D01*
X208553430Y-75334786D01*
X208569524Y-75362661D01*
X208853036Y-75700537D01*
X208874593Y-75718625D01*
X209032109Y-75850797D01*
X209414082Y-76071331D01*
X209414083Y-76071332D01*
X209414084Y-76071332D01*
X209471798Y-76092338D01*
X209633750Y-76151284D01*
X209633752Y-76151284D01*
X210060906Y-76226602D01*
X210118709Y-76238100D01*
X210761113Y-76238100D01*
X211020600Y-76283854D01*
X211197005Y-76385703D01*
X211327938Y-76541742D01*
X211407890Y-76761410D01*
X211416900Y-76864392D01*
X211416901Y-86714836D01*
X210896156Y-85457647D01*
X209817353Y-84378844D01*
X208407829Y-83795000D01*
X206882171Y-83795000D01*
X205472647Y-84378844D01*
X204393844Y-85457647D01*
X203810000Y-86867171D01*
X203810000Y-88392829D01*
X204393844Y-89802353D01*
X205358391Y-90766900D01*
X169868343Y-90766900D01*
X170221228Y-90414015D01*
X170798800Y-89019634D01*
X170798800Y-87510366D01*
X170221228Y-86115985D01*
X169154015Y-85048772D01*
X167759634Y-84471200D01*
X166250366Y-84471200D01*
X164855985Y-85048772D01*
X163788772Y-86115985D01*
X163211200Y-87510366D01*
X163211200Y-89019634D01*
X163788772Y-90414015D01*
X164141657Y-90766900D01*
X159708343Y-90766900D01*
X160061228Y-90414015D01*
X160638800Y-89019634D01*
X160638800Y-87510366D01*
X160061228Y-86115985D01*
X158994015Y-85048772D01*
X157599634Y-84471200D01*
X156090366Y-84471200D01*
X154695985Y-85048772D01*
X153628772Y-86115985D01*
X153051200Y-87510366D01*
X153051200Y-89019634D01*
X153628772Y-90414015D01*
X153981657Y-90766900D01*
X148681880Y-90766900D01*
X148813432Y-90573037D01*
X146685000Y-88444605D01*
X144556568Y-90573037D01*
X144688120Y-90766900D01*
X139388343Y-90766900D01*
X139741228Y-90414015D01*
X140318800Y-89019634D01*
X140318800Y-88906034D01*
X143449515Y-88906034D01*
X143941115Y-90095405D01*
X143943887Y-90099554D01*
X144376963Y-90393432D01*
X146505395Y-88265000D01*
X146864605Y-88265000D01*
X148993037Y-90393432D01*
X149426113Y-90099554D01*
X149919511Y-88910928D01*
X149920485Y-87623966D01*
X149428885Y-86434595D01*
X149426113Y-86430446D01*
X148993037Y-86136568D01*
X146864605Y-88265000D01*
X146505395Y-88265000D01*
X144376963Y-86136568D01*
X143943887Y-86430446D01*
X143450489Y-87619072D01*
X143449515Y-88906034D01*
X140318800Y-88906034D01*
X140318800Y-87510366D01*
X139741228Y-86115985D01*
X139582206Y-85956963D01*
X144556568Y-85956963D01*
X146685000Y-88085395D01*
X148813432Y-85956963D01*
X148519554Y-85523887D01*
X147330928Y-85030489D01*
X146043966Y-85029515D01*
X144854595Y-85521115D01*
X144850446Y-85523887D01*
X144556568Y-85956963D01*
X139582206Y-85956963D01*
X138674015Y-85048772D01*
X137279634Y-84471200D01*
X135770366Y-84471200D01*
X134637351Y-84940511D01*
X133049180Y-83352340D01*
X132992495Y-83267505D01*
X132656423Y-83042949D01*
X132360065Y-82984000D01*
X132360063Y-82984000D01*
X132260000Y-82964096D01*
X132159937Y-82984000D01*
X92600063Y-82984000D01*
X92500000Y-82964096D01*
X92399936Y-82984000D01*
X92399935Y-82984000D01*
X92103577Y-83042949D01*
X91767505Y-83267505D01*
X91710822Y-83352337D01*
X90157337Y-84905822D01*
X90072506Y-84962505D01*
X90015823Y-85047337D01*
X89847950Y-85298577D01*
X89769096Y-85695000D01*
X89789001Y-85795068D01*
X89789000Y-87774159D01*
X87812270Y-89750890D01*
X61977731Y-89750890D01*
X61516000Y-89289160D01*
X61516000Y-82880840D01*
X61607660Y-82789180D01*
X61692495Y-82732495D01*
X61917051Y-82396423D01*
X61995904Y-82000000D01*
X61976000Y-81899935D01*
X61976000Y-80430840D01*
X63285841Y-79121000D01*
X69598256Y-79121000D01*
X69644126Y-79140000D01*
X69845455Y-79140000D01*
X69850000Y-79140904D01*
X69854545Y-79140000D01*
X70055874Y-79140000D01*
X70101744Y-79121000D01*
X70868256Y-79121000D01*
X70914126Y-79140000D01*
X71115455Y-79140000D01*
X71120000Y-79140904D01*
X71124545Y-79140000D01*
X71325874Y-79140000D01*
X71511877Y-79062955D01*
X71516423Y-79062051D01*
X71520277Y-79059476D01*
X71706280Y-78982431D01*
X71848641Y-78840070D01*
X71852495Y-78837495D01*
X71855070Y-78833641D01*
X71997431Y-78691280D01*
X72074476Y-78505277D01*
X72077051Y-78501423D01*
X72077955Y-78496877D01*
X72155000Y-78310874D01*
X72155000Y-78109545D01*
X72155904Y-78105000D01*
X72155000Y-78100455D01*
X72155000Y-77899126D01*
X72136000Y-77853256D01*
X72136000Y-77086744D01*
X72155000Y-77040874D01*
X72155000Y-76839545D01*
X72155904Y-76835000D01*
X72155000Y-76830455D01*
X72155000Y-76629126D01*
X72077955Y-76443123D01*
X72077051Y-76438577D01*
X72074476Y-76434723D01*
X71997431Y-76248720D01*
X71855070Y-76106359D01*
X71852495Y-76102505D01*
X71848641Y-76099930D01*
X71706280Y-75957569D01*
X71520277Y-75880524D01*
X71516423Y-75877949D01*
X71511877Y-75877045D01*
X71325874Y-75800000D01*
X71124545Y-75800000D01*
X71120000Y-75799096D01*
X71115455Y-75800000D01*
X70914126Y-75800000D01*
X70868256Y-75819000D01*
X70101744Y-75819000D01*
X70055874Y-75800000D01*
X69854545Y-75800000D01*
X69850000Y-75799096D01*
X69845455Y-75800000D01*
X69644126Y-75800000D01*
X69458123Y-75877045D01*
X69453577Y-75877949D01*
X69449723Y-75880524D01*
X69263720Y-75957569D01*
X69121359Y-76099930D01*
X69117505Y-76102505D01*
X69114930Y-76106359D01*
X68972569Y-76248720D01*
X68895524Y-76434723D01*
X68892949Y-76438577D01*
X68892045Y-76443123D01*
X68815000Y-76629126D01*
X68815000Y-76830455D01*
X68814096Y-76835000D01*
X68815000Y-76839545D01*
X68815000Y-77040874D01*
X68834001Y-77086746D01*
X68834001Y-77089000D01*
X62965063Y-77089000D01*
X62864999Y-77069096D01*
X62764935Y-77089000D01*
X62468577Y-77147949D01*
X62468576Y-77147950D01*
X62468575Y-77147950D01*
X62431561Y-77172682D01*
X62132505Y-77372505D01*
X62075822Y-77457337D01*
X60432886Y-79100274D01*
X60227505Y-79237505D01*
X60002949Y-79573577D01*
X59924096Y-79970000D01*
X59944001Y-80070069D01*
X59944001Y-80984000D01*
X55964330Y-80984000D01*
X56207952Y-80740378D01*
X56415000Y-80240521D01*
X56415000Y-79699479D01*
X56207952Y-79199622D01*
X56071000Y-79062670D01*
X56071000Y-77889180D01*
X57969970Y-77889180D01*
X57969970Y-78320820D01*
X58135152Y-78719603D01*
X58440367Y-79024818D01*
X58839150Y-79190000D01*
X59270790Y-79190000D01*
X59669573Y-79024818D01*
X59842871Y-78851520D01*
X59987317Y-78822788D01*
X60239371Y-78654371D01*
X60281883Y-78590747D01*
X60810749Y-78061882D01*
X60874371Y-78019371D01*
X61042788Y-77767317D01*
X61087000Y-77545048D01*
X61087000Y-77545047D01*
X61101928Y-77470000D01*
X61087000Y-77394953D01*
X61087000Y-76972421D01*
X61244818Y-76814603D01*
X61410000Y-76415820D01*
X61410000Y-75984180D01*
X61244818Y-75585397D01*
X60939603Y-75280182D01*
X60540820Y-75115000D01*
X60109180Y-75115000D01*
X59710397Y-75280182D01*
X59405182Y-75585397D01*
X59240000Y-75984180D01*
X59240000Y-76415820D01*
X59405182Y-76814603D01*
X59563001Y-76972422D01*
X59563001Y-77141038D01*
X59270790Y-77020000D01*
X58839150Y-77020000D01*
X58440367Y-77185182D01*
X58135152Y-77490397D01*
X57969970Y-77889180D01*
X56071000Y-77889180D01*
X56071000Y-75877330D01*
X56207952Y-75740378D01*
X56415000Y-75240521D01*
X56415000Y-74699479D01*
X56207952Y-74199622D01*
X55825378Y-73817048D01*
X55325521Y-73610000D01*
X54784479Y-73610000D01*
X54284622Y-73817048D01*
X53922610Y-74179060D01*
X53964195Y-73970000D01*
X53868344Y-73488127D01*
X53595385Y-73079615D01*
X53186873Y-72806656D01*
X52826636Y-72735000D01*
X51883364Y-72735000D01*
X51523127Y-72806656D01*
X51473100Y-72840083D01*
X51473100Y-55401768D01*
X52147051Y-56075719D01*
X53333110Y-56567000D01*
X54616890Y-56567000D01*
X55802949Y-56075719D01*
X56710719Y-55167949D01*
X57202000Y-53981890D01*
X57202000Y-52698110D01*
X56710719Y-51512051D01*
X56671768Y-51473100D01*
X107188000Y-51473100D01*
X107188000Y-61468000D01*
X107188000Y-61468000D01*
G37*
X107188000Y-61468000D02*
X94930631Y-61468000D01*
X94430000Y-60967370D01*
X94430000Y-60744180D01*
X94264818Y-60345397D01*
X93959603Y-60040182D01*
X93560820Y-59875000D01*
X93129180Y-59875000D01*
X92730397Y-60040182D01*
X92425182Y-60345397D01*
X92260000Y-60744180D01*
X92260000Y-61175820D01*
X92425182Y-61574603D01*
X92730397Y-61879818D01*
X93129180Y-62045000D01*
X93352370Y-62045000D01*
X94023117Y-62715748D01*
X94037986Y-62738000D01*
X79055631Y-62738000D01*
X78867000Y-62549370D01*
X78867000Y-61732421D01*
X79024818Y-61574603D01*
X79190000Y-61175820D01*
X79190000Y-60744180D01*
X79024818Y-60345397D01*
X78719603Y-60040182D01*
X78320820Y-59875000D01*
X77889180Y-59875000D01*
X77490397Y-60040182D01*
X77185182Y-60345397D01*
X77152500Y-60424298D01*
X77119818Y-60345397D01*
X76814603Y-60040182D01*
X76415820Y-59875000D01*
X75984180Y-59875000D01*
X75585397Y-60040182D01*
X75280182Y-60345397D01*
X75115000Y-60744180D01*
X75115000Y-61175820D01*
X75280182Y-61574603D01*
X75438001Y-61732422D01*
X75438000Y-64632579D01*
X75280182Y-64790397D01*
X75115000Y-65189180D01*
X75115000Y-65620820D01*
X75280182Y-66019603D01*
X75585397Y-66324818D01*
X75984180Y-66490000D01*
X76415820Y-66490000D01*
X76814603Y-66324818D01*
X77119818Y-66019603D01*
X77285000Y-65620820D01*
X77285000Y-65189180D01*
X77119818Y-64790397D01*
X76962000Y-64632579D01*
X76962000Y-61732421D01*
X77119818Y-61574603D01*
X77152500Y-61495702D01*
X77185182Y-61574603D01*
X77343001Y-61732422D01*
X77343000Y-62789957D01*
X77328073Y-62865000D01*
X77343000Y-62940043D01*
X77343000Y-62940047D01*
X77387212Y-63162316D01*
X77555629Y-63414371D01*
X77619253Y-63456883D01*
X78148117Y-63985748D01*
X78190629Y-64049371D01*
X78442683Y-64217788D01*
X78664952Y-64262000D01*
X78664953Y-64262000D01*
X78740000Y-64276928D01*
X78815047Y-64262000D01*
X90678000Y-64262000D01*
X90678000Y-67437000D01*
X86472570Y-67437000D01*
X86359999Y-67414608D01*
X86247428Y-67437000D01*
X85914024Y-67503318D01*
X85535943Y-67755943D01*
X85472174Y-67851380D01*
X84521382Y-68802173D01*
X84425943Y-68865943D01*
X84173318Y-69244025D01*
X84128809Y-69467787D01*
X84084608Y-69690000D01*
X84107000Y-69802571D01*
X84107000Y-70776554D01*
X83776555Y-71107000D01*
X61847572Y-71107000D01*
X61735000Y-71084608D01*
X61289023Y-71173318D01*
X61212251Y-71224616D01*
X60910943Y-71425943D01*
X60847176Y-71521378D01*
X60072177Y-72296378D01*
X59883319Y-72579024D01*
X59794608Y-73025000D01*
X59883319Y-73470976D01*
X60135944Y-73849056D01*
X60514024Y-74101681D01*
X60960000Y-74190392D01*
X61405976Y-74101681D01*
X61688622Y-73912823D01*
X62208446Y-73393000D01*
X84137429Y-73393000D01*
X84250000Y-73415392D01*
X84362571Y-73393000D01*
X84362572Y-73393000D01*
X84695976Y-73326682D01*
X85074057Y-73074057D01*
X85137827Y-72978618D01*
X85978620Y-72137826D01*
X86074057Y-72074057D01*
X86292378Y-71747316D01*
X86326682Y-71695977D01*
X86415392Y-71250000D01*
X86393000Y-71137428D01*
X86393000Y-70163445D01*
X86833446Y-69723000D01*
X90678000Y-69723000D01*
X90678000Y-78740000D01*
X90687667Y-78788601D01*
X90715197Y-78829803D01*
X91123394Y-79238000D01*
X76920047Y-79238000D01*
X76845000Y-79223072D01*
X76769953Y-79238000D01*
X76769952Y-79238000D01*
X76593309Y-79273136D01*
X78523446Y-77343000D01*
X82662572Y-77343000D01*
X82995976Y-77276682D01*
X83374057Y-77024057D01*
X83626682Y-76645976D01*
X83715392Y-76200000D01*
X83626682Y-75754024D01*
X83374057Y-75375943D01*
X82995976Y-75123318D01*
X82662572Y-75057000D01*
X78162570Y-75057000D01*
X78049999Y-75034608D01*
X77937428Y-75057000D01*
X77604024Y-75123318D01*
X77225943Y-75375943D01*
X77162175Y-75471379D01*
X66538555Y-86095000D01*
X66369670Y-86095000D01*
X65805493Y-86328690D01*
X65405000Y-86729183D01*
X65004507Y-86328690D01*
X64440330Y-86095000D01*
X63829670Y-86095000D01*
X63265493Y-86328690D01*
X62833690Y-86760493D01*
X62600000Y-87324670D01*
X62600000Y-87935330D01*
X62833690Y-88499507D01*
X63265493Y-88931310D01*
X63829670Y-89165000D01*
X64440330Y-89165000D01*
X65004507Y-88931310D01*
X65405000Y-88530817D01*
X65805493Y-88931310D01*
X66369670Y-89165000D01*
X66980330Y-89165000D01*
X67544507Y-88931310D01*
X67945000Y-88530817D01*
X68345493Y-88931310D01*
X68909670Y-89165000D01*
X69520330Y-89165000D01*
X70084507Y-88931310D01*
X70485000Y-88530817D01*
X70885493Y-88931310D01*
X71449670Y-89165000D01*
X72060330Y-89165000D01*
X72624507Y-88931310D01*
X73056310Y-88499507D01*
X73290000Y-87935330D01*
X73290000Y-87324670D01*
X73245469Y-87217162D01*
X79200631Y-81262000D01*
X144434370Y-81262000D01*
X144938117Y-81765748D01*
X144980629Y-81829371D01*
X145232683Y-81997788D01*
X145454952Y-82042000D01*
X145454953Y-82042000D01*
X145530000Y-82056928D01*
X145605047Y-82042000D01*
X186214370Y-82042000D01*
X186849370Y-82677000D01*
X183382138Y-82677000D01*
X183045838Y-82452292D01*
X182645000Y-82372560D01*
X181845000Y-82372560D01*
X181444162Y-82452292D01*
X181104348Y-82679348D01*
X180878304Y-83017647D01*
X180496337Y-82635680D01*
X179982881Y-82423000D01*
X179427119Y-82423000D01*
X178913663Y-82635680D01*
X178520680Y-83028663D01*
X178435000Y-83235513D01*
X178349320Y-83028663D01*
X177956337Y-82635680D01*
X177442881Y-82423000D01*
X176887119Y-82423000D01*
X176373663Y-82635680D01*
X175991696Y-83017647D01*
X175765652Y-82679348D01*
X175425838Y-82452292D01*
X175025000Y-82372560D01*
X174225000Y-82372560D01*
X173824162Y-82452292D01*
X173484348Y-82679348D01*
X173257292Y-83019162D01*
X173177560Y-83420000D01*
X173177560Y-84220000D01*
X173257292Y-84620838D01*
X173484348Y-84960652D01*
X173677931Y-85090000D01*
X173484348Y-85219348D01*
X173257292Y-85559162D01*
X173177560Y-85960000D01*
X173177560Y-86760000D01*
X173257292Y-87160838D01*
X173484348Y-87500652D01*
X173677931Y-87630000D01*
X173484348Y-87759348D01*
X173257292Y-88099162D01*
X173177560Y-88500000D01*
X173177560Y-89300000D01*
X173257292Y-89700838D01*
X173484348Y-90040652D01*
X173824162Y-90267708D01*
X174225000Y-90347440D01*
X175025000Y-90347440D01*
X175425838Y-90267708D01*
X175765652Y-90040652D01*
X175991696Y-89702353D01*
X176373663Y-90084320D01*
X176887119Y-90297000D01*
X177442881Y-90297000D01*
X177956337Y-90084320D01*
X178309347Y-89731310D01*
X178344843Y-89909765D01*
X178485191Y-90119809D01*
X178695235Y-90260157D01*
X178943000Y-90309440D01*
X180467000Y-90309440D01*
X180714765Y-90260157D01*
X180924809Y-90119809D01*
X181041025Y-89945882D01*
X181104348Y-90040652D01*
X181444162Y-90267708D01*
X181845000Y-90347440D01*
X182645000Y-90347440D01*
X183045838Y-90267708D01*
X183385652Y-90040652D01*
X183612708Y-89700838D01*
X183692440Y-89300000D01*
X183692440Y-88500000D01*
X183612708Y-88099162D01*
X183385652Y-87759348D01*
X183192069Y-87630000D01*
X183385652Y-87500652D01*
X183612708Y-87160838D01*
X183692440Y-86760000D01*
X183692440Y-85960000D01*
X183612708Y-85559162D01*
X183385652Y-85219348D01*
X183192069Y-85090000D01*
X183382138Y-84963000D01*
X186846555Y-84963000D01*
X187857000Y-85973446D01*
X187857001Y-88137424D01*
X187834608Y-88250000D01*
X187918967Y-88674096D01*
X187923319Y-88695976D01*
X188175944Y-89074057D01*
X188271380Y-89137825D01*
X189362174Y-90228620D01*
X189425943Y-90324057D01*
X189804024Y-90576682D01*
X190137428Y-90643000D01*
X190137429Y-90643000D01*
X190250000Y-90665392D01*
X190362571Y-90643000D01*
X194887429Y-90643000D01*
X195000000Y-90665392D01*
X195112571Y-90643000D01*
X195112572Y-90643000D01*
X195445976Y-90576682D01*
X195824057Y-90324057D01*
X195887827Y-90228618D01*
X196943621Y-89172825D01*
X197039057Y-89109057D01*
X197291682Y-88730976D01*
X197293381Y-88722436D01*
X197485000Y-88530817D01*
X197885493Y-88931310D01*
X198449670Y-89165000D01*
X199060330Y-89165000D01*
X199624507Y-88931310D01*
X200056310Y-88499507D01*
X200290000Y-87935330D01*
X200290000Y-87324670D01*
X200056310Y-86760493D01*
X199624507Y-86328690D01*
X199060330Y-86095000D01*
X198449670Y-86095000D01*
X197885493Y-86328690D01*
X197485000Y-86729183D01*
X197084507Y-86328690D01*
X196520330Y-86095000D01*
X196296446Y-86095000D01*
X195137827Y-84936382D01*
X195074057Y-84840943D01*
X194695976Y-84588318D01*
X194362572Y-84522000D01*
X194362571Y-84522000D01*
X194250000Y-84499608D01*
X194137429Y-84522000D01*
X193638446Y-84522000D01*
X188137827Y-79021382D01*
X188074057Y-78925943D01*
X187695976Y-78673318D01*
X187362572Y-78607000D01*
X187362571Y-78607000D01*
X187250000Y-78584608D01*
X187137429Y-78607000D01*
X176893000Y-78607000D01*
X176893000Y-70784180D01*
X179165000Y-70784180D01*
X179165000Y-71215820D01*
X179330182Y-71614603D01*
X179635397Y-71919818D01*
X180034180Y-72085000D01*
X180257370Y-72085000D01*
X181658118Y-73485749D01*
X181700629Y-73549371D01*
X181952683Y-73717788D01*
X182174952Y-73762000D01*
X182174956Y-73762000D01*
X182249999Y-73776927D01*
X182325042Y-73762000D01*
X189738000Y-73762000D01*
X189738001Y-78602578D01*
X189580182Y-78760397D01*
X189415000Y-79159180D01*
X189415000Y-79590820D01*
X189580182Y-79989603D01*
X189885397Y-80294818D01*
X190284180Y-80460000D01*
X190715820Y-80460000D01*
X191114603Y-80294818D01*
X191419818Y-79989603D01*
X191585000Y-79590820D01*
X191585000Y-79159180D01*
X191419818Y-78760397D01*
X191262000Y-78602579D01*
X191262000Y-73075048D01*
X191276928Y-73000000D01*
X191262000Y-72924952D01*
X191262000Y-59827421D01*
X191419818Y-59669603D01*
X191585000Y-59270820D01*
X191585000Y-58839180D01*
X191419818Y-58440397D01*
X191114603Y-58135182D01*
X190715820Y-57970000D01*
X190284180Y-57970000D01*
X189885397Y-58135182D01*
X189580182Y-58440397D01*
X189415000Y-58839180D01*
X189415000Y-59270820D01*
X189580182Y-59669603D01*
X189738000Y-59827421D01*
X189738001Y-72238000D01*
X184489330Y-72238000D01*
X184600000Y-71970820D01*
X184600000Y-71539180D01*
X184434818Y-71140397D01*
X184129603Y-70835182D01*
X183941601Y-70757309D01*
X183965000Y-70700820D01*
X183965000Y-70269180D01*
X183799818Y-69870397D01*
X183642000Y-69712579D01*
X183642000Y-68908975D01*
X183934180Y-69030000D01*
X184365820Y-69030000D01*
X184764603Y-68864818D01*
X185069818Y-68559603D01*
X185235000Y-68160820D01*
X185235000Y-67729180D01*
X185069818Y-67330397D01*
X184912000Y-67172579D01*
X184912000Y-58100630D01*
X185750631Y-57262000D01*
X194674957Y-57262000D01*
X194750000Y-57276927D01*
X194825043Y-57262000D01*
X194825048Y-57262000D01*
X195047317Y-57217788D01*
X195299371Y-57049371D01*
X195341883Y-56985747D01*
X196700750Y-55626881D01*
X196764371Y-55584371D01*
X196912051Y-55363353D01*
X197015838Y-55342708D01*
X197355652Y-55115652D01*
X197582708Y-54775838D01*
X197662440Y-54375000D01*
X197662440Y-53575000D01*
X197582708Y-53174162D01*
X197355652Y-52834348D01*
X197015838Y-52607292D01*
X196615000Y-52527560D01*
X195815000Y-52527560D01*
X195414162Y-52607292D01*
X195074348Y-52834348D01*
X194945000Y-53027931D01*
X194815652Y-52834348D01*
X194475838Y-52607292D01*
X194075000Y-52527560D01*
X193275000Y-52527560D01*
X192874162Y-52607292D01*
X192534348Y-52834348D01*
X192405000Y-53027931D01*
X192275652Y-52834348D01*
X191935838Y-52607292D01*
X191535000Y-52527560D01*
X190735000Y-52527560D01*
X190334162Y-52607292D01*
X189994348Y-52834348D01*
X189767292Y-53174162D01*
X189687560Y-53575000D01*
X189687560Y-54344810D01*
X189544370Y-54488000D01*
X184220042Y-54488000D01*
X184144999Y-54473073D01*
X184069956Y-54488000D01*
X184069952Y-54488000D01*
X183847683Y-54532212D01*
X183595629Y-54700629D01*
X183553118Y-54764251D01*
X181514253Y-56803117D01*
X181450629Y-56845629D01*
X181282212Y-57097684D01*
X181238000Y-57319953D01*
X181238000Y-57319957D01*
X181223073Y-57395000D01*
X181238000Y-57470043D01*
X181238001Y-70550005D01*
X181169818Y-70385397D01*
X180864603Y-70080182D01*
X180465820Y-69915000D01*
X180034180Y-69915000D01*
X179635397Y-70080182D01*
X179330182Y-70385397D01*
X179165000Y-70784180D01*
X176893000Y-70784180D01*
X176893000Y-67362572D01*
X176915392Y-67250000D01*
X176826682Y-66804023D01*
X176721714Y-66646928D01*
X176574057Y-66425943D01*
X176478621Y-66362175D01*
X175259445Y-65143000D01*
X179612572Y-65143000D01*
X179945976Y-65076682D01*
X180324057Y-64824057D01*
X180576682Y-64445976D01*
X180665392Y-64000000D01*
X180576682Y-63554024D01*
X180324057Y-63175943D01*
X179945976Y-62923318D01*
X179612572Y-62857000D01*
X174643000Y-62857000D01*
X174643000Y-59112570D01*
X174665392Y-58999999D01*
X174626050Y-58802213D01*
X174576682Y-58554024D01*
X174324057Y-58175943D01*
X174228621Y-58112175D01*
X173637827Y-57521382D01*
X173574057Y-57425943D01*
X173195976Y-57173318D01*
X172862572Y-57107000D01*
X172862571Y-57107000D01*
X172750000Y-57084608D01*
X172637429Y-57107000D01*
X172516973Y-57107000D01*
X172542235Y-56980000D01*
X172454146Y-56537145D01*
X172203289Y-56161711D01*
X171827855Y-55910854D01*
X171496783Y-55845000D01*
X170273217Y-55845000D01*
X169942145Y-55910854D01*
X169566711Y-56161711D01*
X169315854Y-56537145D01*
X169227765Y-56980000D01*
X169315854Y-57422855D01*
X169444241Y-57615000D01*
X169315854Y-57807145D01*
X169227765Y-58250000D01*
X169315854Y-58692855D01*
X169444241Y-58885000D01*
X169315854Y-59077145D01*
X169227765Y-59520000D01*
X169315854Y-59962855D01*
X169444241Y-60155000D01*
X169315854Y-60347145D01*
X169227765Y-60790000D01*
X169315854Y-61232855D01*
X169444241Y-61425000D01*
X169315854Y-61617145D01*
X169227765Y-62060000D01*
X169315854Y-62502855D01*
X169444241Y-62695000D01*
X169315854Y-62887145D01*
X169227765Y-63330000D01*
X169315854Y-63772855D01*
X169444241Y-63965000D01*
X169315854Y-64157145D01*
X169227765Y-64600000D01*
X169315854Y-65042855D01*
X169444241Y-65235000D01*
X169315854Y-65427145D01*
X169227765Y-65870000D01*
X169315854Y-66312855D01*
X169444241Y-66505000D01*
X169315854Y-66697145D01*
X169227765Y-67140000D01*
X169315854Y-67582855D01*
X169444241Y-67775000D01*
X169315854Y-67967145D01*
X169227765Y-68410000D01*
X169315854Y-68852855D01*
X169444241Y-69045000D01*
X169315854Y-69237145D01*
X169227765Y-69680000D01*
X169315854Y-70122855D01*
X169444241Y-70315000D01*
X169315854Y-70507145D01*
X169227765Y-70950000D01*
X169315854Y-71392855D01*
X169444241Y-71585000D01*
X169315854Y-71777145D01*
X169227765Y-72220000D01*
X169315854Y-72662855D01*
X169444241Y-72855000D01*
X169315854Y-73047145D01*
X169227765Y-73490000D01*
X169315854Y-73932855D01*
X169566711Y-74308289D01*
X169942145Y-74559146D01*
X170273217Y-74625000D01*
X170597370Y-74625000D01*
X170207370Y-75015000D01*
X169984180Y-75015000D01*
X169585397Y-75180182D01*
X169550000Y-75215579D01*
X169514603Y-75180182D01*
X169115820Y-75015000D01*
X168892631Y-75015000D01*
X167686883Y-73809253D01*
X167644371Y-73745629D01*
X167392317Y-73577212D01*
X167170048Y-73533000D01*
X167170043Y-73533000D01*
X167095000Y-73518073D01*
X167019957Y-73533000D01*
X152727223Y-73533000D01*
X151262000Y-72067778D01*
X151262000Y-61710047D01*
X151276928Y-61635000D01*
X151245722Y-61478118D01*
X151217788Y-61337683D01*
X151049371Y-61085629D01*
X150985750Y-61043119D01*
X149529028Y-59586397D01*
X149542235Y-59520000D01*
X149454146Y-59077145D01*
X149325759Y-58885000D01*
X149454146Y-58692855D01*
X149542235Y-58250000D01*
X149454146Y-57807145D01*
X149325759Y-57615000D01*
X149454146Y-57422855D01*
X149542235Y-56980000D01*
X149454146Y-56537145D01*
X149203289Y-56161711D01*
X148827855Y-55910854D01*
X148496783Y-55845000D01*
X147273217Y-55845000D01*
X146942145Y-55910854D01*
X146566711Y-56161711D01*
X146315854Y-56537145D01*
X146227765Y-56980000D01*
X146315854Y-57422855D01*
X146444241Y-57615000D01*
X146315854Y-57807145D01*
X146227765Y-58250000D01*
X146315854Y-58692855D01*
X146444241Y-58885000D01*
X146315854Y-59077145D01*
X146227765Y-59520000D01*
X146315854Y-59962855D01*
X146444241Y-60155000D01*
X146315854Y-60347145D01*
X146227765Y-60790000D01*
X146315854Y-61232855D01*
X146444241Y-61425000D01*
X146315854Y-61617145D01*
X146227765Y-62060000D01*
X146315854Y-62502855D01*
X146444241Y-62695000D01*
X146315854Y-62887145D01*
X146227765Y-63330000D01*
X146315854Y-63772855D01*
X146444241Y-63965000D01*
X146315854Y-64157145D01*
X146243501Y-64520892D01*
X140926861Y-59204253D01*
X140884349Y-59140629D01*
X140632295Y-58972212D01*
X140410026Y-58928000D01*
X140410021Y-58928000D01*
X140334978Y-58913073D01*
X140259935Y-58928000D01*
X124597421Y-58928000D01*
X124439603Y-58770182D01*
X124040820Y-58605000D01*
X123609180Y-58605000D01*
X123210397Y-58770182D01*
X122905182Y-59075397D01*
X122740000Y-59474180D01*
X122740000Y-59905820D01*
X122861025Y-60198000D01*
X109357421Y-60198000D01*
X109199603Y-60040182D01*
X108800820Y-59875000D01*
X108712000Y-59875000D01*
X108712000Y-51473100D01*
X148531113Y-51473100D01*
X148790600Y-51518854D01*
X148967005Y-51620703D01*
X149097938Y-51776742D01*
X149177890Y-51996410D01*
X149186900Y-52099392D01*
X149186901Y-54676291D01*
X149192662Y-54705255D01*
X149208755Y-54889197D01*
X149231517Y-54974144D01*
X149246787Y-55060747D01*
X149397641Y-55475215D01*
X149459799Y-55582875D01*
X149514524Y-55677661D01*
X149798036Y-56015537D01*
X149819593Y-56033625D01*
X149977109Y-56165797D01*
X150359082Y-56386331D01*
X150359083Y-56386332D01*
X150359084Y-56386332D01*
X150359087Y-56386333D01*
X150578750Y-56466284D01*
X150578752Y-56466284D01*
X151005906Y-56541602D01*
X151063709Y-56553100D01*
X167706291Y-56553100D01*
X167735264Y-56547337D01*
X167919197Y-56531245D01*
X168004144Y-56508483D01*
X168090747Y-56493213D01*
X168505215Y-56342359D01*
X168707661Y-56225476D01*
X169045537Y-55941964D01*
X169126899Y-55845000D01*
X169195797Y-55762891D01*
X169416331Y-55380918D01*
X169419104Y-55373301D01*
X169447135Y-55296286D01*
X169496284Y-55161250D01*
X169496284Y-55161248D01*
X169571602Y-54734094D01*
X169583100Y-54676291D01*
X169583100Y-52128887D01*
X169628854Y-51869400D01*
X169730703Y-51692995D01*
X169886742Y-51562062D01*
X170106410Y-51482110D01*
X170209391Y-51473100D01*
X206218232Y-51473100D01*
X206179281Y-51512051D01*
X205688000Y-52698110D01*
X205688000Y-53981890D01*
X206179281Y-55167949D01*
X207087051Y-56075719D01*
X208273110Y-56567000D01*
X209556890Y-56567000D01*
X210742949Y-56075719D01*
X211416900Y-55401768D01*
X211416901Y-61536107D01*
X211371146Y-61795600D01*
X211269298Y-61972005D01*
X211113258Y-62102938D01*
X210893592Y-62182890D01*
X210790608Y-62191900D01*
X210118709Y-62191900D01*
X210089737Y-62197663D01*
X209905803Y-62213755D01*
X209820856Y-62236517D01*
X209734253Y-62251787D01*
X209319786Y-62402641D01*
X209117339Y-62519524D01*
X208779463Y-62803036D01*
X208752971Y-62834608D01*
X208629203Y-62982109D01*
X208408669Y-63364082D01*
X208408668Y-63364084D01*
X208371938Y-63465000D01*
X208328716Y-63583750D01*
X208328716Y-63583752D01*
X208253390Y-64010950D01*
X208241901Y-64068709D01*
X208241900Y-74361290D01*
X208247663Y-74390262D01*
X208263755Y-74574197D01*
X208286517Y-74659144D01*
X208301787Y-74745747D01*
X208452641Y-75160215D01*
X208553430Y-75334786D01*
X208569524Y-75362661D01*
X208853036Y-75700537D01*
X208874593Y-75718625D01*
X209032109Y-75850797D01*
X209414082Y-76071331D01*
X209414083Y-76071332D01*
X209414084Y-76071332D01*
X209471798Y-76092338D01*
X209633750Y-76151284D01*
X209633752Y-76151284D01*
X210060906Y-76226602D01*
X210118709Y-76238100D01*
X210761113Y-76238100D01*
X211020600Y-76283854D01*
X211197005Y-76385703D01*
X211327938Y-76541742D01*
X211407890Y-76761410D01*
X211416900Y-76864392D01*
X211416901Y-86714836D01*
X210896156Y-85457647D01*
X209817353Y-84378844D01*
X208407829Y-83795000D01*
X206882171Y-83795000D01*
X205472647Y-84378844D01*
X204393844Y-85457647D01*
X203810000Y-86867171D01*
X203810000Y-88392829D01*
X204393844Y-89802353D01*
X205358391Y-90766900D01*
X169868343Y-90766900D01*
X170221228Y-90414015D01*
X170798800Y-89019634D01*
X170798800Y-87510366D01*
X170221228Y-86115985D01*
X169154015Y-85048772D01*
X167759634Y-84471200D01*
X166250366Y-84471200D01*
X164855985Y-85048772D01*
X163788772Y-86115985D01*
X163211200Y-87510366D01*
X163211200Y-89019634D01*
X163788772Y-90414015D01*
X164141657Y-90766900D01*
X159708343Y-90766900D01*
X160061228Y-90414015D01*
X160638800Y-89019634D01*
X160638800Y-87510366D01*
X160061228Y-86115985D01*
X158994015Y-85048772D01*
X157599634Y-84471200D01*
X156090366Y-84471200D01*
X154695985Y-85048772D01*
X153628772Y-86115985D01*
X153051200Y-87510366D01*
X153051200Y-89019634D01*
X153628772Y-90414015D01*
X153981657Y-90766900D01*
X148681880Y-90766900D01*
X148813432Y-90573037D01*
X146685000Y-88444605D01*
X144556568Y-90573037D01*
X144688120Y-90766900D01*
X139388343Y-90766900D01*
X139741228Y-90414015D01*
X140318800Y-89019634D01*
X140318800Y-88906034D01*
X143449515Y-88906034D01*
X143941115Y-90095405D01*
X143943887Y-90099554D01*
X144376963Y-90393432D01*
X146505395Y-88265000D01*
X146864605Y-88265000D01*
X148993037Y-90393432D01*
X149426113Y-90099554D01*
X149919511Y-88910928D01*
X149920485Y-87623966D01*
X149428885Y-86434595D01*
X149426113Y-86430446D01*
X148993037Y-86136568D01*
X146864605Y-88265000D01*
X146505395Y-88265000D01*
X144376963Y-86136568D01*
X143943887Y-86430446D01*
X143450489Y-87619072D01*
X143449515Y-88906034D01*
X140318800Y-88906034D01*
X140318800Y-87510366D01*
X139741228Y-86115985D01*
X139582206Y-85956963D01*
X144556568Y-85956963D01*
X146685000Y-88085395D01*
X148813432Y-85956963D01*
X148519554Y-85523887D01*
X147330928Y-85030489D01*
X146043966Y-85029515D01*
X144854595Y-85521115D01*
X144850446Y-85523887D01*
X144556568Y-85956963D01*
X139582206Y-85956963D01*
X138674015Y-85048772D01*
X137279634Y-84471200D01*
X135770366Y-84471200D01*
X134637351Y-84940511D01*
X133049180Y-83352340D01*
X132992495Y-83267505D01*
X132656423Y-83042949D01*
X132360065Y-82984000D01*
X132360063Y-82984000D01*
X132260000Y-82964096D01*
X132159937Y-82984000D01*
X92600063Y-82984000D01*
X92500000Y-82964096D01*
X92399936Y-82984000D01*
X92399935Y-82984000D01*
X92103577Y-83042949D01*
X91767505Y-83267505D01*
X91710822Y-83352337D01*
X90157337Y-84905822D01*
X90072506Y-84962505D01*
X90015823Y-85047337D01*
X89847950Y-85298577D01*
X89769096Y-85695000D01*
X89789001Y-85795068D01*
X89789000Y-87774159D01*
X87812270Y-89750890D01*
X61977731Y-89750890D01*
X61516000Y-89289160D01*
X61516000Y-82880840D01*
X61607660Y-82789180D01*
X61692495Y-82732495D01*
X61917051Y-82396423D01*
X61995904Y-82000000D01*
X61976000Y-81899935D01*
X61976000Y-80430840D01*
X63285841Y-79121000D01*
X69598256Y-79121000D01*
X69644126Y-79140000D01*
X69845455Y-79140000D01*
X69850000Y-79140904D01*
X69854545Y-79140000D01*
X70055874Y-79140000D01*
X70101744Y-79121000D01*
X70868256Y-79121000D01*
X70914126Y-79140000D01*
X71115455Y-79140000D01*
X71120000Y-79140904D01*
X71124545Y-79140000D01*
X71325874Y-79140000D01*
X71511877Y-79062955D01*
X71516423Y-79062051D01*
X71520277Y-79059476D01*
X71706280Y-78982431D01*
X71848641Y-78840070D01*
X71852495Y-78837495D01*
X71855070Y-78833641D01*
X71997431Y-78691280D01*
X72074476Y-78505277D01*
X72077051Y-78501423D01*
X72077955Y-78496877D01*
X72155000Y-78310874D01*
X72155000Y-78109545D01*
X72155904Y-78105000D01*
X72155000Y-78100455D01*
X72155000Y-77899126D01*
X72136000Y-77853256D01*
X72136000Y-77086744D01*
X72155000Y-77040874D01*
X72155000Y-76839545D01*
X72155904Y-76835000D01*
X72155000Y-76830455D01*
X72155000Y-76629126D01*
X72077955Y-76443123D01*
X72077051Y-76438577D01*
X72074476Y-76434723D01*
X71997431Y-76248720D01*
X71855070Y-76106359D01*
X71852495Y-76102505D01*
X71848641Y-76099930D01*
X71706280Y-75957569D01*
X71520277Y-75880524D01*
X71516423Y-75877949D01*
X71511877Y-75877045D01*
X71325874Y-75800000D01*
X71124545Y-75800000D01*
X71120000Y-75799096D01*
X71115455Y-75800000D01*
X70914126Y-75800000D01*
X70868256Y-75819000D01*
X70101744Y-75819000D01*
X70055874Y-75800000D01*
X69854545Y-75800000D01*
X69850000Y-75799096D01*
X69845455Y-75800000D01*
X69644126Y-75800000D01*
X69458123Y-75877045D01*
X69453577Y-75877949D01*
X69449723Y-75880524D01*
X69263720Y-75957569D01*
X69121359Y-76099930D01*
X69117505Y-76102505D01*
X69114930Y-76106359D01*
X68972569Y-76248720D01*
X68895524Y-76434723D01*
X68892949Y-76438577D01*
X68892045Y-76443123D01*
X68815000Y-76629126D01*
X68815000Y-76830455D01*
X68814096Y-76835000D01*
X68815000Y-76839545D01*
X68815000Y-77040874D01*
X68834001Y-77086746D01*
X68834001Y-77089000D01*
X62965063Y-77089000D01*
X62864999Y-77069096D01*
X62764935Y-77089000D01*
X62468577Y-77147949D01*
X62468576Y-77147950D01*
X62468575Y-77147950D01*
X62431561Y-77172682D01*
X62132505Y-77372505D01*
X62075822Y-77457337D01*
X60432886Y-79100274D01*
X60227505Y-79237505D01*
X60002949Y-79573577D01*
X59924096Y-79970000D01*
X59944001Y-80070069D01*
X59944001Y-80984000D01*
X55964330Y-80984000D01*
X56207952Y-80740378D01*
X56415000Y-80240521D01*
X56415000Y-79699479D01*
X56207952Y-79199622D01*
X56071000Y-79062670D01*
X56071000Y-77889180D01*
X57969970Y-77889180D01*
X57969970Y-78320820D01*
X58135152Y-78719603D01*
X58440367Y-79024818D01*
X58839150Y-79190000D01*
X59270790Y-79190000D01*
X59669573Y-79024818D01*
X59842871Y-78851520D01*
X59987317Y-78822788D01*
X60239371Y-78654371D01*
X60281883Y-78590747D01*
X60810749Y-78061882D01*
X60874371Y-78019371D01*
X61042788Y-77767317D01*
X61087000Y-77545048D01*
X61087000Y-77545047D01*
X61101928Y-77470000D01*
X61087000Y-77394953D01*
X61087000Y-76972421D01*
X61244818Y-76814603D01*
X61410000Y-76415820D01*
X61410000Y-75984180D01*
X61244818Y-75585397D01*
X60939603Y-75280182D01*
X60540820Y-75115000D01*
X60109180Y-75115000D01*
X59710397Y-75280182D01*
X59405182Y-75585397D01*
X59240000Y-75984180D01*
X59240000Y-76415820D01*
X59405182Y-76814603D01*
X59563001Y-76972422D01*
X59563001Y-77141038D01*
X59270790Y-77020000D01*
X58839150Y-77020000D01*
X58440367Y-77185182D01*
X58135152Y-77490397D01*
X57969970Y-77889180D01*
X56071000Y-77889180D01*
X56071000Y-75877330D01*
X56207952Y-75740378D01*
X56415000Y-75240521D01*
X56415000Y-74699479D01*
X56207952Y-74199622D01*
X55825378Y-73817048D01*
X55325521Y-73610000D01*
X54784479Y-73610000D01*
X54284622Y-73817048D01*
X53922610Y-74179060D01*
X53964195Y-73970000D01*
X53868344Y-73488127D01*
X53595385Y-73079615D01*
X53186873Y-72806656D01*
X52826636Y-72735000D01*
X51883364Y-72735000D01*
X51523127Y-72806656D01*
X51473100Y-72840083D01*
X51473100Y-55401768D01*
X52147051Y-56075719D01*
X53333110Y-56567000D01*
X54616890Y-56567000D01*
X55802949Y-56075719D01*
X56710719Y-55167949D01*
X57202000Y-53981890D01*
X57202000Y-52698110D01*
X56710719Y-51512051D01*
X56671768Y-51473100D01*
X107188000Y-51473100D01*
X107188000Y-61468000D01*
M02*
