G04 #@! TF.GenerationSoftware,KiCad,Pcbnew,5.0.0-rc2-dev-unknown-b5f1fdd~62~ubuntu16.04.1*
G04 #@! TF.CreationDate,2018-03-21T15:48:13+05:30*
G04 #@! TF.ProjectId,k3jr_controller,6B336A725F636F6E74726F6C6C65722E,rev 1*
G04 #@! TF.SameCoordinates,Original*
G04 #@! TF.FileFunction,Profile,NP*
%FSLAX46Y46*%
G04 Gerber Fmt 4.6, Leading zero omitted, Abs format (unit mm)*
G04 Created by KiCad (PCBNEW 5.0.0-rc2-dev-unknown-b5f1fdd~62~ubuntu16.04.1) date Wed Mar 21 15:48:13 2018*
%MOMM*%
%LPD*%
G01*
G04 APERTURE LIST*
%ADD10C,0.076200*%
G04 APERTURE END LIST*
D10*
X211455000Y-91440000D02*
X211455000Y-91440000D01*
X51435000Y-91440000D02*
X211455000Y-91440000D01*
X212090000Y-90805000D02*
G75*
G02X211455000Y-91440000I-635000J0D01*
G01*
X51435000Y-91440000D02*
G75*
G02X50800000Y-90805000I0J635000D01*
G01*
X50800000Y-90805000D02*
X50800000Y-53340000D01*
X53340000Y-50800000D02*
X148590000Y-50800000D01*
X212090000Y-76835000D02*
X212090000Y-90805000D01*
X50800000Y-53340000D02*
G75*
G02X53340000Y-50800000I2540000J0D01*
G01*
X209550000Y-50800000D02*
G75*
G02X212090000Y-53340000I0J-2540000D01*
G01*
X168910000Y-91440000D02*
X168910000Y-91440000D01*
X148590000Y-50800000D02*
G75*
G02X149860000Y-52070000I0J-1270000D01*
G01*
X151130000Y-55880000D02*
G75*
G02X149860000Y-54610000I0J1270000D01*
G01*
X168910000Y-54610000D02*
G75*
G02X167640000Y-55880000I-1270000J0D01*
G01*
X168910000Y-52070000D02*
G75*
G02X170180000Y-50800000I1270000J0D01*
G01*
X168910000Y-52070000D02*
X168910000Y-54610000D01*
X151130000Y-55880000D02*
X167640000Y-55880000D01*
X149860000Y-52070000D02*
X149860000Y-54610000D01*
X170180000Y-50800000D02*
X209550000Y-50800000D01*
X209550000Y-50800000D02*
X209550000Y-50800000D01*
X212090000Y-61595000D02*
G75*
G02X210820000Y-62865000I-1270000J0D01*
G01*
X210820000Y-75565000D02*
G75*
G02X212090000Y-76835000I0J-1270000D01*
G01*
X210185000Y-75565000D02*
G75*
G02X208915000Y-74295000I0J1270000D01*
G01*
X208915000Y-64135000D02*
G75*
G02X210185000Y-62865000I1270000J0D01*
G01*
X210820000Y-62865000D02*
X210185000Y-62865000D01*
X208915000Y-74295000D02*
X208915000Y-64135000D01*
X210820000Y-75565000D02*
X210185000Y-75565000D01*
X212090000Y-53340000D02*
X212090000Y-61595000D01*
X211455000Y-93980000D02*
X211455000Y-93980000D01*
X168910000Y-91440000D02*
X168910000Y-91440000D01*
M02*
