M48
INCH,TZ
T1C0.0197
T2C0.0236
T3C0.0335
T4C0.0400
T5C0.0402
T6C0.0472
T7C0.1260
T8C0.0500
T9C0.1260
%
G90
G05
T1
X022850Y-032500
X023950Y-032750
X025000Y-032500
X026150Y-029350
X026150Y-031400
X027250Y-030750
X027550Y-030000
X027950Y-031894
X030000Y-024000
X030200Y-026250
X030250Y-022000
X030750Y-024000
X032150Y-028250
X033050Y-025750
X033400Y-034650
X033900Y-034650
X034400Y-034650
X036750Y-024000
X037000Y-029400
X037000Y-029950
X037000Y-030500
X037500Y-029400
X037500Y-029950
X037500Y-030500
X038000Y-029400
X038000Y-029950
X038000Y-030500
X039750Y-026250
X039750Y-029250
X040750Y-026250
X040750Y-027000
X040750Y-027750
X040750Y-028500
X040750Y-029250
X041750Y-026250
X041750Y-029250
X042750Y-024000
X042750Y-026250
X042750Y-029250
X043250Y-027500
X043250Y-028000
X043250Y-028500
X043750Y-026250
X043750Y-027000
X043750Y-029250
X044250Y-027000
X044650Y-035500
X044750Y-026250
X044750Y-027000
X044750Y-029250
X045200Y-035500
X045250Y-027000
X045750Y-026250
X045750Y-027000
X045750Y-029250
X046250Y-027500
X046250Y-028000
X046250Y-028500
X046550Y-033650
X046550Y-034150
X046750Y-026250
X046750Y-029250
X047750Y-026250
X047750Y-029250
X048750Y-023500
X048750Y-026250
X048750Y-029250
X049750Y-026250
X049750Y-027000
X049750Y-027750
X049750Y-028500
X049750Y-029250
X051750Y-026250
X052559Y-025886
X053000Y-027250
X053750Y-027750
X053750Y-029000
X053814Y-030814
X054750Y-030750
X055500Y-030750
X055750Y-028000
X056250Y-030750
X057874Y-030118
X058465Y-030118
X065984Y-029961
X066496Y-029961
X070669Y-025197
X070965Y-027953
X072000Y-027750
X072250Y-028250
X072500Y-026750
X075000Y-023250
X075000Y-031250
X031250Y-030250
X031250Y-030750
X031500Y-030500
X031750Y-030250
X031750Y-030750
X058222Y-022433
X058222Y-022933
X058222Y-023433
X058222Y-023933
X058222Y-024433
X058222Y-024933
X058222Y-025433
X058222Y-025933
X058222Y-026433
X058222Y-026933
X058222Y-027433
X058222Y-027933
X058222Y-028433
X058222Y-028933
X060500Y-030504
X061000Y-030504
X061500Y-030504
X062000Y-030504
X062500Y-030504
X063000Y-030504
X063500Y-030504
X064000Y-030504
X064500Y-030504
X065000Y-030504
X067278Y-022433
X067278Y-022933
X067278Y-023433
X067278Y-023933
X067278Y-024433
X067278Y-024933
X067278Y-025433
X067278Y-025933
X067278Y-026433
X067278Y-026933
X067278Y-027433
X067278Y-027933
X067278Y-028433
X067278Y-028933
X020805Y-034500
X021082Y-033832
X021082Y-035168
X021750Y-033555
X021750Y-035445
X022418Y-033832
X022418Y-035168
X022695Y-034500
X080805Y-034500
X081082Y-033832
X081082Y-035168
X081750Y-033555
X081750Y-035445
X082418Y-033832
X082418Y-035168
X082695Y-034500
T3
X021675Y-029516
X021675Y-031484
T4
X069750Y-033000
X069750Y-034000
X069750Y-035000
X070750Y-033000
X070750Y-034000
X070750Y-035000
T5
X071750Y-033000
X068750Y-034000
X071750Y-034000
X077250Y-021250
X025250Y-034500
X026250Y-034500
X027250Y-034500
X028250Y-034500
X075250Y-034500
X076250Y-034500
X077250Y-034500
X078250Y-034500
X075250Y-021250
X076250Y-021250
X071750Y-035000
X068750Y-035000
X068750Y-033000
T6
X032750Y-021250
X034750Y-021250
X068750Y-021250
X070750Y-021250
T7
X041750Y-034750
X037750Y-034750
X053750Y-034750
X057750Y-034750
X021750Y-034500
X081750Y-034500
T8
X033750Y-021250
X069750Y-021250
T9
X021250Y-021000
X082250Y-021000
T2
X020474Y-029122G85X020750Y-029122
G05
X020750Y-031878G85X020474Y-031878
G05
T0
M30
