G04 #@! TF.GenerationSoftware,KiCad,Pcbnew,5.0.0-rc2-dev-unknown-b5f1fdd~62~ubuntu16.04.1*
G04 #@! TF.CreationDate,2018-03-21T15:48:13+05:30*
G04 #@! TF.ProjectId,k3jr_controller,6B336A725F636F6E74726F6C6C65722E,rev 1*
G04 #@! TF.SameCoordinates,Original*
G04 #@! TF.FileFunction,Copper,L1,Top,Signal*
G04 #@! TF.FilePolarity,Positive*
%FSLAX46Y46*%
G04 Gerber Fmt 4.6, Leading zero omitted, Abs format (unit mm)*
G04 Created by KiCad (PCBNEW 5.0.0-rc2-dev-unknown-b5f1fdd~62~ubuntu16.04.1) date Wed Mar 21 15:48:13 2018*
%MOMM*%
%LPD*%
G01*
G04 APERTURE LIST*
%ADD10C,2.000000*%
%ADD11R,1.300480X1.498600*%
%ADD12C,1.450000*%
%ADD13O,1.900000X1.200000*%
%ADD14C,0.800000*%
%ADD15C,6.400000*%
%ADD16C,0.127000*%
%ADD17C,1.600000*%
%ADD18C,5.200000*%
%ADD19C,1.524000*%
%ADD20R,1.524000X1.524000*%
%ADD21C,1.800000*%
%ADD22O,1.000000X2.000000*%
%ADD23O,2.000000X1.000000*%
%ADD24C,0.900000*%
%ADD25C,1.016000*%
%ADD26C,0.254000*%
G04 APERTURE END LIST*
D10*
X83185000Y-53975000D03*
X88265000Y-53975000D03*
D11*
X87225000Y-53975000D03*
X84225000Y-53975000D03*
D10*
X179705000Y-53975000D03*
X174625000Y-53975000D03*
D11*
X175665000Y-53975000D03*
X178665000Y-53975000D03*
D12*
X55055000Y-79970000D03*
X55055000Y-74970000D03*
D13*
X52355000Y-80970000D03*
X52355000Y-73970000D03*
D14*
X56942056Y-85932944D03*
X55245000Y-85230000D03*
X53547944Y-85932944D03*
X52845000Y-87630000D03*
X53547944Y-89327056D03*
X55245000Y-90030000D03*
X56942056Y-89327056D03*
X57645000Y-87630000D03*
D15*
X55245000Y-87630000D03*
D14*
X80010000Y-77470000D03*
X79375000Y-76835000D03*
X80645000Y-76835000D03*
X80645000Y-78105000D03*
X79375000Y-78105000D03*
D16*
G36*
X191574207Y-53176926D02*
X191613036Y-53182686D01*
X191651114Y-53192224D01*
X191688073Y-53205448D01*
X191723559Y-53222231D01*
X191757228Y-53242412D01*
X191788757Y-53265796D01*
X191817843Y-53292157D01*
X191844204Y-53321243D01*
X191867588Y-53352772D01*
X191887769Y-53386441D01*
X191904552Y-53421927D01*
X191917776Y-53458886D01*
X191927314Y-53496964D01*
X191933074Y-53535793D01*
X191935000Y-53575000D01*
X191935000Y-54375000D01*
X191933074Y-54414207D01*
X191927314Y-54453036D01*
X191917776Y-54491114D01*
X191904552Y-54528073D01*
X191887769Y-54563559D01*
X191867588Y-54597228D01*
X191844204Y-54628757D01*
X191817843Y-54657843D01*
X191788757Y-54684204D01*
X191757228Y-54707588D01*
X191723559Y-54727769D01*
X191688073Y-54744552D01*
X191651114Y-54757776D01*
X191613036Y-54767314D01*
X191574207Y-54773074D01*
X191535000Y-54775000D01*
X190735000Y-54775000D01*
X190695793Y-54773074D01*
X190656964Y-54767314D01*
X190618886Y-54757776D01*
X190581927Y-54744552D01*
X190546441Y-54727769D01*
X190512772Y-54707588D01*
X190481243Y-54684204D01*
X190452157Y-54657843D01*
X190425796Y-54628757D01*
X190402412Y-54597228D01*
X190382231Y-54563559D01*
X190365448Y-54528073D01*
X190352224Y-54491114D01*
X190342686Y-54453036D01*
X190336926Y-54414207D01*
X190335000Y-54375000D01*
X190335000Y-53575000D01*
X190336926Y-53535793D01*
X190342686Y-53496964D01*
X190352224Y-53458886D01*
X190365448Y-53421927D01*
X190382231Y-53386441D01*
X190402412Y-53352772D01*
X190425796Y-53321243D01*
X190452157Y-53292157D01*
X190481243Y-53265796D01*
X190512772Y-53242412D01*
X190546441Y-53222231D01*
X190581927Y-53205448D01*
X190618886Y-53192224D01*
X190656964Y-53182686D01*
X190695793Y-53176926D01*
X190735000Y-53175000D01*
X191535000Y-53175000D01*
X191574207Y-53176926D01*
X191574207Y-53176926D01*
G37*
D17*
X191135000Y-53975000D03*
D14*
X209342056Y-85932944D03*
X207645000Y-85230000D03*
X205947944Y-85932944D03*
X205245000Y-87630000D03*
X205947944Y-89327056D03*
X207645000Y-90030000D03*
X209342056Y-89327056D03*
X210045000Y-87630000D03*
D15*
X207645000Y-87630000D03*
D18*
X136525000Y-88265000D03*
X146685000Y-88265000D03*
D16*
G36*
X182684207Y-88101926D02*
X182723036Y-88107686D01*
X182761114Y-88117224D01*
X182798073Y-88130448D01*
X182833559Y-88147231D01*
X182867228Y-88167412D01*
X182898757Y-88190796D01*
X182927843Y-88217157D01*
X182954204Y-88246243D01*
X182977588Y-88277772D01*
X182997769Y-88311441D01*
X183014552Y-88346927D01*
X183027776Y-88383886D01*
X183037314Y-88421964D01*
X183043074Y-88460793D01*
X183045000Y-88500000D01*
X183045000Y-89300000D01*
X183043074Y-89339207D01*
X183037314Y-89378036D01*
X183027776Y-89416114D01*
X183014552Y-89453073D01*
X182997769Y-89488559D01*
X182977588Y-89522228D01*
X182954204Y-89553757D01*
X182927843Y-89582843D01*
X182898757Y-89609204D01*
X182867228Y-89632588D01*
X182833559Y-89652769D01*
X182798073Y-89669552D01*
X182761114Y-89682776D01*
X182723036Y-89692314D01*
X182684207Y-89698074D01*
X182645000Y-89700000D01*
X181845000Y-89700000D01*
X181805793Y-89698074D01*
X181766964Y-89692314D01*
X181728886Y-89682776D01*
X181691927Y-89669552D01*
X181656441Y-89652769D01*
X181622772Y-89632588D01*
X181591243Y-89609204D01*
X181562157Y-89582843D01*
X181535796Y-89553757D01*
X181512412Y-89522228D01*
X181492231Y-89488559D01*
X181475448Y-89453073D01*
X181462224Y-89416114D01*
X181452686Y-89378036D01*
X181446926Y-89339207D01*
X181445000Y-89300000D01*
X181445000Y-88500000D01*
X181446926Y-88460793D01*
X181452686Y-88421964D01*
X181462224Y-88383886D01*
X181475448Y-88346927D01*
X181492231Y-88311441D01*
X181512412Y-88277772D01*
X181535796Y-88246243D01*
X181562157Y-88217157D01*
X181591243Y-88190796D01*
X181622772Y-88167412D01*
X181656441Y-88147231D01*
X181691927Y-88130448D01*
X181728886Y-88117224D01*
X181766964Y-88107686D01*
X181805793Y-88101926D01*
X181845000Y-88100000D01*
X182645000Y-88100000D01*
X182684207Y-88101926D01*
X182684207Y-88101926D01*
G37*
D17*
X182245000Y-88900000D03*
D16*
G36*
X175064207Y-88101926D02*
X175103036Y-88107686D01*
X175141114Y-88117224D01*
X175178073Y-88130448D01*
X175213559Y-88147231D01*
X175247228Y-88167412D01*
X175278757Y-88190796D01*
X175307843Y-88217157D01*
X175334204Y-88246243D01*
X175357588Y-88277772D01*
X175377769Y-88311441D01*
X175394552Y-88346927D01*
X175407776Y-88383886D01*
X175417314Y-88421964D01*
X175423074Y-88460793D01*
X175425000Y-88500000D01*
X175425000Y-89300000D01*
X175423074Y-89339207D01*
X175417314Y-89378036D01*
X175407776Y-89416114D01*
X175394552Y-89453073D01*
X175377769Y-89488559D01*
X175357588Y-89522228D01*
X175334204Y-89553757D01*
X175307843Y-89582843D01*
X175278757Y-89609204D01*
X175247228Y-89632588D01*
X175213559Y-89652769D01*
X175178073Y-89669552D01*
X175141114Y-89682776D01*
X175103036Y-89692314D01*
X175064207Y-89698074D01*
X175025000Y-89700000D01*
X174225000Y-89700000D01*
X174185793Y-89698074D01*
X174146964Y-89692314D01*
X174108886Y-89682776D01*
X174071927Y-89669552D01*
X174036441Y-89652769D01*
X174002772Y-89632588D01*
X173971243Y-89609204D01*
X173942157Y-89582843D01*
X173915796Y-89553757D01*
X173892412Y-89522228D01*
X173872231Y-89488559D01*
X173855448Y-89453073D01*
X173842224Y-89416114D01*
X173832686Y-89378036D01*
X173826926Y-89339207D01*
X173825000Y-89300000D01*
X173825000Y-88500000D01*
X173826926Y-88460793D01*
X173832686Y-88421964D01*
X173842224Y-88383886D01*
X173855448Y-88346927D01*
X173872231Y-88311441D01*
X173892412Y-88277772D01*
X173915796Y-88246243D01*
X173942157Y-88217157D01*
X173971243Y-88190796D01*
X174002772Y-88167412D01*
X174036441Y-88147231D01*
X174071927Y-88130448D01*
X174108886Y-88117224D01*
X174146964Y-88107686D01*
X174185793Y-88101926D01*
X174225000Y-88100000D01*
X175025000Y-88100000D01*
X175064207Y-88101926D01*
X175064207Y-88101926D01*
G37*
D17*
X174625000Y-88900000D03*
D16*
G36*
X182684207Y-85561926D02*
X182723036Y-85567686D01*
X182761114Y-85577224D01*
X182798073Y-85590448D01*
X182833559Y-85607231D01*
X182867228Y-85627412D01*
X182898757Y-85650796D01*
X182927843Y-85677157D01*
X182954204Y-85706243D01*
X182977588Y-85737772D01*
X182997769Y-85771441D01*
X183014552Y-85806927D01*
X183027776Y-85843886D01*
X183037314Y-85881964D01*
X183043074Y-85920793D01*
X183045000Y-85960000D01*
X183045000Y-86760000D01*
X183043074Y-86799207D01*
X183037314Y-86838036D01*
X183027776Y-86876114D01*
X183014552Y-86913073D01*
X182997769Y-86948559D01*
X182977588Y-86982228D01*
X182954204Y-87013757D01*
X182927843Y-87042843D01*
X182898757Y-87069204D01*
X182867228Y-87092588D01*
X182833559Y-87112769D01*
X182798073Y-87129552D01*
X182761114Y-87142776D01*
X182723036Y-87152314D01*
X182684207Y-87158074D01*
X182645000Y-87160000D01*
X181845000Y-87160000D01*
X181805793Y-87158074D01*
X181766964Y-87152314D01*
X181728886Y-87142776D01*
X181691927Y-87129552D01*
X181656441Y-87112769D01*
X181622772Y-87092588D01*
X181591243Y-87069204D01*
X181562157Y-87042843D01*
X181535796Y-87013757D01*
X181512412Y-86982228D01*
X181492231Y-86948559D01*
X181475448Y-86913073D01*
X181462224Y-86876114D01*
X181452686Y-86838036D01*
X181446926Y-86799207D01*
X181445000Y-86760000D01*
X181445000Y-85960000D01*
X181446926Y-85920793D01*
X181452686Y-85881964D01*
X181462224Y-85843886D01*
X181475448Y-85806927D01*
X181492231Y-85771441D01*
X181512412Y-85737772D01*
X181535796Y-85706243D01*
X181562157Y-85677157D01*
X181591243Y-85650796D01*
X181622772Y-85627412D01*
X181656441Y-85607231D01*
X181691927Y-85590448D01*
X181728886Y-85577224D01*
X181766964Y-85567686D01*
X181805793Y-85561926D01*
X181845000Y-85560000D01*
X182645000Y-85560000D01*
X182684207Y-85561926D01*
X182684207Y-85561926D01*
G37*
D17*
X182245000Y-86360000D03*
D19*
X179705000Y-83820000D03*
X177165000Y-83820000D03*
X179705000Y-86360000D03*
X177165000Y-86360000D03*
D20*
X179705000Y-88900000D03*
D19*
X177165000Y-88900000D03*
D16*
G36*
X175064207Y-85561926D02*
X175103036Y-85567686D01*
X175141114Y-85577224D01*
X175178073Y-85590448D01*
X175213559Y-85607231D01*
X175247228Y-85627412D01*
X175278757Y-85650796D01*
X175307843Y-85677157D01*
X175334204Y-85706243D01*
X175357588Y-85737772D01*
X175377769Y-85771441D01*
X175394552Y-85806927D01*
X175407776Y-85843886D01*
X175417314Y-85881964D01*
X175423074Y-85920793D01*
X175425000Y-85960000D01*
X175425000Y-86760000D01*
X175423074Y-86799207D01*
X175417314Y-86838036D01*
X175407776Y-86876114D01*
X175394552Y-86913073D01*
X175377769Y-86948559D01*
X175357588Y-86982228D01*
X175334204Y-87013757D01*
X175307843Y-87042843D01*
X175278757Y-87069204D01*
X175247228Y-87092588D01*
X175213559Y-87112769D01*
X175178073Y-87129552D01*
X175141114Y-87142776D01*
X175103036Y-87152314D01*
X175064207Y-87158074D01*
X175025000Y-87160000D01*
X174225000Y-87160000D01*
X174185793Y-87158074D01*
X174146964Y-87152314D01*
X174108886Y-87142776D01*
X174071927Y-87129552D01*
X174036441Y-87112769D01*
X174002772Y-87092588D01*
X173971243Y-87069204D01*
X173942157Y-87042843D01*
X173915796Y-87013757D01*
X173892412Y-86982228D01*
X173872231Y-86948559D01*
X173855448Y-86913073D01*
X173842224Y-86876114D01*
X173832686Y-86838036D01*
X173826926Y-86799207D01*
X173825000Y-86760000D01*
X173825000Y-85960000D01*
X173826926Y-85920793D01*
X173832686Y-85881964D01*
X173842224Y-85843886D01*
X173855448Y-85806927D01*
X173872231Y-85771441D01*
X173892412Y-85737772D01*
X173915796Y-85706243D01*
X173942157Y-85677157D01*
X173971243Y-85650796D01*
X174002772Y-85627412D01*
X174036441Y-85607231D01*
X174071927Y-85590448D01*
X174108886Y-85577224D01*
X174146964Y-85567686D01*
X174185793Y-85561926D01*
X174225000Y-85560000D01*
X175025000Y-85560000D01*
X175064207Y-85561926D01*
X175064207Y-85561926D01*
G37*
D17*
X174625000Y-86360000D03*
D16*
G36*
X182684207Y-83021926D02*
X182723036Y-83027686D01*
X182761114Y-83037224D01*
X182798073Y-83050448D01*
X182833559Y-83067231D01*
X182867228Y-83087412D01*
X182898757Y-83110796D01*
X182927843Y-83137157D01*
X182954204Y-83166243D01*
X182977588Y-83197772D01*
X182997769Y-83231441D01*
X183014552Y-83266927D01*
X183027776Y-83303886D01*
X183037314Y-83341964D01*
X183043074Y-83380793D01*
X183045000Y-83420000D01*
X183045000Y-84220000D01*
X183043074Y-84259207D01*
X183037314Y-84298036D01*
X183027776Y-84336114D01*
X183014552Y-84373073D01*
X182997769Y-84408559D01*
X182977588Y-84442228D01*
X182954204Y-84473757D01*
X182927843Y-84502843D01*
X182898757Y-84529204D01*
X182867228Y-84552588D01*
X182833559Y-84572769D01*
X182798073Y-84589552D01*
X182761114Y-84602776D01*
X182723036Y-84612314D01*
X182684207Y-84618074D01*
X182645000Y-84620000D01*
X181845000Y-84620000D01*
X181805793Y-84618074D01*
X181766964Y-84612314D01*
X181728886Y-84602776D01*
X181691927Y-84589552D01*
X181656441Y-84572769D01*
X181622772Y-84552588D01*
X181591243Y-84529204D01*
X181562157Y-84502843D01*
X181535796Y-84473757D01*
X181512412Y-84442228D01*
X181492231Y-84408559D01*
X181475448Y-84373073D01*
X181462224Y-84336114D01*
X181452686Y-84298036D01*
X181446926Y-84259207D01*
X181445000Y-84220000D01*
X181445000Y-83420000D01*
X181446926Y-83380793D01*
X181452686Y-83341964D01*
X181462224Y-83303886D01*
X181475448Y-83266927D01*
X181492231Y-83231441D01*
X181512412Y-83197772D01*
X181535796Y-83166243D01*
X181562157Y-83137157D01*
X181591243Y-83110796D01*
X181622772Y-83087412D01*
X181656441Y-83067231D01*
X181691927Y-83050448D01*
X181728886Y-83037224D01*
X181766964Y-83027686D01*
X181805793Y-83021926D01*
X181845000Y-83020000D01*
X182645000Y-83020000D01*
X182684207Y-83021926D01*
X182684207Y-83021926D01*
G37*
D17*
X182245000Y-83820000D03*
D16*
G36*
X175064207Y-83021926D02*
X175103036Y-83027686D01*
X175141114Y-83037224D01*
X175178073Y-83050448D01*
X175213559Y-83067231D01*
X175247228Y-83087412D01*
X175278757Y-83110796D01*
X175307843Y-83137157D01*
X175334204Y-83166243D01*
X175357588Y-83197772D01*
X175377769Y-83231441D01*
X175394552Y-83266927D01*
X175407776Y-83303886D01*
X175417314Y-83341964D01*
X175423074Y-83380793D01*
X175425000Y-83420000D01*
X175425000Y-84220000D01*
X175423074Y-84259207D01*
X175417314Y-84298036D01*
X175407776Y-84336114D01*
X175394552Y-84373073D01*
X175377769Y-84408559D01*
X175357588Y-84442228D01*
X175334204Y-84473757D01*
X175307843Y-84502843D01*
X175278757Y-84529204D01*
X175247228Y-84552588D01*
X175213559Y-84572769D01*
X175178073Y-84589552D01*
X175141114Y-84602776D01*
X175103036Y-84612314D01*
X175064207Y-84618074D01*
X175025000Y-84620000D01*
X174225000Y-84620000D01*
X174185793Y-84618074D01*
X174146964Y-84612314D01*
X174108886Y-84602776D01*
X174071927Y-84589552D01*
X174036441Y-84572769D01*
X174002772Y-84552588D01*
X173971243Y-84529204D01*
X173942157Y-84502843D01*
X173915796Y-84473757D01*
X173892412Y-84442228D01*
X173872231Y-84408559D01*
X173855448Y-84373073D01*
X173842224Y-84336114D01*
X173832686Y-84298036D01*
X173826926Y-84259207D01*
X173825000Y-84220000D01*
X173825000Y-83420000D01*
X173826926Y-83380793D01*
X173832686Y-83341964D01*
X173842224Y-83303886D01*
X173855448Y-83266927D01*
X173872231Y-83231441D01*
X173892412Y-83197772D01*
X173915796Y-83166243D01*
X173942157Y-83137157D01*
X173971243Y-83110796D01*
X174002772Y-83087412D01*
X174036441Y-83067231D01*
X174071927Y-83050448D01*
X174108886Y-83037224D01*
X174146964Y-83027686D01*
X174185793Y-83021926D01*
X174225000Y-83020000D01*
X175025000Y-83020000D01*
X175064207Y-83021926D01*
X175064207Y-83021926D01*
G37*
D17*
X174625000Y-83820000D03*
D16*
G36*
X196654207Y-53176926D02*
X196693036Y-53182686D01*
X196731114Y-53192224D01*
X196768073Y-53205448D01*
X196803559Y-53222231D01*
X196837228Y-53242412D01*
X196868757Y-53265796D01*
X196897843Y-53292157D01*
X196924204Y-53321243D01*
X196947588Y-53352772D01*
X196967769Y-53386441D01*
X196984552Y-53421927D01*
X196997776Y-53458886D01*
X197007314Y-53496964D01*
X197013074Y-53535793D01*
X197015000Y-53575000D01*
X197015000Y-54375000D01*
X197013074Y-54414207D01*
X197007314Y-54453036D01*
X196997776Y-54491114D01*
X196984552Y-54528073D01*
X196967769Y-54563559D01*
X196947588Y-54597228D01*
X196924204Y-54628757D01*
X196897843Y-54657843D01*
X196868757Y-54684204D01*
X196837228Y-54707588D01*
X196803559Y-54727769D01*
X196768073Y-54744552D01*
X196731114Y-54757776D01*
X196693036Y-54767314D01*
X196654207Y-54773074D01*
X196615000Y-54775000D01*
X195815000Y-54775000D01*
X195775793Y-54773074D01*
X195736964Y-54767314D01*
X195698886Y-54757776D01*
X195661927Y-54744552D01*
X195626441Y-54727769D01*
X195592772Y-54707588D01*
X195561243Y-54684204D01*
X195532157Y-54657843D01*
X195505796Y-54628757D01*
X195482412Y-54597228D01*
X195462231Y-54563559D01*
X195445448Y-54528073D01*
X195432224Y-54491114D01*
X195422686Y-54453036D01*
X195416926Y-54414207D01*
X195415000Y-54375000D01*
X195415000Y-53575000D01*
X195416926Y-53535793D01*
X195422686Y-53496964D01*
X195432224Y-53458886D01*
X195445448Y-53421927D01*
X195462231Y-53386441D01*
X195482412Y-53352772D01*
X195505796Y-53321243D01*
X195532157Y-53292157D01*
X195561243Y-53265796D01*
X195592772Y-53242412D01*
X195626441Y-53222231D01*
X195661927Y-53205448D01*
X195698886Y-53192224D01*
X195736964Y-53182686D01*
X195775793Y-53176926D01*
X195815000Y-53175000D01*
X196615000Y-53175000D01*
X196654207Y-53176926D01*
X196654207Y-53176926D01*
G37*
D17*
X196215000Y-53975000D03*
D16*
G36*
X194114207Y-53176926D02*
X194153036Y-53182686D01*
X194191114Y-53192224D01*
X194228073Y-53205448D01*
X194263559Y-53222231D01*
X194297228Y-53242412D01*
X194328757Y-53265796D01*
X194357843Y-53292157D01*
X194384204Y-53321243D01*
X194407588Y-53352772D01*
X194427769Y-53386441D01*
X194444552Y-53421927D01*
X194457776Y-53458886D01*
X194467314Y-53496964D01*
X194473074Y-53535793D01*
X194475000Y-53575000D01*
X194475000Y-54375000D01*
X194473074Y-54414207D01*
X194467314Y-54453036D01*
X194457776Y-54491114D01*
X194444552Y-54528073D01*
X194427769Y-54563559D01*
X194407588Y-54597228D01*
X194384204Y-54628757D01*
X194357843Y-54657843D01*
X194328757Y-54684204D01*
X194297228Y-54707588D01*
X194263559Y-54727769D01*
X194228073Y-54744552D01*
X194191114Y-54757776D01*
X194153036Y-54767314D01*
X194114207Y-54773074D01*
X194075000Y-54775000D01*
X193275000Y-54775000D01*
X193235793Y-54773074D01*
X193196964Y-54767314D01*
X193158886Y-54757776D01*
X193121927Y-54744552D01*
X193086441Y-54727769D01*
X193052772Y-54707588D01*
X193021243Y-54684204D01*
X192992157Y-54657843D01*
X192965796Y-54628757D01*
X192942412Y-54597228D01*
X192922231Y-54563559D01*
X192905448Y-54528073D01*
X192892224Y-54491114D01*
X192882686Y-54453036D01*
X192876926Y-54414207D01*
X192875000Y-54375000D01*
X192875000Y-53575000D01*
X192876926Y-53535793D01*
X192882686Y-53496964D01*
X192892224Y-53458886D01*
X192905448Y-53421927D01*
X192922231Y-53386441D01*
X192942412Y-53352772D01*
X192965796Y-53321243D01*
X192992157Y-53292157D01*
X193021243Y-53265796D01*
X193052772Y-53242412D01*
X193086441Y-53222231D01*
X193121927Y-53205448D01*
X193158886Y-53192224D01*
X193196964Y-53182686D01*
X193235793Y-53176926D01*
X193275000Y-53175000D01*
X194075000Y-53175000D01*
X194114207Y-53176926D01*
X194114207Y-53176926D01*
G37*
D17*
X193675000Y-53975000D03*
D21*
X64135000Y-87630000D03*
X66675000Y-87630000D03*
X69215000Y-87630000D03*
X71755000Y-87630000D03*
X191135000Y-87630000D03*
X193675000Y-87630000D03*
X196215000Y-87630000D03*
X198755000Y-87630000D03*
D18*
X106045000Y-88265000D03*
X95885000Y-88265000D03*
D22*
X158750000Y-77480000D03*
X153670000Y-77480000D03*
X154940000Y-77480000D03*
X156210000Y-77480000D03*
X157480000Y-77480000D03*
X160020000Y-77480000D03*
X161290000Y-77480000D03*
X162560000Y-77480000D03*
X163830000Y-77480000D03*
X165100000Y-77480000D03*
D23*
X147885000Y-59520000D03*
X147885000Y-70950000D03*
X147885000Y-62060000D03*
X147885000Y-64600000D03*
X147885000Y-65870000D03*
X147885000Y-72220000D03*
X147885000Y-73490000D03*
X147885000Y-63330000D03*
X147885000Y-69680000D03*
X147885000Y-56980000D03*
X147885000Y-60790000D03*
X147885000Y-68410000D03*
X147885000Y-67140000D03*
X147885000Y-58250000D03*
X170885000Y-73490000D03*
X170885000Y-72220000D03*
X170885000Y-70950000D03*
X170885000Y-69680000D03*
X170885000Y-68410000D03*
X170885000Y-67140000D03*
X170885000Y-65870000D03*
X170885000Y-64600000D03*
X170885000Y-63330000D03*
X170885000Y-62060000D03*
X170885000Y-60790000D03*
X170885000Y-59520000D03*
X170885000Y-58250000D03*
X170885000Y-56980000D03*
D24*
X87376000Y-88011000D03*
X86106000Y-88011000D03*
X84836000Y-88011000D03*
X70993000Y-81010000D03*
X66421000Y-79756000D03*
X66421000Y-74549000D03*
X81661000Y-71755000D03*
X95250000Y-74676000D03*
X95250000Y-76073000D03*
X95250000Y-77470000D03*
X60833000Y-83185000D03*
X58039000Y-82550000D03*
X63500000Y-82550000D03*
X118237000Y-86741000D03*
X114808000Y-90170000D03*
X118237000Y-85471000D03*
X113411000Y-90170000D03*
X103505000Y-72390000D03*
X103505000Y-70485000D03*
X103505000Y-68580000D03*
X76708000Y-66675000D03*
X121285000Y-74295000D03*
X123825000Y-74295000D03*
X100965000Y-74295000D03*
X103505000Y-74295000D03*
X106045000Y-74295000D03*
X108585000Y-74295000D03*
X113665000Y-74295000D03*
X116205000Y-74295000D03*
X118745000Y-74295000D03*
X126365000Y-74295000D03*
X126365000Y-70485000D03*
X126365000Y-68580000D03*
X111125000Y-74295000D03*
X126365000Y-72390000D03*
X76835000Y-55880000D03*
X83947000Y-65405000D03*
X69215002Y-78105000D03*
X69977000Y-76200000D03*
X136687350Y-78267350D03*
X126365000Y-66675000D03*
X123825000Y-66675000D03*
X121285000Y-66675000D03*
X118745000Y-66675000D03*
X116205000Y-66675000D03*
X113665000Y-66675000D03*
X111125000Y-66675000D03*
X108585000Y-66675000D03*
X106045000Y-66675000D03*
X103505000Y-66675000D03*
X100965000Y-66675000D03*
X183515000Y-71755000D03*
X123825000Y-59690000D03*
X184150000Y-67945000D03*
X182880000Y-70485000D03*
X78105000Y-60960000D03*
X93345000Y-60960000D03*
X141605000Y-71120000D03*
X140970000Y-78105000D03*
X136525000Y-70485000D03*
X139065000Y-78105000D03*
X148500000Y-76500000D03*
X136525000Y-73660000D03*
X142875000Y-78105000D03*
X134620000Y-69215000D03*
X76200000Y-60960000D03*
X133500000Y-65749996D03*
X116205000Y-68580000D03*
X109855000Y-72390000D03*
X117475000Y-69850000D03*
X109855000Y-69850000D03*
X111125000Y-68580000D03*
X112395000Y-68580000D03*
X114935000Y-68580000D03*
X113665000Y-68580000D03*
X117475000Y-72390000D03*
X117475000Y-71120000D03*
X109855000Y-71120000D03*
X131445000Y-66675000D03*
X179500000Y-64000000D03*
X108585000Y-60960000D03*
X147000000Y-76500000D03*
X190500000Y-59055000D03*
X190500000Y-79375000D03*
X96520000Y-76073000D03*
X96520000Y-77470000D03*
X96520000Y-74676000D03*
X93980000Y-74676000D03*
X93980000Y-76073000D03*
X93980000Y-77470000D03*
X180250000Y-71000000D03*
X167600000Y-76100000D03*
X168900000Y-76100000D03*
D25*
X93345000Y-82931000D02*
X88265000Y-88011000D01*
X110490000Y-82931000D02*
X93345000Y-82931000D01*
X115824000Y-88265000D02*
X110490000Y-82931000D01*
X136525000Y-88265000D02*
X115824000Y-88265000D01*
X88265000Y-88011000D02*
X84836000Y-88011000D01*
X64135000Y-87630000D02*
X64135000Y-86357208D01*
X64135000Y-86357208D02*
X66421000Y-84071208D01*
X66421000Y-80392396D02*
X66421000Y-79756000D01*
X66421000Y-84071208D02*
X66421000Y-80392396D01*
X70993000Y-78105000D02*
X71628000Y-77470000D01*
X71628000Y-77470000D02*
X80010000Y-77470000D01*
X70993000Y-81010000D02*
X70993000Y-78105000D01*
X66421000Y-79756000D02*
X66421000Y-74549000D01*
X79375000Y-74549000D02*
X66421000Y-74549000D01*
X80010000Y-75184000D02*
X79375000Y-74549000D01*
X80010000Y-77470000D02*
X80010000Y-75184000D01*
X86233000Y-81534000D02*
X77470000Y-90297000D01*
X77470000Y-90297000D02*
X62484000Y-90297000D01*
X60833000Y-83821396D02*
X60833000Y-83185000D01*
X117271000Y-81534000D02*
X86233000Y-81534000D01*
X62484000Y-90297000D02*
X60833000Y-88646000D01*
X118237000Y-82500000D02*
X117271000Y-81534000D01*
X60833000Y-88646000D02*
X60833000Y-83821396D01*
X93980000Y-74676000D02*
X87122000Y-74676000D01*
X87122000Y-74676000D02*
X85725000Y-76073000D01*
X93980000Y-77470000D02*
X87122000Y-77470000D01*
X87122000Y-77470000D02*
X85725000Y-76073000D01*
X83058000Y-71755000D02*
X81661000Y-71755000D01*
X84328000Y-71755000D02*
X83058000Y-71755000D01*
X84328000Y-74676000D02*
X84328000Y-71755000D01*
X85725000Y-76073000D02*
X84328000Y-74676000D01*
X93980000Y-76073000D02*
X85725000Y-76073000D01*
X95250000Y-77470000D02*
X93980000Y-77470000D01*
X96520000Y-77470000D02*
X95250000Y-77470000D01*
X95250000Y-76073000D02*
X93980000Y-76073000D01*
X96520000Y-76073000D02*
X95250000Y-76073000D01*
X95250000Y-74676000D02*
X93980000Y-74676000D01*
X96520000Y-74676000D02*
X95250000Y-74676000D01*
X81661000Y-71755000D02*
X64643000Y-71755000D01*
X64643000Y-71755000D02*
X63500000Y-72898000D01*
X63500000Y-82550000D02*
X63500000Y-72898000D01*
X118237000Y-86741000D02*
X118237000Y-85471000D01*
X113411000Y-90170000D02*
X114808000Y-90170000D01*
X118237000Y-82500000D02*
X140920000Y-82500000D01*
X118237000Y-85471000D02*
X118237000Y-82500000D01*
X140920000Y-82500000D02*
X146685000Y-88265000D01*
D26*
X88900000Y-51562000D02*
X144907000Y-51562000D01*
X144907000Y-51562000D02*
X149860000Y-56515000D01*
X88265000Y-52197000D02*
X88900000Y-51562000D01*
X88265000Y-53975000D02*
X88265000Y-52197000D01*
X167640000Y-57150000D02*
X167640000Y-65149000D01*
X149860000Y-56515000D02*
X167005000Y-56515000D01*
X167005000Y-56515000D02*
X167640000Y-57150000D01*
X167640000Y-65149000D02*
X169631000Y-67140000D01*
X169631000Y-67140000D02*
X170885000Y-67140000D01*
X86677500Y-53975000D02*
X88265000Y-53975000D01*
X170885000Y-65870000D02*
X169631000Y-65870000D01*
X169631000Y-65870000D02*
X168275000Y-64514000D01*
X168275000Y-64514000D02*
X168275000Y-57150000D01*
X169545000Y-55880000D02*
X168275000Y-57150000D01*
X174625000Y-55245000D02*
X173990000Y-55880000D01*
X174625000Y-53975000D02*
X174625000Y-55245000D01*
X173990000Y-55880000D02*
X169545000Y-55880000D01*
X174625000Y-53975000D02*
X176212500Y-53975000D01*
D25*
X146425000Y-80512000D02*
X145796000Y-79883000D01*
X145796000Y-79883000D02*
X145161000Y-79248000D01*
X144018000Y-79696000D02*
X145609000Y-79696000D01*
X145609000Y-79696000D02*
X145796000Y-79883000D01*
X144018000Y-79696000D02*
X144593000Y-79121000D01*
X146425000Y-80512000D02*
X144278000Y-80512000D01*
X144278000Y-80512000D02*
X144018000Y-80252000D01*
X144018000Y-80252000D02*
X144018000Y-79696000D01*
X144593000Y-79121000D02*
X144593000Y-78486000D01*
X144720000Y-78613000D02*
X144593000Y-78486000D01*
X144593000Y-78486000D02*
X144593000Y-77343000D01*
X148463000Y-78613000D02*
X144720000Y-78613000D01*
X148463000Y-80512000D02*
X146425000Y-80512000D01*
X148463000Y-80512000D02*
X148463000Y-78613000D01*
X185293000Y-80512000D02*
X148463000Y-80512000D01*
X145161000Y-77911000D02*
X144593000Y-77343000D01*
X144593000Y-77343000D02*
X144000000Y-76750000D01*
X173228000Y-79750000D02*
X147000000Y-79750000D01*
X174752000Y-79750000D02*
X173228000Y-79750000D01*
X174752000Y-79750000D02*
X174752000Y-78359000D01*
X174752000Y-78359000D02*
X174752000Y-59520000D01*
X174752000Y-78359000D02*
X174619000Y-78359000D01*
X174619000Y-78359000D02*
X173228000Y-79750000D01*
X177165000Y-79750000D02*
X184531000Y-79750000D01*
X176028000Y-78613000D02*
X177165000Y-79750000D01*
X175750000Y-67250000D02*
X175750000Y-78613000D01*
X175750000Y-78613000D02*
X175750000Y-79750000D01*
X175750000Y-79750000D02*
X177165000Y-79750000D01*
X175750000Y-78613000D02*
X176028000Y-78613000D01*
X147000000Y-79750000D02*
X145161000Y-77911000D01*
X145161000Y-79248000D02*
X145161000Y-77911000D01*
X185293000Y-80512000D02*
X188601000Y-83820000D01*
X184531000Y-79750000D02*
X185293000Y-80512000D01*
X175750000Y-64897000D02*
X175750000Y-64145000D01*
X175750000Y-67250000D02*
X175750000Y-64897000D01*
X175750000Y-64897000D02*
X178603000Y-64897000D01*
X178603000Y-64897000D02*
X179500000Y-64000000D01*
X175750000Y-63119000D02*
X178619000Y-63119000D01*
X178619000Y-63119000D02*
X179500000Y-64000000D01*
X175750000Y-63119000D02*
X175750000Y-59291000D01*
X175750000Y-64145000D02*
X175750000Y-63119000D01*
X175750000Y-79750000D02*
X174752000Y-79750000D01*
X173482000Y-58250000D02*
X170885000Y-58250000D01*
X174709000Y-58250000D02*
X173482000Y-58250000D01*
X174752000Y-59520000D02*
X173482000Y-58250000D01*
X71628000Y-85090000D02*
X75819000Y-80899000D01*
X68072000Y-85090000D02*
X71628000Y-85090000D01*
X84453604Y-78995396D02*
X98804604Y-78995396D01*
X66675000Y-86487000D02*
X68072000Y-85090000D01*
X66675000Y-87630000D02*
X66675000Y-86487000D01*
X75819000Y-80899000D02*
X82550000Y-80899000D01*
X100965000Y-76835000D02*
X100965000Y-74295000D01*
X82550000Y-80899000D02*
X84453604Y-78995396D01*
X98804604Y-78995396D02*
X100965000Y-76835000D01*
X175750000Y-59291000D02*
X174709000Y-58250000D01*
X179500000Y-64000000D02*
X175895000Y-64000000D01*
X175750000Y-64145000D02*
X175895000Y-64000000D01*
X195326000Y-83820000D02*
X196215000Y-84709000D01*
X188601000Y-83820000D02*
X195326000Y-83820000D01*
X196215000Y-84709000D02*
X196215000Y-87630000D01*
X195488000Y-89500000D02*
X185639000Y-89500000D01*
X196215000Y-88773000D02*
X195488000Y-89500000D01*
X185639000Y-89500000D02*
X184531000Y-88392000D01*
X196215000Y-87630000D02*
X196215000Y-88773000D01*
X184531000Y-84455000D02*
X183896000Y-83820000D01*
X184531000Y-88392000D02*
X184531000Y-84455000D01*
X183896000Y-83820000D02*
X182245000Y-83820000D01*
X103505000Y-72390000D02*
X103505000Y-74295000D01*
X103505000Y-68580000D02*
X103505000Y-66675000D01*
X100965000Y-66675000D02*
X76708000Y-66675000D01*
X76708000Y-66675000D02*
X73914000Y-66675000D01*
X73025000Y-65786000D02*
X73025000Y-57785000D01*
X73914000Y-66675000D02*
X73025000Y-65786000D01*
X73025000Y-57785000D02*
X74930000Y-55880000D01*
X74930000Y-55880000D02*
X76835000Y-55880000D01*
X126365000Y-72390000D02*
X126365000Y-70485000D01*
X123825000Y-74295000D02*
X126365000Y-74295000D01*
X118745000Y-74295000D02*
X121285000Y-74295000D01*
X113665000Y-74295000D02*
X116205000Y-74295000D01*
X108585000Y-74295000D02*
X111125000Y-74295000D01*
X103505000Y-74295000D02*
X106045000Y-74295000D01*
X126365000Y-66675000D02*
X126365000Y-68580000D01*
D26*
X179705000Y-53975000D02*
X178117500Y-53975000D01*
D25*
X83185000Y-53975000D02*
X84480399Y-53975000D01*
D26*
X76200000Y-61087000D02*
X77343000Y-62230000D01*
X83947000Y-62484000D02*
X83693000Y-62230000D01*
X83693000Y-62230000D02*
X77343000Y-62230000D01*
X83947000Y-65405000D02*
X83947000Y-62484000D01*
X76200000Y-60960000D02*
X76200000Y-61087000D01*
X172212000Y-77470000D02*
X167005000Y-77470000D01*
X172974000Y-60355000D02*
X172974000Y-76708000D01*
X172974000Y-76708000D02*
X172212000Y-77470000D01*
X170885000Y-59520000D02*
X172139000Y-59520000D01*
X172139000Y-59520000D02*
X172974000Y-60355000D01*
X166370000Y-76835000D02*
X166370000Y-76200000D01*
X151765000Y-75565000D02*
X149860000Y-77470000D01*
X145250000Y-76250000D02*
X145250000Y-69500000D01*
X166370000Y-76200000D02*
X165735000Y-75565000D01*
X167005000Y-77470000D02*
X166370000Y-76835000D01*
X165735000Y-75565000D02*
X151765000Y-75565000D01*
X141499996Y-65749996D02*
X133500000Y-65749996D01*
X149860000Y-77470000D02*
X146470000Y-77470000D01*
X146470000Y-77470000D02*
X145250000Y-76250000D01*
X145250000Y-69500000D02*
X141499996Y-65749996D01*
X69215002Y-76961998D02*
X69215002Y-78105000D01*
X69977000Y-76200000D02*
X69215002Y-76961998D01*
X85235000Y-80500000D02*
X141841000Y-80500000D01*
X83185000Y-82550000D02*
X85235000Y-80500000D01*
X143510000Y-82169000D02*
X183896000Y-82169000D01*
X76835000Y-82550000D02*
X83185000Y-82550000D01*
X141841000Y-80500000D02*
X143510000Y-82169000D01*
X187325000Y-85598000D02*
X190375792Y-85598000D01*
X71755000Y-87630000D02*
X76835000Y-82550000D01*
X183896000Y-82169000D02*
X187325000Y-85598000D01*
X190375792Y-85598000D02*
X191135000Y-86357208D01*
X191135000Y-86357208D02*
X191135000Y-87630000D01*
X84846000Y-80000000D02*
X142103000Y-80000000D01*
X72136000Y-86106000D02*
X76327000Y-81915000D01*
X76327000Y-81915000D02*
X82931000Y-81915000D01*
X69215000Y-87630000D02*
X69215000Y-86357208D01*
X184531000Y-81534000D02*
X187960000Y-84963000D01*
X69215000Y-86357208D02*
X69466208Y-86106000D01*
X82931000Y-81915000D02*
X84846000Y-80000000D01*
X142103000Y-80000000D02*
X143637000Y-81534000D01*
X69466208Y-86106000D02*
X72136000Y-86106000D01*
X143637000Y-81534000D02*
X184531000Y-81534000D01*
X187960000Y-84963000D02*
X191008000Y-84963000D01*
X191008000Y-84963000D02*
X193675000Y-87630000D01*
X136525000Y-78105000D02*
X136687350Y-78267350D01*
X136525000Y-73660000D02*
X136525000Y-78105000D01*
D25*
X108585000Y-66675000D02*
X106045000Y-66675000D01*
X113665000Y-66675000D02*
X111125000Y-66675000D01*
X118745000Y-66675000D02*
X116205000Y-66675000D01*
X123825000Y-66675000D02*
X121285000Y-66675000D01*
X131445000Y-66675000D02*
X126365000Y-66675000D01*
D26*
X150500000Y-73030000D02*
X151130000Y-73660000D01*
X149770000Y-59520000D02*
X150500000Y-60250000D01*
X150500000Y-60250000D02*
X150500000Y-73030000D01*
X147885000Y-59520000D02*
X149770000Y-59520000D01*
X151130000Y-73660000D02*
X166460000Y-73660000D01*
X166460000Y-73660000D02*
X168900000Y-76100000D01*
X150000000Y-73165000D02*
X150000000Y-64000000D01*
X151130000Y-74295000D02*
X150000000Y-73165000D01*
X165795000Y-74295000D02*
X151130000Y-74295000D01*
X167600000Y-76100000D02*
X165795000Y-74295000D01*
X149330000Y-63330000D02*
X147885000Y-63330000D01*
X150000000Y-64000000D02*
X149330000Y-63330000D01*
X144399000Y-67437000D02*
X144399000Y-54864000D01*
X146642000Y-69680000D02*
X144399000Y-67437000D01*
X144399000Y-54864000D02*
X143129000Y-53594000D01*
X147885000Y-69680000D02*
X146642000Y-69680000D01*
X143129000Y-53594000D02*
X124333000Y-53594000D01*
X124333000Y-53594000D02*
X123825000Y-54102000D01*
X123825000Y-54102000D02*
X123825000Y-59690000D01*
X145034000Y-54610000D02*
X143510000Y-53086000D01*
X108585000Y-53721000D02*
X108585000Y-60960000D01*
X145034000Y-66675000D02*
X145034000Y-54610000D01*
X109220000Y-53086000D02*
X108585000Y-53721000D01*
X146769000Y-68410000D02*
X145034000Y-66675000D01*
X143510000Y-53086000D02*
X109220000Y-53086000D01*
X147885000Y-68410000D02*
X146769000Y-68410000D01*
X145669000Y-54356000D02*
X145669000Y-66040000D01*
X93980000Y-52578000D02*
X143891000Y-52578000D01*
X93345000Y-60960000D02*
X93345000Y-53213000D01*
X93345000Y-53213000D02*
X93980000Y-52578000D01*
X143891000Y-52578000D02*
X145669000Y-54356000D01*
X145669000Y-66040000D02*
X146769000Y-67140000D01*
X146769000Y-67140000D02*
X147885000Y-67140000D01*
X146304000Y-64789000D02*
X146304000Y-54229000D01*
X146304000Y-54229000D02*
X144170389Y-52095389D01*
X147385000Y-65870000D02*
X146304000Y-64789000D01*
X90297000Y-60960000D02*
X78741396Y-60960000D01*
X147885000Y-65870000D02*
X147385000Y-65870000D01*
X91186000Y-60071000D02*
X90297000Y-60960000D01*
X78741396Y-60960000D02*
X78105000Y-60960000D01*
X144170389Y-52095389D02*
X91922611Y-52095389D01*
X91922611Y-52095389D02*
X91186000Y-52832000D01*
X91186000Y-52832000D02*
X91186000Y-60071000D01*
X196215000Y-55035000D02*
X196215000Y-53975000D01*
X184150000Y-67945000D02*
X184150000Y-57785000D01*
X184150000Y-57785000D02*
X185435000Y-56500000D01*
X185435000Y-56500000D02*
X194750000Y-56500000D01*
X194750000Y-56500000D02*
X196215000Y-55035000D01*
X184785000Y-55880000D02*
X182880000Y-57785000D01*
X191770000Y-55880000D02*
X184785000Y-55880000D01*
X193675000Y-53975000D02*
X191770000Y-55880000D01*
X182880000Y-70485000D02*
X182880000Y-57785000D01*
X182000000Y-70875000D02*
X182880000Y-71755000D01*
X191135000Y-53975000D02*
X189860000Y-55250000D01*
X184145000Y-55250000D02*
X182000000Y-57395000D01*
X189860000Y-55250000D02*
X184145000Y-55250000D01*
X182880000Y-71755000D02*
X183515000Y-71755000D01*
X182000000Y-57395000D02*
X182000000Y-70875000D01*
X170885000Y-65870000D02*
X171870000Y-65870000D01*
X141605000Y-71120000D02*
X141605000Y-77470000D01*
X141605000Y-77470000D02*
X140970000Y-78105000D01*
X139065000Y-78105000D02*
X139065000Y-71120000D01*
X139065000Y-71120000D02*
X138430000Y-70485000D01*
X138430000Y-70485000D02*
X136525000Y-70485000D01*
X147885000Y-70950000D02*
X146800000Y-70950000D01*
X146800000Y-70950000D02*
X146300001Y-71449999D01*
X146300001Y-71449999D02*
X146300001Y-75800001D01*
X146300001Y-75800001D02*
X147000000Y-76500000D01*
X147885000Y-72220000D02*
X148970000Y-72220000D01*
X148970000Y-72220000D02*
X149500000Y-72750000D01*
X149500000Y-72750000D02*
X149500000Y-75500000D01*
X149500000Y-75500000D02*
X148500000Y-76500000D01*
D25*
X79375000Y-78105000D02*
X80010000Y-77470000D01*
X80645000Y-78105000D02*
X80010000Y-77470000D01*
X80645000Y-76835000D02*
X80010000Y-77470000D01*
X79375000Y-76835000D02*
X80010000Y-77470000D01*
X79375000Y-78105000D02*
X79375000Y-76835000D01*
X79375000Y-76835000D02*
X80645000Y-76835000D01*
X80645000Y-76835000D02*
X80645000Y-78105000D01*
X80645000Y-78105000D02*
X79375000Y-78105000D01*
D26*
X190500000Y-59055000D02*
X190500000Y-73000000D01*
X190500000Y-73000000D02*
X182250000Y-73000000D01*
X190500000Y-73000000D02*
X190500000Y-79375000D01*
X182250000Y-73000000D02*
X180250000Y-71000000D01*
D25*
X144000000Y-69750000D02*
X144000000Y-76750000D01*
X131445000Y-66675000D02*
X131445000Y-67311396D01*
X131633604Y-67500000D02*
X141750000Y-67500000D01*
X131445000Y-67311396D02*
X131633604Y-67500000D01*
X141750000Y-67500000D02*
X144000000Y-69750000D01*
D26*
X142875000Y-70125000D02*
X142875000Y-78105000D01*
X141965000Y-69215000D02*
X142875000Y-70125000D01*
X134620000Y-69215000D02*
X141965000Y-69215000D01*
D25*
X52355000Y-73970000D02*
X52355000Y-80970000D01*
X55055000Y-79970000D02*
X55055000Y-74970000D01*
D26*
G36*
X123048073Y-54102000D02*
X123063000Y-54177043D01*
X123063001Y-58917578D01*
X122905182Y-59075397D01*
X122740000Y-59474180D01*
X122740000Y-59905820D01*
X122905182Y-60304603D01*
X123210397Y-60609818D01*
X123609180Y-60775000D01*
X124040820Y-60775000D01*
X124439603Y-60609818D01*
X124744818Y-60304603D01*
X124910000Y-59905820D01*
X124910000Y-59474180D01*
X124744818Y-59075397D01*
X124587000Y-58917579D01*
X124587000Y-54417630D01*
X124648630Y-54356000D01*
X142813370Y-54356000D01*
X143637001Y-55179632D01*
X143637000Y-66809370D01*
X142091879Y-65264249D01*
X142049367Y-65200625D01*
X141797313Y-65032208D01*
X141575044Y-64987996D01*
X141575039Y-64987996D01*
X141499996Y-64973069D01*
X141424953Y-64987996D01*
X134272421Y-64987996D01*
X134114603Y-64830178D01*
X133715820Y-64664996D01*
X133284180Y-64664996D01*
X132885397Y-64830178D01*
X132580182Y-65135393D01*
X132415000Y-65534176D01*
X132415000Y-65965816D01*
X132580182Y-66364599D01*
X132885397Y-66669814D01*
X133284180Y-66834996D01*
X133715820Y-66834996D01*
X134114603Y-66669814D01*
X134272421Y-66511996D01*
X141184366Y-66511996D01*
X144488001Y-69815632D01*
X144488000Y-76174957D01*
X144473073Y-76250000D01*
X144488000Y-76325043D01*
X144488000Y-76325047D01*
X144532212Y-76547316D01*
X144700629Y-76799371D01*
X144764253Y-76841883D01*
X145878118Y-77955749D01*
X145920629Y-78019371D01*
X146172683Y-78187788D01*
X146394952Y-78232000D01*
X146394953Y-78232000D01*
X146470000Y-78246928D01*
X146545047Y-78232000D01*
X148844000Y-78232000D01*
X148844000Y-78814478D01*
X148283195Y-79376545D01*
X142560742Y-79389404D01*
X142400317Y-79282212D01*
X142178048Y-79238000D01*
X142178043Y-79238000D01*
X142103000Y-79223073D01*
X142027957Y-79238000D01*
X137179234Y-79238000D01*
X137301953Y-79187168D01*
X137607168Y-78881953D01*
X137772350Y-78483170D01*
X137772350Y-78051530D01*
X137607168Y-77652747D01*
X137301953Y-77347532D01*
X137287000Y-77341338D01*
X137287000Y-74432421D01*
X137444818Y-74274603D01*
X137610000Y-73875820D01*
X137610000Y-73444180D01*
X137444818Y-73045397D01*
X137139603Y-72740182D01*
X136740820Y-72575000D01*
X136309180Y-72575000D01*
X135910397Y-72740182D01*
X135605182Y-73045397D01*
X135440000Y-73444180D01*
X135440000Y-73875820D01*
X135605182Y-74274603D01*
X135763000Y-74432421D01*
X135763001Y-77663686D01*
X135602350Y-78051530D01*
X135602350Y-78483170D01*
X135767532Y-78881953D01*
X136072747Y-79187168D01*
X136195466Y-79238000D01*
X92878866Y-79238000D01*
X92579594Y-78940875D01*
X92577971Y-78613000D01*
X96632572Y-78613000D01*
X96965976Y-78546682D01*
X97344057Y-78294057D01*
X97596682Y-77915976D01*
X97685392Y-77470000D01*
X97596682Y-77024024D01*
X97427951Y-76771500D01*
X97596682Y-76518976D01*
X97685392Y-76073000D01*
X97596682Y-75627024D01*
X97427951Y-75374500D01*
X97596682Y-75121976D01*
X97685392Y-74676000D01*
X97596682Y-74230024D01*
X97344057Y-73851943D01*
X96965976Y-73599318D01*
X96632572Y-73533000D01*
X92552823Y-73533000D01*
X92530379Y-68999180D01*
X133535000Y-68999180D01*
X133535000Y-69430820D01*
X133700182Y-69829603D01*
X134005397Y-70134818D01*
X134404180Y-70300000D01*
X134835820Y-70300000D01*
X135234603Y-70134818D01*
X135392421Y-69977000D01*
X135561025Y-69977000D01*
X135440000Y-70269180D01*
X135440000Y-70700820D01*
X135605182Y-71099603D01*
X135910397Y-71404818D01*
X136309180Y-71570000D01*
X136740820Y-71570000D01*
X137139603Y-71404818D01*
X137297421Y-71247000D01*
X138114370Y-71247000D01*
X138303001Y-71435632D01*
X138303000Y-77332579D01*
X138145182Y-77490397D01*
X137980000Y-77889180D01*
X137980000Y-78320820D01*
X138145182Y-78719603D01*
X138450397Y-79024818D01*
X138849180Y-79190000D01*
X139280820Y-79190000D01*
X139679603Y-79024818D01*
X139984818Y-78719603D01*
X140017500Y-78640702D01*
X140050182Y-78719603D01*
X140355397Y-79024818D01*
X140754180Y-79190000D01*
X141185820Y-79190000D01*
X141584603Y-79024818D01*
X141889818Y-78719603D01*
X141922500Y-78640702D01*
X141955182Y-78719603D01*
X142260397Y-79024818D01*
X142659180Y-79190000D01*
X143090820Y-79190000D01*
X143489603Y-79024818D01*
X143794818Y-78719603D01*
X143960000Y-78320820D01*
X143960000Y-77889180D01*
X143794818Y-77490397D01*
X143637000Y-77332579D01*
X143637000Y-70200042D01*
X143651927Y-70124999D01*
X143637000Y-70049956D01*
X143637000Y-70049952D01*
X143592788Y-69827683D01*
X143584314Y-69815000D01*
X143466882Y-69639251D01*
X143424371Y-69575629D01*
X143360750Y-69533119D01*
X142556883Y-68729253D01*
X142514371Y-68665629D01*
X142262317Y-68497212D01*
X142040048Y-68453000D01*
X142040043Y-68453000D01*
X141965000Y-68438073D01*
X141889957Y-68453000D01*
X135392421Y-68453000D01*
X135234603Y-68295182D01*
X134835820Y-68130000D01*
X134404180Y-68130000D01*
X134005397Y-68295182D01*
X133700182Y-68600397D01*
X133535000Y-68999180D01*
X92530379Y-68999180D01*
X92493964Y-61643385D01*
X92730397Y-61879818D01*
X93129180Y-62045000D01*
X93560820Y-62045000D01*
X93959603Y-61879818D01*
X94264818Y-61574603D01*
X94430000Y-61175820D01*
X94430000Y-60744180D01*
X94264818Y-60345397D01*
X94107000Y-60187579D01*
X94107000Y-54098014D01*
X107823000Y-54067261D01*
X107823001Y-60187578D01*
X107665182Y-60345397D01*
X107500000Y-60744180D01*
X107500000Y-61175820D01*
X107665182Y-61574603D01*
X107970397Y-61879818D01*
X108369180Y-62045000D01*
X108800820Y-62045000D01*
X109199603Y-61879818D01*
X109504818Y-61574603D01*
X109670000Y-61175820D01*
X109670000Y-60744180D01*
X109504818Y-60345397D01*
X109347000Y-60187579D01*
X109347000Y-54063844D01*
X123061779Y-54033093D01*
X123048073Y-54102000D01*
X123048073Y-54102000D01*
G37*
X123048073Y-54102000D02*
X123063000Y-54177043D01*
X123063001Y-58917578D01*
X122905182Y-59075397D01*
X122740000Y-59474180D01*
X122740000Y-59905820D01*
X122905182Y-60304603D01*
X123210397Y-60609818D01*
X123609180Y-60775000D01*
X124040820Y-60775000D01*
X124439603Y-60609818D01*
X124744818Y-60304603D01*
X124910000Y-59905820D01*
X124910000Y-59474180D01*
X124744818Y-59075397D01*
X124587000Y-58917579D01*
X124587000Y-54417630D01*
X124648630Y-54356000D01*
X142813370Y-54356000D01*
X143637001Y-55179632D01*
X143637000Y-66809370D01*
X142091879Y-65264249D01*
X142049367Y-65200625D01*
X141797313Y-65032208D01*
X141575044Y-64987996D01*
X141575039Y-64987996D01*
X141499996Y-64973069D01*
X141424953Y-64987996D01*
X134272421Y-64987996D01*
X134114603Y-64830178D01*
X133715820Y-64664996D01*
X133284180Y-64664996D01*
X132885397Y-64830178D01*
X132580182Y-65135393D01*
X132415000Y-65534176D01*
X132415000Y-65965816D01*
X132580182Y-66364599D01*
X132885397Y-66669814D01*
X133284180Y-66834996D01*
X133715820Y-66834996D01*
X134114603Y-66669814D01*
X134272421Y-66511996D01*
X141184366Y-66511996D01*
X144488001Y-69815632D01*
X144488000Y-76174957D01*
X144473073Y-76250000D01*
X144488000Y-76325043D01*
X144488000Y-76325047D01*
X144532212Y-76547316D01*
X144700629Y-76799371D01*
X144764253Y-76841883D01*
X145878118Y-77955749D01*
X145920629Y-78019371D01*
X146172683Y-78187788D01*
X146394952Y-78232000D01*
X146394953Y-78232000D01*
X146470000Y-78246928D01*
X146545047Y-78232000D01*
X148844000Y-78232000D01*
X148844000Y-78814478D01*
X148283195Y-79376545D01*
X142560742Y-79389404D01*
X142400317Y-79282212D01*
X142178048Y-79238000D01*
X142178043Y-79238000D01*
X142103000Y-79223073D01*
X142027957Y-79238000D01*
X137179234Y-79238000D01*
X137301953Y-79187168D01*
X137607168Y-78881953D01*
X137772350Y-78483170D01*
X137772350Y-78051530D01*
X137607168Y-77652747D01*
X137301953Y-77347532D01*
X137287000Y-77341338D01*
X137287000Y-74432421D01*
X137444818Y-74274603D01*
X137610000Y-73875820D01*
X137610000Y-73444180D01*
X137444818Y-73045397D01*
X137139603Y-72740182D01*
X136740820Y-72575000D01*
X136309180Y-72575000D01*
X135910397Y-72740182D01*
X135605182Y-73045397D01*
X135440000Y-73444180D01*
X135440000Y-73875820D01*
X135605182Y-74274603D01*
X135763000Y-74432421D01*
X135763001Y-77663686D01*
X135602350Y-78051530D01*
X135602350Y-78483170D01*
X135767532Y-78881953D01*
X136072747Y-79187168D01*
X136195466Y-79238000D01*
X92878866Y-79238000D01*
X92579594Y-78940875D01*
X92577971Y-78613000D01*
X96632572Y-78613000D01*
X96965976Y-78546682D01*
X97344057Y-78294057D01*
X97596682Y-77915976D01*
X97685392Y-77470000D01*
X97596682Y-77024024D01*
X97427951Y-76771500D01*
X97596682Y-76518976D01*
X97685392Y-76073000D01*
X97596682Y-75627024D01*
X97427951Y-75374500D01*
X97596682Y-75121976D01*
X97685392Y-74676000D01*
X97596682Y-74230024D01*
X97344057Y-73851943D01*
X96965976Y-73599318D01*
X96632572Y-73533000D01*
X92552823Y-73533000D01*
X92530379Y-68999180D01*
X133535000Y-68999180D01*
X133535000Y-69430820D01*
X133700182Y-69829603D01*
X134005397Y-70134818D01*
X134404180Y-70300000D01*
X134835820Y-70300000D01*
X135234603Y-70134818D01*
X135392421Y-69977000D01*
X135561025Y-69977000D01*
X135440000Y-70269180D01*
X135440000Y-70700820D01*
X135605182Y-71099603D01*
X135910397Y-71404818D01*
X136309180Y-71570000D01*
X136740820Y-71570000D01*
X137139603Y-71404818D01*
X137297421Y-71247000D01*
X138114370Y-71247000D01*
X138303001Y-71435632D01*
X138303000Y-77332579D01*
X138145182Y-77490397D01*
X137980000Y-77889180D01*
X137980000Y-78320820D01*
X138145182Y-78719603D01*
X138450397Y-79024818D01*
X138849180Y-79190000D01*
X139280820Y-79190000D01*
X139679603Y-79024818D01*
X139984818Y-78719603D01*
X140017500Y-78640702D01*
X140050182Y-78719603D01*
X140355397Y-79024818D01*
X140754180Y-79190000D01*
X141185820Y-79190000D01*
X141584603Y-79024818D01*
X141889818Y-78719603D01*
X141922500Y-78640702D01*
X141955182Y-78719603D01*
X142260397Y-79024818D01*
X142659180Y-79190000D01*
X143090820Y-79190000D01*
X143489603Y-79024818D01*
X143794818Y-78719603D01*
X143960000Y-78320820D01*
X143960000Y-77889180D01*
X143794818Y-77490397D01*
X143637000Y-77332579D01*
X143637000Y-70200042D01*
X143651927Y-70124999D01*
X143637000Y-70049956D01*
X143637000Y-70049952D01*
X143592788Y-69827683D01*
X143584314Y-69815000D01*
X143466882Y-69639251D01*
X143424371Y-69575629D01*
X143360750Y-69533119D01*
X142556883Y-68729253D01*
X142514371Y-68665629D01*
X142262317Y-68497212D01*
X142040048Y-68453000D01*
X142040043Y-68453000D01*
X141965000Y-68438073D01*
X141889957Y-68453000D01*
X135392421Y-68453000D01*
X135234603Y-68295182D01*
X134835820Y-68130000D01*
X134404180Y-68130000D01*
X134005397Y-68295182D01*
X133700182Y-68600397D01*
X133535000Y-68999180D01*
X92530379Y-68999180D01*
X92493964Y-61643385D01*
X92730397Y-61879818D01*
X93129180Y-62045000D01*
X93560820Y-62045000D01*
X93959603Y-61879818D01*
X94264818Y-61574603D01*
X94430000Y-61175820D01*
X94430000Y-60744180D01*
X94264818Y-60345397D01*
X94107000Y-60187579D01*
X94107000Y-54098014D01*
X107823000Y-54067261D01*
X107823001Y-60187578D01*
X107665182Y-60345397D01*
X107500000Y-60744180D01*
X107500000Y-61175820D01*
X107665182Y-61574603D01*
X107970397Y-61879818D01*
X108369180Y-62045000D01*
X108800820Y-62045000D01*
X109199603Y-61879818D01*
X109504818Y-61574603D01*
X109670000Y-61175820D01*
X109670000Y-60744180D01*
X109504818Y-60345397D01*
X109347000Y-60187579D01*
X109347000Y-54063844D01*
X123061779Y-54033093D01*
X123048073Y-54102000D01*
G36*
X87779251Y-51605119D02*
X87715630Y-51647629D01*
X87673119Y-51711251D01*
X87673118Y-51711252D01*
X87547213Y-51899683D01*
X87488073Y-52197000D01*
X87503001Y-52272048D01*
X87503001Y-52520919D01*
X87364568Y-52578260D01*
X86574760Y-52578260D01*
X86326995Y-52627543D01*
X86121735Y-52764695D01*
X85977619Y-52705000D01*
X85472381Y-52705000D01*
X85328265Y-52764695D01*
X85123005Y-52627543D01*
X84875240Y-52578260D01*
X84085432Y-52578260D01*
X83510222Y-52340000D01*
X82859778Y-52340000D01*
X82258847Y-52588914D01*
X81798914Y-53048847D01*
X81550000Y-53649778D01*
X81550000Y-54300222D01*
X81798914Y-54901153D01*
X82258847Y-55361086D01*
X82859778Y-55610000D01*
X83510222Y-55610000D01*
X84085432Y-55371740D01*
X84875240Y-55371740D01*
X85123005Y-55322457D01*
X85328265Y-55185305D01*
X85472381Y-55245000D01*
X85977619Y-55245000D01*
X86121735Y-55185305D01*
X86326995Y-55322457D01*
X86574760Y-55371740D01*
X87364568Y-55371740D01*
X87939778Y-55610000D01*
X88590222Y-55610000D01*
X89191153Y-55361086D01*
X89651086Y-54901153D01*
X89900000Y-54300222D01*
X89900000Y-53649778D01*
X89651086Y-53048847D01*
X89191153Y-52588914D01*
X89027000Y-52520920D01*
X89027000Y-52512630D01*
X89215631Y-52324000D01*
X90608986Y-52324000D01*
X90468212Y-52534684D01*
X90424000Y-52756953D01*
X90424000Y-52756957D01*
X90409073Y-52832000D01*
X90424000Y-52907043D01*
X90424001Y-59755368D01*
X89981370Y-60198000D01*
X78877421Y-60198000D01*
X78719603Y-60040182D01*
X78320820Y-59875000D01*
X77889180Y-59875000D01*
X77490397Y-60040182D01*
X77185182Y-60345397D01*
X77152500Y-60424298D01*
X77119818Y-60345397D01*
X76814603Y-60040182D01*
X76415820Y-59875000D01*
X75984180Y-59875000D01*
X75585397Y-60040182D01*
X75280182Y-60345397D01*
X75115000Y-60744180D01*
X75115000Y-61175820D01*
X75280182Y-61574603D01*
X75585397Y-61879818D01*
X75984180Y-62045000D01*
X76080370Y-62045000D01*
X76751117Y-62715748D01*
X76793629Y-62779371D01*
X77045683Y-62947788D01*
X77267952Y-62992000D01*
X77267956Y-62992000D01*
X77342999Y-63006927D01*
X77418042Y-62992000D01*
X83185001Y-62992000D01*
X83185000Y-64632579D01*
X83027182Y-64790397D01*
X82862000Y-65189180D01*
X82862000Y-65532000D01*
X74387446Y-65532000D01*
X74168000Y-65312555D01*
X74168000Y-58258445D01*
X75403446Y-57023000D01*
X76947572Y-57023000D01*
X77280976Y-56956682D01*
X77659057Y-56704057D01*
X77911682Y-56325976D01*
X78000392Y-55880000D01*
X77911682Y-55434024D01*
X77659057Y-55055943D01*
X77280976Y-54803318D01*
X76947572Y-54737000D01*
X75042571Y-54737000D01*
X74930000Y-54714608D01*
X74817429Y-54737000D01*
X74817428Y-54737000D01*
X74484024Y-54803318D01*
X74105943Y-55055943D01*
X74042174Y-55151380D01*
X72296380Y-56897175D01*
X72200944Y-56960943D01*
X71961062Y-57319953D01*
X71948319Y-57339024D01*
X71859608Y-57785000D01*
X71882001Y-57897576D01*
X71882000Y-65673429D01*
X71859608Y-65786000D01*
X71882000Y-65898571D01*
X71948318Y-66231975D01*
X72200943Y-66610057D01*
X72296382Y-66673827D01*
X73026174Y-67403620D01*
X73089943Y-67499057D01*
X73468024Y-67751682D01*
X73801428Y-67818000D01*
X73801429Y-67818000D01*
X73914000Y-67840392D01*
X74026571Y-67818000D01*
X90678000Y-67818000D01*
X90678000Y-77852396D01*
X84566176Y-77852396D01*
X84453604Y-77830004D01*
X84007627Y-77918714D01*
X83930823Y-77970033D01*
X83629547Y-78171339D01*
X83565780Y-78266774D01*
X82076555Y-79756000D01*
X75931570Y-79756000D01*
X75818999Y-79733608D01*
X75706428Y-79756000D01*
X75373024Y-79822318D01*
X74994943Y-80074943D01*
X74931176Y-80170378D01*
X71154555Y-83947000D01*
X68184570Y-83947000D01*
X68071999Y-83924608D01*
X67959428Y-83947000D01*
X67626024Y-84013318D01*
X67580877Y-84043484D01*
X67564000Y-83958638D01*
X67564000Y-75692000D01*
X69013025Y-75692000D01*
X68892000Y-75984180D01*
X68892000Y-76207370D01*
X68729255Y-76370115D01*
X68665631Y-76412627D01*
X68497214Y-76664682D01*
X68453002Y-76886951D01*
X68453002Y-76886955D01*
X68438075Y-76961998D01*
X68453002Y-77037042D01*
X68453002Y-77332579D01*
X68295184Y-77490397D01*
X68130002Y-77889180D01*
X68130002Y-78320820D01*
X68295184Y-78719603D01*
X68600399Y-79024818D01*
X68999182Y-79190000D01*
X69430822Y-79190000D01*
X69829605Y-79024818D01*
X69850001Y-79004422D01*
X69850000Y-81122571D01*
X69916318Y-81455975D01*
X70168943Y-81834057D01*
X70547024Y-82086682D01*
X70993000Y-82175392D01*
X71438975Y-82086682D01*
X71817057Y-81834057D01*
X72069682Y-81455976D01*
X72136000Y-81122572D01*
X72136000Y-78613000D01*
X78339761Y-78613000D01*
X78519469Y-78881953D01*
X78550943Y-78929057D01*
X78929024Y-79181682D01*
X79375000Y-79270392D01*
X79487572Y-79248000D01*
X80532427Y-79248000D01*
X80645000Y-79270392D01*
X80757572Y-79248000D01*
X80863127Y-79227004D01*
X81090976Y-79181682D01*
X81100499Y-79175319D01*
X81469057Y-78929057D01*
X81721682Y-78550976D01*
X81731737Y-78500428D01*
X81810392Y-78105000D01*
X81798322Y-78044319D01*
X81788000Y-77992427D01*
X81788000Y-76947571D01*
X81810392Y-76835000D01*
X81721682Y-76389024D01*
X81718494Y-76384253D01*
X81469057Y-76010943D01*
X81153000Y-75799761D01*
X81153000Y-75296572D01*
X81175392Y-75184000D01*
X81086682Y-74738023D01*
X81011162Y-74625000D01*
X80834057Y-74359943D01*
X80738618Y-74296173D01*
X80262827Y-73820382D01*
X80199057Y-73724943D01*
X79820976Y-73472318D01*
X79487572Y-73406000D01*
X79487571Y-73406000D01*
X79375000Y-73383608D01*
X79262429Y-73406000D01*
X66533572Y-73406000D01*
X66421000Y-73383608D01*
X66308428Y-73406000D01*
X65975024Y-73472318D01*
X65596943Y-73724943D01*
X65344318Y-74103024D01*
X65255608Y-74549000D01*
X65278001Y-74661577D01*
X65278000Y-79643428D01*
X65278000Y-80504967D01*
X65278001Y-80504972D01*
X65278000Y-83597762D01*
X63406380Y-85469383D01*
X63310944Y-85533151D01*
X63058318Y-85911232D01*
X62994315Y-86233000D01*
X62969608Y-86357208D01*
X62992000Y-86469779D01*
X62992000Y-86602183D01*
X62833690Y-86760493D01*
X62600000Y-87324670D01*
X62600000Y-87935330D01*
X62833690Y-88499507D01*
X63265493Y-88931310D01*
X63829670Y-89165000D01*
X64440330Y-89165000D01*
X65004507Y-88931310D01*
X65405000Y-88530817D01*
X65805493Y-88931310D01*
X66369670Y-89165000D01*
X66980330Y-89165000D01*
X67544507Y-88931310D01*
X67945000Y-88530817D01*
X68345493Y-88931310D01*
X68909670Y-89165000D01*
X69520330Y-89165000D01*
X70084507Y-88931310D01*
X70485000Y-88530817D01*
X70885493Y-88931310D01*
X71449670Y-89165000D01*
X72060330Y-89165000D01*
X72624507Y-88931310D01*
X73056310Y-88499507D01*
X73290000Y-87935330D01*
X73290000Y-87324670D01*
X73245469Y-87217162D01*
X77150631Y-83312000D01*
X83109957Y-83312000D01*
X83185000Y-83326927D01*
X83260043Y-83312000D01*
X83260048Y-83312000D01*
X83482317Y-83267788D01*
X83734371Y-83099371D01*
X83776883Y-83035747D01*
X85550631Y-81262000D01*
X141525370Y-81262000D01*
X142918117Y-82654748D01*
X142960629Y-82718371D01*
X143024251Y-82760882D01*
X143212681Y-82886787D01*
X143212682Y-82886787D01*
X143212683Y-82886788D01*
X143434952Y-82931000D01*
X143434956Y-82931000D01*
X143509999Y-82945927D01*
X143585042Y-82931000D01*
X173316200Y-82931000D01*
X173257292Y-83019162D01*
X173177560Y-83420000D01*
X173177560Y-84220000D01*
X173257292Y-84620838D01*
X173484348Y-84960652D01*
X173677931Y-85090000D01*
X173484348Y-85219348D01*
X173257292Y-85559162D01*
X173177560Y-85960000D01*
X173177560Y-86760000D01*
X173257292Y-87160838D01*
X173484348Y-87500652D01*
X173677931Y-87630000D01*
X173484348Y-87759348D01*
X173257292Y-88099162D01*
X173177560Y-88500000D01*
X173177560Y-89300000D01*
X173257292Y-89700838D01*
X173484348Y-90040652D01*
X173824162Y-90267708D01*
X174225000Y-90347440D01*
X175025000Y-90347440D01*
X175425838Y-90267708D01*
X175765652Y-90040652D01*
X175991696Y-89702353D01*
X176373663Y-90084320D01*
X176887119Y-90297000D01*
X177442881Y-90297000D01*
X177956337Y-90084320D01*
X178309347Y-89731310D01*
X178344843Y-89909765D01*
X178485191Y-90119809D01*
X178695235Y-90260157D01*
X178943000Y-90309440D01*
X180467000Y-90309440D01*
X180714765Y-90260157D01*
X180924809Y-90119809D01*
X181041025Y-89945882D01*
X181104348Y-90040652D01*
X181444162Y-90267708D01*
X181845000Y-90347440D01*
X182645000Y-90347440D01*
X183045838Y-90267708D01*
X183385652Y-90040652D01*
X183612708Y-89700838D01*
X183692440Y-89300000D01*
X183692440Y-89194352D01*
X183706943Y-89216057D01*
X183802382Y-89279827D01*
X184751174Y-90228620D01*
X184814943Y-90324057D01*
X185060814Y-90488342D01*
X185193023Y-90576682D01*
X185639000Y-90665392D01*
X185751572Y-90643000D01*
X195375429Y-90643000D01*
X195488000Y-90665392D01*
X195600571Y-90643000D01*
X195600572Y-90643000D01*
X195933976Y-90576682D01*
X196312057Y-90324057D01*
X196375827Y-90228618D01*
X196943618Y-89660827D01*
X197039057Y-89597057D01*
X197291682Y-89218976D01*
X197358000Y-88885572D01*
X197380392Y-88773001D01*
X197358000Y-88660430D01*
X197358000Y-88657817D01*
X197485000Y-88530817D01*
X197885493Y-88931310D01*
X198449670Y-89165000D01*
X199060330Y-89165000D01*
X199624507Y-88931310D01*
X200056310Y-88499507D01*
X200290000Y-87935330D01*
X200290000Y-87324670D01*
X200056310Y-86760493D01*
X199624507Y-86328690D01*
X199060330Y-86095000D01*
X198449670Y-86095000D01*
X197885493Y-86328690D01*
X197485000Y-86729183D01*
X197358000Y-86602183D01*
X197358000Y-84821571D01*
X197380392Y-84709000D01*
X197348491Y-84548622D01*
X197291682Y-84263024D01*
X197039057Y-83884943D01*
X196943621Y-83821175D01*
X196213827Y-83091382D01*
X196150057Y-82995943D01*
X195771976Y-82743318D01*
X195438572Y-82677000D01*
X195438571Y-82677000D01*
X195326000Y-82654608D01*
X195213429Y-82677000D01*
X189074446Y-82677000D01*
X186180827Y-79783382D01*
X186117057Y-79687943D01*
X186021620Y-79624174D01*
X185418827Y-79021382D01*
X185355057Y-78925943D01*
X184976976Y-78673318D01*
X184643572Y-78607000D01*
X184643571Y-78607000D01*
X184531000Y-78584608D01*
X184418429Y-78607000D01*
X177638446Y-78607000D01*
X176915827Y-77884382D01*
X176893000Y-77850219D01*
X176893000Y-70784180D01*
X179165000Y-70784180D01*
X179165000Y-71215820D01*
X179330182Y-71614603D01*
X179635397Y-71919818D01*
X180034180Y-72085000D01*
X180257370Y-72085000D01*
X181658118Y-73485749D01*
X181700629Y-73549371D01*
X181952683Y-73717788D01*
X182174952Y-73762000D01*
X182174956Y-73762000D01*
X182249999Y-73776927D01*
X182325042Y-73762000D01*
X189738000Y-73762000D01*
X189738001Y-78602578D01*
X189580182Y-78760397D01*
X189415000Y-79159180D01*
X189415000Y-79590820D01*
X189580182Y-79989603D01*
X189885397Y-80294818D01*
X190284180Y-80460000D01*
X190715820Y-80460000D01*
X191114603Y-80294818D01*
X191419818Y-79989603D01*
X191585000Y-79590820D01*
X191585000Y-79159180D01*
X191419818Y-78760397D01*
X191262000Y-78602579D01*
X191262000Y-73075048D01*
X191276928Y-73000000D01*
X191262000Y-72924952D01*
X191262000Y-59827421D01*
X191419818Y-59669603D01*
X191585000Y-59270820D01*
X191585000Y-58839180D01*
X191419818Y-58440397D01*
X191114603Y-58135182D01*
X190715820Y-57970000D01*
X190284180Y-57970000D01*
X189885397Y-58135182D01*
X189580182Y-58440397D01*
X189415000Y-58839180D01*
X189415000Y-59270820D01*
X189580182Y-59669603D01*
X189738000Y-59827421D01*
X189738001Y-72238000D01*
X184489330Y-72238000D01*
X184600000Y-71970820D01*
X184600000Y-71539180D01*
X184434818Y-71140397D01*
X184129603Y-70835182D01*
X183941601Y-70757309D01*
X183965000Y-70700820D01*
X183965000Y-70269180D01*
X183799818Y-69870397D01*
X183642000Y-69712579D01*
X183642000Y-68908975D01*
X183934180Y-69030000D01*
X184365820Y-69030000D01*
X184764603Y-68864818D01*
X185069818Y-68559603D01*
X185235000Y-68160820D01*
X185235000Y-67729180D01*
X185069818Y-67330397D01*
X184912000Y-67172579D01*
X184912000Y-58100630D01*
X185750631Y-57262000D01*
X194674957Y-57262000D01*
X194750000Y-57276927D01*
X194825043Y-57262000D01*
X194825048Y-57262000D01*
X195047317Y-57217788D01*
X195299371Y-57049371D01*
X195341883Y-56985747D01*
X196700750Y-55626881D01*
X196764371Y-55584371D01*
X196912051Y-55363353D01*
X197015838Y-55342708D01*
X197355652Y-55115652D01*
X197582708Y-54775838D01*
X197662440Y-54375000D01*
X197662440Y-53575000D01*
X197582708Y-53174162D01*
X197355652Y-52834348D01*
X197015838Y-52607292D01*
X196615000Y-52527560D01*
X195815000Y-52527560D01*
X195414162Y-52607292D01*
X195074348Y-52834348D01*
X194945000Y-53027931D01*
X194815652Y-52834348D01*
X194475838Y-52607292D01*
X194075000Y-52527560D01*
X193275000Y-52527560D01*
X192874162Y-52607292D01*
X192534348Y-52834348D01*
X192405000Y-53027931D01*
X192275652Y-52834348D01*
X191935838Y-52607292D01*
X191535000Y-52527560D01*
X190735000Y-52527560D01*
X190334162Y-52607292D01*
X189994348Y-52834348D01*
X189767292Y-53174162D01*
X189687560Y-53575000D01*
X189687560Y-54344810D01*
X189544370Y-54488000D01*
X184220042Y-54488000D01*
X184144999Y-54473073D01*
X184069956Y-54488000D01*
X184069952Y-54488000D01*
X183847683Y-54532212D01*
X183595629Y-54700629D01*
X183553118Y-54764251D01*
X181514253Y-56803117D01*
X181450629Y-56845629D01*
X181282212Y-57097684D01*
X181238000Y-57319953D01*
X181238000Y-57319957D01*
X181223073Y-57395000D01*
X181238000Y-57470043D01*
X181238001Y-70550005D01*
X181169818Y-70385397D01*
X180864603Y-70080182D01*
X180465820Y-69915000D01*
X180034180Y-69915000D01*
X179635397Y-70080182D01*
X179330182Y-70385397D01*
X179165000Y-70784180D01*
X176893000Y-70784180D01*
X176893000Y-66040000D01*
X178490429Y-66040000D01*
X178603000Y-66062392D01*
X178715571Y-66040000D01*
X178715572Y-66040000D01*
X179048976Y-65973682D01*
X179427057Y-65721057D01*
X179490827Y-65625618D01*
X180228620Y-64887826D01*
X180324057Y-64824057D01*
X180490535Y-64574904D01*
X180576682Y-64445977D01*
X180665392Y-64000000D01*
X180576682Y-63554024D01*
X180551439Y-63516245D01*
X180324057Y-63175943D01*
X180228620Y-63112174D01*
X179506827Y-62390382D01*
X179443057Y-62294943D01*
X179064976Y-62042318D01*
X178731572Y-61976000D01*
X178731571Y-61976000D01*
X178619000Y-61953608D01*
X178506429Y-61976000D01*
X176893000Y-61976000D01*
X176893000Y-59403570D01*
X176915392Y-59290999D01*
X176891439Y-59170581D01*
X176826682Y-58845024D01*
X176574057Y-58466943D01*
X176478620Y-58403174D01*
X175596827Y-57521382D01*
X175533057Y-57425943D01*
X175154976Y-57173318D01*
X174821572Y-57107000D01*
X174821571Y-57107000D01*
X174709000Y-57084608D01*
X174596429Y-57107000D01*
X173594571Y-57107000D01*
X173482000Y-57084608D01*
X173369429Y-57107000D01*
X173101000Y-57107000D01*
X173101000Y-56642000D01*
X173914957Y-56642000D01*
X173990000Y-56656927D01*
X174065043Y-56642000D01*
X174065048Y-56642000D01*
X174287317Y-56597788D01*
X174539371Y-56429371D01*
X174581883Y-56365747D01*
X175110749Y-55836882D01*
X175174371Y-55794371D01*
X175342788Y-55542317D01*
X175363365Y-55438871D01*
X175525432Y-55371740D01*
X176315240Y-55371740D01*
X176563005Y-55322457D01*
X176768265Y-55185305D01*
X176912381Y-55245000D01*
X177417619Y-55245000D01*
X177561735Y-55185305D01*
X177766995Y-55322457D01*
X178014760Y-55371740D01*
X178804568Y-55371740D01*
X179379778Y-55610000D01*
X180030222Y-55610000D01*
X180631153Y-55361086D01*
X181091086Y-54901153D01*
X181340000Y-54300222D01*
X181340000Y-53649778D01*
X181091086Y-53048847D01*
X180631153Y-52588914D01*
X180030222Y-52340000D01*
X179379778Y-52340000D01*
X178804568Y-52578260D01*
X178014760Y-52578260D01*
X177766995Y-52627543D01*
X177561735Y-52764695D01*
X177417619Y-52705000D01*
X176912381Y-52705000D01*
X176768265Y-52764695D01*
X176563005Y-52627543D01*
X176315240Y-52578260D01*
X175525432Y-52578260D01*
X174950222Y-52340000D01*
X174299778Y-52340000D01*
X173698847Y-52588914D01*
X173238914Y-53048847D01*
X173101000Y-53381801D01*
X173101000Y-51473100D01*
X206218232Y-51473100D01*
X206179281Y-51512051D01*
X205688000Y-52698110D01*
X205688000Y-53981890D01*
X206179281Y-55167949D01*
X207087051Y-56075719D01*
X208273110Y-56567000D01*
X209556890Y-56567000D01*
X210742949Y-56075719D01*
X211416900Y-55401768D01*
X211416901Y-61536107D01*
X211371146Y-61795600D01*
X211269298Y-61972005D01*
X211113258Y-62102938D01*
X210893592Y-62182890D01*
X210790608Y-62191900D01*
X210118709Y-62191900D01*
X210089737Y-62197663D01*
X209905803Y-62213755D01*
X209820856Y-62236517D01*
X209734253Y-62251787D01*
X209319786Y-62402641D01*
X209117339Y-62519524D01*
X208779463Y-62803036D01*
X208752971Y-62834608D01*
X208629203Y-62982109D01*
X208408669Y-63364082D01*
X208408668Y-63364084D01*
X208371938Y-63465000D01*
X208328716Y-63583750D01*
X208328716Y-63583752D01*
X208253390Y-64010950D01*
X208241901Y-64068709D01*
X208241900Y-74361290D01*
X208247663Y-74390262D01*
X208263755Y-74574197D01*
X208286517Y-74659144D01*
X208301787Y-74745747D01*
X208452641Y-75160215D01*
X208534715Y-75302370D01*
X208569524Y-75362661D01*
X208853036Y-75700537D01*
X208874593Y-75718625D01*
X209032109Y-75850797D01*
X209414082Y-76071331D01*
X209414083Y-76071332D01*
X209414084Y-76071332D01*
X209471798Y-76092338D01*
X209633750Y-76151284D01*
X209633752Y-76151284D01*
X210060906Y-76226602D01*
X210118709Y-76238100D01*
X210761113Y-76238100D01*
X211020600Y-76283854D01*
X211197005Y-76385703D01*
X211327938Y-76541742D01*
X211407890Y-76761410D01*
X211416900Y-76864392D01*
X211416901Y-86714836D01*
X210896156Y-85457647D01*
X209817353Y-84378844D01*
X208407829Y-83795000D01*
X206882171Y-83795000D01*
X205472647Y-84378844D01*
X204393844Y-85457647D01*
X203810000Y-86867171D01*
X203810000Y-88392829D01*
X204393844Y-89802353D01*
X205358391Y-90766900D01*
X148681880Y-90766900D01*
X148813432Y-90573037D01*
X146685000Y-88444605D01*
X144556568Y-90573037D01*
X144688120Y-90766900D01*
X139388343Y-90766900D01*
X139741228Y-90414015D01*
X140318800Y-89019634D01*
X140318800Y-88906034D01*
X143449515Y-88906034D01*
X143941115Y-90095405D01*
X143943887Y-90099554D01*
X144376963Y-90393432D01*
X146505395Y-88265000D01*
X146864605Y-88265000D01*
X148993037Y-90393432D01*
X149426113Y-90099554D01*
X149919511Y-88910928D01*
X149920485Y-87623966D01*
X149428885Y-86434595D01*
X149426113Y-86430446D01*
X148993037Y-86136568D01*
X146864605Y-88265000D01*
X146505395Y-88265000D01*
X144376963Y-86136568D01*
X143943887Y-86430446D01*
X143450489Y-87619072D01*
X143449515Y-88906034D01*
X140318800Y-88906034D01*
X140318800Y-87510366D01*
X139741228Y-86115985D01*
X139582206Y-85956963D01*
X144556568Y-85956963D01*
X146685000Y-88085395D01*
X148813432Y-85956963D01*
X148519554Y-85523887D01*
X147330928Y-85030489D01*
X146043966Y-85029515D01*
X144854595Y-85521115D01*
X144850446Y-85523887D01*
X144556568Y-85956963D01*
X139582206Y-85956963D01*
X138674015Y-85048772D01*
X137279634Y-84471200D01*
X135770366Y-84471200D01*
X134375985Y-85048772D01*
X133308772Y-86115985D01*
X132892067Y-87122000D01*
X116297446Y-87122000D01*
X111377827Y-82202382D01*
X111314057Y-82106943D01*
X110935976Y-81854318D01*
X110602572Y-81788000D01*
X110602571Y-81788000D01*
X110490000Y-81765608D01*
X110377429Y-81788000D01*
X93457571Y-81788000D01*
X93345000Y-81765608D01*
X93232429Y-81788000D01*
X93232428Y-81788000D01*
X92899024Y-81854318D01*
X92520943Y-82106943D01*
X92457175Y-82202379D01*
X87791555Y-86868000D01*
X84723428Y-86868000D01*
X84390024Y-86934318D01*
X84011943Y-87186943D01*
X83759318Y-87565024D01*
X83670608Y-88011000D01*
X83759318Y-88456976D01*
X84011943Y-88835057D01*
X84390024Y-89087682D01*
X84723428Y-89154000D01*
X88152429Y-89154000D01*
X88265000Y-89176392D01*
X88377571Y-89154000D01*
X88377572Y-89154000D01*
X88710976Y-89087682D01*
X89089057Y-88835057D01*
X89152827Y-88739618D01*
X93818446Y-84074000D01*
X110016555Y-84074000D01*
X114936175Y-88993621D01*
X114999943Y-89089057D01*
X115378024Y-89341682D01*
X115711428Y-89408000D01*
X115823999Y-89430392D01*
X115936570Y-89408000D01*
X132892067Y-89408000D01*
X133308772Y-90414015D01*
X133661657Y-90766900D01*
X108908343Y-90766900D01*
X109261228Y-90414015D01*
X109838800Y-89019634D01*
X109838800Y-87510366D01*
X109261228Y-86115985D01*
X108194015Y-85048772D01*
X106799634Y-84471200D01*
X105290366Y-84471200D01*
X103895985Y-85048772D01*
X102828772Y-86115985D01*
X102251200Y-87510366D01*
X102251200Y-89019634D01*
X102828772Y-90414015D01*
X103181657Y-90766900D01*
X98748343Y-90766900D01*
X99101228Y-90414015D01*
X99678800Y-89019634D01*
X99678800Y-87510366D01*
X99101228Y-86115985D01*
X98034015Y-85048772D01*
X96639634Y-84471200D01*
X95130366Y-84471200D01*
X93735985Y-85048772D01*
X92668772Y-86115985D01*
X92091200Y-87510366D01*
X92091200Y-89019634D01*
X92668772Y-90414015D01*
X93021657Y-90766900D01*
X57531609Y-90766900D01*
X58496156Y-89802353D01*
X59080000Y-88392829D01*
X59080000Y-86867171D01*
X58496156Y-85457647D01*
X57417353Y-84378844D01*
X56007829Y-83795000D01*
X54482171Y-83795000D01*
X53072647Y-84378844D01*
X51993844Y-85457647D01*
X51473100Y-86714834D01*
X51473100Y-82099917D01*
X51523127Y-82133344D01*
X51883364Y-82205000D01*
X52826636Y-82205000D01*
X53186873Y-82133344D01*
X53595385Y-81860385D01*
X53868344Y-81451873D01*
X53964195Y-80970000D01*
X53922610Y-80760940D01*
X54284622Y-81122952D01*
X54784479Y-81330000D01*
X55325521Y-81330000D01*
X55825378Y-81122952D01*
X56207952Y-80740378D01*
X56415000Y-80240521D01*
X56415000Y-79699479D01*
X56207952Y-79199622D01*
X56198000Y-79189670D01*
X56198000Y-75750330D01*
X56207952Y-75740378D01*
X56415000Y-75240521D01*
X56415000Y-74699479D01*
X56207952Y-74199622D01*
X55825378Y-73817048D01*
X55325521Y-73610000D01*
X54784479Y-73610000D01*
X54284622Y-73817048D01*
X53922610Y-74179060D01*
X53964195Y-73970000D01*
X53868344Y-73488127D01*
X53595385Y-73079615D01*
X53186873Y-72806656D01*
X52826636Y-72735000D01*
X51883364Y-72735000D01*
X51523127Y-72806656D01*
X51473100Y-72840083D01*
X51473100Y-55401768D01*
X52147051Y-56075719D01*
X53333110Y-56567000D01*
X54616890Y-56567000D01*
X55802949Y-56075719D01*
X56710719Y-55167949D01*
X57202000Y-53981890D01*
X57202000Y-52698110D01*
X56710719Y-51512051D01*
X56671768Y-51473100D01*
X87911270Y-51473100D01*
X87779251Y-51605119D01*
X87779251Y-51605119D01*
G37*
X87779251Y-51605119D02*
X87715630Y-51647629D01*
X87673119Y-51711251D01*
X87673118Y-51711252D01*
X87547213Y-51899683D01*
X87488073Y-52197000D01*
X87503001Y-52272048D01*
X87503001Y-52520919D01*
X87364568Y-52578260D01*
X86574760Y-52578260D01*
X86326995Y-52627543D01*
X86121735Y-52764695D01*
X85977619Y-52705000D01*
X85472381Y-52705000D01*
X85328265Y-52764695D01*
X85123005Y-52627543D01*
X84875240Y-52578260D01*
X84085432Y-52578260D01*
X83510222Y-52340000D01*
X82859778Y-52340000D01*
X82258847Y-52588914D01*
X81798914Y-53048847D01*
X81550000Y-53649778D01*
X81550000Y-54300222D01*
X81798914Y-54901153D01*
X82258847Y-55361086D01*
X82859778Y-55610000D01*
X83510222Y-55610000D01*
X84085432Y-55371740D01*
X84875240Y-55371740D01*
X85123005Y-55322457D01*
X85328265Y-55185305D01*
X85472381Y-55245000D01*
X85977619Y-55245000D01*
X86121735Y-55185305D01*
X86326995Y-55322457D01*
X86574760Y-55371740D01*
X87364568Y-55371740D01*
X87939778Y-55610000D01*
X88590222Y-55610000D01*
X89191153Y-55361086D01*
X89651086Y-54901153D01*
X89900000Y-54300222D01*
X89900000Y-53649778D01*
X89651086Y-53048847D01*
X89191153Y-52588914D01*
X89027000Y-52520920D01*
X89027000Y-52512630D01*
X89215631Y-52324000D01*
X90608986Y-52324000D01*
X90468212Y-52534684D01*
X90424000Y-52756953D01*
X90424000Y-52756957D01*
X90409073Y-52832000D01*
X90424000Y-52907043D01*
X90424001Y-59755368D01*
X89981370Y-60198000D01*
X78877421Y-60198000D01*
X78719603Y-60040182D01*
X78320820Y-59875000D01*
X77889180Y-59875000D01*
X77490397Y-60040182D01*
X77185182Y-60345397D01*
X77152500Y-60424298D01*
X77119818Y-60345397D01*
X76814603Y-60040182D01*
X76415820Y-59875000D01*
X75984180Y-59875000D01*
X75585397Y-60040182D01*
X75280182Y-60345397D01*
X75115000Y-60744180D01*
X75115000Y-61175820D01*
X75280182Y-61574603D01*
X75585397Y-61879818D01*
X75984180Y-62045000D01*
X76080370Y-62045000D01*
X76751117Y-62715748D01*
X76793629Y-62779371D01*
X77045683Y-62947788D01*
X77267952Y-62992000D01*
X77267956Y-62992000D01*
X77342999Y-63006927D01*
X77418042Y-62992000D01*
X83185001Y-62992000D01*
X83185000Y-64632579D01*
X83027182Y-64790397D01*
X82862000Y-65189180D01*
X82862000Y-65532000D01*
X74387446Y-65532000D01*
X74168000Y-65312555D01*
X74168000Y-58258445D01*
X75403446Y-57023000D01*
X76947572Y-57023000D01*
X77280976Y-56956682D01*
X77659057Y-56704057D01*
X77911682Y-56325976D01*
X78000392Y-55880000D01*
X77911682Y-55434024D01*
X77659057Y-55055943D01*
X77280976Y-54803318D01*
X76947572Y-54737000D01*
X75042571Y-54737000D01*
X74930000Y-54714608D01*
X74817429Y-54737000D01*
X74817428Y-54737000D01*
X74484024Y-54803318D01*
X74105943Y-55055943D01*
X74042174Y-55151380D01*
X72296380Y-56897175D01*
X72200944Y-56960943D01*
X71961062Y-57319953D01*
X71948319Y-57339024D01*
X71859608Y-57785000D01*
X71882001Y-57897576D01*
X71882000Y-65673429D01*
X71859608Y-65786000D01*
X71882000Y-65898571D01*
X71948318Y-66231975D01*
X72200943Y-66610057D01*
X72296382Y-66673827D01*
X73026174Y-67403620D01*
X73089943Y-67499057D01*
X73468024Y-67751682D01*
X73801428Y-67818000D01*
X73801429Y-67818000D01*
X73914000Y-67840392D01*
X74026571Y-67818000D01*
X90678000Y-67818000D01*
X90678000Y-77852396D01*
X84566176Y-77852396D01*
X84453604Y-77830004D01*
X84007627Y-77918714D01*
X83930823Y-77970033D01*
X83629547Y-78171339D01*
X83565780Y-78266774D01*
X82076555Y-79756000D01*
X75931570Y-79756000D01*
X75818999Y-79733608D01*
X75706428Y-79756000D01*
X75373024Y-79822318D01*
X74994943Y-80074943D01*
X74931176Y-80170378D01*
X71154555Y-83947000D01*
X68184570Y-83947000D01*
X68071999Y-83924608D01*
X67959428Y-83947000D01*
X67626024Y-84013318D01*
X67580877Y-84043484D01*
X67564000Y-83958638D01*
X67564000Y-75692000D01*
X69013025Y-75692000D01*
X68892000Y-75984180D01*
X68892000Y-76207370D01*
X68729255Y-76370115D01*
X68665631Y-76412627D01*
X68497214Y-76664682D01*
X68453002Y-76886951D01*
X68453002Y-76886955D01*
X68438075Y-76961998D01*
X68453002Y-77037042D01*
X68453002Y-77332579D01*
X68295184Y-77490397D01*
X68130002Y-77889180D01*
X68130002Y-78320820D01*
X68295184Y-78719603D01*
X68600399Y-79024818D01*
X68999182Y-79190000D01*
X69430822Y-79190000D01*
X69829605Y-79024818D01*
X69850001Y-79004422D01*
X69850000Y-81122571D01*
X69916318Y-81455975D01*
X70168943Y-81834057D01*
X70547024Y-82086682D01*
X70993000Y-82175392D01*
X71438975Y-82086682D01*
X71817057Y-81834057D01*
X72069682Y-81455976D01*
X72136000Y-81122572D01*
X72136000Y-78613000D01*
X78339761Y-78613000D01*
X78519469Y-78881953D01*
X78550943Y-78929057D01*
X78929024Y-79181682D01*
X79375000Y-79270392D01*
X79487572Y-79248000D01*
X80532427Y-79248000D01*
X80645000Y-79270392D01*
X80757572Y-79248000D01*
X80863127Y-79227004D01*
X81090976Y-79181682D01*
X81100499Y-79175319D01*
X81469057Y-78929057D01*
X81721682Y-78550976D01*
X81731737Y-78500428D01*
X81810392Y-78105000D01*
X81798322Y-78044319D01*
X81788000Y-77992427D01*
X81788000Y-76947571D01*
X81810392Y-76835000D01*
X81721682Y-76389024D01*
X81718494Y-76384253D01*
X81469057Y-76010943D01*
X81153000Y-75799761D01*
X81153000Y-75296572D01*
X81175392Y-75184000D01*
X81086682Y-74738023D01*
X81011162Y-74625000D01*
X80834057Y-74359943D01*
X80738618Y-74296173D01*
X80262827Y-73820382D01*
X80199057Y-73724943D01*
X79820976Y-73472318D01*
X79487572Y-73406000D01*
X79487571Y-73406000D01*
X79375000Y-73383608D01*
X79262429Y-73406000D01*
X66533572Y-73406000D01*
X66421000Y-73383608D01*
X66308428Y-73406000D01*
X65975024Y-73472318D01*
X65596943Y-73724943D01*
X65344318Y-74103024D01*
X65255608Y-74549000D01*
X65278001Y-74661577D01*
X65278000Y-79643428D01*
X65278000Y-80504967D01*
X65278001Y-80504972D01*
X65278000Y-83597762D01*
X63406380Y-85469383D01*
X63310944Y-85533151D01*
X63058318Y-85911232D01*
X62994315Y-86233000D01*
X62969608Y-86357208D01*
X62992000Y-86469779D01*
X62992000Y-86602183D01*
X62833690Y-86760493D01*
X62600000Y-87324670D01*
X62600000Y-87935330D01*
X62833690Y-88499507D01*
X63265493Y-88931310D01*
X63829670Y-89165000D01*
X64440330Y-89165000D01*
X65004507Y-88931310D01*
X65405000Y-88530817D01*
X65805493Y-88931310D01*
X66369670Y-89165000D01*
X66980330Y-89165000D01*
X67544507Y-88931310D01*
X67945000Y-88530817D01*
X68345493Y-88931310D01*
X68909670Y-89165000D01*
X69520330Y-89165000D01*
X70084507Y-88931310D01*
X70485000Y-88530817D01*
X70885493Y-88931310D01*
X71449670Y-89165000D01*
X72060330Y-89165000D01*
X72624507Y-88931310D01*
X73056310Y-88499507D01*
X73290000Y-87935330D01*
X73290000Y-87324670D01*
X73245469Y-87217162D01*
X77150631Y-83312000D01*
X83109957Y-83312000D01*
X83185000Y-83326927D01*
X83260043Y-83312000D01*
X83260048Y-83312000D01*
X83482317Y-83267788D01*
X83734371Y-83099371D01*
X83776883Y-83035747D01*
X85550631Y-81262000D01*
X141525370Y-81262000D01*
X142918117Y-82654748D01*
X142960629Y-82718371D01*
X143024251Y-82760882D01*
X143212681Y-82886787D01*
X143212682Y-82886787D01*
X143212683Y-82886788D01*
X143434952Y-82931000D01*
X143434956Y-82931000D01*
X143509999Y-82945927D01*
X143585042Y-82931000D01*
X173316200Y-82931000D01*
X173257292Y-83019162D01*
X173177560Y-83420000D01*
X173177560Y-84220000D01*
X173257292Y-84620838D01*
X173484348Y-84960652D01*
X173677931Y-85090000D01*
X173484348Y-85219348D01*
X173257292Y-85559162D01*
X173177560Y-85960000D01*
X173177560Y-86760000D01*
X173257292Y-87160838D01*
X173484348Y-87500652D01*
X173677931Y-87630000D01*
X173484348Y-87759348D01*
X173257292Y-88099162D01*
X173177560Y-88500000D01*
X173177560Y-89300000D01*
X173257292Y-89700838D01*
X173484348Y-90040652D01*
X173824162Y-90267708D01*
X174225000Y-90347440D01*
X175025000Y-90347440D01*
X175425838Y-90267708D01*
X175765652Y-90040652D01*
X175991696Y-89702353D01*
X176373663Y-90084320D01*
X176887119Y-90297000D01*
X177442881Y-90297000D01*
X177956337Y-90084320D01*
X178309347Y-89731310D01*
X178344843Y-89909765D01*
X178485191Y-90119809D01*
X178695235Y-90260157D01*
X178943000Y-90309440D01*
X180467000Y-90309440D01*
X180714765Y-90260157D01*
X180924809Y-90119809D01*
X181041025Y-89945882D01*
X181104348Y-90040652D01*
X181444162Y-90267708D01*
X181845000Y-90347440D01*
X182645000Y-90347440D01*
X183045838Y-90267708D01*
X183385652Y-90040652D01*
X183612708Y-89700838D01*
X183692440Y-89300000D01*
X183692440Y-89194352D01*
X183706943Y-89216057D01*
X183802382Y-89279827D01*
X184751174Y-90228620D01*
X184814943Y-90324057D01*
X185060814Y-90488342D01*
X185193023Y-90576682D01*
X185639000Y-90665392D01*
X185751572Y-90643000D01*
X195375429Y-90643000D01*
X195488000Y-90665392D01*
X195600571Y-90643000D01*
X195600572Y-90643000D01*
X195933976Y-90576682D01*
X196312057Y-90324057D01*
X196375827Y-90228618D01*
X196943618Y-89660827D01*
X197039057Y-89597057D01*
X197291682Y-89218976D01*
X197358000Y-88885572D01*
X197380392Y-88773001D01*
X197358000Y-88660430D01*
X197358000Y-88657817D01*
X197485000Y-88530817D01*
X197885493Y-88931310D01*
X198449670Y-89165000D01*
X199060330Y-89165000D01*
X199624507Y-88931310D01*
X200056310Y-88499507D01*
X200290000Y-87935330D01*
X200290000Y-87324670D01*
X200056310Y-86760493D01*
X199624507Y-86328690D01*
X199060330Y-86095000D01*
X198449670Y-86095000D01*
X197885493Y-86328690D01*
X197485000Y-86729183D01*
X197358000Y-86602183D01*
X197358000Y-84821571D01*
X197380392Y-84709000D01*
X197348491Y-84548622D01*
X197291682Y-84263024D01*
X197039057Y-83884943D01*
X196943621Y-83821175D01*
X196213827Y-83091382D01*
X196150057Y-82995943D01*
X195771976Y-82743318D01*
X195438572Y-82677000D01*
X195438571Y-82677000D01*
X195326000Y-82654608D01*
X195213429Y-82677000D01*
X189074446Y-82677000D01*
X186180827Y-79783382D01*
X186117057Y-79687943D01*
X186021620Y-79624174D01*
X185418827Y-79021382D01*
X185355057Y-78925943D01*
X184976976Y-78673318D01*
X184643572Y-78607000D01*
X184643571Y-78607000D01*
X184531000Y-78584608D01*
X184418429Y-78607000D01*
X177638446Y-78607000D01*
X176915827Y-77884382D01*
X176893000Y-77850219D01*
X176893000Y-70784180D01*
X179165000Y-70784180D01*
X179165000Y-71215820D01*
X179330182Y-71614603D01*
X179635397Y-71919818D01*
X180034180Y-72085000D01*
X180257370Y-72085000D01*
X181658118Y-73485749D01*
X181700629Y-73549371D01*
X181952683Y-73717788D01*
X182174952Y-73762000D01*
X182174956Y-73762000D01*
X182249999Y-73776927D01*
X182325042Y-73762000D01*
X189738000Y-73762000D01*
X189738001Y-78602578D01*
X189580182Y-78760397D01*
X189415000Y-79159180D01*
X189415000Y-79590820D01*
X189580182Y-79989603D01*
X189885397Y-80294818D01*
X190284180Y-80460000D01*
X190715820Y-80460000D01*
X191114603Y-80294818D01*
X191419818Y-79989603D01*
X191585000Y-79590820D01*
X191585000Y-79159180D01*
X191419818Y-78760397D01*
X191262000Y-78602579D01*
X191262000Y-73075048D01*
X191276928Y-73000000D01*
X191262000Y-72924952D01*
X191262000Y-59827421D01*
X191419818Y-59669603D01*
X191585000Y-59270820D01*
X191585000Y-58839180D01*
X191419818Y-58440397D01*
X191114603Y-58135182D01*
X190715820Y-57970000D01*
X190284180Y-57970000D01*
X189885397Y-58135182D01*
X189580182Y-58440397D01*
X189415000Y-58839180D01*
X189415000Y-59270820D01*
X189580182Y-59669603D01*
X189738000Y-59827421D01*
X189738001Y-72238000D01*
X184489330Y-72238000D01*
X184600000Y-71970820D01*
X184600000Y-71539180D01*
X184434818Y-71140397D01*
X184129603Y-70835182D01*
X183941601Y-70757309D01*
X183965000Y-70700820D01*
X183965000Y-70269180D01*
X183799818Y-69870397D01*
X183642000Y-69712579D01*
X183642000Y-68908975D01*
X183934180Y-69030000D01*
X184365820Y-69030000D01*
X184764603Y-68864818D01*
X185069818Y-68559603D01*
X185235000Y-68160820D01*
X185235000Y-67729180D01*
X185069818Y-67330397D01*
X184912000Y-67172579D01*
X184912000Y-58100630D01*
X185750631Y-57262000D01*
X194674957Y-57262000D01*
X194750000Y-57276927D01*
X194825043Y-57262000D01*
X194825048Y-57262000D01*
X195047317Y-57217788D01*
X195299371Y-57049371D01*
X195341883Y-56985747D01*
X196700750Y-55626881D01*
X196764371Y-55584371D01*
X196912051Y-55363353D01*
X197015838Y-55342708D01*
X197355652Y-55115652D01*
X197582708Y-54775838D01*
X197662440Y-54375000D01*
X197662440Y-53575000D01*
X197582708Y-53174162D01*
X197355652Y-52834348D01*
X197015838Y-52607292D01*
X196615000Y-52527560D01*
X195815000Y-52527560D01*
X195414162Y-52607292D01*
X195074348Y-52834348D01*
X194945000Y-53027931D01*
X194815652Y-52834348D01*
X194475838Y-52607292D01*
X194075000Y-52527560D01*
X193275000Y-52527560D01*
X192874162Y-52607292D01*
X192534348Y-52834348D01*
X192405000Y-53027931D01*
X192275652Y-52834348D01*
X191935838Y-52607292D01*
X191535000Y-52527560D01*
X190735000Y-52527560D01*
X190334162Y-52607292D01*
X189994348Y-52834348D01*
X189767292Y-53174162D01*
X189687560Y-53575000D01*
X189687560Y-54344810D01*
X189544370Y-54488000D01*
X184220042Y-54488000D01*
X184144999Y-54473073D01*
X184069956Y-54488000D01*
X184069952Y-54488000D01*
X183847683Y-54532212D01*
X183595629Y-54700629D01*
X183553118Y-54764251D01*
X181514253Y-56803117D01*
X181450629Y-56845629D01*
X181282212Y-57097684D01*
X181238000Y-57319953D01*
X181238000Y-57319957D01*
X181223073Y-57395000D01*
X181238000Y-57470043D01*
X181238001Y-70550005D01*
X181169818Y-70385397D01*
X180864603Y-70080182D01*
X180465820Y-69915000D01*
X180034180Y-69915000D01*
X179635397Y-70080182D01*
X179330182Y-70385397D01*
X179165000Y-70784180D01*
X176893000Y-70784180D01*
X176893000Y-66040000D01*
X178490429Y-66040000D01*
X178603000Y-66062392D01*
X178715571Y-66040000D01*
X178715572Y-66040000D01*
X179048976Y-65973682D01*
X179427057Y-65721057D01*
X179490827Y-65625618D01*
X180228620Y-64887826D01*
X180324057Y-64824057D01*
X180490535Y-64574904D01*
X180576682Y-64445977D01*
X180665392Y-64000000D01*
X180576682Y-63554024D01*
X180551439Y-63516245D01*
X180324057Y-63175943D01*
X180228620Y-63112174D01*
X179506827Y-62390382D01*
X179443057Y-62294943D01*
X179064976Y-62042318D01*
X178731572Y-61976000D01*
X178731571Y-61976000D01*
X178619000Y-61953608D01*
X178506429Y-61976000D01*
X176893000Y-61976000D01*
X176893000Y-59403570D01*
X176915392Y-59290999D01*
X176891439Y-59170581D01*
X176826682Y-58845024D01*
X176574057Y-58466943D01*
X176478620Y-58403174D01*
X175596827Y-57521382D01*
X175533057Y-57425943D01*
X175154976Y-57173318D01*
X174821572Y-57107000D01*
X174821571Y-57107000D01*
X174709000Y-57084608D01*
X174596429Y-57107000D01*
X173594571Y-57107000D01*
X173482000Y-57084608D01*
X173369429Y-57107000D01*
X173101000Y-57107000D01*
X173101000Y-56642000D01*
X173914957Y-56642000D01*
X173990000Y-56656927D01*
X174065043Y-56642000D01*
X174065048Y-56642000D01*
X174287317Y-56597788D01*
X174539371Y-56429371D01*
X174581883Y-56365747D01*
X175110749Y-55836882D01*
X175174371Y-55794371D01*
X175342788Y-55542317D01*
X175363365Y-55438871D01*
X175525432Y-55371740D01*
X176315240Y-55371740D01*
X176563005Y-55322457D01*
X176768265Y-55185305D01*
X176912381Y-55245000D01*
X177417619Y-55245000D01*
X177561735Y-55185305D01*
X177766995Y-55322457D01*
X178014760Y-55371740D01*
X178804568Y-55371740D01*
X179379778Y-55610000D01*
X180030222Y-55610000D01*
X180631153Y-55361086D01*
X181091086Y-54901153D01*
X181340000Y-54300222D01*
X181340000Y-53649778D01*
X181091086Y-53048847D01*
X180631153Y-52588914D01*
X180030222Y-52340000D01*
X179379778Y-52340000D01*
X178804568Y-52578260D01*
X178014760Y-52578260D01*
X177766995Y-52627543D01*
X177561735Y-52764695D01*
X177417619Y-52705000D01*
X176912381Y-52705000D01*
X176768265Y-52764695D01*
X176563005Y-52627543D01*
X176315240Y-52578260D01*
X175525432Y-52578260D01*
X174950222Y-52340000D01*
X174299778Y-52340000D01*
X173698847Y-52588914D01*
X173238914Y-53048847D01*
X173101000Y-53381801D01*
X173101000Y-51473100D01*
X206218232Y-51473100D01*
X206179281Y-51512051D01*
X205688000Y-52698110D01*
X205688000Y-53981890D01*
X206179281Y-55167949D01*
X207087051Y-56075719D01*
X208273110Y-56567000D01*
X209556890Y-56567000D01*
X210742949Y-56075719D01*
X211416900Y-55401768D01*
X211416901Y-61536107D01*
X211371146Y-61795600D01*
X211269298Y-61972005D01*
X211113258Y-62102938D01*
X210893592Y-62182890D01*
X210790608Y-62191900D01*
X210118709Y-62191900D01*
X210089737Y-62197663D01*
X209905803Y-62213755D01*
X209820856Y-62236517D01*
X209734253Y-62251787D01*
X209319786Y-62402641D01*
X209117339Y-62519524D01*
X208779463Y-62803036D01*
X208752971Y-62834608D01*
X208629203Y-62982109D01*
X208408669Y-63364082D01*
X208408668Y-63364084D01*
X208371938Y-63465000D01*
X208328716Y-63583750D01*
X208328716Y-63583752D01*
X208253390Y-64010950D01*
X208241901Y-64068709D01*
X208241900Y-74361290D01*
X208247663Y-74390262D01*
X208263755Y-74574197D01*
X208286517Y-74659144D01*
X208301787Y-74745747D01*
X208452641Y-75160215D01*
X208534715Y-75302370D01*
X208569524Y-75362661D01*
X208853036Y-75700537D01*
X208874593Y-75718625D01*
X209032109Y-75850797D01*
X209414082Y-76071331D01*
X209414083Y-76071332D01*
X209414084Y-76071332D01*
X209471798Y-76092338D01*
X209633750Y-76151284D01*
X209633752Y-76151284D01*
X210060906Y-76226602D01*
X210118709Y-76238100D01*
X210761113Y-76238100D01*
X211020600Y-76283854D01*
X211197005Y-76385703D01*
X211327938Y-76541742D01*
X211407890Y-76761410D01*
X211416900Y-76864392D01*
X211416901Y-86714836D01*
X210896156Y-85457647D01*
X209817353Y-84378844D01*
X208407829Y-83795000D01*
X206882171Y-83795000D01*
X205472647Y-84378844D01*
X204393844Y-85457647D01*
X203810000Y-86867171D01*
X203810000Y-88392829D01*
X204393844Y-89802353D01*
X205358391Y-90766900D01*
X148681880Y-90766900D01*
X148813432Y-90573037D01*
X146685000Y-88444605D01*
X144556568Y-90573037D01*
X144688120Y-90766900D01*
X139388343Y-90766900D01*
X139741228Y-90414015D01*
X140318800Y-89019634D01*
X140318800Y-88906034D01*
X143449515Y-88906034D01*
X143941115Y-90095405D01*
X143943887Y-90099554D01*
X144376963Y-90393432D01*
X146505395Y-88265000D01*
X146864605Y-88265000D01*
X148993037Y-90393432D01*
X149426113Y-90099554D01*
X149919511Y-88910928D01*
X149920485Y-87623966D01*
X149428885Y-86434595D01*
X149426113Y-86430446D01*
X148993037Y-86136568D01*
X146864605Y-88265000D01*
X146505395Y-88265000D01*
X144376963Y-86136568D01*
X143943887Y-86430446D01*
X143450489Y-87619072D01*
X143449515Y-88906034D01*
X140318800Y-88906034D01*
X140318800Y-87510366D01*
X139741228Y-86115985D01*
X139582206Y-85956963D01*
X144556568Y-85956963D01*
X146685000Y-88085395D01*
X148813432Y-85956963D01*
X148519554Y-85523887D01*
X147330928Y-85030489D01*
X146043966Y-85029515D01*
X144854595Y-85521115D01*
X144850446Y-85523887D01*
X144556568Y-85956963D01*
X139582206Y-85956963D01*
X138674015Y-85048772D01*
X137279634Y-84471200D01*
X135770366Y-84471200D01*
X134375985Y-85048772D01*
X133308772Y-86115985D01*
X132892067Y-87122000D01*
X116297446Y-87122000D01*
X111377827Y-82202382D01*
X111314057Y-82106943D01*
X110935976Y-81854318D01*
X110602572Y-81788000D01*
X110602571Y-81788000D01*
X110490000Y-81765608D01*
X110377429Y-81788000D01*
X93457571Y-81788000D01*
X93345000Y-81765608D01*
X93232429Y-81788000D01*
X93232428Y-81788000D01*
X92899024Y-81854318D01*
X92520943Y-82106943D01*
X92457175Y-82202379D01*
X87791555Y-86868000D01*
X84723428Y-86868000D01*
X84390024Y-86934318D01*
X84011943Y-87186943D01*
X83759318Y-87565024D01*
X83670608Y-88011000D01*
X83759318Y-88456976D01*
X84011943Y-88835057D01*
X84390024Y-89087682D01*
X84723428Y-89154000D01*
X88152429Y-89154000D01*
X88265000Y-89176392D01*
X88377571Y-89154000D01*
X88377572Y-89154000D01*
X88710976Y-89087682D01*
X89089057Y-88835057D01*
X89152827Y-88739618D01*
X93818446Y-84074000D01*
X110016555Y-84074000D01*
X114936175Y-88993621D01*
X114999943Y-89089057D01*
X115378024Y-89341682D01*
X115711428Y-89408000D01*
X115823999Y-89430392D01*
X115936570Y-89408000D01*
X132892067Y-89408000D01*
X133308772Y-90414015D01*
X133661657Y-90766900D01*
X108908343Y-90766900D01*
X109261228Y-90414015D01*
X109838800Y-89019634D01*
X109838800Y-87510366D01*
X109261228Y-86115985D01*
X108194015Y-85048772D01*
X106799634Y-84471200D01*
X105290366Y-84471200D01*
X103895985Y-85048772D01*
X102828772Y-86115985D01*
X102251200Y-87510366D01*
X102251200Y-89019634D01*
X102828772Y-90414015D01*
X103181657Y-90766900D01*
X98748343Y-90766900D01*
X99101228Y-90414015D01*
X99678800Y-89019634D01*
X99678800Y-87510366D01*
X99101228Y-86115985D01*
X98034015Y-85048772D01*
X96639634Y-84471200D01*
X95130366Y-84471200D01*
X93735985Y-85048772D01*
X92668772Y-86115985D01*
X92091200Y-87510366D01*
X92091200Y-89019634D01*
X92668772Y-90414015D01*
X93021657Y-90766900D01*
X57531609Y-90766900D01*
X58496156Y-89802353D01*
X59080000Y-88392829D01*
X59080000Y-86867171D01*
X58496156Y-85457647D01*
X57417353Y-84378844D01*
X56007829Y-83795000D01*
X54482171Y-83795000D01*
X53072647Y-84378844D01*
X51993844Y-85457647D01*
X51473100Y-86714834D01*
X51473100Y-82099917D01*
X51523127Y-82133344D01*
X51883364Y-82205000D01*
X52826636Y-82205000D01*
X53186873Y-82133344D01*
X53595385Y-81860385D01*
X53868344Y-81451873D01*
X53964195Y-80970000D01*
X53922610Y-80760940D01*
X54284622Y-81122952D01*
X54784479Y-81330000D01*
X55325521Y-81330000D01*
X55825378Y-81122952D01*
X56207952Y-80740378D01*
X56415000Y-80240521D01*
X56415000Y-79699479D01*
X56207952Y-79199622D01*
X56198000Y-79189670D01*
X56198000Y-75750330D01*
X56207952Y-75740378D01*
X56415000Y-75240521D01*
X56415000Y-74699479D01*
X56207952Y-74199622D01*
X55825378Y-73817048D01*
X55325521Y-73610000D01*
X54784479Y-73610000D01*
X54284622Y-73817048D01*
X53922610Y-74179060D01*
X53964195Y-73970000D01*
X53868344Y-73488127D01*
X53595385Y-73079615D01*
X53186873Y-72806656D01*
X52826636Y-72735000D01*
X51883364Y-72735000D01*
X51523127Y-72806656D01*
X51473100Y-72840083D01*
X51473100Y-55401768D01*
X52147051Y-56075719D01*
X53333110Y-56567000D01*
X54616890Y-56567000D01*
X55802949Y-56075719D01*
X56710719Y-55167949D01*
X57202000Y-53981890D01*
X57202000Y-52698110D01*
X56710719Y-51512051D01*
X56671768Y-51473100D01*
X87911270Y-51473100D01*
X87779251Y-51605119D01*
M02*
