G04 #@! TF.GenerationSoftware,KiCad,Pcbnew,5.0.0-rc2-dev-unknown-b5f1fdd~62~ubuntu16.04.1*
G04 #@! TF.CreationDate,2018-03-21T15:48:13+05:30*
G04 #@! TF.ProjectId,k3jr_controller,6B336A725F636F6E74726F6C6C65722E,rev 1*
G04 #@! TF.SameCoordinates,Original*
G04 #@! TF.FileFunction,Paste,Bot*
G04 #@! TF.FilePolarity,Positive*
%FSLAX46Y46*%
G04 Gerber Fmt 4.6, Leading zero omitted, Abs format (unit mm)*
G04 Created by KiCad (PCBNEW 5.0.0-rc2-dev-unknown-b5f1fdd~62~ubuntu16.04.1) date Wed Mar 21 15:48:13 2018*
%MOMM*%
%LPD*%
G01*
G04 APERTURE LIST*
%ADD10R,5.080000X2.794000*%
%ADD11R,2.100000X1.400000*%
%ADD12R,3.048000X3.048000*%
%ADD13R,1.400000X1.200000*%
%ADD14R,1.400000X1.400000*%
%ADD15R,1.900000X1.500000*%
%ADD16R,1.350000X0.400000*%
%ADD17O,0.850000X0.300000*%
%ADD18O,0.300000X0.850000*%
%ADD19R,1.005000X1.005000*%
%ADD20R,1.498600X1.300480*%
%ADD21R,1.550000X1.350000*%
%ADD22R,1.350000X1.550000*%
%ADD23R,1.500000X2.000000*%
%ADD24R,3.800000X2.000000*%
%ADD25R,1.300480X1.498600*%
%ADD26R,0.400000X0.650000*%
%ADD27R,1.998980X0.599440*%
%ADD28R,0.400000X0.600000*%
%ADD29R,4.000000X4.000000*%
%ADD30R,2.000000X1.000000*%
%ADD31R,1.000000X2.000000*%
%ADD32R,1.198880X1.198880*%
G04 APERTURE END LIST*
D10*
X200025000Y-58293000D03*
X200025000Y-80137000D03*
D11*
X88795000Y-57440000D03*
X97895000Y-57440000D03*
X97895000Y-61940000D03*
X88795000Y-61940000D03*
D12*
X91821000Y-71755000D03*
X99949000Y-71755000D03*
D13*
X75087000Y-81110000D03*
X75087000Y-78910000D03*
X72487000Y-78910000D03*
D14*
X72487000Y-81010000D03*
D15*
X52355000Y-76470000D03*
D16*
X55055000Y-78120000D03*
X55055000Y-78770000D03*
X55055000Y-76170000D03*
X55055000Y-76820000D03*
X55055000Y-77470000D03*
D15*
X52355000Y-78470000D03*
D11*
X73555000Y-57440000D03*
X82655000Y-57440000D03*
X82655000Y-61940000D03*
X73555000Y-61940000D03*
D12*
X186309000Y-58293000D03*
X178181000Y-58293000D03*
D17*
X77560000Y-78970000D03*
X77560000Y-78470000D03*
X77560000Y-77970000D03*
X77560000Y-77470000D03*
X77560000Y-76970000D03*
X77560000Y-76470000D03*
X77560000Y-75970000D03*
D18*
X78510000Y-75020000D03*
X79010000Y-75020000D03*
X79510000Y-75020000D03*
X80010000Y-75020000D03*
X80510000Y-75020000D03*
X81010000Y-75020000D03*
X81510000Y-75020000D03*
D17*
X82460000Y-75970000D03*
X82460000Y-76470000D03*
X82460000Y-76970000D03*
X82460000Y-77470000D03*
X82460000Y-77970000D03*
X82460000Y-78470000D03*
X82460000Y-78970000D03*
D18*
X81510000Y-79920000D03*
X81010000Y-79920000D03*
X80510000Y-79920000D03*
X80010000Y-79920000D03*
X79510000Y-79920000D03*
X79010000Y-79920000D03*
X78510000Y-79920000D03*
D19*
X80847500Y-76632500D03*
X80847500Y-78307500D03*
X79172500Y-76632500D03*
X79172500Y-78307500D03*
D20*
X70485000Y-61912500D03*
X70485000Y-63817500D03*
X85725000Y-61912500D03*
X85725000Y-63817500D03*
D21*
X83185000Y-87995000D03*
X83185000Y-85995000D03*
D11*
X143615000Y-61940000D03*
X134515000Y-61940000D03*
X134515000Y-57440000D03*
X143615000Y-57440000D03*
D12*
X122682000Y-78994000D03*
X122682000Y-70866000D03*
D22*
X182610000Y-79375000D03*
X180610000Y-79375000D03*
D20*
X100965000Y-61912500D03*
X100965000Y-63817500D03*
X116205000Y-61912500D03*
X116205000Y-63817500D03*
X80250000Y-86047500D03*
X80250000Y-87952500D03*
D23*
X115965000Y-76810000D03*
X111365000Y-76810000D03*
X113665000Y-76810000D03*
D24*
X113665000Y-70510000D03*
D25*
X140017500Y-68580000D03*
X138112500Y-68580000D03*
X138112500Y-71120000D03*
X140017500Y-71120000D03*
X140017500Y-73660000D03*
X138112500Y-73660000D03*
X140017500Y-76200000D03*
X138112500Y-76200000D03*
D20*
X131445000Y-63817500D03*
X131445000Y-61912500D03*
X55245000Y-63817500D03*
X55245000Y-61912500D03*
D25*
X97853500Y-77470000D03*
X99758500Y-77470000D03*
D20*
X131445000Y-67627500D03*
X131445000Y-69532500D03*
D26*
X133970000Y-72070000D03*
X135270000Y-72070000D03*
X134620000Y-70170000D03*
X134620000Y-72070000D03*
X135270000Y-70170000D03*
X133970000Y-70170000D03*
D22*
X183785000Y-53975000D03*
X185785000Y-53975000D03*
X78375000Y-67945000D03*
X80375000Y-67945000D03*
D12*
X87249000Y-71755000D03*
X79121000Y-71755000D03*
D22*
X75295000Y-67945000D03*
X73295000Y-67945000D03*
D12*
X66421000Y-71755000D03*
X74549000Y-71755000D03*
D21*
X131445000Y-57515000D03*
X131445000Y-55515000D03*
X55245000Y-66437000D03*
X55245000Y-68437000D03*
D20*
X77250000Y-86047500D03*
X77250000Y-87952500D03*
X185420000Y-63182500D03*
X185420000Y-65087500D03*
X182880000Y-63182500D03*
X182880000Y-65087500D03*
D11*
X104035000Y-57440000D03*
X113135000Y-57440000D03*
X113135000Y-61940000D03*
X104035000Y-61940000D03*
D27*
X176959260Y-67945000D03*
X176959260Y-69215000D03*
X176959260Y-70485000D03*
X176959260Y-71755000D03*
X176959260Y-73025000D03*
X176959260Y-74295000D03*
X176959260Y-75565000D03*
X176959260Y-76835000D03*
X186260740Y-76835000D03*
X186260740Y-75565000D03*
X186260740Y-74295000D03*
X186260740Y-73025000D03*
X186260740Y-71755000D03*
X186260740Y-70485000D03*
X186260740Y-69215000D03*
X186260740Y-67945000D03*
D11*
X67415000Y-61940000D03*
X58315000Y-61940000D03*
X58315000Y-57440000D03*
X67415000Y-57440000D03*
D21*
X186055000Y-87360000D03*
X186055000Y-85360000D03*
D22*
X196485000Y-85090000D03*
X198485000Y-85090000D03*
D28*
X108146000Y-77470000D03*
X107246000Y-77470000D03*
D29*
X160085000Y-64380000D03*
D30*
X150385000Y-56980000D03*
X150385000Y-58250000D03*
X150385000Y-59520000D03*
X150385000Y-60790000D03*
X150385000Y-62060000D03*
X150385000Y-63330000D03*
X150385000Y-64600000D03*
X150385000Y-65870000D03*
X150385000Y-67140000D03*
X150385000Y-68410000D03*
X150385000Y-69680000D03*
X150385000Y-70950000D03*
X150385000Y-72220000D03*
X150385000Y-73490000D03*
D31*
X153670000Y-74980000D03*
X154940000Y-74980000D03*
X156210000Y-74980000D03*
X157480000Y-74980000D03*
X158750000Y-74980000D03*
X160020000Y-74980000D03*
X161290000Y-74980000D03*
X162560000Y-74980000D03*
X163830000Y-74980000D03*
X165100000Y-74980000D03*
D30*
X168385000Y-73490000D03*
X168385000Y-72220000D03*
X168385000Y-70950000D03*
X168385000Y-69680000D03*
X168385000Y-68410000D03*
X168385000Y-67140000D03*
X168385000Y-65870000D03*
X168385000Y-64600000D03*
X168385000Y-63330000D03*
X168385000Y-62060000D03*
X168385000Y-60790000D03*
X168385000Y-59520000D03*
X168385000Y-58250000D03*
X168385000Y-56980000D03*
D25*
X140017500Y-66040000D03*
X138112500Y-66040000D03*
D21*
X131445000Y-72660000D03*
X131445000Y-74660000D03*
D11*
X119275000Y-57440000D03*
X128375000Y-57440000D03*
X128375000Y-61940000D03*
X119275000Y-61940000D03*
D32*
X102455980Y-77470000D03*
X104554020Y-77470000D03*
D25*
X101917500Y-53975000D03*
X100012500Y-53975000D03*
X170497500Y-53975000D03*
X172402500Y-53975000D03*
D20*
X60833000Y-79819500D03*
X60833000Y-81724500D03*
X60833000Y-72707500D03*
X60833000Y-70802500D03*
M02*
