<?xml version="1.0"?>
<!DOCTYPE svg PUBLIC "-//W3C//DTD SVG 1.1//EN" "http://www.w3.org/Graphics/SVG/1.1/DTD/svg11.dtd">
<svg width="131.35356mm" height="70.39356mm" viewBox="0 0 131.35356 70.39356" xmlns="http://www.w3.org/2000/svg" version="1.1">
<g id="Fillet" transform="translate(65.676780,35.196780) scale(1,-1)">
<path id="Fillet_f0000"  d="M -5.334 -33.909 L -62.357 -33.909 L -62.357 -33.909 L -5.334 -33.909 L -5.334 -33.909 Z " stroke="#191919" stroke-width="0.35 px" style="stroke-width:0.35;stroke-miterlimit:4;stroke-dasharray:none;fill:#ff5500;fill-rule: evenodd "/>
<path id="Fillet_f0001"  d="M 62.357 33.909 L 5.334 33.909 L 5.334 31.623 L -5.334 31.623 L -5.334 33.909 L -62.357 33.909 A 2.032 2.032 0 0 1 -64.389 31.877 L -64.389 5.334 L -62.103 5.334 L -62.103 -5.334 L -64.389 -5.334 L -64.389 -31.877 A 2.032 2.032 0 0 1 -62.357 -33.909 L -5.334 -33.909 L -5.334 -31.623 L 5.334 -31.623 L 5.334 -33.909 L 62.357 -33.909 A 2.032 2.032 0 0 1 64.389 -31.877 L 64.389 -5.334 L 62.103 -5.334 L 62.103 5.334 L 64.389 5.334 L 64.389 31.877 A 2.032 2.032 0 0 1 62.357 33.909 Z " stroke="#191919" stroke-width="0.35 px" style="stroke-width:0.35;stroke-miterlimit:4;stroke-dasharray:none;fill:#ff5500;fill-rule: evenodd "/>
<path id="Fillet_f0002"  d="M -62.357 -33.909 A 2.032 2.032 0 0 0 -64.389 -31.877 L -64.389 -31.877 A 2.032 2.032 0 0 1 -62.357 -33.909 L -62.357 -33.909 Z " stroke="#191919" stroke-width="0.35 px" style="stroke-width:0.35;stroke-miterlimit:4;stroke-dasharray:none;fill:#ff5500;fill-rule: evenodd "/>
<path id="Fillet_f0003"  d="M -5.334 -33.909 L -5.334 -33.909 L -5.334 -31.623 L -5.334 -31.623 L -5.334 -33.909 Z " stroke="#191919" stroke-width="0.35 px" style="stroke-width:0.35;stroke-miterlimit:4;stroke-dasharray:none;fill:#ff5500;fill-rule: evenodd "/>
<path id="Fillet_f0004"  d="M -5.334 -31.623 L 5.334 -31.623 L 5.334 -33.909 L 62.357 -33.909 A 2.032 2.032 0 0 1 64.389 -31.877 L 64.389 -5.334 L 62.103 -5.334 L 62.103 5.334 L 64.389 5.334 L 64.389 31.877 A 2.032 2.032 0 0 1 62.357 33.909 L 5.334 33.909 L 5.334 31.623 L -5.334 31.623 L -5.334 33.909 L -62.357 33.909 A 2.032 2.032 0 0 1 -64.389 31.877 L -64.389 5.334 L -62.103 5.334 L -62.103 -5.334 L -64.389 -5.334 L -64.389 -31.877 A 2.032 2.032 0 0 1 -62.357 -33.909 L -5.334 -33.909 L -5.334 -31.623 Z " stroke="#191919" stroke-width="0.35 px" style="stroke-width:0.35;stroke-miterlimit:4;stroke-dasharray:none;fill:#ff5500;fill-rule: evenodd "/>
<path id="Fillet_f0005"  d="M -64.389 -31.877 L -64.389 -5.334 L -64.389 -5.334 L -64.389 -31.877 L -64.389 -31.877 Z " stroke="#191919" stroke-width="0.35 px" style="stroke-width:0.35;stroke-miterlimit:4;stroke-dasharray:none;fill:#ff5500;fill-rule: evenodd "/>
<path id="Fillet_f0006"  d="M -5.334 -31.623 L -5.334 -31.623 L 5.334 -31.623 L 5.334 -31.623 L -5.334 -31.623 Z " stroke="#191919" stroke-width="0.35 px" style="stroke-width:0.35;stroke-miterlimit:4;stroke-dasharray:none;fill:#ff5500;fill-rule: evenodd "/>
<path id="Fillet_f0007"  d="M -62.103 -5.334 L -62.103 -5.334 L -64.389 -5.334 L -64.389 -5.334 L -62.103 -5.334 Z " stroke="#191919" stroke-width="0.35 px" style="stroke-width:0.35;stroke-miterlimit:4;stroke-dasharray:none;fill:#ff5500;fill-rule: evenodd "/>
<path id="Fillet_f0008"  d="M 5.334 -31.623 L 5.334 -31.623 L 5.334 -33.909 L 5.334 -33.909 L 5.334 -31.623 Z " stroke="#191919" stroke-width="0.35 px" style="stroke-width:0.35;stroke-miterlimit:4;stroke-dasharray:none;fill:#ff5500;fill-rule: evenodd "/>
<path id="Fillet_f0009"  d="M -62.103 5.334 L -62.103 5.334 L -62.103 -5.334 L -62.103 -5.334 L -62.103 5.334 Z " stroke="#191919" stroke-width="0.35 px" style="stroke-width:0.35;stroke-miterlimit:4;stroke-dasharray:none;fill:#ff5500;fill-rule: evenodd "/>
<path id="Fillet_f0010"  d="M 62.357 -33.909 L 5.334 -33.909 L 5.334 -33.909 L 62.357 -33.909 L 62.357 -33.909 Z " stroke="#191919" stroke-width="0.35 px" style="stroke-width:0.35;stroke-miterlimit:4;stroke-dasharray:none;fill:#ff5500;fill-rule: evenodd "/>
<path id="Fillet_f0011"  d="M -64.389 5.334 L -64.389 5.334 L -62.103 5.334 L -62.103 5.334 L -64.389 5.334 Z " stroke="#191919" stroke-width="0.35 px" style="stroke-width:0.35;stroke-miterlimit:4;stroke-dasharray:none;fill:#ff5500;fill-rule: evenodd "/>
<path id="Fillet_f0012"  d="M 62.357 -33.909 A 2.032 2.032 0 0 1 64.389 -31.877 L 64.389 -31.877 A 2.032 2.032 0 0 0 62.357 -33.909 L 62.357 -33.909 Z " stroke="#191919" stroke-width="0.35 px" style="stroke-width:0.35;stroke-miterlimit:4;stroke-dasharray:none;fill:#ff5500;fill-rule: evenodd "/>
<path id="Fillet_f0013"  d="M -64.389 5.334 L -64.389 31.877 L -64.389 31.877 L -64.389 5.334 L -64.389 5.334 Z " stroke="#191919" stroke-width="0.35 px" style="stroke-width:0.35;stroke-miterlimit:4;stroke-dasharray:none;fill:#ff5500;fill-rule: evenodd "/>
<path id="Fillet_f0014"  d="M 64.389 -5.334 L 64.389 -31.877 L 64.389 -31.877 L 64.389 -5.334 L 64.389 -5.334 Z " stroke="#191919" stroke-width="0.35 px" style="stroke-width:0.35;stroke-miterlimit:4;stroke-dasharray:none;fill:#ff5500;fill-rule: evenodd "/>
<path id="Fillet_f0015"  d="M -62.357 33.909 A 2.032 2.032 0 0 1 -64.389 31.877 L -64.389 31.877 A 2.032 2.032 0 0 0 -62.357 33.909 L -62.357 33.909 Z " stroke="#191919" stroke-width="0.35 px" style="stroke-width:0.35;stroke-miterlimit:4;stroke-dasharray:none;fill:#ff5500;fill-rule: evenodd "/>
<path id="Fillet_f0016"  d="M 64.389 -5.334 L 64.389 -5.334 L 62.103 -5.334 L 62.103 -5.334 L 64.389 -5.334 Z " stroke="#191919" stroke-width="0.35 px" style="stroke-width:0.35;stroke-miterlimit:4;stroke-dasharray:none;fill:#ff5500;fill-rule: evenodd "/>
<path id="Fillet_f0017"  d="M -62.357 33.909 L -5.334 33.909 L -5.334 33.909 L -62.357 33.909 L -62.357 33.909 Z " stroke="#191919" stroke-width="0.35 px" style="stroke-width:0.35;stroke-miterlimit:4;stroke-dasharray:none;fill:#ff5500;fill-rule: evenodd "/>
<path id="Fillet_f0018"  d="M 62.103 -5.334 L 62.103 -5.334 L 62.103 5.334 L 62.103 5.334 L 62.103 -5.334 Z " stroke="#191919" stroke-width="0.35 px" style="stroke-width:0.35;stroke-miterlimit:4;stroke-dasharray:none;fill:#ff5500;fill-rule: evenodd "/>
<path id="Fillet_f0019"  d="M -5.334 31.623 L -5.334 31.623 L -5.334 33.909 L -5.334 33.909 L -5.334 31.623 Z " stroke="#191919" stroke-width="0.35 px" style="stroke-width:0.35;stroke-miterlimit:4;stroke-dasharray:none;fill:#ff5500;fill-rule: evenodd "/>
<path id="Fillet_f0020"  d="M 62.103 5.334 L 62.103 5.334 L 64.389 5.334 L 64.389 5.334 L 62.103 5.334 Z " stroke="#191919" stroke-width="0.35 px" style="stroke-width:0.35;stroke-miterlimit:4;stroke-dasharray:none;fill:#ff5500;fill-rule: evenodd "/>
<path id="Fillet_f0021"  d="M 5.334 31.623 L 5.334 31.623 L -5.334 31.623 L -5.334 31.623 L 5.334 31.623 Z " stroke="#191919" stroke-width="0.35 px" style="stroke-width:0.35;stroke-miterlimit:4;stroke-dasharray:none;fill:#ff5500;fill-rule: evenodd "/>
<path id="Fillet_f0022"  d="M 64.389 31.877 L 64.389 5.334 L 64.389 5.334 L 64.389 31.877 L 64.389 31.877 Z " stroke="#191919" stroke-width="0.35 px" style="stroke-width:0.35;stroke-miterlimit:4;stroke-dasharray:none;fill:#ff5500;fill-rule: evenodd "/>
<path id="Fillet_f0023"  d="M 5.334 33.909 L 5.334 33.909 L 5.334 31.623 L 5.334 31.623 L 5.334 33.909 Z " stroke="#191919" stroke-width="0.35 px" style="stroke-width:0.35;stroke-miterlimit:4;stroke-dasharray:none;fill:#ff5500;fill-rule: evenodd "/>
<path id="Fillet_f0024"  d="M 64.389 31.877 A 2.032 2.032 0 0 1 62.357 33.909 L 62.357 33.909 A 2.032 2.032 0 0 0 64.389 31.877 L 64.389 31.877 Z " stroke="#191919" stroke-width="0.35 px" style="stroke-width:0.35;stroke-miterlimit:4;stroke-dasharray:none;fill:#ff5500;fill-rule: evenodd "/>
<path id="Fillet_f0025"  d="M 5.334 33.909 L 62.357 33.909 L 62.357 33.909 L 5.334 33.909 L 5.334 33.909 Z " stroke="#191919" stroke-width="0.35 px" style="stroke-width:0.35;stroke-miterlimit:4;stroke-dasharray:none;fill:#ff5500;fill-rule: evenodd "/>
<title>Fillet</title>
</g>
</svg>