<?xml version="1.0" encoding="UTF-8" standalone="no"?>
<svg
   xmlns:dc="http://purl.org/dc/elements/1.1/"
   xmlns:cc="http://creativecommons.org/ns#"
   xmlns:rdf="http://www.w3.org/1999/02/22-rdf-syntax-ns#"
   xmlns:svg="http://www.w3.org/2000/svg"
   xmlns="http://www.w3.org/2000/svg"
   xmlns:sodipodi="http://sodipodi.sourceforge.net/DTD/sodipodi-0.dtd"
   xmlns:inkscape="http://www.inkscape.org/namespaces/inkscape"
   version="1.1"
   width="19.6825cm"
   height="24.2341cm"
   viewBox="0 0 77490 95410 "
   id="svg1820"
   sodipodi:docname="KlokTHREEjr-brd.svg"
   inkscape:version="0.92.2 (unknown)">
  <metadata
     id="metadata1826">
    <rdf:RDF>
      <cc:Work
         rdf:about="">
        <dc:format>image/svg+xml</dc:format>
        <dc:type
           rdf:resource="http://purl.org/dc/dcmitype/StillImage" />
      </cc:Work>
    </rdf:RDF>
  </metadata>
  <defs
     id="defs1824" />
  <sodipodi:namedview
     pagecolor="#ffffff"
     bordercolor="#666666"
     borderopacity="1"
     objecttolerance="10"
     gridtolerance="10"
     guidetolerance="10"
     inkscape:pageopacity="0"
     inkscape:pageshadow="2"
     inkscape:window-width="1366"
     inkscape:window-height="744"
     id="namedview1822"
     showgrid="false"
     inkscape:zoom="0.70710678"
     inkscape:cx="465.57251"
     inkscape:cy="373.18674"
     inkscape:window-x="0"
     inkscape:window-y="24"
     inkscape:window-maximized="1"
     inkscape:current-layer="g1818" />
  <title
     id="title2">SVG Picture created as KlokTHREEjr-brd.svg date 2018/01/08 11:43:09 </title>
  <desc
     id="desc4">Picture generated by PCBNEW </desc>
  <g
     style="fill:#000000; fill-opacity:1;stroke:#000000; stroke-opacity:1; stroke-linecap:round; stroke-linejoin:round; "
     transform="translate(0 0) scale(1 1)"
     id="g6" />
  <g
     style="fill:#000000; fill-opacity:0.0;  stroke:#000000; stroke-width:-0.000393701; stroke-opacity:1;  stroke-linecap:round; stroke-linejoin:round;"
     id="g8" />
  <g
     style="fill:#000000; fill-opacity:0.0;  stroke:#000000; stroke-width:100; stroke-opacity:1;  stroke-linecap:round; stroke-linejoin:round;"
     id="g1352">
    <path
       d="M64395 25900 L64395 24900 "
       id="path1060" />
    <path
       d="M65895 25900 L64395 25900 "
       id="path1062" />
    <path
       d="M65895 24900 L65895 25900 "
       id="path1064" />
    <path
       d="M64395 24900 L65895 24900 "
       id="path1066" />
    <path
       d="M68395 26400 L68395 28400 "
       id="path1068" />
    <path
       d="M69895 26400 L68395 26400 "
       id="path1070" />
    <path
       d="M69895 28400 L69895 26400 "
       id="path1072" />
    <path
       d="M68395 28400 L69895 28400 "
       id="path1074" />
    <path
       d="M8395 35400 L8395 33400 "
       id="path1076" />
    <path
       d="M9895 35400 L8395 35400 "
       id="path1078" />
    <path
       d="M9895 33400 L9895 35400 "
       id="path1080" />
    <path
       d="M8395 33400 L9895 33400 "
       id="path1082" />
    <path
       d="M12395 26400 L12395 28400 "
       id="path1084" />
    <path
       d="M13895 26400 L12395 26400 "
       id="path1086" />
    <path
       d="M13895 28400 L13895 26400 "
       id="path1088" />
    <path
       d="M12395 28400 L13895 28400 "
       id="path1090" />
    <path
       d="M12395 25900 L12395 24900 "
       id="path1092" />
    <path
       d="M13895 25900 L12395 25900 "
       id="path1094" />
    <path
       d="M13895 24900 L13895 25900 "
       id="path1096" />
    <path
       d="M12395 24900 L13895 24900 "
       id="path1098" />
    <path
       d="M9895 26400 L9895 28400 "
       id="path1100" />
    <path
       d="M8395 26400 L9895 26400 "
       id="path1102" />
    <path
       d="M8395 28400 L8395 26400 "
       id="path1104" />
    <path
       d="M9895 28400 L8395 28400 "
       id="path1106" />
    <path
       d="M26145 46150 L24145 46150 "
       id="path1108" />
    <path
       d="M25145 45150 L25145 47150 "
       id="path1110" />
    <circle
       cx="25145.2"
       cy="46150"
       r="1000"
       id="circle1112" />
    <path
       d="M54145 46150 L52145 46150 "
       id="path1114" />
    <path
       d="M53145 45150 L53145 47150 "
       id="path1116" />
    <circle
       cx="53145.2"
       cy="46150"
       r="1030.78"
       id="circle1118" />
    <path
       d="M68395 77400 L68395 75400 "
       id="path1120" />
    <path
       d="M69895 77400 L68395 77400 "
       id="path1122" />
    <path
       d="M69895 75400 L69895 77400 "
       id="path1124" />
    <path
       d="M68395 75400 L69895 75400 "
       id="path1126" />
    <path
       d="M64395 78900 L64395 77900 "
       id="path1128" />
    <path
       d="M65895 78900 L64395 78900 "
       id="path1130" />
    <path
       d="M65895 77900 L65895 78900 "
       id="path1132" />
    <path
       d="M64395 77900 L65895 77900 "
       id="path1134" />
    <path
       d="M54145 74150 L52145 74150 "
       id="path1136" />
    <path
       d="M53145 73150 L53145 75150 "
       id="path1138" />
    <circle
       cx="53145.2"
       cy="74150"
       r="1000"
       id="circle1140" />
    <path
       d="M25145 73150 L25145 75150 "
       id="path1142" />
    <path
       d="M24145 74150 L26145 74150 "
       id="path1144" />
    <circle
       cx="25145.2"
       cy="74150"
       r="1030.78"
       id="circle1146" />
    <path
       d="M8395 77400 L8395 75400 "
       id="path1148" />
    <path
       d="M9895 77400 L8395 77400 "
       id="path1150" />
    <path
       d="M9895 75400 L9895 77400 "
       id="path1152" />
    <path
       d="M8395 75400 L9895 75400 "
       id="path1154" />
    <path
       d="M12395 78900 L12395 77900 "
       id="path1156" />
    <path
       d="M13895 78900 L12395 78900 "
       id="path1158" />
    <path
       d="M13895 78650 L13895 78900 "
       id="path1160" />
    <path
       d="M13895 77900 L13895 78650 "
       id="path1162" />
    <path
       d="M12395 77900 L13895 77900 "
       id="path1164" />
    <path
       d="M9145 78150 L9145 79150 "
       id="path1166" />
    <path
       d="M8145 79150 L8145 78150 "
       id="path1168" />
    <path
       d="M10145 79150 L8145 79150 "
       id="path1170" />
    <path
       d="M10145 78150 L10145 79150 "
       id="path1172" />
    <path
       d="M8145 78150 L10145 78150 "
       id="path1174" />
    <path
       d="M24145 22150 L26145 22150 "
       id="path1176" />
    <path
       d="M25145 23150 L25145 21150 "
       id="path1178" />
    <path
       d="M28145 22150 L30145 22150 "
       id="path1180" />
    <path
       d="M29145 23150 L29145 21150 "
       id="path1182" />
    <path
       d="M32145 22150 L34145 22150 "
       id="path1184" />
    <path
       d="M33145 21150 L33145 23150 "
       id="path1186" />
    <path
       d="M36145 22150 L38145 22150 "
       id="path1188" />
    <path
       d="M37145 23150 L37145 21150 "
       id="path1190" />
    <path
       d="M40145 22150 L42145 22150 "
       id="path1192" />
    <path
       d="M41145 23150 L41145 21150 "
       id="path1194" />
    <path
       d="M44145 22150 L46145 22150 "
       id="path1196" />
    <path
       d="M45145 23150 L45145 21150 "
       id="path1198" />
    <path
       d="M48145 22150 L50145 22150 "
       id="path1200" />
    <path
       d="M49145 23150 L49145 21150 "
       id="path1202" />
    <path
       d="M52145 22150 L54145 22150 "
       id="path1204" />
    <path
       d="M53145 23150 L53145 21150 "
       id="path1206" />
    <path
       d="M68145 21900 L70145 21900 "
       id="path1208" />
    <path
       d="M69145 22900 L69145 20900 "
       id="path1210" />
    <path
       d="M68645 8400 L70645 8400 "
       id="path1212" />
    <path
       d="M69645 9400 L69645 7400 "
       id="path1214" />
    <path
       d="M47645 10900 L48645 10900 "
       id="path1216" />
    <path
       d="M48145 11400 L48145 10400 "
       id="path1218" />
    <path
       d="M41645 10900 L42645 10900 "
       id="path1220" />
    <path
       d="M42145 11400 L42145 10400 "
       id="path1222" />
    <path
       d="M35645 10900 L36645 10900 "
       id="path1224" />
    <path
       d="M36145 11400 L36145 10400 "
       id="path1226" />
    <path
       d="M29645 10900 L30645 10900 "
       id="path1228" />
    <path
       d="M30145 11400 L30145 10400 "
       id="path1230" />
    <path
       d="M23645 10900 L24645 10900 "
       id="path1232" />
    <path
       d="M24145 11400 L24145 10400 "
       id="path1234" />
    <path
       d="M17645 10900 L18645 10900 "
       id="path1236" />
    <path
       d="M18145 11400 L18145 10400 "
       id="path1238" />
    <path
       d="M11645 10900 L12645 10900 "
       id="path1240" />
    <path
       d="M12145 11400 L12145 10400 "
       id="path1242" />
    <path
       d="M7645 8400 L9645 8400 "
       id="path1244" />
    <path
       d="M8645 9400 L8645 7400 "
       id="path1246" />
    <path
       d="M8145 21900 L10145 21900 "
       id="path1248" />
    <path
       d="M9145 22900 L9145 20900 "
       id="path1250" />
    <path
       d="M8145 81900 L8145 81900 "
       id="path1252" />
    <path
       d="M10145 81900 L8145 81900 "
       id="path1254" />
    <path
       d="M9145 82900 L9145 80900 "
       id="path1256" />
    <path
       d="M68145 81900 L70145 81900 "
       id="path1258" />
    <path
       d="M69145 82900 L69145 80900 "
       id="path1260" />
    <circle
       cx="69145.2"
       cy="81900"
       r="1000"
       id="circle1262" />
    <circle
       cx="9145.24"
       cy="81900"
       r="1000"
       id="circle1264" />
    <circle
       cx="9145.24"
       cy="21900"
       r="1000"
       id="circle1266" />
    <circle
       cx="8645.24"
       cy="8400"
       r="1000"
       id="circle1268" />
    <circle
       cx="69645.2"
       cy="8400"
       r="1000"
       id="circle1270" />
    <circle
       cx="69145.2"
       cy="21900"
       r="1000"
       id="circle1272" />
    <circle
       cx="53145.2"
       cy="22150"
       r="1000"
       id="circle1274" />
    <circle
       cx="49145.2"
       cy="22150"
       r="1000"
       id="circle1276" />
    <circle
       cx="45145.2"
       cy="22150"
       r="1000"
       id="circle1278" />
    <circle
       cx="41145.2"
       cy="22150"
       r="1000"
       id="circle1280" />
    <circle
       cx="37145.2"
       cy="22150"
       r="1000"
       id="circle1282" />
    <circle
       cx="33145.2"
       cy="22150"
       r="1000"
       id="circle1284" />
    <circle
       cx="29145.2"
       cy="22150"
       r="1000"
       id="circle1286" />
    <circle
       cx="25145.2"
       cy="22150"
       r="1000"
       id="circle1288" />
    <path
       d="M52145 39150 L54145 39150 "
       id="path1290" />
    <path
       d="M53145 38150 L53145 40150 "
       id="path1292" />
    <path
       d="M48145 39150 L50145 39150 "
       id="path1294" />
    <path
       d="M49145 38150 L49145 40150 "
       id="path1296" />
    <path
       d="M44145 39150 L46145 39150 "
       id="path1298" />
    <path
       d="M45145 38150 L45145 40150 "
       id="path1300" />
    <path
       d="M40145 39150 L42145 39150 "
       id="path1302" />
    <path
       d="M41145 38150 L41145 40150 "
       id="path1304" />
    <path
       d="M37145 38150 L37145 40150 "
       id="path1306" />
    <path
       d="M36145 39150 L38145 39150 "
       id="path1308" />
    <path
       d="M34145 39150 L32145 39150 "
       id="path1310" />
    <path
       d="M33145 38150 L33145 40150 "
       id="path1312" />
    <path
       d="M30145 39150 L28145 39150 "
       id="path1314" />
    <path
       d="M29145 38150 L29145 40150 "
       id="path1316" />
    <path
       d="M25145 38150 L25145 40150 "
       id="path1318" />
    <path
       d="M24145 39150 L26145 39150 "
       id="path1320" />
    <circle
       cx="25145.2"
       cy="39150"
       r="1000"
       id="circle1322" />
    <circle
       cx="29145.2"
       cy="39150"
       r="1000"
       id="circle1324" />
    <circle
       cx="53145.2"
       cy="39150"
       r="1000"
       id="circle1326" />
    <circle
       cx="49145.2"
       cy="39150"
       r="1000"
       id="circle1328" />
    <circle
       cx="45145.2"
       cy="39150"
       r="1000"
       id="circle1330" />
    <circle
       cx="41145.2"
       cy="39150"
       r="1000"
       id="circle1332" />
    <circle
       cx="37145.2"
       cy="39150"
       r="1000"
       id="circle1334" />
    <circle
       cx="33145.2"
       cy="39150"
       r="1000"
       id="circle1336" />
    <circle
       cx="48145.2"
       cy="10900"
       r="500"
       id="circle1338" />
    <circle
       cx="42145.2"
       cy="10900"
       r="500"
       id="circle1340" />
    <circle
       cx="36145.2"
       cy="10900"
       r="500"
       id="circle1342" />
    <circle
       cx="30145.2"
       cy="10900"
       r="500"
       id="circle1344" />
    <circle
       cx="24145.2"
       cy="10900"
       r="500"
       id="circle1346" />
    <circle
       cx="18145.2"
       cy="10900"
       r="500"
       id="circle1348" />
    <circle
       cx="12145.2"
       cy="10900"
       r="500"
       id="circle1350" />
  </g>
  <g
     style="fill:#000000; fill-opacity:0.0;  stroke:#000000; stroke-width:59.0551; stroke-opacity:1;  stroke-linecap:round; stroke-linejoin:round;"
     id="g1364">
    <circle
       cx="39145.2"
       cy="51900"
       r="500"
       id="circle1354" />
    <path
       d="M39145 51900 L39145 52900 "
       id="path1356" />
    <path
       d="M39145 51900 L39145 50900 "
       id="path1358" />
    <path
       d="M39145 51900 L40145 51900 "
       id="path1360" />
    <path
       d="M39145 51900 L38145 51900 "
       id="path1362" />
  </g>
  <g
     style="fill:#000000; fill-opacity:0.0;  stroke:#000000; stroke-width:39.3701; stroke-opacity:1;  stroke-linecap:round; stroke-linejoin:round;"
     id="g1382">
    <circle
       cx="9145.24"
       cy="21900"
       r="1400.89"
       id="circle1366" />
    <circle
       cx="9145.24"
       cy="81900"
       r="1400.89"
       id="circle1368" />
    <circle
       cx="69145.2"
       cy="81900"
       r="1400.89"
       id="circle1370" />
    <circle
       cx="25145.2"
       cy="46150"
       r="1400.89"
       id="circle1372" />
    <circle
       cx="53145.2"
       cy="46150"
       r="1400.89"
       id="circle1374" />
    <circle
       cx="53145.2"
       cy="74150"
       r="1400.89"
       id="circle1376" />
    <circle
       cx="25145.2"
       cy="74150"
       r="1400.89"
       id="circle1378" />
    <circle
       cx="69145.2"
       cy="21900"
       r="1400.89"
       id="circle1380" />
  </g>
  <g
     style="fill:#000000; fill-opacity:0.0;  stroke:#000000; stroke-width:20; stroke-opacity:1;  stroke-linecap:round; stroke-linejoin:round;"
     id="g1388">
    <circle
       cx="9645.24"
       cy="23900"
       r="20"
       id="circle1384" />
    <circle
       cx="7645.24"
       cy="23900"
       r="20"
       id="circle1386" />
  </g>
  <g
     style="fill:#000000; fill-opacity:0.0;  stroke:#000000; stroke-width:50; stroke-opacity:1;  stroke-linecap:round; stroke-linejoin:round;"
     id="g1394">
    <path
       d="M9645.24 23400 A500 500 0.0 0 0 9645.24 24400 "
       id="path1390" />
    <path
       d="M7645.24 24400 A500 500 0.0 0 0 7645.24 23400 "
       id="path1392" />
  </g>
  <g
     style="fill:#000000; fill-opacity:0.0;  stroke:#000000; stroke-width:20; stroke-opacity:1;  stroke-linecap:round; stroke-linejoin:round;"
     id="g1400">
    <circle
       cx="70645.2"
       cy="23900"
       r="20"
       id="circle1396" />
    <circle
       cx="68645.2"
       cy="23900"
       r="20"
       id="circle1398" />
  </g>
  <g
     style="fill:#000000; fill-opacity:0.0;  stroke:#000000; stroke-width:50; stroke-opacity:1;  stroke-linecap:round; stroke-linejoin:round;"
     id="g1406">
    <path
       d="M70645.2 23400 A500 500 0.0 0 0 70645.2 24400 "
       id="path1402" />
    <path
       d="M68645.2 24400 A500 500 0.0 0 0 68645.2 23400 "
       id="path1404" />
  </g>
  <g
     style="fill:#000000; fill-opacity:0.0;  stroke:#000000; stroke-width:20; stroke-opacity:1;  stroke-linecap:round; stroke-linejoin:round;"
     id="g1412">
    <circle
       cx="9395.24"
       cy="79900"
       r="20"
       id="circle1408" />
    <circle
       cx="7395.24"
       cy="79900"
       r="20"
       id="circle1410" />
  </g>
  <g
     style="fill:#000000; fill-opacity:0.0;  stroke:#000000; stroke-width:50; stroke-opacity:1;  stroke-linecap:round; stroke-linejoin:round;"
     id="g1418">
    <path
       d="M9395.24 79400 A500 500 0.0 0 0 9395.24 80400 "
       id="path1414" />
    <path
       d="M7395.24 80400 A500 500 0.0 0 0 7395.24 79400 "
       id="path1416" />
  </g>
  <g
     style="fill:#000000; fill-opacity:0.0;  stroke:#000000; stroke-width:20; stroke-opacity:1;  stroke-linecap:round; stroke-linejoin:round;"
     id="g1424">
    <circle
       cx="26145.2"
       cy="79900"
       r="20"
       id="circle1420" />
    <circle
       cx="24145.2"
       cy="79900"
       r="20"
       id="circle1422" />
  </g>
  <g
     style="fill:#000000; fill-opacity:0.0;  stroke:#000000; stroke-width:50; stroke-opacity:1;  stroke-linecap:round; stroke-linejoin:round;"
     id="g1430">
    <path
       d="M26145.2 79400 A500 500 0.0 0 0 26145.2 80400 "
       id="path1426" />
    <path
       d="M24145.2 80400 A500 500 0.0 0 0 24145.2 79400 "
       id="path1428" />
  </g>
  <g
     style="fill:#000000; fill-opacity:0.0;  stroke:#000000; stroke-width:20; stroke-opacity:1;  stroke-linecap:round; stroke-linejoin:round;"
     id="g1436">
    <circle
       cx="38145.2"
       cy="79900"
       r="20"
       id="circle1432" />
    <circle
       cx="36145.2"
       cy="79900"
       r="20"
       id="circle1434" />
  </g>
  <g
     style="fill:#000000; fill-opacity:0.0;  stroke:#000000; stroke-width:50; stroke-opacity:1;  stroke-linecap:round; stroke-linejoin:round;"
     id="g1442">
    <path
       d="M38145.2 79400 A500 500 0.0 0 0 38145.2 80400 "
       id="path1438" />
    <path
       d="M36145.2 80400 A500 500 0.0 0 0 36145.2 79400 "
       id="path1440" />
  </g>
  <g
     style="fill:#000000; fill-opacity:0.0;  stroke:#000000; stroke-width:20; stroke-opacity:1;  stroke-linecap:round; stroke-linejoin:round;"
     id="g1448">
    <circle
       cx="42145.2"
       cy="79900"
       r="20"
       id="circle1444" />
    <circle
       cx="40145.2"
       cy="79900"
       r="20"
       id="circle1446" />
  </g>
  <g
     style="fill:#000000; fill-opacity:0.0;  stroke:#000000; stroke-width:50; stroke-opacity:1;  stroke-linecap:round; stroke-linejoin:round;"
     id="g1454">
    <path
       d="M42145.2 79400 A500 500 0.0 0 0 42145.2 80400 "
       id="path1450" />
    <path
       d="M40145.2 80400 A500 500 0.0 0 0 40145.2 79400 "
       id="path1452" />
  </g>
  <g
     style="fill:#000000; fill-opacity:0.0;  stroke:#000000; stroke-width:20; stroke-opacity:1;  stroke-linecap:round; stroke-linejoin:round;"
     id="g1460">
    <circle
       cx="54145.2"
       cy="79900"
       r="20"
       id="circle1456" />
    <circle
       cx="52145.2"
       cy="79900"
       r="20"
       id="circle1458" />
  </g>
  <g
     style="fill:#000000; fill-opacity:0.0;  stroke:#000000; stroke-width:50; stroke-opacity:1;  stroke-linecap:round; stroke-linejoin:round;"
     id="g1466">
    <path
       d="M54145.2 79400 A500 500 0.0 0 0 54145.2 80400 "
       id="path1462" />
    <path
       d="M52145.2 80400 A500 500 0.0 0 0 52145.2 79400 "
       id="path1464" />
  </g>
  <g
     style="fill:#000000; fill-opacity:0.0;  stroke:#000000; stroke-width:20; stroke-opacity:1;  stroke-linecap:round; stroke-linejoin:round;"
     id="g1472">
    <circle
       cx="70895.2"
       cy="79900"
       r="20"
       id="circle1468" />
    <circle
       cx="68895.2"
       cy="79900"
       r="20"
       id="circle1470" />
  </g>
  <g
     style="fill:#000000; fill-opacity:0.0;  stroke:#000000; stroke-width:50; stroke-opacity:1;  stroke-linecap:round; stroke-linejoin:round;"
     id="g1478">
    <path
       d="M70895.2 79400 A500 500 0.0 0 0 70895.2 80400 "
       id="path1474" />
    <path
       d="M68895.2 80400 A500 500 0.0 0 0 68895.2 79400 "
       id="path1476" />
  </g>
  <g
     style="fill:#000000; fill-opacity:0.0;  stroke:#000000; stroke-width:200; stroke-opacity:1;  stroke-linecap:round; stroke-linejoin:round;"
     id="g1568">
    <circle
       cx="61145.2"
       cy="72900"
       r="310"
       id="circle1480" />
    <circle
       cx="61145.2"
       cy="65900"
       r="310"
       id="circle1482" />
    <circle
       cx="61145.2"
       cy="58900"
       r="310"
       id="circle1484" />
    <circle
       cx="61145.2"
       cy="51900"
       r="310"
       id="circle1486" />
    <circle
       cx="61145.2"
       cy="44900"
       r="310"
       id="circle1488" />
    <circle
       cx="61145.2"
       cy="37900"
       r="310"
       id="circle1490" />
    <circle
       cx="61145.2"
       cy="30900"
       r="310"
       id="circle1492" />
    <circle
       cx="17145.2"
       cy="72900"
       r="310"
       id="circle1494" />
    <circle
       cx="17145.2"
       cy="65900"
       r="310"
       id="circle1496" />
    <circle
       cx="17145.2"
       cy="58900"
       r="310"
       id="circle1498" />
    <circle
       cx="17145.2"
       cy="51900"
       r="310"
       id="circle1500" />
    <circle
       cx="17145.2"
       cy="44900"
       r="310"
       id="circle1502" />
    <circle
       cx="17145.2"
       cy="37900"
       r="310"
       id="circle1504" />
    <circle
       cx="17145.2"
       cy="30900"
       r="310"
       id="circle1506" />
    <circle
       cx="67145.2"
       cy="65900"
       r="310"
       id="circle1508" />
    <circle
       cx="63145.2"
       cy="65900"
       r="310"
       id="circle1510" />
    <circle
       cx="59145.2"
       cy="65900"
       r="310"
       id="circle1512" />
    <circle
       cx="55145.2"
       cy="65900"
       r="310"
       id="circle1514" />
    <circle
       cx="51145.2"
       cy="65900"
       r="310"
       id="circle1516" />
    <circle
       cx="47145.2"
       cy="65900"
       r="310"
       id="circle1518" />
    <circle
       cx="43145.2"
       cy="65900"
       r="310"
       id="circle1520" />
    <circle
       cx="39145.2"
       cy="65900"
       r="310"
       id="circle1522" />
    <circle
       cx="35145.2"
       cy="65900"
       r="310"
       id="circle1524" />
    <circle
       cx="31145.2"
       cy="65900"
       r="310"
       id="circle1526" />
    <circle
       cx="27145.2"
       cy="65900"
       r="310"
       id="circle1528" />
    <circle
       cx="23145.2"
       cy="65900"
       r="310"
       id="circle1530" />
    <circle
       cx="19145.2"
       cy="65900"
       r="310"
       id="circle1532" />
    <circle
       cx="15145.2"
       cy="65900"
       r="310"
       id="circle1534" />
    <circle
       cx="11145.2"
       cy="65900"
       r="310"
       id="circle1536" />
    <circle
       cx="67145.2"
       cy="37900"
       r="310"
       id="circle1538" />
    <circle
       cx="63145.2"
       cy="37900"
       r="310"
       id="circle1540" />
    <circle
       cx="59145.2"
       cy="37900"
       r="310"
       id="circle1542" />
    <circle
       cx="55145.2"
       cy="37900"
       r="310"
       id="circle1544" />
    <circle
       cx="51145.2"
       cy="37900"
       r="310"
       id="circle1546" />
    <circle
       cx="47145.2"
       cy="37900"
       r="310"
       id="circle1548" />
    <circle
       cx="43145.2"
       cy="37900"
       r="310"
       id="circle1550" />
    <circle
       cx="39145.2"
       cy="37900"
       r="310"
       id="circle1552" />
    <circle
       cx="35145.2"
       cy="37900"
       r="310"
       id="circle1554" />
    <circle
       cx="31145.2"
       cy="37900"
       r="310"
       id="circle1556" />
    <circle
       cx="27145.2"
       cy="37900"
       r="310"
       id="circle1558" />
    <circle
       cx="23145.2"
       cy="37900"
       r="310"
       id="circle1560" />
    <circle
       cx="19145.2"
       cy="37900"
       r="310"
       id="circle1562" />
    <circle
       cx="15145.2"
       cy="37900"
       r="310"
       id="circle1564" />
    <circle
       cx="11145.2"
       cy="37900"
       r="310"
       id="circle1566" />
  </g>
  <g
     style="fill:#000000;fill-opacity:0;stroke:#000000;stroke-width:30;stroke-linecap:round;stroke-linejoin:round;stroke-opacity:1"
     id="g1818"
     transform="translate(2.4047592e-6)">
    <path
       d="m 70895,8400 v 3250"
       id="path1592"
       inkscape:connector-curvature="0" />
    <path
       d="m 70395,17150 h -250"
       id="path1594"
       inkscape:connector-curvature="0" />
    <path
       d="M 69645,16650 V 12650"
       id="path1596"
       inkscape:connector-curvature="0" />
    <path
       d="m 70395,12150 h -250"
       id="path1598"
       inkscape:connector-curvature="0" />
    <path
       d="m 70145.2,12150 a 500,500 0 0 0 -500,500"
       id="path1600"
       inkscape:connector-curvature="0" />
    <path
       d="m 69645.2,16650 a 500,500 0 0 0 500,500"
       id="path1602"
       inkscape:connector-curvature="0" />
    <path
       d="m 70895.2,17650 a 500,500 0 0 0 -500,-500"
       id="path1604"
       inkscape:connector-curvature="0" />
    <path
       d="m 70395.2,12150 a 500,500 0 0 0 500,-500"
       id="path1606"
       inkscape:connector-curvature="0" />
    <path
       d="m 69895,7400 v 0"
       id="path1608"
       inkscape:connector-curvature="0" />
    <path
       d="M 54395,7400 H 69895"
       id="path1610"
       inkscape:connector-curvature="0" />
    <path
       d="M 46395,7900 V 8900"
       id="path1612"
       inkscape:connector-curvature="0" />
    <path
       d="m 46895,9400 h 6500"
       id="path1614"
       inkscape:connector-curvature="0" />
    <path
       d="M 53895,7900 V 8900"
       id="path1616"
       inkscape:connector-curvature="0" />
    <path
       d="m 54395.2,7400 a 500,500 0 0 0 -500,500"
       id="path1618"
       inkscape:connector-curvature="0" />
    <path
       d="m 53395.2,9400 a 500,500 0 0 0 500,-500"
       id="path1620"
       inkscape:connector-curvature="0" />
    <path
       d="m 46395.2,8900 a 500,500 0 0 0 500,500"
       id="path1622"
       inkscape:connector-curvature="0" />
    <path
       d="m 46395.2,7900 a 500,500 0 0 0 -500,-500"
       id="path1624"
       inkscape:connector-curvature="0" />
    <path
       d="M 7645,24400 H 7395"
       id="path1626"
       inkscape:connector-curvature="0" />
    <path
       d="m 70645,24400 h 250"
       id="path1628"
       inkscape:connector-curvature="0" />
    <path
       d="M 40145,80400 H 38145"
       id="path1630"
       inkscape:connector-curvature="0" />
    <path
       d="m 24145.2,80400 a 500,500 0 0 0 0,-1000"
       id="path1632"
       inkscape:connector-curvature="0" />
    <path
       d="m 38145,79400 h 2000"
       id="path1634"
       inkscape:connector-curvature="0" />
    <path
       d="m 70895.2,79400 a 250,250 0 0 0 250,-250"
       id="path1636"
       inkscape:connector-curvature="0" />
    <path
       d="M 52145,80400 H 42145"
       id="path1638"
       inkscape:connector-curvature="0" />
    <path
       d="M 54145,80400 H 68895"
       id="path1640"
       inkscape:connector-curvature="0" />
    <path
       d="m 68895.2,80400 a 500,500 0 0 0 0,-1000"
       id="path1642"
       inkscape:connector-curvature="0" />
    <path
       d="m 7395.24,80400 a 250,250 0 0 0 -250,250"
       id="path1644"
       inkscape:connector-curvature="0" />
    <path
       d="m 26145.2,79400 a 500,500 0 0 0 0,1000"
       id="path1646"
       inkscape:connector-curvature="0" />
    <path
       d="M 9395,80400 H 24145"
       id="path1648"
       inkscape:connector-curvature="0" />
    <path
       d="m 9395.24,79400 a 500,500 0 0 0 0,1000"
       id="path1650"
       inkscape:connector-curvature="0" />
    <path
       d="m 54145.2,79400 a 500,500 0 0 0 0,1000"
       id="path1652"
       inkscape:connector-curvature="0" />
    <path
       d="m 7395.24,80400 a 500,500 0 0 0 0,-1000"
       id="path1654"
       inkscape:connector-curvature="0" />
    <path
       d="M 36145,80400 H 26145"
       id="path1656"
       inkscape:connector-curvature="0" />
    <path
       d="M 9395,79400 H 24145"
       id="path1658"
       inkscape:connector-curvature="0" />
    <path
       d="M 68895,79400 H 54145"
       id="path1660"
       inkscape:connector-curvature="0" />
    <path
       d="M 42145,79400 H 52145"
       id="path1662"
       inkscape:connector-curvature="0" />
    <path
       d="m 40145.2,80400 a 500,500 0 0 0 0,-1000"
       id="path1664"
       inkscape:connector-curvature="0" />
    <path
       d="m 38145.2,79400 a 500,500 0 0 0 0,1000"
       id="path1666"
       inkscape:connector-curvature="0" />
    <path
       d="m 36145.2,80400 a 500,500 0 0 0 0,-1000"
       id="path1668"
       inkscape:connector-curvature="0" />
    <path
       d="m 71145.2,80650 a 250,250 0 0 0 -250,-250"
       id="path1670"
       inkscape:connector-curvature="0" />
    <path
       d="m 42145.2,79400 a 500,500 0 0 0 0,1000"
       id="path1672"
       inkscape:connector-curvature="0" />
    <path
       d="m 52145.2,80400 a 500,500 0 0 0 0,-1000"
       id="path1674"
       inkscape:connector-curvature="0" />
    <path
       d="m 70895.2,79400 a 500,500 0 0 0 0,1000"
       id="path1676"
       inkscape:connector-curvature="0" />
    <path
       d="m 7145.24,79150 a 250,250 0 0 0 250,250"
       id="path1678"
       inkscape:connector-curvature="0" />
    <path
       d="M 26145,79400 H 36145"
       id="path1680"
       inkscape:connector-curvature="0" />
    <path
       d="m 68645.2,24400 a 500,500 0 0 0 0,-1000"
       id="path1682"
       inkscape:connector-curvature="0" />
    <path
       d="m 70645.2,23400 a 500,500 0 0 0 0,1000"
       id="path1684"
       inkscape:connector-curvature="0" />
    <path
       d="m 9645.24,23400 a 500,500 0 0 0 0,1000"
       id="path1686"
       inkscape:connector-curvature="0" />
    <path
       d="m 7645.24,24400 a 500,500 0 0 0 0,-1000"
       id="path1688"
       inkscape:connector-curvature="0" />
    <path
       d="M 28395,24400 H 25895"
       id="path1690"
       inkscape:connector-curvature="0" />
    <path
       d="m 25895,23400 h 2500"
       id="path1692"
       inkscape:connector-curvature="0" />
    <path
       d="M 32395,24400 H 29895"
       id="path1694"
       inkscape:connector-curvature="0" />
    <path
       d="m 29895,23400 h 2500"
       id="path1696"
       inkscape:connector-curvature="0" />
    <path
       d="M 36395,24400 H 33895"
       id="path1698"
       inkscape:connector-curvature="0" />
    <path
       d="m 33895,23400 h 2500"
       id="path1700"
       inkscape:connector-curvature="0" />
    <path
       d="M 40395,24400 H 37895"
       id="path1702"
       inkscape:connector-curvature="0" />
    <path
       d="m 37895,23400 h 2500"
       id="path1704"
       inkscape:connector-curvature="0" />
    <path
       d="M 44395,24400 H 41895"
       id="path1706"
       inkscape:connector-curvature="0" />
    <path
       d="m 41895,23400 h 2500"
       id="path1708"
       inkscape:connector-curvature="0" />
    <path
       d="m 45895,24400 h 2500"
       id="path1710"
       inkscape:connector-curvature="0" />
    <path
       d="M 48395,23400 H 45895"
       id="path1712"
       inkscape:connector-curvature="0" />
    <path
       d="M 52395,24400 H 49895"
       id="path1714"
       inkscape:connector-curvature="0" />
    <path
       d="m 49895,23400 h 2500"
       id="path1716"
       inkscape:connector-curvature="0" />
    <path
       d="m 70645,24400 v 0"
       id="path1718"
       inkscape:connector-curvature="0" />
    <path
       d="M 53895,24400 H 68645"
       id="path1720"
       inkscape:connector-curvature="0" />
    <path
       d="m 53895,23400 v 0"
       id="path1722"
       inkscape:connector-curvature="0" />
    <path
       d="M 68645,23400 H 53895"
       id="path1724"
       inkscape:connector-curvature="0" />
    <path
       d="m 70645.2,23400 a 250,250 0 0 0 250,-250"
       id="path1726"
       inkscape:connector-curvature="0" />
    <path
       d="m 71145.2,24650 a 250,250 0 0 0 -250,-250"
       id="path1728"
       inkscape:connector-curvature="0" />
    <path
       d="m 53895.2,23400 a 500,500 0 0 0 0,1000"
       id="path1730"
       inkscape:connector-curvature="0" />
    <path
       d="m 52395.2,24400 a 500,500 0 0 0 0,-1000"
       id="path1732"
       inkscape:connector-curvature="0" />
    <path
       d="m 49895.2,23400 a 500,500 0 0 0 0,1000"
       id="path1734"
       inkscape:connector-curvature="0" />
    <path
       d="m 48395.2,24400 a 500,500 0 0 0 0,-1000"
       id="path1736"
       inkscape:connector-curvature="0" />
    <path
       d="m 45895.2,23400 a 500,500 0 0 0 0,1000"
       id="path1738"
       inkscape:connector-curvature="0" />
    <path
       d="m 44395.2,24400 a 500,500 0 0 0 0,-1000"
       id="path1740"
       inkscape:connector-curvature="0" />
    <path
       d="m 41895.2,23400 a 500,500 0 0 0 0,1000"
       id="path1742"
       inkscape:connector-curvature="0" />
    <path
       d="m 40395.2,24400 a 500,500 0 0 0 0,-1000"
       id="path1744"
       inkscape:connector-curvature="0" />
    <path
       d="m 37895.2,23400 a 500,500 0 0 0 0,1000"
       id="path1746"
       inkscape:connector-curvature="0" />
    <path
       d="m 36395.2,24400 a 500,500 0 0 0 0,-1000"
       id="path1748"
       inkscape:connector-curvature="0" />
    <path
       d="m 33895.2,23400 a 500,500 0 0 0 0,1000"
       id="path1750"
       inkscape:connector-curvature="0" />
    <path
       d="m 32395.2,24400 a 500,500 0 0 0 0,-1000"
       id="path1752"
       inkscape:connector-curvature="0" />
    <path
       d="m 29895.2,23400 a 500,500 0 0 0 0,1000"
       id="path1754"
       inkscape:connector-curvature="0" />
    <path
       d="m 28395.2,24400 a 500,500 0 0 0 0,-1000"
       id="path1756"
       inkscape:connector-curvature="0" />
    <path
       d="m 25895.2,23400 a 500,500 0 0 0 0,1000"
       id="path1758"
       inkscape:connector-curvature="0" />
    <path
       d="m 24395.2,24400 a 500,500 0 0 0 0,-1000"
       id="path1760"
       inkscape:connector-curvature="0" />
    <path
       d="M 9645,24400 H 24395"
       id="path1762"
       inkscape:connector-curvature="0" />
    <path
       d="M 9645,23400 H 24395"
       id="path1764"
       inkscape:connector-curvature="0" />
    <path
       d="m 7395.24,24400 a 250,250 0 0 0 -250,250"
       id="path1766"
       inkscape:connector-curvature="0" />
    <path
       d="m 7395.24,23150 a 250,250 0 0 0 250,250"
       id="path1768"
       inkscape:connector-curvature="0" />
    <path
       d="m 70895.2,8400 a 1000,1000 0 0 0 -1000,-1000"
       id="path1770"
       inkscape:connector-curvature="0" />
    <path
       d="m 8395.24,7400 a 1000,1000 0 0 0 -1000,1000"
       id="path1772"
       inkscape:connector-curvature="0" />
    <path
       d="m 7145.24,82400 a 1500,1500 0 0 0 1500,1500"
       id="path1774"
       inkscape:connector-curvature="0" />
    <path
       d="m 69645.2,83900 a 1500,1500 0 0 0 1500,-1500"
       id="path1776"
       inkscape:connector-curvature="0" />
    <path
       d="M 71145,82400 V 80650"
       id="path1778"
       inkscape:connector-curvature="0" />
    <path
       d="m 67895,76900 v 0"
       id="path1780"
       inkscape:connector-curvature="0" />
    <path
       d="M 8645,83900 H 69645"
       id="path1782"
       inkscape:connector-curvature="0" />
    <path
       d="m 7145,80650 v 1750"
       id="path1786"
       inkscape:connector-curvature="0" />
    <path
       d="m 70895,17650 v 5500"
       id="path1788"
       inkscape:connector-curvature="0" />
    <path
       d="M 8395,7400 H 45895"
       id="path1790"
       inkscape:connector-curvature="0" />
    <path
       d="M 7395,23150 V 8400"
       id="path1792"
       inkscape:connector-curvature="0" />
    <path
       d="m 7145,73400 v 5750"
       id="path1794"
       inkscape:connector-curvature="0" />
    <path
       d="m 7145,72400 v 0"
       id="path1796"
       inkscape:connector-curvature="0" />
    <path
       d="M 7145,31400 V 72400"
       id="path1798"
       inkscape:connector-curvature="0" />
    <path
       d="m 71145,73400 v 5750"
       id="path1800"
       inkscape:connector-curvature="0" />
    <path
       d="m 71145,72400 v 0"
       id="path1802"
       inkscape:connector-curvature="0" />
    <path
       d="M 71145,31400 V 72400"
       id="path1804"
       inkscape:connector-curvature="0" />
    <path
       d="m 71145.2,30400 a 500,500 0 0 0 0,1000"
       id="path1806"
       inkscape:connector-curvature="0" />
    <path
       d="m 71145.2,72400 a 500,500 0 0 0 0,1000"
       id="path1808"
       inkscape:connector-curvature="0" />
    <path
       d="m 7145.24,73400 a 500,500 0 0 0 0,-1000"
       id="path1810"
       inkscape:connector-curvature="0" />
    <path
       d="m 7145.24,31400 a 500,500 0 0 0 0,-1000"
       id="path1812"
       inkscape:connector-curvature="0" />
    <path
       d="M 7145,30400 V 24650"
       id="path1814"
       inkscape:connector-curvature="0" />
    <path
       d="m 71145,24650 v 5750"
       id="path1816"
       inkscape:connector-curvature="0" />
  </g>
</svg>
