<?xml version="1.0" encoding="UTF-8" standalone="no"?>
<!-- Created with Inkscape (http://www.inkscape.org/) -->

<svg
   xmlns:dc="http://purl.org/dc/elements/1.1/"
   xmlns:cc="http://creativecommons.org/ns#"
   xmlns:rdf="http://www.w3.org/1999/02/22-rdf-syntax-ns#"
   xmlns:svg="http://www.w3.org/2000/svg"
   xmlns="http://www.w3.org/2000/svg"
   xmlns:sodipodi="http://sodipodi.sourceforge.net/DTD/sodipodi-0.dtd"
   xmlns:inkscape="http://www.inkscape.org/namespaces/inkscape"
   version="1.1"
   id="svg2"
   xml:space="preserve"
   width="875.48987"
   height="874.09998"
   viewBox="0 0 875.48989 874.1"
   sodipodi:docname="backplate_jr_std2.5.svg"
   inkscape:version="0.92.2 (unknown)"><metadata
     id="metadata8"><rdf:RDF><cc:Work
         rdf:about=""><dc:format>image/svg+xml</dc:format><dc:type
           rdf:resource="http://purl.org/dc/dcmitype/StillImage" /><dc:title></dc:title></cc:Work></rdf:RDF></metadata><defs
     id="defs6" /><sodipodi:namedview
     pagecolor="#ffffff"
     bordercolor="#666666"
     borderopacity="1"
     objecttolerance="10"
     gridtolerance="10"
     guidetolerance="10"
     inkscape:pageopacity="0"
     inkscape:pageshadow="2"
     inkscape:window-width="1366"
     inkscape:window-height="744"
     id="namedview4"
     showgrid="false"
     fit-margin-top="0"
     fit-margin-left="0"
     fit-margin-right="0"
     fit-margin-bottom="0"
     inkscape:zoom="0.62641593"
     inkscape:cx="494.52135"
     inkscape:cy="574.57102"
     inkscape:window-x="0"
     inkscape:window-y="24"
     inkscape:window-maximized="1"
     inkscape:current-layer="g10"
     inkscape:measure-start="0,0"
     inkscape:measure-end="0,0" /><g
     id="g10"
     inkscape:groupmode="layer"
     inkscape:label="backplate_jr_std2.5"
     transform="matrix(1.3333333,0,0,-1.3333333,-95.055073,969.84998)"><g
       id="g16"
       transform="translate(72,72)"
       style="stroke-width:0.375;stroke-miterlimit:4;stroke-dasharray:none"><path
         d="m 15.05197,10.8 c 0,2.3483 -1.90367,4.25197 -4.25197,4.25197 -2.348297,0 -4.251969,-1.90367 -4.251969,-4.25197 0,-2.348297 1.903672,-4.251969 4.251969,-4.251969 2.3483,0 4.25197,1.903672 4.25197,4.251969"
         style="fill:none;stroke:#ff0000;stroke-width:0.375;stroke-linecap:butt;stroke-linejoin:miter;stroke-miterlimit:4;stroke-dasharray:none;stroke-opacity:1"
         id="path18"
         inkscape:connector-curvature="0" /><path
         d="m 15.05197,644.4 c 0,2.3483 -1.90367,4.252 -4.25197,4.252 -2.348297,0 -4.251969,-1.9037 -4.251969,-4.252 0,-2.3483 1.903672,-4.252 4.251969,-4.252 2.3483,0 4.25197,1.9037 4.25197,4.252"
         style="fill:none;stroke:#ff0000;stroke-width:0.375;stroke-linecap:butt;stroke-linejoin:miter;stroke-miterlimit:4;stroke-dasharray:none;stroke-opacity:1"
         id="path20"
         inkscape:connector-curvature="0" /><path
         d="m 648.652,10.8 c 0,2.3483 -1.9037,4.25197 -4.252,4.25197 -2.3483,0 -4.252,-1.90367 -4.252,-4.25197 0,-2.348297 1.9037,-4.251969 4.252,-4.251969 2.3483,0 4.252,1.903672 4.252,4.251969"
         style="fill:none;stroke:#ff0000;stroke-width:0.375;stroke-linecap:butt;stroke-linejoin:miter;stroke-miterlimit:4;stroke-dasharray:none;stroke-opacity:1"
         id="path22"
         inkscape:connector-curvature="0" /><path
         d="m 648.652,644.4 c 0,2.3483 -1.9037,4.252 -4.252,4.252 -2.3483,0 -4.252,-1.9037 -4.252,-4.252 0,-2.3483 1.9037,-4.252 4.252,-4.252 2.3483,0 4.252,1.9037 4.252,4.252"
         style="fill:none;stroke:#ff0000;stroke-width:0.375;stroke-linecap:butt;stroke-linejoin:miter;stroke-miterlimit:4;stroke-dasharray:none;stroke-opacity:1"
         id="path24"
         inkscape:connector-curvature="0" /><path
         d="m 26.92913,22.67717 c 0,2.34829 -1.90367,4.25196 -4.25196,4.25196 -2.3483,0 -4.25197,-1.90367 -4.25197,-4.25196 0,-2.3483 1.90367,-4.25197 4.25197,-4.25197 2.34829,0 4.25196,1.90367 4.25196,4.25197"
         style="fill:none;stroke:#ff0000;stroke-width:0.375;stroke-linecap:butt;stroke-linejoin:miter;stroke-miterlimit:4;stroke-dasharray:none;stroke-opacity:1"
         id="path26"
         inkscape:connector-curvature="0" /><path
         d="m 26.92913,632.5228 c 0,2.3483 -1.90367,4.252 -4.25196,4.252 -2.3483,0 -4.25197,-1.9037 -4.25197,-4.252 0,-2.3483 1.90367,-4.2519 4.25197,-4.2519 2.34829,0 4.25196,1.9036 4.25196,4.2519"
         style="fill:none;stroke:#ff0000;stroke-width:0.375;stroke-linecap:butt;stroke-linejoin:miter;stroke-miterlimit:4;stroke-dasharray:none;stroke-opacity:1"
         id="path28"
         inkscape:connector-curvature="0" /><path
         d="m 636.7748,22.67717 c 0,2.34829 -1.9037,4.25196 -4.252,4.25196 -2.3483,0 -4.2519,-1.90367 -4.2519,-4.25196 0,-2.3483 1.9036,-4.25197 4.2519,-4.25197 2.3483,0 4.252,1.90367 4.252,4.25197"
         style="fill:none;stroke:#ff0000;stroke-width:0.375;stroke-linecap:butt;stroke-linejoin:miter;stroke-miterlimit:4;stroke-dasharray:none;stroke-opacity:1"
         id="path30"
         inkscape:connector-curvature="0" /><path
         d="m 636.7748,632.5228 c 0,2.3483 -1.9037,4.252 -4.252,4.252 -2.3483,0 -4.2519,-1.9037 -4.2519,-4.252 0,-2.3483 1.9036,-4.2519 4.2519,-4.2519 2.3483,0 4.252,1.9036 4.252,4.2519"
         style="fill:none;stroke:#ff0000;stroke-width:0.375;stroke-linecap:butt;stroke-linejoin:miter;stroke-miterlimit:4;stroke-dasharray:none;stroke-opacity:1"
         id="path32"
         inkscape:connector-curvature="0" /><path
         d="M 0,0 H 655.2 V 655.2 H 0 V 0 m 0,43.2 h 7.2 v 0 l 0.125657,-0.0011 0.125619,-0.0033 0.125543,-0.0055 0.125428,-0.0077 0.125274,-0.0099 0.125084,-0.01204 0.124854,-0.01423 0.124587,-0.0164 0.124282,-0.01857 0.123939,-0.02074 0.123558,-0.0229 0.123139,-0.02506 0.122684,-0.0272 0.12219,-0.02933 0.121659,-0.03146 0.121092,-0.03359 0.120487,-0.03569 0.119846,-0.03778 0.119169,-0.03988 0.118454,-0.04194 0.117704,-0.04401 0.116918,-0.04606 0.116093,-0.04809 0.11524,-0.0501 0.11435,-0.05211 0.11342,-0.0541 0.11246,-0.05607 0.11147,-0.05803 0.11043,-0.05996 0.10937,-0.06188 0.10827,-0.06378 0.10715,-0.06565 0.10598,-0.06752 0.10479,-0.06936 0.10356,-0.07118 0.1023,-0.07297 0.10102,-0.07474 0.09969,-0.0765 0.09835,-0.07823 0.09696,-0.07993 0.09556,-0.08161 0.09411,-0.08327 0.09265,-0.08489 0.09115,-0.0865 0.08963,-0.08808 0.08808,-0.08963 0.0865,-0.09115 0.08489,-0.09265 0.08327,-0.09411 0.08161,-0.09556 0.07993,-0.09696 0.07823,-0.09835 0.0765,-0.09969 0.07474,-0.10102 0.07297,-0.1023 0.07118,-0.10356 0.06936,-0.10479 0.06752,-0.10598 0.06565,-0.10715 0.06378,-0.10827 0.06188,-0.10937 0.05996,-0.11043 0.05803,-0.11147 0.05607,-0.11246 0.0541,-0.11342 0.05211,-0.11435 0.0501,-0.11524 0.04809,-0.11609 0.04606,-0.11692 0.04401,-0.1177 0.04194,-0.11846 0.03988,-0.11917 0.03778,-0.11984 0.03569,-0.12049 0.03359,-0.12109 0.03146,-0.12166 0.02933,-0.12219 0.0272,-0.12269 0.02506,-0.12314 0.0229,-0.12355 0.02074,-0.12394 0.01857,-0.12428 0.0164,-0.12459 0.01423,-0.12486 0.01204,-0.12508 0.0099,-0.12527 0.0077,-0.12543 0.0055,-0.12554 L 14.399,36.12556 14.4,36 14.3989,35.87434 14.3956,35.74872 14.3901,35.62318 14.3824,35.49775 14.3725,35.37248 14.36046,35.2474 14.34623,35.12254 14.32983,34.99795 14.31126,34.87367 14.29052,34.74973 14.26762,34.62618 14.24256,34.50304 14.21536,34.38035 14.18603,34.25816 14.15457,34.1365 14.12098,34.01541 14.08529,33.89492 14.04751,33.77508 14.00763,33.65591 13.96569,33.53745 13.92168,33.41975 13.87562,33.30283 13.82753,33.18674 13.77743,33.0715 13.72532,32.95715 13.67122,32.84373 13.61525,32.73127 13.55722,32.6198 13.49726,32.50937 13.43538,32.4 13.3716,32.29173 13.30595,32.18458 13.23843,32.0786 l -0.06936,-0.10479 -0.07118,-0.10356 -0.07297,-0.1023 -0.07474,-0.10102 -0.0765,-0.09969 -0.07823,-0.09835 -0.07993,-0.09696 -0.08161,-0.09556 -0.08327,-0.09411 -0.08489,-0.09265 -0.0865,-0.09115 -0.08808,-0.08963 -0.08963,-0.08808 -0.09115,-0.0865 -0.09265,-0.08489 -0.09411,-0.08327 -0.09556,-0.08161 -0.09696,-0.07993 -0.09835,-0.07823 -0.09969,-0.0765 -0.10102,-0.07474 -0.1023,-0.07297 L 11.22619,30.03093 11.1214,29.96157 11.01542,29.89405 10.90827,29.8284 10.8,29.76462 10.69063,29.70274 10.5802,29.64278 10.46873,29.58475 10.35627,29.52868 10.24285,29.47458 10.1285,29.42247 10.01326,29.37237 9.897167,29.32428 9.780249,29.27822 9.662545,29.23421 9.544091,29.19227 9.424922,29.15239 9.305076,29.11461 9.184589,29.07892 9.063497,29.04533 8.941838,29.01387 8.819648,28.98454 8.696964,28.95734 8.573825,28.93228 8.450267,28.90938 8.326328,28.88864 8.202046,28.87007 8.077459,28.85367 7.952605,28.83944 7.827521,28.8274 7.702247,28.81754 7.576819,28.80987 7.451276,28.80439 7.325657,28.8011 0,28.8"
         style="fill:none;stroke:#ff0000;stroke-width:0.375;stroke-linecap:butt;stroke-linejoin:miter;stroke-miterlimit:4;stroke-dasharray:none;stroke-opacity:1"
         id="path34"
         inkscape:connector-curvature="0" /><path
         d="m 63,591.5885 v 0 l -0.27069,-0.1595 -0.26786,-0.1641 -0.26495,-0.1688 -0.26197,-0.1734 -0.25891,-0.178 -0.25575,-0.1824 -0.25254,-0.1869 -0.24924,-0.1912 -0.24586,-0.1956 -0.24241,-0.1998 -0.23888,-0.204 -0.23529,-0.2082 -0.23162,-0.2122 -0.22788,-0.2163 -0.22407,-0.2202 -0.2202,-0.224 -0.21625,-0.2279 -0.21224,-0.2316 -0.20816,-0.2353 -0.20403,-0.2389 -0.19983,-0.2424 -0.19556,-0.2459 -0.19125,-0.2492 -0.18687,-0.2526 -0.18243,-0.2557 -0.17794,-0.2589 -0.17339,-0.262 -0.1688,-0.265 -0.16414,-0.2678 -0.15945,-0.2707 -0.15469,-0.2734 -0.14991,-0.2761 -0.14506,-0.2787 -0.14017,-0.2811 -0.13525,-0.2836 -0.13028,-0.2858 -0.12527,-0.2881 -0.12022,-0.2903 -0.11514,-0.2923 -0.11002,-0.2942 -0.10486,-0.2962 -0.09969,-0.2979 -0.09447,-0.2996 -0.08922,-0.3012 -0.08395,-0.3028 -0.07866,-0.3041 -0.07334,-0.3055 -0.068,-0.3067 -0.06263,-0.3078 -0.05725,-0.3089 -0.05185,-0.3099 -0.04644,-0.3107 -0.041,-0.3115 -0.03556,-0.3121 -0.03011,-0.3127 -0.02465,-0.3132 -0.01918,-0.3136 -0.0137,-0.3138 -0.0082,-0.3141 L 54,576 l 0.0027,-0.3141 0.0082,-0.3141 0.0137,-0.3138 0.01918,-0.3136 0.02465,-0.3132 0.03011,-0.3127 0.03556,-0.3121 0.041,-0.3115 0.04644,-0.3107 0.05185,-0.3099 0.05725,-0.3089 0.06263,-0.3078 0.068,-0.3067 0.07334,-0.3055 0.07866,-0.3041 0.08395,-0.3028 0.08922,-0.3012 0.09447,-0.2996 0.09969,-0.2979 0.10486,-0.2962 0.11002,-0.2942 0.11514,-0.2923 0.12022,-0.2903 0.12527,-0.2881 0.13028,-0.2858 0.13525,-0.2836 0.14017,-0.2811 0.14506,-0.2787 0.14991,-0.2761 0.15469,-0.2734 0.15945,-0.2707 0.16414,-0.2678 0.1688,-0.265 0.17339,-0.262 0.17794,-0.2589 0.18243,-0.2557 0.18687,-0.2526 0.19125,-0.2492 0.19556,-0.2459 0.19983,-0.2424 0.20403,-0.2389 0.20816,-0.2353 0.21224,-0.2316 0.21625,-0.2279 0.2202,-0.224 0.22407,-0.2202 0.22788,-0.2163 0.23162,-0.2122 0.23529,-0.2082 0.23888,-0.204 0.24241,-0.1998 0.24586,-0.1956 0.24924,-0.1912 0.25254,-0.1869 0.25575,-0.1824 0.25891,-0.178 0.26197,-0.1734 0.26495,-0.1688 0.26786,-0.1641 0.27069,-0.1595 0.27343,-0.1547 0.27608,-0.1499 0.27866,-0.145 0.28115,-0.1402 0.28355,-0.1352 0.28587,-0.1303 0.2881,-0.1253 0.29024,-0.1202 0.2923,-0.1151 0.29426,-0.1101 0.29613,-0.1048 0.29792,-0.0997 0.29962,-0.0945 0.30122,-0.0892 0.30273,-0.084 0.30415,-0.0786 0.30547,-0.0734 0.30671,-0.068 0.30785,-0.0626 0.30889,-0.0572 0.30985,-0.0519 0.3107,-0.0464 0.31147,-0.041 0.31214,-0.0356 0.31271,-0.0301 0.31318,-0.0247 0.31357,-0.0191 0.31386,-0.0137 0.31405,-0.008 L 72,558 l 0.31414,0.003 0.31405,0.008 0.31386,0.0137 0.31357,0.0191 0.31318,0.0247 0.31271,0.0301 0.31214,0.0356 0.31147,0.041 0.3107,0.0464 0.30985,0.0519 0.30889,0.0572 0.30785,0.0626 0.30671,0.068 0.30547,0.0734 0.30415,0.0786 0.30273,0.084 0.30122,0.0892 0.29962,0.0945 0.29792,0.0997 0.29613,0.1048 0.29426,0.1101 0.2923,0.1151 0.29024,0.1202 0.2881,0.1253 0.28587,0.1303 0.28355,0.1352 0.28115,0.1402 0.27866,0.145 0.27608,0.1499 0.27343,0.1547 0.27069,0.1595 0.26786,0.1641 0.26495,0.1688 0.26197,0.1734 0.25891,0.178 0.25575,0.1824 0.25254,0.1869 0.24924,0.1912 0.24586,0.1956 0.24241,0.1998 0.23888,0.204 0.23529,0.2082 0.23162,0.2122 0.22788,0.2163 0.22407,0.2202 0.2202,0.224 0.21625,0.2279 0.21224,0.2316 0.20816,0.2353 0.20403,0.2389 0.19983,0.2424 0.19556,0.2459 0.19125,0.2492 0.18687,0.2526 0.18243,0.2557 0.17794,0.2589 0.17339,0.262 0.1688,0.265 0.16414,0.2678 0.15945,0.2707 0.15469,0.2734 0.14991,0.2761 0.14506,0.2787 0.14017,0.2811 0.13525,0.2836 0.13028,0.2858 0.12527,0.2881 0.12022,0.2903 0.11514,0.2923 0.11002,0.2942 0.10486,0.2962 0.09969,0.2979 0.09447,0.2996 0.08922,0.3012 0.08395,0.3028 0.07866,0.3041 0.07334,0.3055 0.068,0.3067 0.06263,0.3078 0.05725,0.3089 0.05185,0.3099 0.04644,0.3107 0.041,0.3115 0.03556,0.3121 0.03011,0.3127 0.02465,0.3132 0.01918,0.3136 0.0137,0.3138 0.0082,0.3141 L 90,576 l -0.0027,0.3141 -0.0082,0.3141 -0.0137,0.3138 -0.01918,0.3136 -0.02465,0.3132 -0.03011,0.3127 -0.03556,0.3121 -0.041,0.3115 -0.04644,0.3107 -0.05185,0.3099 -0.05725,0.3089 -0.06263,0.3078 -0.068,0.3067 -0.07334,0.3055 -0.07866,0.3041 -0.08395,0.3028 -0.08922,0.3012 -0.09447,0.2996 -0.09969,0.2979 -0.10486,0.2962 -0.11002,0.2942 -0.11514,0.2923 -0.12022,0.2903 -0.12527,0.2881 -0.13028,0.2858 -0.13525,0.2836 -0.14017,0.2811 -0.14506,0.2787 -0.14991,0.2761 -0.15469,0.2734 -0.15945,0.2707 -0.16414,0.2678 -0.1688,0.265 -0.17339,0.262 -0.17794,0.2589 -0.18243,0.2557 -0.18687,0.2526 -0.19125,0.2492 -0.19556,0.2459 -0.19983,0.2424 -0.20403,0.2389 -0.20816,0.2353 -0.21224,0.2316 -0.21625,0.2279 -0.2202,0.224 -0.22407,0.2202 -0.22788,0.2163 -0.23162,0.2122 -0.23529,0.2082 -0.23888,0.204 -0.24241,0.1998 -0.24586,0.1956 -0.24924,0.1912 -0.25254,0.1869 -0.25575,0.1824 -0.25891,0.178 -0.26197,0.1734 -0.26495,0.1688 -0.26786,0.1641 L 81,591.5885 V 603 l -0.0014,0.1571 -0.0041,0.157 -0.0069,0.1569 -0.0096,0.1568 -0.01233,0.1566 -0.01505,0.1564 -0.01778,0.156 -0.02051,0.1558 -0.02321,0.1553 -0.02593,0.1549 -0.02863,0.1545 -0.03131,0.1539 -0.034,0.1534 -0.03667,0.1527 -0.03933,0.1521 -0.04197,0.1513 -0.04462,0.1506 -0.04723,0.1499 -0.04984,0.1489 -0.05244,0.1481 -0.05501,0.1471 -0.05757,0.1462 -0.06011,0.1451 -0.06263,0.144 -0.06514,0.143 -0.06762,0.1417 -0.07009,0.1406 -0.07253,0.1393 -0.07495,0.1381 -0.07735,0.1367 -0.07972,0.1353 -0.08208,0.134 -0.08439,0.1325 -0.0867,0.1309 -0.08897,0.1295 -0.09122,0.1279 -0.09343,0.1262 -0.09562,0.1247 -0.09779,0.1229 -0.09991,0.1212 -0.10201,0.1194 -0.10409,0.1177 -0.10612,0.1158 -0.10812,0.1139 -0.1101,0.1121 -0.11203,0.1101 -0.11394,0.1081 -0.11581,0.1061 -0.11765,0.1041 -0.11944,0.102 -0.12121,0.0999 -0.12293,0.0978 -0.12461,0.0956 -0.12627,0.0935 -0.12788,0.0912 -0.12945,0.0889 -0.13099,0.0867 -0.13248,0.0844 -0.13393,0.0821 -0.13534,0.0797 -0.13671,0.0774 -0.13805,0.0749 -0.13933,0.0726 -0.14057,0.07 -0.14178,0.0677 -0.14293,0.0651 -0.14405,0.0626 -0.14512,0.0602 -0.14615,0.0575 -0.14713,0.055 -0.14807,0.0525 -0.14896,0.0498 -0.1498,0.0472 -0.15061,0.0447 -0.15137,0.0419 -0.15207,0.0394 -0.15274,0.0366 -0.15335,0.034 -0.15393,0.0313 -0.15445,0.0287 -0.15492,0.0259 -0.15535,0.0232 -0.15574,0.0205 -0.15606,0.0178 -0.15636,0.0151 -0.15659,0.0123 -0.15679,0.01 -0.15692,0.007 -0.15703,0.004 L 72,612 l -0.15707,-10e-4 -0.15703,-0.004 -0.15692,-0.007 -0.15679,-0.01 -0.15659,-0.0123 -0.15636,-0.0151 -0.15606,-0.0178 -0.15574,-0.0205 -0.15535,-0.0232 -0.15492,-0.0259 -0.15445,-0.0287 -0.15393,-0.0313 -0.15335,-0.034 -0.15274,-0.0366 -0.15207,-0.0394 -0.15137,-0.0419 -0.15061,-0.0447 -0.1498,-0.0472 -0.14896,-0.0498 -0.14807,-0.0525 -0.14713,-0.055 -0.14615,-0.0575 -0.14512,-0.0602 -0.14405,-0.0626 -0.14293,-0.0651 -0.14178,-0.0677 -0.14057,-0.07 -0.13933,-0.0726 -0.13805,-0.0749 -0.13671,-0.0774 -0.13534,-0.0797 -0.13393,-0.0821 -0.13248,-0.0844 -0.13099,-0.0867 -0.12945,-0.0889 -0.12788,-0.0912 -0.12627,-0.0935 -0.12461,-0.0956 -0.12293,-0.0978 -0.12121,-0.0999 -0.11944,-0.102 -0.11765,-0.1041 -0.11581,-0.1061 -0.11394,-0.1081 -0.11203,-0.1101 -0.1101,-0.1121 -0.10812,-0.1139 -0.10612,-0.1158 -0.10409,-0.1177 -0.10201,-0.1194 -0.09991,-0.1212 -0.09779,-0.1229 -0.09562,-0.1247 -0.09343,-0.1262 -0.09122,-0.1279 -0.08897,-0.1295 -0.0867,-0.1309 -0.08439,-0.1325 -0.08208,-0.134 -0.07972,-0.1353 -0.07735,-0.1367 -0.07495,-0.1381 -0.07253,-0.1393 -0.07009,-0.1406 -0.06762,-0.1417 -0.06514,-0.143 -0.06263,-0.144 -0.06011,-0.1451 -0.05757,-0.1462 -0.05501,-0.1471 -0.05244,-0.1481 -0.04984,-0.1489 -0.04723,-0.1499 -0.04462,-0.1506 -0.04197,-0.1513 -0.03933,-0.1521 -0.03667,-0.1527 -0.034,-0.1534 -0.03131,-0.1539 -0.02863,-0.1545 -0.02593,-0.1549 -0.02321,-0.1553 -0.02051,-0.1558 -0.01778,-0.156 -0.01505,-0.1564 -0.01233,-0.1566 -0.0096,-0.1568 -0.0069,-0.1569 -0.0041,-0.157 L 63,591.5885"
         style="fill:none;stroke:#ff0000;stroke-width:0.375;stroke-linecap:butt;stroke-linejoin:miter;stroke-miterlimit:4;stroke-dasharray:none;stroke-opacity:1"
         id="path36"
         inkscape:connector-curvature="0" /><path
         d="m 574.2,591.5885 v 0 l -0.2707,-0.1595 -0.2678,-0.1641 -0.265,-0.1688 -0.262,-0.1734 -0.2589,-0.178 -0.2557,-0.1824 -0.2526,-0.1869 -0.2492,-0.1912 -0.2459,-0.1956 -0.2424,-0.1998 -0.2389,-0.204 -0.2353,-0.2082 -0.2316,-0.2122 -0.2279,-0.2163 -0.224,-0.2202 -0.2202,-0.224 -0.2163,-0.2279 -0.2122,-0.2316 -0.2082,-0.2353 -0.204,-0.2389 -0.1998,-0.2424 -0.1956,-0.2459 -0.1912,-0.2492 -0.1869,-0.2526 -0.1824,-0.2557 -0.178,-0.2589 -0.1734,-0.262 -0.1688,-0.265 -0.1641,-0.2678 -0.1595,-0.2707 -0.1547,-0.2734 -0.1499,-0.2761 -0.145,-0.2787 -0.1402,-0.2811 -0.1352,-0.2836 -0.1303,-0.2858 -0.1253,-0.2881 -0.1202,-0.2903 -0.1151,-0.2923 -0.1101,-0.2942 -0.1048,-0.2962 -0.0997,-0.2979 -0.0945,-0.2996 -0.0892,-0.3012 -0.084,-0.3028 -0.0786,-0.3041 -0.0734,-0.3055 -0.068,-0.3067 -0.0626,-0.3078 -0.0572,-0.3089 -0.0519,-0.3099 -0.0464,-0.3107 -0.041,-0.3115 -0.0356,-0.3121 -0.0301,-0.3127 -0.0247,-0.3132 -0.0191,-0.3136 -0.0137,-0.3138 -0.008,-0.3141 L 565.2,576 l 0.003,-0.3141 0.008,-0.3141 0.0137,-0.3138 0.0191,-0.3136 0.0247,-0.3132 0.0301,-0.3127 0.0356,-0.3121 0.041,-0.3115 0.0464,-0.3107 0.0519,-0.3099 0.0572,-0.3089 0.0626,-0.3078 0.068,-0.3067 0.0734,-0.3055 0.0786,-0.3041 0.084,-0.3028 0.0892,-0.3012 0.0945,-0.2996 0.0997,-0.2979 0.1048,-0.2962 0.1101,-0.2942 0.1151,-0.2923 0.1202,-0.2903 0.1253,-0.2881 0.1303,-0.2858 0.1352,-0.2836 0.1402,-0.2811 0.145,-0.2787 0.1499,-0.2761 0.1547,-0.2734 0.1595,-0.2707 0.1641,-0.2678 0.1688,-0.265 0.1734,-0.262 0.178,-0.2589 0.1824,-0.2557 0.1869,-0.2526 0.1912,-0.2492 0.1956,-0.2459 0.1998,-0.2424 0.204,-0.2389 0.2082,-0.2353 0.2122,-0.2316 0.2163,-0.2279 0.2202,-0.224 0.224,-0.2202 0.2279,-0.2163 0.2316,-0.2122 0.2353,-0.2082 0.2389,-0.204 0.2424,-0.1998 0.2459,-0.1956 0.2492,-0.1912 0.2526,-0.1869 0.2557,-0.1824 0.2589,-0.178 0.262,-0.1734 0.265,-0.1688 0.2678,-0.1641 0.2707,-0.1595 0.2734,-0.1547 0.2761,-0.1499 0.2787,-0.145 0.2811,-0.1402 0.2836,-0.1352 0.2858,-0.1303 0.2881,-0.1253 0.2903,-0.1202 0.2923,-0.1151 0.2942,-0.1101 0.2962,-0.1048 0.2979,-0.0997 0.2996,-0.0945 0.3012,-0.0892 0.3028,-0.084 0.3041,-0.0786 0.3055,-0.0734 0.3067,-0.068 0.3078,-0.0626 0.3089,-0.0572 0.3099,-0.0519 0.3107,-0.0464 0.3115,-0.041 0.3121,-0.0356 0.3127,-0.0301 0.3132,-0.0247 0.3136,-0.0191 0.3138,-0.0137 0.3141,-0.008 0.3141,-0.003 0.3141,0.003 0.3141,0.008 0.3138,0.0137 0.3136,0.0191 0.3132,0.0247 0.3127,0.0301 0.3121,0.0356 0.3115,0.041 0.3107,0.0464 0.3099,0.0519 0.3089,0.0572 0.3078,0.0626 0.3067,0.068 0.3055,0.0734 0.3041,0.0786 0.3028,0.084 0.3012,0.0892 0.2996,0.0945 0.2979,0.0997 0.2962,0.1048 0.2942,0.1101 0.2923,0.1151 0.2903,0.1202 0.2881,0.1253 0.2858,0.1303 0.2836,0.1352 0.2811,0.1402 0.2787,0.145 0.2761,0.1499 0.2734,0.1547 0.2707,0.1595 0.2678,0.1641 0.265,0.1688 0.262,0.1734 0.2589,0.178 0.2557,0.1824 0.2526,0.1869 0.2492,0.1912 0.2459,0.1956 0.2424,0.1998 0.2389,0.204 0.2353,0.2082 0.2316,0.2122 0.2279,0.2163 0.224,0.2202 0.2202,0.224 0.2163,0.2279 0.2122,0.2316 0.2082,0.2353 0.204,0.2389 0.1998,0.2424 0.1956,0.2459 0.1912,0.2492 0.1869,0.2526 0.1824,0.2557 0.178,0.2589 0.1734,0.262 0.1688,0.265 0.1641,0.2678 0.1595,0.2707 0.1547,0.2734 0.1499,0.2761 0.145,0.2787 0.1402,0.2811 0.1352,0.2836 0.1303,0.2858 0.1253,0.2881 0.1202,0.2903 0.1151,0.2923 0.1101,0.2942 0.1048,0.2962 0.0997,0.2979 0.0945,0.2996 0.0892,0.3012 0.084,0.3028 0.0786,0.3041 0.0734,0.3055 0.068,0.3067 0.0626,0.3078 0.0572,0.3089 0.0519,0.3099 0.0464,0.3107 0.041,0.3115 0.0356,0.3121 0.0301,0.3127 0.0247,0.3132 0.0191,0.3136 0.0137,0.3138 0.008,0.3141 0.003,0.3141 -0.003,0.3141 -0.008,0.3141 -0.0137,0.3138 -0.0191,0.3136 -0.0247,0.3132 -0.0301,0.3127 -0.0356,0.3121 -0.041,0.3115 -0.0464,0.3107 -0.0519,0.3099 -0.0572,0.3089 -0.0626,0.3078 -0.068,0.3067 -0.0734,0.3055 -0.0786,0.3041 -0.084,0.3028 -0.0892,0.3012 -0.0945,0.2996 -0.0997,0.2979 -0.1048,0.2962 -0.1101,0.2942 -0.1151,0.2923 -0.1202,0.2903 -0.1253,0.2881 -0.1303,0.2858 -0.1352,0.2836 -0.1402,0.2811 -0.145,0.2787 -0.1499,0.2761 -0.1547,0.2734 -0.1595,0.2707 -0.1641,0.2678 -0.1688,0.265 -0.1734,0.262 -0.178,0.2589 -0.1824,0.2557 -0.1869,0.2526 -0.1912,0.2492 -0.1956,0.2459 -0.1998,0.2424 -0.204,0.2389 -0.2082,0.2353 -0.2122,0.2316 -0.2163,0.2279 -0.2202,0.224 -0.224,0.2202 -0.2279,0.2163 -0.2316,0.2122 -0.2353,0.2082 -0.2389,0.204 -0.2424,0.1998 -0.2459,0.1956 -0.2492,0.1912 -0.2526,0.1869 -0.2557,0.1824 -0.2589,0.178 -0.262,0.1734 -0.265,0.1688 -0.2678,0.1641 -0.2707,0.1595 V 603 l -0.001,0.1571 -0.004,0.157 -0.007,0.1569 -0.01,0.1568 -0.0123,0.1566 -0.0151,0.1564 -0.0178,0.156 -0.0205,0.1558 -0.0232,0.1553 -0.0259,0.1549 -0.0287,0.1545 -0.0313,0.1539 -0.034,0.1534 -0.0366,0.1527 -0.0394,0.1521 -0.0419,0.1513 -0.0447,0.1506 -0.0472,0.1499 -0.0498,0.1489 -0.0525,0.1481 -0.055,0.1471 -0.0575,0.1462 -0.0602,0.1451 -0.0626,0.144 -0.0651,0.143 -0.0677,0.1417 -0.07,0.1406 -0.0726,0.1393 -0.0749,0.1381 -0.0774,0.1367 -0.0797,0.1353 -0.0821,0.134 -0.0844,0.1325 -0.0867,0.1309 -0.0889,0.1295 -0.0912,0.1279 -0.0935,0.1262 -0.0956,0.1247 -0.0978,0.1229 -0.0999,0.1212 -0.102,0.1194 -0.1041,0.1177 -0.1061,0.1158 -0.1081,0.1139 -0.1101,0.1121 -0.1121,0.1101 -0.1139,0.1081 -0.1158,0.1061 -0.1177,0.1041 -0.1194,0.102 -0.1212,0.0999 -0.1229,0.0978 -0.1247,0.0956 -0.1262,0.0935 -0.1279,0.0912 -0.1295,0.0889 -0.1309,0.0867 -0.1325,0.0844 -0.134,0.0821 -0.1353,0.0797 -0.1367,0.0774 -0.1381,0.0749 -0.1393,0.0726 -0.1406,0.07 -0.1417,0.0677 -0.143,0.0651 -0.144,0.0626 -0.1451,0.0602 -0.1462,0.0575 -0.1471,0.055 -0.1481,0.0525 -0.1489,0.0498 -0.1499,0.0472 -0.1506,0.0447 -0.1513,0.0419 -0.1521,0.0394 -0.1527,0.0366 -0.1534,0.034 -0.1539,0.0313 -0.1545,0.0287 -0.1549,0.0259 -0.1553,0.0232 -0.1558,0.0205 -0.156,0.0178 -0.1564,0.0151 -0.1566,0.0123 -0.1568,0.01 -0.1569,0.007 -0.157,0.004 -0.1571,10e-4 -0.1571,-10e-4 -0.157,-0.004 -0.1569,-0.007 -0.1568,-0.01 -0.1566,-0.0123 -0.1564,-0.0151 -0.156,-0.0178 -0.1558,-0.0205 -0.1553,-0.0232 -0.1549,-0.0259 -0.1545,-0.0287 -0.1539,-0.0313 -0.1534,-0.034 -0.1527,-0.0366 -0.1521,-0.0394 -0.1513,-0.0419 -0.1506,-0.0447 -0.1499,-0.0472 -0.1489,-0.0498 -0.1481,-0.0525 -0.1471,-0.055 -0.1462,-0.0575 -0.1451,-0.0602 -0.144,-0.0626 -0.143,-0.0651 -0.1417,-0.0677 -0.1406,-0.07 -0.1393,-0.0726 -0.1381,-0.0749 -0.1367,-0.0774 -0.1353,-0.0797 -0.134,-0.0821 -0.1325,-0.0844 -0.1309,-0.0867 -0.1295,-0.0889 -0.1279,-0.0912 -0.1262,-0.0935 -0.1247,-0.0956 -0.1229,-0.0978 -0.1212,-0.0999 -0.1194,-0.102 -0.1177,-0.1041 -0.1158,-0.1061 -0.1139,-0.1081 -0.1121,-0.1101 -0.1101,-0.1121 -0.1081,-0.1139 -0.1061,-0.1158 -0.1041,-0.1177 -0.102,-0.1194 -0.0999,-0.1212 -0.0978,-0.1229 -0.0956,-0.1247 -0.0935,-0.1262 -0.0912,-0.1279 -0.0889,-0.1295 -0.0867,-0.1309 -0.0844,-0.1325 -0.0821,-0.134 -0.0797,-0.1353 -0.0774,-0.1367 -0.0749,-0.1381 -0.0726,-0.1393 -0.07,-0.1406 -0.0677,-0.1417 -0.0651,-0.143 -0.0626,-0.144 -0.0602,-0.1451 -0.0575,-0.1462 -0.055,-0.1471 -0.0525,-0.1481 -0.0498,-0.1489 -0.0472,-0.1499 -0.0447,-0.1506 -0.0419,-0.1513 -0.0394,-0.1521 -0.0366,-0.1527 -0.034,-0.1534 -0.0313,-0.1539 -0.0287,-0.1545 -0.0259,-0.1549 -0.0232,-0.1553 -0.0205,-0.1558 -0.0178,-0.156 -0.0151,-0.1564 -0.0123,-0.1566 -0.01,-0.1568 -0.007,-0.1569 -0.004,-0.157 -10e-4,-11.5686"
         style="fill:none;stroke:#ff0000;stroke-width:0.375;stroke-linecap:butt;stroke-linejoin:miter;stroke-miterlimit:4;stroke-dasharray:none;stroke-opacity:1"
         id="path38"
         inkscape:connector-curvature="0" /><path
         d="M -0.708661,350.2772 H 21.9685 v 0 l 0.39578,-0.003 0.39565,-0.0103 0.39541,-0.0173 0.39504,-0.0242 0.39457,-0.031 0.39396,-0.038 0.39325,-0.0448 0.3924,-0.0516 0.39143,-0.0585 0.39036,-0.0654 0.38916,-0.0721 0.38784,-0.0789 0.38641,-0.0856 0.38485,-0.0924 0.38318,-0.0991 0.38139,-0.1058 0.37949,-0.1124 0.37746,-0.119 0.37534,-0.1256 0.37308,-0.1321 0.37072,-0.1386 0.36825,-0.1451 0.36566,-0.1515 0.36296,-0.1578 0.36015,-0.1641 0.35723,-0.1704 0.3542,-0.1766 0.35107,-0.1828 0.34782,-0.1888 0.34448,-0.1949 0.34102,-0.2009 0.33746,-0.2068 0.3338,-0.2126 0.33004,-0.2185 0.32618,-0.2242 0.32222,-0.2298 0.31815,-0.2354 0.314,-0.2409 0.30975,-0.2464 0.30539,-0.2518 0.30096,-0.257 0.29643,-0.2623 0.2918,-0.2674 0.2871,-0.2724 0.28229,-0.2774 0.27741,-0.2823 0.27244,-0.2871 0.26739,-0.2918 0.26226,-0.2964 0.25704,-0.301 0.25175,-0.3054 0.24638,-0.3097 0.24094,-0.314 0.23543,-0.3182 0.22983,-0.3222 0.22418,-0.3262 0.21845,-0.33 0.21265,-0.3338 0.2068,-0.3375 0.20088,-0.341 0.19489,-0.3445 0.18885,-0.3478 0.18276,-0.3511 0.1766,-0.3542 0.17039,-0.3572 0.16413,-0.3602 0.15781,-0.3629 0.15147,-0.3657 0.14505,-0.3682 0.13861,-0.3708 0.13212,-0.373 0.12558,-0.3754 0.11902,-0.3774 0.1124,-0.3795 0.10577,-0.3814 0.0991,-0.3832 0.0924,-0.3848 0.08566,-0.3865 0.07891,-0.3878 0.07212,-0.3892 0.06533,-0.3903 0.0585,-0.3914 0.05166,-0.3924 0.0448,-0.3933 0.03794,-0.394 0.03105,-0.3945 0.02416,-0.3951 0.01726,-0.3954 0.01037,-0.3956 0.0035,-0.3958 -0.0035,-0.3958 -0.01037,-0.3956 -0.01726,-0.3954 -0.02416,-0.3951 -0.03105,-0.3945 -0.03794,-0.394 -0.0448,-0.3933 -0.05166,-0.3924 -0.0585,-0.3914 -0.06533,-0.3903 -0.07212,-0.3892 -0.07891,-0.3878 -0.08566,-0.3865 -0.0924,-0.3848 -0.0991,-0.3832 -0.10577,-0.3814 -0.1124,-0.3795 -0.11902,-0.3774 -0.12558,-0.3754 -0.13212,-0.373 -0.13861,-0.3708 -0.14505,-0.3682 -0.15147,-0.3657 -0.15781,-0.3629 -0.16413,-0.3602 -0.17039,-0.3572 -0.1766,-0.3542 -0.18276,-0.3511 -0.18885,-0.3478 -0.19489,-0.3445 -0.20088,-0.341 -0.2068,-0.3375 -0.21265,-0.3338 -0.21845,-0.33 -0.22418,-0.3262 -0.22983,-0.3222 -0.23543,-0.3182 -0.24094,-0.314 -0.24638,-0.3097 -0.25175,-0.3054 -0.25704,-0.301 -0.26226,-0.2964 -0.26739,-0.2918 -0.27244,-0.2871 -0.27741,-0.2823 -0.28229,-0.2774 -0.2871,-0.2724 -0.2918,-0.2674 -0.29643,-0.2623 -0.30096,-0.257 -0.30539,-0.2518 -0.30975,-0.2464 -0.314,-0.2409 -0.31815,-0.2354 -0.32222,-0.2298 -0.32618,-0.2242 -0.33004,-0.2185 -0.3338,-0.2126 -0.33746,-0.2068 -0.34102,-0.2009 -0.34448,-0.1949 -0.34782,-0.1888 -0.35107,-0.1828 -0.3542,-0.1766 -0.35723,-0.1704 -0.36015,-0.1641 -0.36296,-0.1578 -0.36566,-0.1515 -0.36825,-0.1451 -0.37072,-0.1386 -0.37308,-0.1321 -0.37534,-0.1256 -0.37746,-0.119 -0.37949,-0.1124 -0.38139,-0.1058 -0.38318,-0.0991 -0.38485,-0.0924 -0.38641,-0.0856 -0.38784,-0.0789 -0.38916,-0.0721 -0.39036,-0.0654 -0.39143,-0.0585 -0.3924,-0.0516 -0.39325,-0.0448 -0.39396,-0.038 -0.39457,-0.031 -0.39504,-0.0242 -0.39541,-0.0173 -0.39565,-0.0103 -23.072941,-0.004"
         style="fill:none;stroke:#ff0000;stroke-width:0.375;stroke-linecap:butt;stroke-linejoin:miter;stroke-miterlimit:4;stroke-dasharray:none;stroke-opacity:1"
         id="path40"
         inkscape:connector-curvature="0" /><path
         d="M -0.708661,350.2772 H 21.9685 v 0 l 0.39578,-0.003 0.39565,-0.0103 0.39541,-0.0173 0.39504,-0.0242 0.39457,-0.031 0.39396,-0.038 0.39325,-0.0448 0.3924,-0.0516 0.39143,-0.0585 0.39036,-0.0654 0.38916,-0.0721 0.38784,-0.0789 0.38641,-0.0856 0.38485,-0.0924 0.38318,-0.0991 0.38139,-0.1058 0.37949,-0.1124 0.37746,-0.119 0.37534,-0.1256 0.37308,-0.1321 0.37072,-0.1386 0.36825,-0.1451 0.36566,-0.1515 0.36296,-0.1578 0.36015,-0.1641 0.35723,-0.1704 0.3542,-0.1766 0.35107,-0.1828 0.34782,-0.1888 0.34448,-0.1949 0.34102,-0.2009 0.33746,-0.2068 0.3338,-0.2126 0.33004,-0.2185 0.32618,-0.2242 0.32222,-0.2298 0.31815,-0.2354 0.314,-0.2409 0.30975,-0.2464 0.30539,-0.2518 0.30096,-0.257 0.29643,-0.2623 0.2918,-0.2674 0.2871,-0.2724 0.28229,-0.2774 0.27741,-0.2823 0.27244,-0.2871 0.26739,-0.2918 0.26226,-0.2964 0.25704,-0.301 0.25175,-0.3054 0.24638,-0.3097 0.24094,-0.314 0.23543,-0.3182 0.22983,-0.3222 0.22418,-0.3262 0.21845,-0.33 0.21265,-0.3338 0.2068,-0.3375 0.20088,-0.341 0.19489,-0.3445 0.18885,-0.3478 0.18276,-0.3511 0.1766,-0.3542 0.17039,-0.3572 0.16413,-0.3602 0.15781,-0.3629 0.15147,-0.3657 0.14505,-0.3682 0.13861,-0.3708 0.13212,-0.373 0.12558,-0.3754 0.11902,-0.3774 0.1124,-0.3795 0.10577,-0.3814 0.0991,-0.3832 0.0924,-0.3848 0.08566,-0.3865 0.07891,-0.3878 0.07212,-0.3892 0.06533,-0.3903 0.0585,-0.3914 0.05166,-0.3924 0.0448,-0.3933 0.03794,-0.394 0.03105,-0.3945 0.02416,-0.3951 0.01726,-0.3954 0.01037,-0.3956 0.0035,-0.3958 -0.0035,-0.3958 -0.01037,-0.3956 -0.01726,-0.3954 -0.02416,-0.3951 -0.03105,-0.3945 -0.03794,-0.394 -0.0448,-0.3933 -0.05166,-0.3924 -0.0585,-0.3914 -0.06533,-0.3903 -0.07212,-0.3892 -0.07891,-0.3878 -0.08566,-0.3865 -0.0924,-0.3848 -0.0991,-0.3832 -0.10577,-0.3814 -0.1124,-0.3795 -0.11902,-0.3774 -0.12558,-0.3754 -0.13212,-0.373 -0.13861,-0.3708 -0.14505,-0.3682 -0.15147,-0.3657 -0.15781,-0.3629 -0.16413,-0.3602 -0.17039,-0.3572 -0.1766,-0.3542 -0.18276,-0.3511 -0.18885,-0.3478 -0.19489,-0.3445 -0.20088,-0.341 -0.2068,-0.3375 -0.21265,-0.3338 -0.21845,-0.33 -0.22418,-0.3262 -0.22983,-0.3222 -0.23543,-0.3182 -0.24094,-0.314 -0.24638,-0.3097 -0.25175,-0.3054 -0.25704,-0.301 -0.26226,-0.2964 -0.26739,-0.2918 -0.27244,-0.2871 -0.27741,-0.2823 -0.28229,-0.2774 -0.2871,-0.2724 -0.2918,-0.2674 -0.29643,-0.2623 -0.30096,-0.257 -0.30539,-0.2518 -0.30975,-0.2464 -0.314,-0.2409 -0.31815,-0.2354 -0.32222,-0.2298 -0.32618,-0.2242 -0.33004,-0.2185 -0.3338,-0.2126 -0.33746,-0.2068 -0.34102,-0.2009 -0.34448,-0.1949 -0.34782,-0.1888 -0.35107,-0.1828 -0.3542,-0.1766 -0.35723,-0.1704 -0.36015,-0.1641 -0.36296,-0.1578 -0.36566,-0.1515 -0.36825,-0.1451 -0.37072,-0.1386 -0.37308,-0.1321 -0.37534,-0.1256 -0.37746,-0.119 -0.37949,-0.1124 -0.38139,-0.1058 -0.38318,-0.0991 -0.38485,-0.0924 -0.38641,-0.0856 -0.38784,-0.0789 -0.38916,-0.0721 -0.39036,-0.0654 -0.39143,-0.0585 -0.3924,-0.0516 -0.39325,-0.0448 -0.39396,-0.038 -0.39457,-0.031 -0.39504,-0.0242 -0.39541,-0.0173 -0.39565,-0.0103 -23.072941,-0.004 M 655.9087,350.2772 h -22.6772 v 0 l -0.3958,-0.003 -0.3956,-0.0103 -0.3954,-0.0173 -0.3951,-0.0242 -0.3945,-0.031 -0.394,-0.038 -0.3933,-0.0448 -0.3924,-0.0516 -0.3914,-0.0585 -0.3904,-0.0654 -0.3891,-0.0721 -0.3879,-0.0789 -0.3864,-0.0856 -0.3848,-0.0924 -0.3832,-0.0991 -0.3814,-0.1058 -0.3795,-0.1124 -0.3774,-0.119 -0.3754,-0.1256 -0.3731,-0.1321 -0.3707,-0.1386 -0.3682,-0.1451 -0.3657,-0.1515 -0.3629,-0.1578 -0.3602,-0.1641 -0.3572,-0.1704 -0.3542,-0.1766 -0.3511,-0.1828 -0.3478,-0.1888 -0.3445,-0.1949 -0.341,-0.2009 -0.3375,-0.2068 -0.3338,-0.2126 -0.33,-0.2185 -0.3262,-0.2242 -0.3222,-0.2298 -0.3182,-0.2354 -0.314,-0.2409 -0.3097,-0.2464 -0.3054,-0.2518 -0.301,-0.257 -0.2964,-0.2623 -0.2918,-0.2674 -0.2871,-0.2724 -0.2823,-0.2774 -0.2774,-0.2823 -0.2724,-0.2871 -0.2674,-0.2918 -0.2623,-0.2964 -0.257,-0.301 -0.2518,-0.3054 -0.2464,-0.3097 -0.2409,-0.314 -0.2354,-0.3182 -0.2299,-0.3222 -0.2241,-0.3262 -0.2185,-0.33 -0.2126,-0.3338 -0.2068,-0.3375 -0.2009,-0.341 -0.1949,-0.3445 -0.1889,-0.3478 -0.1827,-0.3511 -0.1766,-0.3542 -0.1704,-0.3572 -0.1641,-0.3602 -0.1578,-0.3629 -0.1515,-0.3657 -0.1451,-0.3682 -0.1386,-0.3708 -0.1321,-0.373 -0.1256,-0.3754 -0.119,-0.3774 -0.1124,-0.3795 -0.1058,-0.3814 -0.0991,-0.3832 -0.0924,-0.3848 -0.0856,-0.3865 -0.0789,-0.3878 -0.0722,-0.3892 -0.0653,-0.3903 -0.0585,-0.3914 -0.0516,-0.3924 -0.0448,-0.3933 -0.038,-0.394 -0.031,-0.3945 -0.0242,-0.3951 -0.0173,-0.3954 -0.0103,-0.3956 -0.004,-0.3958 0.004,-0.3958 0.0103,-0.3956 0.0173,-0.3954 0.0242,-0.3951 0.031,-0.3945 0.038,-0.394 0.0448,-0.3933 0.0516,-0.3924 0.0585,-0.3914 0.0653,-0.3903 0.0722,-0.3892 0.0789,-0.3878 0.0856,-0.3865 0.0924,-0.3848 0.0991,-0.3832 0.1058,-0.3814 0.1124,-0.3795 0.119,-0.3774 0.1256,-0.3754 0.1321,-0.373 0.1386,-0.3708 0.1451,-0.3682 0.1515,-0.3657 0.1578,-0.3629 0.1641,-0.3602 0.1704,-0.3572 0.1766,-0.3542 0.1827,-0.3511 0.1889,-0.3478 0.1949,-0.3445 0.2009,-0.341 0.2068,-0.3375 0.2126,-0.3338 0.2185,-0.33 0.2241,-0.3262 0.2299,-0.3222 0.2354,-0.3182 0.2409,-0.314 0.2464,-0.3097 0.2518,-0.3054 0.257,-0.301 0.2623,-0.2964 0.2674,-0.2918 0.2724,-0.2871 0.2774,-0.2823 0.2823,-0.2774 0.2871,-0.2724 0.2918,-0.2674 0.2964,-0.2623 0.301,-0.257 0.3054,-0.2518 0.3097,-0.2464 0.314,-0.2409 0.3182,-0.2354 0.3222,-0.2298 0.3262,-0.2242 0.33,-0.2185 0.3338,-0.2126 0.3375,-0.2068 0.341,-0.2009 0.3445,-0.1949 0.3478,-0.1888 0.3511,-0.1828 0.3542,-0.1766 0.3572,-0.1704 0.3602,-0.1641 0.3629,-0.1578 0.3657,-0.1515 0.3682,-0.1451 0.3707,-0.1386 0.3731,-0.1321 0.3754,-0.1256 0.3774,-0.119 0.3795,-0.1124 0.3814,-0.1058 0.3832,-0.0991 0.3848,-0.0924 0.3864,-0.0856 0.3879,-0.0789 0.3891,-0.0721 0.3904,-0.0654 0.3914,-0.0585 0.3924,-0.0516 0.3933,-0.0448 0.394,-0.038 0.3945,-0.031 0.3951,-0.0242 0.3954,-0.0173 0.3956,-0.0103 23.073,-0.004"
         style="fill:none;stroke:#ff0000;stroke-width:0.375;stroke-linecap:butt;stroke-linejoin:miter;stroke-miterlimit:4;stroke-dasharray:none;stroke-opacity:1"
         id="path42"
         inkscape:connector-curvature="0" /><text
         transform="matrix(1,0,0,-1,510,640.8)"
         style="font-variant:normal;font-weight:normal;font-size:12px;font-family:Helvetica;-inkscape-font-specification:Helvetica;writing-mode:lr-tb;fill:#000000;fill-opacity:1;fill-rule:nonzero;stroke:none;stroke-width:0.375;stroke-miterlimit:4;stroke-dasharray:none"
         id="text46"><tspan
           x="0 8.6639996 16.667999"
           y="0"
           sodipodi:role="line"
           id="tspan44">RST</tspan></text>
<text
         transform="matrix(1,0,0,-1,460.8,640.8)"
         style="font-variant:normal;font-weight:normal;font-size:12px;font-family:Helvetica;-inkscape-font-specification:Helvetica;writing-mode:lr-tb;fill:#000000;fill-opacity:1;fill-rule:nonzero;stroke:none;stroke-width:0.375;stroke-miterlimit:4;stroke-dasharray:none"
         id="text50"><tspan
           x="0 9.9960003 19.332001 27.996"
           y="0"
           sodipodi:role="line"
           id="tspan48">MODE</tspan></text>
<text
         transform="matrix(1,0,0,-1,422.934,640.8)"
         style="font-variant:normal;font-weight:normal;font-size:12px;font-family:Helvetica;-inkscape-font-specification:Helvetica;writing-mode:lr-tb;fill:#000000;fill-opacity:1;fill-rule:nonzero;stroke:none;stroke-width:0.375;stroke-miterlimit:4;stroke-dasharray:none"
         id="text54"><tspan
           x="0 8.6639996 16.667999"
           y="0"
           sodipodi:role="line"
           id="tspan52">DEC</tspan></text>
<text
         transform="matrix(1,0,0,-1,382.068,640.8)"
         style="font-variant:normal;font-weight:normal;font-size:12px;font-family:Helvetica;-inkscape-font-specification:Helvetica;writing-mode:lr-tb;fill:#000000;fill-opacity:1;fill-rule:nonzero;stroke:none;stroke-width:0.375;stroke-miterlimit:4;stroke-dasharray:none"
         id="text58"><tspan
           x="0 3.336 12"
           y="0"
           sodipodi:role="line"
           id="tspan56">INC</tspan></text>
<text
         transform="matrix(1,0,0,-1,337.2,640.8)"
         style="font-variant:normal;font-weight:normal;font-size:12px;font-family:Helvetica;-inkscape-font-specification:Helvetica;writing-mode:lr-tb;fill:#000000;fill-opacity:1;fill-rule:nonzero;stroke:none;stroke-width:0.375;stroke-miterlimit:4;stroke-dasharray:none"
         id="text62"><tspan
           x="0 8.0039997 16.667999"
           y="0"
           sodipodi:role="line"
           id="tspan60">ENT</tspan></text>
<text
         transform="matrix(1,0,0,-1,295.002,640.8)"
         style="font-variant:normal;font-weight:normal;font-size:12px;font-family:Helvetica;-inkscape-font-specification:Helvetica;writing-mode:lr-tb;fill:#000000;fill-opacity:1;fill-rule:nonzero;stroke:none;stroke-width:0.375;stroke-miterlimit:4;stroke-dasharray:none"
         id="text66"><tspan
           x="0 8.6639996 12"
           y="0"
           sodipodi:role="line"
           id="tspan64">DIM</tspan></text>
<g
         id="g68"
         transform="rotate(90)"
         style="stroke-width:0.375;stroke-miterlimit:4;stroke-dasharray:none"><text
           transform="matrix(1,0,0,-1,6.828,-481.68)"
           style="font-variant:normal;font-weight:normal;font-size:12px;font-family:Helvetica;-inkscape-font-specification:Helvetica;writing-mode:lr-tb;fill:#000000;fill-opacity:1;fill-rule:nonzero;stroke:none;stroke-width:0.375;stroke-miterlimit:4;stroke-dasharray:none"
           id="text72"><tspan
             x="0 9.3360004 18"
             y="0"
             sodipodi:role="line"
             id="tspan70">GRN</tspan></text>
<text
           transform="matrix(1,0,0,-1,11.7,-535.68)"
           style="font-variant:normal;font-weight:normal;font-size:12px;font-family:Helvetica;-inkscape-font-specification:Helvetica;writing-mode:lr-tb;fill:#000000;fill-opacity:1;fill-rule:nonzero;stroke:none;stroke-width:0.375;stroke-miterlimit:4;stroke-dasharray:none"
           id="text76"><tspan
             x="0 8.0039997 14.676"
             y="0"
             sodipodi:role="line"
             id="tspan74">BLK</tspan></text>
<g
           id="g78"
           transform="rotate(-90)"
           style="stroke-width:0.375;stroke-miterlimit:4;stroke-dasharray:none"><path
             d="m 115.852,111.6 c 0,2.3483 -1.9037,4.252 -4.252,4.252 -2.3483,0 -4.252,-1.9037 -4.252,-4.252 0,-2.3483 1.9037,-4.252 4.252,-4.252 2.3483,0 4.252,1.9037 4.252,4.252"
             style="fill:none;stroke:#ff0000;stroke-width:0.375;stroke-linecap:butt;stroke-linejoin:miter;stroke-miterlimit:4;stroke-dasharray:none;stroke-opacity:1"
             id="path80"
             inkscape:connector-curvature="0" /><path
             d="m 115.852,543.6 c 0,2.3483 -1.9037,4.252 -4.252,4.252 -2.3483,0 -4.252,-1.9037 -4.252,-4.252 0,-2.3483 1.9037,-4.252 4.252,-4.252 2.3483,0 4.252,1.9037 4.252,4.252"
             style="fill:none;stroke:#ff0000;stroke-width:0.375;stroke-linecap:butt;stroke-linejoin:miter;stroke-miterlimit:4;stroke-dasharray:none;stroke-opacity:1"
             id="path82"
             inkscape:connector-curvature="0" /><path
             d="m 547.852,111.6 c 0,2.3483 -1.9037,4.252 -4.252,4.252 -2.3483,0 -4.252,-1.9037 -4.252,-4.252 0,-2.3483 1.9037,-4.252 4.252,-4.252 2.3483,0 4.252,1.9037 4.252,4.252"
             style="fill:none;stroke:#ff0000;stroke-width:0.375;stroke-linecap:butt;stroke-linejoin:miter;stroke-miterlimit:4;stroke-dasharray:none;stroke-opacity:1"
             id="path84"
             inkscape:connector-curvature="0" /><path
             d="m 547.852,543.6 c 0,2.3483 -1.9037,4.252 -4.252,4.252 -2.3483,0 -4.252,-1.9037 -4.252,-4.252 0,-2.3483 1.9037,-4.252 4.252,-4.252 2.3483,0 4.252,1.9037 4.252,4.252"
             style="fill:none;stroke:#ff0000;stroke-width:0.375;stroke-linecap:butt;stroke-linejoin:miter;stroke-miterlimit:4;stroke-dasharray:none;stroke-opacity:1"
             id="path86"
             inkscape:connector-curvature="0" /><path
             d="m 324,615.6 c 0,9.9411 -8.0589,18 -18,18 -9.9411,0 -18,-8.0589 -18,-18 0,-9.9411 8.0589,-18 18,-18 9.9411,0 18,8.0589 18,18"
             style="fill:none;stroke:#ff0000;stroke-width:0.375;stroke-linecap:butt;stroke-linejoin:miter;stroke-miterlimit:4;stroke-dasharray:none;stroke-opacity:1"
             id="path88"
             inkscape:connector-curvature="0" /><path
             d="m 511.2,612 h 21.6 v 21.6 H 511.2 V 612 m -43.2,0 h 21.6 v 21.6 H 468 V 612 m -43.2,0 h 21.6 v 21.6 H 424.8 V 612 m -43.2,0 h 21.6 v 21.6 H 381.6 V 612 m -43.2,0 H 360 v 21.6 H 338.4 V 612 M 481.68,35.28 h 44.64 v 8.64 h -44.64 v -8.64"
             style="fill:none;stroke:#ff0000;stroke-width:0.375;stroke-linecap:butt;stroke-linejoin:miter;stroke-miterlimit:4;stroke-dasharray:none;stroke-opacity:1"
             id="path90"
             inkscape:connector-curvature="0" /></g></g></g><g
       id="g2076"
       transform="matrix(-0.00719999,0,0,-0.00719999,681.4599,773.27978)"><g
         id="g6"
         style="fill:#000000;fill-opacity:1;stroke:#000000;stroke-linecap:round;stroke-linejoin:round;stroke-opacity:1" /><g
         id="g8"
         style="fill:#000000;fill-opacity:0;stroke:#000000;stroke-width:-0.0003937;stroke-linecap:round;stroke-linejoin:round;stroke-opacity:1" /><g
         id="g1352"
         style="fill:#000000;fill-opacity:0;stroke:#000000;stroke-width:100;stroke-linecap:round;stroke-linejoin:round;stroke-opacity:1"><path
           id="path1060"
           d="M 64395,25900 V 24900"
           inkscape:connector-curvature="0" /><path
           id="path1062"
           d="M 65895,25900 H 64395"
           inkscape:connector-curvature="0" /><path
           id="path1064"
           d="m 65895,24900 v 1000"
           inkscape:connector-curvature="0" /><path
           id="path1066"
           d="m 64395,24900 h 1500"
           inkscape:connector-curvature="0" /><path
           id="path1068"
           d="m 68395,26400 v 2000"
           inkscape:connector-curvature="0" /><path
           id="path1070"
           d="M 69895,26400 H 68395"
           inkscape:connector-curvature="0" /><path
           id="path1072"
           d="M 69895,28400 V 26400"
           inkscape:connector-curvature="0" /><path
           id="path1074"
           d="m 68395,28400 h 1500"
           inkscape:connector-curvature="0" /><path
           id="path1076"
           d="M 8395,35400 V 33400"
           inkscape:connector-curvature="0" /><path
           id="path1078"
           d="M 9895,35400 H 8395"
           inkscape:connector-curvature="0" /><path
           id="path1080"
           d="m 9895,33400 v 2000"
           inkscape:connector-curvature="0" /><path
           id="path1082"
           d="M 8395,33400 H 9895"
           inkscape:connector-curvature="0" /><path
           id="path1084"
           d="m 12395,26400 v 2000"
           inkscape:connector-curvature="0" /><path
           id="path1086"
           d="M 13895,26400 H 12395"
           inkscape:connector-curvature="0" /><path
           id="path1088"
           d="M 13895,28400 V 26400"
           inkscape:connector-curvature="0" /><path
           id="path1090"
           d="m 12395,28400 h 1500"
           inkscape:connector-curvature="0" /><path
           id="path1092"
           d="M 12395,25900 V 24900"
           inkscape:connector-curvature="0" /><path
           id="path1094"
           d="M 13895,25900 H 12395"
           inkscape:connector-curvature="0" /><path
           id="path1096"
           d="m 13895,24900 v 1000"
           inkscape:connector-curvature="0" /><path
           id="path1098"
           d="m 12395,24900 h 1500"
           inkscape:connector-curvature="0" /><path
           id="path1100"
           d="m 9895,26400 v 2000"
           inkscape:connector-curvature="0" /><path
           id="path1102"
           d="M 8395,26400 H 9895"
           inkscape:connector-curvature="0" /><path
           id="path1104"
           d="M 8395,28400 V 26400"
           inkscape:connector-curvature="0" /><path
           id="path1106"
           d="M 9895,28400 H 8395"
           inkscape:connector-curvature="0" /><path
           id="path1108"
           d="M 26145,46150 H 24145"
           inkscape:connector-curvature="0" /><path
           id="path1110"
           d="m 25145,45150 v 2000"
           inkscape:connector-curvature="0" /><circle
           id="circle1112"
           r="1000"
           cy="46150"
           cx="25145.199" /><path
           id="path1114"
           d="M 54145,46150 H 52145"
           inkscape:connector-curvature="0" /><path
           id="path1116"
           d="m 53145,45150 v 2000"
           inkscape:connector-curvature="0" /><circle
           id="circle1118"
           r="1030.78"
           cy="46150"
           cx="53145.199" /><path
           id="path1120"
           d="M 68395,77400 V 75400"
           inkscape:connector-curvature="0" /><path
           id="path1122"
           d="M 69895,77400 H 68395"
           inkscape:connector-curvature="0" /><path
           id="path1124"
           d="m 69895,75400 v 2000"
           inkscape:connector-curvature="0" /><path
           id="path1126"
           d="m 68395,75400 h 1500"
           inkscape:connector-curvature="0" /><path
           id="path1128"
           d="M 64395,78900 V 77900"
           inkscape:connector-curvature="0" /><path
           id="path1130"
           d="M 65895,78900 H 64395"
           inkscape:connector-curvature="0" /><path
           id="path1132"
           d="m 65895,77900 v 1000"
           inkscape:connector-curvature="0" /><path
           id="path1134"
           d="m 64395,77900 h 1500"
           inkscape:connector-curvature="0" /><path
           id="path1136"
           d="M 54145,74150 H 52145"
           inkscape:connector-curvature="0" /><path
           id="path1138"
           d="m 53145,73150 v 2000"
           inkscape:connector-curvature="0" /><circle
           id="circle1140"
           r="1000"
           cy="74150"
           cx="53145.199" /><path
           id="path1142"
           d="m 25145,73150 v 2000"
           inkscape:connector-curvature="0" /><path
           id="path1144"
           d="m 24145,74150 h 2000"
           inkscape:connector-curvature="0" /><circle
           id="circle1146"
           r="1030.78"
           cy="74150"
           cx="25145.199" /><path
           id="path1148"
           d="M 8395,77400 V 75400"
           inkscape:connector-curvature="0" /><path
           id="path1150"
           d="M 9895,77400 H 8395"
           inkscape:connector-curvature="0" /><path
           id="path1152"
           d="m 9895,75400 v 2000"
           inkscape:connector-curvature="0" /><path
           id="path1154"
           d="M 8395,75400 H 9895"
           inkscape:connector-curvature="0" /><path
           id="path1156"
           d="M 12395,78900 V 77900"
           inkscape:connector-curvature="0" /><path
           id="path1158"
           d="M 13895,78900 H 12395"
           inkscape:connector-curvature="0" /><path
           id="path1160"
           d="m 13895,78650 v 250"
           inkscape:connector-curvature="0" /><path
           id="path1162"
           d="m 13895,77900 v 750"
           inkscape:connector-curvature="0" /><path
           id="path1164"
           d="m 12395,77900 h 1500"
           inkscape:connector-curvature="0" /><path
           id="path1166"
           d="m 9145,78150 v 1000"
           inkscape:connector-curvature="0" /><path
           id="path1168"
           d="M 8145,79150 V 78150"
           inkscape:connector-curvature="0" /><path
           id="path1170"
           d="M 10145,79150 H 8145"
           inkscape:connector-curvature="0" /><path
           id="path1172"
           d="m 10145,78150 v 1000"
           inkscape:connector-curvature="0" /><path
           id="path1174"
           d="m 8145,78150 h 2000"
           inkscape:connector-curvature="0" /><path
           id="path1176"
           d="m 24145,22150 h 2000"
           inkscape:connector-curvature="0" /><path
           id="path1178"
           d="M 25145,23150 V 21150"
           inkscape:connector-curvature="0" /><path
           id="path1180"
           d="m 28145,22150 h 2000"
           inkscape:connector-curvature="0" /><path
           id="path1182"
           d="M 29145,23150 V 21150"
           inkscape:connector-curvature="0" /><path
           id="path1184"
           d="m 32145,22150 h 2000"
           inkscape:connector-curvature="0" /><path
           id="path1186"
           d="m 33145,21150 v 2000"
           inkscape:connector-curvature="0" /><path
           id="path1188"
           d="m 36145,22150 h 2000"
           inkscape:connector-curvature="0" /><path
           id="path1190"
           d="M 37145,23150 V 21150"
           inkscape:connector-curvature="0" /><path
           id="path1192"
           d="m 40145,22150 h 2000"
           inkscape:connector-curvature="0" /><path
           id="path1194"
           d="M 41145,23150 V 21150"
           inkscape:connector-curvature="0" /><path
           id="path1196"
           d="m 44145,22150 h 2000"
           inkscape:connector-curvature="0" /><path
           id="path1198"
           d="M 45145,23150 V 21150"
           inkscape:connector-curvature="0" /><path
           id="path1200"
           d="m 48145,22150 h 2000"
           inkscape:connector-curvature="0" /><path
           id="path1202"
           d="M 49145,23150 V 21150"
           inkscape:connector-curvature="0" /><path
           id="path1204"
           d="m 52145,22150 h 2000"
           inkscape:connector-curvature="0" /><path
           id="path1206"
           d="M 53145,23150 V 21150"
           inkscape:connector-curvature="0" /><path
           id="path1208"
           d="m 68145,21900 h 2000"
           inkscape:connector-curvature="0" /><path
           id="path1210"
           d="M 69145,22900 V 20900"
           inkscape:connector-curvature="0" /><path
           id="path1212"
           d="m 68645,8400 h 2000"
           inkscape:connector-curvature="0" /><path
           id="path1214"
           d="M 69645,9400 V 7400"
           inkscape:connector-curvature="0" /><path
           id="path1216"
           d="m 47645,10900 h 1000"
           inkscape:connector-curvature="0" /><path
           id="path1218"
           d="M 48145,11400 V 10400"
           inkscape:connector-curvature="0" /><path
           id="path1220"
           d="m 41645,10900 h 1000"
           inkscape:connector-curvature="0" /><path
           id="path1222"
           d="M 42145,11400 V 10400"
           inkscape:connector-curvature="0" /><path
           id="path1224"
           d="m 35645,10900 h 1000"
           inkscape:connector-curvature="0" /><path
           id="path1226"
           d="M 36145,11400 V 10400"
           inkscape:connector-curvature="0" /><path
           id="path1228"
           d="m 29645,10900 h 1000"
           inkscape:connector-curvature="0" /><path
           id="path1230"
           d="M 30145,11400 V 10400"
           inkscape:connector-curvature="0" /><path
           id="path1232"
           d="m 23645,10900 h 1000"
           inkscape:connector-curvature="0" /><path
           id="path1234"
           d="M 24145,11400 V 10400"
           inkscape:connector-curvature="0" /><path
           id="path1236"
           d="m 17645,10900 h 1000"
           inkscape:connector-curvature="0" /><path
           id="path1238"
           d="M 18145,11400 V 10400"
           inkscape:connector-curvature="0" /><path
           id="path1240"
           d="m 11645,10900 h 1000"
           inkscape:connector-curvature="0" /><path
           id="path1242"
           d="M 12145,11400 V 10400"
           inkscape:connector-curvature="0" /><path
           id="path1244"
           d="M 7645,8400 H 9645"
           inkscape:connector-curvature="0" /><path
           id="path1246"
           d="M 8645,9400 V 7400"
           inkscape:connector-curvature="0" /><path
           id="path1248"
           d="m 8145,21900 h 2000"
           inkscape:connector-curvature="0" /><path
           id="path1250"
           d="M 9145,22900 V 20900"
           inkscape:connector-curvature="0" /><path
           id="path1252"
           d="m 8145,81900 v 0"
           inkscape:connector-curvature="0" /><path
           id="path1254"
           d="M 10145,81900 H 8145"
           inkscape:connector-curvature="0" /><path
           id="path1256"
           d="M 9145,82900 V 80900"
           inkscape:connector-curvature="0" /><path
           id="path1258"
           d="m 68145,81900 h 2000"
           inkscape:connector-curvature="0" /><path
           id="path1260"
           d="M 69145,82900 V 80900"
           inkscape:connector-curvature="0" /><circle
           id="circle1262"
           r="1000"
           cy="81900"
           cx="69145.203" /><circle
           id="circle1264"
           r="1000"
           cy="81900"
           cx="9145.2402" /><circle
           id="circle1266"
           r="1000"
           cy="21900"
           cx="9145.2402" /><circle
           id="circle1268"
           r="1000"
           cy="8400"
           cx="8645.2402" /><circle
           id="circle1270"
           r="1000"
           cy="8400"
           cx="69645.203" /><circle
           id="circle1272"
           r="1000"
           cy="21900"
           cx="69145.203" /><circle
           id="circle1274"
           r="1000"
           cy="22150"
           cx="53145.199" /><circle
           id="circle1276"
           r="1000"
           cy="22150"
           cx="49145.199" /><circle
           id="circle1278"
           r="1000"
           cy="22150"
           cx="45145.199" /><circle
           id="circle1280"
           r="1000"
           cy="22150"
           cx="41145.199" /><circle
           id="circle1282"
           r="1000"
           cy="22150"
           cx="37145.199" /><circle
           id="circle1284"
           r="1000"
           cy="22150"
           cx="33145.199" /><circle
           id="circle1286"
           r="1000"
           cy="22150"
           cx="29145.199" /><circle
           id="circle1288"
           r="1000"
           cy="22150"
           cx="25145.199" /><path
           id="path1290"
           d="m 52145,39150 h 2000"
           inkscape:connector-curvature="0" /><path
           id="path1292"
           d="m 53145,38150 v 2000"
           inkscape:connector-curvature="0" /><path
           id="path1294"
           d="m 48145,39150 h 2000"
           inkscape:connector-curvature="0" /><path
           id="path1296"
           d="m 49145,38150 v 2000"
           inkscape:connector-curvature="0" /><path
           id="path1298"
           d="m 44145,39150 h 2000"
           inkscape:connector-curvature="0" /><path
           id="path1300"
           d="m 45145,38150 v 2000"
           inkscape:connector-curvature="0" /><path
           id="path1302"
           d="m 40145,39150 h 2000"
           inkscape:connector-curvature="0" /><path
           id="path1304"
           d="m 41145,38150 v 2000"
           inkscape:connector-curvature="0" /><path
           id="path1306"
           d="m 37145,38150 v 2000"
           inkscape:connector-curvature="0" /><path
           id="path1308"
           d="m 36145,39150 h 2000"
           inkscape:connector-curvature="0" /><path
           id="path1310"
           d="M 34145,39150 H 32145"
           inkscape:connector-curvature="0" /><path
           id="path1312"
           d="m 33145,38150 v 2000"
           inkscape:connector-curvature="0" /><path
           id="path1314"
           d="M 30145,39150 H 28145"
           inkscape:connector-curvature="0" /><path
           id="path1316"
           d="m 29145,38150 v 2000"
           inkscape:connector-curvature="0" /><path
           id="path1318"
           d="m 25145,38150 v 2000"
           inkscape:connector-curvature="0" /><path
           id="path1320"
           d="m 24145,39150 h 2000"
           inkscape:connector-curvature="0" /><circle
           id="circle1322"
           r="1000"
           cy="39150"
           cx="25145.199" /><circle
           id="circle1324"
           r="1000"
           cy="39150"
           cx="29145.199" /><circle
           id="circle1326"
           r="1000"
           cy="39150"
           cx="53145.199" /><circle
           id="circle1328"
           r="1000"
           cy="39150"
           cx="49145.199" /><circle
           id="circle1330"
           r="1000"
           cy="39150"
           cx="45145.199" /><circle
           id="circle1332"
           r="1000"
           cy="39150"
           cx="41145.199" /><circle
           id="circle1334"
           r="1000"
           cy="39150"
           cx="37145.199" /><circle
           id="circle1336"
           r="1000"
           cy="39150"
           cx="33145.199" /><circle
           id="circle1338"
           r="500"
           cy="10900"
           cx="48145.199" /><circle
           id="circle1340"
           r="500"
           cy="10900"
           cx="42145.199" /><circle
           id="circle1342"
           r="500"
           cy="10900"
           cx="36145.199" /><circle
           id="circle1344"
           r="500"
           cy="10900"
           cx="30145.199" /><circle
           id="circle1346"
           r="500"
           cy="10900"
           cx="24145.199" /><circle
           id="circle1348"
           r="500"
           cy="10900"
           cx="18145.199" /><circle
           id="circle1350"
           r="500"
           cy="10900"
           cx="12145.2" /></g><g
         id="g1364"
         style="fill:#000000;fill-opacity:0;stroke:#000000;stroke-width:59.05509949;stroke-linecap:round;stroke-linejoin:round;stroke-opacity:1"><circle
           id="circle1354"
           r="500"
           cy="51900"
           cx="39145.199" /><path
           id="path1356"
           d="m 39145,51900 v 1000"
           inkscape:connector-curvature="0" /><path
           id="path1358"
           d="M 39145,51900 V 50900"
           inkscape:connector-curvature="0" /><path
           id="path1360"
           d="m 39145,51900 h 1000"
           inkscape:connector-curvature="0" /><path
           id="path1362"
           d="M 39145,51900 H 38145"
           inkscape:connector-curvature="0" /></g><g
         id="g1382"
         style="fill:#000000;fill-opacity:0;stroke:#000000;stroke-width:39.37009811;stroke-linecap:round;stroke-linejoin:round;stroke-opacity:1"><circle
           id="circle1366"
           r="1400.89"
           cy="21900"
           cx="9145.2402" /><circle
           id="circle1368"
           r="1400.89"
           cy="81900"
           cx="9145.2402" /><circle
           id="circle1370"
           r="1400.89"
           cy="81900"
           cx="69145.203" /><circle
           id="circle1372"
           r="1400.89"
           cy="46150"
           cx="25145.199" /><circle
           id="circle1374"
           r="1400.89"
           cy="46150"
           cx="53145.199" /><circle
           id="circle1376"
           r="1400.89"
           cy="74150"
           cx="53145.199" /><circle
           id="circle1378"
           r="1400.89"
           cy="74150"
           cx="25145.199" /><circle
           id="circle1380"
           r="1400.89"
           cy="21900"
           cx="69145.203" /></g><g
         id="g1388"
         style="fill:#000000;fill-opacity:0;stroke:#000000;stroke-width:20;stroke-linecap:round;stroke-linejoin:round;stroke-opacity:1"><circle
           id="circle1384"
           r="20"
           cy="23900"
           cx="9645.2402" /><circle
           id="circle1386"
           r="20"
           cy="23900"
           cx="7645.2402" /></g><g
         id="g1394"
         style="fill:#000000;fill-opacity:0;stroke:#000000;stroke-width:50;stroke-linecap:round;stroke-linejoin:round;stroke-opacity:1"><path
           id="path1390"
           d="m 9645.24,23400 a 500,500 0 0 0 0,1000"
           inkscape:connector-curvature="0" /><path
           id="path1392"
           d="m 7645.24,24400 a 500,500 0 0 0 0,-1000"
           inkscape:connector-curvature="0" /></g><g
         id="g1400"
         style="fill:#000000;fill-opacity:0;stroke:#000000;stroke-width:20;stroke-linecap:round;stroke-linejoin:round;stroke-opacity:1"><circle
           id="circle1396"
           r="20"
           cy="23900"
           cx="70645.203" /><circle
           id="circle1398"
           r="20"
           cy="23900"
           cx="68645.203" /></g><g
         id="g1406"
         style="fill:#000000;fill-opacity:0;stroke:#000000;stroke-width:50;stroke-linecap:round;stroke-linejoin:round;stroke-opacity:1"><path
           id="path1402"
           d="m 70645.2,23400 a 500,500 0 0 0 0,1000"
           inkscape:connector-curvature="0" /><path
           id="path1404"
           d="m 68645.2,24400 a 500,500 0 0 0 0,-1000"
           inkscape:connector-curvature="0" /></g><g
         id="g1412"
         style="fill:#000000;fill-opacity:0;stroke:#000000;stroke-width:20;stroke-linecap:round;stroke-linejoin:round;stroke-opacity:1"><circle
           id="circle1408"
           r="20"
           cy="79900"
           cx="9395.2402" /><circle
           id="circle1410"
           r="20"
           cy="79900"
           cx="7395.2402" /></g><g
         id="g1418"
         style="fill:#000000;fill-opacity:0;stroke:#000000;stroke-width:50;stroke-linecap:round;stroke-linejoin:round;stroke-opacity:1"><path
           id="path1414"
           d="m 9395.24,79400 a 500,500 0 0 0 0,1000"
           inkscape:connector-curvature="0" /><path
           id="path1416"
           d="m 7395.24,80400 a 500,500 0 0 0 0,-1000"
           inkscape:connector-curvature="0" /></g><g
         id="g1424"
         style="fill:#000000;fill-opacity:0;stroke:#000000;stroke-width:20;stroke-linecap:round;stroke-linejoin:round;stroke-opacity:1"><circle
           id="circle1420"
           r="20"
           cy="79900"
           cx="26145.199" /><circle
           id="circle1422"
           r="20"
           cy="79900"
           cx="24145.199" /></g><g
         id="g1430"
         style="fill:#000000;fill-opacity:0;stroke:#000000;stroke-width:50;stroke-linecap:round;stroke-linejoin:round;stroke-opacity:1"><path
           id="path1426"
           d="m 26145.2,79400 a 500,500 0 0 0 0,1000"
           inkscape:connector-curvature="0" /><path
           id="path1428"
           d="m 24145.2,80400 a 500,500 0 0 0 0,-1000"
           inkscape:connector-curvature="0" /></g><g
         id="g1436"
         style="fill:#000000;fill-opacity:0;stroke:#000000;stroke-width:20;stroke-linecap:round;stroke-linejoin:round;stroke-opacity:1"><circle
           id="circle1432"
           r="20"
           cy="79900"
           cx="38145.199" /><circle
           id="circle1434"
           r="20"
           cy="79900"
           cx="36145.199" /></g><g
         id="g1442"
         style="fill:#000000;fill-opacity:0;stroke:#000000;stroke-width:50;stroke-linecap:round;stroke-linejoin:round;stroke-opacity:1"><path
           id="path1438"
           d="m 38145.2,79400 a 500,500 0 0 0 0,1000"
           inkscape:connector-curvature="0" /><path
           id="path1440"
           d="m 36145.2,80400 a 500,500 0 0 0 0,-1000"
           inkscape:connector-curvature="0" /></g><g
         id="g1448"
         style="fill:#000000;fill-opacity:0;stroke:#000000;stroke-width:20;stroke-linecap:round;stroke-linejoin:round;stroke-opacity:1"><circle
           id="circle1444"
           r="20"
           cy="79900"
           cx="42145.199" /><circle
           id="circle1446"
           r="20"
           cy="79900"
           cx="40145.199" /></g><g
         id="g1454"
         style="fill:#000000;fill-opacity:0;stroke:#000000;stroke-width:50;stroke-linecap:round;stroke-linejoin:round;stroke-opacity:1"><path
           id="path1450"
           d="m 42145.2,79400 a 500,500 0 0 0 0,1000"
           inkscape:connector-curvature="0" /><path
           id="path1452"
           d="m 40145.2,80400 a 500,500 0 0 0 0,-1000"
           inkscape:connector-curvature="0" /></g><g
         id="g1460"
         style="fill:#000000;fill-opacity:0;stroke:#000000;stroke-width:20;stroke-linecap:round;stroke-linejoin:round;stroke-opacity:1"><circle
           id="circle1456"
           r="20"
           cy="79900"
           cx="54145.199" /><circle
           id="circle1458"
           r="20"
           cy="79900"
           cx="52145.199" /></g><g
         id="g1466"
         style="fill:#000000;fill-opacity:0;stroke:#000000;stroke-width:50;stroke-linecap:round;stroke-linejoin:round;stroke-opacity:1"><path
           id="path1462"
           d="m 54145.2,79400 a 500,500 0 0 0 0,1000"
           inkscape:connector-curvature="0" /><path
           id="path1464"
           d="m 52145.2,80400 a 500,500 0 0 0 0,-1000"
           inkscape:connector-curvature="0" /></g><g
         id="g1472"
         style="fill:#000000;fill-opacity:0;stroke:#000000;stroke-width:20;stroke-linecap:round;stroke-linejoin:round;stroke-opacity:1"><circle
           id="circle1468"
           r="20"
           cy="79900"
           cx="70895.203" /><circle
           id="circle1470"
           r="20"
           cy="79900"
           cx="68895.203" /></g><g
         id="g1478"
         style="fill:#000000;fill-opacity:0;stroke:#000000;stroke-width:50;stroke-linecap:round;stroke-linejoin:round;stroke-opacity:1"><path
           id="path1474"
           d="m 70895.2,79400 a 500,500 0 0 0 0,1000"
           inkscape:connector-curvature="0" /><path
           id="path1476"
           d="m 68895.2,80400 a 500,500 0 0 0 0,-1000"
           inkscape:connector-curvature="0" /></g><g
         id="g1568"
         style="fill:#000000;fill-opacity:0;stroke:#000000;stroke-width:200;stroke-linecap:round;stroke-linejoin:round;stroke-opacity:1"><circle
           id="circle1480"
           r="310"
           cy="72900"
           cx="61145.199" /><circle
           id="circle1482"
           r="310"
           cy="65900"
           cx="61145.199" /><circle
           id="circle1484"
           r="310"
           cy="58900"
           cx="61145.199" /><circle
           id="circle1486"
           r="310"
           cy="51900"
           cx="61145.199" /><circle
           id="circle1488"
           r="310"
           cy="44900"
           cx="61145.199" /><circle
           id="circle1490"
           r="310"
           cy="37900"
           cx="61145.199" /><circle
           id="circle1492"
           r="310"
           cy="30900"
           cx="61145.199" /><circle
           id="circle1494"
           r="310"
           cy="72900"
           cx="17145.199" /><circle
           id="circle1496"
           r="310"
           cy="65900"
           cx="17145.199" /><circle
           id="circle1498"
           r="310"
           cy="58900"
           cx="17145.199" /><circle
           id="circle1500"
           r="310"
           cy="51900"
           cx="17145.199" /><circle
           id="circle1502"
           r="310"
           cy="44900"
           cx="17145.199" /><circle
           id="circle1504"
           r="310"
           cy="37900"
           cx="17145.199" /><circle
           id="circle1506"
           r="310"
           cy="30900"
           cx="17145.199" /><circle
           id="circle1508"
           r="310"
           cy="65900"
           cx="67145.203" /><circle
           id="circle1510"
           r="310"
           cy="65900"
           cx="63145.199" /><circle
           id="circle1512"
           r="310"
           cy="65900"
           cx="59145.199" /><circle
           id="circle1514"
           r="310"
           cy="65900"
           cx="55145.199" /><circle
           id="circle1516"
           r="310"
           cy="65900"
           cx="51145.199" /><circle
           id="circle1518"
           r="310"
           cy="65900"
           cx="47145.199" /><circle
           id="circle1520"
           r="310"
           cy="65900"
           cx="43145.199" /><circle
           id="circle1522"
           r="310"
           cy="65900"
           cx="39145.199" /><circle
           id="circle1524"
           r="310"
           cy="65900"
           cx="35145.199" /><circle
           id="circle1526"
           r="310"
           cy="65900"
           cx="31145.199" /><circle
           id="circle1528"
           r="310"
           cy="65900"
           cx="27145.199" /><circle
           id="circle1530"
           r="310"
           cy="65900"
           cx="23145.199" /><circle
           id="circle1532"
           r="310"
           cy="65900"
           cx="19145.199" /><circle
           id="circle1534"
           r="310"
           cy="65900"
           cx="15145.2" /><circle
           id="circle1536"
           r="310"
           cy="65900"
           cx="11145.2" /><circle
           id="circle1538"
           r="310"
           cy="37900"
           cx="67145.203" /><circle
           id="circle1540"
           r="310"
           cy="37900"
           cx="63145.199" /><circle
           id="circle1542"
           r="310"
           cy="37900"
           cx="59145.199" /><circle
           id="circle1544"
           r="310"
           cy="37900"
           cx="55145.199" /><circle
           id="circle1546"
           r="310"
           cy="37900"
           cx="51145.199" /><circle
           id="circle1548"
           r="310"
           cy="37900"
           cx="47145.199" /><circle
           id="circle1550"
           r="310"
           cy="37900"
           cx="43145.199" /><circle
           id="circle1552"
           r="310"
           cy="37900"
           cx="39145.199" /><circle
           id="circle1554"
           r="310"
           cy="37900"
           cx="35145.199" /><circle
           id="circle1556"
           r="310"
           cy="37900"
           cx="31145.199" /><circle
           id="circle1558"
           r="310"
           cy="37900"
           cx="27145.199" /><circle
           id="circle1560"
           r="310"
           cy="37900"
           cx="23145.199" /><circle
           id="circle1562"
           r="310"
           cy="37900"
           cx="19145.199" /><circle
           id="circle1564"
           r="310"
           cy="37900"
           cx="15145.2" /><circle
           id="circle1566"
           r="310"
           cy="37900"
           cx="11145.2" /></g><g
         transform="translate(2.4047592e-6)"
         id="g1818"
         style="fill:#000000;fill-opacity:0;stroke:#000000;stroke-width:30;stroke-linecap:round;stroke-linejoin:round;stroke-opacity:1"><path
           inkscape:connector-curvature="0"
           id="path1592"
           d="m 70895,8400 v 3250" /><path
           inkscape:connector-curvature="0"
           id="path1594"
           d="m 70395,17150 h -250" /><path
           inkscape:connector-curvature="0"
           id="path1596"
           d="M 69645,16650 V 12650" /><path
           inkscape:connector-curvature="0"
           id="path1598"
           d="m 70395,12150 h -250" /><path
           inkscape:connector-curvature="0"
           id="path1600"
           d="m 70145.2,12150 a 500,500 0 0 0 -500,500" /><path
           inkscape:connector-curvature="0"
           id="path1602"
           d="m 69645.2,16650 a 500,500 0 0 0 500,500" /><path
           inkscape:connector-curvature="0"
           id="path1604"
           d="m 70895.2,17650 a 500,500 0 0 0 -500,-500" /><path
           inkscape:connector-curvature="0"
           id="path1606"
           d="m 70395.2,12150 a 500,500 0 0 0 500,-500" /><path
           inkscape:connector-curvature="0"
           id="path1608"
           d="m 69895,7400 v 0" /><path
           inkscape:connector-curvature="0"
           id="path1610"
           d="M 54395,7400 H 69895" /><path
           inkscape:connector-curvature="0"
           id="path1612"
           d="M 46395,7900 V 8900" /><path
           inkscape:connector-curvature="0"
           id="path1614"
           d="m 46895,9400 h 6500" /><path
           inkscape:connector-curvature="0"
           id="path1616"
           d="M 53895,7900 V 8900" /><path
           inkscape:connector-curvature="0"
           id="path1618"
           d="m 54395.2,7400 a 500,500 0 0 0 -500,500" /><path
           inkscape:connector-curvature="0"
           id="path1620"
           d="m 53395.2,9400 a 500,500 0 0 0 500,-500" /><path
           inkscape:connector-curvature="0"
           id="path1622"
           d="m 46395.2,8900 a 500,500 0 0 0 500,500" /><path
           inkscape:connector-curvature="0"
           id="path1624"
           d="m 46395.2,7900 a 500,500 0 0 0 -500,-500" /><path
           inkscape:connector-curvature="0"
           id="path1626"
           d="M 7645,24400 H 7395" /><path
           inkscape:connector-curvature="0"
           id="path1628"
           d="m 70645,24400 h 250" /><path
           inkscape:connector-curvature="0"
           id="path1630"
           d="M 40145,80400 H 38145" /><path
           inkscape:connector-curvature="0"
           id="path1632"
           d="m 24145.2,80400 a 500,500 0 0 0 0,-1000" /><path
           inkscape:connector-curvature="0"
           id="path1634"
           d="m 38145,79400 h 2000" /><path
           inkscape:connector-curvature="0"
           id="path1636"
           d="m 70895.2,79400 a 250,250 0 0 0 250,-250" /><path
           inkscape:connector-curvature="0"
           id="path1638"
           d="M 52145,80400 H 42145" /><path
           inkscape:connector-curvature="0"
           id="path1640"
           d="M 54145,80400 H 68895" /><path
           inkscape:connector-curvature="0"
           id="path1642"
           d="m 68895.2,80400 a 500,500 0 0 0 0,-1000" /><path
           inkscape:connector-curvature="0"
           id="path1644"
           d="m 7395.24,80400 a 250,250 0 0 0 -250,250" /><path
           inkscape:connector-curvature="0"
           id="path1646"
           d="m 26145.2,79400 a 500,500 0 0 0 0,1000" /><path
           inkscape:connector-curvature="0"
           id="path1648"
           d="M 9395,80400 H 24145" /><path
           inkscape:connector-curvature="0"
           id="path1650"
           d="m 9395.24,79400 a 500,500 0 0 0 0,1000" /><path
           inkscape:connector-curvature="0"
           id="path1652"
           d="m 54145.2,79400 a 500,500 0 0 0 0,1000" /><path
           inkscape:connector-curvature="0"
           id="path1654"
           d="m 7395.24,80400 a 500,500 0 0 0 0,-1000" /><path
           inkscape:connector-curvature="0"
           id="path1656"
           d="M 36145,80400 H 26145" /><path
           inkscape:connector-curvature="0"
           id="path1658"
           d="M 9395,79400 H 24145" /><path
           inkscape:connector-curvature="0"
           id="path1660"
           d="M 68895,79400 H 54145" /><path
           inkscape:connector-curvature="0"
           id="path1662"
           d="M 42145,79400 H 52145" /><path
           inkscape:connector-curvature="0"
           id="path1664"
           d="m 40145.2,80400 a 500,500 0 0 0 0,-1000" /><path
           inkscape:connector-curvature="0"
           id="path1666"
           d="m 38145.2,79400 a 500,500 0 0 0 0,1000" /><path
           inkscape:connector-curvature="0"
           id="path1668"
           d="m 36145.2,80400 a 500,500 0 0 0 0,-1000" /><path
           inkscape:connector-curvature="0"
           id="path1670"
           d="m 71145.2,80650 a 250,250 0 0 0 -250,-250" /><path
           inkscape:connector-curvature="0"
           id="path1672"
           d="m 42145.2,79400 a 500,500 0 0 0 0,1000" /><path
           inkscape:connector-curvature="0"
           id="path1674"
           d="m 52145.2,80400 a 500,500 0 0 0 0,-1000" /><path
           inkscape:connector-curvature="0"
           id="path1676"
           d="m 70895.2,79400 a 500,500 0 0 0 0,1000" /><path
           inkscape:connector-curvature="0"
           id="path1678"
           d="m 7145.24,79150 a 250,250 0 0 0 250,250" /><path
           inkscape:connector-curvature="0"
           id="path1680"
           d="M 26145,79400 H 36145" /><path
           inkscape:connector-curvature="0"
           id="path1682"
           d="m 68645.2,24400 a 500,500 0 0 0 0,-1000" /><path
           inkscape:connector-curvature="0"
           id="path1684"
           d="m 70645.2,23400 a 500,500 0 0 0 0,1000" /><path
           inkscape:connector-curvature="0"
           id="path1686"
           d="m 9645.24,23400 a 500,500 0 0 0 0,1000" /><path
           inkscape:connector-curvature="0"
           id="path1688"
           d="m 7645.24,24400 a 500,500 0 0 0 0,-1000" /><path
           inkscape:connector-curvature="0"
           id="path1690"
           d="M 28395,24400 H 25895" /><path
           inkscape:connector-curvature="0"
           id="path1692"
           d="m 25895,23400 h 2500" /><path
           inkscape:connector-curvature="0"
           id="path1694"
           d="M 32395,24400 H 29895" /><path
           inkscape:connector-curvature="0"
           id="path1696"
           d="m 29895,23400 h 2500" /><path
           inkscape:connector-curvature="0"
           id="path1698"
           d="M 36395,24400 H 33895" /><path
           inkscape:connector-curvature="0"
           id="path1700"
           d="m 33895,23400 h 2500" /><path
           inkscape:connector-curvature="0"
           id="path1702"
           d="M 40395,24400 H 37895" /><path
           inkscape:connector-curvature="0"
           id="path1704"
           d="m 37895,23400 h 2500" /><path
           inkscape:connector-curvature="0"
           id="path1706"
           d="M 44395,24400 H 41895" /><path
           inkscape:connector-curvature="0"
           id="path1708"
           d="m 41895,23400 h 2500" /><path
           inkscape:connector-curvature="0"
           id="path1710"
           d="m 45895,24400 h 2500" /><path
           inkscape:connector-curvature="0"
           id="path1712"
           d="M 48395,23400 H 45895" /><path
           inkscape:connector-curvature="0"
           id="path1714"
           d="M 52395,24400 H 49895" /><path
           inkscape:connector-curvature="0"
           id="path1716"
           d="m 49895,23400 h 2500" /><path
           inkscape:connector-curvature="0"
           id="path1718"
           d="m 70645,24400 v 0" /><path
           inkscape:connector-curvature="0"
           id="path1720"
           d="M 53895,24400 H 68645" /><path
           inkscape:connector-curvature="0"
           id="path1722"
           d="m 53895,23400 v 0" /><path
           inkscape:connector-curvature="0"
           id="path1724"
           d="M 68645,23400 H 53895" /><path
           inkscape:connector-curvature="0"
           id="path1726"
           d="m 70645.2,23400 a 250,250 0 0 0 250,-250" /><path
           inkscape:connector-curvature="0"
           id="path1728"
           d="m 71145.2,24650 a 250,250 0 0 0 -250,-250" /><path
           inkscape:connector-curvature="0"
           id="path1730"
           d="m 53895.2,23400 a 500,500 0 0 0 0,1000" /><path
           inkscape:connector-curvature="0"
           id="path1732"
           d="m 52395.2,24400 a 500,500 0 0 0 0,-1000" /><path
           inkscape:connector-curvature="0"
           id="path1734"
           d="m 49895.2,23400 a 500,500 0 0 0 0,1000" /><path
           inkscape:connector-curvature="0"
           id="path1736"
           d="m 48395.2,24400 a 500,500 0 0 0 0,-1000" /><path
           inkscape:connector-curvature="0"
           id="path1738"
           d="m 45895.2,23400 a 500,500 0 0 0 0,1000" /><path
           inkscape:connector-curvature="0"
           id="path1740"
           d="m 44395.2,24400 a 500,500 0 0 0 0,-1000" /><path
           inkscape:connector-curvature="0"
           id="path1742"
           d="m 41895.2,23400 a 500,500 0 0 0 0,1000" /><path
           inkscape:connector-curvature="0"
           id="path1744"
           d="m 40395.2,24400 a 500,500 0 0 0 0,-1000" /><path
           inkscape:connector-curvature="0"
           id="path1746"
           d="m 37895.2,23400 a 500,500 0 0 0 0,1000" /><path
           inkscape:connector-curvature="0"
           id="path1748"
           d="m 36395.2,24400 a 500,500 0 0 0 0,-1000" /><path
           inkscape:connector-curvature="0"
           id="path1750"
           d="m 33895.2,23400 a 500,500 0 0 0 0,1000" /><path
           inkscape:connector-curvature="0"
           id="path1752"
           d="m 32395.2,24400 a 500,500 0 0 0 0,-1000" /><path
           inkscape:connector-curvature="0"
           id="path1754"
           d="m 29895.2,23400 a 500,500 0 0 0 0,1000" /><path
           inkscape:connector-curvature="0"
           id="path1756"
           d="m 28395.2,24400 a 500,500 0 0 0 0,-1000" /><path
           inkscape:connector-curvature="0"
           id="path1758"
           d="m 25895.2,23400 a 500,500 0 0 0 0,1000" /><path
           inkscape:connector-curvature="0"
           id="path1760"
           d="m 24395.2,24400 a 500,500 0 0 0 0,-1000" /><path
           inkscape:connector-curvature="0"
           id="path1762"
           d="M 9645,24400 H 24395" /><path
           inkscape:connector-curvature="0"
           id="path1764"
           d="M 9645,23400 H 24395" /><path
           inkscape:connector-curvature="0"
           id="path1766"
           d="m 7395.24,24400 a 250,250 0 0 0 -250,250" /><path
           inkscape:connector-curvature="0"
           id="path1768"
           d="m 7395.24,23150 a 250,250 0 0 0 250,250" /><path
           inkscape:connector-curvature="0"
           id="path1770"
           d="m 70895.2,8400 a 1000,1000 0 0 0 -1000,-1000" /><path
           inkscape:connector-curvature="0"
           id="path1772"
           d="m 8395.24,7400 a 1000,1000 0 0 0 -1000,1000" /><path
           inkscape:connector-curvature="0"
           id="path1774"
           d="m 7145.24,82400 a 1500,1500 0 0 0 1500,1500" /><path
           inkscape:connector-curvature="0"
           id="path1776"
           d="m 69645.2,83900 a 1500,1500 0 0 0 1500,-1500" /><path
           inkscape:connector-curvature="0"
           id="path1778"
           d="M 71145,82400 V 80650" /><path
           inkscape:connector-curvature="0"
           id="path1780"
           d="m 67895,76900 v 0" /><path
           inkscape:connector-curvature="0"
           id="path1782"
           d="M 8645,83900 H 69645" /><path
           inkscape:connector-curvature="0"
           id="path1786"
           d="m 7145,80650 v 1750" /><path
           inkscape:connector-curvature="0"
           id="path1788"
           d="m 70895,17650 v 5500" /><path
           inkscape:connector-curvature="0"
           id="path1790"
           d="M 8395,7400 H 45895" /><path
           inkscape:connector-curvature="0"
           id="path1792"
           d="M 7395,23150 V 8400" /><path
           inkscape:connector-curvature="0"
           id="path1794"
           d="m 7145,73400 v 5750" /><path
           inkscape:connector-curvature="0"
           id="path1796"
           d="m 7145,72400 v 0" /><path
           inkscape:connector-curvature="0"
           id="path1798"
           d="M 7145,31400 V 72400" /><path
           inkscape:connector-curvature="0"
           id="path1800"
           d="m 71145,73400 v 5750" /><path
           inkscape:connector-curvature="0"
           id="path1802"
           d="m 71145,72400 v 0" /><path
           inkscape:connector-curvature="0"
           id="path1804"
           d="M 71145,31400 V 72400" /><path
           inkscape:connector-curvature="0"
           id="path1806"
           d="m 71145.2,30400 a 500,500 0 0 0 0,1000" /><path
           inkscape:connector-curvature="0"
           id="path1808"
           d="m 71145.2,72400 a 500,500 0 0 0 0,1000" /><path
           inkscape:connector-curvature="0"
           id="path1810"
           d="m 7145.24,73400 a 500,500 0 0 0 0,-1000" /><path
           inkscape:connector-curvature="0"
           id="path1812"
           d="m 7145.24,31400 a 500,500 0 0 0 0,-1000" /><path
           inkscape:connector-curvature="0"
           id="path1814"
           d="M 7145,30400 V 24650" /><path
           inkscape:connector-curvature="0"
           id="path1816"
           d="m 71145,24650 v 5750" /></g></g></g></svg>