<?xml version="1.0" encoding="UTF-8" standalone="no"?>
<svg
   xmlns:dc="http://purl.org/dc/elements/1.1/"
   xmlns:cc="http://creativecommons.org/ns#"
   xmlns:rdf="http://www.w3.org/1999/02/22-rdf-syntax-ns#"
   xmlns:svg="http://www.w3.org/2000/svg"
   xmlns="http://www.w3.org/2000/svg"
   xmlns:sodipodi="http://sodipodi.sourceforge.net/DTD/sodipodi-0.dtd"
   xmlns:inkscape="http://www.inkscape.org/namespaces/inkscape"
   width="128.778mm"
   height="67.818mm"
   viewBox="-64.389000 -33.909000 128.778000 67.818000"
   version="1.1"
   id="svg31"
   sodipodi:docname="desk_klok_back_cover.svg"
   inkscape:version="0.92.2 (unknown)">
  <metadata
     id="metadata37">
    <rdf:RDF>
      <cc:Work
         rdf:about="">
        <dc:format>image/svg+xml</dc:format>
        <dc:type
           rdf:resource="http://purl.org/dc/dcmitype/StillImage" />
        <dc:title></dc:title>
      </cc:Work>
    </rdf:RDF>
  </metadata>
  <defs
     id="defs35" />
  <sodipodi:namedview
     pagecolor="#ffffff"
     bordercolor="#666666"
     borderopacity="1"
     objecttolerance="10"
     gridtolerance="10"
     guidetolerance="10"
     inkscape:pageopacity="0"
     inkscape:pageshadow="2"
     inkscape:window-width="1366"
     inkscape:window-height="744"
     id="namedview33"
     showgrid="false"
     inkscape:zoom="0.89783036"
     inkscape:cx="91.125115"
     inkscape:cy="213.58849"
     inkscape:window-x="0"
     inkscape:window-y="24"
     inkscape:window-maximized="1"
     inkscape:current-layer="svg31" />
  <g
     id="Fillet"
     transform="scale(1,-1)"
     style="fill:none;stroke-width:0.13229166;stroke-miterlimit:4;stroke-dasharray:none">
    <path
       id="Fillet_f0000"
       d="M -5.334 -33.909 L -62.357 -33.909 L -62.357 -33.909 L -5.334 -33.909 L -5.334 -33.909 Z "
       style="stroke-width:0.13229166;stroke-miterlimit:4;stroke-dasharray:none;fill:none;fill-rule:evenodd"
       stroke-width="0.35 px"
       stroke="#191919" />
    <path
       id="Fillet_f0001"
       d="M 62.357 33.909 L 5.334 33.909 L 5.334 31.877 L -5.334 31.877 L -5.334 33.909 L -62.357 33.909 A 2.032 2.032 0 0 1 -64.389 31.877 L -64.389 5.334 L -62.357 5.334 L -62.357 -5.334 L -64.389 -5.334 L -64.389 -31.877 A 2.032 2.032 0 0 1 -62.357 -33.909 L -5.334 -33.909 L -5.334 -31.877 L 5.334 -31.877 L 5.334 -33.909 L 62.357 -33.909 A 2.032 2.032 0 0 1 64.389 -31.877 L 64.389 -5.334 L 62.357 -5.334 L 62.357 5.334 L 64.389 5.334 L 64.389 31.877 A 2.032 2.032 0 0 1 62.357 33.909 Z "
       style="stroke-width:0.13229166;stroke-miterlimit:4;stroke-dasharray:none;fill:none;fill-rule:evenodd"
       stroke-width="0.35 px"
       stroke="#191919" />
    <path
       id="Fillet_f0002"
       d="M -62.357 -33.909 A 2.032 2.032 0 0 0 -64.389 -31.877 L -64.389 -31.877 A 2.032 2.032 0 0 1 -62.357 -33.909 L -62.357 -33.909 Z "
       style="stroke-width:0.13229166;stroke-miterlimit:4;stroke-dasharray:none;fill:none;fill-rule:evenodd"
       stroke-width="0.35 px"
       stroke="#191919" />
    <path
       id="Fillet_f0003"
       d="M -5.334 -33.909 L -5.334 -33.909 L -5.334 -31.877 L -5.334 -31.877 L -5.334 -33.909 Z "
       style="stroke-width:0.13229166;stroke-miterlimit:4;stroke-dasharray:none;fill:none;fill-rule:evenodd"
       stroke-width="0.35 px"
       stroke="#191919" />
    <path
       id="Fillet_f0004"
       d="M -5.334 -31.877 L 5.334 -31.877 L 5.334 -33.909 L 62.357 -33.909 A 2.032 2.032 0 0 1 64.389 -31.877 L 64.389 -5.334 L 62.357 -5.334 L 62.357 5.334 L 64.389 5.334 L 64.389 31.877 A 2.032 2.032 0 0 1 62.357 33.909 L 5.334 33.909 L 5.334 31.877 L -5.334 31.877 L -5.334 33.909 L -62.357 33.909 A 2.032 2.032 0 0 1 -64.389 31.877 L -64.389 5.334 L -62.357 5.334 L -62.357 -5.334 L -64.389 -5.334 L -64.389 -31.877 A 2.032 2.032 0 0 1 -62.357 -33.909 L -5.334 -33.909 L -5.334 -31.877 Z "
       style="stroke-width:0.13229166;stroke-miterlimit:4;stroke-dasharray:none;fill:none;fill-rule:evenodd"
       stroke-width="0.35 px"
       stroke="#191919" />
    <path
       id="Fillet_f0005"
       d="M -64.389 -31.877 L -64.389 -5.334 L -64.389 -5.334 L -64.389 -31.877 L -64.389 -31.877 Z "
       style="stroke-width:0.13229166;stroke-miterlimit:4;stroke-dasharray:none;fill:none;fill-rule:evenodd"
       stroke-width="0.35 px"
       stroke="#191919" />
    <path
       id="Fillet_f0006"
       d="M -5.334 -31.877 L -5.334 -31.877 L 5.334 -31.877 L 5.334 -31.877 L -5.334 -31.877 Z "
       style="stroke-width:0.13229166;stroke-miterlimit:4;stroke-dasharray:none;fill:none;fill-rule:evenodd"
       stroke-width="0.35 px"
       stroke="#191919" />
    <path
       id="Fillet_f0007"
       d="M -62.357 -5.334 L -62.357 -5.334 L -64.389 -5.334 L -64.389 -5.334 L -62.357 -5.334 Z "
       style="stroke-width:0.13229166;stroke-miterlimit:4;stroke-dasharray:none;fill:none;fill-rule:evenodd"
       stroke-width="0.35 px"
       stroke="#191919" />
    <path
       id="Fillet_f0008"
       d="M 5.334 -31.877 L 5.334 -31.877 L 5.334 -33.909 L 5.334 -33.909 L 5.334 -31.877 Z "
       style="stroke-width:0.13229166;stroke-miterlimit:4;stroke-dasharray:none;fill:none;fill-rule:evenodd"
       stroke-width="0.35 px"
       stroke="#191919" />
    <path
       id="Fillet_f0009"
       d="M -62.357 5.334 L -62.357 5.334 L -62.357 -5.334 L -62.357 -5.334 L -62.357 5.334 Z "
       style="stroke-width:0.13229166;stroke-miterlimit:4;stroke-dasharray:none;fill:none;fill-rule:evenodd"
       stroke-width="0.35 px"
       stroke="#191919" />
    <path
       id="Fillet_f0010"
       d="M 62.357 -33.909 L 5.334 -33.909 L 5.334 -33.909 L 62.357 -33.909 L 62.357 -33.909 Z "
       style="stroke-width:0.13229166;stroke-miterlimit:4;stroke-dasharray:none;fill:none;fill-rule:evenodd"
       stroke-width="0.35 px"
       stroke="#191919" />
    <path
       id="Fillet_f0011"
       d="M -64.389 5.334 L -64.389 5.334 L -62.357 5.334 L -62.357 5.334 L -64.389 5.334 Z "
       style="stroke-width:0.13229166;stroke-miterlimit:4;stroke-dasharray:none;fill:none;fill-rule:evenodd"
       stroke-width="0.35 px"
       stroke="#191919" />
    <path
       id="Fillet_f0012"
       d="M 62.357 -33.909 A 2.032 2.032 0 0 1 64.389 -31.877 L 64.389 -31.877 A 2.032 2.032 0 0 0 62.357 -33.909 L 62.357 -33.909 Z "
       style="stroke-width:0.13229166;stroke-miterlimit:4;stroke-dasharray:none;fill:none;fill-rule:evenodd"
       stroke-width="0.35 px"
       stroke="#191919" />
    <path
       id="Fillet_f0013"
       d="M -64.389 5.334 L -64.389 31.877 L -64.389 31.877 L -64.389 5.334 L -64.389 5.334 Z "
       style="stroke-width:0.13229166;stroke-miterlimit:4;stroke-dasharray:none;fill:none;fill-rule:evenodd"
       stroke-width="0.35 px"
       stroke="#191919" />
    <path
       id="Fillet_f0014"
       d="M 64.389 -5.334 L 64.389 -31.877 L 64.389 -31.877 L 64.389 -5.334 L 64.389 -5.334 Z "
       style="stroke-width:0.13229166;stroke-miterlimit:4;stroke-dasharray:none;fill:none;fill-rule:evenodd"
       stroke-width="0.35 px"
       stroke="#191919" />
    <path
       id="Fillet_f0015"
       d="M -62.357 33.909 A 2.032 2.032 0 0 1 -64.389 31.877 L -64.389 31.877 A 2.032 2.032 0 0 0 -62.357 33.909 L -62.357 33.909 Z "
       style="stroke-width:0.13229166;stroke-miterlimit:4;stroke-dasharray:none;fill:none;fill-rule:evenodd"
       stroke-width="0.35 px"
       stroke="#191919" />
    <path
       id="Fillet_f0016"
       d="M 64.389 -5.334 L 64.389 -5.334 L 62.357 -5.334 L 62.357 -5.334 L 64.389 -5.334 Z "
       style="stroke-width:0.13229166;stroke-miterlimit:4;stroke-dasharray:none;fill:none;fill-rule:evenodd"
       stroke-width="0.35 px"
       stroke="#191919" />
    <path
       id="Fillet_f0017"
       d="M -62.357 33.909 L -5.334 33.909 L -5.334 33.909 L -62.357 33.909 L -62.357 33.909 Z "
       style="stroke-width:0.13229166;stroke-miterlimit:4;stroke-dasharray:none;fill:none;fill-rule:evenodd"
       stroke-width="0.35 px"
       stroke="#191919" />
    <path
       id="Fillet_f0018"
       d="M 62.357 -5.334 L 62.357 -5.334 L 62.357 5.334 L 62.357 5.334 L 62.357 -5.334 Z "
       style="stroke-width:0.13229166;stroke-miterlimit:4;stroke-dasharray:none;fill:none;fill-rule:evenodd"
       stroke-width="0.35 px"
       stroke="#191919" />
    <path
       id="Fillet_f0019"
       d="M -5.334 31.877 L -5.334 31.877 L -5.334 33.909 L -5.334 33.909 L -5.334 31.877 Z "
       style="stroke-width:0.13229166;stroke-miterlimit:4;stroke-dasharray:none;fill:none;fill-rule:evenodd"
       stroke-width="0.35 px"
       stroke="#191919" />
    <path
       id="Fillet_f0020"
       d="M 62.357 5.334 L 62.357 5.334 L 64.389 5.334 L 64.389 5.334 L 62.357 5.334 Z "
       style="stroke-width:0.13229166;stroke-miterlimit:4;stroke-dasharray:none;fill:none;fill-rule:evenodd"
       stroke-width="0.35 px"
       stroke="#191919" />
    <path
       id="Fillet_f0021"
       d="M 5.334 31.877 L 5.334 31.877 L -5.334 31.877 L -5.334 31.877 L 5.334 31.877 Z "
       style="stroke-width:0.13229166;stroke-miterlimit:4;stroke-dasharray:none;fill:none;fill-rule:evenodd"
       stroke-width="0.35 px"
       stroke="#191919" />
    <path
       id="Fillet_f0022"
       d="M 64.389 31.877 L 64.389 5.334 L 64.389 5.334 L 64.389 31.877 L 64.389 31.877 Z "
       style="stroke-width:0.13229166;stroke-miterlimit:4;stroke-dasharray:none;fill:none;fill-rule:evenodd"
       stroke-width="0.35 px"
       stroke="#191919" />
    <path
       id="Fillet_f0023"
       d="M 5.334 33.909 L 5.334 33.909 L 5.334 31.877 L 5.334 31.877 L 5.334 33.909 Z "
       style="stroke-width:0.13229166;stroke-miterlimit:4;stroke-dasharray:none;fill:none;fill-rule:evenodd"
       stroke-width="0.35 px"
       stroke="#191919" />
    <path
       id="Fillet_f0024"
       d="M 64.389 31.877 A 2.032 2.032 0 0 1 62.357 33.909 L 62.357 33.909 A 2.032 2.032 0 0 0 64.389 31.877 L 64.389 31.877 Z "
       style="stroke-width:0.13229166;stroke-miterlimit:4;stroke-dasharray:none;fill:none;fill-rule:evenodd"
       stroke-width="0.35 px"
       stroke="#191919" />
    <path
       id="Fillet_f0025"
       d="M 5.334 33.909 L 62.357 33.909 L 62.357 33.909 L 5.334 33.909 L 5.334 33.909 Z "
       style="stroke-width:0.13229166;stroke-miterlimit:4;stroke-dasharray:none;fill:none;fill-rule:evenodd"
       stroke-width="0.35 px"
       stroke="#191919" />
    <title
       id="title28">Fillet</title>
  </g>
</svg>
